<svg width="130" height="96" viewBox="0 0 130 96" fill="none" xmlns="http://www.w3.org/2000/svg">
    <g clip-path="url(#clip0_1591_52218)">
        <path d="M66.7374 4.3054L1.77477 31.8684C1.0759 32.165 0.830606 33.0756 1.22925 33.9006L27.866 89.0211C28.2648 89.8463 29.1569 90.2741 29.8557 89.9775L35.3075 87.6644L72.1597 12.3648L68.7272 5.2619C68.3285 4.43676 67.4387 4.00784 66.7374 4.3054Z" fill="#6817C5"/>
        <path d="M29.3875 90.1983C28.7501 90.1983 28.086 89.7683 27.7518 89.0767L1.11501 33.9561C0.884593 33.4791 0.84759 32.9524 1.01366 32.5108C1.14565 32.1598 1.39832 31.8902 1.72538 31.7515L66.6881 4.18848C67.4485 3.86587 68.4148 4.32263 68.842 5.20678L72.2745 12.3097C72.2915 12.3448 72.2914 12.3859 72.2742 12.421L35.422 87.7205C35.4085 87.748 35.3856 87.7697 35.3574 87.7817L29.9056 90.0948C29.7401 90.165 29.5647 90.1983 29.3875 90.1983ZM67.2104 4.33827C67.0652 4.33827 66.9223 4.36536 66.7874 4.42271L1.82469 31.9856C1.55867 32.0985 1.36055 32.311 1.25171 32.6003C1.11005 32.9771 1.14362 33.4309 1.34402 33.8455L27.9808 88.966C28.3498 89.7298 29.1689 90.1312 29.8063 89.8607L35.2145 87.5661L72.0185 12.3646L68.613 5.31741C68.3219 4.71517 67.7512 4.33827 67.2104 4.33827Z" fill="#0A0A0A"/>
        <path d="M129.272 56.3562L105.054 6.24212L102.634 1.23264C102.235 0.407748 101.344 -0.0176038 100.645 0.278934L72.1596 12.365L12.651 37.614C11.9498 37.9114 11.7033 38.8193 12.1019 39.6442L14.5227 44.6537L26.9241 70.3166L35.3074 87.6646L38.74 94.7676C39.1373 95.5901 40.0294 96.018 40.7307 95.7205L47.8841 92.6855L128.725 58.3854C129.424 58.089 129.669 57.1785 129.272 56.3562Z" fill="white"/>
        <path d="M40.2601 95.942C39.6224 95.942 38.9591 95.5134 38.6257 94.8234L11.9876 39.7C11.7577 39.2244 11.7208 38.6991 11.8864 38.259C12.0186 37.9073 12.2726 37.6368 12.6015 37.4973L100.596 0.162281C101.356 -0.160325 102.322 0.295163 102.748 1.17766L129.386 56.3012C129.616 56.7765 129.653 57.302 129.487 57.7432C129.355 58.0943 129.102 58.3641 128.775 58.503L40.7805 95.838C40.6142 95.9086 40.4381 95.942 40.2601 95.942ZM101.119 0.311821C100.973 0.311821 100.83 0.339034 100.695 0.396383L12.7008 37.7314C12.4328 37.8451 12.2335 38.0585 12.1244 38.3485C11.9833 38.7239 12.0169 39.1761 12.2166 39.5894L38.8547 94.7128C39.2231 95.4751 40.0425 95.8749 40.6812 95.6039L128.675 58.2687C128.938 58.1573 129.141 57.9389 129.249 57.6536C129.39 57.2774 129.357 56.8248 129.157 56.4118L102.519 1.28829C102.229 0.68758 101.659 0.311821 101.119 0.311821Z" fill="#0A0A0A"/>
        <path d="M58.2504 10.0997C57.6999 10.3333 57.5056 11.0472 57.8185 11.6948C58.1315 12.3425 58.8324 12.6768 59.3828 12.4433C59.9334 12.2097 60.1255 11.4966 59.8124 10.849C59.4994 10.2012 58.8008 9.86615 58.2504 10.0997Z" fill="white"/>
        <path d="M59.0132 12.6434C58.5019 12.6434 57.9708 12.301 57.7042 11.7495C57.5206 11.3695 57.4914 10.9491 57.6241 10.5963C57.7308 10.3127 57.9355 10.0945 58.2008 9.98196C58.8113 9.72294 59.5858 10.0866 59.927 10.7929C60.111 11.1737 60.1405 11.5944 60.0079 11.9471C59.9016 12.2298 59.6972 12.4473 59.4326 12.5596C59.2986 12.6165 59.1567 12.6434 59.0132 12.6434ZM58.2505 10.0991L58.3002 10.2162C58.0968 10.3025 57.9453 10.4649 57.8622 10.6859C57.7538 10.9741 57.7798 11.3213 57.9332 11.639C58.2164 12.2251 58.8446 12.5331 59.3333 12.3257C59.5361 12.2396 59.6872 12.0778 59.7698 11.8578C59.878 11.5699 59.852 11.2222 59.698 10.9037C59.4148 10.3178 58.7876 10.0094 58.3001 10.2163L58.2505 10.0991Z" fill="#0A0A0A"/>
        <path d="M61.9435 8.53235C61.393 8.76594 61.201 9.47893 61.5139 10.1266C61.8269 10.7742 62.5256 11.1095 63.0759 10.8759C63.6264 10.6423 63.8184 9.9292 63.5054 9.28158C63.1923 8.63395 62.4939 8.29875 61.9435 8.53235Z" fill="white"/>
        <path d="M62.7079 11.0766C62.1973 11.0766 61.6662 10.7338 61.3996 10.1821C61.2156 9.80121 61.1861 9.38056 61.3187 9.02795C61.425 8.74527 61.6292 8.52783 61.894 8.41554C62.5044 8.15652 63.2789 8.52032 63.6202 9.22644C63.8042 9.60729 63.8337 10.0281 63.7011 10.3808C63.5948 10.6635 63.3905 10.8809 63.1259 10.9932C62.9923 11.0497 62.8509 11.0766 62.7079 11.0766ZM62.316 8.58517C62.2053 8.58517 62.0962 8.6059 61.9933 8.64952C61.7905 8.73561 61.6395 8.89735 61.5568 9.11734C61.4485 9.40523 61.4746 9.75289 61.6286 10.0713C61.9119 10.6574 62.539 10.9657 63.0265 10.759C63.2293 10.6729 63.3801 10.5111 63.4629 10.2912C63.5712 10.0033 63.545 9.65548 63.3912 9.33695C63.1678 8.87472 62.7302 8.58517 62.316 8.58517Z" fill="#0A0A0A"/>
        <path d="M65.6369 6.96509C65.0863 7.19868 64.8943 7.91167 65.2073 8.5593C65.5202 9.20692 66.219 9.54224 66.7694 9.30865C67.3199 9.07506 67.5141 8.36105 67.2011 7.71342C66.8882 7.06567 66.1874 6.73149 65.6369 6.96509Z" fill="white"/>
        <path d="M66.4009 9.5097C65.8901 9.5097 65.3592 9.167 65.0925 8.61513C64.9085 8.23441 64.879 7.81363 65.0116 7.46102C65.1179 7.17834 65.3222 6.96077 65.587 6.84849C66.1988 6.58895 66.9741 6.95225 67.3154 7.6585C67.499 8.03845 67.5282 8.45897 67.3955 8.81184C67.2888 9.09541 67.084 9.31362 66.8188 9.42616C66.6854 9.48274 66.544 9.5097 66.4009 9.5097ZM65.6864 7.08259C65.4835 7.16868 65.3325 7.33043 65.2498 7.55054C65.1415 7.83843 65.1676 8.18609 65.3215 8.5045C65.6047 9.09058 66.2318 9.39894 66.7195 9.19205C66.9229 9.10571 67.0744 8.94333 67.1574 8.72245C67.2658 8.4343 67.2398 8.0869 67.0863 7.76926C66.8033 7.18317 66.1754 6.87519 65.6864 7.08259Z" fill="#0A0A0A"/>
        <path d="M92.7785 6.12029C92.228 6.35389 92.0359 7.067 92.3489 7.71463C92.6619 8.36226 93.3619 8.7 93.9122 8.4664C94.4626 8.23281 94.6559 7.51626 94.3429 6.86863C94.0299 6.22101 93.3288 5.88683 92.7785 6.12029Z" fill="#6817C5"/>
        <path d="M93.5448 8.66739C93.0336 8.66739 92.5018 8.32367 92.2345 7.77053C92.0505 7.38968 92.021 6.96903 92.1538 6.61629C92.2601 6.33361 92.4643 6.11604 92.7291 6.00376C93.3409 5.74423 94.1164 6.10752 94.4577 6.8139C94.6418 7.19474 94.6709 7.61628 94.5378 7.97042C94.4312 8.25386 94.2267 8.47182 93.9623 8.5841C93.8287 8.64056 93.6876 8.66739 93.5448 8.66739ZM93.1526 6.17314C93.0414 6.17314 92.9316 6.19399 92.8282 6.23786C92.6254 6.32395 92.4745 6.4857 92.3917 6.70581C92.2835 6.9937 92.3096 7.34149 92.4634 7.6599C92.7472 8.24725 93.3749 8.55689 93.8626 8.35C94.0653 8.26391 94.2163 8.10178 94.2995 7.8809C94.4082 7.59161 94.3823 7.24306 94.2284 6.92453C94.0052 6.46243 93.5674 6.17314 93.1526 6.17314Z" fill="#0A0A0A"/>
        <path d="M96.4717 4.55338C95.9213 4.78698 95.7292 5.50009 96.0423 6.14772C96.3553 6.79535 97.0552 7.13308 97.6056 6.89949C98.1584 6.66501 98.3493 5.94935 98.0363 5.30172C97.7233 4.65397 97.0245 4.31877 96.4717 4.55338Z" fill="#6817C5"/>
        <path d="M97.2377 7.1C96.7265 7.1 96.1947 6.75629 95.9274 6.20314C95.7434 5.8223 95.7139 5.40152 95.8465 5.04878C95.9529 4.7661 96.1571 4.54866 96.4217 4.43638C97.0335 4.17684 97.809 4.54014 98.1503 5.24652C98.3347 5.628 98.3642 6.04966 98.2312 6.40317C98.1248 6.68622 97.92 6.90418 97.6549 7.01671C97.5215 7.07317 97.3804 7.1 97.2377 7.1ZM96.521 4.67048C96.3182 4.75657 96.1672 4.91831 96.0846 5.13817C95.9763 5.42607 96.0025 5.77385 96.1563 6.09239C96.4401 6.67974 97.0678 6.98937 97.5555 6.78248C97.7588 6.69614 97.9102 6.53401 97.993 6.31352C98.1016 6.02474 98.0754 5.67619 97.9212 5.35702C97.638 4.77106 97.0098 4.46308 96.521 4.67048Z" fill="#0A0A0A"/>
        <path d="M100.167 2.98547C99.6168 3.21907 99.4226 3.93307 99.7355 4.5807C100.048 5.22833 100.751 5.56518 101.301 5.33158C101.851 5.09799 102.042 4.38233 101.729 3.7347C101.416 3.08707 100.718 2.75188 100.167 2.98547Z" fill="#6817C5"/>
        <path d="M100.932 5.53268C100.42 5.53268 99.8879 5.18922 99.6207 4.63632C99.4371 4.25637 99.4079 3.83585 99.5406 3.48298C99.6473 3.19941 99.852 2.9812 100.117 2.86867C100.728 2.60964 101.502 2.97345 101.844 3.6797C102.028 4.06143 102.058 4.48335 101.924 4.83711C101.818 5.11966 101.614 5.33698 101.35 5.44888C101.217 5.50585 101.075 5.53268 100.932 5.53268ZM100.539 3.03843C100.429 3.03843 100.32 3.05915 100.217 3.10277C100.013 3.18911 99.8617 3.35149 99.7787 3.57237C99.6703 3.86052 99.6963 4.20792 99.8498 4.52557C100.134 5.11305 100.762 5.42217 101.251 5.21478C101.453 5.12894 101.604 4.96745 101.686 4.74759C101.795 4.45855 101.769 4.10962 101.615 3.79032C101.391 3.3281 100.954 3.03843 100.539 3.03843Z" fill="#0A0A0A"/>
        <path d="M105.055 6.24219L22.9463 41.0799L47.8843 92.6854L128.725 58.3854C129.424 58.0889 129.669 57.1784 129.272 56.3561L105.055 6.24219Z" fill="#E1D1F3"/>
        <path d="M47.8841 92.8129C47.8367 92.8129 47.7915 92.7863 47.7696 92.741L22.8315 41.1355C22.8164 41.1042 22.8147 41.068 22.8269 41.0354C22.8392 41.0029 22.8642 40.9767 22.8962 40.9631L105.005 6.12535C105.067 6.0989 105.139 6.12599 105.169 6.18715L129.386 56.3011C129.616 56.7764 129.652 57.3021 129.487 57.7432C129.355 58.0943 129.102 58.3641 128.775 58.5028L47.9337 92.8028C47.9176 92.8096 47.9008 92.8129 47.8841 92.8129ZM23.1187 41.1451L47.9459 92.5214L128.675 58.2687C128.938 58.1573 129.141 57.939 129.249 57.6537C129.39 57.2774 129.357 56.8247 129.157 56.4118L104.993 6.40676L23.1187 41.1451Z" fill="#0A0A0A"/>
        <path d="M22.9462 41.0801L14.5229 44.6539L38.7403 94.7678C39.1376 95.5902 40.0297 96.0182 40.731 95.7206L47.8844 92.6856L22.9462 41.0801Z" fill="white"/>
        <path d="M40.2602 95.942C39.6227 95.942 38.9594 95.5134 38.626 94.8234L14.4087 44.7095C14.3935 44.6782 14.3919 44.642 14.4041 44.6094C14.4163 44.5769 14.4414 44.5507 14.4734 44.5371L22.8966 40.9632C22.9591 40.9368 23.0313 40.9639 23.0608 41.0249L47.999 92.6305C48.0141 92.6618 48.0158 92.6981 48.0035 92.7306C47.9913 92.7632 47.9663 92.7894 47.9342 92.803L40.7808 95.838C40.6145 95.9086 40.4384 95.942 40.2602 95.942ZM14.6958 44.7191L38.855 94.7128C39.2234 95.4751 40.0428 95.8749 40.6815 95.6039L47.712 92.621L22.8847 41.2447L14.6958 44.7191Z" fill="#0A0A0A"/>
        <path d="M27.5209 61.0482C27.1418 61.209 27.0087 61.7026 27.2244 62.1487C27.44 62.5947 27.9237 62.8267 28.3026 62.6659C28.6818 62.5051 28.8149 62.0115 28.5993 61.5653C28.3836 61.1191 27.9001 60.8872 27.5209 61.0482Z" fill="#0A0A0A"/>
        <path d="M28.0487 62.8433C27.6812 62.8433 27.3002 62.5984 27.1095 62.2037C26.978 61.9316 26.9574 61.6298 27.0529 61.3759C27.1302 61.1704 27.2786 61.0124 27.4709 60.9308C27.9116 60.7438 28.4689 61.0036 28.7134 61.5097C28.8449 61.7818 28.8655 62.0834 28.77 62.3374C28.6927 62.5429 28.5442 62.7011 28.3519 62.7827C28.255 62.8238 28.1524 62.8433 28.0487 62.8433ZM27.7785 61.1234C27.7069 61.1234 27.6366 61.1367 27.5702 61.1648C27.4407 61.2198 27.3442 61.3237 27.291 61.4654C27.2198 61.6546 27.2372 61.8834 27.3385 62.0931C27.525 62.479 27.9351 62.6833 28.2526 62.5485C28.3821 62.4936 28.4787 62.3896 28.532 62.2478C28.6032 62.0587 28.5858 61.83 28.4844 61.6202C28.337 61.315 28.0494 61.1234 27.7785 61.1234Z" fill="#0A0A0A"/>
        <path d="M33.8182 74.0804C33.4392 74.2412 33.3061 74.7348 33.5217 75.1809C33.7386 75.6296 34.2211 75.8588 34.6 75.6981C34.9791 75.5373 35.1135 75.0463 34.8966 74.5975C34.6811 74.1514 34.1974 73.9195 33.8182 74.0804Z" fill="#0A0A0A"/>
        <path d="M34.346 75.8755C33.9786 75.8755 33.5976 75.6306 33.4069 75.2359C33.2754 74.9638 33.2548 74.6621 33.3503 74.4082C33.4276 74.2027 33.576 74.0446 33.7682 73.963C34.209 73.7761 34.7663 74.0357 35.0108 74.5419C35.1425 74.8145 35.1634 75.1161 35.0681 75.3694C34.9908 75.5749 34.842 75.7331 34.6493 75.8148C34.5524 75.8559 34.4498 75.8755 34.346 75.8755ZM34.0758 74.1555C34.0042 74.1555 33.9339 74.1689 33.8675 74.197C33.7381 74.2519 33.6416 74.3558 33.5883 74.4975C33.5171 74.6867 33.5345 74.9155 33.6359 75.1252C33.8224 75.5111 34.2323 75.7154 34.55 75.5806C34.6801 75.5254 34.7769 75.4214 34.8302 75.2798C34.901 75.0913 34.8835 74.8627 34.7819 74.6524C34.6344 74.3473 34.3468 74.1555 34.0758 74.1555Z" fill="#0A0A0A"/>
        <path d="M53.0825 35.4737L67.3275 29.4297L53.0825 35.4737Z" fill="white"/>
        <path d="M53.0823 35.6002C53.0329 35.6002 52.9857 35.5711 52.9652 35.5227C52.9378 35.4581 52.968 35.3834 53.0326 35.356L67.2776 29.3119C67.3424 29.2844 67.417 29.3147 67.4443 29.3793C67.4718 29.4439 67.4415 29.5185 67.3769 29.546L53.1321 35.5901C53.1158 35.5969 53.099 35.6002 53.0823 35.6002Z" fill="#0A0A0A"/>
        <path d="M30.3525 45.1171L49.0878 37.168L30.3525 45.1171Z" fill="white"/>
        <path d="M30.3524 45.2446C30.3029 45.2446 30.2557 45.2155 30.2352 45.167C30.2078 45.1024 30.238 45.0278 30.3026 45.0003L49.0379 37.0512C49.1027 37.0237 49.1773 37.054 49.2046 37.1186C49.2321 37.1831 49.2018 37.2578 49.1372 37.2853L30.4019 45.2344C30.3858 45.2414 30.3689 45.2446 30.3524 45.2446Z" fill="#0A0A0A"/>
        <path d="M47.4546 45.7151L82.783 30.7256L47.4546 45.7151Z" fill="white"/>
        <path d="M47.4544 45.8416C47.4049 45.8416 47.3578 45.8125 47.3373 45.764C47.3098 45.6994 47.3401 45.6248 47.4047 45.5973L82.7331 30.6078C82.7977 30.5803 82.8724 30.6106 82.8998 30.6752C82.9273 30.7398 82.897 30.8144 82.8324 30.8419L47.504 45.8316C47.4877 45.8384 47.4709 45.8416 47.4544 45.8416Z" fill="#0A0A0A"/>
        <path d="M33.5015 51.6353L45.241 46.6543L33.5015 51.6353Z" fill="white"/>
        <path d="M33.5018 51.7618C33.4523 51.7618 33.4051 51.7327 33.3847 51.6842C33.3572 51.6196 33.3875 51.545 33.452 51.5175L45.1916 46.5365C45.2563 46.509 45.3309 46.5393 45.3583 46.6039C45.3858 46.6685 45.3555 46.7431 45.2909 46.7706L33.5514 51.7516C33.5351 51.7585 33.5183 51.7618 33.5018 51.7618Z" fill="#0A0A0A"/>
        <path d="M56.1938 49.8573L77.373 40.8711L56.1938 49.8573Z" fill="white"/>
        <path d="M56.1937 49.9847C56.1442 49.9847 56.097 49.9556 56.0765 49.9072C56.0491 49.8426 56.0793 49.7679 56.1439 49.7405L77.3231 40.7543C77.3879 40.7268 77.4625 40.7571 77.4898 40.8217C77.5173 40.8863 77.4871 40.9609 77.4225 40.9884L56.2433 49.9746C56.2271 49.9814 56.2102 49.9847 56.1937 49.9847Z" fill="#0A0A0A"/>
        <path d="M43.2642 55.3428L53.9484 50.8096L43.2642 55.3428Z" fill="white"/>
        <path d="M43.264 55.4703C43.2145 55.4703 43.1673 55.4412 43.1469 55.3927C43.1194 55.3281 43.1497 55.2535 43.2143 55.226L53.8987 50.6928C53.9634 50.6653 54.038 50.6956 54.0654 50.7602C54.0928 50.8248 54.0626 50.8994 53.998 50.9269L43.3136 55.4601C43.2974 55.4671 43.2805 55.4703 43.264 55.4703Z" fill="#0A0A0A"/>
        <path d="M46.4136 61.8603L62.4699 55.0479L46.4136 61.8603Z" fill="white"/>
        <path d="M46.4134 61.9878C46.3639 61.9878 46.3167 61.9587 46.2963 61.9102C46.2688 61.8456 46.2991 61.771 46.3637 61.7435L62.42 54.931C62.4847 54.9036 62.5593 54.9338 62.5867 54.9984C62.6141 55.063 62.5839 55.1377 62.5193 55.1651L46.463 61.9776C46.4468 61.9845 46.4299 61.9878 46.4134 61.9878Z" fill="#0A0A0A"/>
        <path d="M42.9473 71.1808L74.7377 57.6924L42.9473 71.1808Z" fill="white"/>
        <path d="M42.9471 71.3083C42.8976 71.3083 42.8504 71.2791 42.83 71.2307C42.8025 71.1661 42.8328 71.0914 42.8974 71.064L74.6878 57.5756C74.7526 57.5481 74.8271 57.5784 74.8545 57.643C74.882 57.7076 74.8517 57.7823 74.7871 57.8097L42.9967 71.2981C42.9805 71.3049 42.9636 71.3083 42.9471 71.3083Z" fill="#0A0A0A"/>
        <path d="M52.7109 74.8922L65.8939 69.2988L52.7109 74.8922Z" fill="white"/>
        <path d="M52.7112 75.0187C52.6618 75.0187 52.6146 74.9896 52.5941 74.9412C52.5667 74.8766 52.5969 74.8019 52.6615 74.7744L65.8446 69.181C65.9093 69.1536 65.984 69.1838 66.0113 69.2484C66.0388 69.313 66.0085 69.3877 65.9439 69.4151L52.7608 75.0085C52.7447 75.0155 52.7278 75.0187 52.7112 75.0187Z" fill="#0A0A0A"/>
        <path d="M55.8589 81.4061L78.7877 71.6777L55.8589 81.4061Z" fill="white"/>
        <path d="M55.8592 81.5336C55.8097 81.5336 55.7625 81.5045 55.7421 81.456C55.7146 81.3914 55.7449 81.3168 55.8095 81.2893L78.7381 71.5609C78.8029 71.5335 78.8775 71.5637 78.9048 71.6283C78.9323 71.6929 78.902 71.7676 78.8374 71.795L55.9088 81.5234C55.8926 81.5303 55.8757 81.5336 55.8592 81.5336Z" fill="#0A0A0A"/>
    </g>
    <defs>
        <clipPath id="clip0_1591_52218">
            <rect width="128.678" height="96" fill="white" transform="translate(0.911133)"/>
        </clipPath>
    </defs>
</svg>
