<svg width="134" height="96" viewBox="0 0 134 96" fill="none" xmlns="http://www.w3.org/2000/svg">
    <g clip-path="url(#clip0_1591_52415)">
        <g clip-path="url(#clip1_1591_52415)">
            <path d="M19.3154 54.8634L31.5758 71.9328L14.4682 81.7536L2.20783 64.6841L19.3154 54.8634Z" fill="#111111"/>
            <path d="M14.492 81.8075C14.4799 81.8126 14.4665 81.8134 14.4539 81.8099C14.4413 81.8063 14.4303 81.7986 14.4226 81.788L2.16232 64.7185C2.15761 64.7119 2.15433 64.7044 2.1527 64.6965C2.15106 64.6886 2.1511 64.6804 2.15281 64.6725C2.15453 64.6646 2.15788 64.6572 2.16265 64.6506C2.16742 64.6441 2.17351 64.6386 2.18053 64.6346L19.2881 54.8139C19.3005 54.8068 19.3152 54.8045 19.3292 54.8075C19.3432 54.8105 19.3556 54.8186 19.364 54.8303L31.6243 71.8997C31.629 71.9063 31.6323 71.9138 31.6339 71.9217C31.6356 71.9296 31.6355 71.9377 31.6338 71.9456C31.6321 71.9535 31.6287 71.961 31.624 71.9675C31.6192 71.9741 31.6131 71.9795 31.6061 71.9836L14.4985 81.8043C14.4964 81.8055 14.4942 81.8066 14.492 81.8075ZM2.29375 64.7029L14.4863 81.678L31.4929 71.9152L19.3003 54.9402L2.29375 64.7029Z" fill="#111111"/>
            <path d="M31.5766 71.9317L30.827 73.3023L13.7194 83.123L14.469 81.7525L31.5766 71.9317Z" fill="#6817C5"/>
            <path d="M13.7412 83.176C13.7302 83.1806 13.7179 83.1817 13.7063 83.1791C13.6946 83.1765 13.684 83.1703 13.676 83.1614C13.6679 83.1525 13.6629 83.1414 13.6615 83.1295C13.66 83.1176 13.6623 83.1056 13.6681 83.0951L14.4177 81.7245C14.4228 81.7151 14.4304 81.7074 14.4396 81.702L31.5472 71.8813C31.5582 71.875 31.5709 71.8725 31.5834 71.8741C31.5959 71.8756 31.6076 71.8812 31.6166 71.8901C31.6256 71.8989 31.6315 71.9104 31.6333 71.9228C31.6352 71.9353 31.6329 71.948 31.6269 71.9591L30.8773 73.3297C30.8721 73.3391 30.8645 73.3468 30.8553 73.3522L13.7477 83.1729C13.7456 83.174 13.7434 83.1751 13.7412 83.176ZM14.5114 81.7942L13.8681 82.9705L30.7835 73.2601L31.4268 72.0838L14.5114 81.7942Z" fill="#111111"/>
            <path d="M14.4688 81.7521L13.7192 83.1227L1.45882 66.0532L2.20841 64.6826L14.4688 81.7521Z" fill="#E1D1F3"/>
            <path d="M13.7431 83.1766C13.731 83.1816 13.7175 83.1825 13.7049 83.1789C13.6923 83.1754 13.6813 83.1676 13.6736 83.157L1.41332 66.0876C1.40697 66.0788 1.40325 66.0683 1.40259 66.0574C1.40193 66.0466 1.40436 66.0357 1.40959 66.0262L2.15924 64.6556C2.16394 64.647 2.17074 64.6397 2.17901 64.6344C2.18728 64.6292 2.19675 64.6261 2.20653 64.6255C2.21631 64.6249 2.22609 64.6268 2.23493 64.631C2.24378 64.6352 2.25142 64.6415 2.25712 64.6495L14.5174 81.7189C14.5238 81.7278 14.5275 81.7382 14.5281 81.7491C14.5288 81.76 14.5264 81.7708 14.5211 81.7804L13.7715 83.151C13.7651 83.1626 13.7551 83.1715 13.7431 83.1766ZM1.52867 66.0496L13.7141 83.0148L14.402 81.7569L2.21662 64.7917L1.52867 66.0496Z" fill="#111111"/>
            <path d="M2.20783 64.6841L19.3154 54.8634C25.5696 63.3913 28.4226 67.2814 31.8607 70.934L14.7531 80.7547C11.315 77.1021 8.462 73.212 2.20783 64.6841Z" fill="white"/>
            <path d="M14.7769 80.8086C14.766 80.8131 14.754 80.8143 14.7425 80.8118C14.7309 80.8094 14.7204 80.8035 14.7124 80.7949C11.2715 77.1394 8.41701 73.2471 2.16263 64.7188C2.15782 64.7123 2.15445 64.7048 2.15275 64.6968C2.15104 64.6889 2.15103 64.6807 2.15272 64.6727C2.15441 64.6648 2.15776 64.6573 2.16255 64.6507C2.16734 64.6441 2.17346 64.6386 2.18052 64.6345L19.2881 54.8139C19.3005 54.8069 19.315 54.8046 19.3289 54.8076C19.3428 54.8105 19.3552 54.8184 19.3636 54.8298C25.6153 63.3542 28.4686 67.2448 31.9044 70.895C31.9103 70.9013 31.9148 70.9089 31.9174 70.9173C31.92 70.9256 31.9206 70.9344 31.9194 70.943C31.9181 70.9516 31.9149 70.9599 31.9099 70.9671C31.905 70.9743 31.8986 70.9803 31.891 70.9847L14.7834 80.8054C14.7813 80.8066 14.7791 80.8076 14.7769 80.8086ZM2.29431 64.7026C8.50058 73.1651 11.3504 77.049 14.7655 80.6824L31.7698 70.9209C28.3572 67.2871 25.5033 63.3973 19.3007 54.9399L2.29431 64.7026Z" fill="#111111"/>
        </g>
        <g clip-path="url(#clip2_1591_52415)">
            <path d="M101.019 51.0134L100.396 51.4027C100.631 51.3141 100.856 51.2027 101.068 51.0699L101.691 50.6807C101.478 50.8134 101.253 50.9249 101.019 51.0134Z" fill="white"/>
            <path d="M100.407 51.4617C100.411 51.4611 100.415 51.4601 100.419 51.4586C100.657 51.3685 100.886 51.2553 101.101 51.1206L101.723 50.7317L101.724 50.7312C101.737 50.7228 101.747 50.7094 101.75 50.6939C101.754 50.6785 101.751 50.6622 101.743 50.6488C101.734 50.6353 101.721 50.6258 101.706 50.6222C101.69 50.6187 101.674 50.6214 101.66 50.6298C101.451 50.7604 101.23 50.8701 100.999 50.9573C100.995 50.9588 100.992 50.9605 100.988 50.9626L100.366 51.3519C100.354 51.3593 100.346 51.3704 100.341 51.3834C100.337 51.3964 100.337 51.4105 100.342 51.4233C100.347 51.4362 100.356 51.447 100.367 51.454C100.379 51.461 100.393 51.4637 100.407 51.4617Z" fill="#111111"/>
            <path d="M41.7043 73.4724L41.0819 73.8616L100.399 51.4029L101.021 51.0137L41.7043 73.4724Z" fill="#111111"/>
            <path d="M41.0902 73.9198C41.0942 73.9191 41.0983 73.9181 41.1023 73.9166L100.419 51.4579C100.423 51.4565 100.426 51.4548 100.43 51.4527L101.052 51.0634C101.065 51.0555 101.074 51.0432 101.078 51.0289C101.082 51.0146 101.08 50.9993 101.074 50.986C101.067 50.9727 101.056 50.9623 101.042 50.9569C101.028 50.9514 101.013 50.9513 100.999 50.9566L41.6824 73.4154C41.6788 73.4168 41.6752 73.4185 41.6719 73.4206L41.0494 73.8099C41.0377 73.8172 41.0289 73.8283 41.0245 73.8413C41.02 73.8543 41.0202 73.8685 41.025 73.8814C41.0298 73.8943 41.0389 73.9052 41.0507 73.9122C41.0626 73.9192 41.0765 73.9219 41.0902 73.9198ZM100.371 51.3481L41.6264 73.5902L41.7303 73.5252L100.475 51.283L100.371 51.3481Z" fill="#111111"/>
            <path d="M19.6899 25.2449L20.3123 24.8556C18.6125 25.9187 17.9554 28.2196 18.8553 30.3459L35.9121 70.6464C36.9225 73.0339 39.5145 74.2995 41.702 73.4712L41.0795 73.8605C38.892 74.6887 36.3001 73.4231 35.2896 71.0357L18.2329 30.7351C17.3329 28.6089 17.99 26.308 19.6899 25.2449Z" fill="url(#paint0_linear_1591_52415)"/>
            <path d="M40.3028 74.1269C40.5726 74.0855 40.8396 74.0161 41.101 73.9172C41.1047 73.9158 41.1083 73.914 41.1116 73.9119L41.7341 73.5226C41.7465 73.5146 41.7555 73.5024 41.7594 73.4881C41.7633 73.4739 41.7619 73.4588 41.7553 73.4456C41.7488 73.4324 41.7376 73.422 41.7239 73.4166C41.7102 73.4111 41.695 73.4108 41.6812 73.4159C39.5273 74.2316 36.9643 72.9788 35.9676 70.6237L18.9109 30.3232C18.0351 28.254 18.6366 25.9779 20.3408 24.9092L20.3444 24.907C20.3511 24.9029 20.3568 24.8974 20.3614 24.891C20.366 24.8846 20.3692 24.8774 20.371 24.8697C20.3727 24.8621 20.373 24.8541 20.3717 24.8464C20.3704 24.8387 20.3676 24.8312 20.3634 24.8246C20.3549 24.8112 20.3415 24.8016 20.3261 24.7981C20.3106 24.7945 20.2944 24.7972 20.2809 24.8056L19.6585 25.1949C17.9013 26.2939 17.2787 28.634 18.1782 30.7592L35.2349 71.0598C36.1357 73.1882 38.2888 74.4365 40.3028 74.1269ZM41.0532 73.8073C40.8014 73.9022 40.5437 73.9689 40.2838 74.0089C38.3228 74.3105 36.2244 73.0909 35.345 71.013L18.2883 30.7125C17.4489 28.7293 17.9663 26.5561 19.5114 25.438C18.3608 26.6643 18.0482 28.5923 18.8005 30.3699L35.8572 70.6704C36.8108 72.9235 39.168 74.1898 41.2773 73.667L41.0532 73.8073Z" fill="#111111"/>
            <path d="M20.9854 24.5248C18.7979 25.353 17.8453 27.9607 18.8558 30.3481L35.9125 70.6486C36.9229 73.036 39.5148 74.3017 41.7024 73.4734L101.019 51.0148C103.205 50.187 104.158 47.5793 103.147 45.1919L86.0907 4.89133C85.0803 2.50391 82.4884 1.23826 80.3021 2.066L20.9854 24.5248Z" fill="#E1D1F3"/>
            <path d="M40.9268 73.7384C41.1965 73.697 41.4635 73.6276 41.7249 73.5287L101.042 51.0699C102.037 50.6929 102.823 49.9305 103.254 48.9234C103.746 47.7741 103.728 46.4053 103.204 45.1677L86.1472 4.86726C85.1257 2.4537 82.4948 1.17146 80.2823 2.00935L20.9656 24.468C19.969 24.8453 19.1828 25.6081 18.7517 26.6155C18.26 27.7645 18.2784 29.1333 18.802 30.3706L35.8588 70.6711C36.7595 72.7997 38.9128 74.0481 40.9268 73.7384ZM81.0989 1.91769C83.0595 1.61626 85.1575 2.83595 86.0369 4.91387L103.094 45.2144C103.605 46.4221 103.623 47.7569 103.144 48.8763C102.726 49.8533 101.964 50.5926 100.999 50.958L41.6825 73.4167C39.5286 74.2324 36.9655 72.9796 35.9689 70.6245L18.9122 30.324C18.4011 29.1164 18.3827 27.7819 18.8616 26.6626C19.2799 25.6852 20.0421 24.9456 21.0079 24.5799L80.3247 2.12116C80.5749 2.02647 80.8344 1.95828 81.0989 1.91769Z" fill="#111111"/>
            <path d="M22.0887 26.0133L80.5872 3.86429C82.1038 3.29012 83.9018 4.16734 84.6022 5.8221L101.39 45.4866C102.091 47.1427 101.429 48.9498 99.9121 49.524L41.4136 71.6729C39.8983 72.2467 38.1008 71.3708 37.3999 69.7147L20.6124 30.0502C19.912 28.3954 20.5733 26.587 22.0887 26.0133Z" fill="white"/>
            <path d="M40.8788 71.8748C41.069 71.8456 41.2557 71.7965 41.4357 71.7284L99.9341 49.5794C100.63 49.3158 101.179 48.7833 101.481 48.0797C101.823 47.2788 101.811 46.3249 101.446 45.4627L84.6581 5.7983C83.9462 4.11614 82.1107 3.22307 80.5669 3.80785L22.0683 25.9568C21.3732 26.22 20.8246 26.7522 20.5237 27.4555C20.1807 28.257 20.1933 29.2109 20.5581 30.073L37.3456 69.7374C37.9734 71.2207 39.4745 72.0907 40.8788 71.8748ZM81.1432 3.77941C82.495 3.57158 83.9416 4.41245 84.5479 5.84491L101.335 45.5094C101.688 46.3418 101.7 47.2615 101.37 48.0327C101.082 48.706 100.557 49.2156 99.8917 49.4675L41.3933 71.6164C39.9094 72.1786 38.143 71.3144 37.4558 69.6908L20.6684 30.0264C20.3161 29.1941 20.3035 28.2743 20.6337 27.5026C20.9218 26.8295 21.4463 26.3202 22.1107 26.0688L80.6093 3.91973C80.7818 3.8544 80.9608 3.80737 81.1432 3.77941Z" fill="#111111"/>
            <path d="M51.6672 15.7151C52.0239 15.58 52.4457 15.7869 52.6106 16.1765C52.7754 16.5659 52.6205 16.9897 52.2638 17.1247C51.9071 17.2597 51.4846 17.0547 51.3197 16.6652C51.1549 16.2756 51.3105 15.8501 51.6672 15.7151Z" fill="#111111"/>
            <path d="M52.1467 17.2181C52.1941 17.2108 52.241 17.1986 52.287 17.1812C52.4623 17.1148 52.6006 16.981 52.6761 16.8045C52.7614 16.6052 52.7583 16.368 52.6677 16.1538C52.4907 15.7356 52.0334 15.5138 51.648 15.6598C51.4726 15.7263 51.3343 15.8603 51.2585 16.0374C51.173 16.2374 51.1759 16.475 51.2667 16.6892C51.4222 17.0569 51.7961 17.272 52.1467 17.2181ZM51.8065 15.7411C52.1037 15.6954 52.4229 15.8826 52.5574 16.2004C52.6355 16.3849 52.6386 16.5879 52.5661 16.7574C52.5035 16.9039 52.3894 17.0146 52.2446 17.0694C51.9176 17.1932 51.5287 17.0015 51.3769 16.6425C51.2988 16.458 51.2957 16.2546 51.3686 16.0844C51.4313 15.9376 51.5456 15.8265 51.6903 15.7717C51.7278 15.7574 51.7668 15.7472 51.8065 15.7411Z" fill="#111111"/>
            <path d="M39.7712 75.7846L61.8512 82.7053C63.16 83.1155 65.9926 82.7769 68.1788 81.9491L127.495 59.4904C129.029 58.9096 129.838 58.2427 129.733 57.7546L130.065 59.2953C130.17 59.7835 129.361 60.4503 127.827 61.0311L68.5108 83.4898C66.3245 84.3176 63.4919 84.6563 62.1831 84.246L40.1031 77.3253C39.712 77.2027 39.5013 77.0272 39.4565 76.8191L39.1246 75.2784C39.1694 75.4864 39.3801 75.662 39.7712 75.7846Z" fill="url(#paint1_linear_1591_52415)"/>
            <path d="M65.5252 84.3217C66.5343 84.1667 67.5943 83.9012 68.5332 83.5456L127.85 61.087C129.392 60.5032 130.242 59.8287 130.124 59.2827L129.792 57.7419C129.785 57.7096 129.754 57.6882 129.721 57.6961C129.714 57.6977 129.706 57.7009 129.7 57.7053C129.693 57.7098 129.688 57.7155 129.684 57.7221C129.679 57.7287 129.676 57.7361 129.675 57.7438C129.674 57.7516 129.674 57.7595 129.675 57.7672L129.675 57.7675C129.776 58.2361 128.912 58.8903 127.476 59.4344L68.1589 81.8931C65.987 82.7155 63.1658 83.0542 61.8702 82.6482L39.7902 75.7274C39.4349 75.6161 39.2253 75.4564 39.1843 75.2658C39.1808 75.2504 39.1714 75.2369 39.1581 75.2283C39.1448 75.2198 39.1286 75.2168 39.1131 75.2199C39.1055 75.2216 39.0982 75.2247 39.0917 75.2292C39.0852 75.2337 39.0797 75.2394 39.0755 75.246C39.0712 75.2526 39.0683 75.2599 39.0669 75.2677C39.0655 75.2754 39.0656 75.2833 39.0673 75.291L39.3992 76.8318C39.4506 77.0703 39.6817 77.2556 40.0863 77.3824L62.1664 84.3031C62.9198 84.5392 64.1769 84.529 65.5252 84.3217ZM129.745 58.0916L130.007 59.3078C130.108 59.7764 129.245 60.4309 127.807 60.9751L68.4908 83.4338C66.3187 84.2562 63.4976 84.5949 62.2022 84.1889L40.1221 77.2681C39.7667 77.1567 39.5572 76.9971 39.5161 76.8065L39.2536 75.5874C39.3698 75.6884 39.5371 75.7734 39.7544 75.8415L61.8344 82.7623C63.1518 83.1751 66.0079 82.8353 68.2012 82.005L127.518 59.5463C128.744 59.082 129.533 58.5603 129.745 58.0916Z" fill="#111111"/>
            <path d="M41.3622 73.5418C39.1759 74.3696 38.464 75.3729 39.7729 75.7832L61.8529 82.7039C63.1617 83.1141 65.9943 82.7755 68.1806 81.9477L127.497 59.489C129.685 58.6608 130.397 57.6574 129.088 57.2472L107.008 50.3264C105.699 49.9162 102.866 50.2549 100.679 51.0831L41.3622 73.5418Z" fill="#E1D1F3"/>
            <path d="M65.193 82.7803C66.2021 82.6252 67.262 82.3597 68.2009 82.0042L127.518 59.5455C128.963 58.998 129.818 58.3553 129.802 57.8262C129.797 57.6341 129.671 57.3681 129.105 57.1906L107.025 50.2698C105.707 49.8569 102.851 50.1969 100.657 51.0277L41.3402 73.4864C39.8949 74.0336 39.0413 74.6761 39.0567 75.2052C39.0622 75.3972 39.1878 75.6633 39.7541 75.8408L61.8341 82.7615C62.5875 82.9977 63.8447 82.9876 65.193 82.7803ZM103.691 50.3671C105.018 50.1632 106.251 50.1527 106.989 50.384L129.069 57.3047C129.344 57.3911 129.674 57.5522 129.683 57.8297C129.696 58.2983 128.85 58.9129 127.475 59.4336L68.1585 81.8923C65.9866 82.7147 63.1654 83.0534 61.8698 82.6474L39.7898 75.7267C39.5144 75.6403 39.1843 75.4791 39.1762 75.2017C39.1626 74.7331 40.008 74.1187 41.3825 73.5983L100.699 51.1396C101.634 50.7856 102.689 50.5212 103.691 50.3671Z" fill="#111111"/>
            <path d="M47.8597 72.6099L98.5983 53.3991C99.2717 53.1441 100.145 53.0397 100.548 53.166L112.138 56.799C112.541 56.9253 112.321 57.2343 111.648 57.4893L60.9092 76.7002C60.2357 76.9551 59.3646 77.0593 58.9616 76.933L47.3709 73.3C46.968 73.1737 47.1862 72.8649 47.8597 72.6099Z" fill="white"/>
            <path d="M59.9974 76.9966C60.3106 76.9484 60.6389 76.8662 60.9295 76.7562L111.668 57.5454C112.138 57.3674 112.404 57.1599 112.399 56.9757C112.397 56.9032 112.353 56.8038 112.155 56.742L100.565 53.109C100.151 52.9795 99.2593 53.0845 98.5762 53.3432L47.8376 72.554C47.3687 72.7316 47.1029 72.9389 47.1082 73.123C47.1103 73.1956 47.1544 73.2952 47.3522 73.3572L58.943 76.9901C59.18 77.0645 59.5749 77.0615 59.9974 76.9966ZM99.5342 53.2187C99.9352 53.157 100.307 53.1537 100.529 53.2233L112.12 56.8562C112.178 56.8747 112.277 56.9152 112.279 56.9793C112.282 57.0811 112.081 57.261 111.626 57.4335L60.8871 76.6444C60.2259 76.8948 59.3698 76.9987 58.9787 76.8761L47.388 73.2431C47.3289 73.2246 47.2296 73.184 47.2278 73.1196C47.2249 73.0179 47.4254 72.8382 47.88 72.6661L98.6186 53.4552C98.905 53.3467 99.2282 53.2657 99.5342 53.2187Z" fill="#111111"/>
            <path d="M78.2037 70.8153L96.2702 63.9749C97.0484 63.6803 98.0571 63.5596 98.5235 63.7058L105.229 65.8075C105.694 65.9535 105.441 66.3108 104.663 66.6054L86.5962 73.4458C85.8179 73.7405 84.8092 73.8611 84.3436 73.7152L77.6383 71.6135C77.1719 71.4673 77.4255 71.11 78.2037 70.8153Z" fill="white"/>
            <path d="M85.5421 73.7814C85.9038 73.7258 86.2832 73.6309 86.619 73.5037L104.685 66.6634C105.224 66.4595 105.529 66.2228 105.523 66.0142C105.521 65.9333 105.471 65.8223 105.248 65.7525L98.5429 63.6507C98.0668 63.5013 97.0383 63.6227 96.2506 63.9209L78.184 70.7613C77.6456 70.9652 77.3403 71.2018 77.3464 71.4104C77.3487 71.4913 77.3985 71.6025 77.622 71.6725L84.3274 73.7742C84.6004 73.8598 85.0552 73.8563 85.5421 73.7814ZM97.3516 63.7593C97.8171 63.6878 98.249 63.684 98.5071 63.7649L105.212 65.8666C105.283 65.8887 105.401 65.9376 105.404 66.0177C105.407 66.1387 105.173 66.3507 104.643 66.5514L86.5765 73.3918C85.8101 73.682 84.8171 73.8023 84.3631 73.6601L77.6577 71.5583C77.5872 71.5362 77.4683 71.4871 77.466 71.4069C77.4625 71.2859 77.6962 71.074 78.2264 70.8732L96.2929 64.0328C96.6241 63.9074 96.9976 63.8138 97.3516 63.7593Z" fill="#111111"/>
        </g>
        <g clip-path="url(#clip3_1591_52415)">
            <path d="M15.5138 71.0624C15.4946 71.0821 15.4896 71.1044 15.4879 71.1117C15.4868 71.1177 15.4865 71.1238 15.4871 71.1299C15.4872 71.1594 15.5003 71.1783 15.507 71.1869C15.505 71.1845 15.5045 71.18 15.5058 71.1733C15.5109 71.1479 15.5403 71.1011 15.5716 71.0686C15.5922 71.0471 15.6084 71.0373 15.6156 71.0404C15.5622 71.0188 15.5242 71.0518 15.5138 71.0624Z" fill="white"/>
            <path d="M15.507 71.2493C15.498 71.2493 15.4891 71.2473 15.481 71.2435C15.4728 71.2398 15.4656 71.2343 15.4598 71.2274C15.4588 71.2263 15.4578 71.225 15.4567 71.2237C15.4365 71.1975 15.4254 71.1655 15.4251 71.1325C15.4244 71.1215 15.4251 71.1104 15.4272 71.0996C15.4344 71.0676 15.4485 71.0411 15.4695 71.0196C15.5047 70.9835 15.5674 70.9549 15.6378 70.983C15.6385 70.9833 15.6391 70.9835 15.6397 70.9838C15.652 70.989 15.6622 70.998 15.669 71.0095C15.6757 71.021 15.6786 71.0343 15.6771 71.0475C15.6757 71.0608 15.6701 71.0732 15.661 71.0829C15.652 71.0927 15.64 71.0993 15.6269 71.1017C15.6232 71.1049 15.6196 71.1083 15.6162 71.112C15.5926 71.1364 15.5747 71.166 15.5685 71.1803C15.5707 71.2006 15.5629 71.2216 15.5459 71.2354C15.5349 71.2444 15.5212 71.2493 15.507 71.2493Z" fill="#111111"/>
            <path d="M15.6156 71.0395C15.6082 71.0369 15.5922 71.0468 15.5719 71.0678C15.5617 71.0785 15.5522 71.0899 15.5435 71.1018C15.5245 71.1278 15.5096 71.1552 15.5061 71.1725C15.5048 71.1789 15.5052 71.1834 15.5071 71.1858L16.132 72.0425C16.1239 72.0313 16.1221 72.0116 16.1278 71.9829C16.1433 71.9055 16.2097 71.783 16.2948 71.6669C16.324 71.6271 16.3554 71.5879 16.3877 71.5517C16.3989 71.539 16.4103 71.5267 16.4217 71.5149C16.5122 71.4207 16.5839 71.3767 16.617 71.3882L15.6156 71.0395Z" fill="#111111"/>
            <path d="M16.1319 72.1049C16.1222 72.1049 16.1125 72.1026 16.1038 72.0982C16.0951 72.0938 16.0876 72.0873 16.0818 72.0794L15.4569 71.2228C15.4484 71.2111 15.4393 71.1908 15.4453 71.1609C15.4525 71.1253 15.4785 71.086 15.4934 71.0656C15.5039 71.0513 15.5152 71.0378 15.5275 71.025C15.5433 71.0086 15.5859 70.9642 15.6358 70.9815L16.6369 71.3301L16.6373 71.3302C16.6521 71.3355 16.6643 71.3461 16.6716 71.3601C16.6788 71.374 16.6805 71.3901 16.6763 71.4052C16.6721 71.4204 16.6623 71.4333 16.6489 71.4415C16.6355 71.4497 16.6195 71.4524 16.6041 71.4493C16.5895 71.4532 16.5435 71.4779 16.4662 71.5582C16.4226 71.6042 16.3821 71.6529 16.3447 71.704C16.2629 71.8156 16.2015 71.9301 16.1885 71.9955C16.1866 72.0047 16.1863 72.0104 16.1864 72.0133C16.1915 72.0228 16.194 72.0334 16.1938 72.0441C16.1936 72.0548 16.1906 72.0653 16.1851 72.0745C16.1796 72.0838 16.1718 72.0914 16.1625 72.0967C16.1532 72.102 16.1427 72.1048 16.1319 72.1049ZM15.5728 71.1714L16.0943 71.8864C16.1256 71.8117 16.1782 71.7217 16.2448 71.6308C16.2852 71.5751 16.3294 71.5222 16.3769 71.4725C16.4062 71.4421 16.4324 71.4177 16.456 71.3982L15.6203 71.1072C15.6192 71.1084 15.6178 71.1097 15.6164 71.1112L15.6106 71.1175C15.596 71.134 15.5833 71.152 15.5728 71.1714Z" fill="#111111"/>
            <path d="M16.6164 71.3896C16.4313 71.4211 16.106 71.8578 16.1313 72.044L18.1867 74.8615C18.0765 74.2796 19.3756 72.5063 19.9101 72.5368L16.6164 71.3896Z" fill="white"/>
            <path d="M18.1866 74.9238C18.1768 74.9238 18.1672 74.9215 18.1585 74.9171C18.1498 74.9127 18.1423 74.9062 18.1365 74.8984L16.0811 72.0809C16.075 72.0726 16.0711 72.0629 16.0697 72.0528C16.0398 71.8332 16.3856 71.3665 16.6058 71.329C16.6161 71.3272 16.6267 71.3281 16.6366 71.3316L19.9303 72.4787C19.9595 72.4889 19.9767 72.519 19.9706 72.5493C19.9674 72.5638 19.9592 72.5767 19.9475 72.5858C19.9358 72.5949 19.9212 72.5996 19.9064 72.5991C19.741 72.5896 19.4485 72.8033 19.1259 73.171C18.6506 73.7126 18.1842 74.5167 18.2474 74.8504C18.2491 74.8593 18.2488 74.8685 18.2466 74.8774C18.2443 74.8862 18.2401 74.8944 18.2343 74.9014C18.2285 74.9084 18.2212 74.9141 18.2129 74.9179C18.2047 74.9218 18.1957 74.9238 18.1866 74.9238ZM16.1914 72.022L18.1276 74.6759C18.1939 74.2492 18.6037 73.5782 19.0328 73.0892C19.19 72.9101 19.4523 72.6403 19.6936 72.5274L16.6126 71.4544C16.4592 71.4996 16.1888 71.8638 16.1914 72.022Z" fill="#111111"/>
            <path d="M19.9114 72.5354C19.471 72.4644 18.1277 74.1059 18.188 74.8601L43.8787 93.9062C44.0589 93.0318 45.2502 91.6879 45.6072 91.5747L19.9114 72.5354Z" fill="#E1D1F3"/>
            <path d="M43.8786 93.9686C43.8653 93.9686 43.8524 93.9643 43.8417 93.9564L18.151 74.9102C18.1439 74.905 18.1381 74.8982 18.1338 74.8905C18.1295 74.8828 18.1269 74.8742 18.1262 74.8654C18.0796 74.283 18.7926 73.279 19.3033 72.8076C19.4853 72.6396 19.7411 72.4452 19.9212 72.4747C19.931 72.4762 19.9403 72.4801 19.9483 72.486L45.644 91.5254C45.6531 91.5322 45.6602 91.5414 45.6645 91.552C45.6687 91.5626 45.67 91.5741 45.6681 91.5854C45.6662 91.5966 45.6613 91.6071 45.6538 91.6157C45.6463 91.6243 45.6367 91.6307 45.6258 91.6342C45.3092 91.7346 44.1201 93.0418 43.9393 93.9191C43.9364 93.9331 43.9288 93.9456 43.9177 93.9546C43.9067 93.9637 43.8929 93.9686 43.8786 93.9686ZM18.2482 74.8281L43.8403 93.8012C44.0632 92.9851 45.044 91.8316 45.4882 91.5641L19.888 72.5957C19.7878 72.5898 19.5998 72.7025 19.3872 72.8987C18.829 73.414 18.2336 74.337 18.2482 74.8281Z" fill="#111111"/>
            <path d="M44.5611 94.6244C44.5948 94.6411 44.6323 94.6493 44.6722 94.6424L44.8953 94.6037C44.7773 94.6242 44.724 94.5441 44.7616 94.3563C44.8422 93.9539 45.3097 93.2093 45.806 92.6932C46.2318 92.2504 46.5404 92.1197 46.5684 92.3458L46.5405 92.121C46.5349 92.0763 46.5186 92.042 46.4913 92.0208L45.8386 91.5371C45.7272 91.4545 45.4439 91.6114 45.077 91.9836C45.0635 91.9972 45.05 92.0111 45.0364 92.0253C44.7926 92.2789 44.555 92.5818 44.3576 92.8799C44.1064 93.2593 43.9206 93.6307 43.8702 93.8824C43.843 94.0182 43.8584 94.1036 43.9085 94.1407L44.5611 94.6244Z" fill="#6817C5"/>
            <path d="M44.6432 94.7075C44.605 94.7072 44.5673 94.6979 44.5333 94.6804C44.5301 94.6788 44.527 94.6769 44.5241 94.6747L43.8714 94.191C43.7985 94.1369 43.7775 94.0292 43.8093 93.8708C43.8594 93.6208 44.0403 93.2474 44.3057 92.8464C44.5116 92.5355 44.7552 92.2289 44.9916 91.983C45.0054 91.9686 45.0191 91.9546 45.0327 91.9408C45.2618 91.7083 45.676 91.3405 45.8753 91.488L46.528 91.9717C46.5569 91.994 46.592 92.0361 46.6017 92.1139L46.6297 92.3387C46.6309 92.3469 46.6305 92.3552 46.6285 92.3633C46.6264 92.3713 46.6228 92.3788 46.6178 92.3854C46.6128 92.392 46.6066 92.3975 46.5994 92.4016C46.5922 92.4058 46.5843 92.4084 46.5761 92.4094C46.5679 92.4105 46.5596 92.4098 46.5516 92.4076C46.5437 92.4053 46.5362 92.4015 46.5298 92.3963C46.5233 92.3912 46.518 92.3848 46.514 92.3775C46.5101 92.3702 46.5076 92.3623 46.5068 92.354C46.5013 92.3096 46.4849 92.3042 46.4788 92.3022C46.4245 92.2839 46.2214 92.351 45.8505 92.7368C45.3619 93.2448 44.9006 93.9771 44.8222 94.3691C44.7977 94.4917 44.8215 94.5276 44.8294 94.5356C44.8412 94.5478 44.8656 94.5466 44.8843 94.5434L44.8847 94.5433C44.9008 94.5405 44.9175 94.5443 44.9309 94.5537C44.9443 94.5632 44.9535 94.5776 44.9563 94.5938C44.9591 94.6099 44.9553 94.6266 44.9459 94.64C44.9364 94.6534 44.922 94.6626 44.9058 94.6654H44.9057L44.6827 94.704C44.6696 94.7063 44.6564 94.7075 44.6432 94.7075ZM44.5931 94.5718C44.6166 94.5826 44.6391 94.5859 44.6614 94.5821L44.708 94.574C44.6833 94.5193 44.6809 94.4437 44.7007 94.3449C44.783 93.9333 45.2588 93.1735 45.7612 92.651C45.9464 92.4584 46.2796 92.1513 46.4849 92.1773L46.4789 92.1293C46.4764 92.1097 46.4699 92.0835 46.4532 92.0705L45.8015 91.5876C45.7443 91.5452 45.5156 91.6274 45.1209 92.0278C45.1076 92.0412 45.0943 92.0549 45.0809 92.0688C44.8495 92.3096 44.6108 92.61 44.409 92.9148C44.1521 93.303 43.9778 93.6604 43.9307 93.8952C43.9007 94.0452 43.9342 94.0835 43.9452 94.0916L44.5931 94.5718Z" fill="#111111"/>
            <path d="M47.6383 93.083L46.5232 92.2566C46.4234 92.1826 46.1698 92.3231 45.8412 92.6564C45.8291 92.6686 45.817 92.681 45.8048 92.6937C45.5865 92.9208 45.3736 93.1922 45.1969 93.4591C44.972 93.7988 44.8056 94.1314 44.7604 94.3568C44.7361 94.4784 44.7499 94.5548 44.7947 94.5881L45.9147 95.4182C46.4361 95.7687 47.0154 95.6827 47.5042 95.1822C48.1047 94.5672 48.3791 93.6796 47.6383 93.083Z" fill="white"/>
            <path d="M46.5692 95.6944C46.3368 95.6944 46.1037 95.6201 45.8805 95.47L44.7581 94.6382C44.6906 94.5881 44.6711 94.4895 44.7 94.345C44.745 94.1203 44.9074 93.7851 45.1455 93.4253C45.3301 93.1465 45.5486 92.8716 45.7605 92.6512C45.7728 92.6384 45.785 92.6257 45.7973 92.6133C46.004 92.4037 46.3778 92.072 46.5604 92.2072L47.6754 93.0336C47.6761 93.0341 47.6767 93.0346 47.6773 93.0351C47.9682 93.2694 48.1257 93.5575 48.1457 93.8915C48.1715 94.3246 47.9539 94.811 47.5487 95.2259C47.2453 95.5367 46.908 95.6944 46.5692 95.6944ZM46.4564 92.2989C46.3771 92.2989 46.1837 92.3978 45.8854 92.7002C45.8736 92.7122 45.8616 92.7245 45.8498 92.737C45.6428 92.9522 45.4294 93.2209 45.2488 93.4936C45.0191 93.8406 44.8633 94.1597 44.8214 94.3693C44.8007 94.4731 44.8132 94.5248 44.8319 94.5387L45.9519 95.3687C46.4436 95.6994 46.9944 95.6164 47.4602 95.1392C47.841 94.7492 48.0458 94.2971 48.022 93.8988C48.0043 93.6015 47.8625 93.3436 47.6006 93.1323L46.4866 92.3066C46.4798 92.3017 46.4697 92.2989 46.4564 92.2989Z" fill="#111111"/>
        </g>
    </g>
    <defs>
        <linearGradient id="paint0_linear_1591_52415" x1="19.6467" y1="27.0286" x2="38.5579" y2="72.9885" gradientUnits="userSpaceOnUse">
            <stop stop-color="#CEB0FF"/>
            <stop offset="0.017" stop-color="#D5A7FA"/>
            <stop offset="0.168" stop-color="#9B56D1"/>
            <stop offset="0.238" stop-color="#8436C1"/>
            <stop offset="0.398" stop-color="#682D97"/>
            <stop offset="0.687" stop-color="#371E4F"/>
            <stop offset="0.895" stop-color="#1C1522"/>
            <stop offset="1" stop-color="#111111"/>
        </linearGradient>
        <linearGradient id="paint1_linear_1591_52415" x1="126.032" y1="51.9039" x2="39.7967" y2="84.8439" gradientUnits="userSpaceOnUse">
            <stop stop-color="#D3B0FF"/>
            <stop offset="0.049" stop-color="#DAA7FA"/>
            <stop offset="0.5" stop-color="#9B56D1"/>
            <stop offset="0.707" stop-color="#8436C1"/>
            <stop offset="0.768" stop-color="#6817C5"/>
            <stop offset="0.88" stop-color="#1E2A4F"/>
            <stop offset="0.96" stop-color="#151822"/>
            <stop offset="1" stop-color="#111111"/>
        </linearGradient>
        <clipPath id="clip0_1591_52415">
            <rect width="132.923" height="96" fill="white" transform="translate(0.288574)"/>
        </clipPath>
        <clipPath id="clip1_1591_52415">
            <rect width="26.2623" height="24.0095" fill="white" transform="translate(0.0639648 62.8789) rotate(-22.7636)"/>
        </clipPath>
        <clipPath id="clip2_1591_52415">
            <rect width="106.472" height="79.2018" fill="white" transform="matrix(-0.988387 0.151959 0.151959 0.988387 120.358 -4.24023)"/>
        </clipPath>
        <clipPath id="clip3_1591_52415">
            <rect width="32.7241" height="24.7209" fill="white" transform="translate(15.4248 70.9717)"/>
        </clipPath>
    </defs>
</svg>
