<svg width="160" height="96" viewBox="0 0 160 96" fill="none" xmlns="http://www.w3.org/2000/svg">
<path d="M125.409 31.0337C127.392 32.1549 128.224 35.0687 127.266 37.5427L111.095 79.2792C110.137 81.7533 107.751 82.8481 105.768 81.7268L51.961 51.3071C49.9777 50.1859 49.1456 47.2721 50.1041 44.7981L66.2748 3.06153C67.2333 0.587501 69.6187 -0.507327 71.6018 0.613953L125.409 31.0337Z" fill="#D2B9EE"/>
<path d="M107.407 82.2189C106.834 82.2189 106.266 82.0692 105.742 81.773L51.9347 51.3531C49.932 50.2209 49.0884 47.2715 50.0544 44.7784L66.2252 3.04187C66.7372 1.72038 67.6851 0.728589 68.8258 0.320802C69.7609 -0.0134913 70.7563 0.074081 71.6281 0.567094L125.435 30.9869C127.438 32.1191 128.281 35.0685 127.315 37.5617L111.145 79.2982C110.633 80.6197 109.685 81.6115 108.544 82.0193C108.171 82.1527 107.788 82.2189 107.407 82.2189ZM69.9628 0.227895C69.5939 0.227895 69.2231 0.292004 68.8616 0.421284C67.7501 0.818617 66.8253 1.7879 66.3245 3.08048L50.1537 44.817C49.2062 47.2627 50.0287 50.1531 51.9871 51.2603L105.794 81.6802C106.639 82.1577 107.603 82.2425 108.508 81.9189C109.62 81.5215 110.545 80.5523 111.045 79.2597L127.216 37.5232C128.163 35.0775 127.341 32.187 125.383 31.0798L71.5756 0.660001C71.0681 0.373175 70.5176 0.228003 69.9628 0.228003V0.227895Z" fill="#0A0A0A"/>
<path d="M124.345 32.5638L71.3116 2.58148C69.8613 1.76153 68.1192 2.56313 67.4191 4.36996L51.6687 45.0218C50.9687 46.8286 51.5757 48.9566 53.0261 49.7766L106.059 79.7589C107.509 80.5782 109.25 79.778 109.95 77.9711L125.701 37.3193C126.401 35.5125 125.794 33.3831 124.345 32.5638Z" fill="white"/>
<path d="M107.257 80.133C106.836 80.133 106.418 80.023 106.033 79.8053L52.9999 49.823C51.5306 48.9921 50.9111 46.8297 51.6192 45.0025L67.3697 4.35053C67.7452 3.38093 68.441 2.65304 69.2786 2.35373C69.9656 2.10819 70.697 2.1724 71.3382 2.53496L124.372 32.5172C125.84 33.3475 126.459 35.5103 125.751 37.3385L110 77.9903C109.625 78.9596 108.929 79.6871 108.092 79.9863C107.818 80.0843 107.537 80.1329 107.257 80.1329L107.257 80.133ZM70.1136 2.31384C69.8458 2.31384 69.5768 2.36035 69.3144 2.45421C68.5061 2.74307 67.8334 3.44835 67.469 4.38915L51.7186 45.0411C51.029 46.8209 51.6274 48.9244 53.0524 49.7302L106.086 79.7125C106.699 80.0592 107.399 80.1208 108.056 79.8859C108.864 79.597 109.536 78.8922 109.901 77.9518L125.651 37.3C126.341 35.5193 125.743 33.4154 124.319 32.6102C122.894 31.8049 71.2855 2.62787 71.2855 2.62787C70.9167 2.41944 70.5167 2.31395 70.1136 2.31395V2.31384Z" fill="#0A0A0A"/>
<path d="M99.548 60.6946L69.3143 43.6021C68.6072 43.2023 67.7577 43.5937 67.4162 44.4753L65.7363 48.8112C65.3947 49.6928 65.6901 50.7315 66.3972 51.1313L96.6309 68.2239C97.338 68.6237 98.1887 68.2328 98.5302 67.3513L100.21 63.0154C100.552 62.1338 100.255 61.0944 99.548 60.6946Z" fill="#6817C5"/>
<path d="M97.2149 68.4339C97.0049 68.4339 96.7967 68.3789 96.6047 68.2705L66.371 51.178C65.6433 50.7667 65.3363 49.6963 65.6866 48.7922L67.3666 44.4564C67.5527 43.9756 67.8982 43.6146 68.3143 43.4658C68.6566 43.3433 69.0213 43.3753 69.3407 43.5559L99.5743 60.6485C100.303 61.0602 100.61 62.1307 100.26 63.0348L98.5799 67.3706C98.3939 67.8509 98.0484 68.2118 97.6321 68.3606C97.4951 68.4095 97.3545 68.4339 97.2149 68.4339ZM68.7306 43.4994C68.6033 43.4994 68.4751 43.5215 68.3503 43.5661C67.9634 43.7045 67.6412 44.0429 67.466 44.4948L65.786 48.8306C65.4542 49.6873 65.74 50.6986 66.4236 51.085L96.6573 68.1774C96.9494 68.3427 97.2831 68.372 97.5962 68.26C97.9833 68.1217 98.3056 67.7833 98.4806 67.3319L100.161 62.9961C100.492 62.1395 100.206 61.1278 99.5219 60.7411L69.2883 43.6485C69.1128 43.5493 68.9225 43.4991 68.7308 43.4991L68.7306 43.4994Z" fill="#0A0A0A"/>
<path d="M73.3735 48.3688C73.3513 48.2319 73.2779 48.1246 73.1825 48.0706C73.1168 48.0335 73.0406 48.0215 72.9635 48.0424L71.4632 48.4511L71.9824 47.1111C72.0665 46.8939 71.994 46.6397 71.8198 46.5411C71.6467 46.4433 71.4375 46.5383 71.3533 46.7554L70.8343 48.0952L70.133 46.4421C70.0972 46.3574 70.0411 46.2946 69.9755 46.2575C69.8801 46.2035 69.7647 46.2041 69.6628 46.2708C69.4915 46.3855 69.4247 46.6469 69.5136 46.8554L70.3223 48.7621L68.5923 49.2334C68.4028 49.2845 68.2794 49.5139 68.3163 49.7463C68.3387 49.884 68.4122 49.9911 68.5074 50.0448C68.5732 50.0821 68.6495 50.0938 68.7264 50.0727L70.2265 49.6642L69.7075 51.004C69.6233 51.2211 69.6969 51.4761 69.87 51.5739C70.0443 51.6724 70.2523 51.5768 70.3365 51.3596L70.8557 50.0195L71.5571 51.6731C71.5933 51.7582 71.65 51.8216 71.7159 51.8588C71.8113 51.9127 71.9259 51.912 72.0273 51.8443C72.1986 51.7296 72.2653 51.4683 72.1776 51.2604L71.3685 49.3535L73.0989 48.8824C73.2873 48.8306 73.4106 48.6012 73.3737 48.3689L73.3735 48.3688Z" fill="white"/>
<path d="M71.8584 51.9487C71.8004 51.9487 71.7426 51.9336 71.6892 51.9035C71.6102 51.8588 71.5474 51.7858 71.5076 51.6922L70.8575 50.1597L70.3858 51.3772C70.3358 51.5064 70.2422 51.6037 70.1294 51.644C70.0339 51.678 69.9326 51.6691 69.8434 51.6186C69.6479 51.5081 69.5645 51.223 69.6574 50.9831L70.1382 49.7418L68.7401 50.1225C68.6526 50.1464 68.5605 50.1348 68.4808 50.0897C68.367 50.0253 68.2877 49.9027 68.2635 49.7532C68.2224 49.4952 68.3636 49.2383 68.5781 49.1803L70.249 48.725L69.4643 46.8745C69.3661 46.6442 69.4418 46.3528 69.6329 46.2249C69.7478 46.1496 69.8855 46.1439 70.0016 46.2096C70.0802 46.254 70.1426 46.3267 70.1818 46.4197L70.8318 47.9517L71.3035 46.7346C71.3534 46.6057 71.4469 46.5087 71.56 46.4681C71.6557 46.434 71.7571 46.4431 71.8459 46.493C72.0447 46.6055 72.1265 46.8847 72.0319 47.1286L71.5509 48.3701L72.9492 47.9891C73.0379 47.9651 73.1276 47.9767 73.2085 48.0224C73.3225 48.0868 73.4018 48.2093 73.4259 48.3584C73.4668 48.6159 73.3261 48.8731 73.1125 48.9318L71.4407 49.3869L72.2259 51.2376C72.3232 51.4678 72.247 51.7589 72.0562 51.8866C71.9948 51.9277 71.9263 51.9484 71.8582 51.9484L71.8584 51.9487ZM70.8553 49.9644C70.8767 49.9644 70.8961 49.9772 70.9044 49.997L71.6057 51.6504C71.6364 51.7222 71.6834 51.7776 71.7416 51.8106C71.8232 51.8568 71.9166 51.8521 71.9971 51.7981C72.1476 51.6975 72.2063 51.4648 72.128 51.2794L71.319 49.3725C71.3129 49.3584 71.3134 49.3423 71.3201 49.3284C71.3268 49.3145 71.3393 49.3043 71.354 49.3002L73.0847 48.8291C73.2473 48.7844 73.3534 48.581 73.3208 48.3755C73.3021 48.2603 73.2405 48.1631 73.1561 48.1154C73.1004 48.0838 73.0383 48.0758 72.9774 48.0922L71.4772 48.501C71.4575 48.5063 71.437 48.5002 71.4236 48.4853C71.41 48.4704 71.4062 48.449 71.4134 48.4303L71.9326 47.0902C72.0071 46.8977 71.9447 46.6715 71.7934 46.5859C71.7312 46.5507 71.6628 46.5447 71.5959 46.5685C71.512 46.5986 71.4416 46.673 71.4028 46.773L70.8837 48.1127C70.8759 48.133 70.8566 48.1464 70.8349 48.1467C70.8116 48.1459 70.7934 48.1343 70.7849 48.1142L70.0836 46.4611C70.0535 46.3899 70.007 46.335 69.949 46.3021C69.8672 46.256 69.7734 46.2601 69.6918 46.3136C69.5415 46.4141 69.4833 46.647 69.5623 46.8325L70.371 48.7393C70.3771 48.7535 70.3766 48.7696 70.3699 48.7834C70.3632 48.7973 70.3507 48.8075 70.336 48.8116L68.606 49.2829C68.4424 49.3271 68.336 49.5303 68.3686 49.736C68.3874 49.8515 68.4489 49.9489 68.5332 49.9964C68.589 50.0281 68.651 50.0359 68.7118 50.0193L70.2119 49.6107C70.2314 49.6055 70.2521 49.6116 70.2656 49.6264C70.2791 49.6413 70.283 49.6627 70.2757 49.6815L69.7567 51.0212C69.6822 51.2137 69.7446 51.4399 69.8959 51.5254C69.9585 51.5608 70.027 51.5669 70.0934 51.5432C70.1772 51.5132 70.2475 51.4386 70.2865 51.3383L70.8056 49.9983C70.8134 49.978 70.8328 49.9645 70.8545 49.9642H70.8553V49.9644Z" fill="#0A0A0A"/>
<path d="M79.4373 51.7965C79.4152 51.6597 79.3419 51.5524 79.2463 51.4984C79.1806 51.4612 79.1045 51.4493 79.0273 51.4701L77.527 51.8788L78.0462 50.5388C78.1304 50.3216 78.0578 50.0673 77.8836 49.9689C77.7105 49.8711 77.5013 49.966 77.4172 50.1832L76.8981 51.5229L76.1967 49.8698C76.1611 49.7852 76.1049 49.7224 76.0393 49.6852C75.9439 49.6313 75.8284 49.6318 75.7265 49.6986C75.5553 49.8132 75.4884 50.0746 75.5773 50.2831L76.386 52.1898L74.656 52.6611C74.4665 52.7122 74.3432 52.9417 74.3801 53.174C74.4026 53.3117 74.476 53.4188 74.5711 53.4726C74.6369 53.5098 74.7131 53.5215 74.79 53.5003L76.2901 53.0919L75.7711 54.4316C75.6869 54.6488 75.7605 54.9037 75.9337 55.0015C76.1078 55.1 76.316 55.0044 76.4001 54.7872L76.9194 53.4472L77.6206 55.1006C77.657 55.1858 77.7135 55.2491 77.7794 55.2863C77.8748 55.3402 77.9896 55.3397 78.0908 55.2718C78.2621 55.1571 78.3289 54.8958 78.2412 54.688L77.432 52.781L79.1626 52.3099C79.3508 52.2582 79.4742 52.0287 79.4373 51.7964V51.7965Z" fill="white"/>
<path d="M77.9225 55.3785C77.8645 55.3785 77.8065 55.3635 77.7531 55.3333C77.6743 55.2887 77.6114 55.2156 77.5715 55.1221L76.9215 53.5895L76.4498 54.807C76.3998 54.9361 76.3063 55.0334 76.1934 55.0737C76.0978 55.1077 75.9966 55.0988 75.9074 55.0484C75.7119 54.938 75.6285 54.6528 75.7214 54.4128L76.2023 53.1717L74.804 53.5524C74.7169 53.5764 74.6247 53.5646 74.5449 53.5195C74.4311 53.4552 74.3517 53.3326 74.3274 53.1831C74.2864 52.9248 74.4277 52.668 74.6422 52.6101L76.3131 52.1548L75.5283 50.3044C75.4301 50.0742 75.5057 49.7827 75.6969 49.6547C75.8119 49.5791 75.9496 49.5737 76.0655 49.6392C76.1442 49.6837 76.2066 49.7564 76.2458 49.8494L76.8958 51.3814L77.3675 50.1642C77.4174 50.0353 77.511 49.9383 77.6241 49.8977C77.7197 49.8637 77.8211 49.8726 77.9099 49.9227C78.1087 50.0351 78.1905 50.3143 78.0959 50.5582L77.615 51.7997L79.0131 51.4187C79.1021 51.3948 79.1917 51.4063 79.2725 51.4521C79.3866 51.5165 79.4658 51.639 79.4898 51.7881C79.5307 52.0455 79.3901 52.3027 79.1766 52.3614L77.5047 52.8166L78.2899 54.6672C78.3871 54.8974 78.311 55.1885 78.1202 55.3162C78.0588 55.3574 77.9904 55.3781 77.9223 55.3781L77.9225 55.3785ZM76.9194 53.3943C76.9407 53.3943 76.9601 53.4071 76.9684 53.4268L77.6697 55.0802C77.7003 55.152 77.7474 55.2074 77.8056 55.2404C77.8874 55.2865 77.9806 55.2821 78.0611 55.2279C78.2115 55.1272 78.2702 54.8945 78.192 54.7091L77.383 52.8023C77.3769 52.7881 77.3773 52.772 77.384 52.7581C77.3907 52.7443 77.4032 52.734 77.4181 52.73L79.1487 52.2588C79.3113 52.214 79.4173 52.0105 79.3848 51.8053C79.3661 51.6901 79.3046 51.5928 79.2201 51.5451C79.1642 51.5133 79.1025 51.5054 79.0412 51.5219L77.5411 51.9306C77.5214 51.9358 77.5009 51.9297 77.4875 51.9149C77.4739 51.9 77.4701 51.8787 77.4774 51.8599L77.9965 50.5198C78.0711 50.3274 78.0086 50.1012 77.8573 50.0156C77.7951 49.9804 77.727 49.9744 77.6599 49.9982C77.5759 50.0282 77.5055 50.1028 77.4667 50.2027L76.9476 51.5424C76.9399 51.5627 76.9206 51.5761 76.8988 51.5765C76.8783 51.578 76.8573 51.564 76.8489 51.5439L76.1474 49.8908C76.1175 49.8197 76.0709 49.7646 76.0128 49.7319C75.9309 49.6854 75.8373 49.69 75.7557 49.7433C75.6054 49.8439 75.5471 50.0768 75.6263 50.2623L76.4349 52.1691C76.441 52.1833 76.4406 52.1994 76.4338 52.2133C76.4271 52.2271 76.4146 52.2374 76.3999 52.2414L74.6699 52.7128C74.5064 52.7569 74.3999 52.9601 74.4325 53.1659C74.4513 53.2813 74.5129 53.3788 74.5971 53.4264C74.6528 53.4582 74.7149 53.4657 74.7756 53.4492L76.2759 53.0407C76.2957 53.0353 76.3161 53.0414 76.3295 53.0564C76.3431 53.0713 76.3469 53.0926 76.3397 53.1114L75.8206 54.4511C75.7462 54.6437 75.8086 54.8699 75.9598 54.9553C76.0224 54.9908 76.0908 54.9971 76.1574 54.9732C76.2411 54.9433 76.3115 54.8686 76.3504 54.7684L76.8696 53.4283C76.8774 53.408 76.8968 53.3946 76.9184 53.3943H76.9193H76.9194Z" fill="#0A0A0A"/>
<path d="M85.5014 55.2242C85.4792 55.0874 85.4058 54.9801 85.3104 54.9261C85.2447 54.889 85.1685 54.8769 85.0914 54.8978L83.5911 55.3066L84.1103 53.9665C84.1944 53.7494 84.1219 53.4952 83.9477 53.3966C83.7746 53.2988 83.5654 53.3937 83.4813 53.6109L82.9622 54.9506L82.2608 53.2975C82.225 53.2128 82.1689 53.1501 82.1033 53.113C82.0079 53.059 81.8925 53.0595 81.7906 53.1263C81.6193 53.241 81.5525 53.5023 81.6414 53.7108L82.45 55.6175L80.72 56.0889C80.5305 56.14 80.4071 56.3694 80.444 56.6017C80.4664 56.7394 80.5399 56.8465 80.6351 56.9003C80.7009 56.9375 80.7771 56.9492 80.854 56.9281L82.3542 56.5197L81.8352 57.8594C81.751 58.0766 81.8246 58.3315 81.9977 58.4294C82.172 58.5279 82.38 58.4322 82.4642 58.2151L82.9834 56.875L83.6848 58.5286C83.721 58.6137 83.7777 58.677 83.8436 58.7144C83.939 58.7682 84.0536 58.7676 84.155 58.6999C84.3263 58.5852 84.393 58.3239 84.3053 58.116L83.4962 56.2091L85.2266 55.7379C85.4149 55.6862 85.5383 55.4568 85.5014 55.2244V55.2242Z" fill="white"/>
<path d="M83.9865 58.8063C83.9284 58.8063 83.8705 58.7914 83.8171 58.7612C83.7384 58.7166 83.6755 58.6435 83.6355 58.5499L82.9855 57.0173L82.5137 58.2348C82.4637 58.3639 82.3702 58.4613 82.2572 58.5017C82.1618 58.5358 82.0603 58.5266 81.9714 58.4763C81.7758 58.3657 81.6924 58.0806 81.7854 57.8408L82.2663 56.5995L80.8681 56.9802C80.7807 57.004 80.6888 56.9924 80.6088 56.9473C80.4951 56.8829 80.4157 56.7603 80.3914 56.6109C80.3503 56.3527 80.4915 56.0958 80.706 56.0379L82.3771 55.5825L81.5922 53.7321C81.494 53.5018 81.5697 53.2103 81.7609 53.0825C81.8758 53.0069 82.0135 53.0013 82.1295 53.0671C82.2081 53.1115 82.2704 53.1841 82.3098 53.2772L82.9598 54.8092L83.4315 53.592C83.4814 53.4631 83.575 53.3661 83.688 53.3255C83.7838 53.2914 83.8851 53.3004 83.9739 53.3504C84.1727 53.4629 84.2544 53.7421 84.1598 53.986L83.6788 55.2275L85.0771 54.8465C85.1661 54.8226 85.2557 54.834 85.3364 54.8799C85.4506 54.9444 85.5298 55.0669 85.5538 55.2159C85.5947 55.4734 85.454 55.7306 85.2404 55.7892L83.5687 56.2444L84.3539 58.095C84.4511 58.3252 84.375 58.6163 84.1842 58.744C84.1228 58.7852 84.0543 58.8059 83.9863 58.8059L83.9865 58.8063ZM82.9834 56.8221C83.0047 56.8221 83.0241 56.8349 83.0324 56.8546L83.7337 58.5081C83.7644 58.5798 83.8114 58.6353 83.8696 58.6683C83.9514 58.7142 84.0445 58.7099 84.1251 58.6558C84.2755 58.5551 84.3342 58.3225 84.256 58.137L83.447 56.2302C83.4409 56.216 83.4413 56.1999 83.448 56.186C83.4547 56.1722 83.4672 56.1619 83.4819 56.1579L85.2126 55.6867C85.3753 55.642 85.4813 55.4386 85.4488 55.2332C85.4301 55.118 85.3686 55.0208 85.2841 54.973C85.2282 54.9414 85.1665 54.9332 85.1052 54.9499L83.6051 55.3586C83.5854 55.3637 83.5649 55.3578 83.5515 55.3429C83.5379 55.328 83.5341 55.3067 83.5414 55.2879L84.0605 53.9478C84.1351 53.7554 84.0727 53.5292 83.9214 53.4435C83.8592 53.4084 83.7907 53.4023 83.724 53.4261C83.64 53.4562 83.5696 53.5307 83.5308 53.6306L83.0118 54.9703C83.004 54.9906 82.9847 55.0041 82.9629 55.0044C82.9379 55.0046 82.9214 54.9919 82.913 54.9718L82.2115 53.3187C82.1815 53.2475 82.1348 53.1925 82.0769 53.1599C81.9952 53.1136 81.9015 53.1178 81.8198 53.1713C81.6695 53.2719 81.6112 53.5047 81.6903 53.6902L82.499 55.597C82.5051 55.6112 82.5047 55.6273 82.4979 55.6412C82.4912 55.655 82.4787 55.6653 82.464 55.6693L80.7339 56.1407C80.5704 56.1849 80.4639 56.3881 80.4966 56.5937C80.5154 56.7091 80.577 56.8066 80.6611 56.8543C80.7171 56.8859 80.7789 56.8936 80.8397 56.8771L82.34 56.4686C82.3597 56.4633 82.3802 56.4693 82.3936 56.4843C82.4072 56.4992 82.411 56.5205 82.4037 56.5393L81.8847 57.879C81.8102 58.0716 81.8726 58.2977 82.0239 58.3833C82.0864 58.4187 82.1547 58.4247 82.2214 58.4011C82.3051 58.3711 82.3754 58.2964 82.4144 58.1962L82.9337 56.8561C82.9415 56.8358 82.9609 56.8224 82.9825 56.8221H82.9834Z" fill="#0A0A0A"/>
<path d="M91.5653 58.6539C91.5431 58.517 91.4698 58.4098 91.3742 58.3557C91.3085 58.3186 91.2325 58.3067 91.1552 58.3275L89.655 58.7362L90.1741 57.3962C90.2583 57.179 90.1857 56.9247 90.0116 56.8263C89.8384 56.7284 89.6293 56.8234 89.5451 57.0406L89.0261 58.3803L88.3246 56.7272C88.289 56.6426 88.2328 56.5797 88.1672 56.5426C88.0718 56.4888 87.9563 56.4892 87.8544 56.556C87.6832 56.6706 87.6164 56.932 87.7053 57.1405L88.514 59.0472L86.7839 59.5185C86.5945 59.5696 86.4711 59.7991 86.508 60.0314C86.5305 60.1691 86.6039 60.2762 86.6991 60.3299C86.7649 60.3672 86.8411 60.3789 86.918 60.3577L88.4182 59.9492L87.8991 61.289C87.815 61.5061 87.8886 61.7611 88.0617 61.8589C88.2359 61.9573 88.444 61.8618 88.5281 61.6446L89.0474 60.3045L89.7486 61.958C89.785 62.0432 89.8415 62.1065 89.9075 62.1438C90.0027 62.1977 90.1175 62.197 90.2187 62.1292C90.39 62.0145 90.4568 61.7532 90.3691 61.5454L89.5599 59.6384L91.2905 59.1673C91.4788 59.1155 91.6022 58.8861 91.5653 58.6538V58.6539Z" fill="white"/>
<path d="M90.0504 62.234C89.9924 62.234 89.9345 62.219 89.8811 62.1888C89.8022 62.1441 89.7395 62.0711 89.6995 61.9775L89.0495 60.4449L88.5777 61.6624C88.5277 61.7916 88.4341 61.8889 88.3213 61.9292C88.2261 61.9631 88.1246 61.9543 88.0353 61.9038C87.8398 61.7933 87.7564 61.5082 87.8494 61.2683L88.3302 60.0271L86.9319 60.4077C86.8435 60.432 86.7538 60.4207 86.6727 60.3749C86.559 60.3106 86.4797 60.1881 86.4553 60.0385C86.4143 59.7804 86.5555 59.5234 86.77 59.4655L88.4411 59.0101L87.6562 57.1597C87.5581 56.9294 87.6337 56.638 87.8247 56.5101C87.9396 56.4348 88.0772 56.429 88.1935 56.4946C88.2721 56.5392 88.3345 56.6119 88.3737 56.7049L89.0238 58.2369L89.4955 57.0197C89.5454 56.8909 89.6389 56.7937 89.7521 56.7533C89.8476 56.7193 89.9491 56.7281 90.0377 56.7783C90.2367 56.8906 90.3184 57.1697 90.2238 57.4138L89.7428 58.6553L91.1411 58.2742C91.2301 58.2502 91.3195 58.2619 91.4004 58.3075C91.5144 58.372 91.5937 58.4945 91.6178 58.6435C91.6587 58.9009 91.5181 59.1582 91.3044 59.217L89.6326 59.6721L90.4179 61.5228C90.5151 61.7531 90.4389 62.0442 90.2481 62.1717C90.1867 62.2129 90.1183 62.2336 90.0502 62.2337L90.0504 62.234ZM89.0473 60.2497C89.0687 60.2497 89.0881 60.2625 89.0964 60.2823L89.7976 61.9357C89.8283 62.0075 89.8754 62.0628 89.9335 62.0959C90.0155 62.1421 90.1084 62.1375 90.189 62.0834C90.3395 61.9827 90.3983 61.7501 90.32 61.5646L89.5109 59.6578C89.5048 59.6436 89.5053 59.6275 89.512 59.6137C89.5187 59.5998 89.5312 59.5896 89.5459 59.5855L91.2766 59.1144C91.4392 59.0697 91.5453 58.8661 91.5126 58.6608C91.494 58.5456 91.4324 58.4484 91.348 58.4006C91.2921 58.3691 91.2305 58.3611 91.1692 58.3775L89.6691 58.7863C89.6493 58.7914 89.6289 58.7855 89.6155 58.7706C89.6019 58.7556 89.5981 58.7343 89.6053 58.7155L90.1245 57.3755C90.199 57.1829 90.1366 56.9568 89.9853 56.8713C89.923 56.8359 89.8547 56.8301 89.788 56.8538C89.704 56.8839 89.6336 56.9583 89.5948 57.0583L89.0757 58.398C89.0679 58.4183 89.0486 58.4317 89.0269 58.432C89.0046 58.4309 88.9854 58.4195 88.9769 58.3995L88.2755 56.7464C88.2454 56.6752 88.1989 56.6202 88.1409 56.5874C88.059 56.5411 87.9653 56.5455 87.8836 56.5989C87.7334 56.6995 87.6752 56.9324 87.7542 57.118L88.563 59.0247C88.5691 59.0388 88.5686 59.0549 88.5619 59.0688C88.5552 59.0827 88.5427 59.0929 88.528 59.097L86.7979 59.5683C86.6342 59.6125 86.5279 59.8157 86.5605 60.0213C86.5796 60.1386 86.6397 60.2336 86.7251 60.2818C86.781 60.3135 86.8432 60.3213 86.9037 60.3047L88.404 59.8962C88.4231 59.891 88.4441 59.8971 88.4576 59.9119C88.4711 59.9269 88.475 59.9482 88.4677 59.9669L87.9487 61.3067C87.8741 61.4992 87.9365 61.7253 88.0878 61.8109C88.1504 61.8463 88.2188 61.8525 88.2853 61.8286C88.3691 61.7986 88.4395 61.7241 88.4784 61.6238L88.9976 60.2837C89.0054 60.2635 89.0248 60.25 89.0465 60.2497H89.0473Z" fill="#0A0A0A"/>
<path d="M97.6291 62.0797C97.6069 61.9428 97.5335 61.8355 97.4381 61.7816C97.3724 61.7444 97.2962 61.7324 97.2191 61.7533L95.7188 62.1621L96.238 60.822C96.3221 60.6048 96.2496 60.3506 96.0754 60.2521C95.9023 60.1543 95.6931 60.2492 95.6089 60.4664L95.0899 61.8061L94.3885 60.153C94.3527 60.0683 94.2966 60.0056 94.231 59.9685C94.1356 59.9145 94.0201 59.915 93.9183 59.9818C93.747 60.0965 93.6802 60.3578 93.769 60.5663L94.5777 62.473L92.8477 62.9443C92.6582 62.9954 92.5348 63.2249 92.5717 63.4572C92.5941 63.5949 92.6676 63.702 92.7628 63.7558C92.8286 63.793 92.9048 63.8047 92.9817 63.7836L94.4819 63.3752L93.9629 64.7149C93.8787 64.9321 93.9524 65.187 94.1254 65.2848C94.2997 65.3834 94.5077 65.2877 94.5919 65.0705L95.1111 63.7305L95.8125 65.384C95.8488 65.4692 95.9054 65.5325 95.9713 65.5698C96.0666 65.6237 96.1813 65.6231 96.2826 65.5553C96.454 65.4407 96.5207 65.1793 96.433 64.9714L95.624 63.0646L97.3544 62.5934C97.5428 62.5417 97.6661 62.3122 97.6293 62.0799L97.6291 62.0797Z" fill="white"/>
<path d="M96.1143 65.6638C96.0563 65.6638 95.9985 65.6488 95.945 65.6187C95.8662 65.5741 95.8035 65.501 95.7635 65.4074L95.1133 63.8748L94.6417 65.0923C94.5916 65.2215 94.4981 65.3187 94.3852 65.3591C94.2901 65.393 94.1885 65.384 94.0993 65.3337C93.9036 65.2231 93.8202 64.938 93.9132 64.6981L94.3941 63.4569L92.996 63.8376C92.9085 63.8615 92.8165 63.8498 92.7366 63.8047C92.6228 63.7403 92.5435 63.6177 92.5193 63.4682C92.4782 63.21 92.6195 62.9531 92.834 62.8953L94.5049 62.4399L93.7202 60.5895C93.6219 60.3593 93.6976 60.0677 93.8887 59.9399C94.0037 59.8643 94.1414 59.8588 94.2574 59.9244C94.3362 59.9689 94.3985 60.0416 94.4377 60.1346L95.0876 61.6666L95.5593 60.4494C95.6092 60.3205 95.7028 60.2234 95.816 60.1829C95.9115 60.1488 96.013 60.1578 96.1017 60.2079C96.3004 60.3203 96.3822 60.5995 96.2877 60.8435L95.8068 62.085L97.2051 61.704C97.2937 61.68 97.3834 61.6916 97.4644 61.7373C97.5784 61.8017 97.6577 61.9243 97.6818 62.0733V62.0734C97.7226 62.3309 97.5819 62.5881 97.3684 62.6467L95.6967 63.1019L96.4819 64.9525C96.5792 65.1827 96.503 65.4738 96.3122 65.6015C96.2507 65.6427 96.1822 65.6634 96.1142 65.6634L96.1143 65.6638ZM95.1112 63.6796C95.1325 63.6796 95.152 63.6924 95.1603 63.7121L95.8616 65.3656C95.8922 65.4373 95.9394 65.4928 95.9975 65.5258C96.0792 65.572 96.1723 65.5674 96.253 65.5133C96.4035 65.4126 96.4621 65.18 96.3838 64.9946L95.5749 63.0877C95.5688 63.0735 95.5692 63.0574 95.576 63.0435C95.5827 63.0297 95.5951 63.0194 95.6099 63.0154L97.3403 62.5442C97.5031 62.4995 97.6092 62.2961 97.5767 62.0907C97.5579 61.9755 97.4964 61.8782 97.412 61.8305C97.3561 61.7989 97.2942 61.7908 97.2332 61.8074L95.7331 62.2161C95.7136 62.2213 95.6928 62.2154 95.6794 62.2004C95.6659 62.1855 95.662 62.1642 95.6693 62.1454L96.1884 60.8053C96.2629 60.6128 96.2005 60.3866 96.0492 60.301C95.987 60.2658 95.9189 60.2598 95.8518 60.2836C95.7678 60.3136 95.6974 60.3882 95.6586 60.4881L95.1396 61.8279C95.1318 61.8481 95.1125 61.8616 95.0907 61.8619C95.0712 61.8632 95.0492 61.8494 95.0408 61.8293L94.3395 60.1762C94.3094 60.1051 94.2629 60.0501 94.2049 60.0173C94.1232 59.9711 94.0294 59.9753 93.9476 60.0288C93.7974 60.1294 93.7392 60.3623 93.8182 60.5477L94.6268 62.4545C94.6329 62.4687 94.6325 62.4848 94.6258 62.4987C94.619 62.5125 94.6066 62.5228 94.5918 62.5268L92.8618 62.9982C92.6983 63.0424 92.5918 63.2456 92.6245 63.4512C92.6433 63.5666 92.7047 63.6641 92.789 63.7118C92.8449 63.7434 92.9069 63.7512 92.9676 63.7346L94.4678 63.3261C94.4874 63.3209 94.508 63.3269 94.5214 63.3418C94.535 63.3567 94.5388 63.378 94.5316 63.3968L94.0125 64.7365C93.938 64.9291 94.0004 65.1552 94.1517 65.2408C94.2144 65.2762 94.2828 65.2824 94.3493 65.2585C94.433 65.2285 94.5034 65.1538 94.5424 65.0536L95.0615 63.7135C95.0693 63.6932 95.0887 63.6798 95.1104 63.6795H95.1112V63.6796Z" fill="#0A0A0A"/>
<path d="M95.5524 23.445C90.57 20.6282 84.5797 23.3817 82.1729 29.5936C80.8301 33.0595 80.8886 36.8688 82.0663 40.0497C82.0661 40.0501 82.0658 40.0504 82.0656 40.0508C82.0762 40.0794 82.0878 40.1074 82.0986 40.1359V40.1357C82.8652 42.1654 84.0894 43.934 85.701 45.1844C85.703 45.186 85.705 45.1875 85.7068 45.1889C85.72 45.1991 85.733 45.2091 85.7462 45.2193C85.7495 45.2218 85.7529 45.2244 85.7562 45.227C85.7687 45.2366 85.7812 45.246 85.7936 45.2555C85.7977 45.2586 85.8015 45.2615 85.8057 45.2646C85.8182 45.274 85.8305 45.2834 85.8431 45.2927C85.8469 45.2954 85.8506 45.2983 85.8543 45.3011C85.8667 45.3101 85.8789 45.3193 85.8913 45.3284C85.8968 45.3323 85.9022 45.3364 85.9077 45.3404C85.9187 45.3485 85.93 45.3568 85.941 45.3649C85.9434 45.3666 85.9455 45.3682 85.9479 45.3699C85.9752 45.3897 86.0029 45.4096 86.0304 45.4291C86.0331 45.431 86.0355 45.4327 86.0382 45.4346C86.0493 45.4424 86.0603 45.4502 86.0713 45.4579C86.0776 45.4624 86.0841 45.4668 86.0904 45.4712C86.1001 45.478 86.1098 45.4847 86.1195 45.4914C86.1276 45.497 86.1359 45.5028 86.144 45.5083C86.1525 45.5141 86.1609 45.5199 86.1692 45.5257C86.1781 45.5318 86.1869 45.5378 86.1958 45.5437C86.2049 45.5499 86.2141 45.5562 86.2233 45.5624C86.2315 45.5679 86.2397 45.5734 86.2478 45.5788C86.2567 45.5848 86.2653 45.5906 86.2742 45.5964C86.2837 45.6027 86.2933 45.609 86.3028 45.6153C86.3109 45.6207 86.3192 45.6261 86.3273 45.6314C86.3398 45.6396 86.3524 45.6478 86.3648 45.6559C86.3696 45.659 86.3743 45.6619 86.3791 45.6651C86.3941 45.6747 86.4088 45.6841 86.4237 45.6936C86.4345 45.7004 86.4455 45.7075 86.4564 45.7142C86.4661 45.7204 86.4758 45.7265 86.4856 45.7326C86.4932 45.7374 86.5008 45.742 86.5084 45.7467C86.5184 45.753 86.5286 45.7592 86.5387 45.7655C86.5466 45.7703 86.5547 45.7753 86.5626 45.7801C86.5735 45.7867 86.5842 45.7932 86.5951 45.7999C86.6024 45.8042 86.6096 45.8086 86.617 45.8131C86.6271 45.8192 86.6373 45.8252 86.6475 45.8313C86.6558 45.8363 86.6642 45.8413 86.6727 45.8463C86.6832 45.8527 86.6941 45.8589 86.7048 45.8652C86.7122 45.8696 86.7194 45.8738 86.7269 45.8781C86.7385 45.8849 86.7503 45.8918 86.7621 45.8985C86.7686 45.9024 86.7751 45.9061 86.7816 45.9098C86.7999 45.9204 86.8182 45.9308 86.8366 45.9412C86.8551 45.9515 86.8734 45.9619 86.8919 45.9721C86.8985 45.9757 86.905 45.9794 86.9116 45.983C86.9233 45.9895 86.9353 45.9961 86.947 46.0025C86.9547 46.0067 86.962 46.0106 86.9694 46.0148C86.9803 46.0207 86.9913 46.0267 87.0021 46.0324C87.0107 46.0371 87.019 46.0416 87.0277 46.0462C87.0379 46.0517 87.0485 46.0572 87.0587 46.0627L87.0811 46.0745C87.0922 46.0803 87.1033 46.0862 87.1145 46.092C87.1228 46.0963 87.131 46.1007 87.1392 46.1049C87.1497 46.1103 87.1599 46.1155 87.1704 46.1208C87.1783 46.1249 87.1863 46.1289 87.1942 46.133C87.2042 46.1381 87.214 46.143 87.224 46.1481C87.237 46.1546 87.2503 46.1612 87.2634 46.1677C87.2774 46.1747 87.2912 46.1816 87.3053 46.1884C87.3103 46.1909 87.3152 46.1932 87.3202 46.1957C87.3334 46.2021 87.3466 46.2086 87.3598 46.2149C87.3686 46.2191 87.3774 46.2233 87.3861 46.2275C87.3961 46.2322 87.406 46.237 87.416 46.2417C87.4255 46.2463 87.4349 46.2506 87.4445 46.2551C87.453 46.2591 87.4616 46.2631 87.4701 46.2671C87.4801 46.2716 87.4901 46.2762 87.5 46.2809C87.5094 46.2853 87.5189 46.2897 87.5282 46.2939C87.5374 46.2981 87.5465 46.3023 87.5557 46.3064C87.5642 46.3104 87.5728 46.3141 87.5814 46.3179C87.5922 46.3227 87.6028 46.3275 87.6136 46.3323C87.6201 46.3351 87.6266 46.338 87.6331 46.341C87.6456 46.3464 87.6581 46.3519 87.6705 46.3574C87.6719 46.3579 87.6733 46.3586 87.6747 46.3592C87.706 46.3728 87.7372 46.3861 87.7685 46.3993C87.7712 46.4004 87.7739 46.4016 87.7767 46.4027C87.7888 46.4077 87.801 46.4129 87.813 46.4179C87.8192 46.4203 87.8254 46.423 87.8317 46.4256C87.8456 46.4312 87.8594 46.437 87.8733 46.4425C87.8772 46.444 87.8811 46.4456 87.8849 46.4472L87.9275 46.4642C87.9317 46.4659 87.9358 46.4675 87.9401 46.4692C87.9545 46.4748 87.969 46.4806 87.9834 46.4862C87.9867 46.4874 87.9897 46.4886 87.993 46.4899C88.0084 46.4957 88.0238 46.5017 88.0392 46.5076C88.0407 46.5081 88.042 46.5087 88.0436 46.5092C89.8893 47.2105 91.8184 47.2071 93.616 46.6006C93.6138 46.6014 93.6117 46.6022 93.6094 46.6029C93.6189 46.5997 93.6284 46.5969 93.638 46.5937H93.6382C93.6382 46.5937 93.6383 46.593 93.6384 46.5927C96.4151 45.6476 98.8738 43.2608 100.217 39.7948C102.623 33.583 100.535 26.2621 95.5527 23.4454L95.5524 23.445Z" fill="#6817C5"/>
<path d="M90.9435 47.0989C89.9549 47.0989 88.9719 46.9186 88.0244 46.5586L87.9739 46.5393C87.9739 46.5393 87.9636 46.5352 87.9633 46.5351L87.8651 46.4963C87.8651 46.4963 87.8534 46.4915 87.8533 46.4915L87.2972 46.2435L87.2816 46.2359L86.3398 45.7026L86.2256 45.6276L86.2415 45.5742L86.212 45.6185L86.0071 45.4776C85.9717 45.4526 85.9438 45.4325 85.9163 45.4126L85.8758 45.383L85.8911 45.328L85.8596 45.3711L85.7238 45.2691C85.7238 45.2691 85.7137 45.2614 85.7136 45.2613L85.6739 45.2307C84.0913 44.003 82.8397 42.249 82.0485 40.1543L82.0335 40.1158C82.0274 40.1002 82.0213 40.0848 82.0156 40.0691C82.0143 40.0659 82.0134 40.0625 82.013 40.0592C80.7868 36.7408 80.827 32.9199 82.1232 29.5742C83.4008 26.2765 85.7646 23.8022 88.6082 22.7857C90.9335 21.9544 93.4093 22.172 95.5787 23.3985C100.576 26.2235 102.679 33.5874 100.266 39.8136C98.9686 43.1626 96.5621 45.6503 93.6632 46.6401C93.6607 46.6416 93.6578 46.6427 93.6549 46.6437L93.626 46.6531C92.7423 46.9504 91.8406 47.0989 90.9435 47.0989ZM87.9571 46.4181L88.0581 46.4574C89.8486 47.1377 91.7632 47.1689 93.5987 46.5496C93.6004 46.5491 93.602 46.5486 93.6036 46.5482C93.6047 46.5479 93.6053 46.5477 93.6054 46.5477L93.6133 46.5451C93.6158 46.5439 93.6183 46.5427 93.621 46.5418C96.4936 45.564 98.8795 43.0977 100.167 39.7751C102.561 33.5962 100.479 26.2914 95.5261 23.4913C93.3842 22.2804 90.94 22.0655 88.6439 22.8862C85.8295 23.8922 83.4891 26.344 82.2225 29.6128C80.9345 32.9374 80.8958 36.7348 82.1162 40.031C82.1174 40.0342 82.1183 40.0376 82.1187 40.0409C82.1234 40.0533 82.1283 40.0656 82.1331 40.0779L82.1484 40.117C82.9326 42.1931 84.1723 43.9309 85.7335 45.1422L85.7786 45.1769L85.756 45.2269L85.7884 45.1845L85.8748 45.2497L85.8542 45.3009L85.8858 45.2579L85.9227 45.2851L85.9075 45.3402L85.9391 45.2973L85.9722 45.3214C86.0062 45.3461 86.0337 45.3658 86.0611 45.3853L86.2712 45.5301C86.2712 45.5301 86.2851 45.5394 86.2852 45.5394L87.3286 46.1403L87.3202 46.1956L87.3437 46.1477L87.9471 46.4144L87.9379 46.4681L87.9572 46.4184L87.9571 46.4181Z" fill="#0A0A0A"/>
<path d="M93.5532 28.6045C92.096 27.7808 90.3444 28.5856 89.6405 30.4023C88.9366 32.219 89.5472 34.3593 91.0044 35.1831C92.4616 36.0069 94.2132 35.2021 94.9171 33.3853C95.621 31.5687 95.0105 29.4283 93.5532 28.6045Z" fill="white"/>
<path d="M92.2083 35.5588C91.785 35.5588 91.3653 35.4481 90.9782 35.2293C89.5013 34.3944 88.879 32.2203 89.5909 30.3828C89.9685 29.4083 90.6678 28.6768 91.5095 28.376C92.2001 28.1291 92.9352 28.1938 93.5795 28.5581C95.0564 29.393 95.6786 31.567 94.9668 33.4046C94.5893 34.3791 93.89 35.1106 93.0483 35.4115C92.7725 35.5101 92.4896 35.559 92.2083 35.559V35.5588ZM92.3492 28.3353C92.0799 28.3353 91.8092 28.382 91.5454 28.4764C90.7328 28.7668 90.0567 29.4757 89.6902 30.4213C88.9967 32.2113 89.598 34.3265 91.0305 35.1365C91.6474 35.4853 92.3513 35.5472 93.0122 35.3109C93.8248 35.0205 94.5009 34.3116 94.8673 33.366C95.5608 31.576 94.9595 29.4608 93.527 28.6509C93.1563 28.4414 92.7544 28.3353 92.3492 28.3353Z" fill="#0A0A0A"/>
<path d="M90.2315 37.1786C87.3127 35.5285 83.8616 36.8221 82.0654 40.0519C82.8297 42.1173 84.0666 43.9175 85.7007 45.1854C85.7027 45.187 85.7047 45.1885 85.7066 45.1898C85.7197 45.2001 85.7328 45.2101 85.746 45.2202C85.7493 45.2228 85.7527 45.2254 85.756 45.2279C85.7685 45.2375 85.781 45.247 85.7934 45.2564C85.7975 45.2595 85.8013 45.2624 85.8054 45.2655C85.8179 45.2749 85.8303 45.2842 85.8428 45.2935C85.8465 45.2963 85.8503 45.2992 85.854 45.302C85.8664 45.311 85.8785 45.3202 85.891 45.3293C85.8965 45.3332 85.9019 45.3373 85.9074 45.3413C85.9184 45.3494 85.9296 45.3576 85.9407 45.3657C85.9431 45.3674 85.9452 45.369 85.9476 45.3707C85.9749 45.3906 86.0026 45.4104 86.0301 45.4299C86.0328 45.4319 86.0352 45.4336 86.0379 45.4355C86.0489 45.4433 86.06 45.4511 86.071 45.4587C86.0773 45.4632 86.0838 45.4677 86.0901 45.4721C86.0998 45.4789 86.1095 45.4855 86.1192 45.4922C86.1273 45.4979 86.1356 45.5037 86.1437 45.5092C86.1522 45.515 86.1606 45.5207 86.169 45.5266C86.1779 45.5327 86.1866 45.5386 86.1956 45.5446L86.2231 45.5633C86.2313 45.5687 86.2395 45.5743 86.2476 45.5797C86.2565 45.5857 86.2651 45.5914 86.274 45.5973C86.2835 45.6036 86.2931 45.6099 86.3025 45.6162C86.3107 45.6215 86.319 45.627 86.3271 45.6323C86.3396 45.6405 86.3521 45.6486 86.3646 45.6567C86.3694 45.6598 86.3741 45.6628 86.3789 45.666C86.3939 45.6756 86.4086 45.685 86.4235 45.6945C86.4343 45.7013 86.4453 45.7084 86.4561 45.7151C86.4659 45.7213 86.4756 45.7273 86.4854 45.7334C86.493 45.7382 86.5006 45.7429 86.5082 45.7476C86.5182 45.7539 86.5284 45.7601 86.5385 45.7664C86.5464 45.7712 86.5545 45.7762 86.5624 45.781C86.5733 45.7876 86.584 45.7941 86.5949 45.8007L86.6168 45.814C86.627 45.8201 86.6371 45.8261 86.6473 45.8322C86.6556 45.8372 86.664 45.8422 86.6724 45.8471C86.6829 45.8534 86.6938 45.8598 86.7045 45.8661C86.7119 45.8705 86.7191 45.8746 86.7265 45.879C86.7382 45.8857 86.75 45.8927 86.7616 45.8994C86.7681 45.9032 86.7747 45.907 86.7812 45.9107C86.7995 45.9213 86.8178 45.9317 86.8362 45.9421C86.8547 45.9524 86.873 45.9627 86.8915 45.973C86.8981 45.9766 86.9046 45.9802 86.9112 45.9839C86.9229 45.9904 86.9349 45.997 86.9466 46.0034C86.9542 46.0076 86.9615 46.0115 86.969 46.0157C86.9799 46.0215 86.9909 46.0276 87.0016 46.0333C87.0103 46.0379 87.0186 46.0424 87.0272 46.047C87.0375 46.0526 87.048 46.0581 87.0583 46.0635L87.0807 46.0754C87.0918 46.0812 87.103 46.087 87.1141 46.0929C87.1224 46.0972 87.1306 46.1014 87.1388 46.1058C87.1493 46.1111 87.1595 46.1164 87.17 46.1217C87.1779 46.1257 87.1859 46.1298 87.1937 46.1338C87.2038 46.139 87.2136 46.1439 87.2236 46.149C87.2366 46.1555 87.2499 46.1621 87.263 46.1686C87.2769 46.1756 87.2909 46.1825 87.3049 46.1893C87.3099 46.1918 87.3148 46.1941 87.3198 46.1966C87.333 46.203 87.3462 46.2095 87.3594 46.2158C87.3681 46.2199 87.3769 46.2242 87.3856 46.2284C87.3957 46.233 87.4056 46.2378 87.4156 46.2425C87.4251 46.2471 87.4345 46.2515 87.4441 46.256C87.4526 46.2599 87.4612 46.264 87.4697 46.2679L87.4996 46.2818C87.509 46.2862 87.5184 46.2905 87.5278 46.2948C87.537 46.299 87.5461 46.3031 87.5552 46.3073C87.5638 46.3112 87.5724 46.315 87.581 46.3188C87.5918 46.3236 87.6024 46.3284 87.6133 46.3332C87.6198 46.336 87.6263 46.3389 87.6328 46.3418L87.6702 46.3583C87.6716 46.3588 87.673 46.3594 87.6744 46.3601C87.7056 46.3736 87.7369 46.387 87.7682 46.4002C87.7709 46.4013 87.7736 46.4024 87.7764 46.4036C87.7884 46.4087 87.8007 46.4137 87.8127 46.4187C87.8189 46.4212 87.8252 46.4239 87.8314 46.4264C87.8453 46.4321 87.8591 46.4378 87.873 46.4434C87.8768 46.4449 87.8809 46.4465 87.8846 46.4481C87.8988 46.4537 87.9129 46.4594 87.9272 46.465C87.9313 46.4668 87.9355 46.4684 87.9398 46.4701C87.9541 46.4757 87.9687 46.4815 87.983 46.487C87.9863 46.4883 87.9893 46.4895 87.9926 46.4907C88.0079 46.4966 88.0234 46.5026 88.0388 46.5085C88.0403 46.509 88.0415 46.5095 88.0431 46.5101C89.8964 47.2143 91.8339 47.2084 93.6377 46.5944C94.539 42.8586 93.1503 38.8289 90.2314 37.1787" fill="white"/>
<path d="M90.9443 47.0992C89.9556 47.0992 88.9725 46.9189 88.0243 46.5586L87.9737 46.5393L87.9637 46.5354L87.8649 46.4963L87.8532 46.4915L87.4243 46.3043L87.4367 46.2512L87.4142 46.2995L86.6998 45.9238L86.6903 45.9183L86.2256 45.6276L86.2415 45.5742L86.212 45.6186L86.0071 45.4776C85.9717 45.4526 85.9437 45.4325 85.9162 45.4126L85.8758 45.383L85.8911 45.328L85.8596 45.3711L85.7238 45.2691L85.7136 45.2613L85.6739 45.2307C84.0675 43.9844 82.8044 42.2012 82.0155 40.0691C82.0101 40.0545 82.0114 40.0383 82.019 40.0246C82.9826 38.2916 84.4288 37.0797 86.0908 36.6118C87.5095 36.2124 88.9507 36.3918 90.2579 37.1309C93.1732 38.7791 94.6165 42.7637 93.6898 46.6054C93.6855 46.6233 93.6724 46.6375 93.6551 46.6434C92.7625 46.9472 91.8511 47.099 90.9443 47.099V47.0992ZM87.9046 46.3972L87.9963 46.4335L88.0074 46.4379L88.0581 46.4573C89.8475 47.1372 91.7593 47.1694 93.593 46.552C94.4949 42.7645 93.073 38.845 90.2055 37.2238C88.9235 36.4992 87.5108 36.3231 86.1198 36.7146C84.4921 37.1727 83.0739 38.3587 82.1241 40.0551C82.9066 42.1581 84.1544 43.9168 85.7336 45.1419L85.7786 45.1766L85.7561 45.2266L85.7884 45.1842L85.8748 45.2494L85.8543 45.3006L85.8858 45.2576L85.9227 45.2848L85.9076 45.3399L85.9392 45.297L85.9722 45.3211C86.0063 45.3458 86.0338 45.3655 86.0612 45.385L86.2713 45.5298L86.2853 45.5391L87.287 46.1194L87.3287 46.1399L87.3439 46.1473L87.4596 46.2028L87.47 46.2076L87.8935 46.3923L87.8853 46.4465L87.9051 46.397L87.9046 46.3972Z" fill="#0A0A0A"/>
<path d="M97.3377 18.836C97.0028 18.6467 96.6002 18.8317 96.4384 19.2492C96.2766 19.6667 96.4164 20.1602 96.7513 20.3495C97.0862 20.5388 97.4905 20.353 97.6523 19.9355C97.8141 19.518 97.6725 19.0253 97.3377 18.836Z" fill="#0A0A0A"/>
<path d="M97.0276 20.4774C96.9233 20.4774 96.8201 20.4502 96.725 20.3965C96.3685 20.195 96.2176 19.6719 96.3886 19.2305C96.4797 18.9954 96.6493 18.8185 96.8541 18.7454C97.0243 18.6845 97.2055 18.7005 97.3639 18.7901C97.721 18.992 97.8727 19.5146 97.7019 19.9552C97.6108 20.1904 97.4408 20.3673 97.2354 20.4408C97.1671 20.4653 97.0971 20.4773 97.0276 20.4773V20.4774ZM97.061 18.8159C97.0037 18.8159 96.9462 18.8258 96.89 18.8458C96.7144 18.9086 96.5679 19.0629 96.488 19.2691C96.3353 19.663 96.4651 20.1271 96.7775 20.3037C96.9085 20.3777 97.0584 20.3909 97.1994 20.3405C97.3756 20.2775 97.5225 20.1231 97.6025 19.9168C97.7548 19.5237 97.6242 19.0599 97.3114 18.883C97.2326 18.8385 97.147 18.8159 97.0609 18.8159H97.061Z" fill="#0A0A0A"/>
<path d="M125.409 31.0342C127.392 32.1554 128.224 35.0692 127.266 37.5432L111.095 79.2797C110.364 81.1681 108.801 82.2529 107.22 82.1622L108.228 82.22C109.809 82.3108 111.371 81.2259 112.103 79.3376L128.274 37.601C129.232 35.127 128.4 32.2132 126.417 31.092L72.6098 0.672275C72.1402 0.406889 71.6483 0.265553 71.1579 0.2375L70.1501 0.179688C70.6405 0.207848 71.1324 0.349073 71.602 0.61446L125.409 31.0342H125.409Z" fill="url(#paint0_linear_1035_41847)"/>
<path d="M108.418 82.2774C108.354 82.2774 108.289 82.2755 108.225 82.2719L107.217 82.214C107.188 82.2123 107.165 82.1872 107.167 82.1577C107.169 82.1285 107.191 82.1072 107.223 82.1076C108.839 82.1991 110.339 81.0823 111.046 79.2592L127.216 37.5226C128.164 35.077 127.341 32.1865 125.383 31.0793L71.5756 0.659478C71.1236 0.403905 70.643 0.259905 70.147 0.231532C70.1176 0.229825 70.0952 0.204654 70.0968 0.175214C70.0984 0.145987 70.1207 0.12348 70.153 0.12508L71.1608 0.182893C71.6732 0.212226 72.1694 0.360811 72.6359 0.624491L126.443 31.0443C128.446 32.1766 129.289 35.1259 128.323 37.6191L112.153 79.3556C111.457 81.1503 110.006 82.2775 108.418 82.2776L108.418 82.2774ZM108.062 82.1556L108.231 82.1653C109.852 82.2578 111.347 81.1398 112.053 79.3168L128.224 37.5802C129.172 35.1346 128.349 32.2441 126.391 31.1369L72.5837 0.717079C72.1316 0.461506 71.6509 0.317506 71.155 0.289133L70.9759 0.278892C71.1986 0.350785 71.4165 0.446787 71.6282 0.566467L125.435 30.9863C127.438 32.1185 128.282 35.0679 127.316 37.561L111.145 79.2976C110.546 80.8432 109.386 81.8937 108.062 82.1556Z" fill="#0A0A0A"/>
<path d="M106.522 81.7209C108.507 82.8427 108.668 84.1989 106.884 84.751L76.7733 94.065C74.9885 94.6171 71.9349 94.1556 69.9505 93.0336L16.1445 62.6144C14.1602 61.4926 13.9985 60.1365 15.7833 59.5844L45.8935 50.2703C47.6784 49.7182 50.7319 50.1798 52.7164 51.3017L106.522 81.7208L106.522 81.7209Z" fill="#D2B9EE"/>
<path d="M74.9868 94.3493C73.3203 94.3493 71.3455 93.8826 69.9245 93.0792L16.1184 62.66C15.0182 62.0379 14.4268 61.3127 14.4959 60.6702C14.5494 60.1737 15.0011 59.7698 15.7678 59.5325L45.8779 50.2186C47.6714 49.6638 50.7509 50.1284 52.7426 51.2545L106.549 81.6736C107.649 82.2956 108.24 83.0209 108.171 83.6633C108.118 84.1599 107.666 84.5638 106.899 84.801L76.7893 94.1151C76.2754 94.274 75.6558 94.3493 74.9868 94.3493ZM47.6843 50.09C47.025 50.09 46.4154 50.164 45.9094 50.3206L15.7993 59.6345C15.0759 59.8583 14.6506 60.2301 14.602 60.6817C14.5375 61.2798 15.1095 61.9671 16.1709 62.5672L69.977 92.9863C71.9466 94.0997 74.9881 94.5604 76.7578 94.0131L106.868 84.699C107.591 84.4753 108.017 84.1034 108.065 83.6519C108.13 83.0537 107.558 82.3665 106.496 81.7664L52.6902 51.3473C51.2837 50.5522 49.3303 50.0899 47.6842 50.0899L47.6843 50.09Z" fill="#0A0A0A"/>
<path d="M99.621 80.453L53.595 54.4324C52.9842 54.087 52.0429 53.9447 51.4934 54.1148L35.6873 59.0041C35.1379 59.174 35.1886 59.5917 35.7995 59.9371L81.8254 85.9576C82.4363 86.303 83.3754 86.445 83.925 86.275L99.731 81.3857C100.281 81.2157 100.232 80.7983 99.621 80.453Z" fill="white"/>
<path d="M83.3764 86.3993C82.8566 86.3993 82.2416 86.2541 81.7993 86.004L35.7734 59.9834C35.4209 59.7841 35.2319 59.5474 35.2548 59.3342C35.273 59.1659 35.4211 59.0305 35.6718 58.953L51.4778 54.0637C52.0382 53.8901 53.0001 54.0347 53.6214 54.3859L99.6473 80.4065C99.9991 80.6053 100.188 80.8416 100.165 81.0547C100.147 81.2233 99.9982 81.3589 99.747 81.4366L83.9409 86.3259C83.7799 86.3757 83.5859 86.3993 83.3764 86.3993ZM52.0464 54.0958C51.8468 54.0958 51.6623 54.1182 51.5092 54.1656L35.7031 59.0548C35.4957 59.1191 35.3741 59.2223 35.3608 59.3456C35.3429 59.5121 35.5167 59.7157 35.8258 59.8906L81.8517 85.9112C82.45 86.2494 83.3731 86.39 83.9092 86.224L99.7153 81.3347C99.9233 81.2703 100.045 81.1668 100.059 81.0433C100.076 80.8771 99.903 80.6738 99.5946 80.4994L53.5687 54.4788C53.1406 54.2367 52.5464 54.096 52.0464 54.096V54.0958Z" fill="#0A0A0A"/>
<path d="M65.6985 77.9845L49.31 68.7194C48.6041 68.3203 47.5167 68.156 46.8806 68.3527L37.7366 71.1811C37.1017 71.3775 37.1593 71.8605 37.8652 72.2595L54.2537 81.5247C54.9597 81.9238 56.047 82.0882 56.6819 81.8917L65.8259 79.0633C66.4619 78.8666 66.4044 78.3836 65.6984 77.9844" fill="white"/>
<path d="M56.0474 82.0273C55.4479 82.0273 54.7381 81.8597 54.2275 81.5711L37.839 72.3059C37.4351 72.0775 37.2184 71.8072 37.2446 71.5641C37.2651 71.373 37.4343 71.2187 37.721 71.1301L46.865 68.3015C47.5119 68.1014 48.6203 68.268 49.3363 68.6727L65.7249 77.9379C66.1287 78.1663 66.3454 78.4365 66.3192 78.6794C66.2986 78.8708 66.129 79.0251 65.8418 79.114L56.6978 81.9426C56.5124 82 56.2888 82.0272 56.0473 82.0272L56.0474 82.0273ZM47.5203 68.3225C47.2886 68.3225 47.0743 68.3486 46.8965 68.4035L37.7525 71.2321C37.5092 71.3074 37.3664 71.4294 37.3506 71.5756C37.3296 71.7714 37.5317 72.0098 37.8915 72.2132L54.28 81.4784C54.9739 81.8706 56.0442 82.0334 56.6663 81.8409L65.8103 79.0123C66.0543 78.9368 66.1973 78.8147 66.213 78.6682C66.2341 78.4725 66.032 78.2343 65.6723 78.0309L49.2837 68.7657C48.7881 68.4855 48.0999 68.3225 47.5203 68.3225Z" fill="#0A0A0A"/>
<path d="M106.884 84.7504L76.7735 94.0645C74.9886 94.6166 71.9351 94.155 69.9507 93.0331L16.1447 62.6139C14.9683 61.9488 14.4325 61.2013 14.5632 60.5879L14.2375 62.1166C14.1068 62.7301 14.6426 63.4776 15.819 64.1427L69.6251 94.5617C71.6094 95.6836 74.6631 96.1452 76.448 95.5931L106.558 86.2791C107.285 86.0543 107.689 85.6963 107.779 85.275L108.104 83.7463C108.014 84.1675 107.61 84.5256 106.884 84.7503L106.884 84.7504Z" fill="url(#paint1_linear_1035_41847)"/>
<path d="M74.6607 95.8789C72.9944 95.8789 71.0196 95.4122 69.5986 94.6088L15.7927 64.1897C14.6292 63.5319 14.0433 62.7725 14.1852 62.1062L14.5105 60.5795C14.5105 60.5788 14.5108 60.5781 14.5109 60.5773C14.5172 60.5484 14.5464 60.5304 14.5743 60.5363C14.6031 60.5424 14.6215 60.5707 14.6154 60.5995C14.4857 61.2082 15.0672 61.9439 16.171 62.568L69.9771 92.9871C71.9467 94.1005 74.9882 94.5612 76.7579 94.0139L106.868 84.6999C107.553 84.4879 107.963 84.1545 108.052 83.7356C108.058 83.7068 108.086 83.6884 108.115 83.6945C108.144 83.7007 108.162 83.729 108.156 83.7578L108.156 83.7594L107.831 85.2867C107.733 85.7454 107.298 86.1065 106.574 86.3306L76.4637 95.6445C75.9499 95.8035 75.3301 95.8788 74.661 95.8788L74.6607 95.8789ZM14.5226 61.0341L14.2894 62.1284C14.1598 62.737 14.7412 63.4729 15.845 64.0969L69.6511 94.516C71.6207 95.6295 74.6626 96.0901 76.4319 95.5428L106.542 86.2288C107.227 86.0168 107.637 85.6833 107.726 85.2646L107.96 84.1678C107.75 84.4343 107.391 84.6496 106.899 84.8019L76.7891 94.1159C74.9956 94.6708 71.916 94.2059 69.9244 93.08L16.1183 62.6608C15.2139 62.1495 14.6584 61.5767 14.5226 61.0341Z" fill="#0A0A0A"/>
<path d="M53.6836 15.6484C53.6993 15.7032 53.527 15.8101 53.1992 15.936L37.0237 22.1452L42.2561 40.4392L58.4316 34.23C58.7594 34.1041 58.9317 33.9972 58.9161 33.9424L53.6836 15.6484Z" fill="#D2B9EE"/>
<path d="M42.2561 40.4911C42.2479 40.4911 42.2398 40.4892 42.2322 40.4855C42.2189 40.4788 42.2089 40.4668 42.2048 40.4524L36.9723 22.1584C36.9647 22.1318 36.9787 22.1038 37.0045 22.094L53.1801 15.8848C53.5493 15.7431 53.6193 15.6663 53.6304 15.6507C53.6287 15.6262 53.6444 15.6028 53.6689 15.5958C53.6976 15.5878 53.7268 15.6042 53.7348 15.6324C53.7428 15.6605 53.735 15.633 53.7351 15.6332L58.9674 33.9263C58.9792 33.9678 59.0068 34.0649 58.4507 34.2783L42.2751 40.4875C42.2689 40.4899 42.2625 40.491 42.256 40.491L42.2561 40.4911ZM37.0883 22.176L42.2914 40.3671L58.4126 34.1787C58.7732 34.0403 58.8484 33.9638 58.8621 33.9457L53.6624 15.7664C53.5921 15.8203 53.4606 15.8912 53.2182 15.9843L37.0883 22.1759V22.176Z" fill="#0A0A0A"/>
<path d="M49.6223 31.188L48.8775 28.5843C49.5701 27.8501 49.8641 26.6756 49.5458 25.5626C49.1161 24.06 47.7312 23.2394 46.453 23.73C45.1748 24.2206 44.487 25.8368 44.9168 27.3395C45.2352 28.4528 46.077 29.1916 47.0114 29.3011L47.7559 31.9043C47.9286 32.5079 48.4897 32.8395 49.0022 32.6427C49.5157 32.4456 49.7949 31.7915 49.6223 31.1878V31.188Z" fill="#6817C5"/>
<path d="M48.6991 32.7528C48.5591 32.7528 48.4189 32.7197 48.2872 32.654C48.011 32.5162 47.7986 32.2483 47.7046 31.919L46.9696 29.3498C45.9995 29.2198 45.176 28.4405 44.8653 27.3542C44.4287 25.8279 45.1323 24.1798 46.4336 23.6803C47.009 23.4593 47.6341 23.4916 48.1935 23.7708C48.857 24.1019 49.3685 24.7496 49.5967 25.548C49.9072 26.6337 49.648 27.8273 48.9368 28.5987L49.6732 31.1734C49.8535 31.8039 49.5609 32.4855 49.0209 32.6928C48.9164 32.7329 48.8077 32.753 48.6989 32.753L48.6991 32.7528ZM47.2098 23.6419C46.9609 23.6419 46.7118 23.6877 46.4718 23.7798C45.2207 24.26 44.5461 25.8503 44.9678 27.3248C45.2704 28.3827 46.0749 29.1377 47.0174 29.2482C47.0388 29.2507 47.0565 29.2658 47.0624 29.2865L47.807 31.8897C47.8929 32.1903 48.0853 32.434 48.3348 32.5586C48.5417 32.6619 48.7719 32.6742 48.9828 32.5932C49.4725 32.4052 49.7361 31.7814 49.5708 31.2027L48.8261 28.599C48.8208 28.5809 48.8256 28.5614 48.8385 28.5477C49.5402 27.8039 49.7976 26.638 49.4942 25.5774C49.2741 24.8077 48.7825 24.184 48.1458 23.8662C47.8469 23.7171 47.5285 23.642 47.2097 23.642L47.2098 23.6419Z" fill="#0A0A0A"/>
<path d="M49.7324 16.0315C50.2244 15.8426 50.8819 15.6822 51.1996 15.6734L53.5146 15.6097C53.8328 15.601 53.6912 15.7473 53.1992 15.9361L37.0237 22.1453C36.5307 22.3345 35.8741 22.4947 35.5558 22.5034L33.2409 22.5671C32.9232 22.5758 33.0639 22.4299 33.5569 22.2407L49.7324 16.0315Z" fill="white"/>
<path d="M33.2128 22.6195C33.1251 22.6195 33.0334 22.6065 33.0193 22.5354C33.0112 22.4946 32.9921 22.3991 33.5379 22.1896L49.7135 15.9804C50.2098 15.7898 50.876 15.6276 51.1983 15.6188L53.5133 15.5551C53.6081 15.5525 53.7208 15.5596 53.7366 15.6388C53.7448 15.6797 53.7638 15.7753 53.2185 15.9847L37.0429 22.1938C36.5466 22.3843 35.8802 22.5466 35.5575 22.5555L33.2425 22.6191C33.2328 22.6193 33.2228 22.6195 33.2129 22.6195H33.2128ZM33.1399 22.5075C33.158 22.5108 33.188 22.5138 33.2395 22.5124L35.5545 22.4489C35.8672 22.4402 36.5177 22.2812 37.0047 22.0943L53.1803 15.8851C53.4787 15.7706 53.5817 15.6985 53.616 15.6668C53.5979 15.6635 53.5673 15.6604 53.5162 15.6619L51.2012 15.7256C50.8889 15.7341 50.2387 15.8931 49.7516 16.0801L33.576 22.2893C33.2774 22.4039 33.1743 22.476 33.1399 22.5076V22.5075Z" fill="#0A0A0A"/>
<path d="M36.9027 21.3652C36.4014 21.5576 36.2571 21.7067 36.5807 21.6978C36.905 21.6888 37.5743 21.5254 38.0756 21.333C38.577 21.1405 38.7219 20.9914 38.3976 21.0004C38.0732 21.0093 37.4041 21.1728 36.9027 21.3652Z" fill="white"/>
<path d="M36.5523 21.7502C36.4634 21.7502 36.3707 21.7371 36.3563 21.6654C36.348 21.624 36.3286 21.5271 36.8837 21.3141C37.3892 21.1201 38.0678 20.9548 38.3963 20.9457C38.494 20.9432 38.6067 20.9503 38.6226 21.0302C38.6308 21.0716 38.6501 21.1683 38.0948 21.3814C37.5892 21.5756 36.9106 21.7408 36.5823 21.7499C36.5724 21.7501 36.5623 21.7503 36.5523 21.7503V21.7502ZM36.476 21.6378C36.4944 21.6414 36.5262 21.6446 36.5794 21.6431C36.8977 21.6343 37.5603 21.4722 38.0567 21.2818C38.3651 21.1635 38.4689 21.0895 38.5028 21.0577C38.4846 21.0541 38.4527 21.051 38.3992 21.0524C38.081 21.0611 37.4182 21.2232 36.9219 21.4136C36.6136 21.5319 36.5099 21.606 36.476 21.6378Z" fill="#0A0A0A"/>
<path d="M48.6798 16.8437C48.1785 17.0361 48.0342 17.1851 48.3578 17.1763C48.6821 17.1673 49.3513 17.0039 49.8527 16.8115C50.3542 16.6191 50.499 16.4699 50.1747 16.4789C49.8503 16.4879 49.1821 16.651 48.6798 16.8437Z" fill="white"/>
<path d="M48.3295 17.2309C48.2406 17.2309 48.1478 17.2177 48.1334 17.146C48.1251 17.1046 48.1057 17.0078 48.6608 16.7947C49.1663 16.6007 49.8449 16.4353 50.1734 16.4263C50.2698 16.4234 50.3839 16.4308 50.3999 16.5108C50.4081 16.552 50.4274 16.6488 49.8719 16.862C49.3665 17.056 48.6879 17.2213 48.3594 17.2304C48.3496 17.2307 48.3395 17.2309 48.3295 17.2309ZM48.2531 17.1184C48.2715 17.1221 48.3032 17.1253 48.3565 17.1238C48.6749 17.1149 49.3376 16.9529 49.8338 16.7625C50.1422 16.6441 50.2462 16.5702 50.2801 16.5384C50.2619 16.5348 50.2303 16.5317 50.1763 16.5331C49.8581 16.5418 49.1953 16.7039 48.699 16.8943C48.3907 17.0126 48.287 17.0867 48.2531 17.1184Z" fill="#0A0A0A"/>
<path d="M37.0238 22.1445C36.5308 22.3338 35.8743 22.4939 35.556 22.5026L33.2409 22.5663C33.1348 22.5692 33.0799 22.5549 33.072 22.5275L38.3044 40.8214C38.3122 40.8489 38.3673 40.8631 38.4733 40.8603L40.7883 40.7966C41.1065 40.7878 41.7631 40.6277 42.2561 40.4385L37.0237 22.1445H37.0238Z" fill="#D2B9EE"/>
<path d="M38.4454 40.9144C38.3609 40.9144 38.2721 40.9022 38.2533 40.8365L33.0209 22.543C33.0209 22.543 33.0209 22.5427 33.0209 22.5425C33.0128 22.5142 33.0292 22.4847 33.0575 22.4766C33.0822 22.4698 33.1077 22.4811 33.1192 22.5028C33.1283 22.5067 33.1584 22.5159 33.2395 22.5134L35.5545 22.4498C35.8673 22.4412 36.5177 22.2821 37.0048 22.0953C37.0188 22.09 37.0343 22.0907 37.0476 22.0974C37.061 22.1041 37.071 22.1161 37.0751 22.1305L42.3076 40.4244C42.3152 40.4511 42.3012 40.4791 42.2754 40.4889C41.7791 40.6794 41.1127 40.8416 40.7899 40.8505L38.4748 40.9142C38.4651 40.9144 38.4553 40.9146 38.4455 40.9146L38.4454 40.9144ZM38.353 40.7974C38.3637 40.8014 38.3945 40.8094 38.4719 40.8073L40.7869 40.7436C41.0899 40.7353 41.7101 40.5857 42.1914 40.4063L36.9884 22.2152C36.4987 22.3967 35.8684 22.5478 35.5574 22.5563L33.2424 22.6199C33.2132 22.6207 33.1825 22.6205 33.1533 22.6176L38.353 40.7972V40.7974ZM33.1233 22.5129V22.5132C33.1233 22.5132 33.1233 22.5131 33.1233 22.5129Z" fill="#0A0A0A"/>
<path d="M47.4052 11.7028C46.6482 9.05619 44.5143 7.39272 42.2564 7.4548L41.1179 7.48606C43.3757 7.42398 45.5097 9.08745 46.2667 11.7341L47.8509 17.2727L48.9894 17.2415L47.4052 11.7028Z" fill="#6817C5"/>
<path d="M47.8508 17.3264C47.827 17.3264 47.8061 17.3107 47.7996 17.2878L46.2154 11.7491C45.4887 9.20818 43.3927 7.47709 41.1193 7.53981H41.1178C41.0889 7.53981 41.0653 7.51687 41.0645 7.48797C41.0636 7.45853 41.0869 7.43399 41.1163 7.43314L42.2549 7.40189C44.5769 7.34173 46.7162 9.10077 47.4564 11.6885L49.0406 17.2272C49.0452 17.2431 49.0422 17.2601 49.0324 17.2734C49.0226 17.2866 49.0073 17.2947 48.9908 17.2952L47.8523 17.3265H47.8508V17.3264ZM42.0888 7.51303C44.0169 7.88498 45.6825 9.49831 46.3178 11.7196L47.8906 17.2186L48.919 17.1904L47.3538 11.7177C46.627 9.17682 44.5294 7.44626 42.2578 7.50845L42.0888 7.51303Z" fill="#0A0A0A"/>
<path d="M41.4744 5.33268L40.3359 5.36393C40.5768 5.3282 40.8175 5.3074 41.0573 5.30078L42.1958 5.26953C41.956 5.27614 41.7152 5.29705 41.4744 5.33268Z" fill="white"/>
<path d="M40.3358 5.41786C40.3082 5.41786 40.285 5.39674 40.2827 5.36912C40.2802 5.34106 40.3001 5.31579 40.328 5.31173C40.5684 5.27611 40.8133 5.25466 41.0557 5.24805L42.1943 5.2168H42.1957C42.2246 5.2168 42.2482 5.23973 42.2491 5.26864C42.2499 5.29808 42.2267 5.32261 42.1972 5.32346H42.1949C41.9572 5.33018 41.7174 5.3512 41.4821 5.38608C41.48 5.3864 41.478 5.3865 41.4757 5.38661L40.3373 5.41786H40.3358Z" fill="#0A0A0A"/>
<path d="M40.1548 5.68106C43.8931 4.24607 47.9803 6.66783 49.2373 11.0627L50.8052 16.5443L48.9892 17.2414L47.405 11.7027C46.4801 8.46911 43.4996 6.70303 40.7491 7.75882C37.9986 8.8146 36.519 12.2928 37.4439 15.5264L39.0282 21.0651L37.2113 21.7624L35.6434 16.2808C34.3863 11.8859 36.4165 7.11593 40.1549 5.68095L40.1548 5.68106Z" fill="#D2B9EE"/>
<path d="M37.2112 21.8151C37.203 21.8151 37.1949 21.8132 37.1873 21.8095C37.1739 21.8027 37.1639 21.7908 37.1599 21.7764L35.5921 16.2948C34.3243 11.8627 36.3626 7.07869 40.1358 5.63037C41.7904 4.99527 43.5938 5.09074 45.2139 5.89928C47.143 6.86184 48.6281 8.73821 49.2885 11.0472L50.8563 16.5289C50.8639 16.5556 50.8499 16.5835 50.8241 16.5934L49.0082 17.2904C48.9942 17.2958 48.9787 17.295 48.9653 17.2883C48.952 17.2816 48.9419 17.2696 48.9379 17.2552L47.3537 11.7166C46.8752 10.0435 45.8059 8.68743 44.4202 7.99602C43.2587 7.4165 41.9618 7.34962 40.7681 7.80776C38.0472 8.85224 36.579 12.3078 37.495 15.5109L39.0792 21.0496C39.0868 21.0762 39.0728 21.1042 39.047 21.114L37.2302 21.8115C37.224 21.8138 37.2176 21.815 37.2111 21.815L37.2112 21.8151ZM42.3621 5.32168C41.6228 5.32168 40.8843 5.45725 40.1738 5.7301C36.4512 7.15912 34.4418 11.8853 35.6946 16.2656L37.2465 21.6912L38.9634 21.0321L37.3926 15.5403C36.4616 12.2855 37.9588 8.77202 40.73 7.70823C41.952 7.23933 43.2795 7.3076 44.4679 7.90056C45.8803 8.60541 46.9696 9.98557 47.4563 11.6872L49.0245 17.1699L50.7405 16.5112L49.1861 11.0766C48.5338 8.79624 47.0687 6.94397 45.1664 5.99463C44.2693 5.54695 43.3151 5.32157 42.3621 5.32157V5.32168Z" fill="#0A0A0A"/>
<path d="M40.3359 5.36328C39.8947 5.42867 39.4532 5.54366 39.0164 5.71134C36.0852 6.83656 34.2042 10.012 34.1346 13.4494C34.1154 14.3959 34.2336 15.3623 34.5049 16.3112L36.0728 21.7928L37.2113 21.7616L35.6434 16.28C35.3719 15.3311 35.2538 14.3647 35.2729 13.4181C35.3426 9.98067 37.2235 6.8052 40.1547 5.68008C40.5914 5.5124 41.033 5.39742 41.4742 5.33203L40.3359 5.36328Z" fill="white"/>
<path d="M36.0728 21.8468C36.0491 21.8468 36.0282 21.8311 36.0216 21.8081L34.4538 16.3265C34.1869 15.3933 34.0615 14.4252 34.0814 13.4489C34.1534 9.89252 36.129 6.76324 38.9974 5.66212C39.4306 5.49583 39.8783 5.37775 40.3282 5.31108C40.3303 5.31076 40.3325 5.31055 40.3346 5.31055L41.4731 5.2793C41.4978 5.27983 41.5252 5.29978 41.5277 5.32804C41.5301 5.3561 41.5103 5.38127 41.4823 5.38543C41.04 5.45103 40.5999 5.56719 40.1743 5.7305C37.3459 6.81615 35.3979 9.90628 35.3266 13.4199C35.307 14.3856 35.431 15.3432 35.6949 16.266L37.2627 21.7477C37.2673 21.7636 37.2643 21.7806 37.2545 21.7939C37.2447 21.8072 37.2294 21.8152 37.2129 21.8157L36.0744 21.847H36.073L36.0728 21.8468ZM40.3406 5.41711C39.8994 5.48271 39.4604 5.59866 39.0355 5.76175C36.2071 6.8474 34.2592 9.93754 34.188 13.4511C34.1684 14.4168 34.2925 15.3743 34.5563 16.2972L36.1128 21.7391L37.1412 21.7109L35.5923 16.2953C35.3253 15.3622 35.2 14.3941 35.2198 13.4176C35.2919 9.86116 37.2675 6.73188 40.136 5.63087C40.3712 5.54052 40.6109 5.46436 40.8529 5.40303L40.3407 5.41711H40.3406Z" fill="#0A0A0A"/>
<path d="M109.051 27.2141L107.56 26.9726L108.244 26.2891L109.735 26.5307L109.051 27.2141Z" fill="white"/>
<path d="M110.712 30.5993L109.221 30.3578L107.073 29.9844L108.564 30.2259L110.712 30.5993Z" fill="white"/>
<g clip-path="url(#clip0_1035_41847)">
<path d="M135.715 80.2801C135.806 79.8619 135.742 79.4188 135.615 79.0155C135.572 78.8795 135.523 78.7458 135.466 78.6149L129.413 64.6858C129.233 65.1189 127.142 66.0278 126.713 65.8593C126.768 65.9807 132.766 79.7998 132.821 79.9096C132.894 80.0638 132.978 80.2133 133.07 80.3573C133.664 81.4389 135.27 81.7761 135.715 80.2801Z" fill="#6817C5"/>
<path d="M133.741 81.1202C134.019 81.2874 134.342 81.3624 134.665 81.3347C135.192 81.2782 135.583 80.9096 135.765 80.2967C135.766 80.2954 135.766 80.2941 135.766 80.2928C135.849 79.911 135.815 79.4763 135.665 79.0013C135.622 78.8638 135.572 78.7287 135.514 78.5964L129.461 64.6665C129.457 64.657 129.451 64.649 129.442 64.6433C129.433 64.6377 129.423 64.6347 129.413 64.6348C129.402 64.6349 129.392 64.638 129.384 64.6438C129.375 64.6495 129.369 64.6577 129.365 64.6672C129.197 65.0698 127.13 65.9685 126.732 65.812C126.722 65.8082 126.712 65.8073 126.702 65.8096C126.691 65.8119 126.682 65.8171 126.675 65.8247C126.668 65.8323 126.663 65.8419 126.661 65.8522C126.659 65.8625 126.661 65.8731 126.665 65.8826C126.685 65.9268 127.503 67.8098 128.538 70.1938C130.41 74.5021 132.738 79.8638 132.773 79.9346C132.848 80.0906 132.932 80.2418 133.025 80.3876C133.193 80.6922 133.44 80.9454 133.741 81.1202ZM135.664 80.2685C135.494 80.8369 135.135 81.1784 134.654 81.23C134.072 81.2923 133.44 80.9236 133.116 80.3336C133.024 80.1904 132.941 80.0418 132.868 79.8886C132.828 79.8052 130.404 74.2257 128.635 70.1518C127.723 68.051 126.979 66.3394 126.801 65.9311C127.373 65.9693 129.039 65.2452 129.404 64.7987L135.418 78.6375C135.473 78.7664 135.522 78.898 135.565 79.0319C135.709 79.4896 135.742 79.9054 135.664 80.2685Z" fill="#111111"/>
<path d="M126.713 65.8589C126.657 65.7296 127.216 65.3622 127.961 65.0382C128.707 64.7143 129.357 64.5565 129.413 64.6858C129.469 64.8151 128.91 65.1825 128.165 65.5065C127.419 65.8304 126.769 65.9882 126.713 65.8589Z" fill="white"/>
<path d="M126.709 65.9281C126.749 65.9479 126.794 65.9573 126.839 65.9556C127.165 65.9603 127.985 65.6781 128.666 65.3266C128.983 65.1628 129.509 64.861 129.467 64.6803C129.453 64.6203 129.392 64.5887 129.287 64.5874C128.961 64.5827 128.141 64.8649 127.46 65.2164C127.143 65.3802 126.617 65.6819 126.659 65.8627C126.662 65.8765 126.668 65.8895 126.677 65.9008C126.686 65.912 126.697 65.9213 126.709 65.9281ZM129.363 64.7057C129.364 64.7061 129.365 64.7067 129.366 64.7073C129.367 64.7491 129.189 64.9382 128.618 65.2328C127.95 65.5777 127.152 65.8546 126.84 65.8501C126.775 65.8491 126.76 65.8355 126.76 65.8353C126.759 65.7935 126.938 65.6044 127.508 65.3098C128.177 64.9649 128.974 64.688 129.286 64.6925C129.312 64.6907 129.339 64.6952 129.363 64.7057Z" fill="#111111"/>
<path d="M122.998 57.3101C122.942 57.1808 123.501 56.8133 124.246 56.4894C124.992 56.1655 125.642 56.0077 125.698 56.137C125.754 56.2663 125.195 56.6337 124.45 56.9576C123.704 57.2816 123.054 57.4394 122.998 57.3101Z" fill="white"/>
<path d="M122.994 57.3792C123.034 57.399 123.079 57.4085 123.124 57.4068C123.45 57.4115 124.27 57.1293 124.951 56.7778C125.268 56.614 125.795 56.3123 125.752 56.1315C125.738 56.0715 125.678 56.0399 125.573 56.0386C125.246 56.0339 124.426 56.3161 123.745 56.6676C123.428 56.8314 122.902 57.1331 122.944 57.3139C122.947 57.3277 122.954 57.3407 122.962 57.3519C122.971 57.3632 122.982 57.3725 122.994 57.3792ZM125.648 56.1568C125.649 56.1573 125.65 56.1578 125.651 56.1585C125.652 56.2002 125.474 56.3894 124.903 56.6839C124.235 57.0288 123.437 57.3058 123.125 57.3013C123.06 57.3003 123.046 57.2867 123.045 57.2865C123.044 57.2448 123.223 57.0555 123.794 56.761C124.462 56.4161 125.259 56.1392 125.571 56.1436C125.598 56.1419 125.624 56.1464 125.648 56.1568Z" fill="#111111"/>
<path d="M129.393 64.7671C129.403 64.7562 129.41 64.7431 129.413 64.7288C129.417 64.7145 129.417 64.6995 129.413 64.6852L125.698 56.1361C125.691 56.5267 123.226 57.5714 122.998 57.3096L126.713 65.8587C126.725 65.8866 126.766 65.9024 126.84 65.9035C127.455 65.8653 128.921 65.2702 129.393 64.7671Z" fill="white"/>
<path d="M126.71 65.9309C126.75 65.9501 126.794 65.9594 126.839 65.9579C127.489 65.9177 128.963 65.3036 129.431 64.8047C129.433 64.8027 129.435 64.8005 129.436 64.7981C129.452 64.7802 129.462 64.7586 129.467 64.7354C129.471 64.7122 129.469 64.6883 129.462 64.6659L125.747 56.1167C125.742 56.1057 125.734 56.0967 125.723 56.0911C125.712 56.0855 125.7 56.0838 125.688 56.0861C125.676 56.0884 125.666 56.0947 125.658 56.1039C125.65 56.1131 125.646 56.1246 125.646 56.1366C125.642 56.317 124.835 56.7801 123.985 57.0896C123.319 57.3323 123.074 57.3182 123.038 57.2766C123.03 57.2671 123.018 57.2609 123.006 57.2591C122.993 57.2573 122.981 57.26 122.97 57.2667C122.959 57.2734 122.952 57.2837 122.948 57.2957C122.944 57.3077 122.945 57.3206 122.95 57.3322L126.665 65.8814C126.674 65.9025 126.69 65.9199 126.71 65.9309ZM129.351 64.7361C128.893 65.2198 127.464 65.8138 126.836 65.8526C126.775 65.8517 126.76 65.8379 126.76 65.8377L123.095 57.4015C123.31 57.4235 123.698 57.3064 124.021 57.1886C124.512 57.0098 125.462 56.5853 125.697 56.2679L129.365 64.7079C129.362 64.7179 129.357 64.7274 129.351 64.7361Z" fill="#111111"/>
<path d="M119.617 56.3397L118.193 56.2024C119.764 56.3538 121.398 56.0593 122.937 55.2581C127.508 52.8792 129.515 46.9327 127.419 41.9767C126.027 38.6886 123.181 36.6629 120.089 36.3648L121.513 36.5023C124.605 36.8004 127.451 38.826 128.842 42.1141C130.939 47.0699 128.931 53.0165 124.361 55.3955C122.821 56.1969 121.187 56.4912 119.617 56.3398" fill="white"/>
<path d="M118.167 56.2488C118.173 56.2525 118.181 56.2549 118.188 56.2556L119.612 56.3928C121.261 56.5454 122.92 56.2153 124.385 55.4428C128.973 53.0548 130.994 47.0668 128.89 42.0943C128.215 40.499 127.163 39.1335 125.847 38.1456C124.587 37.1936 123.089 36.6071 121.518 36.4506L120.094 36.3133C120.087 36.3127 120.08 36.3134 120.074 36.3154C120.067 36.3174 120.061 36.3207 120.055 36.3251C120.05 36.3295 120.046 36.3349 120.042 36.341C120.039 36.3472 120.037 36.3538 120.037 36.3607C120.036 36.3676 120.037 36.3746 120.039 36.3812C120.041 36.3878 120.044 36.3939 120.048 36.3993C120.053 36.4046 120.058 36.409 120.064 36.4123C120.07 36.4155 120.077 36.4175 120.084 36.4182C121.636 36.5727 123.116 37.1521 124.36 38.0926C125.661 39.0693 126.702 40.4199 127.37 41.998C129.453 46.921 127.453 52.8487 122.913 55.2122C121.465 55.9752 119.827 56.3013 118.198 56.1507C118.186 56.1496 118.174 56.1526 118.164 56.1592C118.154 56.1658 118.146 56.1757 118.143 56.1871C118.139 56.1986 118.14 56.2109 118.144 56.2222C118.148 56.2334 118.156 56.2428 118.167 56.2488ZM124.908 37.6515C125.211 37.8265 125.504 38.0197 125.784 38.2299C127.085 39.2067 128.126 40.5571 128.793 42.1353C130.876 47.0583 128.877 52.9861 124.337 55.3495C122.889 56.1126 121.251 56.4386 119.622 56.288L119.509 56.2772C120.715 56.1978 121.891 55.8668 122.962 55.3056C127.55 52.9174 129.571 46.9296 127.467 41.9571C126.792 40.3617 125.739 38.9963 124.423 38.0084C123.521 37.3285 122.494 36.8315 121.401 36.5451L121.507 36.5554C122.706 36.6733 123.866 37.0471 124.908 37.6515Z" fill="#111111"/>
<path d="M119.617 56.3397L118.193 56.2024C119.764 56.3538 121.398 56.0593 122.937 55.2581C127.508 52.8792 129.515 46.9327 127.419 41.9767C126.027 38.6886 123.181 36.6629 120.089 36.3648L121.513 36.5023C124.605 36.8004 127.451 38.826 128.842 42.1141C130.939 47.0699 128.931 53.0165 124.361 55.3955C122.821 56.1969 121.187 56.4912 119.617 56.3398" fill="white"/>
<path d="M118.167 56.2488C118.173 56.2525 118.181 56.2549 118.188 56.2556L119.612 56.3928C121.261 56.5454 122.92 56.2153 124.385 55.4428C128.973 53.0548 130.994 47.0668 128.89 42.0943C128.215 40.499 127.163 39.1335 125.847 38.1456C124.587 37.1936 123.089 36.6071 121.518 36.4506L120.094 36.3133C120.087 36.3127 120.08 36.3134 120.074 36.3154C120.067 36.3174 120.061 36.3207 120.055 36.3251C120.05 36.3295 120.046 36.3349 120.042 36.341C120.039 36.3472 120.037 36.3538 120.037 36.3607C120.036 36.3676 120.037 36.3746 120.039 36.3812C120.041 36.3878 120.044 36.3939 120.048 36.3993C120.053 36.4046 120.058 36.409 120.064 36.4123C120.07 36.4155 120.077 36.4175 120.084 36.4182C121.636 36.5727 123.116 37.1521 124.36 38.0926C125.661 39.0693 126.702 40.4199 127.37 41.998C129.453 46.921 127.453 52.8487 122.913 55.2122C121.465 55.9752 119.827 56.3013 118.198 56.1507C118.186 56.1496 118.174 56.1526 118.164 56.1592C118.154 56.1658 118.146 56.1757 118.143 56.1871C118.139 56.1986 118.14 56.2109 118.144 56.2222C118.148 56.2334 118.156 56.2428 118.167 56.2488ZM124.908 37.6515C125.211 37.8265 125.504 38.0197 125.784 38.2299C127.085 39.2067 128.126 40.5571 128.793 42.1353C130.876 47.0583 128.877 52.9861 124.337 55.3495C122.889 56.1126 121.251 56.4386 119.622 56.288L119.509 56.2772C120.715 56.1978 121.891 55.8668 122.962 55.3056C127.55 52.9174 129.571 46.9296 127.467 41.9571C126.792 40.3617 125.739 38.9963 124.423 38.0084C123.521 37.3285 122.494 36.8315 121.401 36.5451L121.507 36.5554C122.706 36.6733 123.866 37.0471 124.908 37.6515Z" fill="#111111"/>
<path d="M128.842 42.1141C130.939 47.0699 128.931 53.0166 124.361 55.3955C119.79 57.7744 114.386 55.6855 112.29 50.7295C110.192 45.7708 112.196 39.8255 116.767 37.4467C121.337 35.0679 126.744 37.1553 128.842 42.1141Z" fill="white"/>
<path d="M116.153 55.2764C116.604 55.5366 117.077 55.7561 117.567 55.9322C119.808 56.7383 122.229 56.5641 124.385 55.4419C128.973 53.0539 130.994 47.0659 128.89 42.0934C127.839 39.6083 125.947 37.7671 123.563 36.9097C121.321 36.1033 118.899 36.2774 116.743 37.4C112.156 39.7873 110.137 45.776 112.241 50.75C113.075 52.7199 114.437 54.2852 116.153 55.2764ZM128.793 42.1343C130.876 47.0573 128.877 52.985 124.337 55.3485C122.207 56.4569 119.815 56.6291 117.603 55.8331C115.247 54.9857 113.378 53.1659 112.338 50.7088C110.254 45.7842 112.252 39.8558 116.791 37.4932C118.921 36.3844 121.314 36.2123 123.527 37.0086C125.883 37.856 127.753 39.6766 128.793 42.1343Z" fill="#111111"/>
<path d="M119.423 58.3793L117.999 58.242C114.271 57.8825 110.84 55.44 109.163 51.478C106.634 45.5008 109.052 38.3303 114.562 35.4627C116.419 34.4962 118.39 34.1411 120.284 34.3237L121.708 34.461C119.813 34.2784 117.842 34.6334 115.985 35.6C110.476 38.4677 108.058 45.6382 110.587 51.6154C112.263 55.5773 115.694 58.0198 119.423 58.3793Z" fill="url(#paint2_linear_1035_41847)"/>
<path d="M113.847 56.9573C115.118 57.6944 116.532 58.1502 117.994 58.2941L119.418 58.4313C119.424 58.432 119.431 58.4314 119.438 58.4294C119.445 58.4274 119.451 58.4241 119.456 58.4197C119.462 58.4153 119.466 58.4099 119.47 58.4038C119.473 58.3976 119.475 58.3909 119.475 58.384C119.476 58.3771 119.475 58.3701 119.473 58.3634C119.471 58.3568 119.468 58.3506 119.464 58.3453C119.459 58.3399 119.454 58.3355 119.447 58.3323C119.441 58.3291 119.435 58.3271 119.428 58.3265C117.554 58.1398 115.769 57.4406 114.267 56.3057C112.697 55.1272 111.441 53.498 110.635 51.5944C108.121 45.6514 110.532 38.4973 116.01 35.6461C117.794 34.7177 119.762 34.3259 121.702 34.5129C121.716 34.5142 121.73 34.51 121.741 34.5011C121.752 34.4922 121.759 34.4794 121.76 34.4655C121.761 34.4516 121.757 34.4378 121.748 34.427C121.739 34.4162 121.726 34.4094 121.713 34.4081L120.289 34.2708C118.328 34.0817 116.339 34.4776 114.538 35.4154C111.861 36.8088 109.822 39.2491 108.798 42.2869C107.774 45.3247 107.887 48.5952 109.115 51.4979C109.928 53.4187 111.195 55.063 112.78 56.2524C113.121 56.5086 113.478 56.7439 113.847 56.9573ZM117.982 58.1868C116.117 57.9966 114.34 57.2983 112.844 56.168C111.273 54.9894 110.017 53.3602 109.212 51.4566C106.698 45.5139 109.109 38.3595 114.587 35.5084C116.366 34.5824 118.328 34.1902 120.264 34.3737C118.761 34.4514 117.294 34.8535 115.961 35.5522C113.285 36.9456 111.246 39.3859 110.222 42.4238C109.198 45.4617 109.311 48.7323 110.539 51.6349C111.351 53.5559 112.619 55.2 114.204 56.3897C115.329 57.2374 116.615 57.8487 117.982 58.1868Z" fill="#111111"/>
<path d="M115.986 35.5993C110.476 38.467 108.058 45.6375 110.587 51.6147C113.115 57.589 119.633 60.1083 125.142 57.2407C130.654 54.3716 133.073 47.2011 130.545 41.2267C128.016 35.2495 121.498 32.7302 115.986 35.5993ZM112.29 50.7285C110.192 45.7698 112.196 39.8245 116.767 37.4457C121.337 35.0668 126.744 37.1543 128.842 42.113C130.939 47.0689 128.931 53.0155 124.361 55.3945C119.79 57.7735 114.386 55.6845 112.29 50.7285Z" fill="#C3A2E8"/>
<path d="M115.269 57.0967C115.806 57.407 116.37 57.6687 116.954 57.8786C119.654 58.8496 122.57 58.6401 125.166 57.2887C127.844 55.8949 129.883 53.4544 130.908 50.4164C131.932 47.3794 131.821 44.1092 130.593 41.2074C129.98 39.7355 129.072 38.405 127.924 37.298C126.853 36.2642 125.576 35.4685 124.176 34.963C121.476 33.9919 118.559 34.2018 115.961 35.5538C113.284 36.9471 111.246 39.3875 110.222 42.4253C109.198 45.4632 109.31 48.7339 110.538 51.6365C111.151 53.1078 112.059 54.4378 113.207 55.5442C113.829 56.1426 114.521 56.6639 115.269 57.0967ZM125.808 35.8363C126.549 36.265 127.235 36.7813 127.851 37.3741C128.988 38.4712 129.889 39.7899 130.496 41.2487C133.01 47.1898 130.597 54.3434 125.118 57.1953C122.548 58.533 119.661 58.7406 116.99 57.7796C115.604 57.2792 114.34 56.4916 113.279 55.4684C112.142 54.3719 111.242 53.0538 110.635 51.5957C108.121 45.6527 110.532 38.4986 116.01 35.6474C118.581 34.309 121.468 34.1013 124.14 35.0623C124.718 35.2701 125.276 35.5291 125.808 35.8363ZM116.154 55.277C116.604 55.5372 117.077 55.7567 117.567 55.9328C119.808 56.7389 122.229 56.5648 124.385 55.4425C128.973 53.0545 130.994 47.0665 128.891 42.094C127.839 39.6089 125.947 37.7678 123.563 36.9103C121.322 36.1039 118.899 36.278 116.743 37.4006C112.156 39.7879 110.137 45.7766 112.241 50.7506C113.075 52.7205 114.437 54.2858 116.154 55.277ZM124.924 37.6572C126.622 38.6373 127.969 40.1856 128.793 42.1349C130.876 47.0579 128.877 52.9857 124.337 55.349C122.207 56.4575 119.815 56.6296 117.603 55.8337C115.247 54.9863 113.378 53.1665 112.338 50.7094C110.254 45.7848 112.252 39.8564 116.791 37.4938C118.921 36.385 121.314 36.2129 123.527 37.0092C124.011 37.1832 124.479 37.4 124.924 37.6571L124.924 37.6572Z" fill="#111111"/>
</g>
<defs>
<linearGradient id="paint0_linear_1035_41847" x1="99.4712" y1="16.8622" x2="96.0928" y2="75.2865" gradientUnits="userSpaceOnUse">
<stop stop-color="#C5B9E0"/>
<stop offset="0.265" stop-color="#9E8ACB"/>
<stop offset="0.447" stop-color="#775BB6"/>
<stop offset="0.526" stop-color="#6344AB"/>
<stop offset="0.642" stop-color="#210B56"/>
<stop offset="0.752" stop-color="#210B56"/>
<stop offset="0.851" stop-color="#0F1421"/>
<stop offset="0.937" stop-color="#0B0C10"/>
<stop offset="1" stop-color="#0A0A0A"/>
</linearGradient>
<linearGradient id="paint1_linear_1035_41847" x1="14.2182" y1="78.2072" x2="108.104" y2="78.2072" gradientUnits="userSpaceOnUse">
<stop stop-color="#C5B9E0"/>
<stop offset="0.035" stop-color="#C5B9E0"/>
<stop offset="0.354" stop-color="#9E8ACB"/>
<stop offset="0.5" stop-color="#8645D1"/>
<stop offset="0.618" stop-color="#502CA1"/>
<stop offset="0.801" stop-color="#3C1596"/>
<stop offset="0.933" stop-color="#0E111B"/>
<stop offset="1" stop-color="#0A0A0A"/>
</linearGradient>
<linearGradient id="paint2_linear_1035_41847" x1="115.982" y1="35.2175" x2="113.296" y2="55.8094" gradientUnits="userSpaceOnUse">
<stop offset="0.326" stop-color="#6817C5"/>
<stop offset="0.769" stop-color="#C3A2E8"/>
<stop offset="1" stop-color="#6817C5"/>
</linearGradient>
<clipPath id="clip0_1035_41847">
<rect width="42.6667" height="35.3539" fill="white" transform="matrix(-0.866025 -0.5 -0.5 0.866025 152.627 51.1992)"/>
</clipPath>
</defs>
</svg>
