<svg width="78" height="25" viewBox="0 0 78 25" fill="none" xmlns="http://www.w3.org/2000/svg">
<g clip-path="url(#clip0_977_17779)">
<path d="M12.5 25C19.4036 25 25 19.4036 25 12.5C25 5.59642 19.4036 0 12.5 0C5.59642 0 0 5.59642 0 12.5C0 19.4036 5.59642 25 12.5 25Z" fill="#6817C5"/>
<path d="M17.1154 12.1977L17.1154 12.198C17.0679 14.913 15.3066 17.4416 12.8917 18.238L12.8916 18.2381C12.6422 18.3204 12.3726 18.3204 12.1232 18.2381L12.1231 18.238C9.67437 17.4305 7.89844 14.8422 7.89844 12.0862V8.89712C7.89885 8.89686 7.89927 8.89659 7.89968 8.89633C8.04319 8.80507 8.24454 8.67875 8.47546 8.5388C8.94182 8.25614 9.51204 7.92809 9.96824 7.71728L9.96825 7.71727C10.4559 7.49192 11.1194 7.25906 11.6741 7.07948C11.9487 6.99056 12.1918 6.91626 12.3661 6.86424C12.4231 6.8472 12.4728 6.83258 12.5136 6.82063C12.9385 6.95421 14.15 7.34622 14.9574 7.71759L14.9574 7.71759C15.4203 7.9305 16.0163 8.25937 16.5056 8.54102C16.7483 8.68069 16.9612 8.80666 17.1133 8.89768C17.1144 8.89832 17.1155 8.89895 17.1165 8.89959V12.0793C17.1165 12.1184 17.1161 12.1578 17.1154 12.1977Z" stroke="#FBF9FF" fill="#6817C5"/>
</g>
<path d="M33 12C32.7239 12 32.5 12.2239 32.5 12.5C32.5 12.7761 32.7239 13 33 13V12ZM45.3536 12.8536C45.5488 12.6583 45.5488 12.3417 45.3536 12.1464L42.1716 8.96447C41.9763 8.7692 41.6597 8.7692 41.4645 8.96447C41.2692 9.15973 41.2692 9.47631 41.4645 9.67157L44.2929 12.5L41.4645 15.3284C41.2692 15.5237 41.2692 15.8403 41.4645 16.0355C41.6597 16.2308 41.9763 16.2308 42.1716 16.0355L45.3536 12.8536ZM33 13H45V12H33V13Z" fill="#FBF9FF"/>
<g clip-path="url(#clip1_977_17779)">
<path d="M65.5 25C72.4036 25 78 19.4036 78 12.5C78 5.59642 72.4036 0 65.5 0C58.5964 0 53 5.59642 53 12.5C53 19.4036 58.5964 25 65.5 25Z" fill="#6817C5"/>
<path fill-rule="evenodd" clip-rule="evenodd" d="M70.5757 12.1463C70.5765 12.1039 70.5769 12.0614 70.5769 12.0189V8.55991C70.5769 8.55991 69.0976 7.65255 68.1287 7.20689C67.1599 6.76123 65.6535 6.29513 65.4872 6.24414V6.25326L65.472 6.24634C65.472 6.24634 63.7569 6.73024 62.7253 7.20694C61.7603 7.65288 60.3672 8.56672 60.3672 8.56672V12.0258C60.3672 14.9745 62.261 17.7663 64.9315 18.6471C65.2824 18.7629 65.6616 18.7629 66.0125 18.6471C68.6465 17.7784 70.5249 15.0502 70.5757 12.1463Z" fill="#FBF9FF"/>
<path fill-rule="evenodd" clip-rule="evenodd" d="M60.3674 8.5592L60.3672 8.55931V8.82783C61.9335 11.7655 65.8246 15.6751 68.6082 16.9658C69.1843 16.3549 69.6554 15.6327 69.9921 14.8454C67.7857 14.5277 62.4413 11.0776 60.5063 8.47656C60.4179 8.53327 60.3674 8.56634 60.3674 8.56634V8.5592Z" fill="#D9D9D9"/>
</g>
<defs>
<clipPath id="clip0_977_17779">
<rect width="25" height="25" fill="white"/>
</clipPath>
<clipPath id="clip1_977_17779">
<rect width="25" height="25" fill="white" transform="translate(53)"/>
</clipPath>
</defs>
</svg>
