<svg width="20" height="20" viewBox="0 0 20 20" fill="none" xmlns="http://www.w3.org/2000/svg">
<path d="M10 20C15.5228 20 20 15.5228 20 10C20 4.47715 15.5228 0 10 0C4.47715 0 0 4.47715 0 10C0 15.5228 4.47715 20 10 20Z" fill="#0083E3"/>
<path d="M7.7944 14.8038L3.32645 10.4454C3.26259 10.3832 3.21192 10.3093 3.17736 10.2279C3.14279 10.1466 3.125 10.0593 3.125 9.97128C3.125 9.8832 3.14279 9.796 3.17736 9.71464C3.21192 9.63328 3.26259 9.55936 3.32645 9.4971L4.29865 8.54876C4.36247 8.48646 4.43825 8.43704 4.52165 8.40332C4.60506 8.3696 4.69446 8.35225 4.78475 8.35225C4.87503 8.35225 4.96444 8.3696 5.04784 8.40332C5.13125 8.43704 5.20703 8.48646 5.27085 8.54876L8.2802 11.4849L14.7267 5.19651C14.7905 5.13421 14.8663 5.08479 14.9497 5.05107C15.0331 5.01736 15.1225 5 15.2128 5C15.3031 5 15.3925 5.01736 15.4759 5.05107C15.5593 5.08479 15.6351 5.13421 15.6989 5.19651L16.6735 6.14486C16.7374 6.20711 16.7881 6.28103 16.8226 6.36239C16.8572 6.44375 16.875 6.53096 16.875 6.61903C16.875 6.7071 16.8572 6.79431 16.8226 6.87567C16.7881 6.95703 16.7374 7.03095 16.6735 7.0932L8.76599 14.8038C8.63713 14.9294 8.46239 15 8.2802 15C8.098 15 7.92327 14.9294 7.7944 14.8038Z" fill="white"/>
</svg>
