<svg width="120" height="120" viewBox="0 0 120 120" fill="none" xmlns="http://www.w3.org/2000/svg">
<g clip-path="url(#clip0_10497_102427)">
<path d="M46.9373 25.0675L40.3907 14.5302L39.1124 16.2452L45.6589 26.7825C45.6389 26.8303 45.4673 27.2399 45.0449 27.8067L46.3231 26.0917C46.7456 25.5248 46.9172 25.1154 46.9373 25.0675Z" fill="#6817C5"/>
<path d="M45.0026 27.9013C44.988 27.8949 44.9751 27.8854 44.9648 27.8734C44.9544 27.8613 44.9469 27.8471 44.9429 27.8318C44.9388 27.8164 44.9382 27.8004 44.9412 27.7848C44.9442 27.7692 44.9507 27.7545 44.9602 27.7418L44.9614 27.74C45.2994 27.2863 45.4734 26.9375 45.5401 26.789L39.0226 16.2988C39.0114 16.2808 39.0059 16.2599 39.0068 16.2388C39.0077 16.2176 39.015 16.1972 39.0277 16.1803L40.306 14.4653C40.3163 14.4515 40.3297 14.4405 40.3452 14.4331C40.3607 14.4258 40.3777 14.4223 40.3949 14.423C40.412 14.4238 40.4287 14.4287 40.4435 14.4373C40.4583 14.4459 40.4708 14.4581 40.4798 14.4726L47.0264 25.0099C47.0353 25.0242 47.0406 25.0404 47.0419 25.0571C47.0433 25.0739 47.0406 25.0907 47.0341 25.1062C46.9881 25.2162 46.8066 25.6169 46.4073 26.1527L45.129 27.8677C45.1148 27.8867 45.0946 27.9004 45.0716 27.9065C45.0487 27.9126 45.0244 27.9107 45.0026 27.9013ZM39.2394 16.2486L45.7346 26.7029L46.2386 26.0267C46.5774 25.5722 46.7517 25.2227 46.8185 25.0741L40.3825 14.7149L39.2394 16.2486Z" fill="#111111"/>
<path d="M42.9611 37.9219L41.6828 39.6369C41.3009 39.6088 34.046 39.0766 30.7387 33.7531C27.324 28.2569 26.6346 24.1837 28.5858 21.5657L29.8641 19.8507C27.9129 22.4687 28.6023 26.542 32.017 32.0382C35.3243 37.3616 42.5792 37.894 42.961 37.922" fill="#6817C5"/>
<path d="M36.1449 38.3414C34.1476 37.47 32.0483 36.0674 30.6486 33.8144C27.2338 28.3181 26.5111 24.1777 28.5008 21.5085L29.7791 19.7935C29.7958 19.7711 29.8207 19.7563 29.8484 19.7522C29.876 19.7482 29.9041 19.7553 29.9265 19.772C29.9489 19.7887 29.9637 19.8136 29.9677 19.8413C29.9718 19.8689 29.9646 19.897 29.9479 19.9194C28.0153 22.5123 28.7413 26.573 32.1059 31.9883C35.2935 37.1188 42.1921 37.7658 42.9683 37.8226C42.9871 37.824 43.0052 37.8304 43.0207 37.8411C43.0362 37.8519 43.0485 37.8667 43.0564 37.8838C43.0642 37.901 43.0673 37.92 43.0652 37.9388C43.0632 37.9576 43.0562 37.9755 43.0449 37.9906L41.7666 39.7055C41.7451 39.7343 41.7103 39.7503 41.6745 39.7476C41.2271 39.7149 38.7744 39.4886 36.145 38.3414L36.1449 38.3414ZM29.0607 21.1095L28.6695 21.6344C26.7369 24.2272 27.4629 28.2879 30.8275 33.7032C33.9473 38.7249 40.6232 39.4512 41.6324 39.5331L42.7628 38.0166C41.3907 37.8866 34.9871 37.0252 31.9269 32.0994C29.0302 27.4371 28.0708 23.7503 29.0607 21.1095Z" fill="#111111"/>
<path d="M85.493 95.3202L84.2147 97.0352C84.8035 96.2453 84.8394 95.0959 84.2064 94.077C83.34 92.6826 81.5494 92.0614 80.2071 92.6888C79.8452 92.858 79.5527 93.1005 79.3355 93.3919L80.6138 91.6769C80.831 91.3856 81.1235 91.143 81.4854 90.9738C82.8276 90.3463 84.6183 90.9676 85.4847 92.362C86.1176 93.3809 86.0818 94.5302 85.493 95.3202Z" fill="#6817C5"/>
<path d="M84.1732 97.1355C84.1587 97.1291 84.1458 97.1196 84.1354 97.1076C84.1251 97.0955 84.1176 97.0813 84.1135 97.066C84.1094 97.0506 84.1089 97.0346 84.1119 97.019C84.1149 97.0034 84.1213 96.9887 84.1308 96.9759L84.1314 96.9751C84.7109 96.1968 84.7055 95.0827 84.1175 94.1363C83.2798 92.7881 81.5458 92.1833 80.2522 92.788C79.9144 92.946 79.6345 93.1717 79.4205 93.4587C79.4038 93.4811 79.3789 93.496 79.3512 93.5C79.3236 93.5041 79.2955 93.4969 79.2731 93.4802C79.2507 93.4635 79.2359 93.4386 79.2319 93.411C79.2279 93.3833 79.235 93.3552 79.2517 93.3328L80.53 91.6178C80.765 91.3025 81.0717 91.055 81.4413 90.8822C82.8284 90.2339 84.6826 90.8745 85.5746 92.3101C86.2088 93.3309 86.2101 94.5386 85.5779 95.3869L84.3008 97.1004L84.2996 97.102C84.2854 97.121 84.2652 97.1347 84.2422 97.1408C84.2193 97.1469 84.195 97.1449 84.1732 97.1355ZM82.677 92.6317C83.3223 92.9132 83.9029 93.3917 84.2964 94.0251C84.728 94.7198 84.8665 95.5012 84.7117 96.1967L85.4092 95.2609C85.9893 94.4826 85.984 93.3681 85.3958 92.4213C84.5582 91.0731 82.8241 90.4682 81.5305 91.073C81.1927 91.2309 80.9129 91.4566 80.6988 91.7437L80.0009 92.68C80.0535 92.6507 80.1076 92.6231 80.1631 92.5971C80.9382 92.2347 81.8596 92.275 82.677 92.6317Z" fill="#111111"/>
<path d="M85.3014 97.1209C83.3729 98.0225 80.8025 97.1482 79.5317 95.1603L42.961 37.9287L41.6827 39.6436L78.2534 96.8753C79.5242 98.8632 82.0947 99.7373 84.0232 98.8358C84.5472 98.5909 84.9712 98.2392 85.2861 97.8166L86.5644 96.1017C86.2495 96.5243 85.8255 96.8759 85.3014 97.1209Z" fill="#6817C5"/>
<path d="M80.4562 98.8737C79.5473 98.4771 78.7272 97.8103 78.1645 96.93L41.5937 39.6984C41.5821 39.6804 41.5764 39.6593 41.5771 39.6379C41.5779 39.6165 41.5852 39.5958 41.598 39.5786L42.8763 37.8637C42.8865 37.85 42.8998 37.8391 42.9152 37.8317C42.9306 37.8244 42.9475 37.8208 42.9645 37.8214C42.9815 37.822 42.9981 37.8268 43.0129 37.8352C43.0277 37.8436 43.0402 37.8555 43.0494 37.8699L79.6201 95.1015C80.8567 97.0361 83.3852 97.8983 85.2566 97.0234C85.7531 96.7914 86.1645 96.4594 86.4796 96.0368C86.4879 96.0257 86.4983 96.0163 86.5101 96.0092C86.522 96.0022 86.5352 95.9975 86.5489 95.9955C86.5626 95.9935 86.5765 95.9942 86.5899 95.9976C86.6033 96.001 86.6159 96.007 86.627 96.0153C86.6381 96.0235 86.6474 96.0339 86.6545 96.0458C86.6616 96.0577 86.6663 96.0708 86.6683 96.0845C86.6702 96.0982 86.6695 96.1122 86.6661 96.1256C86.6627 96.139 86.6567 96.1516 86.6484 96.1627L85.3701 97.8777C85.0342 98.3284 84.5959 98.6822 84.0673 98.9292C82.9594 99.4472 81.6332 99.3873 80.4561 98.8737L80.4562 98.8737ZM41.8103 39.6462L78.342 96.8165C79.5785 98.7511 82.107 99.6132 83.9784 98.7384C84.475 98.5064 84.8865 98.1744 85.2016 97.7517L85.7819 96.973C85.6423 97.0634 85.4966 97.1439 85.3459 97.2142C83.3823 98.1319 80.7342 97.2352 79.4428 95.2151L42.954 38.1118L41.8103 39.6462Z" fill="#111111"/>
<path d="M40.3897 14.5331C44.325 14.0143 48.2083 16.7285 51.9383 22.7322C55.2456 28.0556 51.7687 33.6045 51.5858 33.8966L86.5853 91.8627C87.8008 93.8765 87.2289 96.2195 85.3014 97.1205C83.3729 98.022 80.8024 97.1479 79.5316 95.16L42.9609 37.9283C42.579 37.9003 35.3241 37.3681 32.0168 32.0446C28.2867 26.0409 27.8085 21.735 30.472 19.1692L37.0185 29.7065C37.1548 29.7346 39.7434 30.269 42.862 28.8112C45.9798 27.3538 46.8885 25.1845 46.9363 25.0704L40.3897 14.5331ZM84.6235 96.0294C85.9657 95.4019 86.3523 93.7631 85.4859 92.3687C84.6196 90.9743 82.8289 90.3531 81.4866 90.9805C80.1435 91.6083 79.7569 93.2473 80.6233 94.6416C81.4896 96.0361 83.2803 96.6572 84.6235 96.0294Z" fill="#D2B9EE"/>
<path d="M81.7348 97.1579C80.8258 96.7613 80.0057 96.0945 79.4431 95.2142L42.9006 38.0268C41.896 37.9458 35.1072 37.2153 31.9276 32.0976C28.1933 26.0873 27.6791 21.7111 30.3991 19.0907C30.4105 19.0799 30.4241 19.0717 30.439 19.0667C30.4539 19.0618 30.4697 19.0602 30.4852 19.0622C30.5008 19.0641 30.5158 19.0695 30.529 19.078C30.5422 19.0864 30.5534 19.0977 30.5616 19.1111L37.0842 29.6095C37.5177 29.6915 39.9384 30.0593 42.8177 28.7134C45.6599 27.3848 46.6427 25.4657 46.8181 25.0766L40.3006 14.5861C40.2912 14.5712 40.2858 14.5541 40.2848 14.5366C40.2838 14.519 40.2872 14.5014 40.2947 14.4855C40.3023 14.4695 40.3137 14.4558 40.3279 14.4454C40.3422 14.435 40.3588 14.4284 40.3762 14.4261C44.3797 13.8983 48.2999 16.6735 52.028 22.6741C55.1938 27.7696 52.2129 33.0702 51.7094 33.8948L86.6757 91.8059C87.3119 92.8598 87.4929 94.0683 87.1724 95.1218C86.8892 96.0526 86.2408 96.7954 85.3462 97.2136C84.2381 97.7315 82.912 97.6715 81.7348 97.1581L81.7348 97.1579ZM43.0032 37.8292C43.0221 37.8375 43.0384 37.8513 43.0499 37.869L79.6207 95.1007C80.8571 97.0354 83.3858 97.8973 85.2572 97.0226C86.097 96.6301 86.7056 95.9332 86.971 95.0605C87.2741 94.0641 87.1007 92.9174 86.4955 91.9148L51.4958 33.9486C51.4857 33.9319 51.4805 33.9127 51.4807 33.8932C51.4808 33.8737 51.4864 33.8547 51.4968 33.8381C51.8678 33.246 55.0299 27.9051 51.8491 22.7853C48.2195 16.9433 44.4247 14.1955 40.5667 14.6154L47.026 25.0122C47.0349 25.0265 47.0403 25.0426 47.0416 25.0594C47.0429 25.0762 47.0402 25.093 47.0338 25.1085C46.9344 25.346 45.9739 27.4704 42.9068 28.9041C39.8453 30.3352 37.28 29.8653 36.9975 29.807C36.9835 29.8041 36.9703 29.7984 36.9586 29.7903C36.9468 29.7821 36.9369 29.7716 36.9294 29.7595L30.4523 19.3341C27.9195 21.8868 28.4756 26.1424 32.1066 31.9864C35.2941 37.117 42.1927 37.7639 42.9689 37.8207C42.9808 37.8216 42.9924 37.8244 43.0034 37.8292L43.0032 37.8292ZM82.1533 96.0878C81.5081 95.8063 80.9276 95.328 80.5342 94.6947C80.0754 93.9563 79.9392 93.1053 80.1607 92.36C80.3562 91.7022 80.8113 91.1775 81.4423 90.8824C82.8294 90.2342 84.6836 90.8747 85.5756 92.3103C86.0345 93.0489 86.1707 93.9 85.9492 94.6454C85.7538 95.3029 85.2989 95.8274 84.6683 96.1222C83.8928 96.4847 82.971 96.4446 82.1533 96.0878ZM83.8709 91.1076C83.1083 90.7749 82.2518 90.7367 81.5315 91.0734C80.9558 91.3424 80.5405 91.8208 80.3625 92.4199C80.1582 93.1076 80.2858 93.8962 80.713 94.5835C81.5508 95.9317 83.285 96.5363 84.5791 95.9314C85.1544 95.6625 85.5693 95.1846 85.7473 94.5856C85.9516 93.8979 85.8239 93.1092 85.3968 92.4217C85.0256 91.8242 84.4779 91.3725 83.8709 91.1076Z" fill="#111111"/>
</g>
<g clip-path="url(#clip1_10497_102427)">
<path d="M107.907 78.5479L100.976 29.5675C100.946 29.3532 100.886 29.1445 100.796 28.9477L99.3948 25.8828C99.4843 26.0796 99.5448 26.2884 99.5744 26.5026L106.506 75.4831C106.767 77.3263 104.787 78.8853 102.942 78.289L53.9373 62.4513C53.2599 62.2323 52.7873 61.7828 52.5391 61.2398L53.9405 64.3047C54.1888 64.8476 54.6613 65.2972 55.3387 65.5161L104.343 81.3538C106.189 81.9501 108.168 80.3911 107.907 78.5479Z" fill="#6817C5"/>
<path d="M105.171 81.5972C104.882 81.5972 104.592 81.5526 104.31 81.4613L55.305 65.6236C54.6351 65.4071 54.1141 64.955 53.8377 64.3506L52.4362 61.2857C52.4235 61.2579 52.4224 61.2263 52.433 61.1977C52.4436 61.1691 52.4651 61.1458 52.4929 61.1331C52.5206 61.1204 52.5522 61.1193 52.5808 61.1299C52.6093 61.1405 52.6325 61.1621 52.6452 61.1898C52.8944 61.7349 53.3665 62.1432 53.9743 62.3397L102.979 78.1775C103.844 78.4571 104.792 78.2598 105.516 77.6499C106.178 77.0923 106.505 76.2877 106.394 75.4973L99.4621 26.5167C99.4342 26.3145 99.3773 26.1174 99.2932 25.9315L99.2918 25.9287C99.2792 25.9009 99.2781 25.8693 99.2887 25.8407C99.2993 25.8121 99.3208 25.7889 99.3485 25.7761C99.3622 25.7698 99.377 25.7663 99.3921 25.7657C99.4072 25.7651 99.4222 25.7676 99.4363 25.7728C99.4505 25.7781 99.4634 25.7861 99.4745 25.7964C99.4855 25.8067 99.4944 25.8191 99.5007 25.8328L100.902 28.8978C100.996 29.1047 101.06 29.3242 101.091 29.5495L108.022 78.5298C108.146 79.3994 107.788 80.2819 107.065 80.8909C106.516 81.3539 105.847 81.5972 105.171 81.5972ZM53.0618 62.1011L54.0466 64.2548C54.2958 64.7998 54.7679 65.2082 55.3757 65.4047L104.381 81.2424C105.245 81.522 106.194 81.3248 106.918 80.7149C107.579 80.1573 107.907 79.3525 107.795 78.5621L100.864 29.5817C100.836 29.3784 100.778 29.1804 100.693 28.9936L99.7542 26.9395L106.621 75.4651C106.744 76.3345 106.387 77.217 105.664 77.826C104.88 78.4874 103.85 78.7006 102.909 78.3965L53.9037 62.5587C53.5863 62.4561 53.3023 62.3006 53.0618 62.1011Z" fill="#111111"/>
<path d="M106.505 75.4848C106.767 77.328 104.787 78.8871 102.942 78.2907L53.9371 62.4531C52.0935 61.8572 51.7669 59.5529 53.3507 58.306L95.4241 25.163C96.216 24.5394 97.1885 24.4142 97.9956 24.675C98.8026 24.9357 99.4442 25.5828 99.5742 26.5042L106.505 75.4847V75.4848Z" fill="white"/>
<path d="M103.771 78.5346C103.482 78.5346 103.192 78.49 102.909 78.3988L53.9047 62.561C53.0308 62.2786 52.4165 61.5919 52.2614 60.7241C52.094 59.7876 52.4757 58.8492 53.2824 58.214L95.3558 25.0712C96.1295 24.4621 97.1302 24.2723 98.0337 24.5641C98.9428 24.858 99.5623 25.5767 99.6906 26.4868L106.622 75.4672C106.745 76.3367 106.388 77.2192 105.665 77.8282C105.116 78.2912 104.446 78.5347 103.771 78.5347L103.771 78.5346ZM97.1776 24.6597C96.5843 24.6597 95.9914 24.8634 95.4979 25.252L53.4244 58.3948C52.6856 58.9766 52.3354 59.8322 52.4875 60.6836C52.6274 61.4663 53.1835 62.0863 53.9751 62.3421L102.98 78.1799C103.845 78.4594 104.793 78.2622 105.517 77.6522C106.179 77.0946 106.506 76.29 106.394 75.4996C106.282 74.7092 99.463 26.519 99.463 26.519C99.3474 25.6981 98.7866 25.0492 97.9629 24.783C97.7092 24.7011 97.4443 24.6595 97.1776 24.6597Z" fill="#111111"/>
<path d="M94.9693 38.7495L86.5251 57.2442L82.1484 55.8297L89.701 37.0469L94.9693 38.7495Z" fill="#6817C5"/>
<path d="M86.5268 57.357C86.5151 57.357 86.5033 57.3552 86.4914 57.3515L82.1148 55.9371C82.0998 55.9322 82.0859 55.9244 82.0741 55.9139C82.0622 55.9035 82.0526 55.8907 82.046 55.8764C82.0393 55.8621 82.0356 55.8466 82.0352 55.8308C82.0348 55.815 82.0376 55.7993 82.0435 55.7846L89.596 37.0018C89.6068 36.9748 89.6275 36.9529 89.6539 36.9405C89.6802 36.9282 89.7102 36.9263 89.7379 36.9353L95.0061 38.6379C95.0215 38.6429 95.0357 38.6511 95.0477 38.662C95.0597 38.6729 95.0693 38.6862 95.0759 38.7011C95.0824 38.7159 95.0857 38.732 95.0856 38.7482C95.0854 38.7644 95.0819 38.7804 95.0752 38.7952L86.631 57.2899C86.6219 57.3099 86.6072 57.3269 86.5886 57.3388C86.5701 57.3507 86.5486 57.357 86.5266 57.357H86.5268ZM82.3027 55.756L86.4648 57.1011L94.8128 38.8172L89.7694 37.1871L82.3027 55.756Z" fill="#111111"/>
<path d="M84.5715 61.6645L82.7594 65.8988L78.3828 64.4844L80.1949 60.25L84.5715 61.6645Z" fill="#6817C5"/>
<path d="M82.7612 66.012C82.7495 66.012 82.7376 66.0101 82.7258 66.0064L78.3492 64.592C78.3339 64.5871 78.3199 64.579 78.308 64.5684C78.296 64.5577 78.2865 64.5447 78.2798 64.5301C78.2732 64.5155 78.2697 64.4997 78.2695 64.4837C78.2694 64.4677 78.2725 64.4519 78.2788 64.4371L80.0908 60.2026C80.102 60.1762 80.1227 60.155 80.1488 60.1431C80.1749 60.1312 80.2045 60.1296 80.2318 60.1384L84.6084 61.5529C84.6236 61.5578 84.6377 61.5659 84.6496 61.5765C84.6615 61.5872 84.6711 61.6002 84.6777 61.6148C84.6843 61.6293 84.6879 61.6451 84.688 61.6611C84.6882 61.6772 84.685 61.693 84.6787 61.7077L82.8668 65.9422C82.8579 65.9629 82.8432 65.9806 82.8244 65.993C82.8057 66.0053 82.7837 66.012 82.7612 66.012ZM78.5399 64.4117L82.6969 65.7552L84.4179 61.7332L80.2609 60.3897L78.5399 64.4117Z" fill="#111111"/>
</g>
<g clip-path="url(#clip2_10497_102427)">
<path d="M23.549 88.251L23.5718 91.3863C23.5985 95.043 24.9782 98.7077 27.763 101.679C33.9451 108.275 44.7117 108.954 51.811 103.195C55.7137 100.03 57.6959 95.579 57.6633 91.1168L57.6405 87.9815C57.673 92.4438 55.6908 96.8949 51.7882 100.06C44.6888 105.818 33.9222 105.139 27.7402 98.5436C24.9553 95.5724 23.5756 91.9078 23.549 88.251Z" fill="url(#paint0_linear_10497_102427)"/>
<path d="M37.7882 106.997C42.6703 107.747 47.8652 106.541 51.8803 103.284C55.6596 100.219 57.8074 95.7853 57.7734 91.1196L57.7505 87.9842C57.7496 87.9555 57.7375 87.9283 57.7168 87.9084C57.6962 87.8885 57.6685 87.8774 57.6398 87.8777C57.6111 87.8779 57.5836 87.8893 57.5632 87.9095C57.5429 87.9297 57.5312 87.9571 57.5307 87.9858C57.5644 92.5843 55.4461 96.9554 51.7192 99.9783C44.6749 105.692 33.954 105.016 27.8205 98.4718C25.1652 95.6389 23.6874 92.0118 23.6589 88.2581L23.6589 88.2536C23.6581 88.2249 23.646 88.1977 23.6253 88.1778C23.6046 88.1579 23.577 88.1468 23.5483 88.147C23.5196 88.1473 23.4921 88.1587 23.4717 88.1789C23.4513 88.1991 23.4397 88.2265 23.4392 88.2552L23.4621 91.3906C23.4899 95.2014 24.989 98.8831 27.6831 101.758C30.3971 104.653 33.9985 106.415 37.7882 106.997ZM57.5494 90.5396L57.5537 91.1212C57.5872 95.7196 55.469 100.091 51.7421 103.114C44.698 108.827 33.9768 108.151 27.8434 101.607C25.1871 98.7733 23.7093 95.1444 23.6819 91.389L23.6776 90.7966C24.2009 93.6797 25.5713 96.3935 27.6601 98.6222C33.8709 105.248 44.7257 105.933 51.8577 100.149C54.9385 97.6502 56.9353 94.242 57.5494 90.5396Z" fill="#111111"/>
<path d="M29.4015 76.1749C22.3022 81.9331 21.5587 91.9478 27.7417 98.5445C33.9237 105.14 44.6904 105.819 51.7897 100.061C58.8902 94.3021 59.6337 84.2873 53.4518 77.6917C47.2687 71.0949 36.502 70.4159 29.4015 76.1749Z" fill="#D2B9EE"/>
<path d="M37.7666 103.857C42.6487 104.607 47.8437 103.401 51.8588 100.144C55.3438 97.3179 57.4243 93.3981 57.7175 89.1074C58.006 84.8835 56.5195 80.8018 53.5319 77.6143C47.3206 70.9875 36.4648 70.3024 29.3323 76.0873C25.8481 78.9133 23.7679 82.8324 23.4749 87.1227C23.1863 91.3471 24.6732 95.4293 27.6614 98.6176C30.3756 101.513 33.977 103.275 37.7666 103.857ZM43.3916 72.5906C47.1348 73.1657 50.6908 74.9047 53.3714 77.7647C56.317 80.9073 57.7826 84.9302 57.4982 89.0924C57.2093 93.3216 55.1575 97.1859 51.7205 99.9736C44.6762 105.687 33.9552 105.011 27.8217 98.4671C24.8756 95.3239 23.4097 91.3003 23.6941 87.1377C23.983 82.909 26.0344 79.0453 29.4706 76.2582C33.4368 73.0413 38.5695 71.8497 43.3916 72.5906Z" fill="#111111"/>
<path d="M39.3851 78.6371C40.2308 77.9511 41.8296 78.3676 42.9549 79.5682C44.0802 80.7688 44.306 82.299 43.4602 82.985C42.6145 83.671 41.0169 83.2535 39.8916 82.0529C38.7663 80.8522 38.5394 79.323 39.3851 78.6371Z" fill="#111111"/>
<path d="M42.0525 83.3862C42.621 83.4736 43.1475 83.3752 43.5296 83.0653C43.8558 82.8007 44.0451 82.4123 44.0772 81.9422C44.1306 81.1586 43.7412 80.2411 43.0352 79.4879C41.8731 78.248 40.2046 77.8256 39.316 78.5466C38.9902 78.8109 38.8009 79.1988 38.7688 79.6684C38.7154 80.4517 39.1051 81.3693 39.8116 82.123C40.4735 82.8293 41.2999 83.2705 42.0525 83.3862ZM40.7618 78.4373C41.4634 78.5451 42.2449 78.9662 42.8749 79.6384C43.5399 80.3479 43.9074 81.2035 43.858 81.9273C43.83 82.3349 43.6687 82.6694 43.3912 82.8944C42.5906 83.5437 41.0568 83.13 39.972 81.9725C39.3066 81.2626 38.9388 80.4068 38.9882 79.6834C39.0161 79.2764 39.1773 78.9424 39.4544 78.7175C39.7903 78.445 40.2552 78.3594 40.7618 78.4373ZM30.6649 85.705C31.5106 85.019 33.1082 85.4364 34.2335 86.637C35.3588 87.8376 35.5857 89.3668 34.74 90.0527C33.8943 90.7387 32.2966 90.3213 31.1714 89.1207C30.0461 87.9201 29.8191 86.391 30.6649 85.705Z" fill="#111111"/>
<path d="M33.3307 90.4642C33.8992 90.5515 34.4257 90.4533 34.8078 90.1433C35.1336 89.8789 35.3229 89.491 35.355 89.0214C35.4084 88.2382 35.0187 87.3206 34.3122 86.5668C33.1503 85.327 31.4822 84.9043 30.5942 85.6246C30.2684 85.889 30.0791 86.2769 30.047 86.7465C29.9936 87.5298 30.3833 88.4473 31.0898 89.2011C31.7518 89.9073 32.5781 90.3485 33.3307 90.4642ZM32.0383 85.5158C32.7399 85.6235 33.5214 86.0448 34.1518 86.7174C34.8173 87.4274 35.1851 88.2832 35.1357 89.0065C35.1078 89.4136 34.9466 89.7476 34.6695 89.9725C33.869 90.6216 32.3354 90.2083 31.2503 89.0506C30.5848 88.3407 30.217 87.4849 30.2664 86.7615C30.2943 86.3545 30.4555 86.0204 30.7326 85.7955C31.068 85.5234 31.5324 85.438 32.0383 85.5158ZM42.3219 90.1054C45.0862 87.8653 48.668 87.1017 51.8005 87.8479C52.2554 87.9563 52.528 88.3879 52.41 88.8101C52.3659 88.9708 52.2715 89.1074 52.1464 89.2089C51.9426 89.3742 51.6574 89.4465 51.3755 89.3794C48.8197 88.7674 45.7932 89.3843 43.4381 91.2964L43.4343 91.2994C41.1744 93.1324 40.0994 95.6964 40.285 98.0558C40.3051 98.3137 40.1898 98.552 39.9948 98.7101C39.8533 98.8238 39.6801 98.8911 39.499 98.9029C39.0315 98.9349 38.6242 98.6087 38.5893 98.1727C38.3653 95.2902 39.6692 92.259 42.3219 90.1054Z" fill="#111111"/>
<path d="M39.2815 99.0021C39.3543 99.0133 39.4295 99.0167 39.506 99.0114C39.7139 98.9968 39.9066 98.9217 40.0635 98.7943C40.2925 98.6086 40.4161 98.3289 40.3942 98.0461C40.2023 95.6087 41.3646 93.1182 43.503 91.3837C45.7207 89.5833 48.7248 88.8569 51.3495 89.4852C51.6536 89.5581 51.9775 89.486 52.2151 89.2931C52.3628 89.1734 52.4667 89.0162 52.5155 88.8382C52.5781 88.6143 52.5469 88.379 52.4275 88.176C52.3002 87.9597 52.0807 87.8006 51.8254 87.7398C48.554 86.96 44.975 87.8124 42.2522 90.0189C39.6562 92.1262 38.2458 95.1771 38.4792 98.1802C38.513 98.6028 38.8544 98.9365 39.2815 99.0021ZM50.7418 89.1422C48.2197 88.7547 45.4512 89.5189 43.3685 91.2098C41.1699 92.9929 39.9776 95.5539 40.1751 98.0633C40.1916 98.277 40.1005 98.4812 39.9251 98.6235C39.8033 98.7224 39.6531 98.7806 39.4908 98.792C39.0842 98.8199 38.7284 98.5377 38.6983 98.1627C38.4705 95.2321 39.8509 92.2514 42.3905 90.1895C45.0607 88.0259 48.5689 87.1895 51.7745 87.9536C51.9749 88.0013 52.1395 88.12 52.2382 88.2875C52.2819 88.3607 52.3103 88.4421 52.3215 88.5266C52.3328 88.6112 52.3267 88.6971 52.3037 88.7793C52.2669 88.913 52.1885 89.0315 52.0768 89.1221C51.8918 89.2723 51.6391 89.328 51.4006 89.2711C51.1829 89.2192 50.9631 89.1762 50.7418 89.1422Z" fill="#111111"/>
</g>
<g clip-path="url(#clip3_10497_102427)">
<path d="M17.6369 43.4932C17.6272 43.377 17.6612 43.273 17.7272 43.1964L19.1953 41.4922C19.1293 41.5689 19.0953 41.6727 19.1051 41.789L19.293 43.9242L17.8248 45.6283L17.6369 43.4932Z" fill="#D2B9EE"/>
<path d="M17.8489 45.7301C17.8701 45.7253 17.8892 45.7138 17.9033 45.6974L19.3715 43.9932C19.3803 43.983 19.387 43.9712 19.3911 43.9583C19.3952 43.9455 19.3968 43.932 19.3956 43.9186L19.2077 41.7835C19.2005 41.6982 19.224 41.6191 19.2738 41.5613C19.2825 41.5512 19.289 41.5395 19.2932 41.5269C19.2973 41.5143 19.2989 41.5011 19.2979 41.4878C19.2969 41.4746 19.2932 41.4618 19.2872 41.45C19.2812 41.4381 19.2729 41.4276 19.2628 41.419C19.2527 41.4104 19.2411 41.4039 19.2284 41.3998C19.2158 41.3957 19.2025 41.3941 19.1892 41.3952C19.176 41.3962 19.163 41.3998 19.1512 41.4058C19.1393 41.4118 19.1288 41.4201 19.1201 41.4302L17.6522 43.1342C17.5667 43.2334 17.5262 43.3651 17.5378 43.505L17.5378 43.5056L17.7258 45.6407C17.727 45.655 17.7314 45.6689 17.7385 45.6814C17.7455 45.694 17.7553 45.7048 17.7669 45.7133C17.7786 45.7218 17.7919 45.7276 17.8061 45.7305C17.8202 45.7334 17.8348 45.7333 17.8489 45.7301ZM19.1903 43.8942L17.9065 45.3844L17.7395 43.4879C17.7325 43.4022 17.7559 43.3233 17.8058 43.2656L19.0117 41.8656L19.1903 43.8942Z" fill="#111111"/>
<path d="M30.7599 57.5477L32.9592 58.244C33.0652 58.2768 33.1689 58.2768 33.2582 58.2489C33.3272 58.2281 33.389 58.1882 33.4363 58.1339L31.9682 59.8381C31.9216 59.8921 31.8603 59.9312 31.79 59.9532C31.7007 59.9811 31.597 59.9811 31.491 59.9482L29.2916 59.2518L30.7599 57.5477Z" fill="#D2B9EE"/>
<path d="M31.7765 60.0562C31.7905 60.053 31.8043 60.0494 31.818 60.0451C31.905 60.0184 31.9829 59.9679 32.0427 59.8994L33.5105 58.1955L33.5108 58.1952C33.5283 58.1749 33.537 58.1485 33.535 58.1219C33.533 58.0952 33.5204 58.0704 33.5001 58.053C33.4797 58.0356 33.4532 58.0269 33.4265 58.029C33.3997 58.031 33.3748 58.0436 33.3573 58.0639C33.3239 58.1027 33.2784 58.1319 33.2259 58.1483C33.1533 58.171 33.0707 58.1692 32.9871 58.1433L30.7885 57.4472C30.7696 57.4412 30.7493 57.4409 30.7302 57.4463C30.7111 57.4518 30.694 57.4627 30.681 57.4778L29.2129 59.1819C29.202 59.1946 29.1944 59.2097 29.1909 59.226C29.1873 59.2422 29.1878 59.2591 29.1923 59.2751C29.1969 59.2912 29.2053 59.3058 29.2169 59.3178C29.2285 59.3297 29.2429 59.3386 29.2588 59.3437L31.4581 60.04C31.5666 60.0736 31.6757 60.079 31.7765 60.0562ZM33.0975 58.3655L31.8892 59.7681C31.8558 59.8069 31.8103 59.8361 31.7576 59.8526C31.6851 59.8748 31.6026 59.8734 31.519 59.8475L29.4659 59.1974L30.7907 57.6597L32.9262 58.3357C32.9817 58.3532 33.0393 58.3632 33.0975 58.3655Z" fill="#111111"/>
<path d="M20.1193 49.1848L18.6511 50.8891C19.0082 50.4745 19.4842 50.1594 20.0502 49.9828C20.4445 49.8598 20.8827 49.8039 21.3546 49.8285C23.1948 49.9254 24.9947 51.306 25.6013 53.0877C26.0428 54.3808 25.8009 55.5869 25.096 56.405L26.5642 54.7008C27.2691 53.8826 27.5109 52.6766 27.0694 51.3834C26.4629 49.6019 24.6629 48.2213 22.8228 48.1243C22.3509 48.0996 21.9125 48.1555 21.5184 48.2785C20.9523 48.4551 20.4764 48.7703 20.1193 49.1848Z" fill="#D2B9EE"/>
<path d="M25.1198 56.5069C25.1409 56.5021 25.16 56.4906 25.1741 56.4742L25.1755 56.4726L26.6423 54.77C27.4117 53.8769 27.6028 52.632 27.1666 51.3544C26.5441 49.5261 24.7202 48.1268 22.8296 48.0272C22.357 48.0025 21.9061 48.0559 21.4896 48.1859C20.9182 48.3642 20.4183 48.6881 20.0438 49.1228L18.5767 50.8258L18.5757 50.827C18.5582 50.8474 18.5495 50.8738 18.5515 50.9004C18.5535 50.9271 18.566 50.9519 18.5864 50.9693C18.6067 50.9867 18.6332 50.9954 18.66 50.9933C18.6867 50.9913 18.7116 50.9787 18.7291 50.9584L18.7296 50.9579C19.0793 50.5523 19.5468 50.2496 20.0816 50.0827C20.4752 49.9602 20.9021 49.9096 21.3505 49.933C23.1618 50.0283 24.9097 51.3703 25.5068 53.1238C25.9193 54.3321 25.7421 55.5054 25.0206 56.343C25.0068 56.3591 24.9983 56.3791 24.9966 56.4003C24.9948 56.4214 24.9998 56.4426 25.0107 56.4607C25.0217 56.4789 25.0382 56.4931 25.0577 56.5014C25.0773 56.5097 25.099 56.5116 25.1198 56.5069ZM21.8035 48.3103C22.1246 48.2376 22.4651 48.2101 22.8187 48.2286C24.63 48.3239 26.3779 49.666 26.975 51.4195C27.3875 52.6278 27.2103 53.8011 26.4888 54.6386L25.7359 55.5126C26.0017 54.7758 25.9943 53.9247 25.6985 53.0585C25.076 51.2302 23.252 49.8309 21.3615 49.7313C20.889 49.7067 20.4383 49.7597 20.0215 49.89C19.8168 49.9538 19.6213 50.0364 19.4374 50.136L20.1973 49.254C20.5471 48.8481 21.0147 48.5454 21.5498 48.3783C21.6334 48.3523 21.7181 48.3296 21.8035 48.3103Z" fill="#111111"/>
<path d="M27.3918 59.9665L25.9236 61.6707C27.1398 61.283 28.1633 60.5991 28.9342 59.7042L30.4023 58C29.6314 58.8948 28.6078 59.5787 27.3918 59.9665Z" fill="#D2B9EE"/>
<path d="M25.9475 61.7648C25.9503 61.7642 25.9532 61.7634 25.956 61.7625C27.1613 61.3782 28.2182 60.6877 29.0126 59.7656L30.4807 58.0614C30.4982 58.0411 30.5069 58.0147 30.5049 57.988C30.5029 57.9613 30.4904 57.9366 30.47 57.9191C30.4497 57.9017 30.4232 57.8931 30.3964 57.8951C30.3697 57.8972 30.3448 57.9097 30.3273 57.93L30.3256 57.932C29.5559 58.8247 28.5315 59.4935 27.3628 59.8661C27.3449 59.8718 27.329 59.8824 27.3167 59.8965L25.8486 61.6008C25.8347 61.6169 25.8262 61.6369 25.8244 61.658C25.8226 61.6792 25.8276 61.7003 25.8385 61.7185C25.8495 61.7367 25.8659 61.7509 25.8854 61.7592C25.905 61.7675 25.9267 61.7695 25.9475 61.7648ZM29.2832 59.1421L28.8592 59.6344C28.1676 60.437 27.2704 61.0588 26.2475 61.4473L27.4515 60.0496C28.1136 59.8355 28.7305 59.5289 29.2832 59.1421Z" fill="#111111"/>
<path d="M11.7111 47.5869C11.7263 47.5411 11.7504 47.4987 11.7819 47.4621L13.25 45.7578C13.2194 45.7933 13.1954 45.8351 13.1793 45.8827L12.4128 48.1876L10.9446 49.8919L11.7111 47.5869Z" fill="#D2B9EE"/>
<path d="M10.9694 49.9928C10.9906 49.988 11.0097 49.9766 11.0239 49.9601L12.492 48.2559C12.5006 48.2459 12.5072 48.2343 12.5113 48.2218L13.2778 45.9168C13.289 45.8835 13.3064 45.8526 13.3293 45.8259C13.3464 45.8056 13.3547 45.7793 13.3525 45.7529C13.3503 45.7265 13.3378 45.702 13.3176 45.6847C13.2974 45.6675 13.2712 45.6588 13.2447 45.6607C13.2182 45.6626 13.1934 45.6748 13.1758 45.6947L11.7076 47.3989C11.6676 47.4456 11.6371 47.4995 11.6177 47.5577L10.8511 49.8627C10.8437 49.8849 10.8443 49.9089 10.8527 49.9307C10.8612 49.9525 10.8769 49.9707 10.8974 49.9821C10.9192 49.9946 10.9449 49.9984 10.9694 49.9928ZM12.3255 48.1397L11.2045 49.4408L11.8097 47.6211C11.8208 47.5878 11.8383 47.5569 11.8612 47.5302L12.9476 46.269L12.3255 48.1397Z" fill="#111111"/>
<path d="M12.6809 48.8007L11.2128 50.505L13.2221 51.7681L14.6902 50.064L12.6809 48.8007Z" fill="#D2B9EE"/>
<path d="M13.2421 51.8621C13.2626 51.8575 13.2818 51.8464 13.2965 51.8294L14.7646 50.1252C14.7741 50.1142 14.7811 50.1013 14.7851 50.0874C14.7892 50.0735 14.7902 50.0588 14.788 50.0445C14.7859 50.0302 14.7806 50.0165 14.7727 50.0044C14.7647 49.9922 14.7542 49.982 14.7419 49.9743L12.7327 48.7111C12.7122 48.6982 12.6877 48.6931 12.6636 48.6967C12.6396 48.7003 12.6177 48.7124 12.6019 48.7308L11.1337 50.435C11.1242 50.446 11.1172 50.4589 11.1132 50.4729C11.1091 50.4868 11.1082 50.5014 11.1103 50.5157C11.1125 50.5301 11.1177 50.5438 11.1256 50.5559C11.1336 50.568 11.1441 50.5783 11.1564 50.586L13.1657 51.8491C13.1769 51.8562 13.1894 51.861 13.2026 51.8632C13.2157 51.8654 13.2291 51.8651 13.2421 51.8621ZM14.5347 50.0826L13.2 51.632L11.3636 50.4775L12.6983 48.9281L14.5347 50.0826Z" fill="#111111"/>
<path d="M12.4142 48.1914L10.9461 49.8957C10.8765 50.1071 10.9883 50.3686 11.2117 50.5076L12.6799 48.8034C12.4565 48.6644 12.3446 48.4029 12.4142 48.1914Z" fill="#D2B9EE"/>
<path d="M11.2318 50.6017C11.2523 50.5971 11.2715 50.586 11.2862 50.569L12.7544 48.8648C12.7639 48.8537 12.7709 48.8408 12.7749 48.8268C12.7789 48.8129 12.7799 48.7982 12.7777 48.7839C12.7755 48.7695 12.7702 48.7558 12.7622 48.7437C12.7543 48.7316 12.7437 48.7213 12.7314 48.7136C12.5487 48.5998 12.4528 48.387 12.5083 48.2185C12.5156 48.1963 12.515 48.1723 12.5065 48.1505C12.498 48.1288 12.4823 48.1106 12.4619 48.0992C12.4414 48.0877 12.4177 48.0837 12.3946 48.0878C12.3715 48.0919 12.3506 48.1038 12.3353 48.1215L10.8672 49.8258C10.8585 49.8359 10.8519 49.8476 10.8478 49.8602C10.7628 50.1185 10.8924 50.4251 11.1559 50.5891C11.1791 50.6035 11.2065 50.6074 11.2318 50.6017ZM12.5301 48.8156L11.194 50.3665C11.0629 50.252 10.9975 50.0828 11.0347 49.9405L12.3079 48.4626C12.3409 48.5938 12.4182 48.7189 12.5301 48.8156Z" fill="#111111"/>
<path d="M14.689 50.0598L13.221 51.7639C13.1923 52.4867 13.2639 53.2423 13.4513 54.021C13.6378 54.7976 13.9254 55.545 14.2961 56.2499L15.7643 54.5457C15.3935 53.8408 15.1058 53.0934 14.9195 52.3167C14.7321 51.5381 14.6605 50.7825 14.689 50.0598Z" fill="#D2B9EE"/>
<path d="M14.3202 56.3519C14.3414 56.3471 14.3605 56.3357 14.3746 56.3192L15.8427 54.615C15.8559 54.5996 15.8642 54.5807 15.8665 54.5606C15.8688 54.5405 15.865 54.5202 15.8556 54.5023C15.4814 53.791 15.2001 53.0488 15.0196 52.2966C14.8395 51.5487 14.7629 50.7987 14.7918 50.0671C14.7926 50.0462 14.7869 50.0255 14.7754 50.008C14.7639 49.9905 14.7473 49.977 14.7277 49.9694C14.7082 49.9618 14.6868 49.9604 14.6664 49.9654C14.646 49.9705 14.6277 49.9817 14.614 49.9976L13.1459 51.7019C13.131 51.7191 13.1224 51.7409 13.1215 51.7636C13.0919 52.5137 13.1702 53.2823 13.3547 54.0482C13.5392 54.8165 13.8263 55.5743 14.2083 56.3004C14.2186 56.3201 14.2352 56.3358 14.2554 56.3451C14.2757 56.3544 14.2984 56.3568 14.3202 56.3519ZM15.6446 54.5355L14.3192 56.0742C13.979 55.4033 13.7209 54.7066 13.5516 54.0008C13.3743 53.2649 13.2973 52.5267 13.3226 51.8063L14.5837 50.3424C14.5814 51.0022 14.6616 51.6741 14.8228 52.3439C15.0021 53.0909 15.2785 53.8279 15.6446 54.5355Z" fill="#111111"/>
<path d="M24.5874 62.6449L27.1968 62.5278C27.2367 62.5266 27.2762 62.5199 27.3143 62.5082C27.3824 62.4875 27.4433 62.4481 27.4898 62.3944L26.0217 64.0987C25.9767 64.1509 25.9169 64.1903 25.8462 64.2124C25.8097 64.2238 25.7704 64.2306 25.7287 64.232L23.1193 64.3491L24.5874 62.6449Z" fill="#D2B9EE"/>
<path d="M25.8383 64.3229C25.852 64.3198 25.8655 64.3162 25.8789 64.3121C25.9651 64.2856 26.0421 64.2356 26.1012 64.1676L27.5692 62.4634C27.5863 62.4431 27.5948 62.4168 27.5926 62.3904C27.5904 62.3639 27.5778 62.3394 27.5577 62.3222C27.5375 62.3049 27.5113 62.2963 27.4847 62.2982C27.4582 62.3001 27.4334 62.3123 27.4158 62.3322L27.4154 62.3326C27.3812 62.3716 27.3367 62.4002 27.2869 62.4152C27.2586 62.4241 27.228 62.4292 27.1958 62.4304L24.5856 62.5475C24.5718 62.5481 24.5582 62.5515 24.5458 62.5575C24.5333 62.5636 24.5223 62.5721 24.5133 62.5826L23.0452 64.2868C23.0324 64.3017 23.0242 64.3201 23.0216 64.3396C23.0191 64.3591 23.0223 64.379 23.0309 64.3967C23.0396 64.4143 23.0532 64.4291 23.0702 64.4392C23.0871 64.4492 23.1067 64.4541 23.1264 64.4532L25.7357 64.3361C25.7702 64.335 25.8046 64.3306 25.8383 64.3229ZM27.1556 62.6342L25.9477 64.0364C25.9146 64.0748 25.8701 64.1035 25.8188 64.1196C25.7901 64.1284 25.7596 64.1336 25.728 64.1346L23.3512 64.2413L24.6383 62.7471L27.1556 62.6342Z" fill="#111111"/>
<path d="M23.1842 60.154L21.7162 61.8582L22.5452 63.9641L24.0133 62.2599L23.1842 60.154Z" fill="#D2B9EE"/>
<path d="M22.5652 64.0583C22.5864 64.0535 22.6055 64.042 22.6197 64.0256L24.0878 62.3213C24.0998 62.3074 24.1078 62.2905 24.1109 62.2724C24.1139 62.2544 24.112 62.2358 24.1053 62.2187L23.2763 60.1129C23.27 60.0966 23.2596 60.0823 23.246 60.0713C23.2325 60.0604 23.2163 60.0531 23.1991 60.0502C23.1819 60.0473 23.1642 60.0489 23.1477 60.0549C23.1313 60.0609 23.1167 60.071 23.1054 60.0842L21.6372 61.7885C21.6252 61.8024 21.6173 61.8193 21.6142 61.8374C21.6111 61.8555 21.613 61.874 21.6198 61.8911L22.4487 63.997C22.4575 64.0194 22.4741 64.038 22.4955 64.0492C22.5169 64.0605 22.5416 64.0637 22.5652 64.0583ZM23.8946 62.2361L22.5758 63.767L21.8304 61.8735L23.1492 60.3427L23.8946 62.2361Z" fill="#111111"/>
<path d="M24.0116 62.2537L22.5435 63.9579C22.6352 64.1926 22.8806 64.3578 23.1203 64.3471L24.5885 62.6429C24.3488 62.6537 24.1033 62.4884 24.0116 62.2537Z" fill="#D2B9EE"/>
<path d="M23.1443 64.449C23.1654 64.4442 23.1845 64.4327 23.1987 64.4163L24.6669 62.712C24.6797 62.6971 24.6879 62.6787 24.6905 62.6592C24.693 62.6397 24.6898 62.6199 24.6812 62.6022C24.6725 62.5845 24.6589 62.5697 24.6419 62.5597C24.625 62.5496 24.6054 62.5447 24.5857 62.5456C24.389 62.5546 24.1835 62.4147 24.1077 62.2205C24.1014 62.2043 24.0909 62.1899 24.0774 62.1789C24.0639 62.1679 24.0477 62.1606 24.0304 62.1577C24.0132 62.1548 23.9955 62.1564 23.9791 62.1623C23.9626 62.1683 23.948 62.1784 23.9366 62.1917L22.4685 63.8959C22.4565 63.9098 22.4485 63.9267 22.4454 63.9447C22.4423 63.9628 22.4442 63.9813 22.4509 63.9984C22.5585 64.2737 22.8426 64.4643 23.1265 64.4516C23.1325 64.4512 23.1384 64.4503 23.1443 64.449ZM24.3913 62.7225L23.0758 64.2495C22.9111 64.2397 22.747 64.1309 22.6643 63.978L23.9939 62.4346C24.0895 62.5736 24.2333 62.6772 24.3913 62.7225Z" fill="#111111"/>
<path d="M18.7386 58.0823L17.2705 59.7865C18.584 60.809 20.1158 61.5406 21.7138 61.8576L23.1819 60.1534C21.584 59.8362 20.0521 59.1047 18.7386 58.0823Z" fill="#D2B9EE"/>
<path d="M21.7377 61.9518C21.7589 61.947 21.778 61.9355 21.7922 61.9191L23.2603 60.2148C23.2718 60.2014 23.2797 60.1853 23.283 60.168C23.2863 60.1507 23.2851 60.1329 23.2793 60.1162C23.2736 60.0996 23.2636 60.0847 23.2503 60.0731C23.237 60.0616 23.2209 60.0536 23.2036 60.0502C21.6536 59.7426 20.1318 59.0331 18.8026 57.9985C18.7821 57.9825 18.7562 57.975 18.7303 57.9776C18.7044 57.9802 18.6805 57.9927 18.6635 58.0124L17.1953 59.7166C17.1864 59.727 17.1797 59.739 17.1756 59.7521C17.1715 59.7651 17.1701 59.7788 17.1714 59.7923C17.1728 59.8059 17.1769 59.8191 17.1834 59.831C17.19 59.843 17.199 59.8535 17.2097 59.8619C18.5637 60.9158 20.1148 61.6387 21.6955 61.9524C21.7095 61.9551 21.7238 61.9549 21.7377 61.9518ZM22.9952 60.2131L21.6774 61.7428C20.18 61.4357 18.7108 60.7543 17.4183 59.7673L18.7543 58.2165C20.0416 59.2014 21.5024 59.889 22.9952 60.2131Z" fill="#111111"/>
<path d="M14.3828 55.9766L12.9147 57.6808C12.7767 57.841 12.7941 58.0951 12.959 58.2896L14.4272 56.5853C14.2622 56.3907 14.2448 56.1368 14.3828 55.9766Z" fill="#D2B9EE"/>
<path d="M12.983 58.3837C13.0042 58.3789 13.0232 58.3674 13.0374 58.351L14.5056 56.6468C14.5213 56.6286 14.53 56.6055 14.5301 56.5815C14.5302 56.5575 14.5218 56.5343 14.5063 56.516C14.375 56.3611 14.3561 56.16 14.4612 56.038C14.4699 56.0279 14.4765 56.0162 14.4806 56.0037C14.4848 55.9911 14.4864 55.9778 14.4854 55.9646C14.4844 55.9514 14.4808 55.9385 14.4748 55.9267C14.4688 55.9149 14.4606 55.9043 14.4505 55.8957C14.4404 55.8871 14.4287 55.8805 14.4161 55.8764C14.4035 55.8723 14.3902 55.8707 14.3769 55.8717C14.3636 55.8727 14.3507 55.8763 14.3389 55.8823C14.327 55.8883 14.3164 55.8966 14.3077 55.9066L14.3074 55.907L12.8397 57.6108C12.6694 57.8085 12.6878 58.1196 12.8834 58.3505C12.8953 58.3646 12.9109 58.3751 12.9285 58.381C12.946 58.3868 12.9649 58.3878 12.983 58.3837ZM14.2994 56.5767L12.9708 58.1187C12.9043 57.9851 12.9097 57.8388 12.993 57.7421L14.2017 56.3391C14.2172 56.4204 14.2498 56.5014 14.2994 56.5767Z" fill="#111111"/>
<path d="M16.8615 58.974L15.3935 60.6782L17.2701 59.7823L18.7383 58.0781L16.8615 58.974Z" fill="#D2B9EE"/>
<path d="M15.4172 60.7803C15.4246 60.7786 15.4318 60.7761 15.4386 60.7729L17.3153 59.8769C17.328 59.8708 17.3393 59.8622 17.3485 59.8516L18.8167 58.1473C18.8318 58.1298 18.8404 58.1075 18.8411 58.0844C18.8418 58.0613 18.8344 58.0386 18.8203 58.0202C18.8062 58.0019 18.7862 57.9889 18.7636 57.9835C18.741 57.9782 18.7173 57.9807 18.6963 57.9907L16.8196 58.8867C16.8069 58.8928 16.7956 58.9013 16.7864 58.912L15.3183 60.6162C15.3044 60.6323 15.2959 60.6524 15.2941 60.6735C15.2923 60.6947 15.2973 60.7158 15.3082 60.734C15.3192 60.7522 15.3356 60.7664 15.3552 60.7747C15.3748 60.783 15.3965 60.785 15.4172 60.7803ZM17.2089 59.7042L15.785 60.3839L16.9261 59.0594L18.3499 58.3796L17.2089 59.7042Z" fill="#111111"/>
<path d="M14.4284 56.5871L12.9603 58.2914L14.8042 60.4813L16.2723 58.7771L14.4284 56.5871Z" fill="#D2B9EE"/>
<path d="M14.8242 60.5753C14.8454 60.5705 14.8645 60.559 14.8787 60.5426L16.3467 58.8384C16.3624 58.8202 16.371 58.7971 16.3712 58.7732C16.3714 58.7493 16.363 58.7261 16.3476 58.7078L14.5037 56.5179C14.4943 56.5067 14.4826 56.4977 14.4693 56.4915C14.456 56.4853 14.4415 56.482 14.4268 56.482C14.4122 56.4819 14.3976 56.485 14.3843 56.4911C14.3709 56.4972 14.359 56.5061 14.3495 56.5172L12.8813 58.2213C12.8656 58.2395 12.8569 58.2626 12.8568 58.2865C12.8566 58.3104 12.865 58.3336 12.8804 58.3519L14.7244 60.5418C14.7363 60.556 14.7519 60.5666 14.7695 60.5725C14.7872 60.5785 14.8061 60.5794 14.8242 60.5753ZM16.1372 58.7721L14.8029 60.3211L13.0908 58.2877L14.4251 56.7388L16.1372 58.7721Z" fill="#111111"/>
<path d="M16.2703 58.7737L14.8022 60.4779C14.9556 60.6616 15.1986 60.7403 15.3931 60.6796L16.8613 58.9754C16.6667 59.0361 16.4238 58.9573 16.2703 58.7737Z" fill="#D2B9EE"/>
<path d="M15.3847 60.7902C15.3983 60.7871 15.4117 60.7836 15.425 60.7793C15.4431 60.7737 15.4593 60.7631 15.4716 60.7487L16.9398 59.0445C16.9541 59.0279 16.9626 59.007 16.964 58.9852C16.9654 58.9634 16.9596 58.9417 16.9475 58.9234C16.9355 58.9051 16.9178 58.8913 16.8971 58.8839C16.8765 58.8766 16.8539 58.8761 16.833 58.8826C16.6735 58.9316 16.475 58.8624 16.3499 58.7125C16.3404 58.7013 16.3287 58.6922 16.3154 58.6859C16.3021 58.6797 16.2876 58.6764 16.2729 58.6763C16.2581 58.6762 16.2436 58.6793 16.2302 58.6854C16.2168 58.6915 16.2049 58.7004 16.1953 58.7115L14.7272 60.4158C14.7116 60.4338 14.7029 60.4569 14.7028 60.4807C14.7026 60.5046 14.7109 60.5277 14.7262 60.546C14.8922 60.7449 15.1574 60.8417 15.3847 60.7902ZM16.6322 59.0922L15.3385 60.594C15.208 60.6234 15.0562 60.5777 14.9409 60.4772L16.2772 58.926C16.3778 59.0131 16.5007 59.0707 16.6322 59.0922Z" fill="#111111"/>
<path d="M14.395 55.9568C14.2426 56.1158 14.2558 56.3798 14.4259 56.5805L16.2698 58.7704C16.4232 58.9541 16.6661 59.0328 16.8607 58.9721L18.7374 58.0762C20.0509 59.0987 21.5828 59.8303 23.1807 60.1473L24.0097 62.2532C24.1014 62.4879 24.3468 62.6531 24.5865 62.6424L27.1959 62.5254C27.2358 62.5241 27.2753 62.5175 27.3134 62.5057C27.4875 62.4514 27.5958 62.2918 27.5787 62.0952L27.3908 59.9601C28.8045 59.5093 29.958 58.6584 30.7568 57.5411L32.9561 58.2374C33.062 58.2702 33.1658 58.2702 33.2551 58.2423C33.3714 58.206 33.4635 58.1224 33.5039 58.0025L34.2705 55.6972C34.34 55.4858 34.2263 55.2248 34.0048 55.0853L31.9956 53.8221C32.0242 53.0993 31.9526 52.3438 31.7652 51.5651C31.5787 50.7885 31.2922 50.0431 30.9214 49.3382L32.2877 47.9251C32.44 47.7661 32.4269 47.5022 32.2568 47.3015L30.413 45.1116C30.2595 44.9279 30.0166 44.8492 29.822 44.9098L27.9453 45.8057C26.6318 44.7833 25.0999 44.0518 23.502 43.7346L22.673 41.6288C22.5813 41.3941 22.3338 41.2294 22.0943 41.2402L19.4869 41.3567C19.4471 41.358 19.4077 41.3646 19.3697 41.3764C19.1946 41.431 19.0878 41.5916 19.1041 41.7868L19.2921 43.922C17.8774 44.3753 16.7248 45.2237 15.9241 46.3416L13.7267 45.6447C13.6208 45.6119 13.517 45.6119 13.4277 45.6398C13.3113 45.6762 13.2194 45.7597 13.1789 45.8797L12.4124 48.1847C12.3429 48.3961 12.4547 48.6576 12.6781 48.7966L14.6873 50.0598C14.6587 50.7826 14.7303 51.5381 14.9177 52.3168C15.1042 53.0934 15.3918 53.8409 15.7625 54.5458L14.395 55.9568ZM23.8599 55.7588C22.0197 55.6618 20.2198 54.2813 19.6133 52.4996C18.9488 50.5528 19.8351 48.8025 21.5184 48.2772C21.9127 48.1543 22.3509 48.0983 22.8228 48.123C24.663 48.2198 26.463 49.6005 27.0695 51.3821C27.7345 53.3297 26.8492 55.0798 25.1668 55.6048C24.7718 55.7281 24.333 55.7839 23.8599 55.7588Z" fill="white"/>
<path d="M27.3043 62.6165C27.318 62.6134 27.3315 62.6098 27.3448 62.6056C27.5665 62.5365 27.7015 62.3292 27.6808 62.0899L27.4998 60.0347C28.8495 59.5877 29.9867 58.7697 30.7971 57.663L32.9265 58.3371C33.0502 58.3754 33.1745 58.3772 33.2864 58.3421C33.437 58.2951 33.5517 58.1843 33.6011 58.038L34.3678 55.7328C34.4522 55.4759 34.3229 55.1695 34.0603 55.0038L32.1 53.7714C32.1235 53.0401 32.0444 52.2914 31.8648 51.5452C31.6858 50.7997 31.4105 50.0648 31.0459 49.3597L32.3618 47.9989C32.5514 47.8008 32.5402 47.482 32.3354 47.2401L30.4916 45.0506C30.3158 44.84 30.0286 44.7439 29.793 44.8175C29.7884 44.8189 29.7838 44.8206 29.7794 44.8227L27.9592 45.6917C26.6325 44.6705 25.1198 43.9658 23.5771 43.6504L22.7682 41.5956C22.6609 41.3208 22.376 41.1305 22.0909 41.1432L19.4835 41.2596C19.435 41.2613 19.3869 41.2694 19.3406 41.2838C19.1194 41.3528 18.9842 41.5598 19.0042 41.7989L19.1852 43.8547C17.8342 44.3043 16.6963 45.1224 15.8861 46.2269L13.7586 45.552C13.6348 45.5137 13.5108 45.5119 13.3986 45.547C13.2481 45.5939 13.1334 45.7048 13.084 45.8511L12.3173 48.1565C12.2322 48.4151 12.3618 48.7217 12.6253 48.8858L14.5851 50.1181C14.5617 50.8497 14.6407 51.5984 14.8204 52.3443C14.9994 53.0898 15.275 53.8253 15.6401 54.5319L14.3234 55.8906L14.3231 55.8909C14.1337 56.0886 14.1449 56.4075 14.3499 56.6494L16.1935 58.839C16.3694 59.0495 16.6566 59.1456 16.8923 59.072C16.8969 59.0706 16.9014 59.0689 16.9058 59.0668L18.7261 58.1978C20.0527 59.2189 21.5654 59.9237 23.1082 60.2391L23.9171 62.2939C24.0246 62.5691 24.3087 62.7597 24.5925 62.7469L27.2018 62.6298C27.2363 62.6285 27.2706 62.6241 27.3043 62.6165ZM30.7358 57.4464C30.7115 57.4519 30.6901 57.4661 30.6756 57.4863C29.8731 58.6088 28.727 59.4321 27.3612 59.8676C27.3393 59.8746 27.3204 59.8888 27.3077 59.9079C27.2949 59.927 27.2891 59.9498 27.2911 59.9726L27.479 62.1078C27.4918 62.2546 27.4173 62.3717 27.2845 62.413C27.2561 62.4216 27.2254 62.4269 27.1935 62.4281L24.5833 62.5451C24.3866 62.5541 24.1811 62.4142 24.1053 62.22L23.2761 60.1139C23.2699 60.0982 23.2599 60.0843 23.2469 60.0734C23.2339 60.0626 23.2184 60.0552 23.2018 60.0519C21.6518 59.7443 20.13 59.0348 18.8009 58.0002C18.786 57.9886 18.7683 57.9815 18.7495 57.9794C18.7308 57.9774 18.7119 57.9807 18.6949 57.9888L16.8252 58.8814C16.6663 58.9271 16.4721 58.8572 16.3486 58.7094L14.5045 56.5192C14.3674 56.3573 14.3525 56.1519 14.4689 56.0303L15.8361 54.6196C15.8509 54.6043 15.8605 54.5848 15.8635 54.5638C15.8665 54.5428 15.8629 54.5214 15.853 54.5026C15.4788 53.7912 15.1975 53.0491 15.017 52.2969C14.8369 51.549 14.7603 50.7989 14.7892 50.0674C14.7899 50.0497 14.7859 50.0321 14.7777 50.0165C14.7694 50.0008 14.7572 49.9876 14.7422 49.9782L12.7329 48.7151C12.5499 48.6012 12.4539 48.3882 12.5094 48.2197L13.2758 45.915C13.3045 45.83 13.3695 45.7676 13.4587 45.7398C13.5309 45.7175 13.6138 45.7189 13.6975 45.7448L15.8942 46.4416C15.9146 46.4481 15.9366 46.4479 15.9569 46.4412C15.9772 46.4344 15.9949 46.4214 16.0073 46.404C16.8097 45.2838 17.9566 44.4601 19.3238 44.0219C19.3457 44.0149 19.3645 44.0007 19.3772 43.9816C19.39 43.9626 19.3958 43.9398 19.3938 43.917L19.2058 41.7818C19.1936 41.6352 19.2683 41.518 19.4007 41.4767C19.4302 41.4678 19.4607 41.4627 19.4915 41.4616L22.0998 41.3448C22.2978 41.336 22.5041 41.4754 22.5798 41.6693L23.4089 43.7755C23.4215 43.8074 23.4494 43.8307 23.4832 43.8375C25.033 44.1449 26.5549 44.8544 27.884 45.8891C27.9142 45.9126 27.9553 45.917 27.99 45.9005L29.8597 45.0081C30.018 44.9621 30.2129 45.0323 30.3363 45.1801L32.1804 47.3702C32.3175 47.5321 32.3324 47.7377 32.2157 47.8593L30.8497 49.272C30.835 49.2873 30.8254 49.3068 30.8224 49.3278C30.8193 49.3488 30.823 49.3702 30.8329 49.3889C31.2065 50.0991 31.4874 50.8405 31.6679 51.5925C31.848 52.3406 31.9246 53.0907 31.8956 53.8222C31.8949 53.8398 31.8989 53.8574 31.9071 53.873C31.9154 53.8887 31.9277 53.9019 31.9427 53.9113L33.9519 55.1744C34.1344 55.2895 34.2306 55.5025 34.1755 55.6698L33.4091 57.9744C33.3804 58.0594 33.3154 58.1218 33.2262 58.1496C33.1537 58.1722 33.0711 58.1705 32.9875 58.1446L30.7888 57.4486C30.7716 57.4431 30.7534 57.4424 30.7358 57.4464ZM24.9289 55.7772C25.0201 55.7565 25.1098 55.7324 25.1981 55.7049C26.0137 55.4504 26.6694 54.905 27.0445 54.1692C27.463 53.3484 27.5063 52.3483 27.1665 51.3533C26.544 49.525 24.7201 48.1257 22.8295 48.026C22.357 48.0013 21.9061 48.0548 21.4895 48.1847C20.6732 48.4394 20.0167 48.9853 19.6412 49.7217C19.2228 50.5423 19.1792 51.5417 19.5185 52.536C20.141 54.3643 21.9649 55.7636 23.8556 55.8632C24.229 55.8831 24.5888 55.8541 24.9289 55.7772ZM21.8034 48.3094C22.1245 48.2367 22.4649 48.2092 22.8186 48.2277C24.6299 48.323 26.3778 49.6651 26.9749 51.4186C27.2969 52.3618 27.2576 53.3063 26.8641 54.0781C26.514 54.7649 25.9009 55.2742 25.138 55.5124C24.7438 55.6354 24.3161 55.6856 23.8667 55.6618C22.0553 55.5664 20.3073 54.2245 19.7103 52.4709C19.3887 51.5285 19.4283 50.5845 19.8217 49.813C20.1722 49.1256 20.7859 48.6158 21.5497 48.3773C21.6333 48.3513 21.7179 48.3287 21.8034 48.3094Z" fill="#111111"/>
</g>
<defs>
<linearGradient id="paint0_linear_10497_102427" x1="58.1162" y1="96.2043" x2="23.9445" y2="98.1487" gradientUnits="userSpaceOnUse">
<stop offset="0.325" stop-color="#6817C5"/>
<stop offset="0.706" stop-color="#D2B9EE"/>
<stop offset="0.938" stop-color="#6817C5"/>
</linearGradient>
<clipPath id="clip0_10497_102427">
<rect width="83.376" height="62.448" fill="white" transform="translate(33.293 10.1719) rotate(23.5702)"/>
</clipPath>
<clipPath id="clip1_10497_102427">
<rect width="55.824" height="57.168" fill="white" transform="translate(52.2227 24.4297)"/>
</clipPath>
<clipPath id="clip2_10497_102427">
<rect width="34.752" height="35.088" fill="white" transform="matrix(-0.988401 -0.15187 -0.15187 0.988401 60.4453 74.9844)"/>
</clipPath>
<clipPath id="clip3_10497_102427">
<rect width="21.792" height="23.904" fill="white" transform="matrix(-0.975333 0.22074 0.22074 0.975333 30.5977 38.7344)"/>
</clipPath>
</defs>
</svg>
