<svg width="181" height="181" viewBox="0 0 181 181" fill="none" xmlns="http://www.w3.org/2000/svg">
<g clip-path="url(#clip0_123_2720)">
<path d="M106.273 30.2192C107.593 30.0338 108.992 31.0183 109.397 32.4182L141.179 142.011C141.585 143.411 140.844 144.696 139.525 144.882L88.6025 152.037C87.2798 152.222 85.8814 151.238 85.4753 149.838L53.6938 40.2448C53.2879 38.8449 54.0282 37.5599 55.351 37.3741L106.273 30.2192ZM88.9187 38.7402C89.9126 38.6005 90.4753 37.624 90.1693 36.5692C89.8632 35.5144 88.801 34.7671 87.8071 34.9067L74.98 36.709C73.9863 36.8487 73.4235 37.8251 73.7295 38.8794C74.0355 39.9337 75.0982 40.682 76.0919 40.5424L88.919 38.7402" fill="white"/>
<path d="M88.2809 152.134C87.0304 152.134 85.7848 151.174 85.4033 149.859L53.6219 40.2657C53.41 39.5349 53.4989 38.7909 53.8658 38.2242C54.0296 37.9721 54.2465 37.7589 54.5013 37.5992C54.7561 37.4396 55.0426 37.3374 55.3409 37.2999L106.263 30.145C107.616 29.955 109.054 30.9654 109.469 32.3973L141.251 141.991C141.463 142.722 141.374 143.466 141.007 144.033C140.843 144.285 140.627 144.498 140.373 144.657C140.119 144.816 139.833 144.919 139.535 144.956L88.6129 152.111C88.5029 152.126 88.392 152.134 88.2809 152.134ZM106.273 30.2192L106.284 30.2933L55.3614 37.4482C55.0844 37.4829 54.8184 37.5777 54.5819 37.7257C54.3453 37.8738 54.1439 38.0717 53.9917 38.3056C53.6484 38.8358 53.5661 39.535 53.7659 40.224L85.5471 149.817C85.9425 151.18 87.3084 152.143 88.592 151.962L139.514 144.808C139.791 144.773 140.056 144.678 140.292 144.53C140.528 144.382 140.729 144.185 140.881 143.951C141.224 143.421 141.307 142.721 141.107 142.032L109.325 32.439C108.93 31.0757 107.566 30.1132 106.284 30.2933L106.273 30.2192ZM75.8497 40.634C74.8974 40.634 73.9484 39.9027 73.6576 38.9003C73.4964 38.3443 73.5654 37.7764 73.8467 37.3418C73.9713 37.1494 74.1363 36.9864 74.3303 36.8643C74.5243 36.7422 74.7426 36.6639 74.9699 36.6348L87.797 34.8326C88.8286 34.6877 89.9253 35.4575 90.2418 36.5486C90.403 37.1046 90.3341 37.6727 90.0527 38.1072C89.9282 38.2996 89.7632 38.4626 89.5692 38.5847C89.3752 38.7068 89.1569 38.7852 88.9295 38.8143L76.1024 40.6165C76.0187 40.6282 75.9343 40.634 75.8497 40.634ZM88.0514 34.9646C87.9731 34.9646 87.8949 34.97 87.8174 34.9809L74.9904 36.7831C74.7843 36.8093 74.5864 36.8802 74.4105 36.9907C74.2346 37.1013 74.085 37.2489 73.972 37.4232C73.7143 37.8212 73.652 38.3444 73.801 38.8586C74.0976 39.8811 75.1203 40.6029 76.081 40.4681L88.9085 38.666C89.1146 38.6397 89.3125 38.5689 89.4884 38.4583C89.6643 38.3477 89.8139 38.2001 89.9269 38.0258C90.1846 37.6278 90.2469 37.1046 90.0979 36.5903C89.8251 35.6507 88.9385 34.9646 88.0514 34.9646Z" fill="#111111"/>
<path d="M87.8072 34.9067C88.801 34.767 89.8638 35.5151 90.1696 36.5695C90.4753 37.6239 89.9127 38.6003 88.9191 38.74L76.092 40.5423C75.0982 40.6819 74.0353 39.9337 73.7296 38.8794C73.4238 37.825 73.9866 36.8485 74.9801 36.7089L87.8072 34.9067Z" fill="#E1D1F3"/>
<path d="M75.8498 40.6339C74.8976 40.6339 73.9484 39.9026 73.6578 38.9002C73.4965 38.3443 73.5654 37.7763 73.8468 37.3418C73.9713 37.1493 74.1363 36.9864 74.3303 36.8643C74.5243 36.7422 74.7426 36.6638 74.97 36.6348L87.797 34.8325C88.8286 34.6875 89.9253 35.4574 90.2417 36.5486C90.403 37.1045 90.334 37.6726 90.0527 38.1071C89.9281 38.2995 89.7631 38.4625 89.5691 38.5846C89.3751 38.7067 89.1568 38.7851 88.9295 38.8142L76.1024 40.6164C76.0187 40.6281 75.9343 40.6339 75.8498 40.6339ZM88.0515 34.9645C87.9732 34.9645 87.8951 34.9699 87.8176 34.9808L74.9906 36.783C74.7845 36.8093 74.5866 36.8801 74.4107 36.9907C74.2348 37.1012 74.0852 37.2488 73.9722 37.4231C73.7144 37.8212 73.6521 38.3444 73.8012 38.8585C74.0738 39.7983 74.9599 40.4842 75.8474 40.4843C75.9257 40.4844 76.0038 40.4789 76.0813 40.4681L88.9086 38.6659C89.1147 38.6396 89.3125 38.5688 89.4884 38.4582C89.6643 38.3477 89.814 38.2001 89.9269 38.0258C90.1847 37.6277 90.247 37.1045 90.0979 36.5903C89.8251 35.6506 88.939 34.9645 88.0515 34.9645Z" fill="#111111"/>
<path d="M140.088 146.823L89.162 153.978C86.8356 154.305 84.3657 152.566 83.6489 150.095L51.8675 40.5014C51.3771 38.8102 51.8344 37.2137 52.9183 36.2693L49.5404 39.2125C48.4564 40.1569 47.9991 41.7534 48.4896 43.4447L80.271 153.038C80.9878 155.51 83.4577 157.248 85.7842 156.921L136.71 149.766C137.401 149.676 138.051 149.385 138.58 148.93L141.957 145.986C141.429 146.442 140.779 146.733 140.088 146.823Z" fill="url(#paint0_linear_123_2720)"/>
<path d="M85.218 157.035C83.039 157.035 80.8659 155.358 80.1991 153.058L48.4177 43.4652C47.9359 41.8038 48.3473 40.1525 49.4912 39.1557L52.8692 36.2125C52.8765 36.2058 52.8852 36.2006 52.8946 36.1972C52.904 36.1939 52.914 36.1924 52.9239 36.193C52.9339 36.1935 52.9437 36.1961 52.9526 36.2005C52.9616 36.2049 52.9696 36.211 52.9762 36.2185C52.9827 36.2261 52.9877 36.2348 52.9909 36.2443C52.994 36.2538 52.9952 36.2638 52.9944 36.2737C52.9936 36.2837 52.9908 36.2934 52.9862 36.3022C52.9816 36.3111 52.9752 36.319 52.9676 36.3253C51.868 37.2836 51.4741 38.8755 51.9394 40.4802L83.7208 150.074C84.3695 152.31 86.4798 153.942 88.5939 153.942C88.7805 153.943 88.9668 153.93 89.1516 153.904L140.077 146.748C140.754 146.659 141.39 146.375 141.908 145.93C141.923 145.917 141.943 145.91 141.963 145.912C141.982 145.913 142.001 145.922 142.014 145.937C142.027 145.952 142.034 145.972 142.032 145.991C142.031 146.011 142.022 146.03 142.007 146.043L138.629 148.986C138.089 149.45 137.426 149.746 136.72 149.84L85.7946 156.995C85.6036 157.022 85.4109 157.035 85.218 157.035ZM52.1987 36.9954L49.5896 39.2687C48.4901 40.227 48.0961 41.8188 48.5615 43.4236L80.343 153.017C81.0486 155.45 83.4849 157.168 85.7738 156.847L136.699 149.692C137.376 149.602 138.013 149.318 138.53 148.873L141.145 146.595C140.812 146.745 140.46 146.847 140.098 146.897L89.1725 154.052C86.8128 154.383 84.3027 152.618 83.577 150.115L51.7956 40.5222C51.4245 39.2424 51.5833 37.9687 52.1987 36.9954Z" fill="#111111"/>
<path d="M105.71 28.2781C108.04 27.9508 110.51 29.6893 111.227 32.1612L143.008 141.754C143.725 144.226 142.417 146.495 140.088 146.822L89.1624 153.978C86.836 154.305 84.366 152.566 83.6493 150.094L51.8675 40.5015C51.1507 38.0296 52.4584 35.7603 54.7878 35.4333L105.71 28.2781ZM141.179 142.011L109.397 32.4183C108.991 31.0184 107.593 30.0339 106.273 30.2192L55.3511 37.3741C54.0283 37.5599 53.2878 38.8449 53.6938 40.2449L85.4752 149.838C85.8812 151.238 87.2799 152.222 88.6026 152.037L139.525 144.882C140.844 144.696 141.585 143.411 141.179 142.011Z" fill="#E1D1F3"/>
<path d="M88.5959 154.092C86.4169 154.092 84.2438 152.415 83.577 150.115L51.7956 40.5223C51.426 39.2476 51.5805 37.9503 52.2198 36.963C52.5038 36.5257 52.8798 36.1556 53.3217 35.8785C53.7635 35.6015 54.2605 35.4241 54.7779 35.3587L105.7 28.2039C108.062 27.872 110.573 29.6379 111.299 32.1403L143.08 141.733C143.45 143.008 143.295 144.305 142.656 145.293C142.372 145.73 141.996 146.1 141.554 146.377C141.112 146.654 140.616 146.831 140.098 146.897L89.1725 154.052C88.9815 154.079 88.7888 154.092 88.5959 154.092ZM105.721 28.3521L54.7986 35.507C54.3025 35.5695 53.826 35.7394 53.4023 36.005C52.9786 36.2705 52.618 36.6252 52.3455 37.0444C51.7299 37.9952 51.5817 39.2476 51.9394 40.4806L83.7208 150.074C84.3693 152.31 86.4798 153.942 88.5938 153.943C88.7804 153.943 88.9668 153.93 89.1516 153.904L140.077 146.749C140.573 146.686 141.05 146.516 141.474 146.251C141.897 145.985 142.258 145.63 142.53 145.211C143.146 144.26 143.294 143.008 142.936 141.775L111.155 32.1819C110.449 29.7483 108.012 28.0303 105.721 28.3521ZM88.281 152.134C87.0305 152.134 85.7847 151.174 85.4033 149.859L53.6219 40.2656C53.41 39.535 53.4989 38.7909 53.8658 38.2242C54.0296 37.9722 54.2465 37.7589 54.5013 37.5992C54.7561 37.4396 55.0426 37.3374 55.3409 37.2998L106.263 30.145C107.616 29.955 109.054 30.9653 109.469 32.3973L141.251 141.991C141.463 142.722 141.374 143.466 141.007 144.033C140.843 144.285 140.627 144.498 140.373 144.657C140.119 144.816 139.833 144.918 139.535 144.956L88.613 152.111C88.503 152.126 88.3921 152.134 88.281 152.134ZM106.596 30.2716C106.492 30.2715 106.387 30.2788 106.284 30.2933L55.3615 37.4481C55.0844 37.4828 54.8183 37.5775 54.5816 37.7256C54.3449 37.8737 54.1434 38.0716 53.9911 38.3056C53.6478 38.8358 53.5655 39.535 53.7653 40.2239L85.5471 149.817C85.9424 151.18 87.3085 152.143 88.5922 151.962L139.514 144.808C139.791 144.773 140.056 144.678 140.292 144.53C140.528 144.382 140.729 144.185 140.881 143.951C141.224 143.421 141.307 142.721 141.107 142.032L109.325 32.439C108.962 31.1862 107.78 30.2716 106.596 30.2716Z" fill="#111111"/>
</g>
<g clip-path="url(#clip1_123_2720)">
<path d="M120.599 57.5159L122.667 59.1922L116.467 61.2859L114.398 59.6095L120.599 57.5159Z" fill="#6817C5"/>
<path d="M116.467 61.3643C116.449 61.3643 116.431 61.3583 116.417 61.3468L114.349 59.6704C114.338 59.6616 114.329 59.65 114.324 59.6368C114.319 59.6237 114.318 59.6094 114.321 59.5956C114.323 59.5817 114.329 59.5688 114.339 59.5582C114.348 59.5475 114.36 59.5396 114.373 59.5351L120.574 57.4414C120.599 57.4328 120.627 57.4379 120.648 57.4547L122.717 59.1311C122.728 59.1399 122.736 59.1515 122.741 59.1647C122.746 59.1779 122.747 59.1921 122.745 59.206C122.742 59.2198 122.736 59.2327 122.727 59.2433C122.718 59.254 122.706 59.262 122.692 59.2664L116.492 61.3601C116.484 61.3628 116.475 61.3643 116.467 61.3643ZM114.558 59.6384L116.483 61.1977L122.507 59.1635L120.583 57.6041L114.558 59.6384Z" fill="#111111"/>
<path d="M142.965 35.9875L145.033 37.6638C148.576 40.535 150.211 45.0284 148.911 49.8044C146.865 57.3213 138.322 62.6916 129.829 61.799C127.044 61.5062 124.609 60.5755 122.667 59.1922L120.599 57.5159C122.541 58.8992 124.975 59.8299 127.761 60.1227C136.253 61.0153 144.797 55.6451 146.843 48.1281C148.143 43.3521 146.508 38.8587 142.965 35.9875Z" fill="#6817C5"/>
<path d="M131.679 61.974C131.061 61.974 130.441 61.9423 129.821 61.8771C127.12 61.5931 124.63 60.6869 122.622 59.2562L120.549 57.577C120.533 57.5641 120.523 57.5456 120.521 57.5254C120.519 57.5052 120.524 57.4849 120.536 57.4687C120.549 57.4525 120.567 57.4417 120.587 57.4386C120.607 57.4355 120.628 57.4404 120.644 57.4521C122.631 58.8672 125.095 59.7636 127.769 60.0447C128.381 60.109 128.996 60.1411 129.612 60.1409C137.419 60.1411 144.882 55.0333 146.767 48.1077C148.015 43.5225 146.575 39.0145 142.915 36.0487C142.907 36.0422 142.9 36.0342 142.895 36.0251C142.89 36.0161 142.887 36.0061 142.886 35.9957C142.885 35.9854 142.885 35.975 142.888 35.965C142.891 35.9551 142.896 35.9458 142.903 35.9377C142.909 35.9297 142.917 35.923 142.927 35.9181C142.936 35.9131 142.946 35.9101 142.956 35.9091C142.966 35.9081 142.977 35.9091 142.987 35.9121C142.997 35.9152 143.006 35.9202 143.014 35.9268L145.082 37.6031C148.792 40.6093 150.252 45.1783 148.987 49.8253C147.084 56.8168 139.553 61.9737 131.679 61.9742L131.679 61.974ZM121.713 58.3179L122.717 59.1314C124.7 60.5435 127.163 61.4399 129.838 61.7211C130.45 61.7853 131.065 61.8174 131.681 61.8173C139.487 61.8174 146.951 56.7097 148.836 49.7839C150.084 45.1988 148.644 40.6908 144.984 37.7249L144.458 37.2986C147.083 40.2329 148.004 44.1622 146.918 48.1489C145.015 55.1404 137.484 60.2973 129.61 60.2977C128.992 60.2977 128.372 60.266 127.752 60.2009C125.55 59.9693 123.488 59.3239 121.713 58.3179L121.713 58.3179Z" fill="#111111"/>
<path d="M135.171 32.9002C143.663 33.7928 148.889 40.6104 146.843 48.1281C144.797 55.645 136.253 61.0153 127.761 60.1227C124.975 59.8299 122.541 58.8992 120.599 57.5159L114.398 59.6095L117.729 54.6619C115.802 51.9531 115.106 48.505 116.089 44.8955C118.135 37.3779 126.679 32.0076 135.171 32.9002Z" fill="white"/>
<path d="M129.61 60.2978C128.992 60.2978 128.373 60.2661 127.752 60.2009C125.066 59.9186 122.589 59.0205 120.586 57.6032L114.423 59.6842C114.408 59.6894 114.391 59.6896 114.375 59.6848C114.36 59.68 114.346 59.6704 114.336 59.6574C114.326 59.6444 114.32 59.6285 114.32 59.6121C114.319 59.5957 114.324 59.5796 114.333 59.566L117.634 54.6634C115.64 51.8343 115.065 48.3606 116.013 44.8752C118.066 37.3342 126.664 31.9278 135.179 32.8224C139.515 33.2781 143.236 35.3443 145.39 38.491C147.308 41.294 147.851 44.7239 146.918 48.1489C145.015 55.1404 137.484 60.2977 129.61 60.2977V60.2978ZM120.599 57.4377C120.615 57.4377 120.631 57.4426 120.644 57.4523C122.631 58.8673 125.095 59.7639 127.769 60.0449C136.211 60.9326 144.734 55.5773 146.767 48.1077C147.687 44.7279 147.152 41.3441 145.26 38.5797C143.133 35.4709 139.452 33.4294 135.162 32.9785C126.72 32.0911 118.198 37.4465 116.165 44.9164C115.224 48.3738 115.802 51.8188 117.793 54.6168C117.803 54.6298 117.808 54.6453 117.808 54.6613C117.808 54.6773 117.803 54.6929 117.795 54.7061L114.593 59.4613L120.574 57.4418C120.582 57.439 120.59 57.4376 120.599 57.4376V57.4377Z" fill="#111111"/>
<path d="M139.681 40.9637C140.029 41.0002 140.341 41.173 140.541 41.4772C140.964 42.1181 140.733 43.1008 140.024 43.6705L129.437 52.2001C129.067 52.4982 128.636 52.6259 128.25 52.5853C127.933 52.5519 127.644 52.4044 127.443 52.1456L123.634 47.2493C123.166 46.6473 123.336 45.6639 124.015 45.0523C124.4 44.7046 124.867 44.5521 125.285 44.596C125.601 44.6292 125.889 44.7756 126.091 45.0354L129.106 48.9115L138.493 41.3492C138.866 41.0496 139.295 40.9232 139.681 40.9637Z" fill="#E1D1F3"/>
<path d="M128.39 52.671C128.34 52.671 128.291 52.6685 128.242 52.6633C127.894 52.6267 127.588 52.46 127.381 52.1939L123.572 47.2975C123.08 46.6647 123.255 45.6314 123.962 44.994C124.351 44.6435 124.835 44.47 125.293 44.518C125.641 44.5545 125.946 44.7212 126.153 44.9872L129.119 48.8004L138.444 41.2881C138.816 40.9884 139.27 40.8416 139.689 40.8856C140.074 40.9261 140.4 41.1209 140.607 41.434C141.051 42.1071 140.812 43.1378 140.074 43.7316L129.486 52.2611C129.157 52.5257 128.765 52.6709 128.39 52.6709L128.39 52.671ZM125.141 44.6671C124.769 44.6671 124.384 44.8246 124.067 45.1106C123.42 45.6941 123.253 46.632 123.696 47.2012L127.505 52.0975C127.685 52.3296 127.953 52.4751 128.258 52.5073C128.636 52.5472 129.048 52.4127 129.388 52.139L139.975 43.6094C140.652 43.0649 140.877 42.1279 140.476 41.5204C140.296 41.2472 140.01 41.0772 139.673 41.0416C139.295 41.0018 138.883 41.1363 138.543 41.4103L129.156 48.9726C129.147 48.9792 129.138 48.984 129.128 48.9869C129.118 48.9898 129.108 48.9907 129.097 48.9895C129.087 48.9883 129.077 48.985 129.068 48.9799C129.059 48.9748 129.051 48.9679 129.044 48.9597L126.03 45.0835C125.846 44.8482 125.586 44.7066 125.276 44.674C125.232 44.6693 125.187 44.667 125.141 44.667L125.141 44.6671Z" fill="#111111"/>
</g>
<g clip-path="url(#clip2_123_2720)">
<path d="M95.0704 70.8781C100.27 68.4769 102.775 62.5095 100.922 56.0636C98.6949 48.3838 91.0221 42.9826 83.7839 43.9997C76.5454 45.0168 72.4832 52.0668 74.7102 59.7468C76.2589 65.0874 80.441 69.3251 85.279 71.0697C86.942 71.6698 88.7117 71.9835 90.4806 71.9275L90.4884 71.9274C91.4386 71.8967 92.3868 71.7617 93.305 71.5145C93.9101 71.3516 94.5006 71.1388 95.0704 70.8781Z" fill="#6817C5"/>
<path d="M90.0688 72.0087C88.4707 72.0087 86.853 71.7171 85.2536 71.14C80.213 69.3223 76.1454 64.9647 74.6383 59.7675C73.5026 55.8513 73.976 51.8681 75.937 48.8394C77.6882 46.1347 80.4712 44.3896 83.7735 43.9257C91.0351 42.9049 98.7604 48.341 100.994 56.0429C101.901 59.1968 101.803 62.2994 100.71 65.0155C99.6466 67.6608 97.6547 69.767 95.1017 70.9461L95.1014 70.9462C94.5279 71.2086 93.9334 71.4229 93.3243 71.5867C92.4175 71.8308 91.4641 71.9706 90.4908 72.0021L90.483 72.0022C90.3452 72.0065 90.207 72.0087 90.0688 72.0087ZM90.4782 71.8527L90.4884 71.9273L90.486 71.8526C91.4478 71.8214 92.3897 71.6833 93.2855 71.4422C93.8865 71.2805 94.473 71.0691 95.039 70.8102C97.5573 69.6472 99.5222 67.5695 100.572 64.9597C101.651 62.2749 101.748 59.2058 100.85 56.0844C98.6366 48.4514 90.9861 43.0641 83.7942 44.0738C80.5357 44.5316 77.7898 46.253 76.0626 48.9207C74.1252 51.9129 73.6585 55.8513 74.782 59.7259C76.276 64.8779 80.308 69.1976 85.3043 70.9994C87.0242 71.6198 88.7649 71.9064 90.4782 71.8527Z" fill="#111111"/>
<path d="M85.6327 50.3753C83.5156 50.6728 82.3277 52.7344 82.979 54.9805C83.6304 57.2267 85.874 58.8061 87.9912 58.5087C90.1081 58.2113 91.296 56.1496 90.6446 53.9034C89.9932 51.6573 87.7496 50.0778 85.6327 50.3753Z" fill="white"/>
<path d="M87.4759 58.6192C85.492 58.6192 83.5138 57.0931 82.9072 55.0013C82.5707 53.8412 82.7115 52.6605 83.2933 51.762C83.8139 50.9579 84.6411 50.4392 85.6223 50.3013C87.7707 49.9996 90.0563 51.6058 90.7164 53.8826C91.0529 55.0429 90.9122 56.2237 90.3303 57.1222C89.8097 57.9262 88.9827 58.4449 88.0016 58.5827C87.8274 58.607 87.6518 58.6192 87.4759 58.6192ZM85.6431 50.4494C84.7054 50.5812 83.9155 51.0762 83.4188 51.8433C82.8607 52.7053 82.7265 53.8413 83.0509 54.9597C83.6912 57.1678 85.9028 58.7264 87.9808 58.4346C88.9183 58.3029 89.7082 57.8079 90.2047 57.0409C90.7629 56.1788 90.8971 55.0427 90.5727 53.9242C89.9324 51.7161 87.7207 50.1572 85.6431 50.4494Z" fill="#111111"/>
<path d="M88.7072 60.9781C84.4666 61.5739 81.9032 65.357 82.5003 69.7523C88.0187 73.1275 95.4395 72.7959 99.3141 67.3897C97.4153 63.1774 92.9476 60.3823 88.7072 60.9781Z" fill="white"/>
<path d="M90.0832 72.018C87.4751 72.018 84.816 71.2563 82.4611 69.8162C82.4517 69.8104 82.4436 69.8026 82.4375 69.7933C82.4315 69.7839 82.4276 69.7734 82.4261 69.7624C82.1327 67.6027 82.5951 65.5199 83.7282 63.8976C84.8746 62.2563 86.6391 61.1932 88.6967 60.904C90.7505 60.6155 92.9633 61.1174 94.9276 62.317C96.8691 63.5028 98.4511 65.2934 99.3821 67.3591C99.3875 67.371 99.3897 67.3842 99.3884 67.3972C99.3871 67.4102 99.3824 67.4227 99.3747 67.4333C97.5502 69.9791 94.7649 71.579 91.5317 71.9384C91.0507 71.9917 90.5671 72.0183 90.0832 72.018ZM82.5696 69.7071C85.3275 71.385 88.5028 72.1246 91.5153 71.7897C94.7372 71.4316 97.4031 69.9075 99.2281 67.3813C98.3069 65.3593 96.7535 63.6074 94.8498 62.4447C92.9149 61.2629 90.7371 60.7686 88.7176 61.0522C86.7015 61.3355 84.9731 62.3764 83.8509 63.9833C82.7456 65.5658 82.2911 67.5974 82.5696 69.7071Z" fill="#111111"/>
<path d="M88.256 75.7859L80.0908 76.9332L81.1962 80.7453L89.3614 79.5979L88.256 75.7859Z" fill="#6817C5"/>
<path d="M81.1961 80.8199C81.1799 80.8199 81.1641 80.8147 81.1512 80.8049C81.1382 80.7952 81.1288 80.7815 81.1243 80.7659L80.0189 76.9538C80.0159 76.9435 80.0152 76.9327 80.0167 76.9221C80.0183 76.9115 80.0221 76.9014 80.0279 76.8924C80.0337 76.8834 80.0414 76.8757 80.0505 76.87C80.0595 76.8642 80.0697 76.8605 80.0803 76.859L88.2456 75.7117C88.2635 75.7091 88.2816 75.7131 88.2968 75.7229C88.3119 75.7327 88.323 75.7476 88.3279 75.765L89.4333 79.577C89.4363 79.5873 89.4371 79.5981 89.4355 79.6087C89.434 79.6193 89.4302 79.6294 89.4243 79.6384C89.4185 79.6474 89.4108 79.6551 89.4018 79.6608C89.3927 79.6666 89.3825 79.6703 89.3719 79.6718L81.2066 80.8192C81.2031 80.8197 81.1996 80.8199 81.1961 80.8199ZM80.1865 76.9951L81.2499 80.662L89.2655 79.5356L88.2022 75.8688L80.1865 76.9951Z" fill="#111111"/>
<path d="M105.54 73.3572L90.6523 75.4491L91.7578 79.2611L106.645 77.1692L105.54 73.3572Z" fill="#6817C5"/>
<path d="M91.7577 79.336C91.7415 79.336 91.7257 79.3307 91.7128 79.321C91.6998 79.3113 91.6904 79.2976 91.6859 79.282L90.5805 75.4699C90.5775 75.4596 90.5767 75.4488 90.5783 75.4382C90.5799 75.4276 90.5837 75.4175 90.5895 75.4085C90.5953 75.3995 90.603 75.3918 90.6121 75.3861C90.6211 75.3803 90.6313 75.3766 90.6419 75.3751L105.529 73.2832C105.547 73.2807 105.565 73.2846 105.581 73.2944C105.596 73.3042 105.607 73.3192 105.612 73.3365L106.717 77.1485C106.72 77.1588 106.721 77.1696 106.719 77.1802C106.718 77.1908 106.714 77.2009 106.708 77.2099C106.702 77.2189 106.695 77.2266 106.686 77.2323C106.677 77.2381 106.666 77.2419 106.656 77.2433L91.7682 79.3353C91.7647 79.3358 91.7612 79.336 91.7577 79.336ZM90.7482 75.5112L91.8115 79.1781L106.549 77.1072L105.486 73.4404L90.7482 75.5112Z" fill="#111111"/>
<path d="M105.498 81.3997L90.0546 83.5696L90.4885 85.0658L105.932 82.8958L105.498 81.3997Z" fill="#E1D1F3"/>
<path d="M90.4884 85.1405C90.4722 85.1405 90.4565 85.1352 90.4435 85.1255C90.4306 85.1157 90.4212 85.1021 90.4167 85.0865L89.9828 83.5903C89.9798 83.58 89.9791 83.5692 89.9806 83.5586C89.9822 83.548 89.986 83.5378 89.9918 83.5288C89.9977 83.5199 90.0054 83.5122 90.0144 83.5065C90.0235 83.5007 90.0336 83.497 90.0443 83.4955L105.487 81.3255C105.505 81.3229 105.523 81.3269 105.539 81.3367C105.554 81.3464 105.565 81.3614 105.57 81.3787L106.004 82.8749C106.007 82.8852 106.007 82.896 106.006 82.9066C106.004 82.9172 106 82.9274 105.995 82.9364C105.989 82.9454 105.981 82.953 105.972 82.9588C105.963 82.9645 105.953 82.9683 105.942 82.9697L90.499 85.1397C90.4955 85.1402 90.492 85.1405 90.4884 85.1405ZM90.1506 83.6316L90.5424 84.9825L105.836 82.8336L105.444 81.4827L90.1506 83.6316Z" fill="#111111"/>
<path d="M84.4103 83.5976L85.2705 86.5638L88.5923 86.097L87.7321 83.1309L84.4103 83.5976Z" fill="white"/>
<path d="M85.2704 86.6387C85.2542 86.6387 85.2384 86.6334 85.2255 86.6236C85.2125 86.6139 85.2031 86.6002 85.1986 86.5847L84.3385 83.6185C84.3355 83.6082 84.3347 83.5974 84.3363 83.5868C84.3379 83.5762 84.3417 83.566 84.3475 83.557C84.3533 83.548 84.361 83.5404 84.3701 83.5346C84.3791 83.5289 84.3893 83.5251 84.3999 83.5236L87.7217 83.0569C87.7395 83.0543 87.7577 83.0583 87.7728 83.0681C87.788 83.0779 87.799 83.0928 87.804 83.1102L88.6641 86.0763C88.6671 86.0866 88.6679 86.0974 88.6663 86.108C88.6648 86.1187 88.661 86.1288 88.6551 86.1378C88.6493 86.1468 88.6416 86.1544 88.6326 86.1602C88.6235 86.1659 88.6133 86.1697 88.6027 86.1712L85.2809 86.6379C85.2774 86.6384 85.2739 86.6387 85.2704 86.6387ZM84.5062 83.6598L85.3243 86.4808L88.4964 86.0351L87.6783 83.214L84.5062 83.6598Z" fill="#111111"/>
<path d="M86.5136 84.9388C86.5 84.9388 86.4867 84.9351 86.4751 84.928L84.3718 83.6615C84.3633 83.6565 84.356 83.6498 84.3502 83.6419C84.3443 83.634 84.3401 83.625 84.3378 83.6155C84.3354 83.6059 84.3349 83.596 84.3364 83.5863C84.3379 83.5766 84.3412 83.5673 84.3463 83.5589C84.3514 83.5504 84.3581 83.5431 84.366 83.5373C84.3739 83.5314 84.3829 83.5272 84.3924 83.5249C84.4019 83.5225 84.4118 83.5221 84.4216 83.5235C84.4313 83.525 84.4406 83.5284 84.449 83.5334L86.4926 84.764L87.671 83.0877C87.6766 83.0797 87.6838 83.0728 87.6921 83.0675C87.7004 83.0623 87.7096 83.0587 87.7193 83.057C87.729 83.0553 87.7389 83.0556 87.7485 83.0577C87.7581 83.0599 87.7672 83.0639 87.7752 83.0695C87.7833 83.0752 87.7901 83.0824 87.7954 83.0907C87.8007 83.0989 87.8042 83.1082 87.8059 83.1179C87.8076 83.1276 87.8074 83.1375 87.8052 83.1471C87.8031 83.1567 87.7991 83.1657 87.7934 83.1738L86.575 84.907C86.568 84.9168 86.5588 84.9249 86.5482 84.9304C86.5375 84.9359 86.5256 84.9388 86.5136 84.9388Z" fill="#111111"/>
<path d="M141.214 142.193L134.195 117.989C133.823 116.705 132.538 115.8 131.328 115.97L94.752 121.11C93.9434 121.223 93.088 120.621 92.8403 119.767L91.479 115.072C91.1068 113.789 89.8258 112.887 88.6161 113.057L77.5844 114.607C76.3715 114.777 75.6933 115.955 76.0655 117.238L85.5532 149.956L85.5693 150.012C85.9658 151.379 87.3326 152.342 88.6213 152.16L139.595 144.998C140.884 144.817 141.611 143.561 141.214 142.193Z" fill="white"/>
<path d="M88.3078 152.257C87.0871 152.257 85.8703 151.319 85.4974 150.033L75.9935 117.259C75.7987 116.587 75.8804 115.904 76.2175 115.383C76.5203 114.915 77.0021 114.613 77.5739 114.533L88.6056 112.983C89.8482 112.809 91.1693 113.736 91.5507 115.051L92.912 119.746C93.1497 120.565 93.9706 121.143 94.7415 121.036L131.318 115.896C132.562 115.721 133.885 116.651 134.267 117.968L141.286 142.173C141.493 142.886 141.405 143.613 141.046 144.167C140.724 144.665 140.212 144.987 139.605 145.072L88.6316 152.234C88.5243 152.25 88.4162 152.257 88.3078 152.257ZM88.9118 113.111C88.8165 113.111 88.7212 113.118 88.6264 113.131L77.5947 114.681C77.0665 114.755 76.6221 115.034 76.3432 115.464C76.0296 115.949 75.9546 116.587 76.1373 117.217L85.6412 149.991C86.0271 151.323 87.3598 152.262 88.6109 152.086L139.585 144.924C140.148 144.845 140.622 144.547 140.921 144.086C141.256 143.568 141.337 142.886 141.142 142.214L134.124 118.01C133.761 116.761 132.512 115.879 131.339 116.045L94.7625 121.184C93.9206 121.302 93.026 120.676 92.7685 119.788L91.4072 115.093C91.0748 113.948 89.9942 113.111 88.9118 113.111Z" fill="#111111"/>
<path d="M111.036 112.52L96.8455 114.514L98.0014 118.501L112.192 116.507L111.036 112.52Z" fill="#6817C5"/>
<path d="M98.0015 118.575C97.9853 118.575 97.9695 118.57 97.9566 118.56C97.9436 118.551 97.9342 118.537 97.9297 118.521L96.7737 114.535C96.7707 114.525 96.77 114.514 96.7715 114.503C96.7731 114.493 96.7769 114.483 96.7827 114.474C96.7886 114.465 96.7963 114.457 96.8053 114.451C96.8144 114.445 96.8245 114.442 96.8352 114.44L111.026 112.446C111.044 112.444 111.062 112.448 111.077 112.458C111.092 112.467 111.103 112.482 111.108 112.5L112.264 116.486C112.267 116.496 112.268 116.507 112.266 116.518C112.265 116.528 112.261 116.538 112.255 116.547C112.249 116.556 112.241 116.564 112.232 116.57C112.223 116.576 112.213 116.579 112.203 116.581L98.012 118.575C98.0085 118.575 98.005 118.575 98.0015 118.575ZM96.9414 114.576L98.0553 118.417L112.096 116.445L110.982 112.604L96.9414 114.576Z" fill="#111111"/>
<path d="M89.0483 115.61L78.6052 117.077L79.7611 121.064L90.2043 119.596L89.0483 115.61Z" fill="#E1D1F3"/>
<path d="M79.761 121.138C79.7448 121.138 79.7291 121.133 79.7161 121.123C79.7032 121.114 79.6938 121.1 79.6893 121.084L78.5333 117.098C78.5303 117.088 78.5296 117.077 78.5311 117.066C78.5327 117.056 78.5365 117.046 78.5423 117.037C78.5481 117.028 78.5558 117.02 78.5649 117.014C78.5739 117.008 78.5841 117.005 78.5947 117.003L89.038 115.536C89.0558 115.533 89.0739 115.537 89.089 115.547C89.1042 115.557 89.1152 115.572 89.1202 115.589L90.2762 119.575C90.2792 119.586 90.28 119.597 90.2784 119.607C90.2769 119.618 90.2731 119.628 90.2672 119.637C90.2614 119.646 90.2537 119.654 90.2447 119.659C90.2356 119.665 90.2254 119.669 90.2148 119.67L79.7716 121.138C79.7681 121.138 79.7646 121.138 79.761 121.138ZM78.701 117.139L79.8149 120.98L90.1085 119.534L88.9946 115.693L78.701 117.139Z" fill="#111111"/>
<path d="M129.277 109.957L118.833 111.425L119.989 115.411L130.432 113.944L129.277 109.957Z" fill="#6817C5"/>
<path d="M119.989 115.486C119.973 115.486 119.957 115.481 119.944 115.471C119.931 115.461 119.922 115.448 119.917 115.432L118.761 111.446C118.758 111.435 118.758 111.425 118.759 111.414C118.761 111.403 118.765 111.393 118.77 111.384C118.776 111.375 118.784 111.368 118.793 111.362C118.802 111.356 118.812 111.352 118.823 111.351L129.266 109.883C129.284 109.881 129.302 109.885 129.317 109.895C129.332 109.904 129.343 109.919 129.348 109.937L130.504 113.923C130.507 113.933 130.508 113.944 130.507 113.955C130.505 113.965 130.501 113.975 130.495 113.984C130.49 113.993 130.482 114.001 130.473 114.007C130.464 114.013 130.454 114.016 130.443 114.018L120 115.485C119.996 115.486 119.993 115.486 119.989 115.486ZM118.929 111.487L120.043 115.328L130.337 113.882L129.223 110.04L118.929 111.487Z" fill="#111111"/>
<path d="M106.337 125.279L81.976 128.702L88.7724 152.139L113.133 148.716L106.337 125.279Z" fill="#6817C5"/>
<path d="M88.7723 152.214C88.7561 152.214 88.7404 152.209 88.7274 152.199C88.7145 152.189 88.7051 152.176 88.7006 152.16L81.9042 128.722C81.9012 128.712 81.9004 128.701 81.902 128.691C81.9035 128.68 81.9074 128.67 81.9132 128.661C81.919 128.652 81.9267 128.644 81.9357 128.639C81.9448 128.633 81.9549 128.629 81.9656 128.628L106.327 125.205C106.363 125.199 106.398 125.222 106.409 125.258L113.205 148.695C113.208 148.706 113.209 148.716 113.207 148.727C113.206 148.738 113.202 148.748 113.196 148.757C113.19 148.766 113.183 148.773 113.174 148.779C113.165 148.785 113.154 148.789 113.144 148.79L88.7829 152.213C88.7794 152.214 88.7758 152.214 88.7723 152.214ZM82.0719 128.764L88.8262 152.056L113.037 148.654L106.283 125.362L82.0719 128.764Z" fill="#111111"/>
<path d="M132.647 121.582L108.29 125.004L115.086 148.442L139.444 145.019L132.647 121.582Z" fill="#6817C5"/>
<path d="M115.086 148.517C115.07 148.517 115.054 148.511 115.041 148.502C115.028 148.492 115.019 148.478 115.014 148.463L108.218 125.025C108.215 125.015 108.214 125.004 108.216 124.993C108.217 124.983 108.221 124.973 108.227 124.964C108.233 124.955 108.24 124.947 108.249 124.941C108.258 124.936 108.269 124.932 108.279 124.93L132.637 121.508C132.655 121.505 132.673 121.509 132.688 121.519C132.703 121.529 132.714 121.544 132.719 121.561L139.516 144.999C139.519 145.009 139.519 145.02 139.518 145.03C139.516 145.041 139.513 145.051 139.507 145.06C139.501 145.069 139.493 145.077 139.484 145.082C139.475 145.088 139.465 145.092 139.454 145.093L115.097 148.516C115.093 148.516 115.09 148.517 115.086 148.517ZM108.386 125.066L115.14 148.359L139.348 144.957L132.594 121.665L108.386 125.066Z" fill="#111111"/>
<path d="M129.516 101.851L125.036 86.4037C124.664 85.1202 123.379 84.2155 122.169 84.3855L70.9092 91.5881C69.6963 91.7585 69.0191 92.9389 69.3912 94.2224L73.8707 109.67C74.2762 111.068 75.6732 112.052 76.9914 111.866L127.86 104.719C129.178 104.533 129.921 103.249 129.516 101.851Z" fill="white"/>
<path d="M76.671 111.963C75.4235 111.963 74.1799 111.005 73.7989 109.691L69.3194 94.2434C69.1244 93.5707 69.2063 92.8856 69.5441 92.3637C69.8469 91.8961 70.328 91.5943 70.8988 91.5141L122.159 84.3115C123.403 84.1362 124.726 85.0658 125.108 86.383L129.587 101.83C129.799 102.559 129.71 103.302 129.343 103.869C129.014 104.377 128.491 104.706 127.87 104.793L77.0018 111.94C76.8922 111.956 76.7817 111.963 76.671 111.963ZM122.465 84.4398C122.37 84.4398 122.275 84.4463 122.179 84.4597L70.9196 91.6622C70.3925 91.7362 69.9486 92.0143 69.6697 92.445C69.3554 92.9304 69.2802 93.5708 69.4631 94.2017L73.9425 109.649C74.3374 111.011 75.7004 111.973 76.981 111.792L127.85 104.645C128.426 104.564 128.912 104.259 129.217 103.787C129.56 103.257 129.643 102.559 129.444 101.872L124.964 86.4246C124.632 85.2773 123.549 84.4398 122.465 84.4398Z" fill="#111111"/>
<path d="M83.8035 91.9543L71.8087 93.6397L72.538 96.1545L84.5327 94.4691L83.8035 91.9543Z" fill="#6817C5"/>
<path d="M72.5378 96.2294C72.5216 96.2293 72.5058 96.2241 72.4929 96.2143C72.48 96.2046 72.4705 96.1909 72.4661 96.1754L71.7368 93.6606C71.7338 93.6503 71.7331 93.6395 71.7346 93.6289C71.7362 93.6183 71.74 93.6081 71.7458 93.5991C71.7516 93.5901 71.7593 93.5825 71.7684 93.5767C71.7774 93.571 71.7876 93.5672 71.7982 93.5658L83.793 91.8804C83.8108 91.8779 83.829 91.8819 83.8441 91.8916C83.8592 91.9014 83.8703 91.9163 83.8753 91.9336L84.6045 94.4483C84.6075 94.4586 84.6083 94.4694 84.6067 94.48C84.6052 94.4906 84.6013 94.5008 84.5955 94.5098C84.5897 94.5188 84.582 94.5264 84.573 94.5322C84.5639 94.5379 84.5537 94.5417 84.5431 94.5431L72.5483 96.2286C72.5448 96.2291 72.5413 96.2294 72.5378 96.2294ZM71.9046 93.7019L72.5917 96.0715L84.4368 94.407L83.7496 92.0375L71.9046 93.7019Z" fill="#111111"/>
<path d="M79.9011 97.8094C77.1137 98.2011 75.5478 100.918 76.4054 103.876C77.263 106.834 80.2206 108.915 83.008 108.524C85.7989 108.132 87.3612 105.415 86.5036 102.457C85.6459 99.4994 82.6919 97.4172 79.9011 97.8094Z" fill="#E1D1F3"/>
<path d="M82.329 108.646C79.7256 108.646 77.1297 106.643 76.3335 103.897C75.8925 102.376 76.077 100.828 76.84 99.6492C77.5222 98.5956 78.6055 97.9158 79.8906 97.7353C82.7098 97.3393 85.7088 99.4481 86.5753 102.436C87.0166 103.958 86.8323 105.507 86.0696 106.685C85.3878 107.738 84.3042 108.417 83.0183 108.598C82.7895 108.63 82.559 108.646 82.329 108.646ZM79.9114 97.8834C78.67 98.0579 77.6238 98.7139 76.9656 99.7304C76.2262 100.872 76.0482 102.376 76.4772 103.855C77.3238 106.775 80.249 108.837 82.9975 108.45C84.2398 108.275 85.2862 107.619 85.944 106.603C86.6832 105.462 86.8608 103.958 86.4316 102.478C85.5851 99.5585 82.66 97.4972 79.9114 97.8834Z" fill="#111111"/>
<path d="M92.3823 96.0557C89.5949 96.4474 88.0292 99.1647 88.8868 102.122C89.7444 105.08 92.7018 107.162 95.4892 106.77C98.2801 106.378 99.8425 103.661 98.9849 100.704C98.1273 97.7458 95.1731 95.6636 92.3823 96.0557Z" fill="#E1D1F3"/>
<path d="M94.8104 106.892C92.2072 106.892 89.6112 104.889 88.8151 102.143C88.3739 100.622 88.5586 99.0738 89.3215 97.8954C90.0037 96.8418 91.087 96.1622 92.372 95.9816C95.1915 95.5856 98.1903 97.6943 99.0568 100.683C99.4981 102.204 99.3139 103.753 98.5512 104.931C97.8694 105.984 96.7856 106.663 95.4997 106.844C95.2708 106.876 95.0404 106.892 94.8104 106.892ZM92.3927 96.1298C91.1513 96.3042 90.1052 96.9601 89.4471 97.9767C88.7077 99.1187 88.5297 100.622 88.9587 102.102C89.8054 105.021 92.7302 107.083 95.4789 106.696C96.7212 106.521 97.7677 105.866 98.4256 104.85C99.1647 103.708 99.3424 102.204 98.9132 100.724C98.0665 97.8048 95.141 95.7434 92.3927 96.1298Z" fill="#111111"/>
<path d="M104.864 94.3018C102.076 94.6935 100.51 97.4108 101.368 100.369C102.226 103.326 105.183 105.408 107.97 105.016C110.761 104.624 112.324 101.907 111.466 98.9496C110.609 95.9919 107.654 93.9097 104.864 94.3018Z" fill="#E1D1F3"/>
<path d="M107.292 105.138C104.688 105.138 102.092 103.135 101.296 100.389C100.855 98.8683 101.04 97.32 101.803 96.1416C102.485 95.0881 103.568 94.4084 104.853 94.2279C107.672 93.8323 110.672 95.9406 111.538 98.9289C111.979 100.451 111.795 101.999 111.032 103.177C110.351 104.23 109.267 104.91 107.981 105.09C107.752 105.122 107.522 105.138 107.292 105.138ZM104.874 94.3759C103.633 94.5504 102.587 95.2063 101.928 96.2228C101.189 97.3648 101.011 98.8682 101.44 100.348C102.287 103.267 105.211 105.329 107.96 104.942C109.202 104.768 110.249 104.112 110.907 103.096C111.646 101.954 111.824 100.451 111.394 98.9705C110.548 96.0511 107.622 93.9901 104.874 94.3759Z" fill="#111111"/>
<path d="M117.345 92.5482C114.557 92.9398 112.992 95.6571 113.849 98.6149C114.707 101.572 117.664 103.654 120.452 103.262C123.243 102.87 124.805 100.154 123.948 97.196C123.09 94.2382 120.136 92.156 117.345 92.5482Z" fill="#E1D1F3"/>
<path d="M119.773 103.384C117.17 103.384 114.574 101.381 113.778 98.6357C113.336 97.1145 113.521 95.5663 114.284 94.3879C114.966 93.3344 116.05 92.6547 117.335 92.4741C120.154 92.0779 123.153 94.1868 124.019 97.1751C124.461 98.6969 124.276 100.245 123.514 101.423C122.832 102.476 121.748 103.156 120.462 103.336C120.233 103.369 120.003 103.384 119.773 103.384ZM117.355 92.6222C116.114 92.7966 115.068 93.4527 114.41 94.4692C113.67 95.6112 113.492 97.1146 113.921 98.594C114.768 101.514 117.693 103.575 120.442 103.188C121.684 103.014 122.73 102.358 123.388 101.342C124.127 100.201 124.305 98.697 123.876 97.2168C123.029 94.2972 120.105 92.2357 117.355 92.6222Z" fill="#111111"/>
</g>
<g clip-path="url(#clip3_123_2720)">
<path d="M31.1269 106.497L33.2819 105.351L36.6937 126.976L34.5387 128.121L31.1269 106.497Z" fill="#111111"/>
<path d="M34.5711 128.201C34.559 128.206 34.546 128.208 34.533 128.207C34.5201 128.207 34.5074 128.203 34.4961 128.196C34.4848 128.19 34.475 128.181 34.4676 128.17C34.4602 128.16 34.4553 128.148 34.4533 128.135L31.0415 106.511C31.0358 106.474 31.0538 106.438 31.0864 106.421L33.2413 105.275C33.2535 105.269 33.267 105.265 33.2808 105.265C33.2946 105.265 33.3082 105.268 33.3205 105.274C33.3329 105.28 33.3436 105.289 33.3517 105.3C33.3598 105.311 33.3652 105.324 33.3673 105.338L36.7791 126.962C36.7819 126.98 36.7791 126.998 36.771 127.014C36.763 127.03 36.7501 127.043 36.7342 127.052L34.5793 128.198C34.5766 128.199 34.5739 128.2 34.5711 128.201ZM31.2219 106.544L34.6052 127.988L36.5987 126.928L33.2154 105.485L31.2219 106.544Z" fill="#111111"/>
<path d="M20.6257 107.762L22.7807 106.617L33.2819 105.351L31.1269 106.497L20.6257 107.762Z" fill="#E1D1F3"/>
<path d="M31.1593 106.577C31.1522 106.58 31.1448 106.582 31.1371 106.583L20.6359 107.848C20.6159 107.851 20.5956 107.846 20.5787 107.835C20.5617 107.824 20.5491 107.808 20.5431 107.788C20.5371 107.769 20.538 107.748 20.5456 107.73C20.5533 107.711 20.5673 107.696 20.5851 107.686L22.7401 106.541C22.7496 106.536 22.7598 106.533 22.7703 106.531L33.2716 105.266C33.2916 105.263 33.3119 105.268 33.3288 105.279C33.3458 105.29 33.3583 105.306 33.3644 105.326C33.3704 105.345 33.3695 105.366 33.3618 105.384C33.3541 105.403 33.3402 105.418 33.3223 105.428L31.1674 106.573C31.1647 106.575 31.162 106.576 31.1592 106.577L31.1593 106.577ZM21.0752 107.621L31.1006 106.413L32.8324 105.493L22.8069 106.701L21.0752 107.621Z" fill="#111111"/>
<path d="M20.6257 107.762L31.1269 106.497L34.5387 128.121L24.0375 129.387L20.6257 107.762Z" fill="#6817C5"/>
<path d="M34.5711 128.201C34.5641 128.204 34.5566 128.206 34.549 128.207L24.0477 129.472C24.0255 129.475 24.0032 129.469 23.9853 129.456C23.9675 129.442 23.9555 129.422 23.9521 129.4L20.5403 107.776C20.5385 107.764 20.5391 107.753 20.5419 107.741C20.5447 107.73 20.5498 107.72 20.5568 107.71C20.5638 107.701 20.5726 107.693 20.5827 107.688C20.5927 107.682 20.6038 107.678 20.6153 107.677L31.1166 106.411C31.1388 106.409 31.1612 106.415 31.179 106.428C31.1969 106.441 31.2088 106.461 31.2123 106.483L34.624 128.108C34.627 128.127 34.6234 128.147 34.6138 128.164C34.6042 128.181 34.5891 128.194 34.571 128.201L34.5711 128.201ZM24.1099 129.291L34.4395 128.046L31.0545 106.593L20.725 107.837L24.1099 129.291Z" fill="#111111"/>
<path d="M30.6379 126.675C31.3541 126.294 31.6079 125.371 31.2049 124.613C30.8019 123.856 29.8947 123.55 29.1785 123.931C28.4624 124.311 28.2085 125.234 28.6115 125.992C29.0146 126.75 29.9218 127.055 30.6379 126.675Z" fill="white"/>
<path d="M30.5415 126.815C30.4206 126.864 30.2925 126.897 30.1594 126.914C29.3041 127.017 28.4946 126.379 28.3548 125.493C28.2849 125.05 28.39 124.616 28.6508 124.271C28.8965 123.946 29.2541 123.74 29.6575 123.692C30.5127 123.589 31.3222 124.226 31.462 125.112C31.5319 125.556 31.427 125.99 31.1664 126.334C31.0017 126.552 30.7868 126.716 30.5414 126.815L30.5415 126.815ZM29.341 123.95C29.1241 124.037 28.9342 124.183 28.7885 124.375C28.5564 124.682 28.4629 125.07 28.5255 125.466C28.651 126.262 29.3746 126.834 30.1387 126.742C30.4954 126.699 30.8114 126.517 31.0287 126.23C31.2607 125.923 31.354 125.536 31.2914 125.139C31.1659 124.344 30.4421 123.771 29.6781 123.863C29.5624 123.877 29.449 123.906 29.341 123.95Z" fill="#111111"/>
<path d="M43.279 92.4253C42.6433 91.2391 41.8561 90.7868 41.1935 90.8665C41.0415 90.8849 40.8943 90.9314 40.7593 91.0037L38.6043 92.1492C38.7393 92.0771 38.8865 92.0306 39.0385 92.0121C39.7011 91.9323 40.4883 92.3847 41.1241 93.571C43.2894 97.6085 41.8677 102.712 41.2519 104.874L43.4069 103.728C44.0227 101.566 45.4444 96.4629 43.279 92.4253Z" fill="#E1D1F3"/>
<path d="M41.2843 104.954C41.2693 104.96 41.2529 104.962 41.2369 104.959C41.221 104.956 41.2061 104.949 41.1941 104.938C41.1821 104.927 41.1733 104.913 41.1688 104.898C41.1643 104.882 41.1643 104.866 41.1688 104.85C41.729 102.883 43.2172 97.6568 41.0478 93.6117C40.4864 92.5642 39.7577 92.0124 39.0487 92.0978C38.9073 92.115 38.7703 92.1583 38.6447 92.2254C38.6244 92.2361 38.6007 92.2384 38.5788 92.2317C38.5569 92.225 38.5386 92.2099 38.5278 92.1896C38.5171 92.1694 38.5148 92.1457 38.5215 92.1238C38.5282 92.1019 38.5434 92.0836 38.5636 92.0728L40.7187 90.9274C40.8631 90.8502 41.0206 90.8005 41.1831 90.7808C41.9666 90.6864 42.7584 91.2711 43.3552 92.3845C45.5578 96.4914 44.0555 101.766 43.49 103.752C43.4868 103.763 43.4814 103.774 43.4741 103.783C43.4667 103.792 43.4577 103.799 43.4474 103.805L41.2924 104.95C41.2897 104.952 41.287 104.953 41.2842 104.954L41.2843 104.954ZM39.2253 91.9168C39.9432 91.9337 40.6535 92.5099 41.2002 93.5301C43.334 97.5089 41.9905 102.584 41.3905 104.702L43.3339 103.669C43.9016 101.676 45.3596 96.4875 43.203 92.4661C42.6416 91.4186 41.9129 90.8669 41.2038 90.9523C41.0624 90.9694 40.9255 91.0127 40.7999 91.0799L39.2254 91.9168L39.2253 91.9168Z" fill="#111111"/>
<path d="M54.4831 118.974L56.6381 117.828C57.9216 117.799 59.0885 118.781 59.3004 120.124C59.4753 121.232 58.9487 122.257 58.0586 122.73L55.9036 123.876C56.7938 123.403 57.3203 122.378 57.1454 121.269C56.9335 119.926 55.7667 118.945 54.4831 118.974Z" fill="#E1D1F3"/>
<path d="M55.9357 123.956C55.9152 123.964 55.8922 123.964 55.8716 123.956C55.8509 123.948 55.8342 123.933 55.8248 123.912C55.8155 123.892 55.8142 123.869 55.8213 123.848C55.8284 123.827 55.8433 123.81 55.863 123.8C56.7427 123.332 57.2238 122.32 57.06 121.283C56.8557 119.987 55.7486 119.031 54.485 119.06C54.4656 119.061 54.4466 119.055 54.431 119.043C54.4155 119.031 54.4044 119.015 54.3995 118.996C54.3894 118.957 54.4072 118.917 54.4426 118.898L56.5976 117.752C56.6097 117.746 56.6228 117.743 56.6363 117.742C57.9859 117.711 59.168 118.729 59.3859 120.11C59.5611 121.221 59.044 122.304 58.0991 122.807L55.944 123.952C55.9413 123.954 55.9386 123.955 55.9359 123.956L55.9357 123.956ZM54.8053 118.9C56.0159 119.024 57.0304 119.987 57.2307 121.256C57.3548 122.043 57.1313 122.816 56.6542 123.379L58.018 122.654C58.8976 122.186 59.3787 121.175 59.215 120.137C59.0117 118.848 57.9154 117.896 56.6603 117.914L54.8053 118.9Z" fill="#111111"/>
<path d="M54.1596 113.782L56.3146 112.636C57.6796 112.472 58.9673 113.487 59.1911 114.904C59.3659 116.013 58.8385 117.039 57.9478 117.513L55.7928 118.658C56.6835 118.185 57.2109 117.159 57.036 116.05C56.8123 114.632 55.5246 113.617 54.1596 113.782Z" fill="#E1D1F3"/>
<path d="M55.8251 118.738C55.8046 118.747 55.7816 118.747 55.761 118.739C55.7403 118.731 55.7236 118.715 55.7142 118.695C55.7049 118.675 55.7036 118.652 55.7107 118.631C55.7178 118.61 55.7327 118.592 55.7523 118.582L55.7531 118.582C56.6332 118.113 57.1144 117.102 56.9506 116.064C56.7347 114.694 55.4871 113.709 54.1699 113.868C54.1499 113.87 54.1296 113.866 54.1127 113.855C54.0957 113.844 54.0832 113.827 54.0771 113.808C54.0711 113.789 54.072 113.768 54.0797 113.749C54.0874 113.731 54.1013 113.715 54.1192 113.706L56.2742 112.56C56.2836 112.555 56.2939 112.552 56.3044 112.551C57.7129 112.381 59.046 113.431 59.2765 114.891C59.4518 116.002 58.9342 117.086 57.9884 117.589L55.8351 118.734C55.8319 118.735 55.8287 118.737 55.8253 118.738L55.8251 118.738ZM54.5359 113.68C55.7942 113.723 56.9123 114.711 57.1214 116.037C57.2456 116.824 57.0218 117.598 56.5441 118.161L57.9074 117.436C58.7881 116.968 59.2696 115.956 59.1057 114.918C58.8905 113.554 57.6523 112.571 56.3409 112.72L54.536 113.68L54.5359 113.68Z" fill="#111111"/>
<path d="M53.7704 108.596L55.9254 107.451C57.2891 107.287 58.577 108.303 58.8008 109.721C58.9757 110.829 58.4481 111.855 57.5577 112.329L55.4027 113.474C56.2931 113.001 56.8207 111.975 56.6458 110.866C56.422 109.448 55.1341 108.432 53.7704 108.596Z" fill="#E1D1F3"/>
<path d="M55.4351 113.554C55.4145 113.563 55.3916 113.563 55.3709 113.555C55.3503 113.547 55.3335 113.531 55.3242 113.511C55.3148 113.491 55.3136 113.468 55.3207 113.447C55.3278 113.426 55.3427 113.408 55.3623 113.398C56.2428 112.93 56.7244 111.918 56.5605 110.88C56.3443 109.509 55.0973 108.524 53.7809 108.682C53.7608 108.685 53.7406 108.68 53.7236 108.669C53.7067 108.658 53.6941 108.642 53.6881 108.622C53.6821 108.603 53.683 108.582 53.6906 108.564C53.6983 108.545 53.7123 108.53 53.7301 108.52L55.8851 107.375C55.8946 107.37 55.9048 107.367 55.9153 107.365C57.323 107.195 58.6557 108.246 58.8864 109.707C59.0616 110.818 58.544 111.902 57.5984 112.405L55.4439 113.55L55.4434 113.551C55.4407 113.552 55.4379 113.553 55.4352 113.554L55.4351 113.554ZM54.1467 108.494C55.4043 108.538 56.522 109.526 56.7313 110.853C56.8555 111.64 56.6316 112.414 56.154 112.977L57.5173 112.252C58.3978 111.784 58.8794 110.772 58.7155 109.734C58.5002 108.369 57.2623 107.386 55.9517 107.535L54.1467 108.494Z" fill="#111111"/>
<path d="M53.66 103.379L55.815 102.233C57.18 102.069 58.4679 103.085 58.6915 104.501C58.8664 105.61 58.339 106.636 57.4482 107.109L55.2932 108.255C56.184 107.781 56.7114 106.755 56.5365 105.647C56.313 104.23 55.025 103.214 53.66 103.379Z" fill="#E1D1F3"/>
<path d="M55.3255 108.335C55.3049 108.344 55.282 108.344 55.2613 108.336C55.2407 108.328 55.2239 108.312 55.2146 108.292C55.2052 108.272 55.204 108.249 55.2111 108.228C55.2182 108.207 55.2331 108.189 55.2527 108.179C56.1334 107.711 56.6149 106.699 56.4511 105.661C56.235 104.291 54.9876 103.306 53.6703 103.465C53.6503 103.467 53.6301 103.462 53.6131 103.451C53.5962 103.44 53.5836 103.424 53.5775 103.405C53.5715 103.385 53.5724 103.365 53.5801 103.346C53.5878 103.327 53.6018 103.312 53.6196 103.303L55.7746 102.157C55.7841 102.152 55.7942 102.149 55.8048 102.147C57.2132 101.978 58.5465 103.028 58.7769 104.488C58.9522 105.599 58.4345 106.683 57.4888 107.186L55.3343 108.331L55.3338 108.331C55.3311 108.333 55.3283 108.334 55.3256 108.335L55.3255 108.335ZM54.0363 103.277C55.2946 103.32 56.4127 104.308 56.6219 105.634C56.746 106.421 56.5221 107.195 56.0445 107.758L57.4077 107.033C58.2883 106.565 58.7699 105.553 58.6061 104.515C58.3909 103.151 57.1526 102.168 55.8413 102.317L54.0364 103.277L54.0363 103.277Z" fill="#111111"/>
<path d="M41.2519 104.874L43.4069 103.728L55.815 102.233L53.66 103.379L41.2519 104.874Z" fill="#E1D1F3"/>
<path d="M53.6924 103.459C53.6854 103.462 53.6778 103.464 53.6703 103.464L41.2622 104.96C41.2421 104.962 41.2219 104.957 41.2049 104.946C41.188 104.936 41.1754 104.919 41.1694 104.9C41.1633 104.881 41.1643 104.86 41.1719 104.841C41.1796 104.822 41.1936 104.807 41.2114 104.798L43.3664 103.652C43.3758 103.647 43.3861 103.644 43.3966 103.643L55.8047 102.147C55.8248 102.145 55.845 102.15 55.862 102.161C55.8789 102.171 55.8915 102.188 55.8975 102.207C55.9035 102.226 55.9026 102.247 55.895 102.266C55.8873 102.285 55.8733 102.3 55.8555 102.309L53.7005 103.455C53.6978 103.456 53.6951 103.458 53.6923 103.459L53.6924 103.459ZM41.7014 104.733L53.6337 103.295L55.3655 102.374L43.4332 103.812L41.7014 104.733Z" fill="#111111"/>
<path d="M39.0384 92.0122C39.7011 91.9325 40.4883 92.3848 41.124 93.571C43.2894 97.6086 41.8676 102.712 41.2519 104.874L53.66 103.379C55.025 103.214 56.3128 104.231 56.5364 105.647C56.7601 107.065 55.8349 108.348 54.4699 108.512L53.7705 108.597C55.1342 108.432 56.4221 109.448 56.6458 110.866C56.8696 112.284 55.9443 113.567 54.5806 113.731L54.1596 113.782C55.5246 113.618 56.8123 114.632 57.036 116.05C57.2597 117.468 56.3345 118.751 54.9695 118.915L54.4831 118.974C55.7665 118.945 56.9334 119.926 57.1454 121.269C57.3691 122.687 56.4449 123.969 55.08 124.133L34.3044 126.637L31.3611 107.982L32.058 107.612C32.3681 106.338 33.0092 103.71 33.8221 102.318C35.2021 99.9532 38.1679 97.5214 37.7217 94.7909C37.4645 93.2171 38.1358 92.121 39.0384 92.0122Z" fill="white"/>
<path d="M55.7185 124.058C55.5199 124.138 55.3092 124.192 55.0903 124.219L34.3148 126.722C34.2926 126.725 34.2702 126.719 34.2523 126.706C34.2345 126.692 34.2226 126.672 34.2191 126.65L31.2758 107.995C31.2701 107.959 31.2881 107.923 31.3207 107.905L31.9833 107.554C32.2957 106.271 32.9339 103.668 33.7476 102.275C34.1592 101.569 34.6978 100.875 35.2679 100.14C36.5838 98.4434 37.9444 96.6893 37.6364 94.8048C37.4885 93.8998 37.6389 93.068 38.0489 92.5228C38.3078 92.1787 38.6466 91.9726 39.0282 91.9265C39.8117 91.8322 40.6035 92.4167 41.2002 93.5303C43.3581 97.5538 41.9599 102.698 41.3705 104.773L53.6497 103.293C55.0582 103.123 56.3914 104.173 56.6219 105.634C56.7371 106.364 56.5642 107.079 56.1352 107.646C55.7701 108.129 55.2546 108.451 54.6693 108.568C55.702 108.824 56.5515 109.714 56.7312 110.853C56.8464 111.583 56.6735 112.298 56.2444 112.866C55.9232 113.29 55.4858 113.591 54.9866 113.736C56.0522 113.968 56.9377 114.872 57.1215 116.037C57.2367 116.767 57.0639 117.482 56.6348 118.049C56.273 118.527 55.7639 118.849 55.1845 118.968C56.2228 119.233 57.0518 120.122 57.2309 121.256C57.3461 121.986 57.1735 122.701 56.7448 123.267C56.4745 123.625 56.1216 123.895 55.7186 124.058L55.7185 124.058ZM34.3768 126.541L55.0697 124.047C55.686 123.973 56.232 123.659 56.6069 123.163C57.007 122.634 57.1679 121.966 57.06 121.283C56.8556 119.987 55.7485 119.031 54.4849 119.06C54.4628 119.061 54.4413 119.053 54.425 119.038C54.4086 119.023 54.3986 119.002 54.397 118.98C54.3955 118.958 54.4025 118.936 54.4165 118.919C54.4306 118.902 54.4507 118.891 54.4727 118.888L54.9592 118.83C55.5756 118.755 56.1215 118.441 56.4969 117.945C56.8974 117.416 57.0585 116.747 56.9506 116.064C56.7346 114.694 55.4871 113.709 54.1699 113.868C54.1586 113.869 54.1472 113.868 54.1362 113.865C54.1253 113.862 54.1151 113.857 54.1062 113.85C54.0972 113.843 54.0898 113.834 54.0842 113.824C54.0787 113.815 54.0751 113.804 54.0737 113.792C54.0724 113.781 54.0733 113.77 54.0763 113.759C54.0794 113.748 54.0846 113.738 54.0916 113.729C54.0986 113.72 54.1073 113.712 54.1172 113.707C54.1271 113.701 54.138 113.698 54.1493 113.696L54.5703 113.646C55.1858 113.571 55.7314 113.257 56.1065 112.761C56.5071 112.232 56.6683 111.564 56.5603 110.88C56.3444 109.511 55.1001 108.526 53.7852 108.682L53.7806 108.682C53.7694 108.684 53.7579 108.683 53.747 108.68C53.7361 108.677 53.7259 108.672 53.7169 108.665C53.708 108.658 53.7006 108.649 53.695 108.639C53.6894 108.629 53.6859 108.618 53.6845 108.607C53.6832 108.596 53.6841 108.584 53.6871 108.573C53.6902 108.562 53.6954 108.552 53.7024 108.543C53.7094 108.534 53.7181 108.527 53.728 108.521C53.7379 108.516 53.7488 108.512 53.7601 108.511L54.4595 108.427C55.0759 108.352 55.6218 108.038 55.9972 107.542C56.3977 107.013 56.5588 106.344 56.4509 105.661C56.2349 104.291 54.9874 103.306 53.6702 103.465L41.2621 104.96C41.2479 104.962 41.2336 104.96 41.2204 104.955C41.2071 104.949 41.1953 104.941 41.1861 104.93C41.1768 104.919 41.1704 104.907 41.1674 104.893C41.1643 104.879 41.1648 104.864 41.1686 104.851C41.7289 102.883 43.2171 97.6572 41.0476 93.612C40.4862 92.5645 39.7576 92.0128 39.0485 92.098C38.7143 92.1382 38.4166 92.3211 38.1868 92.6265C37.805 93.1343 37.6664 93.918 37.8068 94.7769C38.1268 96.7357 36.7428 98.52 35.4043 100.246C34.8377 100.976 34.3026 101.666 33.8967 102.362C33.0877 103.747 32.4488 106.372 32.1419 107.633C32.139 107.645 32.1336 107.656 32.1261 107.665C32.1186 107.675 32.1091 107.683 32.0983 107.689L31.4559 108.029L34.3767 126.541L34.3768 126.541Z" fill="#111111"/>
</g>
<defs>
<linearGradient id="paint0_linear_123_2720" x1="69.4061" y1="37.806" x2="112.414" y2="153.074" gradientUnits="userSpaceOnUse">
<stop stop-color="#111111"/>
<stop offset="0.31" stop-color="#6817C5"/>
<stop offset="0.761" stop-color="#6817C5"/>
<stop offset="1" stop-color="#111111"/>
</linearGradient>
<clipPath id="clip0_123_2720">
<rect width="95.0612" height="128.872" fill="white" transform="translate(48.2184 28.1636)"/>
</clipPath>
<clipPath id="clip1_123_2720">
<rect width="35.114" height="29.2496" fill="white" transform="translate(114.32 32.7249)"/>
</clipPath>
<clipPath id="clip2_123_2720">
<rect width="72.1828" height="108.455" fill="white" transform="translate(69.2144 43.802)"/>
</clipPath>
<clipPath id="clip3_123_2720">
<rect width="41.7024" height="36.3448" fill="white" transform="translate(12.9286 102.165) rotate(-22.0317)"/>
</clipPath>
</defs>
</svg>
