<svg width="24" height="24" viewBox="0 0 24 24" fill="none" xmlns="http://www.w3.org/2000/svg">
<path d="M15.591 8.37526V6.46484H2.47656V15.9151H12.0957V9.13306C12.0957 8.76116 12.4052 8.45914 12.786 8.45914H15.586" fill="#0083E3"/>
<path d="M16.0668 8.37521V6.46479C16.0668 6.21383 15.8477 6 15.5906 6H11.1382H4.09992H2.47615C2.21905 6 2 6.21384 2 6.46479V9.65823V14.7481V15.9149C2 16.1659 2.21906 16.3797 2.47615 16.3797H5.72374H10.8998H12.0951C12.3522 16.3797 12.5712 16.1659 12.5712 15.9149V11.8105V9.52816C12.5712 9.39798 12.5569 9.26326 12.5712 9.13778C12.5855 9.0123 12.6664 8.93788 12.7951 8.92864C12.8951 8.9194 12.9999 8.92864 13.0999 8.92864H15.5903C16.2046 8.92864 16.2046 7.99906 15.5903 7.99906H13.2902C12.9188 7.99906 12.533 7.96193 12.1997 8.15242C11.7901 8.38491 11.6235 8.80319 11.6235 9.24478V14.1533V15.9104C11.7807 15.757 11.9426 15.599 12.0997 15.4456H8.8521H3.67605H2.48077L2.95692 15.9104V12.717V7.62704V6.46027C2.7998 6.61363 2.63787 6.7717 2.48077 6.92506H6.93317H13.9715H15.5952C15.4381 6.77169 15.2762 6.61362 15.1191 6.46027V8.37069C15.1143 8.97003 16.0668 8.97476 16.0668 8.37506L16.0668 8.37521Z" fill="#0083E3"/>
<path d="M8.5332 15.9146V18.5502C8.5332 19.1499 9.4855 19.1499 9.4855 18.5502V15.9146C9.4855 15.3149 8.5332 15.3149 8.5332 15.9146Z" fill="#0083E3"/>
<path d="M5.91876 18.987H11.3282H12.0948C12.7092 18.987 12.7092 18.0574 12.0948 18.0574H6.68538H5.91876C5.30443 18.0574 5.30443 18.987 5.91876 18.987V18.987Z" fill="#0083E3"/>
<path d="M19.0481 10.8338V9.82983H13.6387V18.4201H16.3435V10.8711H19.0483" fill="#0083E3"/>
<path d="M19.5237 10.8338V9.82978C19.5237 9.57882 19.3046 9.36499 19.0476 9.36499H14.3192H13.6383C13.3812 9.36499 13.1621 9.57883 13.1621 9.82978V12.735V17.3601V18.4198C13.1621 18.6708 13.3812 18.8846 13.6383 18.8846H16.3431C16.6002 18.8846 16.8192 18.6708 16.8192 18.4198V11.8192V11.3475V10.8757C16.6621 11.0291 16.5002 11.1871 16.3431 11.3405H19.0479C19.6622 11.3405 19.6622 10.4109 19.0479 10.4109H16.3431C16.086 10.4109 15.8669 10.6247 15.8669 10.8757V17.4763V18.4198L16.3431 17.955H13.6383C13.7954 18.1084 13.9573 18.2665 14.1144 18.4198V15.5146V10.8896V9.82978C13.9573 9.98315 13.7954 10.1412 13.6383 10.2946H18.3666H19.0476C18.8904 10.1412 18.7285 9.98314 18.5714 9.82978V10.8338C18.5712 11.4335 19.5237 11.4335 19.5237 10.8338Z" fill="#0083E3"/>
<path d="M17.7861 12.3445H21.5243V18.4616H17.7861V12.3445Z" fill="#0083E3"/>
<path d="M21.5249 17.9974H17.7867C17.9438 18.1508 18.1057 18.3088 18.2628 18.4622V13.1166V12.3449C18.1057 12.4983 17.9438 12.6564 17.7867 12.8097H21.5249L21.0487 12.3449V17.6905V18.4622C21.0487 19.0619 22.001 19.0619 22.001 18.4622V13.1166V12.3449C22.001 12.094 21.782 11.8801 21.5249 11.8801H17.7867C17.5296 11.8801 17.3105 12.094 17.3105 12.3449V17.6905V18.4622C17.3105 18.7132 17.5296 18.927 17.7867 18.927H21.5249C22.1344 18.927 22.1344 17.9974 21.5249 17.9974V17.9974Z" fill="#0083E3"/>
</svg>
