<svg width="180" height="180" viewBox="0 0 180 180" fill="none" xmlns="http://www.w3.org/2000/svg">
<g clip-path="url(#clip0_123_2877)">
<g clip-path="url(#clip1_123_2877)">
<path d="M70.4021 37.6059L60.5821 21.8L58.6646 24.3724L68.4845 40.1783C68.4544 40.2502 68.1971 40.8645 67.5634 41.7147L69.4808 39.1422C70.1146 38.2919 70.372 37.6778 70.4021 37.6059Z" fill="#D63638"/>
<path d="M67.5005 41.8597C67.4787 41.8502 67.4593 41.8359 67.4437 41.8179C67.4282 41.7998 67.417 41.7785 67.4109 41.7555C67.4047 41.7325 67.4039 41.7084 67.4084 41.685C67.4129 41.6616 67.4226 41.6395 67.4369 41.6204L67.4387 41.6178C67.9456 40.9373 68.2067 40.414 68.3067 40.1913L58.5305 24.456C58.5137 24.4291 58.5055 24.3977 58.5068 24.3659C58.5082 24.3342 58.5191 24.3036 58.5381 24.2782L60.4556 21.7058C60.471 21.6851 60.4911 21.6686 60.5144 21.6575C60.5376 21.6465 60.5632 21.6413 60.5889 21.6424C60.6146 21.6434 60.6396 21.6508 60.6618 21.6638C60.684 21.6767 60.7027 21.6949 60.7163 21.7168L70.5362 37.5227C70.5495 37.5441 70.5575 37.5684 70.5595 37.5935C70.5615 37.6186 70.5575 37.6439 70.5477 37.6672C70.4787 37.8322 70.2065 38.4331 69.6075 39.2369L67.6901 41.8094C67.6688 41.8379 67.6385 41.8584 67.604 41.8675C67.5696 41.8767 67.5331 41.8739 67.5005 41.8597ZM58.8558 24.3807L68.5985 40.0621L69.3545 39.0479C69.8627 38.3662 70.1241 37.8419 70.2243 37.619L60.5703 22.0802L58.8558 24.3807Z" fill="#111111"/>
<path d="M64.4388 56.8929L62.5214 59.4653C61.9485 59.4233 51.0662 58.6249 46.1053 50.6397C40.9832 42.3954 39.949 36.2856 42.876 32.3586L44.7934 29.7861C41.8665 33.713 42.9006 39.823 48.0226 48.0674C52.9837 56.0524 63.866 56.851 64.4387 56.893" fill="#D63638"/>
<path d="M54.2156 57.5136C51.2196 56.2065 48.0707 54.1025 45.9711 50.7231C40.8489 42.4786 39.7649 36.268 42.7495 32.2641L44.6669 29.6917C44.692 29.6581 44.7293 29.6358 44.7708 29.6298C44.8122 29.6238 44.8544 29.6344 44.888 29.6595C44.9216 29.6845 44.9438 29.7219 44.9498 29.7634C44.9559 29.8048 44.9452 29.847 44.9201 29.8806C42.0212 33.7699 43.1102 39.8609 48.1571 47.9839C52.9384 55.6797 63.2863 56.6501 64.4506 56.7354C64.4789 56.7374 64.506 56.747 64.5293 56.7632C64.5526 56.7793 64.571 56.8015 64.5828 56.8272C64.5945 56.853 64.5991 56.8815 64.5961 56.9097C64.5931 56.9378 64.5825 56.9647 64.5655 56.9874L62.6481 59.5598C62.6158 59.6029 62.5637 59.6269 62.5099 59.6229C61.8389 59.5738 58.1598 59.2343 54.2158 57.5136L54.2156 57.5136ZM43.5893 31.6657L43.0025 32.453C40.1036 36.3422 41.1927 42.4333 46.2395 50.5562C50.9192 58.0888 60.933 59.1782 62.4468 59.3011L64.1424 57.0263C62.0843 56.8314 52.4789 55.5392 47.8886 48.1505C43.5436 41.1571 42.1044 35.627 43.5893 31.6657Z" fill="#111111"/>
<path d="M128.239 142.991L126.321 145.563C127.205 144.378 127.259 142.654 126.309 141.126C125.009 139.034 122.323 138.102 120.31 139.043C119.767 139.297 119.328 139.661 119.003 140.098L120.92 137.526C121.246 137.089 121.685 136.725 122.227 136.471C124.241 135.53 126.927 136.462 128.226 138.553C129.176 140.082 129.122 141.806 128.239 142.991Z" fill="#D63638"/>
<path d="M126.258 145.708C126.237 145.699 126.217 145.684 126.202 145.666C126.186 145.648 126.175 145.627 126.169 145.604C126.163 145.581 126.162 145.557 126.166 145.533C126.171 145.51 126.181 145.488 126.195 145.469L126.196 145.467C127.065 144.3 127.057 142.629 126.175 141.209C124.918 139.187 122.317 138.28 120.377 139.187C119.87 139.424 119.45 139.762 119.129 140.193C119.104 140.227 119.067 140.249 119.025 140.255C118.984 140.261 118.942 140.25 118.908 140.225C118.875 140.2 118.852 140.163 118.846 140.121C118.84 140.08 118.851 140.038 118.876 140.004L120.793 137.432C121.146 136.959 121.606 136.587 122.161 136.328C124.241 135.356 127.022 136.317 128.36 138.47C129.312 140.001 129.314 141.813 128.365 143.085L126.45 145.656L126.448 145.658C126.427 145.686 126.396 145.707 126.362 145.716C126.327 145.725 126.291 145.722 126.258 145.708ZM124.014 138.952C124.982 139.375 125.853 140.092 126.443 141.043C127.091 142.085 127.298 143.257 127.066 144.3L128.112 142.896C128.982 141.729 128.974 140.057 128.092 138.637C126.836 136.614 124.235 135.707 122.294 136.614C121.788 136.851 121.368 137.19 121.047 137.62L120 139.025C120.079 138.981 120.16 138.94 120.243 138.901C121.406 138.357 122.788 138.417 124.014 138.952Z" fill="#111111"/>
<path d="M127.949 145.681C125.057 147.034 121.201 145.722 119.295 142.74L64.4388 56.893L62.5213 59.4654L117.377 145.313C119.284 148.295 123.139 149.606 126.032 148.254C126.818 147.886 127.454 147.359 127.926 146.725L129.844 144.153C129.371 144.786 128.736 145.314 127.949 145.681Z" fill="#D63638"/>
<path d="M120.682 148.313C119.319 147.719 118.088 146.718 117.244 145.398L62.3882 59.5506C62.3709 59.5235 62.3622 59.4918 62.3634 59.4597C62.3646 59.4276 62.3755 59.3966 62.3947 59.3709L64.3122 56.7985C64.3274 56.778 64.3475 56.7615 64.3705 56.7505C64.3935 56.7395 64.4189 56.7342 64.4444 56.7351C64.4699 56.736 64.4948 56.7431 64.517 56.7557C64.5392 56.7684 64.558 56.7863 64.5717 56.8078L119.428 142.655C121.283 145.557 125.075 146.85 127.883 145.538C128.627 145.19 129.244 144.692 129.717 144.058C129.73 144.041 129.745 144.027 129.763 144.017C129.781 144.006 129.8 143.999 129.821 143.996C129.842 143.993 129.862 143.994 129.883 143.999C129.903 144.004 129.922 144.013 129.938 144.026C129.955 144.038 129.969 144.054 129.979 144.072C129.99 144.089 129.997 144.109 130 144.13C130.003 144.15 130.002 144.171 129.997 144.191C129.992 144.211 129.983 144.23 129.97 144.247L128.053 146.819C127.549 147.496 126.891 148.026 126.099 148.397C124.437 149.174 122.447 149.084 120.682 148.314L120.682 148.313ZM62.7132 59.4723L117.511 145.228C119.365 148.13 123.158 149.423 125.965 148.11C126.71 147.762 127.328 147.265 127.8 146.63L128.671 145.462C128.461 145.598 128.243 145.719 128.017 145.824C125.071 147.201 121.099 145.856 119.162 142.826L64.4287 57.1706L62.7132 59.4723Z" fill="#111111"/>
<path d="M60.582 21.7999C66.485 21.0217 72.3099 25.093 77.9048 34.0986C82.8659 42.0837 77.6505 50.4071 77.3761 50.8452L129.875 137.794C131.699 140.815 130.841 144.329 127.95 145.681C125.057 147.033 121.201 145.722 119.295 142.74L64.4388 56.8928C63.8659 56.8507 52.9836 56.0523 48.0227 48.0671C42.4275 39.0616 41.7102 32.6027 45.7054 28.754L55.5252 44.5599C55.7296 44.6022 59.6125 45.4038 64.2904 43.217C68.9671 41.0309 70.3301 37.7771 70.4019 37.6058L60.582 21.7999ZM126.933 144.044C128.946 143.103 129.526 140.645 128.226 138.553C126.927 136.462 124.241 135.53 122.227 136.471C120.213 137.413 119.633 139.871 120.932 141.963C122.232 144.054 124.918 144.986 126.933 144.044Z" fill="#FACFD2"/>
<path d="M122.599 145.741C121.236 145.146 120.006 144.146 119.162 142.825L64.348 57.0444C62.8412 56.9229 52.6579 55.8272 47.8885 48.1505C42.2871 39.135 41.5159 32.5709 45.5958 28.6403C45.6128 28.624 45.6332 28.6116 45.6556 28.6042C45.6779 28.5968 45.7016 28.5945 45.725 28.5974C45.7484 28.6003 45.7708 28.6084 45.7906 28.6211C45.8104 28.6338 45.8272 28.6508 45.8396 28.6708L55.6234 44.4184C56.2737 44.5414 59.9047 45.0931 64.2237 43.0742C68.487 41.0813 69.9611 38.2027 70.2242 37.619L60.448 21.8834C60.434 21.8609 60.4259 21.8354 60.4243 21.809C60.4228 21.7826 60.4279 21.7562 60.4392 21.7324C60.4505 21.7085 60.4676 21.6878 60.489 21.6722C60.5104 21.6567 60.5353 21.6467 60.5615 21.6433C66.5666 20.8516 72.4469 25.0144 78.0391 34.0154C82.7878 41.6585 78.3164 49.6094 77.5612 50.8463L130.011 137.713C130.965 139.294 131.236 141.107 130.756 142.687C130.331 144.083 129.358 145.197 128.016 145.825C126.354 146.601 124.365 146.511 122.599 145.741L122.599 145.741ZM64.502 56.748C64.5303 56.7604 64.5547 56.781 64.5719 56.8077L119.428 142.655C121.283 145.557 125.076 146.85 127.883 145.538C129.143 144.949 130.055 143.904 130.454 142.595C130.908 141.1 130.648 139.38 129.74 137.876L77.2409 50.9271C77.2257 50.902 77.2179 50.8733 77.2181 50.844C77.2184 50.8147 77.2268 50.7861 77.2423 50.7613C77.7988 49.8732 82.542 41.8617 77.7708 34.182C72.3263 25.4191 66.6342 21.2974 60.8472 21.9272L70.5362 37.5224C70.5495 37.5438 70.5575 37.5681 70.5595 37.5933C70.5615 37.6184 70.5575 37.6437 70.5478 37.6669C70.3987 38.0232 68.958 41.2097 64.3574 43.3602C59.7651 45.507 55.9172 44.8022 55.4934 44.7147C55.4724 44.7104 55.4525 44.7018 55.435 44.6895C55.4174 44.6773 55.4025 44.6616 55.3912 44.6434L45.6756 29.0053C41.8764 32.8344 42.7106 39.2177 48.157 47.9837C52.9383 55.6796 63.2862 56.6499 64.4505 56.7352C64.4683 56.7365 64.4858 56.7408 64.5022 56.7479L64.502 56.748ZM123.227 144.136C122.259 143.714 121.389 142.996 120.798 142.046C120.11 140.939 119.906 139.662 120.238 138.544C120.531 137.558 121.214 136.77 122.161 136.328C124.241 135.355 127.023 136.316 128.361 138.47C129.049 139.578 129.253 140.854 128.921 141.972C128.628 142.958 127.945 143.745 127 144.187C125.836 144.731 124.454 144.671 123.227 144.136ZM125.803 136.666C124.66 136.167 123.375 136.109 122.294 136.614C121.431 137.018 120.808 137.735 120.541 138.634C120.234 139.666 120.426 140.848 121.067 141.879C122.323 143.902 124.925 144.809 126.866 143.901C127.729 143.498 128.351 142.781 128.618 141.883C128.925 140.851 128.733 139.668 128.092 138.637C127.535 137.74 126.714 137.063 125.803 136.666Z" fill="#111111"/>
</g>
<g clip-path="url(#clip2_123_2877)">
<path d="M161.865 117.825L151.468 44.3541C151.423 44.0328 151.333 43.7196 151.198 43.4244L149.096 38.8271C149.231 39.1224 149.321 39.4355 149.366 39.7569L159.763 113.228C160.154 115.992 157.185 118.331 154.417 117.436L80.91 93.6798C79.8939 93.3514 79.1851 92.6771 78.8127 91.8627L80.9148 96.4599C81.2873 97.2744 81.9961 97.9487 83.0122 98.2771L156.519 122.034C159.287 122.928 162.257 120.59 161.865 117.825Z" fill="#D63638"/>
<path d="M157.759 122.401C157.325 122.401 156.89 122.334 156.466 122.198L82.9593 98.441C81.9544 98.1163 81.1728 97.4381 80.7582 96.5316L78.656 91.9341C78.637 91.8925 78.6353 91.845 78.6512 91.8021C78.6671 91.7592 78.6994 91.7244 78.741 91.7053C78.7826 91.6863 78.83 91.6845 78.8729 91.7005C78.9157 91.7164 78.9505 91.7488 78.9695 91.7904C79.3433 92.6079 80.0514 93.2205 80.9631 93.5152L154.47 117.272C155.768 117.691 157.19 117.395 158.276 116.48C159.268 115.644 159.76 114.437 159.592 113.252L149.195 39.7807C149.153 39.4774 149.068 39.1818 148.942 38.9029L148.939 38.8986C148.92 38.857 148.919 38.8095 148.935 38.7666C148.951 38.7237 148.983 38.6889 149.024 38.6698C149.045 38.6603 149.067 38.655 149.09 38.6542C149.112 38.6533 149.135 38.657 149.156 38.6649C149.177 38.6728 149.197 38.6848 149.213 38.7002C149.23 38.7157 149.243 38.7342 149.253 38.7549L151.355 43.3523C151.496 43.6627 151.591 43.992 151.638 44.3298L162.035 117.8C162.22 119.105 161.684 120.428 160.6 121.342C159.776 122.036 158.772 122.401 157.759 122.401ZM79.5944 93.1573L81.0717 96.3878C81.4455 97.2054 82.1536 97.8179 83.0653 98.1126L156.573 121.869C157.87 122.289 159.293 121.993 160.378 121.078C161.37 120.242 161.862 119.034 161.694 117.849L151.297 44.3781C151.255 44.0733 151.169 43.7762 151.042 43.496L149.633 40.4148L159.933 113.203C160.118 114.507 159.582 115.831 158.498 116.745C157.321 117.737 155.776 118.057 154.365 117.6L80.8573 93.8437C80.3811 93.6898 79.9551 93.4565 79.5944 93.1573Z" fill="#111111"/>
<path d="M159.763 113.227C160.154 115.992 157.185 118.331 154.417 117.436L80.91 93.6796C78.1445 92.7858 77.6547 89.3293 80.0304 87.459L143.14 37.7446C144.328 36.8092 145.787 36.6213 146.998 37.0124C148.208 37.4036 149.171 38.3742 149.366 39.7563L159.763 113.227V113.227Z" fill="white"/>
<path d="M155.657 117.804C155.223 117.804 154.787 117.737 154.364 117.6L80.8571 93.8437C79.5463 93.4201 78.6248 92.39 78.3921 91.0883C78.141 89.6835 78.7135 88.276 79.9237 87.3232L143.034 37.6089C144.194 36.6953 145.695 36.4106 147.051 36.8483C148.414 37.2892 149.344 38.3673 149.536 39.7324L159.933 113.203C160.118 114.507 159.581 115.831 158.498 116.744C157.674 117.439 156.669 117.804 155.657 117.804L155.657 117.804ZM145.767 36.9917C144.877 36.9917 143.987 37.2973 143.247 37.8802L80.1367 87.5945C79.0284 88.4671 78.5031 89.7505 78.7313 91.0275C78.9412 92.2016 79.7753 93.1316 80.9627 93.5154L154.47 117.272C155.767 117.691 157.19 117.396 158.276 116.48C159.268 115.644 159.76 114.437 159.592 113.252C159.424 112.066 149.195 39.7807 149.195 39.7807C149.021 38.5494 148.18 37.576 146.944 37.1767C146.564 37.0539 146.166 36.9915 145.767 36.9917Z" fill="#111111"/>
<path d="M142.459 58.1272L129.793 85.8692L123.228 83.7475L134.556 55.5732L142.459 58.1272Z" fill="#D63638"/>
<path d="M129.793 86.0419C129.775 86.0419 129.757 86.0391 129.739 86.0336L123.174 83.9119C123.152 83.9047 123.131 83.8929 123.113 83.8772C123.096 83.8616 123.081 83.8424 123.071 83.8209C123.061 83.7995 123.056 83.7762 123.055 83.7525C123.054 83.7288 123.059 83.7053 123.068 83.6833L134.396 55.5091C134.413 55.4685 134.444 55.4356 134.483 55.4171C134.523 55.3986 134.568 55.3958 134.609 55.4093L142.511 57.9632C142.535 57.9707 142.556 57.9831 142.574 57.9994C142.592 58.0157 142.606 58.0357 142.616 58.0579C142.626 58.0802 142.631 58.1043 142.631 58.1286C142.63 58.153 142.625 58.177 142.615 58.1991L129.949 85.9411C129.935 85.9712 129.913 85.9967 129.885 86.0145C129.858 86.0324 129.825 86.0419 129.792 86.0419H129.793ZM123.456 83.6403L129.699 85.658L142.221 58.2321L134.656 55.787L123.456 83.6403Z" fill="#111111"/>
<path d="M126.862 92.4979L124.144 98.8495L117.579 96.7278L120.297 90.3762L126.862 92.4979Z" fill="#D63638"/>
<path d="M124.144 99.0221C124.126 99.0221 124.109 99.0193 124.091 99.0138L117.526 96.8921C117.503 96.8847 117.482 96.8727 117.464 96.8567C117.446 96.8407 117.432 96.8212 117.422 96.7993C117.412 96.7775 117.407 96.7538 117.407 96.7297C117.406 96.7057 117.411 96.6819 117.421 96.6599L120.138 90.3081C120.155 90.2685 120.186 90.2366 120.225 90.2188C120.265 90.201 120.309 90.1985 120.35 90.2118L126.915 92.3335C126.938 92.3409 126.959 92.3529 126.977 92.3689C126.995 92.3849 127.009 92.4044 127.019 92.4263C127.029 92.4482 127.034 92.4719 127.034 92.4959C127.035 92.5199 127.03 92.5437 127.02 92.5658L124.302 98.9175C124.289 98.9486 124.267 98.975 124.239 98.9936C124.211 99.0122 124.178 99.0221 124.144 99.0221ZM117.812 96.6217L124.048 98.637L126.629 92.6039L120.394 90.5887L117.812 96.6217Z" fill="#111111"/>
</g>
<g clip-path="url(#clip3_123_2877)">
<path d="M35.3264 132.382L35.3606 137.085C35.4007 142.57 37.4702 148.067 41.6475 152.524C50.9206 162.417 67.0705 163.436 77.7195 154.799C83.5735 150.051 86.5468 143.374 86.4979 136.681L86.4637 131.978C86.5125 138.671 83.5392 145.348 77.6852 150.096C67.0362 158.733 50.8862 157.714 41.6132 147.821C37.4359 143.364 35.3664 137.867 35.3264 132.382Z" fill="url(#paint0_linear_123_2877)"/>
<path d="M56.685 160.495C64.0082 161.621 71.8005 159.812 77.8232 154.927C83.4921 150.329 86.7139 143.678 86.6629 136.679L86.6284 131.976C86.6271 131.933 86.609 131.892 86.578 131.863C86.547 131.833 86.5055 131.816 86.4625 131.816C86.4194 131.817 86.3782 131.834 86.3476 131.864C86.317 131.895 86.2995 131.936 86.2988 131.979C86.3493 138.876 83.1719 145.433 77.5816 149.967C67.0151 158.538 50.9337 157.524 41.7334 147.708C37.7506 143.458 35.5338 138.018 35.4911 132.387L35.4912 132.38C35.4898 132.337 35.4717 132.297 35.4407 132.267C35.4097 132.237 35.3682 132.22 35.3252 132.221C35.2821 132.221 35.2409 132.238 35.2103 132.268C35.1798 132.299 35.1622 132.34 35.1615 132.383L35.196 137.086C35.2377 142.802 37.4862 148.325 41.5274 152.636C45.5984 156.98 51.0005 159.622 56.685 160.495ZM86.3268 135.809L86.3333 136.682C86.3836 143.579 83.2062 150.136 77.6159 154.67C67.0497 163.24 50.968 162.227 41.7679 152.411C37.7834 148.16 35.5667 142.717 35.5256 137.083L35.5192 136.195C36.3041 140.52 38.3598 144.59 41.4929 147.933C50.8091 157.873 67.0913 158.9 77.7892 150.224C82.4105 146.475 85.4057 141.363 86.3268 135.809Z" fill="#111111"/>
<path d="M44.1029 114.266C33.4539 122.904 32.3386 137.926 41.6132 147.821C50.8862 157.714 67.0362 158.733 77.6852 150.096C88.3359 141.457 89.4512 126.435 80.1782 116.541C70.9037 106.646 54.7537 105.628 44.1029 114.266Z" fill="#FACFD2"/>
<path d="M56.6506 155.792C63.9738 156.918 71.7663 155.109 77.7889 150.224C83.0164 145.984 86.1371 140.104 86.577 133.668C87.0097 127.332 84.78 121.21 80.2985 116.428C70.9816 106.488 54.6979 105.461 43.9992 114.138C38.7728 118.377 35.6526 124.256 35.213 130.691C34.7801 137.028 37.0104 143.151 41.4928 147.933C45.564 152.277 50.9662 154.919 56.6506 155.792ZM65.0881 108.893C70.7029 109.756 76.0369 112.364 80.0578 116.654C84.4761 121.368 86.6746 127.402 86.248 133.646C85.8147 139.989 82.7369 145.786 77.5814 149.967C67.015 158.538 50.9335 157.524 41.7333 147.708C37.3141 142.993 35.1153 136.958 35.5418 130.714C35.9752 124.371 39.0523 118.575 44.2066 114.394C50.1559 109.569 57.8549 107.782 65.0881 108.893Z" fill="#111111"/>
<path d="M59.0785 117.96C60.3471 116.931 62.7452 117.556 64.4331 119.357C66.121 121.158 66.4597 123.453 65.1911 124.482C63.9225 125.511 61.5261 124.885 59.8382 123.084C58.1503 121.283 57.8099 118.989 59.0785 117.96Z" fill="#111111"/>
<path d="M63.0793 125.092C63.932 125.223 64.7217 125.075 65.2948 124.61C65.7841 124.213 66.0681 123.631 66.1163 122.926C66.1965 121.75 65.6123 120.374 64.5534 119.244C62.8101 117.384 60.3074 116.751 58.9745 117.832C58.4858 118.229 58.2019 118.81 58.1537 119.515C58.0736 120.69 58.6582 122.066 59.7179 123.197C60.7108 124.256 61.9503 124.918 63.0793 125.092ZM61.1431 117.668C62.1956 117.83 63.3678 118.462 64.3128 119.47C65.3103 120.534 65.8615 121.817 65.7874 122.903C65.7455 123.515 65.5035 124.016 65.0874 124.354C63.8864 125.328 61.5857 124.707 59.9586 122.971C58.9603 121.906 58.4087 120.622 58.4828 119.537C58.5246 118.927 58.7664 118.426 59.1822 118.088C59.686 117.68 60.3833 117.551 61.1431 117.668ZM45.9978 128.57C47.2664 127.541 49.6629 128.167 51.3508 129.968C53.0387 131.769 53.3791 134.062 52.1105 135.091C50.8419 136.12 48.4455 135.494 46.7575 133.693C45.0696 131.892 44.7292 129.599 45.9978 128.57Z" fill="#111111"/>
<path d="M49.9989 135.701C50.8516 135.832 51.6413 135.685 52.2144 135.22C52.7032 134.823 52.987 134.241 53.0352 133.537C53.1153 132.362 52.5307 130.986 51.471 129.855C49.7281 127.995 47.226 127.361 45.8941 128.442C45.4054 128.838 45.1215 129.42 45.0733 130.124C44.9932 131.299 45.5778 132.676 46.6375 133.806C47.6304 134.866 48.8698 135.527 49.9989 135.701ZM48.0603 128.278C49.1126 128.44 50.2849 129.072 51.2305 130.081C52.2287 131.146 52.7804 132.429 52.7062 133.514C52.6645 134.125 52.4227 134.626 52.0069 134.963C50.8062 135.937 48.5059 135.317 46.8781 133.581C45.8799 132.516 45.3282 131.232 45.4024 130.147C45.4442 129.536 45.686 129.035 46.1017 128.698C46.6048 128.29 47.3013 128.162 48.0603 128.278ZM63.4856 135.163C67.6321 131.803 73.0048 130.657 77.7035 131.776C78.3859 131.939 78.7948 132.586 78.6178 133.22C78.5515 133.461 78.41 133.666 78.2223 133.818C77.9167 134.066 77.4889 134.174 77.066 134.074C73.2323 133.156 68.6925 134.081 65.1599 136.949L65.1542 136.954C61.7644 139.703 60.1518 143.549 60.4303 147.088C60.4605 147.475 60.2874 147.833 59.995 148.07C59.7826 148.24 59.5229 148.341 59.2512 148.359C58.55 148.407 57.939 147.918 57.8867 147.264C57.5506 142.94 59.5065 138.393 63.4856 135.163Z" fill="#111111"/>
<path d="M58.9257 148.51C59.0348 148.526 59.1476 148.531 59.2624 148.523C59.5742 148.502 59.8634 148.389 60.0987 148.198C60.4422 147.919 60.6276 147.5 60.5947 147.075C60.3069 143.419 62.0502 139.684 65.2579 137.082C68.5845 134.381 73.0906 133.292 77.0277 134.234C77.4839 134.344 77.9697 134.235 78.326 133.946C78.5476 133.766 78.7034 133.531 78.7766 133.264C78.8706 132.928 78.8238 132.575 78.6447 132.27C78.4537 131.946 78.1245 131.707 77.7415 131.616C72.8345 130.446 67.4659 131.725 63.3817 135.035C59.4877 138.196 57.3721 142.772 57.7222 147.277C57.7729 147.911 58.285 148.411 58.9257 148.51ZM76.1162 133.72C72.333 133.138 68.1802 134.285 65.0561 136.821C61.7582 139.496 59.9697 143.337 60.266 147.101C60.2908 147.422 60.1542 147.728 59.8911 147.942C59.7083 148.09 59.4831 148.177 59.2396 148.194C58.6297 148.236 58.096 147.813 58.0508 147.25C57.7092 142.855 59.7797 138.384 63.5892 135.291C67.5945 132.045 72.8568 130.791 77.6652 131.937C77.9658 132.008 78.2126 132.186 78.3607 132.438C78.4263 132.547 78.4688 132.669 78.4857 132.796C78.5026 132.923 78.4935 133.052 78.459 133.175C78.4038 133.376 78.2861 133.554 78.1186 133.69C77.8411 133.915 77.462 133.998 77.1044 133.913C76.7777 133.835 76.4481 133.771 76.1162 133.72Z" fill="#111111"/>
</g>
<g clip-path="url(#clip4_123_2877)">
<path d="M26.4551 65.2466C26.4406 65.0723 26.4915 64.9164 26.5906 64.8015L28.7928 62.2451C28.6938 62.3601 28.6428 62.5159 28.6574 62.6904L28.9393 65.8931L26.7371 68.4493L26.4551 65.2466Z" fill="#FACFD2"/>
<path d="M26.7704 68.5969C26.8022 68.5897 26.8309 68.5725 26.8521 68.5478L29.0544 65.9916C29.0676 65.9762 29.0776 65.9584 29.0838 65.9392C29.09 65.92 29.0923 65.8997 29.0905 65.8796L28.8086 62.6769C28.7979 62.5491 28.8331 62.4303 28.9078 62.3436C28.9208 62.3285 28.9307 62.311 28.9369 62.2921C28.9431 62.2732 28.9455 62.2533 28.944 62.2335C28.9424 62.2137 28.937 62.1943 28.928 62.1766C28.919 62.1589 28.9065 62.1432 28.8914 62.1303C28.8763 62.1173 28.8587 62.1075 28.8398 62.1014C28.8208 62.0952 28.8008 62.0929 28.7809 62.0944C28.7611 62.096 28.7417 62.1014 28.7239 62.1104C28.7061 62.1195 28.6903 62.1319 28.6773 62.147L26.4755 64.703C26.3472 64.8517 26.2864 65.0493 26.3039 65.2593L26.3039 65.2601L26.5858 68.4627C26.5877 68.4842 26.5942 68.5051 26.6048 68.5239C26.6155 68.5426 26.63 68.5589 26.6475 68.5716C26.665 68.5843 26.685 68.5932 26.7062 68.5975C26.7274 68.6019 26.7493 68.6016 26.7704 68.5969ZM28.7826 65.8431L26.8569 68.0783L26.6065 65.2336C26.5959 65.1051 26.6311 64.9867 26.7058 64.9001L28.5147 62.8001L28.7826 65.8431Z" fill="#111111"/>
<path d="M46.1367 86.3217L49.4356 87.3662C49.5947 87.4154 49.7502 87.4154 49.8841 87.3736C49.9877 87.3424 50.0803 87.2825 50.1513 87.201L47.9491 89.7574C47.8793 89.8383 47.7873 89.897 47.6819 89.93C47.5478 89.9718 47.3923 89.9718 47.2334 89.9225L43.9343 88.878L46.1367 86.3217Z" fill="#FACFD2"/>
<path d="M47.6649 90.0909C47.6859 90.0861 47.7067 90.0807 47.7271 90.0742C47.8578 90.0342 47.9745 89.9585 48.0642 89.8556L50.266 87.2998L50.2663 87.2994C50.2926 87.269 50.3057 87.2294 50.3027 87.1894C50.2996 87.1494 50.2808 87.1122 50.2503 87.0861C50.2198 87.0599 50.1801 87.047 50.1399 87.0501C50.0997 87.0531 50.0624 87.072 50.0362 87.1024C49.986 87.1606 49.9178 87.2045 49.8391 87.2291C49.7302 87.263 49.6063 87.2604 49.4809 87.2216L46.1829 86.1774C46.1546 86.1684 46.1241 86.1679 46.0954 86.1761C46.0668 86.1842 46.0411 86.2006 46.0217 86.2232L43.8195 88.7795C43.8032 88.7984 43.7918 88.8211 43.7865 88.8455C43.7811 88.87 43.7818 88.8953 43.7887 88.9193C43.7955 88.9433 43.8082 88.9653 43.8256 88.9832C43.843 89.0012 43.8646 89.0145 43.8884 89.0221L47.1874 90.0666C47.3501 90.117 47.5137 90.1251 47.6649 90.0909ZM49.6465 87.5548L47.834 89.6588C47.7839 89.717 47.7157 89.7608 47.6366 89.7855C47.5278 89.8188 47.4041 89.8167 47.2786 89.7778L44.199 88.8028L46.1863 86.4961L49.3894 87.5102C49.4727 87.5364 49.5592 87.5514 49.6465 87.5548Z" fill="#111111"/>
<path d="M30.1804 73.7856L27.9781 76.3419C28.5138 75.7201 29.2278 75.2474 30.0768 74.9825C30.6682 74.798 31.3255 74.7141 32.0334 74.7511C34.7937 74.8964 37.4936 76.9673 38.4034 79.6398C39.0657 81.5795 38.7028 83.3886 37.6455 84.6158L39.8478 82.0594C40.9051 80.8322 41.2679 79.0231 40.6056 77.0834C39.6958 74.4111 36.9958 72.3402 34.2356 72.1947C33.5278 72.1577 32.8703 72.2415 32.2791 72.4261C31.43 72.691 30.7161 73.1637 30.1804 73.7856Z" fill="#FACFD2"/>
<path d="M37.679 84.7635C37.7108 84.7563 37.7394 84.7391 37.7606 84.7145L37.7627 84.7121L39.9628 82.1582C41.117 80.8185 41.4036 78.9511 40.7493 77.0348C39.8155 74.2923 37.0797 72.1934 34.2438 72.0439C33.535 72.0069 32.8586 72.087 32.2338 72.282C31.3767 72.5495 30.6268 73.0353 30.0651 73.6874L27.8645 76.2418L27.8629 76.2437C27.8366 76.2742 27.8236 76.3138 27.8266 76.3538C27.8296 76.3938 27.8484 76.431 27.879 76.4571C27.9095 76.4832 27.9492 76.4962 27.9893 76.4931C28.0295 76.4901 28.0668 76.4712 28.0931 76.4408L28.0938 76.44C28.6184 75.8316 29.3196 75.3775 30.1218 75.1272C30.7122 74.9435 31.3526 74.8676 32.0251 74.9026C34.7421 75.0456 37.364 77.0587 38.2596 79.6889C38.8784 81.5014 38.6125 83.2613 37.5303 84.5176C37.5095 84.5418 37.4969 84.5719 37.4943 84.6036C37.4916 84.6353 37.499 84.667 37.5155 84.6942C37.532 84.7215 37.5566 84.7428 37.586 84.7552C37.6154 84.7677 37.6479 84.7706 37.679 84.7635ZM32.7046 72.4686C33.1863 72.3596 33.697 72.3183 34.2274 72.3461C36.9444 72.4891 39.5663 74.5021 40.4619 77.1324C41.0807 78.9448 40.8149 80.7048 39.7326 81.9611L38.6033 83.2721C39.0019 82.1669 38.9908 80.8902 38.5472 79.5909C37.6134 76.8485 34.8774 74.7496 32.0416 74.6001C31.3329 74.5632 30.6568 74.6427 30.0317 74.8382C29.7247 74.9339 29.4314 75.0578 29.1556 75.2072L30.2954 73.8842C30.82 73.2753 31.5215 72.8212 32.3242 72.5707C32.4496 72.5316 32.5765 72.4975 32.7046 72.4686Z" fill="#111111"/>
<path d="M41.0875 89.9502L38.8853 92.5066C40.7095 91.9249 42.2448 90.8991 43.4012 89.5569L45.6034 87.0005C44.447 88.3428 42.9116 89.3686 41.0875 89.9502Z" fill="#FACFD2"/>
<path d="M38.9186 92.6538C38.9229 92.6529 38.9271 92.6517 38.9313 92.6503C40.7393 92.0739 42.3246 91.0382 43.5162 89.6551L45.7185 87.0987C45.7447 87.0682 45.7578 87.0286 45.7548 86.9886C45.7518 86.9486 45.7329 86.9114 45.7024 86.8853C45.6719 86.8592 45.6322 86.8462 45.592 86.8493C45.5519 86.8524 45.5146 86.8712 45.4883 86.9017L45.4858 86.9045C44.3312 88.2436 42.7946 89.2468 41.0415 89.8058C41.0147 89.8143 40.9908 89.8301 40.9725 89.8514L38.7702 92.4077C38.7494 92.4319 38.7367 92.4619 38.734 92.4936C38.7313 92.5253 38.7387 92.5571 38.7551 92.5843C38.7716 92.6116 38.7962 92.633 38.8255 92.6454C38.8549 92.6579 38.8874 92.6609 38.9186 92.6538ZM43.9222 88.7198L43.2861 89.4582C42.2488 90.6621 40.9029 91.5948 39.3686 92.1775L41.1746 90.0809C42.1678 89.7598 43.0932 89.2999 43.9222 88.7198Z" fill="#111111"/>
<path d="M17.5674 71.3857C17.5903 71.317 17.6263 71.2534 17.6735 71.1985L19.8757 68.6421C19.8299 68.6953 19.7938 68.7581 19.7696 68.8294L18.6199 72.2868L16.4177 74.8432L17.5674 71.3857Z" fill="#FACFD2"/>
<path d="M16.451 74.9909C16.4828 74.9837 16.5114 74.9665 16.5326 74.9419L18.7349 72.3855C18.7478 72.3705 18.7576 72.3532 18.7638 72.3344L19.9136 68.8769C19.9303 68.8269 19.9565 68.7807 19.9908 68.7406C20.0164 68.71 20.0289 68.6707 20.0256 68.631C20.0223 68.5914 20.0035 68.5547 19.9732 68.5288C19.943 68.5029 19.9037 68.49 19.8639 68.4928C19.8241 68.4956 19.7869 68.5139 19.7605 68.5438L17.5583 71.1001C17.4983 71.17 17.4524 71.2509 17.4233 71.3382L16.2735 74.7958C16.2624 74.829 16.2633 74.8651 16.2759 74.8978C16.2886 74.9305 16.3122 74.9577 16.3429 74.9749C16.3756 74.9936 16.4142 74.9993 16.451 74.9909ZM18.4851 72.2112L16.8036 74.163L17.7114 71.4334C17.7281 71.3834 17.7543 71.3371 17.7886 71.297L19.4182 69.4052L18.4851 72.2112Z" fill="#111111"/>
<path d="M19.0181 73.205L16.816 75.7613L19.8299 77.6561L22.032 75.0999L19.0181 73.205Z" fill="#FACFD2"/>
<path d="M19.8634 77.8037C19.8942 77.7967 19.9229 77.7801 19.945 77.7546L22.1471 75.1983C22.1614 75.1818 22.1719 75.1625 22.1779 75.1416C22.184 75.1207 22.1855 75.0987 22.1823 75.0773C22.179 75.0558 22.1712 75.0352 22.1593 75.017C22.1473 74.9989 22.1316 74.9835 22.1132 74.9719L19.0993 73.0772C19.0685 73.0578 19.0317 73.0501 18.9957 73.0556C18.9597 73.061 18.9268 73.0791 18.9031 73.1067L16.7009 75.6631C16.6866 75.6796 16.6761 75.6989 16.67 75.7198C16.664 75.7407 16.6625 75.7626 16.6657 75.7841C16.6689 75.8056 16.6768 75.8261 16.6887 75.8443C16.7006 75.8625 16.7164 75.8779 16.7348 75.8895L19.7487 77.7842C19.7656 77.7948 19.7844 77.802 19.8041 77.8053C19.8237 77.8087 19.8439 77.8081 19.8634 77.8037ZM21.8023 75.1344L19.8002 77.4586L17.0456 75.7268L19.0477 73.4027L21.8023 75.1344Z" fill="#111111"/>
<path d="M18.6198 72.2872L16.4176 74.8435C16.3133 75.1606 16.481 75.553 16.816 75.7615L19.0183 73.2051C18.6832 72.9966 18.5153 72.6043 18.6198 72.2872Z" fill="#FACFD2"/>
<path d="M16.8494 75.9089C16.8802 75.9019 16.909 75.8853 16.9311 75.8599L19.1334 73.3035C19.1476 73.2869 19.1581 73.2675 19.1641 73.2466C19.1701 73.2257 19.1716 73.2037 19.1683 73.1821C19.165 73.1606 19.1571 73.1401 19.1451 73.1219C19.1331 73.1037 19.1174 73.0883 19.0989 73.0768C18.8248 72.9061 18.681 72.5868 18.7642 72.3341C18.7752 72.3008 18.7742 72.2648 18.7615 72.2321C18.7488 72.1995 18.7252 72.1723 18.6946 72.1551C18.6639 72.1379 18.6283 72.1319 18.5937 72.138C18.5591 72.1441 18.5276 72.162 18.5048 72.1887L16.3025 74.745C16.2895 74.7601 16.2796 74.7777 16.2734 74.7966C16.146 75.1841 16.3403 75.6439 16.7356 75.89C16.7705 75.9116 16.8115 75.9175 16.8494 75.9089ZM18.7969 73.2298L16.7928 75.5561C16.5961 75.3844 16.498 75.1305 16.5538 74.9171L18.4636 72.7003C18.5131 72.8971 18.6291 73.0847 18.7969 73.2298Z" fill="#111111"/>
<path d="M22.032 75.0999L19.8299 77.6561C19.787 78.7404 19.8943 79.8737 20.1755 81.0417C20.4552 82.2067 20.8865 83.3278 21.4427 84.3852L23.6449 81.8288C23.0888 80.7714 22.6572 79.6503 22.3777 78.4853C22.0966 77.3173 21.9892 76.184 22.032 75.0999Z" fill="#FACFD2"/>
<path d="M21.4762 84.5328C21.508 84.5256 21.5367 84.5084 21.5579 84.4837L23.76 81.9274C23.7798 81.9044 23.7923 81.8759 23.7957 81.8458C23.7992 81.8157 23.7935 81.7852 23.7794 81.7584C23.2181 80.6913 22.7961 79.5781 22.5254 78.4498C22.2553 77.328 22.1403 76.2029 22.1837 75.1055C22.1849 75.0742 22.1763 75.0432 22.1591 75.0169C22.1419 74.9907 22.1169 74.9704 22.0876 74.959C22.0583 74.9475 22.0261 74.9454 21.9955 74.953C21.9649 74.9606 21.9375 74.9775 21.9169 75.0013L19.7149 77.5577C19.6925 77.5836 19.6796 77.6162 19.6782 77.6503C19.6338 78.7754 19.7513 79.9283 20.028 81.0772C20.3047 82.2296 20.7354 83.3664 21.3084 84.4555C21.3239 84.485 21.3488 84.5085 21.3791 84.5225C21.4095 84.5365 21.4436 84.5401 21.4762 84.5328ZM23.4629 81.8082L21.4747 84.1161C20.9644 83.1098 20.5774 82.0647 20.3233 81.0062C20.0574 79.9022 19.942 78.795 19.9798 77.7144L21.8715 75.5185C21.8681 76.5082 21.9884 77.5161 22.2302 78.5208C22.4991 79.6412 22.9137 80.7467 23.4629 81.8082Z" fill="#111111"/>
<path d="M36.8812 93.9737L40.7953 93.7981C40.8551 93.7962 40.9144 93.7863 40.9716 93.7686C41.0737 93.7376 41.165 93.6785 41.2348 93.598L39.0326 96.1544C38.9652 96.2327 38.8753 96.2919 38.7694 96.325C38.7147 96.342 38.6557 96.3523 38.5931 96.3543L34.679 96.5301L36.8812 93.9737Z" fill="#FACFD2"/>
<path d="M38.7535 96.4856C38.7741 96.4809 38.7944 96.4756 38.8145 96.4693C38.9438 96.4297 39.0593 96.3546 39.1479 96.2525L41.35 93.6964C41.3756 93.6658 41.3883 93.6264 41.385 93.5868C41.3817 93.5471 41.3629 93.5104 41.3326 93.4845C41.3024 93.4586 41.2631 93.4457 41.2233 93.4485C41.1834 93.4513 41.1463 93.4696 41.1199 93.4995L41.1193 93.5001C41.068 93.5586 41.0012 93.6016 40.9265 93.624C40.8841 93.6374 40.8382 93.645 40.7899 93.6468L36.8745 93.8224C36.8538 93.8233 36.8335 93.8284 36.8148 93.8375C36.7962 93.8465 36.7796 93.8593 36.7661 93.8751L34.564 96.4314C34.5447 96.4538 34.5324 96.4814 34.5286 96.5106C34.5248 96.5399 34.5296 96.5697 34.5426 96.5962C34.5555 96.6227 34.576 96.6449 34.6014 96.66C34.6268 96.6751 34.6562 96.6824 34.6858 96.6811L38.5997 96.5054C38.6515 96.5037 38.703 96.4971 38.7535 96.4856ZM40.7295 93.9525L38.9177 96.0558C38.8681 96.1134 38.8013 96.1565 38.7244 96.1806C38.6813 96.1939 38.6356 96.2016 38.5881 96.2032L35.0229 96.3632L36.9537 94.1219L40.7295 93.9525Z" fill="#111111"/>
<path d="M34.7726 90.231L32.5705 92.7874L33.8139 95.9462L36.0162 93.3898L34.7726 90.231Z" fill="#FACFD2"/>
<path d="M33.8473 96.0938C33.8791 96.0866 33.9077 96.0694 33.929 96.0447L36.1312 93.4884C36.1492 93.4675 36.1611 93.4421 36.1658 93.415C36.1704 93.3879 36.1675 93.36 36.1574 93.3344L34.914 90.1756C34.9045 90.1513 34.8888 90.1298 34.8685 90.1134C34.8482 90.0969 34.8239 90.086 34.7981 90.0816C34.7722 90.0773 34.7457 90.0797 34.721 90.0887C34.6964 90.0976 34.6745 90.1128 34.6575 90.1327L32.4553 92.6891C32.4373 92.71 32.4254 92.7353 32.4207 92.7624C32.4161 92.7896 32.419 92.8174 32.4291 92.843L33.6725 96.0018C33.6857 96.0355 33.7107 96.0633 33.7427 96.0802C33.7748 96.097 33.8119 96.1019 33.8473 96.0938ZM35.8414 93.3605L33.8632 95.6568L32.7451 92.8166L34.7233 90.5204L35.8414 93.3605Z" fill="#111111"/>
<path d="M36.0162 93.3898L33.814 95.9461C33.9515 96.2981 34.3196 96.546 34.6792 96.5299L36.8814 93.9736C36.5219 93.9898 36.1536 93.7418 36.0162 93.3898Z" fill="#FACFD2"/>
<path d="M34.7125 96.6774C34.7443 96.6702 34.773 96.653 34.7942 96.6284L36.9964 94.072C37.0158 94.0496 37.0281 94.022 37.0319 93.9927C37.0357 93.9635 37.0308 93.9337 37.0179 93.9072C37.005 93.8806 36.9845 93.8585 36.9591 93.8434C36.9336 93.8283 36.9043 93.821 36.8747 93.8223C36.5796 93.8358 36.2714 93.626 36.1577 93.3347C36.1482 93.3103 36.1325 93.2888 36.1122 93.2723C36.0919 93.2558 36.0677 93.2448 36.0418 93.2404C36.016 93.2361 35.9894 93.2385 35.9647 93.2474C35.9401 93.2564 35.9181 93.2715 35.9011 93.2914L33.6989 95.8478C33.6809 95.8686 33.669 95.894 33.6643 95.921C33.6597 95.9481 33.6625 95.9759 33.6725 96.0015C33.834 96.4144 34.26 96.7004 34.6859 96.6813C34.6948 96.6807 34.7038 96.6794 34.7125 96.6774ZM36.5831 94.0877L34.6099 96.3781C34.3628 96.3635 34.1167 96.2003 33.9926 95.9709L35.987 93.6558C36.1304 93.8644 36.3462 94.0197 36.5831 94.0877Z" fill="#111111"/>
<path d="M28.1076 87.1244L25.9054 89.6807C27.8756 91.2145 30.1734 92.3118 32.5703 92.7874L34.7725 90.231C32.3756 89.7553 30.0778 88.6581 28.1076 87.1244Z" fill="#FACFD2"/>
<path d="M32.6039 92.935C32.6357 92.9278 32.6643 92.9106 32.6856 92.8859L34.8878 90.3295C34.9051 90.3095 34.9168 90.2853 34.9218 90.2593C34.9268 90.2334 34.9249 90.2066 34.9163 90.1816C34.9077 90.1567 34.8927 90.1344 34.8727 90.117C34.8528 90.0997 34.8286 90.0878 34.8026 90.0826C32.4777 89.6212 30.1949 88.557 28.2013 87.005C28.1705 86.9811 28.1316 86.9699 28.0928 86.9738C28.0539 86.9776 28.018 86.9963 27.9925 87.0259L25.7903 89.5823C25.777 89.5978 25.7669 89.6159 25.7607 89.6354C25.7546 89.6549 25.7524 89.6755 25.7545 89.6958C25.7565 89.7162 25.7626 89.7359 25.7725 89.7539C25.7824 89.7718 25.7958 89.7875 25.8119 89.8001C27.8428 91.3811 30.1695 92.4654 32.5406 92.9359C32.5615 92.94 32.5831 92.9396 32.6039 92.935ZM34.4901 90.3269L32.5135 92.6214C30.2674 92.1609 28.0635 91.1388 26.1248 89.6583L28.1288 87.3321C30.0597 88.8094 32.2509 89.8408 34.4901 90.3269Z" fill="#111111"/>
<path d="M21.5738 83.9675L19.3716 86.5239C19.1646 86.7642 19.1907 87.1453 19.4381 87.4371L21.6403 84.8807C21.3929 84.5888 21.3668 84.2078 21.5738 83.9675Z" fill="#FACFD2"/>
<path d="M19.4715 87.5846C19.5033 87.5774 19.5319 87.5602 19.5532 87.5355L21.7554 84.9793C21.779 84.952 21.792 84.9172 21.7922 84.8813C21.7924 84.8453 21.7797 84.8104 21.7565 84.783C21.5596 84.5507 21.5312 84.249 21.6889 84.066C21.7019 84.0509 21.7118 84.0334 21.718 84.0145C21.7242 83.9956 21.7267 83.9757 21.7252 83.9559C21.7237 83.9361 21.7183 83.9168 21.7093 83.899C21.7003 83.8813 21.6879 83.8655 21.6728 83.8526C21.6577 83.8397 21.6402 83.8298 21.6212 83.8236C21.6023 83.8175 21.5823 83.8151 21.5624 83.8166C21.5425 83.8181 21.5231 83.8235 21.5053 83.8325C21.4875 83.8415 21.4717 83.8539 21.4587 83.8689L21.4582 83.8695L19.2566 86.4253C19.0012 86.7218 19.0288 87.1884 19.3221 87.5348C19.3401 87.5559 19.3635 87.5717 19.3898 87.5805C19.4161 87.5893 19.4444 87.5907 19.4715 87.5846ZM21.4461 84.874L19.4533 87.1871C19.3535 86.9866 19.3616 86.7673 19.4866 86.6222L21.2996 84.5177C21.3228 84.6396 21.3718 84.7611 21.4461 84.874Z" fill="#111111"/>
<path d="M25.2925 88.4681L23.0904 91.0244L25.9053 89.6805L28.1076 87.1243L25.2925 88.4681Z" fill="#FACFD2"/>
<path d="M23.1237 91.1721C23.1347 91.1696 23.1455 91.1659 23.1557 91.161L25.9708 89.817C25.9898 89.8079 26.0068 89.795 26.0206 89.7791L28.2228 87.2227C28.2455 87.1963 28.2585 87.163 28.2595 87.1283C28.2605 87.0936 28.2495 87.0596 28.2283 87.0321C28.2071 87.0045 28.1771 86.9851 28.1432 86.977C28.1094 86.9689 28.0737 86.9727 28.0423 86.9878L25.2272 88.3317C25.2081 88.3409 25.1912 88.3537 25.1774 88.3697L22.9752 90.9261C22.9544 90.9502 22.9417 90.9803 22.939 91.012C22.9363 91.0437 22.9437 91.0755 22.9601 91.1027C22.9766 91.13 23.0012 91.1513 23.0306 91.1638C23.06 91.1763 23.0925 91.1792 23.1237 91.1721ZM25.8111 89.558L23.6754 90.5776L25.3869 88.5908L27.5226 87.5712L25.8111 89.558Z" fill="#111111"/>
<path d="M21.6403 84.8807L19.4381 87.4371L22.204 90.7219L24.4061 88.1656L21.6403 84.8807Z" fill="#FACFD2"/>
<path d="M22.2374 90.8695C22.2692 90.8623 22.2978 90.8451 22.3191 90.8205L24.5212 88.2642C24.5446 88.2369 24.5577 88.2023 24.5579 88.1664C24.5581 88.1305 24.5456 88.0957 24.5224 88.0683L21.7567 84.7835C21.7426 84.7667 21.7249 84.7532 21.705 84.7439C21.6851 84.7345 21.6634 84.7297 21.6413 84.7296C21.6193 84.7294 21.5975 84.7341 21.5775 84.7432C21.5575 84.7524 21.5396 84.7657 21.5253 84.7824L19.323 87.3386C19.2995 87.3658 19.2865 87.4005 19.2863 87.4364C19.2861 87.4722 19.2986 87.507 19.3217 87.5345L22.0876 90.8194C22.1056 90.8406 22.129 90.8566 22.1554 90.8654C22.1818 90.8743 22.2102 90.8757 22.2374 90.8695ZM24.2069 88.1648L22.2054 90.4882L19.6373 87.4381L21.6388 85.1148L24.2069 88.1648Z" fill="#111111"/>
<path d="M24.406 88.1656L22.2038 90.722C22.434 90.9975 22.7984 91.1156 23.0903 91.0246L25.2925 88.4682C25.0006 88.5592 24.6362 88.4411 24.406 88.1656Z" fill="#FACFD2"/>
<path d="M23.0751 91.1851C23.0955 91.1805 23.1156 91.1751 23.1355 91.1688C23.1627 91.1603 23.187 91.1444 23.2055 91.1229L25.4077 88.5665C25.4291 88.5415 25.4419 88.5103 25.444 88.4776C25.4461 88.4448 25.4374 88.4123 25.4194 88.3849C25.4013 88.3575 25.3747 88.3367 25.3437 88.3256C25.3127 88.3146 25.279 88.3139 25.2475 88.3237C25.0084 88.3972 24.7105 88.2933 24.5228 88.0686C24.5087 88.0517 24.4911 88.0381 24.4711 88.0287C24.4512 88.0193 24.4294 88.0143 24.4073 88.0142C24.3853 88.0141 24.3634 88.0187 24.3433 88.0278C24.3232 88.037 24.3054 88.0503 24.291 88.067L22.0889 90.6234C22.0655 90.6505 22.0525 90.6851 22.0522 90.7208C22.0519 90.7566 22.0644 90.7913 22.0873 90.8187C22.3364 91.1171 22.7342 91.2623 23.0751 91.1851ZM24.9464 88.638L23.0058 90.8907C22.81 90.9349 22.5823 90.8663 22.4095 90.7156L24.4139 88.3887C24.5647 88.5195 24.7491 88.6058 24.9464 88.638Z" fill="#111111"/>
<path d="M21.5939 83.9455C21.3653 84.184 21.3851 84.5799 21.6402 84.8809L24.406 88.1658C24.6362 88.4413 25.0006 88.5594 25.2924 88.4684L28.1075 87.1246C30.0778 88.6583 32.3755 89.7557 34.7725 90.2312L36.0159 93.39C36.1535 93.7421 36.5216 93.9899 36.8811 93.9739L40.7953 93.7983C40.8551 93.7964 40.9143 93.7865 40.9715 93.7688C41.2325 93.6874 41.3951 93.448 41.3694 93.153L41.0875 89.9504C43.208 89.2742 44.9383 87.9978 46.1366 86.3219L49.4355 87.3664C49.5944 87.4156 49.7501 87.4156 49.884 87.3738C50.0585 87.3192 50.1965 87.1938 50.2572 87.014L51.4071 83.5561C51.5114 83.239 51.3407 82.8475 51.0086 82.6382L47.9947 80.7435C48.0376 79.6592 47.9303 78.5259 47.6491 77.3579C47.3694 76.1929 46.9397 75.0749 46.3834 74.0175L48.4329 71.8979C48.6613 71.6595 48.6416 71.2636 48.3865 70.9625L45.6208 67.6776C45.3906 67.4021 45.0262 67.284 44.7343 67.375L41.9192 68.7189C39.949 67.1851 37.6513 66.0879 35.2543 65.6122L34.0108 62.4534C33.8733 62.1014 33.5021 61.8544 33.1427 61.8705L29.2317 62.0453C29.172 62.0473 29.1129 62.0572 29.0559 62.0748C28.7933 62.1567 28.6331 62.3976 28.6575 62.6905L28.9395 65.8932C26.8175 66.5732 25.0886 67.8457 23.8875 69.5227L20.5914 68.4773C20.4326 68.4281 20.2769 68.4281 20.143 68.4699C19.9683 68.5245 19.8304 68.6499 19.7696 68.8297L18.62 72.2872C18.5157 72.6043 18.6834 72.9967 19.0184 73.2052L22.0324 75.0999C21.9894 76.1841 22.0968 77.3175 22.3779 78.4855C22.6576 79.6504 23.089 80.7716 23.6451 81.8289L21.5939 83.9455ZM35.7913 83.6484C33.031 83.5029 30.3311 81.4321 29.4212 78.7597C28.4245 75.8395 29.7541 73.2139 32.279 72.4261C32.8704 72.2417 33.5277 72.1578 34.2356 72.1947C36.9958 72.34 39.6958 74.411 40.6056 77.0834C41.603 80.0047 40.2751 82.6299 37.7515 83.4174C37.1591 83.6024 36.5008 83.686 35.7913 83.6484Z" fill="white"/>
<path d="M40.9557 93.9294C40.9763 93.9247 40.9966 93.9194 41.0165 93.913C41.3491 93.8093 41.5516 93.4984 41.5205 93.1395L41.249 90.0567C43.2736 89.3861 44.9794 88.1592 46.1949 86.4992L49.3891 87.5103C49.5746 87.5678 49.761 87.5704 49.9289 87.5178C50.1548 87.4473 50.3268 87.281 50.401 87.0617L51.551 83.6038C51.6777 83.2185 51.4837 82.7589 51.0898 82.5103L48.1494 80.6618C48.1846 79.5648 48.066 78.4417 47.7965 77.3224C47.528 76.2043 47.115 75.1019 46.5682 74.0441L48.542 72.0029C48.8265 71.7059 48.8096 71.2276 48.5024 70.8648L45.7368 67.5805C45.473 67.2646 45.0423 67.1205 44.6888 67.2309C44.6819 67.233 44.6751 67.2356 44.6685 67.2387L41.9381 68.5421C39.9481 67.0104 37.6791 65.9534 35.3651 65.4803L34.1517 62.398C33.9907 61.9858 33.5633 61.7003 33.1356 61.7194L29.2246 61.8941C29.1518 61.8966 29.0797 61.9088 29.0102 61.9304C28.6785 62.0338 28.4757 62.3444 28.5056 62.703L28.7771 65.7866C26.7507 66.461 25.0438 67.6882 23.8284 69.3449L20.6372 68.3327C20.4515 68.2752 20.2655 68.2725 20.0973 68.3252C19.8714 68.3955 19.6994 68.5618 19.6253 68.7813L18.4753 72.2394C18.3476 72.6274 18.542 73.0872 18.9372 73.3333L21.877 75.1818C21.8419 76.2791 21.9605 77.4022 22.2299 78.5211C22.4984 79.6393 22.9119 80.7427 23.4595 81.8024L21.4845 83.8405L21.484 83.841C21.1999 84.1376 21.2167 84.6159 21.5241 84.9788L24.2896 88.2631C24.5534 88.5789 24.9842 88.7231 25.3377 88.6127C25.3447 88.6106 25.3515 88.608 25.358 88.6048L28.0885 87.3014C30.0784 88.833 32.3475 89.8902 34.6616 90.3632L35.875 93.4456C36.0363 93.8583 36.4623 94.1442 36.8881 94.1249L40.8021 93.9493C40.8538 93.9474 40.9052 93.9408 40.9557 93.9294ZM46.103 86.1742C46.0666 86.1824 46.0344 86.2037 46.0127 86.234C44.8089 87.9178 43.0898 89.1529 41.0412 89.8061C41.0083 89.8165 40.98 89.8378 40.9608 89.8665C40.9417 89.8951 40.9329 89.9294 40.9359 89.9636L41.2178 93.1663C41.237 93.3866 41.1253 93.5622 40.926 93.6242C40.8835 93.637 40.8375 93.645 40.7896 93.6468L36.8743 93.8223C36.5792 93.8358 36.2709 93.626 36.1572 93.3347L34.9135 90.1755C34.9042 90.1519 34.8892 90.131 34.8697 90.1148C34.8502 90.0985 34.8269 90.0874 34.802 90.0825C32.4771 89.621 30.1943 88.5569 28.2006 87.0049C28.1784 86.9876 28.1517 86.9768 28.1236 86.9738C28.0956 86.9708 28.0672 86.9756 28.0417 86.9878L25.2372 88.3268C24.9988 88.3953 24.7074 88.2905 24.5223 88.0687L21.7561 84.7834C21.5505 84.5406 21.5281 84.2325 21.7027 84.0501L23.7535 81.934C23.7756 81.9111 23.79 81.8818 23.7946 81.8503C23.7991 81.8188 23.7936 81.7867 23.7788 81.7585C23.2175 80.6915 22.7956 79.5783 22.5248 78.45C22.2547 77.3281 22.1398 76.203 22.1831 75.1057C22.1842 75.0792 22.1782 75.0528 22.1658 75.0294C22.1534 75.0059 22.1351 74.9861 22.1126 74.972L19.0986 73.0772C18.8241 72.9064 18.6802 72.587 18.7634 72.3342L19.913 68.8772C19.9561 68.7496 20.0535 68.656 20.1874 68.6144C20.2957 68.5809 20.42 68.583 20.5456 68.6219L23.8406 69.667C23.8712 69.6768 23.9042 69.6765 23.9347 69.6664C23.9652 69.6563 23.9917 69.6367 24.0103 69.6106C25.2139 67.9303 26.9342 66.6948 28.9851 66.0376C29.0179 66.027 29.0461 66.0057 29.0652 65.9771C29.0843 65.9485 29.093 65.9143 29.09 65.8801L28.8081 62.6774C28.7898 62.4574 28.9017 62.2816 29.1004 62.2197C29.1446 62.2063 29.1904 62.1987 29.2366 62.197L33.149 62.0218C33.446 62.0086 33.7555 62.2177 33.8691 62.5086L35.1126 65.6679C35.1316 65.7157 35.1734 65.7507 35.2241 65.7608C37.5488 66.222 39.8316 67.2862 41.8253 68.8383C41.8707 68.8735 41.9322 68.8801 41.9843 68.8554L44.7889 67.5167C45.0264 67.4478 45.3186 67.5531 45.5038 67.7748L48.2699 71.06C48.4755 71.3027 48.4979 71.6112 48.3229 71.7936L46.2739 73.9126C46.2518 73.9356 46.2374 73.9648 46.2329 73.9963C46.2283 74.0278 46.2339 74.0599 46.2487 74.0881C46.8091 75.1533 47.2305 76.2654 47.5012 77.3934C47.7713 78.5155 47.8862 79.6407 47.8428 80.7379C47.8417 80.7644 47.8476 80.7907 47.86 80.8142C47.8724 80.8377 47.8908 80.8575 47.9133 80.8716L50.9272 82.7663C51.2009 82.9389 51.3452 83.2584 51.2626 83.5093L50.113 86.9663C50.0699 87.0938 49.9725 87.1873 49.8387 87.2291C49.7299 87.2629 49.606 87.2604 49.4806 87.2216L46.1825 86.1775C46.1568 86.1694 46.1294 86.1682 46.103 86.1742ZM37.3926 83.6704C37.5295 83.6394 37.664 83.6032 37.7965 83.5619C39.0199 83.1802 40.0034 82.3621 40.5661 81.2584C41.1939 80.0273 41.2588 78.5271 40.7491 77.0345C39.8154 74.2921 37.0795 72.1931 34.2436 72.0437C33.5348 72.0067 32.8585 72.0868 32.2336 72.2818C31.0091 72.6638 30.0244 73.4826 29.4611 74.5871C28.8335 75.8181 28.7682 77.3172 29.2771 78.8086C30.2109 81.5511 32.9467 83.65 35.7827 83.7994C36.3429 83.8293 36.8826 83.7858 37.3926 83.6704ZM32.7044 72.4687C33.1861 72.3597 33.6967 72.3184 34.2272 72.3462C36.9442 72.4892 39.5661 74.5022 40.4617 77.1325C40.9447 78.5473 40.8857 79.9641 40.2955 81.1217C39.7703 82.1519 38.8506 82.916 37.7063 83.2732C37.115 83.4577 36.4736 83.5331 35.7993 83.4974C33.0823 83.3542 30.4603 81.3414 29.5648 78.7109C29.0824 77.2973 29.1418 75.8815 29.7319 74.7241C30.2576 73.693 31.1782 72.9283 32.3239 72.5706C32.4493 72.5317 32.5762 72.4977 32.7044 72.4687Z" fill="#111111"/>
</g>
</g>
<defs>
<linearGradient id="paint0_linear_123_2877" x1="87.1773" y1="144.312" x2="35.9197" y2="147.228" gradientUnits="userSpaceOnUse">
<stop offset="0.325" stop-color="#D63638"/>
<stop offset="0.706" stop-color="#FCF0F1"/>
<stop offset="0.938" stop-color="#D63638"/>
</linearGradient>
<clipPath id="clip0_123_2877">
<rect width="180" height="180" fill="white"/>
</clipPath>
<clipPath id="clip1_123_2877">
<rect width="125.064" height="93.672" fill="white" transform="translate(49.9374 15.2627) rotate(23.5702)"/>
</clipPath>
<clipPath id="clip2_123_2877">
<rect width="83.736" height="85.752" fill="white" transform="translate(78.336 36.6479)"/>
</clipPath>
<clipPath id="clip3_123_2877">
<rect width="52.128" height="52.632" fill="white" transform="matrix(-0.988401 -0.15187 -0.15187 0.988401 90.6703 112.479)"/>
</clipPath>
<clipPath id="clip4_123_2877">
<rect width="32.688" height="35.856" fill="white" transform="matrix(-0.975333 0.22074 0.22074 0.975333 45.8954 58.1064)"/>
</clipPath>
</defs>
</svg>
