<svg width="169" height="169" viewBox="0 0 169 169" fill="none" xmlns="http://www.w3.org/2000/svg">
<g clip-path="url(#clip0_123_2948)">
<path d="M101.964 57.1274L135.076 93.8936L127.23 145.217L51.3953 134.162L59.2407 83.2442L101.964 57.1274Z" fill="#6817C5"/>
<path d="M127.23 145.298C127.226 145.298 127.222 145.298 127.218 145.298L51.3834 134.242C51.3728 134.24 51.3626 134.237 51.3534 134.231C51.3442 134.226 51.3361 134.218 51.3298 134.21C51.3234 134.201 51.3188 134.191 51.3162 134.181C51.3136 134.171 51.3132 134.16 51.3148 134.149L59.1603 83.2317C59.1639 83.2081 59.1778 83.1873 59.1982 83.1748L101.922 57.0581C101.938 57.0482 101.957 57.0443 101.976 57.047C101.995 57.0497 102.012 57.059 102.025 57.0731L135.136 93.8392C135.144 93.8482 135.15 93.8588 135.154 93.8703C135.157 93.8818 135.158 93.894 135.156 93.9059L127.311 145.229C127.308 145.249 127.298 145.266 127.283 145.279C127.269 145.291 127.25 145.298 127.23 145.298ZM51.488 134.093L127.162 145.125L134.99 93.9193L101.949 57.232L59.3153 83.2938L51.488 134.093Z" fill="#111111"/>
<path d="M127.634 48.0062L136.065 60.1129L121.86 140.962L53.9802 131.799L70.0678 40.2356L127.634 48.0062Z" fill="white"/>
<path d="M121.86 141.043C121.857 141.043 121.853 141.043 121.849 141.042L53.9693 131.879C53.9584 131.878 53.9479 131.874 53.9385 131.869C53.9291 131.863 53.9209 131.856 53.9144 131.847C53.908 131.838 53.9034 131.828 53.9009 131.817C53.8984 131.807 53.8981 131.796 53.9001 131.785L69.9876 40.2214C69.9913 40.2008 70.0028 40.1824 70.0198 40.17C70.0367 40.1577 70.0578 40.1523 70.0786 40.155L127.645 47.9256C127.668 47.9287 127.688 47.9411 127.701 47.9598L136.132 60.0665C136.144 60.0841 136.149 60.1058 136.145 60.1269L121.94 140.976C121.937 140.995 121.927 141.012 121.912 141.024C121.898 141.036 121.879 141.043 121.86 141.043ZM54.0749 131.73L121.794 140.871L135.979 60.1318L127.588 48.082L70.1343 40.3265L54.0749 131.73Z" fill="#111111"/>
<path d="M127.634 48.0062L136.065 60.1129L121.86 140.962L53.9801 131.799L70.0676 40.2356L127.634 48.0062Z" fill="white"/>
<path d="M121.86 141.043C121.857 141.043 121.853 141.043 121.849 141.042L53.9693 131.879C53.9584 131.878 53.9479 131.874 53.9385 131.869C53.9291 131.863 53.9209 131.856 53.9144 131.847C53.908 131.838 53.9034 131.828 53.9009 131.817C53.8984 131.807 53.8981 131.796 53.9001 131.785L69.9876 40.2214C69.9913 40.2008 70.0028 40.1824 70.0198 40.17C70.0367 40.1577 70.0578 40.1523 70.0786 40.155L127.645 47.9256C127.668 47.9287 127.688 47.9411 127.701 47.9598L136.132 60.0665C136.144 60.0841 136.149 60.1058 136.145 60.1269L121.94 140.976C121.937 140.995 121.927 141.012 121.912 141.024C121.898 141.036 121.879 141.043 121.86 141.043ZM54.0749 131.73L121.794 140.871L135.979 60.1318L127.588 48.082L70.1343 40.3265L54.0749 131.73Z" fill="#111111"/>
<path d="M95.4554 51.8524L77.8327 49.4736L77.2742 52.6525L94.8969 55.0313L95.4554 51.8524Z" fill="#6817C5"/>
<path d="M94.897 55.1127C94.8934 55.1127 94.8897 55.1125 94.886 55.112L77.2633 52.7332C77.2524 52.7317 77.242 52.728 77.2326 52.7224C77.2232 52.7168 77.215 52.7094 77.2086 52.7005C77.2021 52.6917 77.1975 52.6817 77.195 52.671C77.1925 52.6604 77.1922 52.6494 77.1941 52.6386L77.7526 49.4597C77.7563 49.4391 77.7678 49.4207 77.7848 49.4083C77.8017 49.3959 77.8228 49.3905 77.8436 49.3933L95.4664 51.7721C95.4772 51.7736 95.4877 51.7772 95.4971 51.7828C95.5065 51.7884 95.5146 51.7958 95.5211 51.8047C95.5275 51.8135 95.5322 51.8235 95.5347 51.8342C95.5371 51.8448 95.5375 51.8559 95.5356 51.8666L94.9771 55.0456C94.9737 55.0644 94.9639 55.0814 94.9492 55.0937C94.9346 55.106 94.9161 55.1127 94.897 55.1127ZM77.3689 52.5834L94.8304 54.9405L95.3608 51.9218L77.8993 49.5648L77.3689 52.5834Z" fill="#111111"/>
<path d="M117.209 119.239L67.4249 112.519L66.7966 116.095L116.581 122.815L117.209 119.239Z" fill="white"/>
<path d="M116.581 122.896C116.578 122.896 116.574 122.896 116.57 122.895L66.7859 116.175C66.775 116.174 66.7646 116.17 66.7552 116.164C66.7458 116.159 66.7376 116.151 66.7312 116.142C66.7247 116.134 66.7201 116.124 66.7176 116.113C66.7151 116.102 66.7148 116.091 66.7167 116.081L67.345 112.505C67.3486 112.484 67.3601 112.466 67.377 112.453C67.394 112.441 67.4151 112.435 67.4359 112.438L117.22 119.158C117.231 119.16 117.242 119.163 117.251 119.169C117.26 119.175 117.269 119.182 117.275 119.191C117.281 119.2 117.286 119.21 117.289 119.22C117.291 119.231 117.291 119.242 117.289 119.253L116.661 122.829C116.658 122.848 116.648 122.865 116.633 122.877C116.619 122.889 116.6 122.896 116.581 122.896ZM66.8914 116.025L116.514 122.724L117.114 119.308L67.4915 112.61L66.8914 116.025Z" fill="#111111"/>
<path d="M105.143 60.8914L76.5057 57.0259L75.9473 60.2047L104.584 64.0703L105.143 60.8914Z" fill="#6817C5"/>
<path d="M104.584 64.1515C104.581 64.1515 104.577 64.1513 104.573 64.1508L75.9362 60.2852C75.9254 60.2837 75.915 60.28 75.9056 60.2744C75.8962 60.2688 75.888 60.2614 75.8815 60.2526C75.8751 60.2437 75.8705 60.2337 75.868 60.2231C75.8655 60.2124 75.8652 60.2014 75.867 60.1906L76.4256 57.0118C76.4292 56.9911 76.4407 56.9726 76.4577 56.9602C76.4746 56.9478 76.4958 56.9425 76.5166 56.9453L105.154 60.8109C105.164 60.8123 105.175 60.816 105.184 60.8216C105.194 60.8272 105.202 60.8346 105.208 60.8435C105.215 60.8523 105.219 60.8623 105.222 60.873C105.224 60.8836 105.225 60.8947 105.223 60.9054L104.664 64.0843C104.661 64.1031 104.651 64.1202 104.636 64.1325C104.622 64.1448 104.603 64.1515 104.584 64.1515ZM76.0419 60.1354L104.518 63.9793L105.048 60.9606L76.5723 57.1168L76.0419 60.1354Z" fill="#111111"/>
<path d="M75.222 68.1404L125.006 74.8606Z" fill="white"/>
<path d="M125.007 74.9418C125.003 74.9418 124.999 74.9415 124.996 74.941L75.2113 68.2208C75.2007 68.2194 75.1905 68.2159 75.1813 68.2106C75.1721 68.2052 75.164 68.1981 75.1575 68.1896C75.151 68.1811 75.1463 68.1714 75.1436 68.1611C75.1408 68.1508 75.1402 68.14 75.1416 68.1294C75.143 68.1189 75.1465 68.1087 75.1519 68.0995C75.1573 68.0902 75.1644 68.0822 75.1729 68.0757C75.1814 68.0692 75.1911 68.0645 75.2014 68.0618C75.2117 68.0591 75.2225 68.0584 75.2331 68.0598L125.017 74.78C125.038 74.7828 125.056 74.7932 125.069 74.8091C125.082 74.8251 125.089 74.8454 125.088 74.8659C125.086 74.8865 125.077 74.9058 125.062 74.9198C125.047 74.9339 125.027 74.9418 125.007 74.9418Z" fill="#111111"/>
<path d="M73.9757 75.2349L123.76 81.955Z" fill="white"/>
<path d="M123.76 82.0362C123.756 82.0362 123.753 82.0359 123.749 82.0354L73.9648 75.3153C73.9435 75.3124 73.9241 75.3012 73.911 75.284C73.898 75.2669 73.8923 75.2453 73.8951 75.2239C73.898 75.2026 73.9093 75.1832 73.9264 75.1702C73.9436 75.1571 73.9652 75.1514 73.9866 75.1543L123.771 81.8744C123.791 81.8772 123.81 81.8876 123.823 81.9035C123.836 81.9195 123.843 81.9398 123.841 81.9603C123.84 81.9809 123.831 82.0002 123.816 82.0142C123.801 82.0283 123.781 82.0362 123.76 82.0362Z" fill="#111111"/>
<path d="M88.1642 84.4126L122.513 89.0493Z" fill="white"/>
<path d="M122.514 89.1306C122.51 89.1306 122.506 89.1304 122.503 89.1299L88.1534 84.4933C88.1428 84.4919 88.1326 84.4884 88.1234 84.483C88.1142 84.4776 88.1061 84.4705 88.0996 84.462C88.0932 84.4535 88.0884 84.4439 88.0857 84.4335C88.083 84.4232 88.0823 84.4125 88.0837 84.4019C88.0852 84.3913 88.0887 84.3811 88.094 84.3719C88.0994 84.3627 88.1066 84.3546 88.115 84.3482C88.1235 84.3417 88.1332 84.337 88.1436 84.3342C88.1539 84.3315 88.1646 84.3308 88.1752 84.3323L122.524 88.9689C122.545 88.9716 122.564 88.982 122.577 88.998C122.59 89.0139 122.596 89.0342 122.595 89.0548C122.593 89.0753 122.584 89.0946 122.569 89.1087C122.554 89.1228 122.534 89.1306 122.514 89.1306Z" fill="#111111"/>
<path d="M86.9177 91.5071L121.267 96.1437Z" fill="white"/>
<path d="M121.267 96.2249C121.263 96.2249 121.26 96.2247 121.256 96.2242L86.907 91.5875C86.8856 91.5847 86.8662 91.5734 86.8532 91.5563C86.8401 91.5391 86.8344 91.5175 86.8373 91.4961C86.8402 91.4748 86.8514 91.4555 86.8686 91.4424C86.8857 91.4293 86.9074 91.4236 86.9288 91.4265L121.278 96.0632C121.298 96.0659 121.317 96.0763 121.33 96.0923C121.343 96.1083 121.35 96.1286 121.348 96.1491C121.347 96.1697 121.338 96.1889 121.323 96.203C121.308 96.2171 121.288 96.2249 121.267 96.2249Z" fill="#111111"/>
<path d="M85.6713 98.6016L108.816 101.726Z" fill="white"/>
<path d="M108.816 101.807C108.813 101.807 108.809 101.807 108.805 101.806L85.6604 98.682C85.6498 98.6805 85.6396 98.677 85.6304 98.6717C85.6211 98.6663 85.6131 98.6592 85.6066 98.6507C85.6001 98.6422 85.5954 98.6325 85.5927 98.6222C85.5899 98.6119 85.5893 98.6011 85.5907 98.5906C85.5937 98.5693 85.605 98.55 85.6221 98.537C85.6393 98.524 85.6608 98.5182 85.6822 98.5209L108.827 101.645C108.847 101.648 108.866 101.658 108.879 101.674C108.892 101.69 108.899 101.71 108.897 101.731C108.896 101.752 108.887 101.771 108.872 101.785C108.857 101.799 108.837 101.807 108.816 101.807Z" fill="#111111"/>
<path d="M82.5422 81.8646C81.6555 81.7449 80.805 82.3944 80.643 83.3162C80.4811 84.2381 81.0693 85.0818 81.9559 85.2015C82.8433 85.3213 83.6938 84.6718 83.8558 83.7499C84.0177 82.8281 83.4296 81.9843 82.5422 81.8646Z" fill="#6817C5"/>
<path d="M82.1664 85.2967C82.093 85.2967 82.0192 85.2918 81.945 85.2818C81.5076 85.2227 81.1229 84.9938 80.8619 84.6372C80.5844 84.2581 80.4782 83.7838 80.563 83.3019C80.7321 82.3395 81.6253 81.6584 82.5531 81.7837C82.991 81.8428 83.3759 82.0718 83.637 82.4286C83.9144 82.8076 84.0205 83.2817 83.9358 83.7636C83.7802 84.6494 83.0116 85.2967 82.1664 85.2967ZM82.3315 81.9314C81.5638 81.9314 80.8651 82.5222 80.7232 83.3301C80.6462 83.7681 80.7421 84.1983 80.9932 84.5413C81.2278 84.8619 81.5736 85.0677 81.9668 85.1208C82.8102 85.2345 83.6215 84.6133 83.7757 83.7356C83.8526 83.2977 83.7568 82.8677 83.5058 82.5246C83.271 82.2039 82.9249 81.9981 82.5314 81.9449C82.4651 81.9359 82.3984 81.9314 82.3315 81.9314Z" fill="#111111"/>
<path d="M81.2957 88.9588C80.4091 88.8391 79.5586 89.4886 79.3966 90.4104C79.2346 91.3323 79.8228 92.176 80.7095 92.2957C81.5968 92.4155 82.4474 91.766 82.6093 90.8442C82.7712 89.9223 82.183 89.0785 81.2957 88.9588Z" fill="#6817C5"/>
<path d="M80.92 92.3912C80.8467 92.3912 80.7727 92.3863 80.6987 92.3763C80.2611 92.3172 79.8764 92.0883 79.6155 91.7317C79.3381 91.3526 79.2319 90.8783 79.3166 90.3965C79.4856 89.434 80.3785 88.7527 81.3067 88.8782C81.7447 88.9373 82.1296 89.1664 82.3907 89.5231C82.6681 89.9021 82.7742 90.3763 82.6895 90.8581C82.5338 91.7439 81.7653 92.3912 80.92 92.3912ZM81.085 89.026C80.3173 89.026 79.6187 89.6167 79.4767 90.4246C79.3998 90.8627 79.4956 91.2928 79.7467 91.6358C79.9813 91.9564 80.3271 92.1622 80.7204 92.2153C81.5639 92.3293 82.375 91.7079 82.5293 90.8302C82.6062 90.3922 82.5104 89.9622 82.2594 89.6192C82.0246 89.2985 81.6786 89.0926 81.2849 89.0394C81.2187 89.0304 81.1519 89.026 81.085 89.026Z" fill="#111111"/>
<path d="M80.0494 96.0533C79.1627 95.9336 78.3122 96.5831 78.1502 97.5049C77.9883 98.4268 78.5765 99.2705 79.4631 99.3902C80.3505 99.51 81.201 98.8605 81.363 97.9386C81.5249 97.0168 80.9367 96.1731 80.0494 96.0533Z" fill="#6817C5"/>
<path d="M79.6735 99.4854C79.6001 99.4854 79.5262 99.4805 79.4521 99.4705C79.0147 99.4115 78.63 99.1826 78.369 98.8259C78.0915 98.4468 77.9853 97.9727 78.07 97.4907C78.2393 96.5282 79.1323 95.8479 80.0602 95.9725C80.498 96.0316 80.883 96.2606 81.1441 96.6174C81.4215 96.9964 81.5276 97.4705 81.443 97.9525C81.2873 98.8381 80.5186 99.4854 79.6735 99.4854ZM79.8384 96.1202C79.0707 96.1202 78.3721 96.711 78.2302 97.5189C78.1532 97.9569 78.2491 98.387 78.5002 98.73C78.7349 99.0507 79.0806 99.2565 79.4738 99.3095C80.3175 99.4235 81.1285 98.802 81.2827 97.9245C81.3596 97.4865 81.2638 97.0563 81.0127 96.7134C80.778 96.3927 80.4319 96.1868 80.0384 96.1337C79.9721 96.1247 79.9053 96.1202 79.8384 96.1202Z" fill="#111111"/>
<path d="M127.649 48.0103L126.25 55.9709C125.986 57.4743 127.026 58.8956 128.54 59.0999L136.08 60.1176L127.649 48.0103Z" fill="#E1D1F3"/>
<path d="M136.08 60.1989C136.076 60.1989 136.073 60.1986 136.069 60.1981L128.529 59.1804C127.775 59.0786 127.112 58.6845 126.663 58.0705C126.213 57.4566 126.039 56.706 126.17 55.9569L127.569 47.9962C127.572 47.9804 127.579 47.9657 127.59 47.954C127.601 47.9424 127.616 47.9343 127.631 47.9309C127.647 47.9274 127.664 47.9287 127.679 47.9345C127.694 47.9404 127.706 47.9506 127.716 47.9638L136.146 60.0712C136.155 60.0834 136.16 60.0977 136.161 60.1125C136.162 60.1273 136.159 60.1421 136.152 60.1552C136.145 60.1684 136.135 60.1794 136.122 60.1871C136.109 60.1948 136.095 60.1989 136.08 60.1989ZM127.695 48.2185L126.33 55.985C126.207 56.6902 126.371 57.3967 126.794 57.9746C127.217 58.5525 127.841 58.9235 128.551 59.0193L135.907 60.0123L127.695 48.2185Z" fill="#111111"/>
<path d="M135.065 93.9453L127.194 145.489L51.3593 134.433L53.5157 133.792L135.065 93.9453Z" fill="#E1D1F3"/>
<path d="M127.194 145.57C127.19 145.571 127.186 145.57 127.183 145.57L51.3475 134.514C51.3292 134.511 51.3124 134.502 51.2998 134.489C51.2872 134.475 51.2796 134.458 51.2783 134.439C51.277 134.421 51.2819 134.403 51.2924 134.387C51.3029 134.372 51.3183 134.361 51.336 134.356L53.486 133.716L135.029 93.8724C135.043 93.8658 135.058 93.863 135.072 93.8643C135.087 93.8656 135.101 93.871 135.113 93.8798C135.125 93.8885 135.135 93.9005 135.14 93.9142C135.146 93.9279 135.148 93.943 135.145 93.9576L127.275 145.501C127.272 145.521 127.262 145.538 127.247 145.551C127.233 145.563 127.214 145.57 127.194 145.57ZM51.7356 134.406L127.126 145.397L134.961 94.0866L53.5515 133.865C53.5474 133.867 53.5433 133.868 53.5389 133.87L51.7356 134.406Z" fill="#111111"/>
<path d="M59.2407 83.2441L122.662 142.174L50.7137 134.327L59.2407 83.2441Z" fill="#E1D1F3"/>
<path d="M122.662 142.256C122.659 142.256 122.657 142.255 122.654 142.255L50.705 134.407C50.694 134.406 50.6834 134.403 50.6737 134.397C50.6641 134.392 50.6557 134.385 50.649 134.376C50.6423 134.367 50.6375 134.357 50.6349 134.346C50.6323 134.335 50.6319 134.324 50.6337 134.313L59.1606 83.2306C59.163 83.2161 59.1693 83.2025 59.1788 83.1913C59.1883 83.1801 59.2006 83.1717 59.2145 83.1669C59.2285 83.1622 59.2434 83.1613 59.2578 83.1644C59.2721 83.1675 59.2854 83.1744 59.2961 83.1844L122.718 142.115C122.73 142.126 122.738 142.14 122.742 142.156C122.745 142.172 122.744 142.189 122.738 142.204C122.732 142.219 122.722 142.232 122.708 142.241C122.695 142.251 122.679 142.256 122.662 142.256ZM50.8082 134.255L122.427 142.067L59.2961 83.4063L50.8082 134.255Z" fill="#111111"/>
<path d="M93.3252 108.519L127.168 145.529L88.5189 139.961L50.7137 134.327L93.3252 108.519Z" fill="#E1D1F3"/>
<path d="M127.168 145.61C127.165 145.61 127.161 145.61 127.157 145.609L88.5074 140.041L50.7019 134.407C50.6853 134.405 50.6699 134.397 50.6578 134.386C50.6456 134.374 50.6373 134.359 50.634 134.343C50.6307 134.326 50.6326 134.309 50.6393 134.294C50.6461 134.279 50.6574 134.266 50.6717 134.257L93.2831 108.449C93.2992 108.44 93.3182 108.436 93.3368 108.438C93.3555 108.441 93.3726 108.45 93.3853 108.464L127.228 145.474C127.239 145.486 127.246 145.5 127.249 145.516C127.251 145.531 127.249 145.547 127.243 145.562C127.236 145.576 127.226 145.588 127.213 145.597C127.2 145.605 127.184 145.61 127.168 145.61ZM50.9486 134.28L88.531 139.88L126.955 145.416L93.3103 108.623L50.9486 134.28Z" fill="#111111"/>
</g>
<g clip-path="url(#clip1_123_2948)">
<path d="M27.9679 31.9022L46.8287 16.9896C47.5956 16.3832 48.4704 16.0665 49.3492 16.0193L51.4576 15.906C50.5788 15.9532 49.7039 16.27 48.9371 16.8763L30.0762 31.789C27.9232 33.4913 27.4365 36.832 28.9889 39.2536L37.9924 53.2978C38.9922 54.8574 40.5933 55.6542 42.1817 55.5689L40.0733 55.6821C38.485 55.7675 36.8839 54.9707 35.8841 53.4111L26.8806 39.3669C25.3281 36.9453 25.8148 33.6046 27.9679 31.9022Z" fill="#E1D1F3"/>
<path d="M39.8368 55.7703C38.2425 55.7703 36.753 54.918 35.8154 53.4553L26.8119 39.411C25.2404 36.9599 25.7363 33.5628 27.9173 31.8384L46.778 16.9258C47.5325 16.3294 48.4201 15.9878 49.3449 15.9381L51.4533 15.8247C51.4744 15.8243 51.495 15.8321 51.5105 15.8465C51.526 15.861 51.5353 15.8808 51.5365 15.902C51.5376 15.9231 51.5305 15.9439 51.5166 15.9599C51.5027 15.9759 51.4831 15.9858 51.462 15.9877H51.4611C50.5706 16.0357 49.7153 16.3652 48.9877 16.9405L30.1269 31.8531C28.01 33.5269 27.5303 36.8271 29.0577 39.2097L38.0613 53.254C39.0136 54.7396 40.5514 55.575 42.1768 55.4876H42.1774C42.2236 55.4825 42.2608 55.5197 42.2632 55.5646C42.2644 55.5862 42.2569 55.6074 42.2425 55.6234C42.228 55.6395 42.2077 55.6492 42.1861 55.6504L40.0777 55.7638C39.9973 55.7681 39.9169 55.7703 39.8368 55.7703ZM50.2783 16.0512L49.3536 16.101C48.4627 16.1489 47.6072 16.4783 46.8794 17.0537L28.0186 31.9664C25.9015 33.6402 25.4219 36.9404 26.9494 39.3231L35.9529 53.3673C36.9055 54.8532 38.4447 55.6891 40.069 55.6008L40.9827 55.5517C39.7637 55.2822 38.6694 54.5051 37.9237 53.3419L28.9202 39.2977C27.3488 36.8466 27.8447 33.4497 30.0256 31.7252L48.8864 16.8125C49.3135 16.4748 49.7833 16.2188 50.2783 16.0512Z" fill="#111111"/>
<path d="M30.0763 31.7891C27.9232 33.4915 27.4365 36.8321 28.989 39.2537L37.9925 53.298C39.5448 55.7194 42.5464 56.3018 44.6996 54.5994L56.6578 45.1443L61.3995 47.4067L61.0261 41.6905L63.5603 39.6868C65.7134 37.9844 66.2033 34.6414 64.6509 32.2199L55.6474 18.1756C54.095 15.754 51.0902 15.174 48.9371 16.8765L30.0763 31.7891Z" fill="white"/>
<path d="M41.9531 55.6573C41.7073 55.6572 41.462 55.6367 41.2196 55.596C39.8826 55.3725 38.7122 54.572 37.9237 53.342L28.9202 39.2978C27.3488 36.8466 27.8447 33.4496 30.0257 31.7252L48.8864 16.8126C49.9125 16.0013 51.1678 15.6699 52.4209 15.8794C53.758 16.103 54.9283 16.9028 55.7161 18.1318L64.7196 32.176C66.2909 34.6272 65.7936 38.0251 63.6109 39.7508L61.1103 41.728L61.481 47.4015C61.4829 47.4304 61.4692 47.4581 61.4452 47.4744C61.4334 47.4824 61.4198 47.4872 61.4055 47.4882C61.3913 47.4893 61.3771 47.4866 61.3642 47.4805L56.6685 45.2399L44.7502 54.6634C43.9257 55.3154 42.9532 55.6572 41.9531 55.6573ZM51.6869 15.9813C50.7221 15.9813 49.7837 16.3113 48.9877 16.9406L30.1269 31.8531C28.0099 33.527 27.5302 36.8271 29.0577 39.2098L38.0612 53.2541C38.8245 54.4448 39.9557 55.2193 41.2465 55.4351C42.452 55.6367 43.6603 55.3173 44.6489 54.5355L56.6071 45.0805C56.6316 45.0612 56.6649 45.0575 56.693 45.0708L61.309 47.2733L60.9446 41.6959C60.9429 41.6692 60.9544 41.6433 60.9753 41.6266L63.5096 39.6229C65.6284 37.9477 66.1094 34.6466 64.582 32.264L55.5785 18.2197C54.8159 17.0301 53.685 16.2561 52.3939 16.0402C52.1602 16.0011 51.9238 15.9814 51.6869 15.9813Z" fill="#111111"/>
</g>
<g clip-path="url(#clip2_123_2948)">
<path d="M51.596 25.2369C51.9771 25.0698 52.4364 25.0402 52.895 25.1867C53.8606 25.5009 54.4541 26.4816 54.2194 27.3796L50.7298 40.8135C50.6045 41.2837 50.2788 41.6385 49.8547 41.8246C49.5085 41.9764 49.0934 42.0126 48.6734 41.9053L40.7134 39.8487C39.7326 39.5943 39.0774 38.6449 39.2466 37.7316C39.3437 37.2095 39.6856 36.8109 40.1426 36.6106C40.4894 36.4585 40.9024 36.4204 41.3248 36.5287L47.6261 38.1555L50.7252 26.2489C50.8469 25.7773 51.1733 25.4223 51.596 25.2369Z" fill="#6817C5"/>
<path d="M49.1563 42.047C48.9898 42.047 48.8207 42.0258 48.6538 41.9832L40.6937 39.9265C39.6758 39.6625 38.9915 38.6712 39.1683 37.7168C39.267 37.1864 39.6105 36.7564 40.1109 36.5369C40.4842 36.3732 40.9223 36.3428 41.3445 36.451L47.5693 38.0578L50.6483 26.2285C50.7709 25.7532 51.1048 25.3649 51.5643 25.1634C51.9777 24.982 52.4589 24.9632 52.9191 25.1104C53.9233 25.437 54.5411 26.4641 54.2964 27.4002L50.8068 40.8339C50.68 41.3096 50.3446 41.6974 49.8864 41.8984C49.6614 41.997 49.4121 42.047 49.1563 42.047ZM40.8441 36.5477C40.6097 36.5477 40.381 36.5934 40.1745 36.684C39.7233 36.8819 39.4137 37.269 39.325 37.7463C39.1633 38.6193 39.7951 39.5276 40.7334 39.7709L48.6933 41.8275C49.0824 41.9269 49.4837 41.8998 49.823 41.751C50.2426 41.567 50.5373 41.2267 50.653 40.7927L54.1425 27.3593C54.366 26.5042 53.7954 25.5639 52.8706 25.2631C52.4476 25.1278 52.0061 25.1446 51.6279 25.3105C51.2136 25.4922 50.9128 25.8415 50.8024 26.269L47.7032 38.1758C47.6979 38.1963 47.6848 38.2139 47.6666 38.2246C47.6485 38.2354 47.6268 38.2384 47.6065 38.2331L41.3052 36.6065C41.1545 36.5676 40.9996 36.5479 40.8441 36.5477Z" fill="#111111"/>
</g>
<g clip-path="url(#clip3_123_2948)">
<path d="M115.19 141.509L116.124 144.229L111.103 149.247L110.17 146.527L115.19 141.509Z" fill="#E1D1F3"/>
<path d="M111.103 149.328C111.086 149.328 111.07 149.323 111.056 149.313C111.042 149.303 111.032 149.29 111.026 149.273L110.093 146.554C110.088 146.539 110.087 146.524 110.09 146.509C110.094 146.494 110.101 146.48 110.112 146.469L115.133 141.452C115.142 141.442 115.155 141.435 115.168 141.431C115.181 141.427 115.195 141.427 115.209 141.43C115.222 141.433 115.234 141.44 115.245 141.449C115.255 141.458 115.263 141.47 115.267 141.483L116.2 144.203C116.211 144.232 116.203 144.265 116.181 144.287L111.161 149.305C111.145 149.32 111.125 149.328 111.103 149.328ZM110.263 146.549L111.138 149.097L116.03 144.208L115.156 141.659L110.263 146.549Z" fill="#111111"/>
<path d="M110.17 146.527L111.103 149.247L105.93 145.435L104.996 142.716L110.17 146.527Z" fill="#6817C5"/>
<path d="M111.103 149.328C111.086 149.328 111.069 149.323 111.055 149.313L105.881 145.501C105.868 145.491 105.858 145.478 105.853 145.462L104.919 142.742C104.914 142.726 104.914 142.708 104.919 142.691C104.924 142.675 104.934 142.66 104.948 142.65C104.962 142.64 104.979 142.634 104.997 142.634C105.014 142.634 105.031 142.64 105.045 142.65L110.218 146.461C110.231 146.471 110.241 146.485 110.247 146.5L111.18 149.22C111.184 149.233 111.186 149.246 111.184 149.259C111.182 149.271 111.177 149.284 111.169 149.294C111.162 149.305 111.152 149.313 111.14 149.319C111.129 149.325 111.116 149.328 111.103 149.328ZM105.998 145.385L110.941 149.027L110.101 146.578L105.158 142.936L105.998 145.385Z" fill="#111111"/>
<path d="M115.19 141.509L110.17 146.527L104.996 142.716L110.017 137.698L115.19 141.509Z" fill="white"/>
<path d="M110.17 146.608C110.152 146.608 110.135 146.603 110.122 146.593L104.948 142.781C104.939 142.774 104.931 142.765 104.925 142.755C104.92 142.745 104.916 142.733 104.915 142.722C104.914 142.71 104.916 142.698 104.92 142.687C104.924 142.676 104.931 142.666 104.939 142.658L109.959 137.64C109.973 137.627 109.991 137.618 110.011 137.617C110.03 137.615 110.05 137.621 110.065 137.632L115.239 141.444C115.248 141.451 115.256 141.46 115.261 141.47C115.267 141.48 115.271 141.492 115.271 141.503C115.272 141.515 115.271 141.527 115.267 141.538C115.262 141.549 115.256 141.559 115.248 141.567L110.227 146.585C110.22 146.592 110.211 146.598 110.201 146.602C110.191 146.606 110.18 146.608 110.17 146.608ZM105.121 142.706L110.162 146.42L115.066 141.519L110.025 137.805L105.121 142.706Z" fill="#111111"/>
<path d="M144.663 112.053L145.596 114.773L119.686 140.669L118.753 137.949L144.663 112.053Z" fill="#E1D1F3"/>
<path d="M119.686 140.75C119.669 140.75 119.652 140.745 119.639 140.735C119.625 140.725 119.614 140.711 119.609 140.695L118.676 137.975C118.671 137.961 118.67 137.945 118.673 137.931C118.677 137.916 118.684 137.902 118.695 137.891L144.606 111.995C144.615 111.985 144.627 111.978 144.641 111.975C144.654 111.971 144.668 111.97 144.681 111.974C144.695 111.977 144.707 111.983 144.718 111.992C144.728 112.002 144.736 112.013 144.74 112.026L145.673 114.746C145.683 114.776 145.676 114.808 145.654 114.83L119.743 140.726C119.728 140.742 119.707 140.75 119.686 140.75ZM118.846 137.971L119.721 140.519L145.503 114.751L144.629 112.203L118.846 137.971Z" fill="#111111"/>
<path d="M118.753 137.949L119.686 140.669L114.513 136.857L113.579 134.137L118.753 137.949Z" fill="#6817C5"/>
<path d="M119.686 140.75C119.669 140.75 119.652 140.745 119.638 140.734L114.464 136.923C114.451 136.913 114.441 136.899 114.436 136.884L113.502 134.164C113.497 134.148 113.496 134.13 113.502 134.113C113.507 134.097 113.517 134.082 113.531 134.072C113.545 134.061 113.562 134.056 113.579 134.056C113.597 134.056 113.614 134.062 113.628 134.072L118.801 137.883C118.814 137.893 118.824 137.907 118.83 137.922L119.763 140.642C119.767 140.654 119.768 140.668 119.766 140.68C119.765 140.693 119.76 140.705 119.752 140.716C119.745 140.727 119.735 140.735 119.723 140.741C119.712 140.747 119.699 140.75 119.686 140.75ZM114.581 136.807L119.524 140.448L118.684 137.999L113.741 134.358L114.581 136.807Z" fill="#111111"/>
<path d="M144.663 112.053L118.753 137.949L113.579 134.137L139.49 108.241L144.663 112.053Z" fill="white"/>
<path d="M118.753 138.03C118.735 138.03 118.718 138.025 118.704 138.015L113.531 134.203C113.522 134.196 113.514 134.187 113.508 134.177C113.503 134.167 113.499 134.155 113.498 134.144C113.497 134.132 113.499 134.12 113.503 134.109C113.507 134.098 113.514 134.088 113.522 134.08L139.432 108.184C139.446 108.17 139.464 108.162 139.484 108.16C139.503 108.159 139.522 108.164 139.538 108.176L144.711 111.987C144.721 111.994 144.729 112.003 144.734 112.013C144.74 112.024 144.743 112.035 144.744 112.047C144.745 112.058 144.744 112.07 144.739 112.081C144.735 112.092 144.729 112.102 144.721 112.11L118.81 138.007C118.803 138.014 118.794 138.02 118.784 138.024C118.774 138.028 118.763 138.03 118.753 138.03ZM113.704 134.128L118.745 137.842L144.539 112.062L139.498 108.348L113.704 134.128Z" fill="#111111"/>
</g>
<g clip-path="url(#clip4_123_2948)">
<path d="M52.9862 145.435L51.2418 147.799C49.8253 149.719 47.6589 151.111 44.8998 151.647C38.0078 152.988 30.0264 148.481 27.073 141.581C25.302 137.443 25.7414 133.384 27.8634 130.508L29.6077 128.144C27.4858 131.02 27.0463 135.079 28.8173 139.217C31.7707 146.117 39.7521 150.624 46.6442 149.284C49.4034 148.747 51.5697 147.355 52.9862 145.435Z" fill="url(#paint0_linear_123_2948)"/>
<path d="M42.4196 151.964C36.1648 151.964 29.61 147.715 26.9982 141.613C26.1391 139.605 25.7687 137.514 25.9272 135.565C26.0808 133.676 26.7277 131.91 27.7979 130.46L29.5423 128.096C29.5554 128.079 29.5744 128.068 29.5955 128.065C29.6166 128.062 29.6379 128.068 29.655 128.08C29.6721 128.093 29.6836 128.112 29.6871 128.133C29.6905 128.154 29.6855 128.175 29.6733 128.193C28.621 129.619 27.985 131.355 27.8339 133.214C27.6776 135.137 28.0435 137.202 28.8922 139.185C31.8265 146.04 39.7832 150.535 46.6287 149.204C49.2811 148.688 51.4554 147.37 52.917 145.392L52.9207 145.387C52.9337 145.37 52.9528 145.359 52.9739 145.356C52.9949 145.353 53.0163 145.358 53.0334 145.371C53.0505 145.384 53.062 145.402 53.0654 145.423C53.0689 145.444 53.0639 145.466 53.0517 145.483L53.0472 145.489L51.3073 147.847C49.8209 149.862 47.6106 151.203 44.9153 151.727C44.096 151.887 43.2601 151.964 42.4196 151.964ZM28.6409 129.592L27.9289 130.557C26.8766 131.983 26.2406 133.719 26.0895 135.578C25.9332 137.501 26.2991 139.566 27.1478 141.548C30.0821 148.404 38.0391 152.899 44.8843 151.568C47.5389 151.051 49.7147 149.731 51.1763 147.751L51.8808 146.796C50.4945 148.086 48.7186 148.963 46.6597 149.363C39.7426 150.709 31.7053 146.171 28.7425 139.249C27.8835 137.241 27.5132 135.15 27.6717 133.201C27.7756 131.921 28.106 130.698 28.6409 129.592Z" fill="#111111"/>
<path d="M52.99 145.426C56.7994 140.263 54.652 132.212 48.1937 127.442C41.7353 122.672 33.4117 122.99 29.6023 128.153C25.7928 133.315 27.9402 141.367 34.3986 146.137C40.8569 150.907 49.1806 150.589 52.99 145.426Z" fill="#6817C5"/>
<path d="M44.1639 149.6C37.9091 149.6 31.3544 145.351 28.7425 139.249C27.2588 135.782 27.2777 132.15 28.7946 129.285C30.1957 126.639 32.7312 124.839 35.9341 124.216C42.851 122.87 50.8885 127.408 53.8514 134.331C55.3352 137.797 55.3162 141.429 53.7994 144.294C52.3984 146.94 49.8629 148.741 46.6598 149.363C45.8404 149.523 45.0045 149.6 44.1639 149.6ZM38.4338 124.142C37.6019 124.142 36.7761 124.218 35.9652 124.376C32.8115 124.989 30.3161 126.76 28.9386 129.362C27.4448 132.183 27.4279 135.763 28.8922 139.184C31.4789 145.228 37.9693 149.437 44.1601 149.437C44.992 149.437 45.8178 149.361 46.6287 149.204C49.7824 148.59 52.278 146.82 53.6555 144.218C55.1492 141.397 55.166 137.816 53.7016 134.395C51.115 128.351 44.6247 124.142 38.4338 124.142Z" fill="#111111"/>
<path d="M41.2822 140.287C40.8123 140.379 40.3384 140.27 39.8614 139.96C39.3842 139.651 38.9773 139.103 38.6409 138.317C38.3892 137.729 38.2148 137.032 38.1173 136.226C38.0204 135.42 38.1091 134.768 38.3848 134.269C38.6595 133.769 39.0633 133.467 39.5948 133.364C40.0898 133.268 40.5793 133.375 41.0643 133.687C41.5492 133.998 41.9411 134.503 42.2406 135.203C42.5082 135.828 42.6779 136.526 42.7495 137.296C42.8217 138.067 42.7745 138.673 42.6085 139.114C42.4933 139.425 42.3454 139.665 42.1629 139.834C41.9284 140.068 41.6344 140.219 41.2822 140.287ZM38.0375 127.754C36.2008 128.111 34.73 128.804 33.6234 129.834C32.5174 130.863 31.8743 132.209 31.694 133.87C31.5142 135.531 31.7969 137.231 32.5414 138.97C33.2195 140.554 34.2084 141.949 35.5074 143.155C36.8075 144.361 38.3467 145.164 40.1259 145.566C41.9052 145.968 43.8147 145.97 45.8552 145.573C47.9631 145.164 49.5752 144.407 50.6912 143.305C51.6657 142.344 52.1936 141.176 52.2742 139.799L50.2991 140.183C50.0022 141.132 49.4099 141.917 48.5232 142.535C47.6356 143.153 46.4531 143.606 44.9755 143.894C43.442 144.192 41.9748 144.211 40.5742 143.95C39.1733 143.689 37.9149 143.087 36.7981 142.145C35.6813 141.203 34.8437 140.078 34.2845 138.772C33.7099 137.429 33.4518 136.079 33.5112 134.723C33.57 133.367 34.0363 132.234 34.9091 131.324C35.7819 130.413 37.0559 129.795 38.7316 129.469C40.7036 129.086 42.4594 129.299 43.998 130.109C45.5373 130.92 46.6327 132.086 47.2844 133.609C47.6472 134.457 47.8033 135.315 47.753 136.183C47.7027 137.051 47.4629 137.782 47.0331 138.374C46.7172 138.825 46.4108 139.079 46.114 139.137C46.0152 139.156 45.9135 139.133 45.8087 139.07C45.7045 139.006 45.6197 138.897 45.5533 138.742C45.5005 138.619 45.4272 138.338 45.3334 137.9L43.885 130.971L41.4363 131.447L41.6457 132.523C40.7598 131.783 39.7668 131.52 38.666 131.734C37.1205 132.035 36.1658 133.012 35.8016 134.665C35.4998 136.025 35.6597 137.432 36.2823 138.886C36.7855 140.062 37.5274 140.939 38.5081 141.516C39.4884 142.093 40.4915 142.281 41.5174 142.082C42.4698 141.897 43.1598 141.381 43.5876 140.533C43.822 140.863 44.1082 141.092 44.4442 141.221C44.7808 141.35 45.2052 141.365 45.7185 141.265C47.6231 140.894 48.8395 139.787 49.369 137.94C49.7938 136.476 49.6689 134.956 48.9932 133.377C48.4264 132.053 47.5836 130.894 46.4658 129.901C45.3473 128.908 44.0525 128.226 42.5814 127.855C41.1096 127.484 39.5956 127.451 38.0375 127.754Z" fill="white"/>
<path d="M42.9107 145.949C41.9412 145.949 41.0048 145.848 40.1079 145.646C38.3235 145.243 36.7569 144.425 35.452 143.215C34.1503 142.007 33.1457 140.589 32.4665 139.002C31.7198 137.257 31.4326 135.528 31.6131 133.861C31.7947 132.188 32.4523 130.812 33.568 129.774C34.6808 128.739 36.1793 128.032 38.022 127.674C39.585 127.37 41.1256 127.404 42.6015 127.777C44.0781 128.149 45.3965 128.843 46.52 129.84C47.6421 130.837 48.4993 132.016 49.0683 133.345C49.7481 134.933 49.8757 136.487 49.4474 137.963C48.9115 139.832 47.6621 140.97 45.7342 141.345C45.208 141.447 44.7642 141.431 44.4152 141.297C44.1015 141.177 43.8277 140.971 43.5997 140.685C43.1578 141.484 42.4632 141.981 41.533 142.162C40.4912 142.364 39.4596 142.171 38.4668 141.586C37.4759 141.003 36.7157 140.106 36.2075 138.918C35.5812 137.455 35.4179 136.018 35.7223 134.648C36.0922 132.967 37.0775 131.96 38.6505 131.654C39.6991 131.451 40.6647 131.675 41.5238 132.322L41.3564 131.463C41.3544 131.452 41.3544 131.442 41.3565 131.431C41.3586 131.421 41.3628 131.411 41.3688 131.402C41.3748 131.393 41.3824 131.385 41.3913 131.379C41.4002 131.374 41.4102 131.369 41.4207 131.367L43.8695 130.891C43.8905 130.887 43.9123 130.891 43.9301 130.903C43.948 130.915 43.9604 130.933 43.9647 130.954L45.4131 137.884C45.5055 138.315 45.578 138.593 45.6282 138.71C45.6875 138.849 45.7624 138.946 45.8511 139C45.9388 139.054 46.0199 139.072 46.0985 139.057C46.3726 139.003 46.6647 138.758 46.9664 138.327C47.3855 137.75 47.6225 137.027 47.6717 136.178C47.721 135.326 47.5656 134.473 47.2095 133.641C46.5684 132.143 45.4752 130.979 43.9601 130.181C42.4457 129.384 40.6918 129.171 38.7471 129.549C37.0963 129.87 35.8247 130.486 34.9678 131.38C34.1128 132.272 33.65 133.398 33.5925 134.727C33.5339 136.064 33.7918 137.414 34.3592 138.739C34.9109 140.028 35.749 141.153 36.8504 142.083C37.9511 143.012 39.209 143.613 40.589 143.87C41.9734 144.127 43.444 144.108 44.9599 143.814C46.4188 143.53 47.602 143.077 48.4766 142.468C49.3443 141.863 49.9313 141.086 50.2213 140.159C50.2303 140.13 50.2541 140.109 50.2835 140.103L52.2586 139.719C52.2708 139.717 52.2834 139.717 52.2953 139.72C52.3073 139.724 52.3184 139.729 52.3278 139.738C52.3371 139.746 52.3444 139.756 52.3492 139.767C52.354 139.779 52.3561 139.791 52.3554 139.804C52.2739 141.194 51.7331 142.392 50.7481 143.363C49.6255 144.472 47.9845 145.242 45.8706 145.653C44.8564 145.851 43.8674 145.949 42.9107 145.949ZM40.1104 127.632C39.4316 127.632 38.7447 127.699 38.053 127.833C36.2406 128.186 34.7689 128.879 33.6788 129.893C32.5927 130.904 31.9522 132.245 31.775 133.879C31.5975 135.517 31.8805 137.219 32.6162 138.938C33.2864 140.504 34.2777 141.903 35.5627 143.096C36.8464 144.286 38.3877 145.09 40.1438 145.487C41.9035 145.884 43.8199 145.886 45.8396 145.494C47.9214 145.089 49.5344 144.333 50.6339 143.248C51.5646 142.33 52.0864 141.204 52.1859 139.899L50.362 140.254C50.0562 141.196 49.4533 141.986 48.5698 142.602C47.6763 143.224 46.4724 143.686 44.9911 143.974C43.4551 144.272 41.9641 144.291 40.5595 144.03C39.1513 143.768 37.8682 143.155 36.7458 142.207C35.6247 141.261 34.7716 140.116 34.2098 138.804C33.6328 137.455 33.3704 136.081 33.4301 134.72C33.4894 133.35 33.9673 132.189 34.8505 131.267C35.7311 130.349 37.0317 129.717 38.7162 129.389C40.6984 129.004 42.4881 129.222 44.036 130.037C45.5851 130.853 46.7032 132.044 47.3593 133.577C47.7254 134.432 47.8852 135.31 47.8344 136.188C47.7833 137.068 47.5358 137.82 47.099 138.422C46.7684 138.894 46.451 139.154 46.1296 139.217C46.0111 139.24 45.889 139.214 45.7666 139.14C45.6482 139.067 45.5514 138.945 45.4786 138.775C45.4235 138.646 45.35 138.365 45.2538 137.918L43.8218 131.067L41.5318 131.512L41.7257 132.507C41.7289 132.524 41.7269 132.541 41.72 132.556C41.7131 132.571 41.7017 132.584 41.6872 132.593C41.6727 132.601 41.656 132.605 41.6392 132.604C41.6225 132.602 41.6065 132.596 41.5936 132.585C40.7312 131.866 39.7512 131.606 38.6816 131.814C37.1782 132.107 36.236 133.072 35.8812 134.683C35.5844 136.02 35.7446 137.423 36.3573 138.854C36.8514 140.009 37.589 140.881 38.5494 141.446C39.5071 142.01 40.5005 142.197 41.502 142.002C42.4239 141.823 43.1012 141.316 43.515 140.497C43.5214 140.484 43.5308 140.473 43.5425 140.466C43.5541 140.458 43.5676 140.453 43.5815 140.452C43.5955 140.451 43.6095 140.454 43.6222 140.46C43.6349 140.466 43.6459 140.475 43.654 140.486C43.8778 140.801 44.1534 141.023 44.4735 141.146C44.7937 141.268 45.2073 141.282 45.7031 141.185C47.566 140.823 48.7732 139.724 49.2909 137.918C49.7085 136.479 49.5832 134.962 48.9186 133.409C48.3592 132.102 47.5159 130.942 46.412 129.962C45.3082 128.983 44.0128 128.3 42.5618 127.935C41.7603 127.733 40.9369 127.631 40.1104 127.632ZM40.9619 140.4C40.5817 140.4 40.198 140.276 39.8171 140.029C39.3282 139.712 38.9073 139.147 38.566 138.349C38.3126 137.757 38.1344 137.046 38.0364 136.236C37.9378 135.416 38.0311 134.741 38.3134 134.229C38.599 133.71 39.0248 133.392 39.5791 133.284C40.0929 133.184 40.6075 133.297 41.1081 133.618C41.6048 133.938 42.0109 134.46 42.3153 135.171C42.5852 135.802 42.7585 136.514 42.8305 137.289C42.9034 138.068 42.8544 138.692 42.6846 139.143C42.565 139.465 42.4081 139.718 42.2182 139.894C41.9758 140.136 41.6654 140.296 41.2977 140.367C41.1862 140.389 41.0742 140.4 40.9619 140.4ZM39.941 133.412C39.8307 133.412 39.7204 133.423 39.6101 133.444C39.1055 133.542 38.7171 133.833 38.4559 134.308C38.1903 134.789 38.1035 135.431 38.1979 136.216C38.2942 137.011 38.4684 137.707 38.7157 138.285C39.044 139.052 39.4443 139.593 39.9056 139.892C40.3624 140.188 40.8205 140.294 41.2666 140.207C41.6019 140.142 41.8841 139.997 42.1053 139.777C42.2785 139.616 42.4214 139.384 42.5321 139.086C42.6932 138.658 42.739 138.058 42.6683 137.304C42.598 136.546 42.4288 135.85 42.1656 135.235C41.8742 134.555 41.4889 134.057 41.0201 133.755C40.6645 133.527 40.3028 133.412 39.941 133.412Z" fill="#111111"/>
</g>
<defs>
<linearGradient id="paint0_linear_123_2948" x1="30.3062" y1="126.861" x2="43.6444" y2="149.83" gradientUnits="userSpaceOnUse">
<stop offset="0.097" stop-color="#6817C5"/>
<stop offset="1" stop-color="#111111"/>
</linearGradient>
<clipPath id="clip0_123_2948">
<rect width="85.514" height="105.456" fill="white" transform="translate(50.6324 40.1543)"/>
</clipPath>
<clipPath id="clip1_123_2948">
<rect width="39.7488" height="39.9516" fill="white" transform="translate(25.8907 15.8184)"/>
</clipPath>
<clipPath id="clip2_123_2948">
<rect width="15.21" height="17.0352" fill="white" transform="translate(39.1404 25.012)"/>
</clipPath>
<clipPath id="clip3_123_2948">
<rect width="40.7628" height="41.1684" fill="white" transform="translate(104.915 108.16)"/>
</clipPath>
<clipPath id="clip4_123_2948">
<rect width="29.068" height="27.9864" fill="white" transform="translate(25.8907 123.979)"/>
</clipPath>
</defs>
</svg>
