<svg width="131" height="120" viewBox="0 0 131 120" fill="none" xmlns="http://www.w3.org/2000/svg">
<g clip-path="url(#clip0_9826_113237)">
<g clip-path="url(#clip1_9826_113237)">
<path d="M66.1127 29.802L67.8459 32.4786C66.3809 32.6232 64.8798 32.4003 63.4967 31.7549C62.1301 31.1171 61.0496 30.1489 60.2986 28.9891L58.5654 26.3125C59.3165 27.4724 60.3969 28.4406 61.7635 29.0783C63.1467 29.7238 64.6477 29.9467 66.1127 29.802Z" fill="#E1D1F3"/>
<path d="M66.9954 32.5898C65.7651 32.5898 64.5599 32.3276 63.4672 31.8176C62.1362 31.1965 61.0204 30.2315 60.2404 29.0268L58.5072 26.3502C58.502 26.3426 58.4984 26.3341 58.4965 26.325C58.4947 26.316 58.4947 26.3067 58.4965 26.2977C58.4983 26.2886 58.5019 26.28 58.507 26.2724C58.5122 26.2648 58.5189 26.2583 58.5266 26.2533C58.5343 26.2483 58.543 26.2449 58.5521 26.2432C58.5611 26.2416 58.5704 26.2419 58.5794 26.2439C58.5884 26.2459 58.5969 26.2498 58.6044 26.2551C58.6118 26.2605 58.6182 26.2673 58.623 26.2752C59.3891 27.4581 60.485 28.4059 61.7924 29.016C63.1153 29.6333 64.6069 29.8815 66.1056 29.7335C66.1183 29.7321 66.131 29.7344 66.1424 29.7399C66.1539 29.7454 66.1635 29.754 66.1704 29.7646L67.9035 32.4413C67.9099 32.4512 67.9137 32.4626 67.9144 32.4744C67.9152 32.4863 67.9129 32.4981 67.9078 32.5087C67.9026 32.5194 67.8949 32.5286 67.8852 32.5353C67.8755 32.5421 67.8642 32.5463 67.8524 32.5475C67.5662 32.5758 67.2801 32.5898 66.9955 32.5898H66.9954ZM59.4031 27.4799L60.3562 28.9518C61.1222 30.1347 62.218 31.0824 63.5255 31.6925C64.8153 32.2944 66.2652 32.5454 67.7256 32.4205L66.0773 29.8749C64.568 30.0167 63.0671 29.7631 61.734 29.141C60.8505 28.7287 60.0618 28.1648 59.4031 27.4799Z" fill="#111111"/>
<path d="M98.9876 7.94531L100.721 10.6219C99.4618 11.4263 98.3818 12.5491 97.6336 13.9371C96.1561 16.6786 96.3409 19.7626 97.8422 22.081L96.109 19.4044C94.6077 17.086 94.4229 14.002 95.9005 11.2606C96.6486 9.87257 97.7286 8.7497 98.9876 7.94531Z" fill="#E1D1F3"/>
<path d="M97.8421 22.1527C97.8305 22.1527 97.8192 22.1498 97.8091 22.1443C97.799 22.1388 97.7904 22.1308 97.7841 22.1212L96.0509 19.4446C94.4894 17.0332 94.4084 13.8857 95.8396 11.2305C96.5673 9.8803 97.6429 8.72507 98.9503 7.88977C98.9656 7.87995 98.9843 7.87661 99.0021 7.88048C99.0199 7.88434 99.0354 7.8951 99.0453 7.9104L100.778 10.587C100.783 10.5946 100.787 10.6031 100.788 10.6121C100.79 10.6211 100.79 10.6302 100.788 10.6391C100.786 10.6481 100.782 10.6565 100.777 10.664C100.772 10.6714 100.765 10.6778 100.758 10.6827C99.4702 11.5054 98.4108 12.643 97.6942 13.9725C96.287 16.5834 96.3659 19.677 97.8999 22.0461C97.9066 22.0566 97.9105 22.0686 97.9109 22.081C97.9114 22.0934 97.9086 22.1057 97.9026 22.1166C97.8967 22.1275 97.888 22.1366 97.8773 22.143C97.8667 22.1493 97.8545 22.1527 97.8421 22.1527ZM98.967 8.04325C97.7055 8.86288 96.667 9.9863 95.9611 11.296C94.5538 13.9068 94.6327 17.0004 96.1667 19.3696L97.1189 20.8398C96.2385 18.6587 96.3838 16.113 97.5728 13.9071C98.2897 12.577 99.3441 11.4362 100.625 10.6039L98.967 8.04325Z" fill="#111111"/>
<path d="M73.8513 54.5805L75.5845 57.2571L58.7293 49.3914L56.9961 46.7148L73.8513 54.5805Z" fill="#E1D1F3"/>
<path d="M75.5843 57.3288C75.5742 57.3289 75.5642 57.3267 75.5551 57.3224L58.6999 49.4567C58.6881 49.4512 58.6782 49.4425 58.6712 49.4316L56.938 46.7551C56.9298 46.7425 56.9259 46.7276 56.9269 46.7126C56.928 46.6977 56.9338 46.6834 56.9437 46.6721C56.9535 46.6608 56.9668 46.653 56.9815 46.6499C56.9962 46.6468 57.0115 46.6486 57.025 46.655L73.8803 54.5207C73.892 54.5263 73.902 54.5349 73.909 54.5458L75.6421 57.2224C75.6489 57.2328 75.6527 57.2448 75.6532 57.2572C75.6537 57.2696 75.6508 57.2819 75.6449 57.2928C75.639 57.3037 75.6302 57.3128 75.6195 57.3192C75.6088 57.3255 75.5967 57.3289 75.5843 57.3288ZM58.7762 49.34L75.3958 57.0957L73.804 54.6374L57.1843 46.8817L58.7762 49.3401L58.7762 49.34Z" fill="#111111"/>
<path d="M128.605 21.7695L130.339 24.4461L121.222 41.3598L119.489 38.6832L128.605 21.7695Z" fill="#E1D1F3"/>
<path d="M121.222 41.4275C121.211 41.4275 121.199 41.4246 121.189 41.4191C121.179 41.4136 121.17 41.4056 121.164 41.3959L119.431 38.7194C119.424 38.709 119.42 38.697 119.42 38.6846C119.419 38.6723 119.422 38.66 119.428 38.6491L128.545 21.7354C128.55 21.7249 128.559 21.716 128.569 21.7096C128.579 21.7033 128.59 21.6997 128.602 21.6993C128.626 21.6985 128.65 21.7102 128.663 21.7307L130.396 24.4073C130.403 24.4177 130.407 24.4297 130.407 24.442C130.408 24.4544 130.405 24.4667 130.399 24.4775L121.283 41.3912C121.277 41.4018 121.269 41.4107 121.259 41.417C121.248 41.4234 121.237 41.4269 121.225 41.4274H121.222V41.4275ZM119.569 38.6786L121.217 41.2231L130.258 24.448L128.611 21.9035L119.569 38.6786Z" fill="#111111"/>
<path d="M86.6141 60.5391L88.3473 63.2156C88.4074 64.6356 88.087 66.113 87.3385 67.5019C85.1221 71.614 80.0016 73.398 75.9039 71.4858C74.5373 70.848 73.4569 69.8798 72.7058 68.72L70.9727 66.0434C71.7237 67.2033 72.8042 68.1715 74.1707 68.8092C78.2684 70.7214 83.3889 68.9374 85.6053 64.8253C86.3539 63.4364 86.6742 61.959 86.6141 60.5391Z" fill="url(#paint0_linear_9826_113237)"/>
<path d="M79.3934 72.3189C78.1964 72.3189 76.9969 72.0711 75.8744 71.5472C74.5434 70.9261 73.4276 69.9611 72.6476 68.7564L70.9144 66.0798C70.9092 66.0722 70.9056 66.0636 70.9037 66.0546C70.9019 66.0456 70.9019 66.0363 70.9037 66.0272C70.9055 66.0182 70.9091 66.0096 70.9143 66.002C70.9194 65.9944 70.9261 65.9879 70.9338 65.9829C70.9416 65.9778 70.9502 65.9744 70.9593 65.9728C70.9684 65.9712 70.9777 65.9714 70.9866 65.9735C70.9956 65.9755 71.0041 65.9793 71.0116 65.9847C71.0191 65.9901 71.0254 65.9969 71.0302 66.0048C71.7963 67.1877 72.8922 68.1355 74.1996 68.7455C75.3036 69.2607 76.4842 69.5046 77.6617 69.5046C80.8136 69.5048 83.9454 67.7578 85.5443 64.7914C86.2604 63.4627 86.6064 61.9929 86.545 60.5408C86.5443 60.5257 86.5486 60.5107 86.5572 60.4983C86.5659 60.4858 86.5784 60.4766 86.5929 60.472C86.6073 60.4674 86.6229 60.4677 86.6371 60.4728C86.6514 60.4779 86.6636 60.4876 86.6718 60.5004L88.405 63.177C88.4117 63.1874 88.4154 63.1993 88.416 63.2116C88.4784 64.6887 88.1268 66.1832 87.3989 67.5334C85.7756 70.5452 82.5947 72.3187 79.3935 72.3188L79.3934 72.3189ZM71.8104 67.2094L72.7634 68.6813C73.5294 69.8643 74.6253 70.812 75.9328 71.4221C79.9922 73.3166 85.0813 71.5427 87.2774 67.4679C87.9904 66.1452 88.3366 64.6823 88.2789 63.2362L86.6894 60.7815C86.7051 62.1776 86.3532 63.5814 85.6657 64.8569C84.0425 67.8685 80.8615 69.642 77.6603 69.6423C76.4633 69.6423 75.2638 69.3944 74.1413 68.8706C73.2578 68.4582 72.4691 67.8944 71.8104 67.2094L71.8104 67.2094Z" fill="#111111"/>
<path d="M112.585 51.4883L114.319 54.1648L105.202 71.0794L103.469 68.4029L112.585 51.4883Z" fill="#E1D1F3"/>
<path d="M105.203 71.151C105.191 71.151 105.18 71.1482 105.17 71.1426C105.159 71.1371 105.151 71.1292 105.145 71.1195L103.412 68.4429C103.405 68.4326 103.401 68.4206 103.4 68.4082C103.4 68.3958 103.403 68.3836 103.409 68.3727L112.525 51.4581C112.531 51.4476 112.539 51.4387 112.55 51.4323C112.56 51.426 112.571 51.4224 112.583 51.4219C112.595 51.4214 112.607 51.424 112.618 51.4296C112.629 51.4351 112.638 51.4433 112.644 51.4534L114.377 54.13C114.384 54.1404 114.388 54.1524 114.388 54.1647C114.389 54.1771 114.386 54.1894 114.38 54.2002L105.263 71.1148C105.258 71.1254 105.249 71.1343 105.239 71.1406C105.229 71.1469 105.217 71.1505 105.205 71.151L105.203 71.151ZM103.55 68.4022L105.197 70.9467L114.239 54.1707L112.592 51.6263L103.55 68.4022Z" fill="#111111"/>
<path d="M127.037 42.1719L128.77 44.8484C130.271 47.1668 130.457 50.2511 128.979 52.9925C126.763 57.1046 121.642 58.8886 117.545 56.9764C116.178 56.3388 115.099 55.3697 114.348 54.2107L112.615 51.5342C113.366 52.6931 114.445 53.6622 115.811 54.2998C119.909 56.212 125.03 54.428 127.246 50.3159C128.723 47.5746 128.538 44.4903 127.037 42.1719Z" fill="url(#paint1_linear_9826_113237)"/>
<path d="M121.034 57.8108C119.837 57.8108 118.637 57.563 117.515 57.0392C116.186 56.4189 115.071 55.4539 114.29 54.2485L112.557 51.5719C112.547 51.5565 112.544 51.5378 112.547 51.5199C112.551 51.502 112.562 51.4864 112.577 51.4764C112.593 51.4665 112.611 51.4631 112.629 51.4669C112.647 51.4707 112.663 51.4815 112.673 51.4969C113.439 52.6805 114.535 53.6282 115.84 54.2375C116.944 54.7527 118.125 54.9966 119.302 54.9966C122.454 54.9967 125.586 53.2497 127.185 50.2833C128.592 47.6727 128.513 44.579 126.979 42.2096C126.974 42.202 126.97 42.1934 126.968 42.1844C126.966 42.1754 126.966 42.1661 126.968 42.157C126.97 42.148 126.973 42.1394 126.979 42.1318C126.984 42.1242 126.99 42.1177 126.998 42.1127C127.006 42.1076 127.015 42.1042 127.024 42.1026C127.033 42.101 127.042 42.1012 127.051 42.1033C127.06 42.1053 127.068 42.1091 127.076 42.1145C127.083 42.1199 127.09 42.1267 127.095 42.1346L128.828 44.8112C130.389 47.2228 130.471 50.3704 129.039 53.0255C127.416 56.0371 124.235 57.8106 121.034 57.8108L121.034 57.8108ZM113.454 52.7027L114.406 54.1735C115.172 55.3571 116.268 56.3048 117.573 56.9141C118.677 57.4294 119.858 57.6732 121.035 57.6732C124.187 57.6734 127.319 55.9264 128.918 52.96C130.325 50.3492 130.246 47.2555 128.712 44.8862L127.76 43.4162C128.641 45.5975 128.495 48.143 127.306 50.3488C125.683 53.3606 122.502 55.1341 119.301 55.1342C118.104 55.1342 116.904 54.8864 115.782 54.3625C114.9 53.9509 114.112 53.3875 113.454 52.7026L113.454 52.7027Z" fill="#111111"/>
<path d="M103.469 68.4047L105.203 71.0813L88.3474 63.2156L86.6143 60.5391L103.469 68.4047Z" fill="#E1D1F3"/>
<path d="M105.202 71.1492C105.192 71.1492 105.182 71.147 105.173 71.1427L88.318 63.2771C88.3063 63.2716 88.2964 63.2629 88.2893 63.252L86.5561 60.5754C86.5479 60.5628 86.5441 60.5479 86.5451 60.5329C86.5461 60.518 86.552 60.5038 86.5619 60.4924C86.5717 60.4811 86.585 60.4733 86.5997 60.4702C86.6143 60.4671 86.6296 60.4689 86.6432 60.4753L103.498 68.3411C103.51 68.3466 103.52 68.3552 103.527 68.3661L105.26 71.0427C105.267 71.0531 105.271 71.0651 105.271 71.0775C105.272 71.0899 105.269 71.1022 105.263 71.1131C105.257 71.1241 105.248 71.1332 105.238 71.1395C105.227 71.1458 105.215 71.1492 105.202 71.1492ZM88.3944 63.1604L105.014 70.9161L103.422 68.4577L86.8025 60.702L88.3944 63.1604Z" fill="#111111"/>
<path d="M128.606 21.7693L119.489 38.683C120.954 38.5383 122.455 38.7621 123.839 39.4079C127.937 41.3202 129.463 46.2048 127.246 50.3178C125.03 54.4299 119.909 56.2139 115.811 54.3017C114.427 53.6558 113.338 52.6697 112.586 51.4907L103.469 68.4053L86.6142 60.5396C86.6743 61.9596 86.3539 63.4369 85.6053 64.8259C83.3889 68.938 78.2684 70.722 74.1707 68.8097C70.0722 66.8971 68.5474 62.012 70.7638 57.8999C71.5124 56.511 72.5924 55.3881 73.8514 54.5837L56.9961 46.7181L66.1128 29.8035C64.6478 29.9481 63.1468 29.7252 61.7636 29.0798C57.6651 27.1672 56.1403 22.282 58.3566 18.1699C60.5735 14.057 65.6926 12.2734 69.7912 14.186C71.1744 14.8315 72.2645 15.8167 73.016 16.9958L82.1322 0.0820312L98.9874 7.9477C97.7285 8.75208 96.6485 9.87495 95.9003 11.263C93.6835 15.376 95.2088 20.2602 99.3073 22.1728C103.405 24.085 108.525 22.3019 110.742 18.1889C111.49 16.8009 111.81 15.3235 111.75 13.9036L128.606 21.7693Z" fill="#E1D1F3"/>
<path d="M77.6602 69.6428C76.4632 69.6428 75.2637 69.395 74.1412 68.8711C72.187 67.9591 70.7425 66.345 70.0738 64.3258C69.3736 62.2118 69.5969 59.9176 70.7027 57.866C71.4112 56.5515 72.449 55.4219 73.709 54.5924L56.9666 46.7794C56.9494 46.7713 56.9363 46.7565 56.9303 46.7385C56.9243 46.7205 56.926 46.7008 56.935 46.6841L65.9908 29.8827C64.5108 30.0069 63.0418 29.7513 61.7342 29.1412C59.78 28.2292 58.3355 26.615 57.6667 24.5959C56.9665 22.4818 57.1898 20.1876 58.2956 18.136C60.5258 13.9981 65.6957 12.1977 69.8201 14.1223C71.131 14.7341 72.2318 15.679 73.0102 16.8593L82.0712 0.0480399C82.0795 0.0325101 82.0935 0.0207637 82.1102 0.0152181C82.1269 0.00967239 82.1451 0.0107494 82.1611 0.0182274L99.0164 7.88389C99.0276 7.88909 99.0372 7.89722 99.0442 7.90742C99.0512 7.91763 99.0554 7.92953 99.0562 7.94188C99.057 7.95424 99.0545 7.96658 99.0488 7.97761C99.0432 7.98865 99.0348 7.99797 99.0243 8.00459C97.7368 8.82726 96.6774 9.9649 95.9608 11.2945C94.8731 13.3125 94.653 15.568 95.3411 17.6455C95.9978 19.6281 97.4166 21.2132 99.3362 22.1091C103.395 24.0033 108.485 22.2296 110.681 18.1549C111.397 16.8268 111.743 15.3573 111.681 13.9053C111.681 13.8934 111.683 13.8816 111.688 13.8711C111.694 13.8605 111.702 13.8515 111.712 13.8449C111.722 13.8383 111.733 13.8344 111.745 13.8335C111.757 13.8326 111.768 13.8347 111.779 13.8398L128.634 21.7054C128.643 21.7094 128.651 21.7151 128.657 21.7221C128.663 21.7292 128.668 21.7374 128.671 21.7463C128.674 21.7552 128.675 21.7646 128.674 21.774C128.673 21.7834 128.67 21.7925 128.666 21.8007L119.611 38.6013C121.089 38.4773 122.559 38.7333 123.868 39.3441C125.822 40.256 127.266 41.8703 127.935 43.8896C128.635 46.0036 128.412 48.2977 127.306 50.3493C125.683 53.361 122.502 55.1345 119.301 55.1347C118.104 55.1347 116.904 54.8869 115.782 54.363C114.471 53.7514 113.37 52.8061 112.591 51.6247L103.53 68.4368C103.521 68.4523 103.507 68.464 103.491 68.4696C103.474 68.4751 103.456 68.4741 103.44 68.4667L86.6867 60.6486C86.7271 62.0886 86.375 63.5413 85.6656 64.8574C84.0424 67.8691 80.8614 69.6426 77.6602 69.6428ZM57.0912 46.6852L73.8802 54.52C73.8914 54.5253 73.9009 54.5334 73.9079 54.5436C73.9148 54.5538 73.9189 54.5657 73.9197 54.578C73.9205 54.5903 73.918 54.6026 73.9125 54.6137C73.9069 54.6247 73.8985 54.634 73.8881 54.6407C72.6006 55.4634 71.5411 56.6013 70.8242 57.9315C69.7366 59.9492 69.5166 62.2048 70.2047 64.2824C70.8615 66.2651 72.2802 67.8503 74.1995 68.7461C78.2589 70.6403 83.348 68.8666 85.5442 64.7919C86.2603 63.4633 86.6063 61.9935 86.5448 60.5414C86.5443 60.5295 86.5469 60.5177 86.5523 60.5072C86.5576 60.4966 86.5656 60.4876 86.5755 60.481C86.5853 60.4744 86.5967 60.4705 86.6085 60.4696C86.6204 60.4687 86.6322 60.4709 86.643 60.4759L103.439 68.3141L112.525 51.4568C112.531 51.4462 112.539 51.4373 112.549 51.431C112.56 51.4246 112.571 51.421 112.583 51.4206C112.595 51.42 112.607 51.4226 112.618 51.4282C112.629 51.4338 112.638 51.4422 112.644 51.4525C113.412 52.6574 114.517 53.6207 115.84 54.238C119.9 56.1324 124.989 54.3586 127.185 50.2839C128.272 48.2661 128.492 46.0106 127.804 43.933C127.148 41.9502 125.729 40.365 123.81 39.4692C122.485 38.8511 120.993 38.6025 119.496 38.7504C119.483 38.7517 119.471 38.7495 119.459 38.7442C119.448 38.7388 119.439 38.7305 119.432 38.7201C119.425 38.7096 119.421 38.6975 119.42 38.685C119.42 38.6725 119.422 38.66 119.428 38.649L128.51 21.7996L111.823 14.0126C111.863 15.4525 111.511 16.905 110.802 18.2205C109.179 21.2322 105.998 23.0057 102.797 23.0058C101.6 23.0058 100.4 22.758 99.2779 22.2342C97.3235 21.3221 95.8789 19.7079 95.2102 17.6889C94.5101 15.575 94.7335 13.2808 95.8394 11.229C96.5476 9.91507 97.5852 8.78586 98.8452 7.95635L82.1618 0.170878L73.0764 17.0273C73.0707 17.0379 73.0623 17.0468 73.0521 17.0531C73.0419 17.0595 73.0302 17.0631 73.0182 17.0635C72.9923 17.0635 72.9706 17.0522 72.9575 17.0316C72.1901 15.8277 71.085 14.8648 69.7617 14.2473C65.7026 12.353 60.6132 14.1268 58.417 18.2015C57.3294 20.2193 57.1095 22.4748 57.7976 24.5524C58.4543 26.5351 59.873 28.1204 61.7924 29.0161C63.1153 29.6335 64.6069 29.8816 66.1056 29.7336C66.1181 29.7323 66.1307 29.7345 66.142 29.7399C66.1533 29.7452 66.163 29.7536 66.1699 29.764C66.1769 29.7744 66.1809 29.7865 66.1814 29.7991C66.182 29.8116 66.1791 29.824 66.1732 29.8351L57.0912 46.6852Z" fill="#111111"/>
</g>
<g clip-path="url(#clip2_9826_113237)">
<path d="M54.5426 81.167L50.2461 81.2777C51.4098 81.2477 52.5828 80.9093 53.6714 80.2311C54.901 79.4651 55.8639 78.3627 56.5247 77.0795L60.8212 76.9688C60.1604 78.252 59.1975 79.3544 57.9679 80.1204C56.8793 80.7985 55.7063 81.1369 54.5426 81.167Z" fill="#6817C5"/>
<path d="M50.2454 81.3451C50.2275 81.3447 50.2104 81.3375 50.1978 81.3248C50.1851 81.3121 50.178 81.2949 50.1777 81.277C50.1775 81.2591 50.1843 81.2418 50.1966 81.2288C50.2089 81.2158 50.2258 81.2081 50.2437 81.2074C51.4394 81.1766 52.5802 80.828 53.6344 80.1712C54.8089 79.4395 55.787 78.359 56.4629 77.0465C56.4685 77.0355 56.477 77.0263 56.4874 77.0197C56.4979 77.0132 56.5099 77.0095 56.5222 77.0092L60.8186 76.8985C60.8412 76.8977 60.8658 76.91 60.8786 76.9307C60.885 76.9408 60.8886 76.9524 60.8891 76.9644C60.8896 76.9763 60.887 76.9882 60.8815 76.9988C60.1943 78.3334 59.1991 79.4325 58.0035 80.1774C56.9434 80.8378 55.7469 81.2033 54.5436 81.2343L50.2471 81.3451H50.2454ZM56.5664 77.1458C55.8798 78.4641 54.8918 79.5501 53.7071 80.2882C53.0364 80.7059 52.331 81.0016 51.599 81.1724L54.54 81.0966C55.7358 81.0658 56.8766 80.7172 57.9308 80.0604C59.0743 79.348 60.0316 78.305 60.705 77.0391L56.5663 77.1458L56.5664 77.1458Z" fill="#111111"/>
<path d="M50.5636 119.36L46.2671 119.47C43.5385 119.541 40.8618 117.915 39.4478 114.999C38.7666 113.594 38.4674 112.07 38.5074 110.579L42.8039 110.469C42.7639 111.959 43.0631 113.484 43.7443 114.888C45.1583 117.805 47.835 119.43 50.5636 119.36Z" fill="url(#paint2_linear_9826_113237)"/>
<path d="M46.0933 119.54C43.3004 119.54 40.7426 117.825 39.3864 115.028C38.7251 113.664 38.3975 112.125 38.4391 110.576C38.4395 110.559 38.4468 110.542 38.4592 110.529C38.4717 110.517 38.4885 110.51 38.5061 110.509L42.8026 110.398C42.8119 110.398 42.8212 110.4 42.8298 110.403C42.8385 110.407 42.8464 110.412 42.853 110.419C42.8596 110.425 42.8648 110.433 42.8682 110.442C42.8717 110.45 42.8733 110.46 42.8731 110.469C42.832 111.996 43.1548 113.513 43.8065 114.857C45.1672 117.663 47.755 119.362 50.5622 119.289H50.564C50.5819 119.29 50.5989 119.297 50.6116 119.31C50.6242 119.322 50.6314 119.339 50.6316 119.357C50.6318 119.375 50.6251 119.393 50.6128 119.406C50.6005 119.419 50.5836 119.426 50.5657 119.427L46.2692 119.538C46.2105 119.539 46.1517 119.54 46.0932 119.54L46.0933 119.54ZM38.5752 110.645C38.545 112.15 38.8678 113.643 39.5101 114.968C40.8709 117.774 43.4563 119.474 46.2658 119.4L49.2006 119.324C46.8849 118.913 44.8438 117.311 43.6828 114.917C43.0319 113.575 42.7043 112.062 42.7339 110.538L38.5752 110.645Z" fill="#111111"/>
<path d="M31.271 56.2388L26.9746 56.3496L41.9488 47.0209L46.2452 46.9102L31.271 56.2388Z" fill="white"/>
<path d="M26.974 56.417C26.9591 56.417 26.9446 56.4121 26.9326 56.4031C26.9207 56.3941 26.912 56.3815 26.9079 56.3671C26.9038 56.3527 26.9045 56.3374 26.9099 56.3234C26.9153 56.3094 26.925 56.2976 26.9377 56.2897L41.9119 46.961C41.9223 46.9546 41.9342 46.951 41.9465 46.9507L46.243 46.8399C46.2581 46.8392 46.2731 46.8437 46.2853 46.8526C46.2976 46.8615 46.3065 46.8743 46.3106 46.8889C46.3149 46.9034 46.3144 46.9189 46.309 46.9331C46.3037 46.9472 46.2938 46.9592 46.281 46.9672L31.3068 56.2958C31.2964 56.3023 31.2844 56.3059 31.2722 56.3062L26.9758 56.4168H26.974V56.417ZM41.9688 47.0878L27.2253 56.2728L31.25 56.1691L45.9935 46.9841L41.9688 47.0878Z" fill="#111111"/>
<path d="M19.9875 102.692L15.691 102.803C16.8543 102.773 18.0268 102.436 19.1151 101.758C22.7562 99.4896 24.0727 94.2791 22.0557 90.1192C20.6417 87.2031 17.9649 85.5778 15.2363 85.6481L19.5328 85.5373C22.2614 85.467 24.9381 87.0923 26.3521 90.0085C28.3692 94.1684 27.0528 99.379 23.4116 101.647C22.3233 102.325 21.1508 102.662 19.9875 102.692Z" fill="url(#paint3_linear_9826_113237)"/>
<path d="M15.6915 102.874C15.6736 102.874 15.6565 102.867 15.6438 102.854C15.6312 102.841 15.624 102.824 15.6238 102.806C15.6236 102.788 15.6303 102.771 15.6426 102.758C15.655 102.745 15.6718 102.737 15.6897 102.736H15.6899C16.8868 102.706 18.0271 102.358 19.0792 101.702C22.6854 99.4555 23.9931 94.2741 21.9943 90.1519C20.6335 87.3455 18.0454 85.648 15.2385 85.7194C15.1987 85.721 15.169 85.6904 15.168 85.6524C15.167 85.6144 15.197 85.5828 15.2351 85.5818L19.5315 85.4711C22.3909 85.3966 25.0298 87.1254 26.4145 89.981C28.4431 94.1648 27.1125 99.4256 23.4484 101.708C22.3751 102.377 21.2114 102.732 19.9897 102.763L15.6932 102.874H15.6915ZM16.6003 85.6843C18.916 86.0958 20.957 87.6974 22.118 90.0917C24.1466 94.2754 22.8161 99.5363 19.1519 101.819C18.4828 102.236 17.7785 102.531 17.047 102.701L19.9861 102.626C21.1831 102.595 22.3234 102.247 23.3757 101.591C26.9818 99.3448 28.2895 94.1634 26.2907 90.0411C24.9578 87.2923 22.4469 85.6065 19.7072 85.6065C19.6499 85.6065 19.5925 85.6073 19.5349 85.6087L16.6003 85.6844V85.6843Z" fill="#111111"/>
<path d="M27.8299 119.795L23.5334 119.905L15.2383 102.798L19.5347 102.688L27.8299 119.795Z" fill="#6817C5"/>
<path d="M23.5338 119.977C23.5209 119.977 23.5083 119.973 23.4973 119.966C23.4864 119.959 23.4776 119.95 23.472 119.938L15.1768 102.831C15.1718 102.82 15.1694 102.809 15.17 102.797C15.1706 102.786 15.174 102.775 15.18 102.765C15.1859 102.755 15.1943 102.747 15.2042 102.741C15.2142 102.735 15.2254 102.732 15.2369 102.732L19.5333 102.621H19.535C19.5614 102.621 19.5854 102.636 19.5969 102.66L27.8921 119.767C27.8972 119.777 27.8995 119.789 27.8989 119.8C27.8984 119.812 27.8949 119.823 27.889 119.833C27.883 119.843 27.8746 119.851 27.8647 119.857C27.8547 119.862 27.8435 119.866 27.832 119.866L23.5355 119.977H23.5338ZM15.3472 102.867L23.5764 119.838L27.7219 119.731L19.4926 102.76L15.3472 102.867Z" fill="#111111"/>
<path d="M19.2146 47.4585C18.051 47.4884 16.8779 47.8268 15.7893 48.505C12.1482 50.7734 10.8317 55.9839 12.8487 60.1438C13.5299 61.5485 14.5048 62.6519 15.6365 63.4126L19.933 63.3019C18.8013 62.5411 17.8264 61.4377 17.1452 60.033C15.1282 55.8732 16.4447 50.6626 20.0858 48.3942C21.1744 47.7161 22.3474 47.3777 23.5111 47.3477L19.2146 47.4584V47.4585Z" fill="url(#paint4_linear_9826_113237)"/>
<path d="M15.6368 63.48C15.6232 63.48 15.6098 63.4759 15.5984 63.4683C14.4211 62.6769 13.4489 61.5372 12.7871 60.1723C10.7585 55.9886 12.089 50.7278 15.7532 48.445C16.8133 47.7846 18.0097 47.4191 19.2131 47.3881L23.5096 47.2773H23.5113C23.5292 47.2776 23.5463 47.2849 23.5589 47.2976C23.5715 47.3103 23.5787 47.3274 23.5789 47.3453C23.5792 47.3633 23.5724 47.3805 23.5601 47.3936C23.5478 47.4066 23.5309 47.4143 23.513 47.415C22.3172 47.4459 21.1763 47.7944 20.1223 48.4512C16.5161 50.6978 15.2084 55.8792 17.2073 60.0014C17.8585 61.3444 18.8143 62.4653 19.9716 63.2432C19.9837 63.2513 19.9929 63.2631 19.9978 63.2769C20.0028 63.2906 20.0033 63.3055 19.9992 63.3196C19.9951 63.3336 19.9867 63.3459 19.9751 63.3548C19.9636 63.3637 19.9495 63.3688 19.9349 63.3691L15.6385 63.4799H15.6368L15.6368 63.48ZM19.2149 47.457L19.2166 47.5259C18.0208 47.5567 16.8801 47.9053 15.8259 48.562C12.2197 50.8087 10.9121 55.9901 12.9109 60.1123C13.5587 61.4481 14.508 62.5644 15.6571 63.3418L19.7209 63.2371C18.6215 62.4524 17.7125 61.3587 17.0836 60.0617C15.0549 55.8779 16.3855 50.6171 20.0496 48.3344C20.7142 47.9203 21.4327 47.6221 22.1726 47.4497L19.2165 47.5259L19.2148 47.457H19.2149Z" fill="#111111"/>
<path d="M13.2537 89.7362L8.95729 89.8469L0.662109 72.7396L4.95859 72.6289L13.2537 89.7362Z" fill="#6817C5"/>
<path d="M8.95757 89.9143C8.94466 89.9143 8.93201 89.9107 8.92107 89.9038C8.91013 89.8969 8.90134 89.8871 8.89572 89.8755L0.600606 72.7682C0.595604 72.7578 0.593274 72.7464 0.593831 72.7349C0.594387 72.7234 0.597811 72.7122 0.60379 72.7024C0.60977 72.6926 0.618114 72.6844 0.628062 72.6786C0.638009 72.6728 0.649244 72.6696 0.660741 72.6693L4.95715 72.5586H4.95887C4.98523 72.5586 5.00924 72.5736 5.02073 72.5974L13.3159 89.7046C13.3209 89.715 13.3232 89.7264 13.3227 89.7379C13.3221 89.7494 13.3187 89.7606 13.3127 89.7704C13.3067 89.7802 13.2984 89.7884 13.2885 89.7942C13.2785 89.8 13.2673 89.8032 13.2558 89.8035L8.95936 89.9142H8.95764L8.95757 89.9143ZM0.770965 72.8042L9.00016 89.7754L13.1455 89.6685L4.91635 72.6974L0.770965 72.8042Z" fill="#111111"/>
<path d="M4.95859 72.6294L0.662109 72.7402L15.6363 63.4115L19.9327 63.3008L4.95859 72.6294Z" fill="white"/>
<path d="M0.662527 72.8076C0.647578 72.8076 0.633038 72.8028 0.621106 72.7937C0.609174 72.7847 0.600499 72.7721 0.596395 72.7577C0.59229 72.7433 0.592978 72.728 0.598356 72.714C0.603733 72.7 0.613507 72.6882 0.626199 72.6803L15.6004 63.3517C15.6108 63.3452 15.6228 63.3416 15.635 63.3413L19.9314 63.2306C19.9619 63.2287 19.9902 63.2499 19.9991 63.2796C20.0034 63.2941 20.0028 63.3096 19.9975 63.3237C19.9922 63.3379 19.9823 63.3499 19.9695 63.3578L4.99534 72.6866C4.98494 72.6931 4.97298 72.6966 4.96073 72.6969L0.664316 72.8076H0.662596H0.662527ZM15.6572 63.4784L0.913663 72.6634L4.93844 72.5597L19.682 63.3748L15.6572 63.4785L15.6572 63.4784Z" fill="#111111"/>
<path d="M20.086 48.3944C23.7271 46.126 28.3136 47.6592 30.3307 51.819C31.0119 53.2237 31.3111 54.748 31.271 56.2388L46.2452 46.9102L54.5404 64.0174C53.2304 63.9619 51.8933 64.2924 50.6637 65.0584C47.0225 67.3268 45.706 72.5373 47.7231 76.6972C49.7402 80.857 54.3266 82.3902 57.9678 80.1218C59.1974 79.3558 60.1602 78.2535 60.821 76.9702L69.1162 94.0774L54.142 103.406C55.2737 104.167 56.2486 105.27 56.9298 106.675C58.9469 110.835 57.6304 116.045 53.9892 118.314C50.3481 120.582 45.7616 119.049 43.7446 114.889C43.0634 113.484 42.7642 111.96 42.8042 110.469L27.83 119.798L19.5348 102.691C20.8448 102.746 22.1819 102.416 23.4115 101.65C27.0526 99.3814 28.3691 94.1708 26.3521 90.011C24.335 85.8511 19.7486 84.318 16.1074 86.5864C14.8778 87.3524 13.915 88.4548 13.2542 89.738L4.95898 72.6308L19.9332 63.3021C18.8014 62.5414 17.8265 61.438 17.1454 60.0333C15.1283 55.8734 16.4448 50.6629 20.0859 48.3945L20.086 48.3944Z" fill="#E1D1F3"/>
<path d="M27.8296 119.865C27.8167 119.865 27.804 119.862 27.7931 119.855C27.7822 119.848 27.7734 119.838 27.7677 119.827L19.4725 102.719C19.4673 102.709 19.4649 102.697 19.4657 102.685C19.4665 102.673 19.4703 102.662 19.4768 102.652C19.4833 102.642 19.4923 102.634 19.5029 102.628C19.5135 102.623 19.5253 102.62 19.5372 102.621C20.8744 102.677 22.2015 102.321 23.3746 101.59C26.9808 99.3433 28.2885 94.1619 26.2897 90.0397C25.2858 87.9695 23.5572 86.449 21.5471 85.8681C19.7147 85.3386 17.7957 85.614 16.1432 86.6434C14.9688 87.3751 13.9907 88.4556 13.3148 89.7681C13.3028 89.7913 13.2783 89.8044 13.2528 89.8055C13.2401 89.8053 13.2276 89.8016 13.2168 89.7948C13.206 89.7879 13.1973 89.7782 13.1917 89.7667L4.89657 72.6595C4.88914 72.6441 4.88763 72.6266 4.89234 72.6103C4.89706 72.5939 4.90766 72.5799 4.92209 72.5709L19.8067 63.2981C18.6686 62.5095 17.7283 61.3928 17.083 60.0619C15.0543 55.8781 16.3849 50.6173 20.049 48.3346C21.735 47.2843 23.6935 47.0034 25.5638 47.5439C27.6113 48.1357 29.3711 49.6825 30.3918 51.7876C31.035 53.114 31.3625 54.6063 31.3417 56.1119L46.2084 46.8503C46.2165 46.8452 46.2257 46.8418 46.2353 46.8405C46.2448 46.8392 46.2545 46.8399 46.2638 46.8425C46.2731 46.8452 46.2817 46.8498 46.2891 46.856C46.2964 46.8623 46.3024 46.87 46.3066 46.8786L54.6018 63.9859C54.607 63.9966 54.6093 64.0085 54.6086 64.0204C54.6078 64.0323 54.604 64.0437 54.5975 64.0537C54.5909 64.0637 54.5819 64.0718 54.5713 64.0772C54.5608 64.0827 54.5489 64.0853 54.5371 64.0848C53.1996 64.0281 51.8729 64.3845 50.6996 65.1154C47.0935 67.3621 45.7858 72.5435 47.7846 76.6657C48.7885 78.7358 50.517 80.2563 52.5272 80.8372C54.3593 81.3668 56.2785 81.0914 57.9311 80.0619C59.1056 79.3302 60.0836 78.2496 60.7595 76.9372C60.7715 76.914 60.7927 76.8992 60.8214 76.8999C60.8475 76.9002 60.8712 76.9152 60.8825 76.9386L69.1777 94.0459C69.1851 94.0612 69.1866 94.0788 69.1819 94.0951C69.1772 94.1115 69.1666 94.1255 69.1522 94.1345L54.2676 103.407C55.4056 104.196 56.3461 105.313 56.9914 106.643C59.02 110.827 57.6895 116.088 54.0253 118.371C52.3393 119.421 50.3808 119.702 48.5106 119.161C46.4629 118.57 44.7032 117.023 43.6824 114.918C43.0392 113.591 42.7118 112.099 42.7326 110.594L27.8662 119.855C27.8553 119.862 27.8427 119.866 27.8299 119.866L27.8296 119.865ZM19.6461 102.762L27.8582 119.698L42.7674 110.409C42.778 110.403 42.7901 110.399 42.8025 110.399C42.8149 110.399 42.8271 110.402 42.8379 110.408C42.8487 110.414 42.8576 110.423 42.8637 110.434C42.8698 110.445 42.8728 110.457 42.8725 110.47C42.8314 111.996 43.1543 113.514 43.8059 114.858C44.8097 116.928 46.5383 118.448 48.5485 119.029C50.3807 119.559 52.2997 119.283 53.9524 118.254C57.5585 116.007 58.8662 110.826 56.8674 106.704C56.2161 105.361 55.2603 104.24 54.103 103.462C54.0935 103.455 54.0857 103.447 54.0804 103.437C54.0751 103.426 54.0724 103.415 54.0726 103.403C54.0728 103.392 54.0759 103.381 54.0816 103.371C54.0873 103.361 54.0953 103.352 54.1051 103.346L69.0267 94.0503L60.8181 77.1215C60.1337 78.4013 59.1628 79.4567 58.0036 80.1789C56.3175 81.2293 54.3589 81.5101 52.4888 80.9696C50.4413 80.3778 48.6815 78.831 47.6607 76.7259C45.6321 72.5421 46.9626 67.2813 50.6268 64.9985C51.7901 64.2738 53.1018 63.9096 54.4281 63.9433L46.2161 47.0076L31.3069 56.2959C31.2963 56.3024 31.2842 56.3059 31.2718 56.3061C31.2594 56.3063 31.2471 56.3032 31.2364 56.297C31.2256 56.2908 31.2167 56.2819 31.2106 56.271C31.2045 56.2602 31.2015 56.248 31.2017 56.2355C31.2428 54.7089 30.92 53.1915 30.2683 51.8476C29.2646 49.7775 27.536 48.257 25.5259 47.6761C23.6936 47.1467 21.7745 47.4219 20.1219 48.4514C16.5157 50.698 15.2081 55.8794 17.207 60.0016C17.8581 61.3446 18.8139 62.4655 19.9712 63.2434C19.9808 63.2498 19.9886 63.2585 19.9939 63.2687C19.9992 63.2789 20.0019 63.2903 20.0017 63.3018C20.0015 63.3133 19.9984 63.3246 19.9927 63.3346C19.987 63.3446 19.9789 63.353 19.9692 63.3591L5.04759 72.655L13.2562 89.5838C13.9406 88.3038 14.9116 87.2485 16.0707 86.5264C17.7568 85.4761 19.7151 85.1952 21.5854 85.7357C23.633 86.3274 25.3927 87.8742 26.4136 89.9794C28.4422 94.1632 27.1117 99.424 23.4475 101.707C22.2842 102.431 20.9717 102.796 19.6462 102.762L19.6461 102.762Z" fill="#111111"/>
</g>
<g clip-path="url(#clip3_9826_113237)">
<path d="M96.6435 92.1377L96.6431 92.1386L96.6432 92.1371V92.1375C96.7456 88.5371 96.9691 86.5251 96.5357 84.6691C96.3513 83.9783 96.0506 83.3756 95.5887 82.4503C95.5778 82.4293 95.5676 82.4085 95.5571 82.3875C94.3583 80.0886 93.8085 77.8996 93.7794 75.3074C93.7875 74.7257 93.8028 73.8651 93.987 72.8477C94.8889 67.884 98.1387 63.6214 102.647 61.6368C108.212 59.187 114.641 60.2872 119.024 64.4396C123.393 68.5781 124.767 74.913 122.718 80.6497C122.389 81.5693 121.933 82.4172 121.66 82.8755C121.66 82.8735 121.66 82.8716 121.66 82.8695C121.657 82.8737 121.655 82.8781 121.653 82.8824C120.308 85.1224 118.713 86.7416 116.491 88.1255C116.48 88.1326 116.47 88.1399 116.459 88.1469C115.599 88.7103 115.04 89.0768 114.534 89.5805C113.163 91.1148 112.869 91.9748 110.988 95.3931L111.083 95.2141L110.988 95.3946L110.988 95.3931C110.892 95.5755 110.793 95.761 110.689 95.9532L110.689 95.9521C110.171 96.93 109.515 97.6327 108.567 98.2243C108.561 98.2283 108.555 98.2324 108.548 98.2364L108.535 98.2447C108.538 98.2428 108.541 98.2407 108.544 98.2388C108.093 98.5137 107.29 98.6594 106.177 98.624C103.416 98.536 99.7944 97.3666 98.0896 96.0121C97.7199 95.7184 97.4711 95.4402 97.3356 95.1854C97.3376 95.189 97.3391 95.1925 97.341 95.1961L97.3349 95.1842L97.3274 95.1696C96.8085 94.1801 96.5971 93.2427 96.6435 92.1377Z" fill="#E1D1F3"/>
<path d="M106.501 98.7073C107.422 98.7073 108.132 98.5734 108.568 98.316C108.571 98.3145 108.574 98.3129 108.577 98.3112L108.605 98.2931C109.568 97.6917 110.23 96.9835 110.755 95.9949C110.856 95.8079 110.956 95.6205 111.056 95.4328L111.057 95.4313L111.058 95.4294C111.495 94.6351 111.84 93.9897 112.145 93.4203C113.136 91.5694 113.546 90.8033 114.593 89.6326C115.09 89.1373 115.652 88.7693 116.502 88.2123C116.509 88.2079 116.516 88.2034 116.523 88.1988L116.534 88.1909C118.765 86.8019 120.363 85.1791 121.715 82.9316C121.72 82.9269 121.724 82.9215 121.728 82.9155C121.926 82.5822 122.427 81.6967 122.792 80.6759C123.807 77.8332 124.001 74.8082 123.354 71.9282C122.701 69.0233 121.222 66.4143 119.078 64.3829C114.672 60.2088 108.21 59.1028 102.616 61.5653C100.4 62.541 98.4244 64.1012 96.9034 66.0774C95.3919 68.0411 94.3571 70.3773 93.9109 72.8337C93.722 73.8766 93.7094 74.7716 93.7019 75.3063C93.7311 77.9158 94.2821 80.1103 95.4885 82.4236L95.4975 82.4417C95.5049 82.4565 95.5122 82.4713 95.5199 82.4862C95.9763 83.4005 96.2782 84.0052 96.4608 84.6893C96.7955 86.1229 96.7349 87.6522 96.6428 89.9672C96.6174 90.6103 96.5884 91.339 96.5658 92.1335V92.1338L96.5657 92.1345V92.1394L96.5658 92.1411C96.5198 93.2588 96.7336 94.2043 97.2586 95.2059L97.2726 95.2331H97.2727L97.2731 95.2339C97.2741 95.2358 97.2753 95.2377 97.2765 95.2395C97.4224 95.5055 97.6797 95.7859 98.0415 96.0733C99.7547 97.4345 103.403 98.6138 106.175 98.7021C106.284 98.7055 106.392 98.7072 106.501 98.7073ZM108.503 98.1724C108.046 98.4506 107.243 98.5799 106.18 98.546C103.437 98.4587 99.8292 97.2945 98.1382 95.951C97.7855 95.6708 97.5387 95.4009 97.4046 95.1488H97.4046L97.404 95.1477C97.4038 95.1472 97.4035 95.1468 97.4032 95.1464L97.4003 95.1406L97.3966 95.1333C96.8841 94.1555 96.676 93.2326 96.7218 92.141C96.7219 92.1383 96.7219 92.1356 96.7217 92.1329C96.7442 91.3414 96.7731 90.6147 96.7986 89.9734C96.8911 87.6457 96.9521 86.108 96.6119 84.6514C96.4246 83.9497 96.12 83.3394 95.6588 82.4155L95.6271 82.3526C94.4323 80.0611 93.8867 77.8883 93.8578 75.3066C93.8652 74.7787 93.8776 73.8918 94.0641 72.8616C94.506 70.4298 95.5304 68.1168 97.0267 66.1728C98.5318 64.2172 100.486 62.6734 102.679 61.7082C108.215 59.271 114.61 60.3655 118.971 64.4963C121.093 66.5063 122.556 69.088 123.202 71.9624C123.843 74.8136 123.65 77.8085 122.645 80.6233C122.293 81.6084 121.812 82.4665 121.607 82.8123C121.601 82.8176 121.596 82.8239 121.592 82.8308L121.588 82.8391C120.247 85.072 118.664 86.6811 116.451 88.0592L116.418 88.0807C115.558 88.6438 114.991 89.0153 114.48 89.5252C113.418 90.713 113.005 91.484 112.008 93.3465C111.728 93.8683 111.415 94.4539 111.028 95.1593C111.023 95.1645 111.019 95.1706 111.015 95.1775L110.92 95.3565C110.821 95.5433 110.721 95.7296 110.621 95.9156C110.109 96.8817 109.463 97.5734 108.527 98.158L108.508 98.1697L108.504 98.1722L108.504 98.1724L108.503 98.1724ZM98.8775 106.162C99.9864 106.198 101.44 106.667 102.125 107.211C102.578 107.571 102.58 107.873 102.201 108.029C101.056 108.464 99.2085 107.966 98.2662 107.247C98.0432 107.067 97.9373 106.933 97.8673 106.845C97.547 106.424 97.9374 106.132 98.8775 106.162Z" fill="#111111"/>
<path d="M101.204 108.268C101.575 108.268 101.926 108.217 102.229 108.102C102.469 108.003 102.536 107.864 102.55 107.764C102.577 107.576 102.45 107.37 102.173 107.15C101.478 106.598 100.001 106.12 98.8798 106.084C98.2518 106.064 97.8386 106.184 97.716 106.423C97.6666 106.519 97.6421 106.678 97.8052 106.892C97.8785 106.985 97.9876 107.123 98.2173 107.308C98.9284 107.85 100.146 108.268 101.204 108.268ZM98.8749 106.24C99.9678 106.275 101.404 106.738 102.076 107.272C102.3 107.45 102.414 107.617 102.396 107.742C102.381 107.85 102.266 107.918 102.172 107.957C101.052 108.382 99.2394 107.891 98.3134 107.185C98.0989 107.012 97.9963 106.882 97.9284 106.797C97.8379 106.678 97.8128 106.576 97.8546 106.494C97.9454 106.318 98.3279 106.223 98.8749 106.24Z" fill="#111111"/>
<path d="M95.9916 102.535C96.4299 102.356 97.0917 102.266 97.9538 102.294C98.9511 102.326 100.069 102.51 101.156 102.796C102.859 103.246 104.485 103.948 105.45 104.715C106.493 105.544 106.502 106.24 105.649 106.594L102.211 108.023C102.58 107.87 102.465 107.582 102.136 107.283C101.741 106.925 101.014 106.647 100.276 106.452C99.8054 106.328 99.3209 106.248 98.8889 106.235C98.5155 106.223 98.2288 106.262 98.0389 106.339C97.7517 106.457 97.6742 106.588 97.865 106.841L95.6174 103.865C95.1769 103.281 95.3285 102.806 95.9916 102.535Z" fill="#6817C5"/>
<path d="M102.211 108.101C102.221 108.101 102.231 108.099 102.241 108.095L105.68 106.666C106.068 106.505 106.294 106.268 106.334 105.98C106.389 105.59 106.1 105.131 105.499 104.653C104.564 103.911 102.948 103.189 101.176 102.721C100.042 102.421 98.9283 102.247 97.9564 102.216C97.1124 102.189 96.4236 102.274 95.9622 102.463C95.6017 102.61 95.3833 102.815 95.3131 103.071C95.2436 103.324 95.3252 103.607 95.5553 103.912L97.8026 106.887L97.803 106.888C97.8155 106.904 97.834 106.915 97.8545 106.918C97.8749 106.921 97.8957 106.915 97.9122 106.903C97.9286 106.89 97.9395 106.872 97.9423 106.851C97.9452 106.831 97.9397 106.81 97.9273 106.793C97.8569 106.7 97.8282 106.628 97.8418 106.578C97.8572 106.522 97.9313 106.467 98.0684 106.411C98.254 106.335 98.5374 106.301 98.8864 106.312C99.2992 106.326 99.7729 106.4 100.256 106.528C100.855 106.686 101.658 106.955 102.084 107.341C102.28 107.519 102.378 107.676 102.36 107.784C102.348 107.85 102.289 107.906 102.182 107.95L102.181 107.951C102.164 107.958 102.151 107.97 102.142 107.986C102.134 108.002 102.131 108.021 102.135 108.038C102.138 108.056 102.148 108.072 102.162 108.083C102.176 108.095 102.193 108.101 102.211 108.101ZM97.6574 102.367C97.7532 102.367 97.8511 102.369 97.9514 102.372C98.9118 102.402 100.013 102.575 101.137 102.872C102.889 103.334 104.483 104.046 105.402 104.776C105.957 105.217 106.226 105.626 106.18 105.958C106.139 106.249 105.853 106.425 105.62 106.522L102.513 107.813C102.513 107.812 102.513 107.812 102.514 107.811C102.542 107.644 102.433 107.447 102.189 107.225C101.74 106.818 100.912 106.539 100.296 106.377C99.8015 106.246 99.3158 106.17 98.8916 106.157C98.5197 106.145 98.2152 106.183 98.0097 106.267C97.8936 106.314 97.758 106.383 97.7052 106.499L95.6798 103.818C95.4803 103.554 95.4076 103.316 95.4636 103.112C95.5203 102.905 95.7079 102.735 96.0212 102.607C96.4086 102.449 96.9702 102.367 97.6574 102.367Z" fill="#111111"/>
<path d="M105.64 106.6C106.084 106.406 106.704 106.053 106.952 105.216C107.059 104.823 106.787 104.327 106.095 103.776C104.383 102.416 100.746 101.242 97.9731 101.154C96.3216 101.101 95.3485 101.445 95.1929 102.02C94.9857 102.857 95.3321 103.47 95.6107 103.857C94.8806 102.901 95.7814 102.226 97.9538 102.295C100.514 102.377 103.87 103.461 105.45 104.716C106.497 105.548 106.502 106.247 105.64 106.6Z" fill="#111111"/>
<path d="M105.64 106.678C105.65 106.678 105.66 106.676 105.67 106.672C105.715 106.653 105.76 106.633 105.804 106.611C106.246 106.399 106.794 106.025 107.027 105.238C107.147 104.796 106.841 104.27 106.143 103.715C104.423 102.348 100.759 101.164 97.976 101.076C96.3337 101.023 95.2914 101.36 95.118 101.999C94.9282 102.767 95.1834 103.349 95.4435 103.75C95.476 103.804 95.5112 103.855 95.5492 103.905C95.5617 103.921 95.58 103.931 95.6001 103.934C95.6203 103.937 95.6407 103.931 95.657 103.919C95.6734 103.907 95.6843 103.889 95.6875 103.869C95.6908 103.849 95.686 103.828 95.6743 103.812C95.6402 103.764 95.6049 103.713 95.5698 103.659C95.4257 103.417 95.4006 103.201 95.4955 103.016C95.7236 102.572 96.6424 102.332 97.9516 102.373C100.493 102.454 103.835 103.533 105.402 104.777C105.958 105.219 106.227 105.628 106.18 105.961C106.145 106.204 105.939 106.367 105.734 106.471C105.691 106.492 105.65 106.511 105.609 106.528C105.593 106.535 105.579 106.548 105.571 106.564C105.563 106.58 105.561 106.598 105.564 106.616C105.568 106.633 105.577 106.649 105.591 106.66C105.605 106.672 105.622 106.678 105.64 106.678ZM97.6526 101.226C97.7559 101.226 97.862 101.228 97.9709 101.232C100.726 101.319 104.348 102.488 106.046 103.837C106.683 104.343 106.978 104.825 106.877 105.195C106.757 105.602 106.543 105.891 106.306 106.101C106.319 106.063 106.328 106.023 106.334 105.983C106.39 105.592 106.101 105.133 105.499 104.655C103.91 103.393 100.526 102.299 97.9565 102.217C96.5433 102.172 95.6207 102.431 95.3568 102.945C95.3337 102.99 95.3133 103.042 95.3002 103.101C95.2041 102.802 95.1673 102.448 95.2687 102.038C95.4083 101.524 96.291 101.226 97.6526 101.226Z" fill="#111111"/>
<path d="M97.2349 94.5806C97.2715 94.4472 97.3524 94.3264 97.4759 94.2201C97.881 93.8715 98.7441 93.68 100.003 93.7201C101.409 93.7649 103.037 94.0898 104.522 94.5768C105.955 95.0465 107.254 95.6669 108.091 96.3319C108.779 96.8789 109.05 97.3725 108.946 97.7608L106.953 105.213C107.058 104.823 106.786 104.327 106.094 103.778C105.254 103.11 103.95 102.487 102.511 102.016C101.02 101.527 99.3847 101.2 97.973 101.155C96.7088 101.115 95.8422 101.307 95.4354 101.657C95.3114 101.764 95.2301 101.886 95.1933 102.019L97.2349 94.5806Z" fill="#6817C5"/>
<path d="M106.953 105.291C106.971 105.291 106.987 105.285 107.001 105.275C107.014 105.264 107.024 105.25 107.029 105.233L107.029 105.232L109.022 97.7809C109.138 97.3442 108.833 96.8219 108.139 96.2706C107.324 95.6226 106.048 94.9947 104.547 94.5025C102.987 93.9912 101.375 93.6855 100.006 93.6419C98.7755 93.6027 97.8595 93.787 97.4252 94.1607C97.2898 94.2773 97.2005 94.4115 97.1599 94.5597L95.1183 101.999C95.1153 102.009 95.1143 102.019 95.1155 102.029C95.1166 102.04 95.1197 102.05 95.1248 102.059C95.1298 102.068 95.1366 102.076 95.1447 102.082C95.1529 102.089 95.1623 102.093 95.1723 102.096C95.1823 102.099 95.1927 102.1 95.203 102.098C95.2133 102.097 95.2232 102.094 95.2322 102.088C95.2411 102.083 95.249 102.076 95.2552 102.068C95.2614 102.06 95.2659 102.05 95.2685 102.04L95.2688 102.039C95.3013 101.921 95.3745 101.813 95.4862 101.716C95.8926 101.367 96.7755 101.195 97.9706 101.233C99.3309 101.276 100.935 101.581 102.487 102.09C103.977 102.578 105.241 103.2 106.046 103.839C106.681 104.344 106.977 104.824 106.878 105.192L106.878 105.193C106.875 105.204 106.875 105.216 106.877 105.228C106.88 105.24 106.884 105.251 106.892 105.26C106.899 105.27 106.908 105.277 106.919 105.283C106.93 105.288 106.942 105.291 106.953 105.291ZM99.682 93.7927C99.7855 93.7927 99.8917 93.7945 100.001 93.7979C101.355 93.841 102.952 94.1439 104.498 94.6507C105.982 95.1374 107.241 95.7561 108.043 96.3929C108.675 96.8953 108.969 97.3739 108.871 97.7405L106.998 104.745C106.884 104.425 106.596 104.077 106.143 103.717C105.324 103.066 104.043 102.436 102.535 101.941C100.969 101.428 99.35 101.121 97.9755 101.077C96.7459 101.038 95.8299 101.221 95.3913 101.593L97.31 94.6012C97.3423 94.4834 97.4153 94.3751 97.5267 94.2792C97.8944 93.9628 98.6533 93.7927 99.682 93.7927Z" fill="#111111"/>
</g>
<g clip-path="url(#clip4_9826_113237)">
<path d="M39.2926 30.3162C39.1908 30.3765 39.0801 30.4231 38.9627 30.4554C38.8453 30.4877 38.7214 30.5057 38.5932 30.5087C34.895 30.5984 25.6368 28.3619 21.6074 19.6253L18.9135 13.7845C18.748 13.4255 18.75 13.0467 18.9043 12.7344L17.8663 14.8361C17.712 15.1485 17.71 15.5273 17.8755 15.8862L20.5694 21.727C24.5989 30.4636 33.857 32.7001 37.5552 32.6104C37.6834 32.6073 37.8073 32.5894 37.9247 32.5571C38.0421 32.5248 38.1528 32.4782 38.2546 32.418C39.5944 31.6265 41.4338 29.8961 42.657 27.4197L43.6951 25.318C42.4719 27.7944 40.6325 29.5248 39.2927 30.3163L39.2926 30.3162Z" fill="url(#paint5_linear_9826_113237)"/>
<path d="M37.3472 32.669C35.4986 32.669 32.335 32.1154 29.1611 30.5287C26.4369 29.1668 22.726 26.5383 20.5175 21.7499L17.8236 15.909C17.6543 15.5419 17.6512 15.1411 17.815 14.8095L18.8531 12.7078C18.8671 12.6794 18.9015 12.6677 18.9299 12.6817C18.9584 12.6957 18.97 12.7302 18.956 12.7586L18.9553 12.7601C18.8076 13.0603 18.8114 13.4243 18.9659 13.7592L21.6598 19.6001C23.8544 24.3583 27.5427 26.9707 30.2505 28.3243C33.5287 29.9632 36.793 30.4941 38.5921 30.4501C38.715 30.4471 38.8347 30.4299 38.9478 30.3988C39.0605 30.3678 39.1668 30.323 39.2637 30.2656C40.5764 29.4901 42.4165 27.776 43.6437 25.2913C43.6578 25.2629 43.6922 25.2512 43.7206 25.2652C43.749 25.2792 43.7606 25.3136 43.7466 25.342L42.7086 27.4437C41.4701 29.9511 39.611 31.6821 38.284 32.4661C38.1783 32.5287 38.0626 32.5775 37.9401 32.6111C37.8181 32.6447 37.6891 32.6634 37.5567 32.6665C37.489 32.6681 37.419 32.6689 37.3472 32.6689V32.669ZM18.7326 13.2107L17.9179 14.8603C17.7695 15.1608 17.7731 15.5255 17.9278 15.8609L20.6217 21.7018C22.8163 26.46 26.5046 29.0724 29.2124 30.426C32.4906 32.0649 35.7546 32.5956 37.554 32.5517C37.677 32.5488 37.7966 32.5316 37.9096 32.5005C38.0223 32.4695 38.1286 32.4247 38.2256 32.3673C39.5384 31.5917 41.3784 29.8777 42.6056 27.3929L42.8756 26.8464C41.7353 28.5482 40.3644 29.7486 39.322 30.3644C39.2164 30.427 39.1007 30.4758 38.9782 30.5095C38.856 30.5431 38.7271 30.5617 38.5948 30.5648C36.7822 30.6087 33.4962 30.0752 30.1991 28.427C27.475 27.0651 23.764 24.4366 21.5555 19.6482L18.8617 13.8073C18.772 13.6129 18.7289 13.4089 18.7326 13.2108V13.2107Z" fill="#111111"/>
<path d="M27.3212 5.21333C27.5177 5.15927 27.733 5.14556 27.9526 5.1762L39.5283 6.79526C40.1038 6.87595 40.6196 7.24754 40.8508 7.74871L43.5447 13.5896C47.5741 22.3262 42.2316 28.5794 39.2927 30.3157C39.1909 30.3759 39.0802 30.4225 38.9628 30.4548C38.8455 30.4871 38.7215 30.505 38.5933 30.508C34.8951 30.5977 25.637 28.3613 21.6075 19.6247L18.9136 13.7838C18.6825 13.2827 18.778 12.7429 19.1585 12.3992L26.8015 5.49293C26.9466 5.36191 27.1245 5.26745 27.3212 5.21339V5.21333Z" fill="white"/>
<path d="M38.3852 30.567C36.5365 30.567 33.373 30.0133 30.199 28.4266C27.4749 27.0648 23.764 24.4363 21.5555 19.6478L18.8616 13.807C18.6207 13.2848 18.7222 12.7151 19.12 12.3557L26.7631 5.44932C26.9121 5.3148 27.0998 5.21373 27.306 5.15698C27.5139 5.09976 27.7341 5.08679 27.9606 5.11835L39.5363 6.73741C40.1285 6.82045 40.665 7.20754 40.903 7.72363L43.5969 13.5645C44.5403 15.6101 45.0295 17.6552 45.051 19.6429C45.0694 21.3519 44.7444 23.0193 44.0848 24.5988C42.8775 27.4905 40.7646 29.5118 39.322 30.364C39.2164 30.4266 39.1007 30.4754 38.9782 30.5091C38.8561 30.5427 38.7271 30.5613 38.5948 30.5644C38.5271 30.5661 38.457 30.5669 38.3853 30.5669L38.3852 30.567ZM27.7247 5.21672C27.5908 5.21672 27.4594 5.23382 27.3364 5.26762C27.1448 5.32036 26.9777 5.41012 26.84 5.53442L19.197 12.4408C18.8373 12.7659 18.7465 13.2832 18.9659 13.7588L21.6598 19.5997C23.8543 24.3579 27.5427 26.9702 30.2504 28.3239C33.5287 29.9628 36.793 30.4933 38.592 30.4497C38.715 30.4467 38.8346 30.4295 38.9477 30.3984C39.0604 30.3674 39.1667 30.3226 39.2636 30.2652C40.691 29.4219 42.7824 27.4203 43.979 24.5546C44.9674 22.1871 45.6855 18.367 43.4926 13.6125L40.7988 7.77167C40.5767 7.29018 40.0749 6.9288 39.5204 6.85104L27.9447 5.23204C27.8714 5.22183 27.7976 5.21672 27.7247 5.21672Z" fill="#111111"/>
<path d="M28.031 6.75368C27.8584 6.80114 27.7022 6.88413 27.5747 6.99919L20.8642 13.0628C20.5304 13.3646 20.4465 13.8386 20.6494 14.2785L23.0145 19.4067C26.5525 27.0775 34.6807 29.0411 37.9282 28.9622C38.0405 28.9594 38.1493 28.9436 38.2523 28.9152C38.3553 28.8869 38.4526 28.8461 38.5418 28.7933C41.122 27.269 45.8131 21.7786 42.2751 14.1078L39.91 8.97962C39.7071 8.53968 39.2541 8.21337 38.7484 8.14255L28.585 6.7212C28.3924 6.69423 28.2035 6.70616 28.031 6.75362" fill="#E1D1F3"/>
<path d="M37.7454 29.0204C36.1213 29.0204 33.3423 28.5341 30.5548 27.1406C28.1621 25.9444 24.9026 23.6356 22.9626 19.4293L20.5975 14.3012C20.3847 13.84 20.4744 13.3366 20.8259 13.0188L27.5364 6.9552C27.6681 6.83629 27.834 6.74699 28.0159 6.69695C28.1968 6.64719 28.3965 6.63543 28.5932 6.66297L38.7566 8.08432C39.2791 8.15755 39.7524 8.49901 39.9623 8.95422L42.3275 14.0824C44.2692 18.2924 43.6322 21.6777 42.756 23.7763C41.6952 26.3168 39.8387 28.0926 38.5713 28.8415C38.4781 28.8965 38.376 28.9395 38.2678 28.9693C38.1599 28.9989 38.0462 29.0154 37.9298 29.0183C37.8701 29.0197 37.8086 29.0204 37.7454 29.0204ZM28.0464 6.80765C27.8816 6.85304 27.7318 6.9335 27.6133 7.04048L20.9028 13.1041C20.5894 13.3874 20.5104 13.8385 20.7017 14.2532L23.0669 19.3814C24.9929 23.5574 28.2298 25.8501 30.6061 27.038C33.4833 28.4763 36.3482 28.9422 37.927 28.9035C38.0341 28.901 38.1385 28.8858 38.2373 28.8587C38.3357 28.8316 38.4285 28.7926 38.5129 28.7427C39.7652 28.0028 41.6001 26.2467 42.65 23.7322C43.5174 21.6548 44.1475 18.3027 42.2232 14.1306L39.8581 9.00243C39.664 8.58177 39.2255 8.26607 38.7407 8.19812L28.5773 6.77677C28.3959 6.75135 28.2123 6.76197 28.0464 6.80765Z" fill="#111111"/>
<path d="M31.936 12.4492L29.671 13.0723L31.5136 17.0675L27.3047 18.2254L28.2963 20.3753L32.5052 19.2174L34.3478 23.2125L36.6128 22.5894L34.7701 18.5942L38.979 17.4364L37.9874 15.2864L33.7785 16.4443L31.936 12.4492Z" fill="white"/>
<path d="M34.3475 23.2726C34.3256 23.2726 34.305 23.26 34.2954 23.2392L32.4732 19.2883L28.3112 20.4333C28.2842 20.4408 28.2557 20.4276 28.2439 20.4021L27.2524 18.2522C27.2453 18.2368 27.2453 18.2192 27.2524 18.204C27.2595 18.1887 27.273 18.1773 27.2893 18.1728L31.4329 17.0328L29.6186 13.0991C29.6116 13.0838 29.6116 13.0662 29.6187 13.0509C29.6258 13.0356 29.6392 13.0242 29.6555 13.0197L31.9204 12.3966C31.9475 12.3891 31.976 12.4024 31.9877 12.4279L33.8099 16.3788L37.9718 15.2338C37.9989 15.2263 38.0274 15.2396 38.0392 15.2651L39.0307 17.415C39.0378 17.4303 39.0377 17.4479 39.0307 17.4632C39.0235 17.4785 39.0101 17.4899 38.9938 17.4944L34.8502 18.6343L36.6644 22.568C36.6715 22.5833 36.6715 22.6009 36.6644 22.6162C36.6572 22.6315 36.6438 22.6429 36.6276 22.6474L34.3626 23.2705C34.3576 23.2719 34.3524 23.2725 34.3474 23.2725L34.3475 23.2726ZM32.5049 19.1627C32.5268 19.1627 32.5475 19.1753 32.557 19.1961L34.3792 23.147L36.532 22.5547L34.7177 18.6211C34.7107 18.6057 34.7107 18.5881 34.7178 18.5729C34.7249 18.5576 34.7383 18.5462 34.7546 18.5417L38.8983 17.4017L37.9554 15.3574L33.7935 16.5024C33.7665 16.5099 33.7379 16.4966 33.7262 16.4712L31.904 12.5202L29.7512 13.1125L31.5655 17.0462C31.5726 17.0615 31.5726 17.0791 31.5655 17.0944C31.5584 17.1097 31.5449 17.1211 31.5287 17.1256L27.385 18.2655L28.3278 20.3098L32.4898 19.1648C32.4948 19.1634 32.4999 19.1628 32.505 19.1628L32.5049 19.1627Z" fill="#111111"/>
</g>
</g>
<defs>
<linearGradient id="paint0_linear_9826_113237" x1="73.2817" y1="72.2229" x2="86.3573" y2="60.9619" gradientUnits="userSpaceOnUse">
<stop offset="0.57" stop-color="#E1D1F3"/>
<stop offset="1" stop-color="#6817C5"/>
</linearGradient>
<linearGradient id="paint1_linear_9826_113237" x1="115.809" y1="55.9536" x2="130.41" y2="46.7583" gradientUnits="userSpaceOnUse">
<stop stop-color="#6817C5"/>
<stop offset="0.498" stop-color="#E1D1F3"/>
</linearGradient>
<linearGradient id="paint2_linear_9826_113237" x1="44.5271" y1="110.568" x2="44.545" y2="122.638" gradientUnits="userSpaceOnUse">
<stop stop-color="#111111"/>
<stop offset="0.547" stop-color="#6817C5"/>
</linearGradient>
<linearGradient id="paint3_linear_9826_113237" x1="21.3948" y1="85.5311" x2="20.9254" y2="101.827" gradientUnits="userSpaceOnUse">
<stop stop-color="#111111"/>
<stop offset="0.746" stop-color="#6817C5"/>
</linearGradient>
<linearGradient id="paint4_linear_9826_113237" x1="17.1181" y1="63.1037" x2="17.9032" y2="47.7234" gradientUnits="userSpaceOnUse">
<stop stop-color="#E1D1F3"/>
<stop offset="0.338" stop-color="white"/>
</linearGradient>
<linearGradient id="paint5_linear_9826_113237" x1="24.1294" y1="15.0665" x2="41.3326" y2="34.4867" gradientUnits="userSpaceOnUse">
<stop stop-color="#6817C5"/>
<stop offset="1" stop-color="#111111"/>
</linearGradient>
<clipPath id="clip0_9826_113237">
<rect width="129.813" height="120" fill="white" transform="translate(0.59375)"/>
</clipPath>
<clipPath id="clip1_9826_113237">
<rect width="73.4806" height="72.3099" fill="white" transform="translate(56.9268 0.0117188)"/>
</clipPath>
<clipPath id="clip2_9826_113237">
<rect width="68.5911" height="73.1363" fill="white" transform="translate(0.59375 46.8398)"/>
</clipPath>
<clipPath id="clip3_9826_113237">
<rect width="30.0258" height="48" fill="white" transform="matrix(-1 0 0 1 123.728 60.2695)"/>
</clipPath>
<clipPath id="clip4_9826_113237">
<rect width="27.358" height="27.567" fill="white" transform="translate(17.6934 5.10156)"/>
</clipPath>
</defs>
</svg>
