<svg width="65" height="62" viewBox="0 0 65 62" fill="none" xmlns="http://www.w3.org/2000/svg">
<g id="Frame" clip-path="url(#clip0_4674_137954)">
<path id="Vector" d="M17.2908 7.08931C17.2651 6.94876 17.2679 6.80451 17.299 6.66506C17.3301 6.52561 17.3889 6.39377 17.4719 6.27734L21.05 1.42578C20.967 1.54252 20.9082 1.67464 20.8771 1.81437C20.846 1.9541 20.8432 2.09862 20.8689 2.23944L21.81 7.91647L18.2336 12.7714L17.2908 7.08931Z" fill="#D2B9EE"/>
<path id="Vector_2" d="M18.2301 12.9404C18.1895 12.941 18.1501 12.9269 18.1191 12.9009C18.088 12.8749 18.0673 12.8386 18.0609 12.7986L17.1215 7.12162C17.0919 6.95885 17.0953 6.79184 17.1313 6.63038C17.1674 6.46891 17.2354 6.31626 17.3314 6.18136L20.9095 1.32642C20.9227 1.30856 20.9393 1.29347 20.9584 1.28202C20.9774 1.27056 20.9986 1.26297 21.0206 1.25968C21.0426 1.25639 21.065 1.25746 21.0866 1.26283C21.1082 1.2682 21.1286 1.27776 21.1464 1.29097C21.1644 1.30415 21.1795 1.32072 21.191 1.33973C21.2024 1.35875 21.2101 1.37983 21.2134 1.40179C21.2167 1.42374 21.2156 1.44612 21.2102 1.46766C21.2048 1.4892 21.1952 1.50947 21.182 1.5273C21.1128 1.62595 21.0639 1.73737 21.0384 1.85504C21.0128 1.97271 21.011 2.09429 21.033 2.21267L21.9741 7.8897C21.9777 7.91176 21.9768 7.93431 21.9716 7.95605C21.9664 7.97778 21.9569 7.99826 21.9436 8.0163L18.3655 12.8712C18.3499 12.8925 18.3296 12.9099 18.3061 12.9219C18.2825 12.9339 18.2565 12.9403 18.2301 12.9404ZM17.4549 7.0676L18.3317 12.3496L21.6288 7.87451L20.6996 2.26669C20.6945 2.24332 20.6911 2.21963 20.6894 2.19579L17.6056 6.38224C17.5357 6.48059 17.4864 6.59194 17.4605 6.70967C17.4346 6.8274 17.4327 6.94912 17.4549 7.0676Z" fill="#111111"/>
<path id="Vector_3" d="M55.2813 42.0781L61.3085 43.5012C61.5738 43.568 61.8532 43.5521 62.1091 43.4556C62.2887 43.3879 62.4454 43.2709 62.5611 43.118L58.9846 47.9729C58.8686 48.1261 58.7112 48.2431 58.531 48.3105C58.2751 48.4066 57.9959 48.423 57.7304 48.3578L51.7031 46.9297L55.2813 42.0781Z" fill="#D2B9EE"/>
<path id="Vector_4" d="M58.0646 48.5668C57.9386 48.5662 57.8132 48.5515 57.6905 48.5229L51.6615 47.0999C51.6344 47.0936 51.6093 47.0808 51.5883 47.0626C51.5673 47.0443 51.5512 47.0212 51.5414 46.9952C51.5318 46.9689 51.529 46.9406 51.5331 46.9129C51.5372 46.8852 51.5482 46.859 51.5651 46.8365L55.1415 41.9816C55.1607 41.956 55.1868 41.9364 55.2168 41.9251C55.2468 41.9137 55.2793 41.9111 55.3107 41.9175L61.338 43.3405C61.5696 43.399 61.8135 43.3854 62.0371 43.3017C62.1879 43.2434 62.3193 43.1439 62.4162 43.0147C62.4294 42.9969 62.446 42.9818 62.4651 42.9703C62.4842 42.9589 62.5053 42.9513 62.5273 42.948C62.5493 42.9447 62.5718 42.9458 62.5934 42.9511C62.615 42.9565 62.6353 42.9661 62.6532 42.9793C62.6889 43.0059 62.7126 43.0454 62.7193 43.0893C62.7259 43.1332 62.7149 43.178 62.6887 43.2139L59.1106 48.0688C58.9757 48.2483 58.7934 48.3868 58.5842 48.4689C58.4185 48.5333 58.2424 48.5665 58.0646 48.5668ZM51.9882 46.8298L57.7667 48.1938C57.9982 48.2522 58.2421 48.2387 58.4657 48.1549C58.6166 48.0966 58.7479 47.9972 58.8449 47.868L61.9287 43.6832C61.7096 43.7252 61.4839 43.7201 61.2669 43.668L55.3429 42.2686L51.9882 46.8298Z" fill="#111111"/>
<path id="Vector_5" d="M25.1016 21.8318L21.5234 26.6868C22.4293 25.4704 23.6615 24.5341 25.0779 23.9858C26.1813 23.5581 27.3521 23.3295 28.5358 23.3106C33.4799 23.2026 38.5796 26.5382 40.5667 31.1855C42.0139 34.5617 41.6144 37.8349 39.8897 40.1661L43.4678 35.3095C45.1858 32.9783 45.5852 29.7034 44.1448 26.3289C42.156 21.6816 37.058 18.3476 32.1139 18.4557C30.9301 18.4734 29.7591 18.702 28.656 19.1309C27.2396 19.6791 26.0075 20.6154 25.1016 21.8318Z" fill="#D2B9EE"/>
<path id="Vector_6" d="M39.9009 40.3361C39.8649 40.3357 39.8299 40.3239 39.8011 40.3023C39.7832 40.2892 39.768 40.2726 39.7566 40.2536C39.7451 40.2346 39.7375 40.2135 39.7342 40.1915C39.7309 40.1696 39.7319 40.1472 39.7373 40.1256C39.7427 40.1041 39.7523 40.0838 39.7655 40.066C41.5428 37.6503 41.778 34.4396 40.4138 31.2559C38.4724 26.7183 33.6062 23.4907 28.7773 23.4907H28.542C27.3799 23.504 26.2295 23.7241 25.145 24.1406C23.7565 24.6803 22.5482 25.5988 21.6583 26.7909C21.6318 26.8272 21.5919 26.8514 21.5475 26.8584C21.5031 26.8654 21.4577 26.8544 21.4213 26.828C21.385 26.8016 21.3606 26.7619 21.3536 26.7176C21.3466 26.6732 21.3576 26.628 21.3841 26.5917L24.9622 21.7368C25.8898 20.4933 27.1498 19.5356 28.5979 18.9734C29.72 18.5378 30.9111 18.3057 32.1151 18.288C37.1505 18.1732 42.2807 21.5325 44.3017 26.2642C45.7167 29.5627 45.4645 32.8967 43.6128 35.4119L40.0347 40.2669C40.0192 40.2879 39.9992 40.3051 39.976 40.3171C39.9528 40.3291 39.9271 40.3356 39.9009 40.3361ZM28.7807 23.1413C33.7399 23.1413 38.7348 26.4634 40.7269 31.1191C41.7814 33.577 41.9117 36.0551 41.1416 38.199L43.342 35.2111C45.1209 32.7954 45.3595 29.583 43.9919 26.3976C42.0201 21.7857 37.0303 18.5193 32.1218 18.6324C30.9579 18.649 29.8063 18.8731 28.7214 19.2941C27.3344 19.834 26.1274 20.7518 25.2381 21.9427L23.0208 24.9543C23.6335 24.4931 24.3059 24.1166 25.0197 23.8351C26.1415 23.4004 27.3319 23.1684 28.5352 23.1497L28.7807 23.1413Z" fill="#111111"/>
<path id="Vector_7" d="M46.7734 49.2238L43.1953 54.0804C46.2436 52.874 48.8933 50.8423 50.8458 48.2143L54.4239 43.3594C52.4717 45.9872 49.8219 48.0185 46.7734 49.2238Z" fill="#D2B9EE"/>
<path id="Vector_8" d="M43.1927 54.2517C43.1613 54.2517 43.1305 54.2429 43.1037 54.2265C43.077 54.21 43.0554 54.1864 43.0413 54.1584C43.0272 54.1303 43.0213 54.0989 43.0241 54.0677C43.0269 54.0365 43.0384 54.0067 43.0573 53.9816L46.6337 49.125C46.6524 49.1001 46.6776 49.0808 46.7065 49.0692C49.7217 47.8711 52.3439 45.8613 54.2808 43.2639C54.294 43.2461 54.3106 43.231 54.3297 43.2195C54.3488 43.2081 54.3699 43.2005 54.3919 43.1972C54.4139 43.1939 54.4364 43.195 54.458 43.2003C54.4796 43.2057 54.4999 43.2153 54.5178 43.2285C54.5357 43.2416 54.5508 43.2582 54.5623 43.2772C54.5738 43.2962 54.5814 43.3173 54.5847 43.3393C54.588 43.3612 54.5869 43.3836 54.5815 43.4052C54.5762 43.4267 54.5666 43.447 54.5533 43.4648L50.9769 48.3197C49.0025 50.9694 46.3286 53.0197 43.2536 54.2415C43.2341 54.2486 43.2135 54.252 43.1927 54.2517ZM46.8775 49.3647L43.6954 53.6828C46.4788 52.4657 48.8959 50.5456 50.7078 48.1121L52.2785 45.9784C50.6926 47.4161 48.864 48.5625 46.8775 49.3647Z" fill="#111111"/>
<path id="Vector_9" d="M2.27892 19.2441C2.31223 19.1178 2.3697 18.9991 2.44818 18.8946L6.02122 14.0312C5.94294 14.1353 5.88548 14.2533 5.85197 14.379L4.27448 20.7026L0.703125 25.5575L2.27892 19.2441Z" fill="#D2B9EE"/>
<path id="Vector_10" d="M0.700664 25.7276C0.675611 25.7277 0.650828 25.7225 0.627883 25.7124C0.592455 25.6957 0.563971 25.6671 0.5473 25.6317C0.530629 25.5963 0.526806 25.5562 0.536483 25.5183L2.11228 19.1947C2.14987 19.0481 2.21538 18.91 2.30523 18.7879L5.88166 13.933C5.89475 13.915 5.91127 13.8998 5.93027 13.8881C5.94928 13.8765 5.97039 13.8688 5.99241 13.8653C6.01443 13.8619 6.03691 13.8628 6.05857 13.868C6.08023 13.8733 6.10064 13.8827 6.11863 13.8958C6.13654 13.909 6.15167 13.9256 6.16315 13.9446C6.17463 13.9636 6.18224 13.9847 6.18555 14.0067C6.18885 14.0286 6.18778 14.051 6.18239 14.0725C6.17701 14.0941 6.16742 14.1143 6.15417 14.1322C6.09087 14.2195 6.04491 14.318 6.01876 14.4225L4.44128 20.7444C4.43684 20.7659 4.42758 20.7861 4.41419 20.8035L0.837763 25.6601C0.821827 25.6813 0.801112 25.6985 0.777294 25.7102C0.753477 25.7219 0.727226 25.7279 0.700664 25.7276ZM2.44064 19.2775L1.07134 24.7705L4.11799 20.6313L5.52791 14.9779L2.57774 18.9888C2.51305 19.0749 2.46642 19.173 2.44064 19.2775Z" fill="#111111"/>
<path id="Vector_11" d="M5.11719 22.2891L1.53906 27.144L7.17368 30.1235L10.7518 25.2685L5.11719 22.2891Z" fill="#D2B9EE"/>
<path id="Vector_12" d="M7.17174 30.2923C7.14396 30.2922 7.11664 30.2852 7.09219 30.2721L1.45758 27.2926C1.436 27.2813 1.41711 27.2655 1.40222 27.2463C1.38732 27.2271 1.37676 27.2048 1.37126 27.1812C1.36599 27.1577 1.36583 27.1333 1.3708 27.1097C1.37576 27.0861 1.38573 27.0639 1.40003 27.0444L4.97816 22.1895C5.00221 22.1571 5.03711 22.1343 5.07655 22.1253C5.11598 22.1164 5.15733 22.1217 5.19311 22.1406L10.8243 25.1183C10.8456 25.1298 10.8642 25.1457 10.8788 25.1649C10.8934 25.1841 10.9037 25.2062 10.909 25.2297C10.9145 25.2535 10.9148 25.2782 10.9098 25.3021C10.9048 25.326 10.8947 25.3485 10.8802 25.3682L7.30884 30.218C7.29364 30.2405 7.27325 30.2589 7.24939 30.2719C7.22553 30.2848 7.1989 30.2918 7.17174 30.2923ZM1.78933 27.085L7.12097 29.9041L10.5061 25.3243L5.1728 22.5052L1.78933 27.085Z" fill="#111111"/>
<path id="Vector_13" d="M4.28022 20.7043L0.703787 25.5592C0.559917 26.1399 0.913667 26.8168 1.53992 27.1443L5.11635 22.2843C4.49179 21.9568 4.13804 21.2715 4.28022 20.6992" fill="#D2B9EE"/>
<path id="Vector_14" d="M1.53882 27.314C1.51127 27.3137 1.48412 27.3073 1.45927 27.2954C0.761925 26.9308 0.374324 26.1847 0.536812 25.5196C0.543278 25.4985 0.552985 25.4786 0.565586 25.4605L4.14371 20.6056C4.16716 20.5749 4.20044 20.5531 4.23801 20.5439C4.27558 20.5347 4.31517 20.5387 4.3502 20.555C4.38522 20.5714 4.41356 20.5993 4.4305 20.634C4.44744 20.6686 4.45196 20.7081 4.4433 20.7457C4.31974 21.2521 4.64133 21.8514 5.1948 22.14C5.21643 22.1513 5.23535 22.1672 5.25026 22.1865C5.26517 22.2057 5.27572 22.228 5.28119 22.2517C5.28666 22.2755 5.28691 22.3001 5.28193 22.324C5.27695 22.3478 5.26686 22.3703 5.25235 22.3899L1.67423 27.2448C1.65864 27.2661 1.63828 27.2834 1.61476 27.2954C1.59125 27.3075 1.56524 27.3138 1.53882 27.314ZM0.861788 25.6259C0.765311 26.0851 1.03105 26.6151 1.49481 26.9156L4.86814 22.3409C4.67329 22.2158 4.50531 22.0534 4.37398 21.863C4.24264 21.6726 4.15056 21.458 4.10309 21.2318L0.861788 25.6259Z" fill="#111111"/>
<path id="Vector_15" d="M10.75 25.2656L7.17188 30.1206C7.25232 32.1616 7.61573 34.1817 8.25174 36.1234C8.91429 38.1581 9.82736 40.103 10.97 41.9135L14.5482 37.0586C13.4049 35.2454 12.4918 33.2977 11.8299 31.26C11.1946 29.3211 10.8312 27.3038 10.75 25.2656Z" fill="#D2B9EE"/>
<path id="Vector_16" d="M10.9686 42.0837C10.941 42.0826 10.9141 42.0748 10.8902 42.061C10.8663 42.0472 10.8461 42.0277 10.8315 42.0044C9.68151 40.1793 8.76277 38.2191 8.0963 36.1686C7.45727 34.2147 7.09105 32.1823 7.00796 30.1287C7.00635 30.0906 7.01768 30.0531 7.04012 30.0223L10.6182 25.1674C10.6389 25.139 10.668 25.1177 10.7013 25.1065C10.7347 25.0953 10.7707 25.0947 10.8044 25.1049C10.8382 25.1151 10.8679 25.1355 10.8895 25.1634C10.911 25.1912 10.9233 25.2251 10.9246 25.2602C11.0063 27.2834 11.3668 29.2857 11.996 31.2107C12.6571 33.2347 13.5667 35.1693 14.7041 36.9705C14.7231 36.9984 14.7332 37.0313 14.7332 37.065C14.7332 37.0987 14.7231 37.1316 14.7041 37.1595L11.104 42.0145C11.0884 42.0358 11.0681 42.0531 11.0446 42.0651C11.021 42.0771 10.995 42.0835 10.9686 42.0837ZM7.3414 30.1742C7.42854 32.1773 7.78841 34.1593 8.41112 36.0657C9.04311 38.0101 9.90566 39.8723 10.9805 41.6127L14.3419 37.0549C13.2199 35.2573 12.3218 33.3299 11.6676 31.3154C11.0781 29.5108 10.7204 27.639 10.603 25.7447L7.3414 30.1742Z" fill="#111111"/>
<path id="Vector_17" d="M39.8203 56.964L46.7768 56.1284C46.8836 56.1171 46.9883 56.0916 47.0883 56.0525C47.2658 55.9844 47.4202 55.8673 47.5334 55.7148L43.957 60.5698C43.8427 60.7219 43.6879 60.8389 43.5101 60.9074C43.4107 60.9463 43.3066 60.9719 43.2004 60.9834L36.2422 61.8274L39.8203 56.964Z" fill="#D2B9EE"/>
<path id="Vector_18" d="M36.239 61.9916C36.2096 61.9916 36.1808 61.984 36.1552 61.9695C36.1297 61.9549 36.1084 61.9341 36.0934 61.9089C36.0767 61.8803 36.0688 61.8475 36.0706 61.8145C36.0724 61.7815 36.0839 61.7497 36.1036 61.7232L39.6817 56.8682C39.6953 56.8498 39.7125 56.8343 39.7323 56.8227C39.7521 56.8111 39.774 56.8036 39.7968 56.8007L46.7533 55.9567C46.8454 55.9459 46.9358 55.9238 47.0225 55.8908C47.1702 55.8328 47.2991 55.7353 47.3948 55.6089C47.4073 55.5895 47.4236 55.5729 47.4428 55.56C47.462 55.5471 47.4836 55.5383 47.5063 55.5341C47.529 55.5299 47.5524 55.5304 47.5749 55.5355C47.5975 55.5406 47.6187 55.5503 47.6374 55.5639C47.656 55.5775 47.6717 55.5948 47.6833 55.6147C47.695 55.6346 47.7025 55.6567 47.7053 55.6796C47.7081 55.7024 47.7062 55.7257 47.6997 55.7478C47.6931 55.7699 47.6821 55.7904 47.6673 55.8081L44.0892 60.6715C43.9568 60.8498 43.7767 60.9872 43.5696 61.0682C43.4556 61.1132 43.336 61.1427 43.2141 61.156L36.2593 61.9899L36.239 61.9916ZM39.9102 57.1265L36.608 61.6168L43.1769 60.8285C43.2687 60.8192 43.3587 60.797 43.4443 60.7627C43.5925 60.7054 43.7216 60.6077 43.8167 60.4808L46.904 56.2926C46.8667 56.2926 46.8312 56.3044 46.794 56.3078L39.9102 57.1265Z" fill="#111111"/>
<path id="Vector_19" d="M35.5452 50.5703L31.9688 55.4252L34.6176 60.8963L38.1958 56.0414L35.5452 50.5703Z" fill="#D2B9EE"/>
<path id="Vector_20" d="M34.619 61.0595H34.6021C34.573 61.0569 34.5451 61.0468 34.5211 61.0302C34.4971 61.0137 34.4777 60.9912 34.465 60.965L31.8127 55.4939C31.8001 55.4669 31.7949 55.4371 31.7976 55.4074C31.8002 55.3778 31.8107 55.3494 31.828 55.3251L35.4095 50.4701C35.4268 50.4469 35.4499 50.4286 35.4764 50.4169C35.5029 50.4051 35.532 50.4004 35.5609 50.4031C35.5898 50.4058 35.6175 50.4159 35.6414 50.4323C35.6653 50.4488 35.6845 50.4711 35.6972 50.4971L38.3478 55.9682C38.3604 55.9952 38.3656 56.025 38.363 56.0547C38.3603 56.0843 38.3498 56.1127 38.3326 56.137L34.7544 60.9937C34.7385 61.0143 34.718 61.031 34.6945 61.0424C34.671 61.0539 34.6452 61.0597 34.619 61.0595ZM32.1648 55.4382L34.6478 60.5649L37.9991 56.0172L35.5161 50.8905L32.1648 55.4382Z" fill="#111111"/>
<path id="Vector_21" d="M38.1953 56.0469L34.6172 60.9018C34.7629 61.2012 34.9957 61.4498 35.2853 61.6151C35.5749 61.7805 35.9077 61.8548 36.2404 61.8286L39.8185 56.9736C39.486 56.9992 39.1534 56.9245 38.864 56.7593C38.5745 56.594 38.3416 56.3458 38.1953 56.0469Z" fill="#D2B9EE"/>
<path id="Vector_22" d="M36.0813 61.9985C35.7435 61.9905 35.4144 61.8901 35.1299 61.7082C34.8454 61.5263 34.6165 61.2699 34.4683 60.9671C34.4559 60.9399 34.451 60.91 34.454 60.8804C34.4569 60.8507 34.4677 60.8224 34.4852 60.7982L38.0634 55.9433C38.0807 55.9199 38.1039 55.9014 38.1306 55.8895C38.1573 55.8777 38.1866 55.873 38.2157 55.8758C38.2445 55.8787 38.272 55.8889 38.2958 55.9054C38.3195 55.922 38.3385 55.9443 38.3511 55.9703C38.4828 56.237 38.691 56.4585 38.9493 56.6067C39.2076 56.7549 39.5043 56.8231 39.8016 56.8025C39.8347 56.7979 39.8684 56.8031 39.8986 56.8175C39.9287 56.8319 39.9539 56.8549 39.9709 56.8836C39.9891 56.9111 39.9988 56.9434 39.9988 56.9764C39.9988 57.0094 39.9891 57.0417 39.9709 57.0693L36.386 61.9191C36.3722 61.9378 36.3547 61.9534 36.3347 61.965C36.3146 61.9766 36.2923 61.984 36.2692 61.9867C36.207 61.995 36.1442 61.999 36.0813 61.9985ZM34.8204 60.908C34.955 61.1402 35.1495 61.3323 35.3838 61.4641C35.6181 61.5959 35.8835 61.6627 36.1524 61.6575L39.4868 57.1334C39.2259 57.1019 38.9747 57.0153 38.75 56.8793C38.5253 56.7434 38.3322 56.5613 38.1835 56.3451L34.8204 60.908Z" fill="#111111"/>
<path id="Vector_23" d="M23.2344 45.9141L19.6562 50.769C23.3799 53.2437 27.6283 54.8947 31.9698 55.423L35.5462 50.5681C31.2064 50.0397 26.9581 48.3871 23.2344 45.9141Z" fill="#D2B9EE"/>
<path id="Vector_24" d="M31.9665 55.5901H31.9445C27.6674 55.0685 23.3851 53.4496 19.5599 50.9073C19.5408 50.8946 19.5245 50.8782 19.512 50.8591C19.4995 50.8399 19.491 50.8184 19.4871 50.7959C19.4831 50.7737 19.4835 50.7509 19.4885 50.7289C19.4934 50.7068 19.5027 50.686 19.5159 50.6676L23.094 45.811C23.1198 45.776 23.1581 45.7523 23.201 45.7448C23.2438 45.7372 23.288 45.7464 23.3242 45.7705C27.1054 48.2841 31.3386 49.8844 35.5633 50.3992C35.5925 50.4027 35.6204 50.4138 35.6441 50.4314C35.6677 50.4489 35.6864 50.4723 35.6982 50.4993C35.71 50.5262 35.7145 50.5558 35.7113 50.585C35.7082 50.6142 35.6974 50.6421 35.6801 50.6659L32.1019 55.5226C32.0862 55.5435 32.0657 55.5605 32.0422 55.5723C32.0187 55.584 31.9928 55.5901 31.9665 55.5901ZM19.895 50.7233C23.6086 53.1609 27.7503 54.7207 31.8887 55.2423L35.2366 50.698C31.105 50.146 26.9768 48.5761 23.2717 46.1402L19.895 50.7233Z" fill="#111111"/>
<path id="Vector_25" d="M11.1442 41.1562L7.5661 46.0112C7.22758 46.467 7.32914 47.1439 7.80983 47.6317L11.388 42.7768C10.9073 42.289 10.8091 41.612 11.1442 41.1562Z" fill="#D2B9EE"/>
<path id="Vector_26" d="M7.81041 47.7972C7.78802 47.7971 7.76586 47.7926 7.74524 47.7839C7.72461 47.7752 7.70591 47.7625 7.69024 47.7465C7.15538 47.2047 7.04536 46.4231 7.43804 45.9167L11.0094 41.0533C11.0358 41.0174 11.0753 40.9934 11.1194 40.9865C11.1634 40.9795 11.2085 40.9902 11.2447 41.0161C11.2627 41.0292 11.278 41.0457 11.2896 41.0646C11.3013 41.0836 11.309 41.1046 11.3125 41.1266C11.316 41.1486 11.315 41.171 11.3098 41.1926C11.3045 41.2142 11.2951 41.2345 11.2819 41.2525C10.9959 41.6407 11.0906 42.2316 11.5104 42.6553C11.5384 42.6839 11.5553 42.7215 11.5581 42.7614C11.5608 42.8012 11.5494 42.8408 11.5256 42.873L7.94582 47.728C7.93146 47.7477 7.91298 47.7641 7.89165 47.7761C7.87032 47.788 7.84665 47.7952 7.82226 47.7972H7.81041ZM10.7877 41.9226L7.70378 46.1074C7.44989 46.445 7.49728 46.9515 7.80026 47.3583L11.1702 42.7853C10.9606 42.5414 10.8276 42.2414 10.7877 41.9226Z" fill="#111111"/>
<path id="Vector_27" d="M18.3984 48.6876L14.8203 53.5425L19.6577 50.769L23.2358 45.9141L18.3984 48.6876Z" fill="#D2B9EE"/>
<path id="Vector_28" d="M14.8164 53.7082C14.7853 53.708 14.7548 53.6992 14.7284 53.6828C14.7019 53.6664 14.6805 53.643 14.6665 53.6153C14.6525 53.5875 14.6464 53.5564 14.649 53.5255C14.6516 53.4945 14.6627 53.4649 14.681 53.4398L18.2575 48.5832C18.272 48.5649 18.2898 48.5495 18.3099 48.5376L23.1473 45.7641C23.181 45.7451 23.2202 45.7382 23.2584 45.7445C23.2965 45.7508 23.3314 45.7699 23.3571 45.7987C23.3828 45.8276 23.3979 45.8643 23.3997 45.9028C23.4016 45.9413 23.3902 45.9794 23.3674 46.0105L19.7943 50.8655C19.7798 50.8842 19.762 50.9002 19.7419 50.9127L14.9011 53.6862C14.875 53.7002 14.846 53.7077 14.8164 53.7082ZM18.5097 48.8127L15.4292 53.0026L19.5388 50.6392L22.6193 46.4579L18.5097 48.8127Z" fill="#111111"/>
<path id="Vector_29" d="M11.3906 42.7734L7.8125 47.6284L13.1966 53.1214L16.773 48.2665L11.3906 42.7734Z" fill="#D2B9EE"/>
<path id="Vector_30" d="M13.193 53.2876C13.1703 53.2877 13.1478 53.2833 13.1269 53.2746C13.106 53.2659 13.087 53.2531 13.0711 53.237L7.68869 47.7439C7.66071 47.7153 7.64383 47.6777 7.64104 47.6378C7.63825 47.598 7.64974 47.5584 7.67346 47.5262L11.2516 42.6712C11.2659 42.6515 11.2844 42.6351 11.3058 42.6231C11.3271 42.6112 11.3508 42.604 11.3751 42.602C11.3998 42.6002 11.4245 42.6038 11.4476 42.6126C11.4707 42.6213 11.4916 42.635 11.5089 42.6527L16.8913 48.1457C16.9193 48.1743 16.9361 48.2119 16.9389 48.2518C16.9417 48.2917 16.9302 48.3312 16.9065 48.3635L13.3301 53.2184C13.3157 53.2381 13.2972 53.2546 13.2759 53.2665C13.2546 53.2785 13.2309 53.2856 13.2065 53.2876H13.193ZM8.0306 47.6106L13.1761 52.8588L16.5511 48.2774L11.4073 43.0308L8.0306 47.6106Z" fill="#111111"/>
<path id="Vector_31" d="M16.7734 48.2656L13.1953 53.1206C13.6438 53.5814 14.309 53.7435 14.8168 53.5426L18.3949 48.6876C17.8872 48.8885 17.2203 48.7265 16.7717 48.2656" fill="#D2B9EE"/>
<path id="Vector_32" d="M14.3562 53.7965C14.1158 53.7925 13.8786 53.7413 13.6582 53.6457C13.4377 53.5501 13.2383 53.412 13.0715 53.2394C13.0435 53.2108 13.0266 53.1732 13.0238 53.1333C13.0211 53.0934 13.0325 53.0539 13.0563 53.0216L16.6344 48.1667C16.6489 48.147 16.6675 48.1306 16.689 48.1188C16.7105 48.1069 16.7343 48.0999 16.7587 48.0981C16.7832 48.0963 16.8078 48.0999 16.8307 48.1085C16.8537 48.1172 16.8745 48.1307 16.8917 48.1481C17.286 48.5533 17.8768 48.7103 18.3304 48.5313C18.3645 48.5179 18.4022 48.5159 18.4376 48.5256C18.473 48.5353 18.5043 48.5563 18.5267 48.5854C18.5487 48.6146 18.5606 48.6501 18.5606 48.6866C18.5606 48.7232 18.5487 48.7587 18.5267 48.7879L14.952 53.6429C14.9331 53.6686 14.9073 53.6885 14.8775 53.7003C14.7113 53.7646 14.5345 53.7972 14.3562 53.7965ZM13.4185 53.101C13.5904 53.2582 13.8 53.3684 14.0272 53.4211C14.2543 53.4737 14.4912 53.467 14.715 53.4015L18.0037 48.9399C17.5648 48.9505 17.1373 48.8004 16.802 48.5178L13.4185 53.101Z" fill="#111111"/>
<path id="Vector_33" d="M14.5519 37.0609C13.4086 35.2477 12.4955 33.3 11.8336 31.2623C11.1983 29.3234 10.8349 27.3061 10.7537 25.2679L5.1174 22.2834C4.49284 21.9559 4.13909 21.2705 4.28127 20.6983L5.85876 14.3747C5.89813 14.2187 5.9747 14.0744 6.08197 13.9542C6.18923 13.834 6.32402 13.7414 6.47486 13.6843C6.73066 13.5896 7.00935 13.5748 7.27376 13.6421L13.2943 15.0685C15.2086 11.9152 18.1165 9.41343 21.808 7.91779L20.8669 2.24076C20.8192 2.00606 20.8556 1.76212 20.9698 1.55144C21.0839 1.34076 21.2685 1.17668 21.4915 1.08779C21.5928 1.04962 21.6986 1.02466 21.8063 1.01352L28.7577 0.181292C29.0907 0.154145 29.4242 0.22773 29.7147 0.392447C30.0052 0.557165 30.2391 0.805368 30.386 1.10467L33.0366 6.57576C37.3764 7.10413 41.6332 8.75508 45.3569 11.2298L50.1926 8.45629C50.7004 8.25372 51.3673 8.41577 51.8158 8.87662L57.1982 14.3697C57.6941 14.8761 57.7839 15.5766 57.4098 16.0324L54.0449 20.0838C55.1845 21.8952 56.0942 23.8407 56.7531 25.8756C57.388 27.8153 57.752 29.833 57.8346 31.8717L63.4676 34.8546C64.0887 35.1837 64.4459 35.8674 64.3037 36.4397L62.7262 42.7633C62.6872 42.9197 62.6108 43.0643 62.5035 43.1849C62.3962 43.3054 62.2612 43.3982 62.1101 43.4554C61.8542 43.5519 61.5748 43.5678 61.3095 43.5009L55.2822 42.0779C53.3021 45.3209 50.3146 47.8305 46.7736 49.2252L47.7147 54.904C47.764 55.1385 47.7283 55.3829 47.6139 55.5937C47.4996 55.8045 47.314 55.9681 47.0901 56.0552C46.9902 56.0943 46.8854 56.1199 46.7787 56.1312L39.8221 56.9668C39.4896 56.9924 39.1571 56.9177 38.8676 56.7524C38.5782 56.5872 38.3452 56.339 38.199 56.04L35.5484 50.569C31.2086 50.0406 26.9602 48.3879 23.2365 45.9149L18.3991 48.6884C17.8913 48.8893 17.2245 48.7273 16.7759 48.2664L11.3935 42.7734C10.8976 42.267 10.8079 41.5664 11.1836 41.1106L14.5519 37.0609ZM36.4641 38.6865C37.6502 38.6706 38.8239 38.4419 39.9288 38.0113C44.3295 36.2709 46.3318 31.4092 44.1518 26.328C42.163 21.6808 37.0649 18.3468 32.1209 18.4548C30.9371 18.4725 29.766 18.7012 28.6629 19.1301C24.2622 20.8722 22.2565 25.7355 24.4315 30.8133C26.4203 35.4606 31.52 38.7962 36.4624 38.6865" fill="white"/>
<path id="Vector_34" d="M39.6575 57.1422C39.3195 57.1341 38.9902 57.0335 38.7057 56.8513C38.4212 56.669 38.1925 56.4123 38.0445 56.1091L35.4345 50.7224C31.22 50.1924 27.0038 48.5988 23.2276 46.1089L18.4884 48.8301L18.4664 48.8419C17.8892 49.0698 17.1461 48.8807 16.6604 48.3794L11.278 42.888C10.7177 42.3191 10.6246 41.5257 11.0562 40.9991L14.3483 37.0422C13.2267 35.2471 12.3281 33.3226 11.6723 31.3111C11.0435 29.3878 10.6785 27.3884 10.5874 25.3674L5.0374 22.4335C4.34005 22.0689 3.95245 21.3227 4.11494 20.6593L5.69243 14.3357C5.73925 14.1541 5.82877 13.9862 5.95356 13.8459C6.07835 13.7056 6.23484 13.5969 6.41008 13.5288C6.69797 13.4185 7.0129 13.3991 7.31223 13.4731L13.216 14.8726C15.1955 11.6885 18.1392 9.21497 21.6213 7.80961L20.7023 2.26425C20.6485 1.99176 20.6921 1.70911 20.8253 1.46526C20.9585 1.2214 21.1731 1.03169 21.4318 0.928974C21.5451 0.883766 21.6641 0.854232 21.7855 0.841194L28.7353 0.00727968C29.103 -0.0256344 29.472 0.0535799 29.7936 0.234441C30.1152 0.415301 30.3741 0.689283 30.5362 1.02013L33.1461 6.41188C37.3607 6.94025 41.5786 8.5338 45.3531 11.0237L50.0923 8.30253L50.1143 8.2924C50.6932 8.06282 51.4345 8.25358 51.922 8.75325L57.3044 14.2446C57.8646 14.8135 57.956 15.6069 57.5244 16.1336L54.2357 20.0955C55.3569 21.8903 56.2554 23.8141 56.9117 25.8249C57.5399 27.7483 57.9043 29.7477 57.995 31.7686L63.545 34.7025C64.2406 35.0722 64.6282 35.8183 64.4657 36.4767L62.8882 42.8002C62.8416 42.9822 62.7522 43.1505 62.6274 43.2911C62.5026 43.4317 62.346 43.5406 62.1706 43.6088C61.8823 43.7174 61.5677 43.7363 61.2684 43.6629L55.3613 42.2668C53.3854 45.4516 50.4428 47.9252 46.961 49.3281L47.8801 54.8717C47.9339 55.1445 47.8904 55.4274 47.7572 55.6715C47.624 55.9156 47.4094 56.1057 47.1506 56.2087C47.0366 56.2533 46.917 56.2823 46.7951 56.2948L39.8403 57.1304C39.7796 57.1377 39.7186 57.1416 39.6575 57.1422ZM23.2394 45.7426C23.2725 45.7423 23.3048 45.7517 23.3325 45.7696C27.1138 48.2831 31.3469 49.8835 35.5716 50.3983C35.5998 50.4018 35.6267 50.4122 35.6497 50.4287C35.6728 50.4453 35.6914 50.4673 35.7036 50.4929L38.3542 55.9639C38.4859 56.2306 38.6941 56.4521 38.9525 56.6003C39.2108 56.7485 39.5075 56.8167 39.8048 56.7962L46.7613 55.9521C46.8534 55.9414 46.9438 55.9193 47.0304 55.8863C47.2176 55.8144 47.3732 55.6786 47.4693 55.5029C47.5654 55.3273 47.5958 55.1234 47.5551 54.9275L46.6123 49.2504C46.6061 49.2126 46.6129 49.1738 46.6316 49.1404C46.6504 49.1069 46.68 49.0808 46.7156 49.0664C50.2228 47.6847 53.1818 45.1988 55.143 41.9866C55.1617 41.9561 55.1896 41.9323 55.2228 41.9186C55.256 41.9049 55.2926 41.9022 55.3275 41.9106L61.3548 43.3337C61.5863 43.3921 61.8302 43.3786 62.0538 43.2949C62.1788 43.2465 62.2902 43.1688 62.3786 43.0682C62.467 42.9677 62.5298 42.8474 62.5616 42.7175L64.1424 36.3956C64.266 35.8892 63.9427 35.2933 63.3909 35.0013L57.7563 32.0218C57.73 32.0079 57.7079 31.9873 57.6922 31.9621C57.6764 31.9369 57.6676 31.908 57.6666 31.8783C57.5836 29.8558 57.2225 27.8541 56.5935 25.9295C55.9365 23.9076 55.0308 21.9746 53.8972 20.1748C53.8781 20.1449 53.869 20.1096 53.8711 20.0742C53.8732 20.0387 53.8865 20.0048 53.9091 19.9773L57.2756 15.9259C57.5955 15.536 57.5109 14.9316 57.0742 14.4877L51.685 8.99127C51.294 8.58951 50.7101 8.43758 50.2632 8.60639L45.4309 11.3715C45.4042 11.3879 45.3734 11.3966 45.3421 11.3966C45.3107 11.3966 45.2799 11.3879 45.2532 11.3715C41.472 8.85454 37.2388 7.25592 33.0141 6.73768C32.9861 6.7344 32.9593 6.72419 32.9363 6.70798C32.9132 6.69176 32.8946 6.67006 32.8821 6.64483L30.2315 1.17881C30.0996 0.911352 29.8906 0.689348 29.6312 0.541344C29.3718 0.393339 29.0739 0.326101 28.7759 0.348273L21.8278 1.17881C21.7362 1.18838 21.6463 1.20995 21.5604 1.24296C21.3732 1.31766 21.2184 1.45571 21.1231 1.63289C21.0277 1.81007 20.998 2.01506 21.0391 2.21192L21.9802 7.88895C21.9864 7.92675 21.9797 7.96557 21.9609 7.99901C21.9421 8.03245 21.9125 8.05852 21.8769 8.07295C18.2853 9.52471 15.3689 11.9826 13.4411 15.1511C13.4226 15.1819 13.3948 15.2061 13.3616 15.22C13.3284 15.234 13.2916 15.2371 13.2566 15.2287L7.23437 13.8023C7.00267 13.7457 6.7593 13.7592 6.53533 13.8411C6.41035 13.8895 6.29892 13.9672 6.21052 14.0678C6.12212 14.1683 6.05935 14.2886 6.02756 14.4185L4.45007 20.7403C4.32651 21.2468 4.6481 21.846 5.20158 22.1347L10.826 25.1142C10.8523 25.1281 10.8744 25.1487 10.8902 25.1739C10.9059 25.1991 10.9148 25.228 10.9157 25.2577C10.9975 27.2808 11.358 29.2831 11.9871 31.2082C12.6482 33.2321 13.5579 35.1667 14.6953 36.9679C14.714 36.9977 14.7229 37.0326 14.7208 37.0677C14.7187 37.1028 14.7056 37.1364 14.6834 37.1637L11.3152 41.2151C10.9953 41.6034 11.0782 42.2077 11.5166 42.6517L16.899 48.1447C17.29 48.5465 17.8756 48.7052 18.3276 48.5313L23.1531 45.7645C23.1781 45.7511 23.206 45.7441 23.2344 45.7443L23.2394 45.7426ZM36.2283 38.8552C31.2691 38.8552 26.2726 35.533 24.2804 30.8756C23.1802 28.308 23.0956 25.6527 24.0316 23.3974C24.4556 22.3908 25.0789 21.4798 25.8641 20.719C26.6493 19.9582 27.5804 19.3632 28.6016 18.9695C29.7237 18.5339 30.9148 18.3018 32.1187 18.2842C37.1542 18.1694 42.2844 21.5287 44.3053 26.2604C45.4089 28.8297 45.4902 31.4934 44.5575 33.742C44.1335 34.7482 43.5101 35.6587 42.7249 36.4189C41.9396 37.1792 41.0086 37.7736 39.9876 38.1665C38.8636 38.6038 37.67 38.8359 36.4636 38.8518L36.2283 38.8552ZM32.3591 18.6184H32.1238C30.9599 18.6351 29.8083 18.8592 28.7234 19.2802C27.7439 19.6571 26.8506 20.2272 26.0971 20.9564C25.3436 21.6856 24.7453 22.5589 24.3379 23.524C23.4341 25.6932 23.5221 28.2506 24.5867 30.7406C26.5603 35.3507 31.5585 38.6205 36.4585 38.5058C37.6242 38.4908 38.7776 38.2672 39.864 37.8457C40.8426 37.4691 41.7349 36.8994 42.4876 36.1708C43.2402 35.4421 43.8378 34.5696 44.2444 33.6052C45.15 31.4344 45.0602 28.8786 43.9939 26.3853C42.0525 21.8562 37.188 18.6184 32.3591 18.6184Z" fill="#111111"/>
</g>
<defs>
<clipPath id="clip0_4674_137954">
<rect width="64" height="62" fill="white" transform="translate(0.5)"/>
</clipPath>
</defs>
</svg>
