<svg width="24" height="24" viewBox="0 0 24 24" fill="none" xmlns="http://www.w3.org/2000/svg">
<path d="M19.6568 11.9886C19.8452 11.9887 19.9967 11.8335 19.9922 11.6452V11.6452V6.89007C19.9922 6.24943 19.2172 5.92909 18.7649 6.38274V6.38274C18.464 6.68451 17.9696 6.65725 17.6692 6.35503C16.223 4.90039 14.2226 4 12.0129 4C9.72389 4 7.66311 4.96393 6.2073 6.50854C5.86644 6.87019 5.90743 7.43169 6.25647 7.78545L7.63281 9.18038C8.10496 9.65891 8.91467 9.53471 9.4161 9.08695C9.52855 8.98654 9.64699 8.89252 9.77094 8.80545C10.2834 8.40429 11.0089 8.07684 12.0129 8.07684C12.0653 8.07684 12.1126 8.07951 12.1549 8.08468C12.251 8.09643 12.3459 8.1207 12.442 8.13197C13.3693 8.24072 14.1962 8.67841 14.8042 9.3252C15.098 9.63775 15.0384 10.1198 14.7356 10.4235V10.4235C14.1595 11.0013 14.5685 11.9871 15.3844 11.9873L19.6568 11.9886Z" fill="#0083E3"/>
<path d="M11.9655 4.00024L11.623 4.00852H6.88765C6.24504 4.00852 5.92275 4.78502 6.37647 5.24007V5.24007C6.67759 5.54207 6.65028 6.03627 6.34868 6.33779C4.8978 7.78829 4 9.79442 4 12.0115C4 14.3053 4.9595 16.3705 6.49733 17.8303C6.85933 18.174 7.42375 18.1328 7.77803 17.7812L9.17065 16.3991C9.64622 15.9271 9.52227 15.1212 9.0766 14.6209C8.97482 14.5066 8.87959 14.3862 8.7915 14.26C8.3915 13.746 8.065 13.0184 8.065 12.0115C8.065 11.9585 8.06771 11.9107 8.07296 11.868C8.0847 11.7724 8.10872 11.678 8.11984 11.5824C8.22799 10.6523 8.66412 9.82294 9.30877 9.21305C9.62032 8.9183 10.1026 8.97783 10.4055 9.28154V9.28154C10.9798 9.85754 11.9638 9.45092 11.964 8.6375L11.965 4.00049" fill="#0083E3"/>
<path d="M4 12.0112L4.00825 12.3547V17.1098C4.00825 17.7505 4.78325 18.0708 5.2356 17.6172V17.6172C5.53649 17.3154 6.0308 17.3426 6.33126 17.6448C7.77754 19.0995 9.77785 19.9999 11.9883 19.9999C14.2773 19.9999 16.3381 19.036 17.7939 17.4914C18.1348 17.1297 18.0938 16.5682 17.7447 16.2145L16.3684 14.8195C15.8962 14.341 15.0865 14.4652 14.5851 14.913C14.4726 15.0134 14.3542 15.1074 14.2303 15.1945C13.7178 15.5956 12.9923 15.9231 11.9883 15.9231C11.9359 15.9231 11.8886 15.9204 11.8463 15.9152C11.7502 15.9035 11.6553 15.8792 11.5592 15.868C10.6308 15.7591 9.80298 15.3205 9.19483 14.6724C8.90257 14.361 8.96183 13.8811 9.26338 13.5787V13.5787C9.83819 13.0022 9.42764 12.0183 8.61355 12.0203C6.68819 12.025 4.88665 12.0249 4.0005 12.012" fill="#0083E3"/>
</svg>
