<svg viewBox="0 0 80 80" xmlns="http://www.w3.org/2000/svg"><path fill="#DADADA" d="M40 0a40 40 0 1 0 0 80 40 40 0 1 0 0-80Z"/><g opacity=".8"><g fill="#FBF9FF" fill-rule="evenodd"><path d="M56.3 27.44v11.05 .02c0 9.44-6.07 18.38-14.63 21.2 -1.13.37-2.34.37-3.47 0 -8.56-2.83-14.63-11.77-14.63-21.21V27.41s4.46-2.93 7.55-4.36c3.3-1.53 8.79-3.08 8.79-3.08l.04.02v-.03c.53.16 5.35 1.65 8.46 3.08 3.1 1.42 7.84 4.33 7.84 4.33v.02Z"/><path fill="#DADADA" d="M24.04 27.15c6.19 8.33 23.31 19.38 30.38 20.4 -1.08 2.52-2.59 4.83-4.44 6.79 -8.92-4.14-21.39-16.66-26.4-26.07v-.84s.16-.11.44-.29Z"/></g></g></svg>
