<svg width="48" height="48" viewBox="0 0 48 25" fill="none" xmlns="http://www.w3.org/2000/svg">
    <path d="M15.1942 4.28901C15.365 4.28901 15.5349 4.22501 15.6649 4.09658C15.9249 3.83969 15.9249 3.42368 15.6649 3.16678C13.5985 1.12485 10.8517 0 7.92969 0C5.0077 0 2.2609 1.12443 0.194933 3.16678C-0.0649777 3.42368 -0.0649777 3.83969 0.194933 4.09658C0.454842 4.35347 0.875753 4.35347 1.13566 4.09658C2.95016 2.30276 5.36297 1.31511 7.92969 1.31511C10.4969 1.31511 12.9092 2.30276 14.7242 4.09658C14.8538 4.22501 15.0244 4.28901 15.1942 4.28901ZM13.154 6.30378C13.3248 6.30378 13.4947 6.23978 13.6246 6.11132C13.8846 5.85489 13.8846 5.43843 13.6246 5.18155C12.1042 3.67749 10.0817 2.8494 7.92969 2.8494C5.77811 2.8494 3.75516 3.67793 2.23386 5.18155C1.97394 5.43843 1.97394 5.85444 2.23386 6.11132C2.49375 6.36821 2.91467 6.36821 3.17458 6.11132C4.44486 4.85583 6.13338 4.16453 7.92969 4.16453C9.726 4.16453 11.4145 4.85583 12.6839 6.11132C12.8139 6.23978 12.9842 6.30378 13.154 6.30378ZM11.1688 8.26811C11.3387 8.26811 11.5095 8.20411 11.6394 8.07566C11.8993 7.81879 11.8993 7.40232 11.6394 7.14589C9.59427 5.125 6.266 5.12587 4.22175 7.14589C3.96186 7.40277 3.96186 7.81879 4.22175 8.07566C4.48167 8.33254 4.90259 8.33254 5.16249 8.07566C6.68825 6.56812 9.17247 6.56812 10.6987 8.07566C10.8282 8.20368 10.998 8.26811 11.1688 8.26811ZM7.92925 12.9762C8.29693 12.9762 8.65081 12.6821 8.65081 12.3191V10.3465C8.75993 10.4161 8.82384 10.4618 8.94892 10.4618C9.11968 10.4618 9.28956 10.3977 9.41951 10.2692C9.67943 10.0124 9.67943 9.59637 9.41951 9.33949C9.02211 8.94628 8.49253 8.72928 7.93013 8.72928C7.36773 8.72928 6.8386 8.94583 6.44074 9.33949C6.18128 9.59637 6.18128 10.0128 6.44119 10.2698C6.66608 10.4916 6.95132 10.5095 7.20901 10.3465V12.3191C7.20812 12.6816 7.56156 12.9762 7.92925 12.9762Z" fill="#9675F7"/>
    <mask id="mask0_141_9265" style="mask-type:luminance" maskUnits="userSpaceOnUse" x="7" y="11" width="12" height="11">
        <path d="M7.20898 11.5352H18.7434V21.6278H8.65079C7.85451 21.6278 7.20898 20.9823 7.20898 20.186V11.5352Z" fill="white"/>
    </mask>
    <g mask="url(#mask0_141_9265)">
        <path d="M18.7429 23.0696H8.65021C7.05764 23.0696 5.7666 21.7786 5.7666 20.186H8.65021H18.7429V23.0696ZM8.65021 23.0696C7.05764 23.0696 5.7666 21.7786 5.7666 20.186V11.5352H8.65021V20.186V23.0696Z" fill="#9675F7"/>
    </g>
    <path d="M18.7432 20.1855H19.4641C19.8622 20.1855 20.185 20.5084 20.185 20.9065C20.185 21.3046 19.8622 21.6274 19.4641 21.6274H18.7432V20.1855Z" fill="#9675F7"/>
    <path d="M24.0837 2.04297C22.63 2.04297 21.4473 3.2177 21.4473 4.66162V16.1838C21.4473 17.6277 22.63 18.8024 24.0837 18.8024H30.4112V20.3736H29.8839C29.3018 20.3736 28.8294 20.8428 28.8294 21.4211C28.8294 21.9992 29.3018 22.4685 29.8839 22.4685H37.2659C37.848 22.4685 38.3205 21.9992 38.3205 21.4211C38.3205 20.8428 37.848 20.3736 37.2659 20.3736H36.7386V18.8024H43.0662C44.5198 18.8024 45.7026 17.6277 45.7026 16.1838V4.66162C45.7026 3.2177 44.5198 2.04297 43.0662 2.04297H24.0837ZM24.0837 4.13789H43.0662C43.3572 4.13789 43.5934 4.37305 43.5934 4.66162V16.1838C43.5934 16.4723 43.3572 16.7075 43.0662 16.7075H24.0837C23.7926 16.7075 23.5564 16.4723 23.5564 16.1838V4.66162C23.5564 4.37305 23.7926 4.13789 24.0837 4.13789Z" fill="#9675F7"/>
</svg>
