<svg width="48" height="48" viewBox="0 0 48 33" fill="none" xmlns="http://www.w3.org/2000/svg">
    <g clip-path="url(#clip0_141_9244)">
        <mask id="mask0_141_9244" style="mask-type:luminance" maskUnits="userSpaceOnUse" x="0" y="17" width="17" height="16">
            <path d="M16.5359 17.6836H0V32.8415H16.5359V17.6836Z" fill="white"/>
        </mask>
        <g mask="url(#mask0_141_9244)">
            <path d="M15.8469 17.6836H0.689021C0.308463 17.6836 0 17.9921 0 18.3726V21.1286C0 21.5091 0.308463 21.8175 0.689021 21.8175H15.8469C16.2274 21.8175 16.5359 21.5091 16.5359 21.1286V18.3726C16.5359 17.9921 16.2274 17.6836 15.8469 17.6836Z" fill="#9675F7"/>
            <path d="M10.3348 19.0625H2.06696C1.68639 19.0625 1.37793 19.371 1.37793 19.7514C1.37793 20.132 1.68639 20.4405 2.06696 20.4405H10.3348C10.7154 20.4405 11.0238 20.132 11.0238 19.7514C11.0238 19.371 10.7154 19.0625 10.3348 19.0625Z" fill="#E7E7E7"/>
            <path d="M14.4693 19.0625H13.0913C12.7109 19.0625 12.4023 19.371 12.4023 19.7514C12.4023 20.132 12.7109 20.4405 13.0913 20.4405H14.4693C14.8499 20.4405 15.1584 20.132 15.1584 19.7514C15.1584 19.371 14.8499 19.0625 14.4693 19.0625Z" fill="#E7E7E7"/>
            <path d="M15.8469 23.1953H0.689021C0.308463 23.1953 0 23.5038 0 23.8842V26.6402C0 27.0208 0.308463 27.3292 0.689021 27.3292H15.8469C16.2274 27.3292 16.5359 27.0208 16.5359 26.6402V23.8842C16.5359 23.5038 16.2274 23.1953 15.8469 23.1953Z" fill="#9675F7"/>
            <path d="M10.3348 24.5742H2.06696C1.68639 24.5742 1.37793 24.8827 1.37793 25.2631C1.37793 25.6437 1.68639 25.9522 2.06696 25.9522H10.3348C10.7154 25.9522 11.0238 25.6437 11.0238 25.2631C11.0238 24.8827 10.7154 24.5742 10.3348 24.5742Z" fill="#E7E7E7"/>
            <path d="M14.4693 24.5742H13.0913C12.7109 24.5742 12.4023 24.8827 12.4023 25.2631C12.4023 25.6437 12.7109 25.9522 13.0913 25.9522H14.4693C14.8499 25.9522 15.1584 25.6437 15.1584 25.2631C15.1584 24.8827 14.8499 24.5742 14.4693 24.5742Z" fill="#E7E7E7"/>
            <path d="M15.8469 28.707H0.689021C0.308463 28.707 0 29.0155 0 29.396V32.152C0 32.5325 0.308463 32.841 0.689021 32.841H15.8469C16.2274 32.841 16.5359 32.5325 16.5359 32.152V29.396C16.5359 29.0155 16.2274 28.707 15.8469 28.707Z" fill="#9675F7"/>
            <path d="M10.3348 30.0859H2.06696C1.68639 30.0859 1.37793 30.3944 1.37793 30.7749C1.37793 31.1553 1.68639 31.4638 2.06696 31.4638H10.3348C10.7154 31.4638 11.0238 31.1553 11.0238 30.7749C11.0238 30.3944 10.7154 30.0859 10.3348 30.0859Z" fill="#E7E7E7"/>
            <path d="M14.4693 30.0859H13.0913C12.7109 30.0859 12.4023 30.3944 12.4023 30.7749C12.4023 31.1553 12.7109 31.4638 13.0913 31.4638H14.4693C14.8499 31.4638 15.1584 31.1553 15.1584 30.7749C15.1584 30.3944 14.8499 30.0859 14.4693 30.0859Z" fill="#E7E7E7"/>
        </g>
        <path d="M27.1583 25.2637H18.3161C17.9673 25.2637 17.6846 25.4875 17.6846 25.7637C17.6846 26.0398 17.9673 26.2637 18.3161 26.2637H27.1583C27.5071 26.2637 27.7898 26.0398 27.7898 25.7637C27.7898 25.4875 27.5071 25.2637 27.1583 25.2637Z" fill="#9675F7"/>
        <path d="M31.0092 17.6836C29.9304 17.6836 29.0527 18.5554 29.0527 19.627V28.1775C29.0527 29.2491 29.9304 30.1209 31.0092 30.1209H35.7049V31.2868H35.3136C34.8816 31.2868 34.531 31.635 34.531 32.0641C34.531 32.4932 34.8816 32.8415 35.3136 32.8415H40.7919C41.2239 32.8415 41.5744 32.4932 41.5744 32.0641C41.5744 31.635 41.2239 31.2868 40.7919 31.2868H40.4006V30.1209H45.0962C46.1751 30.1209 47.0527 29.2491 47.0527 28.1775V19.627C47.0527 18.5554 46.1751 17.6836 45.0962 17.6836H31.0092ZM31.0092 19.2383H45.0962C45.3122 19.2383 45.4876 19.4127 45.4876 19.627V28.1775C45.4876 28.3916 45.3122 28.5662 45.0962 28.5662H31.0092C30.7932 28.5662 30.6179 28.3916 30.6179 28.1775V19.627C30.6179 19.4127 30.7932 19.2383 31.0092 19.2383Z" fill="#9675F7"/>
        <mask id="mask1_141_9244" style="mask-type:luminance" maskUnits="userSpaceOnUse" x="0" y="0" width="19" height="26">
            <path d="M18.9474 0H0V25.2632H18.9474V0Z" fill="white"/>
        </mask>
        <g mask="url(#mask1_141_9244)">
            <path d="M14.3184 4.04178C14.4793 4.04178 14.6395 3.98146 14.7619 3.86044C15.0068 3.61835 15.0068 3.22632 14.7619 2.98424C12.8146 1.06002 10.2261 0 7.47259 0C4.71903 0 2.13058 1.05961 0.183696 2.98424C-0.061232 3.22632 -0.061232 3.61835 0.183696 3.86044C0.428624 4.10251 0.825272 4.10251 1.0702 3.86044C2.7801 2.17002 5.05383 1.2393 7.47259 1.2393C9.89178 1.2393 12.1651 2.17002 13.8754 3.86044C13.9976 3.98146 14.1584 4.04178 14.3184 4.04178ZM12.3958 5.9404C12.5567 5.9404 12.7168 5.88009 12.8392 5.75904C13.0842 5.51739 13.0842 5.12494 12.8392 4.88286C11.4065 3.4655 9.50055 2.68516 7.47259 2.68516C5.44503 2.68516 3.5387 3.46593 2.10509 4.88286C1.86015 5.12494 1.86015 5.51697 2.10509 5.75904C2.35 6.00112 2.74666 6.00112 2.99157 5.75904C4.18864 4.57592 5.77983 3.92447 7.47259 3.92447C9.16535 3.92447 10.7565 4.57592 11.9528 5.75904C12.0752 5.88009 12.2357 5.9404 12.3958 5.9404ZM10.525 7.79151C10.6851 7.79151 10.846 7.7312 10.9685 7.61015C11.2134 7.36809 11.2134 6.97563 10.9685 6.73397C9.04122 4.82957 5.9048 4.83039 3.97839 6.73397C3.73348 6.97606 3.73348 7.36809 3.97839 7.61015C4.22333 7.85223 4.61999 7.85223 4.8649 7.61015C6.3027 6.1895 8.64373 6.1895 10.0819 7.61015C10.204 7.73079 10.3641 7.79151 10.525 7.79151ZM7.47217 16.0177C7.81867 16.0177 8.15214 15.7405 8.15214 15.3984V9.75003C8.25496 9.8157 8.3152 9.85866 8.43307 9.85866C8.594 9.85866 8.75408 9.79835 8.87653 9.67732C9.12147 9.43523 9.12147 9.0432 8.87653 8.80113C8.50204 8.43058 8.00299 8.22609 7.47301 8.22609C6.94304 8.22609 6.44439 8.43016 6.06947 8.80113C5.82496 9.0432 5.82496 9.43565 6.0699 9.67772C6.28181 9.88676 6.55061 9.90369 6.79345 9.75003V15.3984C6.79261 15.7401 7.12568 16.0177 7.47217 16.0177Z" fill="#9675F7"/>
        </g>
    </g>
    <defs>
        <clipPath id="clip0_141_9244">
            <rect width="48" height="32.8421" fill="white"/>
        </clipPath>
    </defs>
</svg>
