<svg width="81" height="78" viewBox="0 0 81 78" fill="none" xmlns="http://www.w3.org/2000/svg">
<g clip-path="url(#clip0_6900_43329)">
<g filter="url(#filter0_d_6900_43329)">
<circle cx="40" cy="39" r="36" fill="white"/>
</g>
<path d="M62.0325 34.0919V20.3714C62.0325 20.1793 61.9573 19.9948 61.8229 19.8577C61.6885 19.7207 61.5058 19.642 61.3141 19.6387C61.3141 19.6387 45.6807 17.095 40.4667 17.0024C35.2528 16.9098 19.7538 19.5292 19.7538 19.5292C19.6564 19.5269 19.5596 19.5442 19.4689 19.5801C19.3783 19.6159 19.2957 19.6695 19.226 19.7378C19.1563 19.806 19.101 19.8876 19.0632 19.9776C19.0254 20.0676 19.006 20.1643 19.006 20.262V34.0919C19.006 34.0919 18.5186 45.614 26.3332 54.6852C33.2739 62.7414 39.0719 64.6491 40.2819 64.9776C40.4355 65.0113 40.5946 65.0113 40.7482 64.9776C41.975 64.6449 47.7646 62.7246 54.6885 54.6852C62.5031 45.614 62.0325 34.0919 62.0325 34.0919ZM51.529 52.2005C46.8193 57.6752 42.7943 60.0209 40.744 60.96C40.5898 61.019 40.4193 61.019 40.2651 60.96C38.2316 59.9956 34.2025 57.6415 29.5095 52.1795C22.573 44.1443 22.8503 33.616 22.8545 33.5065V22.9782C22.8579 22.9042 22.8839 22.833 22.929 22.7743C22.9741 22.7156 23.0361 22.6721 23.1066 22.6498C28.7619 21.2171 34.5706 20.4817 40.4037 20.4599H40.702C46.5125 20.46 52.2998 21.1929 57.9277 22.6413C57.9982 22.6637 58.0602 22.7071 58.1053 22.7659C58.1504 22.8246 58.1764 22.8958 58.1798 22.9698V33.5234C58.1924 33.616 58.4655 44.1443 51.55 52.1795L51.529 52.2005Z" fill="#FCDA28"/>
<path d="M40.4748 30.4219C39.7384 30.4194 39.0178 30.6359 38.4042 31.044C37.7905 31.4521 37.3115 32.0335 37.0275 32.7145C36.7436 33.3956 36.6676 34.1458 36.8091 34.8702C36.9507 35.5946 37.3034 36.2606 37.8226 36.784C38.3419 37.3074 39.0043 37.6647 39.7262 37.8107C40.4481 37.9566 41.1969 37.8847 41.878 37.6039C42.559 37.3232 43.1417 36.8463 43.5523 36.2335C43.9629 35.6207 44.183 34.8997 44.1846 34.1615C44.1857 33.173 43.7959 32.2244 43.1005 31.5234C42.4052 30.8225 41.461 30.4264 40.4748 30.4219Z" fill="#FCDA28"/>
<path d="M54.3397 33.5972V26.0169C54.3373 25.9456 54.3118 25.8771 54.2671 25.8216C54.2223 25.7661 54.1608 25.7268 54.0918 25.7094C49.6888 24.7912 45.2035 24.3283 40.7062 24.3281H40.4331C35.9162 24.3507 31.4127 24.8219 26.9886 25.7347C26.9196 25.752 26.8581 25.7914 26.8134 25.8469C26.7686 25.9023 26.7432 25.9709 26.7407 26.0421V33.652C26.7407 34.2121 26.7407 43.0474 32.4504 49.6549C35.6141 53.3693 38.3912 55.4497 40.307 56.5867C40.3723 56.6194 40.4442 56.6364 40.5171 56.6364C40.59 56.6364 40.6619 56.6194 40.7272 56.5867C42.6304 55.4539 45.4075 53.3735 48.6132 49.6549C54.47 42.8705 54.3397 33.7025 54.3397 33.5972ZM45.689 47.1534C45.2311 47.6925 44.7815 48.1852 44.3446 48.6442C44.2437 48.7495 44.1639 48.7158 44.1639 48.5684V45.3847C44.1639 42.9758 46.4957 41.7503 47.2646 41.4134C47.3343 41.3811 47.3939 41.3303 47.4369 41.2665C47.4799 41.2026 47.5045 41.1282 47.5082 41.0512V38.6339C47.5131 38.6035 47.509 38.5722 47.4966 38.544C47.4841 38.5158 47.4638 38.4918 47.4381 38.4749C47.4123 38.458 47.3822 38.4489 47.3515 38.4487C47.3207 38.4485 47.2905 38.4573 47.2646 38.4739C42.8967 40.2009 38.0378 40.2024 33.6688 38.4781C33.6426 38.4633 33.6129 38.4559 33.5828 38.4569C33.5527 38.4579 33.5235 38.4671 33.4983 38.4837C33.4731 38.5002 33.453 38.5234 33.4401 38.5506C33.4272 38.5779 33.422 38.6081 33.4251 38.6382V41.0554C33.4307 41.1314 33.4567 41.2043 33.5004 41.2666C33.544 41.3289 33.6037 41.3782 33.673 41.4092C36.2275 42.3904 36.7485 44.0581 36.7485 45.4184V48.5431C36.7485 48.6905 36.6686 48.7242 36.5678 48.6189C36.1393 48.1697 35.6967 47.6812 35.2402 47.1534C30.4338 41.5692 30.4632 33.7446 30.4632 33.6772V29.2132C30.4657 29.1406 30.493 29.0709 30.5403 29.0158C30.5877 28.9607 30.6523 28.9234 30.7236 28.91C33.9206 28.4085 37.151 28.1508 40.3869 28.1394H40.6768C43.8687 28.1399 47.0559 28.3877 50.2097 28.8805C50.2814 28.8932 50.3465 28.9303 50.394 28.9855C50.4415 29.0408 50.4684 29.1108 50.4702 29.1838V33.5214C50.4702 33.6688 50.5164 41.5566 45.689 47.1534Z" fill="#FCDA28"/>
</g>
<defs>
<filter id="filter0_d_6900_43329" x="0" y="0" width="80" height="80" filterUnits="userSpaceOnUse" color-interpolation-filters="sRGB">
<feFlood flood-opacity="0" result="BackgroundImageFix"/>
<feColorMatrix in="SourceAlpha" type="matrix" values="0 0 0 0 0 0 0 0 0 0 0 0 0 0 0 0 0 0 127 0" result="hardAlpha"/>
<feOffset dy="1"/>
<feGaussianBlur stdDeviation="2"/>
<feComposite in2="hardAlpha" operator="out"/>
<feColorMatrix type="matrix" values="0 0 0 0 0 0 0 0 0 0 0 0 0 0 0 0 0 0 0.25 0"/>
<feBlend mode="normal" in2="BackgroundImageFix" result="effect1_dropShadow_6900_43329"/>
<feBlend mode="normal" in="SourceGraphic" in2="effect1_dropShadow_6900_43329" result="shape"/>
</filter>
<clipPath id="clip0_6900_43329">
<rect width="81" height="78" fill="white"/>
</clipPath>
</defs>
</svg>
