<svg width="24" height="24" viewBox="0 0 24 24" fill="none" xmlns="http://www.w3.org/2000/svg">
<path d="M19.6889 18.536L17.5682 20.6516C17.3001 20.9189 16.9095 21.0233 16.5434 20.9255C16.1773 20.8276 15.8913 20.5424 15.7932 20.1771C15.695 19.8119 15.7997 19.4222 16.0678 19.1549L17.4382 17.7877L16.2878 16.6399L14.9173 18.0071C14.6492 18.2744 14.2586 18.3788 13.8925 18.2811C13.5264 18.1831 13.2404 17.8979 13.1423 17.5327C13.0441 17.1675 13.1488 16.7777 13.4169 16.5104L14.7873 15.1432L12.9105 13.2709H12.9107C11.5858 14.4448 9.76215 14.8833 8.04675 14.4404C6.33153 13.9975 4.94985 12.7316 4.36239 11.064C3.77475 9.39654 4.0584 7.54656 5.1187 6.13027C6.17896 4.71417 7.87666 3.91781 9.64627 4.00673C11.4159 4.09546 13.025 5.05762 13.9375 6.57279C14.8498 8.08796 14.946 9.95692 14.1936 11.5571L19.689 17.0391C19.8879 17.2376 20 17.5067 20 17.7875C20 18.0683 19.8879 18.3374 19.689 18.5359L19.6889 18.536ZM8.07001 6.68085C7.71849 6.68085 7.3814 6.82012 7.13269 7.06804C6.88416 7.31614 6.74456 7.65241 6.74456 8.00308C6.74456 8.35376 6.88416 8.69003 7.13269 8.93794C7.38139 9.18604 7.71848 9.32531 8.07001 9.32531C8.42154 9.32531 8.75863 9.18604 9.00734 8.93794C9.25586 8.69003 9.39547 8.35376 9.39547 8.00308C9.39547 7.65241 9.25586 7.31614 9.00734 7.06804C8.75863 6.82012 8.42154 6.68085 8.07001 6.68085Z" fill="#0083E3"/>
</svg>
