<svg width="111" height="74" viewBox="0 0 111 74" fill="none" xmlns="http://www.w3.org/2000/svg">
<g clip-path="url(#clip0_3375_128260)">
<path d="M103.027 27.4814L109.355 55.1154L83.0006 58.4022L76.6719 30.7682L103.027 27.4814Z" fill="#232323"/>
<path d="M83.0004 58.48C82.9645 58.48 82.9327 58.4553 82.9244 58.4195L76.5957 30.7855C76.5908 30.764 76.5952 30.7415 76.6078 30.7234C76.6204 30.7053 76.6402 30.6934 76.662 30.6907L103.017 27.4039C103.056 27.399 103.093 27.4249 103.102 27.4639L109.431 55.0978C109.436 55.1193 109.432 55.1419 109.419 55.16C109.406 55.1781 109.387 55.1899 109.365 55.1926L83.0101 58.4794C83.0068 58.4798 83.0036 58.48 83.0004 58.48ZM76.767 30.8348L83.0607 58.316L109.26 55.0485L102.966 27.5674L76.767 30.8348Z" fill="#232323"/>
<path d="M109.355 55.1152L107.71 56.4289L81.3555 59.7157L83.0001 58.4021L109.355 55.1152Z" fill="#6817C5"/>
<path d="M81.3554 59.7936C81.3243 59.7936 81.2958 59.7751 81.2835 59.746C81.2699 59.7137 81.2794 59.6765 81.3067 59.6547L82.9513 58.341C82.9625 58.332 82.976 58.3263 82.9903 58.3245L109.345 55.0378C109.38 55.0332 109.413 55.0526 109.427 55.0849C109.44 55.1171 109.431 55.1543 109.403 55.1761L107.759 56.4898C107.747 56.4988 107.734 56.5045 107.72 56.5063L81.365 59.7931C81.3618 59.7934 81.3586 59.7936 81.3554 59.7936ZM83.0314 58.4766L81.62 59.6041L107.679 56.3542L109.09 55.2267L83.0314 58.4766Z" fill="#232323"/>
<path d="M83.0007 58.4026L81.3561 59.7162L75.0273 32.0823L76.6719 30.7686L83.0007 58.4026Z" fill="#D2B9EE"/>
<path d="M81.356 59.794C81.3474 59.794 81.3387 59.7925 81.3303 59.7896C81.305 59.7808 81.286 59.7595 81.28 59.7334L74.9512 32.0995C74.9445 32.0703 74.9552 32.0398 74.9786 32.0211L76.6232 30.7074C76.6442 30.6907 76.6722 30.6861 76.6976 30.6947C76.7229 30.7035 76.7419 30.7248 76.7479 30.7509L83.0766 58.3849C83.0833 58.4141 83.0727 58.4446 83.0493 58.4632L81.4047 59.777C81.3906 59.7881 81.3735 59.794 81.356 59.794ZM75.1142 32.1125L81.4043 59.5776L82.9136 58.3719L76.6236 30.9067L75.1142 32.1125Z" fill="#232323"/>
<path d="M76.6719 30.7682L103.027 27.4814C106.348 41.3547 107.864 47.6831 110.229 54.0216L83.8747 57.3084C81.5091 50.9699 79.9937 44.6415 76.6719 30.7682Z" fill="white"/>
<path d="M83.8744 57.386C83.8423 57.386 83.8129 57.366 83.8014 57.3353C81.434 50.9919 79.9178 44.6598 76.5959 30.7861C76.5907 30.7645 76.595 30.7418 76.6076 30.7235C76.6202 30.7053 76.64 30.6932 76.662 30.6905L103.017 27.4037C103.056 27.3998 103.093 27.4244 103.102 27.463C106.423 41.3305 107.938 47.6598 110.302 53.994C110.311 54.0163 110.308 54.0413 110.296 54.0617C110.283 54.0821 110.262 54.0957 110.239 54.0987L83.8842 57.3854C83.8809 57.3858 83.8777 57.386 83.8744 57.386ZM76.7678 30.8346C80.0643 44.6015 81.5791 50.9206 83.9261 57.2231L110.122 53.956C107.778 47.6542 106.261 41.3258 102.967 27.5671L76.7678 30.8346Z" fill="#232323"/>
</g>
<g clip-path="url(#clip1_3375_128260)">
<path d="M0.893902 63.0844C1.13999 62.3202 1.66105 61.66 2.24899 61.1243C2.44695 60.9435 2.65426 60.773 2.87007 60.6137L25.8827 43.668C25.7692 44.5406 28.3264 47.9771 29.1853 48.1055C28.9811 48.2512 6.16073 65.069 5.96872 65.1966C5.703 65.3778 5.42632 65.5426 5.14025 65.6901C3.15 66.8893 0.210406 65.9313 0.893902 63.0844Z" fill="#6817C5"/>
<path d="M3.32807 66.298C2.71718 66.309 2.11842 66.1277 1.61734 65.78C0.809709 65.1938 0.519164 64.2287 0.799191 63.0624C0.799786 63.06 0.800481 63.0577 0.801275 63.0553C1.02583 62.3575 1.49102 61.6834 2.18365 61.0525C2.38374 60.8697 2.59326 60.6975 2.81138 60.5364L25.8254 43.5897C25.841 43.5782 25.8597 43.5715 25.8792 43.5705C25.8986 43.5694 25.9179 43.5741 25.9347 43.5839C25.9515 43.5937 25.965 43.6082 25.9736 43.6256C25.9821 43.643 25.9854 43.6625 25.9829 43.6817C25.8773 44.4927 28.4041 47.8897 29.2018 48.009C29.2213 48.0119 29.2394 48.0206 29.254 48.0338C29.2685 48.0471 29.2787 48.0644 29.2833 48.0834C29.2879 48.1025 29.2868 48.1225 29.2799 48.1408C29.2731 48.1592 29.2609 48.1752 29.2449 48.1866C29.1705 48.2396 26.0601 50.5308 22.1222 53.4316C15.0057 58.6735 6.14918 65.1975 6.02544 65.2796C5.75649 65.4629 5.47653 65.6297 5.18714 65.7791C4.62619 66.1165 3.98359 66.2958 3.32807 66.298ZM0.9914 63.1118C0.732509 64.194 0.996361 65.0849 1.73443 65.6204C2.62463 66.2666 4.00491 66.2609 5.09069 65.6068C5.375 65.4601 5.65004 65.2962 5.9143 65.1162C6.05878 65.0185 15.275 58.2298 22.0042 53.2728C25.4741 50.7165 28.3015 48.6339 28.977 48.1378C28.0078 47.664 25.9704 44.9261 25.7943 43.8582L2.93075 60.6939C2.71824 60.8508 2.51408 61.0187 2.3191 61.1967C1.65207 61.8046 1.20584 62.4487 0.9914 63.1118Z" fill="#111111"/>
<path d="M29.1848 48.1056C29.3984 47.9482 28.8324 46.8276 27.9206 45.6026C27.0089 44.3775 26.0965 43.512 25.8829 43.6693C25.6693 43.8266 26.2352 44.9472 27.147 46.1722C28.0588 47.3973 28.9712 48.2629 29.1848 48.1056Z" fill="white"/>
<path d="M29.1255 48.2231C29.0411 48.2176 28.9595 48.1912 28.888 48.1464C28.3505 47.8479 27.2781 46.621 26.4973 45.4115C26.1337 44.848 25.5592 43.8647 25.799 43.6111C25.8783 43.5267 26.0069 43.5321 26.1796 43.6286C26.7169 43.9269 27.7894 45.1538 28.5704 46.3634C28.934 46.9269 29.5085 47.9102 29.2686 48.1639C29.2504 48.1833 29.2281 48.1986 29.2035 48.2088C29.1788 48.219 29.1522 48.2239 29.1255 48.2231ZM25.9443 43.7495C25.9423 43.7493 25.9402 43.7493 25.9381 43.7495C25.8967 43.8161 26.0102 44.2908 26.6644 45.3044C27.4302 46.491 28.4712 47.6884 28.9847 47.9736C29.0917 48.0328 29.129 48.0248 29.1295 48.0245C29.1709 47.9579 29.0575 47.4832 28.4033 46.4696C27.6372 45.283 26.5963 44.0855 26.0829 43.8004C26.0414 43.7728 25.9939 43.7554 25.9443 43.7495Z" fill="#111111"/>
<path d="M43.3098 37.7052C43.5234 37.5479 42.9574 36.4272 42.0456 35.2022C41.1339 33.9772 40.2215 33.1116 40.0079 33.2689C39.7943 33.4262 40.3602 34.5468 41.272 35.7718C42.1838 36.9969 43.0962 37.8625 43.3098 37.7052Z" fill="white"/>
<path d="M43.2504 37.8218C43.1661 37.8162 43.0845 37.7899 43.013 37.7451C42.4755 37.4466 41.403 36.2197 40.6224 35.0102C40.2586 34.4467 39.6842 33.4635 39.924 33.2097C40.0034 33.1253 40.1319 33.1308 40.3047 33.2272C40.8422 33.5258 41.9145 34.7526 42.6953 35.9622C43.0591 36.5256 43.6335 37.5089 43.3937 37.7625C43.3754 37.782 43.3532 37.7973 43.3284 37.8075C43.3037 37.8177 43.2771 37.8226 43.2504 37.8218ZM40.0694 33.3481C40.0673 33.3479 40.0652 33.3479 40.0631 33.3481C40.0217 33.4147 40.1352 33.8896 40.7895 34.903C41.5552 36.0896 42.5963 37.287 43.1097 37.5722C43.2168 37.6315 43.254 37.6234 43.2545 37.6232C43.2958 37.5567 43.1825 37.0818 42.5282 36.0683C41.7623 34.8817 40.7214 33.6843 40.2079 33.399C40.1664 33.3715 40.1189 33.354 40.0694 33.3481Z" fill="#111111"/>
<path d="M25.8399 43.8205C25.8339 43.7935 25.8347 43.7655 25.8423 43.7389C25.8499 43.7124 25.864 43.6881 25.8833 43.6682L40.0076 33.2676C39.6518 33.9091 42.6906 37.9163 43.3102 37.7051L29.1859 48.1057C29.1399 48.1397 29.0575 48.1266 28.9371 48.0598C27.968 47.4207 26.1363 45.0801 25.8399 43.8205Z" fill="white"/>
<path d="M29.1257 48.223C29.0423 48.2167 28.9616 48.1903 28.8906 48.1463C27.867 47.4716 26.0388 45.0921 25.745 43.843C25.7437 43.8379 25.7429 43.8326 25.7425 43.8273C25.7345 43.7838 25.7379 43.739 25.7525 43.6972C25.7671 43.6554 25.7924 43.6181 25.8259 43.589L39.9503 33.1883C39.9685 33.1749 39.9907 33.1681 40.0134 33.169C40.036 33.1699 40.0576 33.1785 40.0746 33.1933C40.0917 33.2082 40.1031 33.2283 40.1071 33.2505C40.111 33.2727 40.1072 33.2955 40.0963 33.3152C39.9318 33.6113 40.8129 35.1201 41.909 36.4196C42.7688 37.4389 43.1814 37.6453 43.2799 37.6117C43.3023 37.6041 43.3267 37.6047 43.3486 37.6135C43.3706 37.6222 43.3888 37.6384 43.3998 37.6593C43.4107 37.6801 43.4139 37.7042 43.4086 37.7272C43.4033 37.7501 43.39 37.7704 43.371 37.7844L29.2469 48.1854C29.2117 48.2108 29.1691 48.224 29.1257 48.223ZM25.9404 43.8066C26.2316 45.0213 28.0054 47.326 28.9939 47.9778C29.0945 48.0335 29.1318 48.0252 29.1322 48.0249L43.0694 37.7615C42.6974 37.5953 42.1744 37.0415 41.7572 36.5469C41.1238 35.796 39.9727 34.2159 39.8883 33.4801L25.9443 43.7479C25.9403 43.7672 25.9389 43.7869 25.9404 43.8066Z" fill="#111111"/>
<path d="M49.7473 39.2999L52.201 40.4117C49.494 39.1851 47.1033 37.1744 45.3449 34.4299C40.1254 26.2814 42.453 14.7419 50.5483 8.65946C55.9192 4.62404 62.4758 4.00292 67.8052 6.418L65.3517 5.30654C60.0218 2.89137 53.4657 3.51258 48.0948 7.54791C39.9995 13.6302 37.6716 25.1696 42.8913 33.3183C44.6496 36.0632 47.0403 38.0735 49.7473 39.3002" fill="white"/>
<path d="M52.1994 40.51C52.1852 40.51 52.1712 40.507 52.1583 40.5011L49.7047 39.3893C46.8674 38.0903 44.4708 35.9993 42.8061 33.3706C37.5663 25.1907 39.9113 13.5715 48.0335 7.46874C50.6393 5.51085 53.6449 4.28016 56.7251 3.90984C59.6796 3.54507 62.6781 3.99711 65.3913 5.21633L67.8449 6.32808C67.8568 6.33345 67.8675 6.34111 67.8764 6.35059C67.8852 6.36008 67.8922 6.37121 67.8967 6.38336C67.9013 6.39551 67.9034 6.40843 67.903 6.42139C67.9025 6.43436 67.8995 6.4471 67.8941 6.4589C67.8887 6.4707 67.881 6.48133 67.8714 6.49017C67.8619 6.49902 67.8507 6.50591 67.8385 6.51045C67.8263 6.51499 67.8133 6.51709 67.8003 6.51664C67.7872 6.51619 67.7744 6.51319 67.7626 6.50781C65.0826 5.30348 62.1209 4.8571 59.2026 5.21771C56.1571 5.58378 53.1847 6.80134 50.6071 8.73802C42.5656 14.78 40.2421 26.2812 45.4273 34.3765C47.0714 36.9729 49.4385 39.0383 52.2408 40.3215C52.2614 40.3309 52.2782 40.347 52.2884 40.3671C52.2985 40.3873 52.3014 40.4103 52.2966 40.4323C52.2918 40.4544 52.2795 40.4741 52.2619 40.4882C52.2442 40.5024 52.2221 40.5101 52.1994 40.51ZM58.7233 3.98732C58.0633 3.98735 57.4039 4.02691 56.7486 4.10576C53.7031 4.47203 50.7311 5.68929 48.1531 7.62627C40.1115 13.6681 37.7879 25.1693 42.9735 33.2646C44.6176 35.8611 46.9847 37.9265 49.787 39.2097L49.9816 39.2979C48.0871 38.0381 46.4786 36.3977 45.2597 34.4825C40.0203 26.3026 42.3649 14.6834 50.487 8.58059C53.093 6.62259 56.0986 5.39201 59.1788 5.02169C61.2935 4.76397 63.4384 4.91947 65.4932 5.47946L65.3089 5.39596C63.2403 4.46324 60.9945 3.98288 58.7233 3.98732Z" fill="#111111"/>
<path d="M49.7473 39.2999L52.201 40.4117C49.494 39.1851 47.1033 37.1744 45.3449 34.4299C40.1254 26.2814 42.453 14.7419 50.5483 8.65946C55.9192 4.62404 62.4758 4.00292 67.8052 6.418L65.3517 5.30654C60.0218 2.89137 53.4657 3.51258 48.0948 7.54791C39.9995 13.6302 37.6716 25.1696 42.8913 33.3183C44.6496 36.0632 47.0403 38.0735 49.7473 39.3002" fill="white"/>
<path d="M52.1994 40.51C52.1852 40.51 52.1712 40.507 52.1583 40.5011L49.7047 39.3893C46.8674 38.0903 44.4708 35.9993 42.8061 33.3706C37.5663 25.1907 39.9113 13.5715 48.0335 7.46874C50.6393 5.51085 53.6449 4.28016 56.7251 3.90984C59.6796 3.54507 62.6781 3.99711 65.3913 5.21633L67.8449 6.32808C67.8568 6.33345 67.8675 6.34111 67.8764 6.35059C67.8852 6.36008 67.8922 6.37121 67.8967 6.38336C67.9013 6.39551 67.9034 6.40843 67.903 6.42139C67.9025 6.43436 67.8995 6.4471 67.8941 6.4589C67.8887 6.4707 67.881 6.48133 67.8714 6.49017C67.8619 6.49902 67.8507 6.50591 67.8385 6.51045C67.8263 6.51499 67.8133 6.51709 67.8003 6.51664C67.7872 6.51619 67.7744 6.51319 67.7626 6.50781C65.0826 5.30348 62.1209 4.8571 59.2026 5.21771C56.1571 5.58378 53.1847 6.80134 50.6071 8.73802C42.5656 14.78 40.2421 26.2812 45.4273 34.3765C47.0714 36.9729 49.4385 39.0383 52.2408 40.3215C52.2614 40.3309 52.2782 40.347 52.2884 40.3671C52.2985 40.3873 52.3014 40.4103 52.2966 40.4323C52.2918 40.4544 52.2795 40.4741 52.2619 40.4882C52.2442 40.5024 52.2221 40.5101 52.1994 40.51ZM58.7233 3.98732C58.0633 3.98735 57.4039 4.02691 56.7486 4.10576C53.7031 4.47203 50.7311 5.68929 48.1531 7.62627C40.1115 13.6681 37.7879 25.1693 42.9735 33.2646C44.6176 35.8611 46.9847 37.9265 49.787 39.2097L49.9816 39.2979C48.0871 38.0381 46.4786 36.3977 45.2597 34.4825C40.0203 26.3026 42.3649 14.6834 50.487 8.58059C53.093 6.62259 56.0986 5.39201 59.1788 5.02169C61.2935 4.76397 63.4384 4.91947 65.4932 5.47946L65.3089 5.39596C63.2403 4.46324 60.9945 3.98288 58.7233 3.98732Z" fill="#111111"/>
<path d="M48.0948 7.54788C39.9995 13.6301 37.6716 25.1697 42.8913 33.3183C48.111 41.4669 58.9036 43.1415 66.9988 37.059C75.0985 30.9732 77.4296 19.4384 72.2099 11.2901C66.9902 3.14175 56.1946 1.46208 48.0948 7.54788Z" fill="white"/>
<path d="M56.4025 40.8205C55.4211 40.8204 54.4417 40.7332 53.4759 40.5599C49.0577 39.768 45.2684 37.215 42.8061 33.371C37.5663 25.1911 39.9113 13.5719 48.0335 7.46905C52.0929 4.41924 56.9175 3.20306 61.6181 4.04586C66.0381 4.83802 69.8288 7.39176 72.2918 11.2369C77.53 19.4142 75.1816 31.0332 67.0568 37.1377C63.8394 39.5556 60.14 40.8205 56.4025 40.8205ZM48.1535 7.62657C40.112 13.6685 37.7884 25.1696 42.9739 33.265C45.4061 37.0619 49.1484 39.5837 53.5115 40.3656C58.156 41.198 62.9243 39.9958 66.938 36.9803C74.982 30.9364 77.309 19.4357 72.1251 11.3431C69.6922 7.54495 65.9484 5.02249 61.5836 4.2401C56.9378 3.40727 52.1684 4.61052 48.1535 7.62657Z" fill="#111111"/>
<path d="M48.1406 42.7951L50.5943 43.9068C57.0202 46.8185 64.925 46.0692 71.3968 41.2067C81.1605 33.871 83.9716 19.959 77.6792 10.1361C75.5586 6.82557 72.6751 4.40092 69.4103 2.92122L66.9566 1.80957C70.2213 3.28898 73.1049 5.71352 75.2256 9.02449C81.518 18.8475 78.7068 32.7594 68.9432 40.0951C62.4713 44.9575 54.5667 45.7068 48.1406 42.7951Z" fill="url(#paint0_linear_3375_128260)"/>
<path d="M58.5826 45.7143C55.8129 45.7198 53.0742 45.1341 50.5515 43.9969L48.098 42.885C48.086 42.8798 48.0752 42.8722 48.0662 42.8627C48.0572 42.8532 48.0502 42.8421 48.0455 42.8299C48.0409 42.8177 48.0387 42.8047 48.0391 42.7917C48.0395 42.7786 48.0426 42.7658 48.048 42.7539C48.0534 42.7421 48.0612 42.7314 48.0708 42.7225C48.0804 42.7136 48.0917 42.7067 48.104 42.7022C48.1163 42.6977 48.1293 42.6957 48.1424 42.6962C48.1555 42.6968 48.1684 42.6999 48.1803 42.7054C51.4147 44.1586 54.9891 44.6974 58.5112 44.2625C62.1862 43.8209 65.7723 42.3527 68.8818 40.0163C78.589 32.7225 81.3966 18.8438 75.1404 9.07736C73.1032 5.89707 70.2583 3.41497 66.9142 1.89954C66.8902 1.88869 66.8716 1.86882 66.8624 1.84429C66.8531 1.81977 66.8541 1.7926 66.865 1.76877C66.8759 1.74493 66.8959 1.72639 66.9205 1.7172C66.9452 1.70802 66.9725 1.70896 66.9965 1.71981L69.4501 2.83166C72.8296 4.36298 75.7037 6.87054 77.7616 10.0831C80.8189 14.8558 81.8464 20.73 80.6551 26.6236C79.4637 32.5173 76.1964 37.7228 71.455 41.2851C68.3175 43.6425 64.6983 45.1245 60.9886 45.5698C60.1902 45.6659 59.3868 45.7141 58.5826 45.7143ZM50.6716 43.8335C53.8965 45.2737 57.4568 45.8063 60.9649 45.3733C64.6399 44.9316 68.2259 43.4633 71.3355 41.127C81.0427 33.8337 83.8503 19.9545 77.594 10.1881C75.5623 7.01641 72.7273 4.53906 69.3945 3.02254C71.7741 4.55735 73.7914 6.5864 75.3079 8.97027C78.3651 13.743 79.3927 19.6172 78.2012 25.5109C77.0098 31.4046 73.7427 36.6105 69.0014 40.1729C65.864 42.5307 62.2447 44.0123 58.5352 44.458C55.8985 44.7795 53.2237 44.567 50.6716 43.8335Z" fill="#111111"/>
<path d="M75.2252 9.02364C81.5176 18.8466 78.7064 32.7586 68.9428 40.0942C59.1839 47.4263 46.1671 45.4064 39.8748 35.5836C33.5794 25.7558 36.3905 11.8439 46.1494 4.5115C55.9131 -2.82403 68.9299 -0.804053 75.2252 9.02364ZM66.9981 37.0586C75.0978 30.9728 77.4289 19.438 72.2092 11.2896C66.9896 3.14116 56.1939 1.46169 48.0941 7.54749C39.9988 13.6297 37.671 25.1692 42.8907 33.3179C48.1104 41.4666 58.9029 43.1412 66.9981 37.0586Z" fill="#D2B9EE"/>
<path d="M56.1307 44.605C54.9606 44.605 53.7929 44.5011 52.6414 44.2944C47.319 43.3404 42.7547 40.2657 39.7894 35.6367C36.7311 30.8622 35.7023 24.9871 36.8929 19.0924C38.0835 13.2001 41.3481 7.99388 46.088 4.43261C48.4765 2.61702 51.2139 1.30795 54.1311 0.586299C56.8542 -0.0883962 59.6899 -0.182944 62.4523 0.308855C67.7754 1.26298 72.3406 4.33895 75.3074 8.97022C78.3646 13.7429 79.3922 19.6171 78.2008 25.5108C77.0093 31.4046 73.7423 36.6105 69.0009 40.1728C66.6134 41.9876 63.877 43.296 60.9608 44.0171C59.3804 44.4053 57.7587 44.6028 56.1307 44.605ZM58.9633 0.19614C57.3507 0.198265 55.7442 0.393752 54.1786 0.778368C51.2875 1.49365 48.5746 2.7911 46.2076 4.59053C36.5029 11.8819 33.699 25.7615 39.9569 35.5306C42.892 40.1126 47.4091 43.156 52.6766 44.1002C55.4111 44.587 58.218 44.4935 60.9136 43.8258C63.8036 43.1112 66.5156 41.8146 68.8818 40.016C78.5889 32.7221 81.3966 18.8435 75.1403 9.07701C72.2034 4.49242 67.685 1.44775 62.417 0.50349C61.2773 0.298994 60.1215 0.196136 58.9633 0.19614ZM56.4013 40.8202C55.4199 40.8202 54.4405 40.733 53.4747 40.5596C49.0565 39.7678 45.2672 37.2147 42.8049 33.3708C37.5651 25.1908 39.9101 13.5717 48.0324 7.4688C52.0918 4.41899 56.9163 3.20302 61.6169 4.04561C66.0369 4.83777 69.8275 7.39152 72.2906 11.2367C77.5288 19.414 75.1804 31.033 67.0556 37.1374C63.8382 39.5554 60.1388 40.8202 56.4013 40.8202ZM58.6905 3.98245C54.995 3.98245 51.3362 5.23376 48.1523 7.62633C40.1107 13.6682 37.7872 25.1693 42.9727 33.2647C45.4049 37.0615 49.1473 39.5834 53.5103 40.3654C58.1548 41.1977 62.9231 39.9956 66.9368 36.98C74.9808 30.9362 77.3078 19.4354 72.1239 11.3429C69.691 7.5447 65.9472 5.02224 61.5824 4.23985C60.6282 4.06866 59.6605 3.98252 58.6909 3.98245H58.6905Z" fill="#111111"/>
</g>
<g clip-path="url(#clip2_3375_128260)">
<path d="M44.2248 56.3832C44.2159 56.3381 44.2169 56.2918 44.2276 56.2471C44.2383 56.2024 44.2586 56.1601 44.2873 56.1227L45.5228 54.5664C45.4941 54.6039 45.4738 54.6462 45.4631 54.6911C45.4523 54.7359 45.4514 54.7822 45.4603 54.8274L45.7852 56.6485L44.5503 58.206L44.2248 56.3832Z" fill="#D2B9EE"/>
<path d="M44.5498 58.2604C44.5358 58.2605 44.5222 58.256 44.5115 58.2477C44.5008 58.2393 44.4936 58.2277 44.4914 58.2149L44.167 56.3937C44.1568 56.3415 44.158 56.2879 44.1704 56.2362C44.1829 56.1844 44.2064 56.1354 44.2395 56.0921L45.475 54.5347C45.4796 54.529 45.4853 54.5241 45.4919 54.5205C45.4985 54.5168 45.5058 54.5144 45.5134 54.5133C45.521 54.5122 45.5287 54.5126 45.5362 54.5143C45.5436 54.516 45.5507 54.5191 45.5568 54.5233C45.563 54.5276 45.5682 54.5329 45.5722 54.539C45.5762 54.5451 45.5788 54.5518 45.5799 54.5589C45.5811 54.5659 45.5807 54.5731 45.5788 54.58C45.577 54.5869 45.5737 54.5934 45.5691 54.5991C45.5452 54.6308 45.5283 54.6665 45.5195 54.7043C45.5107 54.742 45.5101 54.781 45.5177 54.819L45.8426 56.6401C45.8439 56.6472 45.8436 56.6544 45.8418 56.6614C45.8399 56.6684 45.8367 56.675 45.8321 56.6807L44.5966 58.2382C44.5912 58.245 44.5842 58.2505 44.5761 58.2544C44.5679 58.2583 44.559 58.2603 44.5498 58.2604ZM44.2822 56.3764L44.5849 58.0708L45.7234 56.6353L45.4025 54.8363C45.4008 54.8288 45.3996 54.8212 45.399 54.8136L44.3342 56.1566C44.3101 56.1881 44.293 56.2238 44.2841 56.2616C44.2752 56.2994 44.2745 56.3384 44.2822 56.3764Z" fill="#111111"/>
<path d="M57.341 67.6074L59.4222 68.0639C59.5137 68.0854 59.6102 68.0803 59.6986 68.0493C59.7606 68.0276 59.8147 67.99 59.8546 67.941L58.6197 69.4984C58.5796 69.5475 58.5253 69.5851 58.4631 69.6067C58.3747 69.6375 58.2783 69.6428 58.1867 69.6219L56.1055 69.1637L57.341 67.6074Z" fill="#D2B9EE"/>
<path d="M58.3028 69.6888C58.2593 69.6886 58.216 69.6839 58.1736 69.6747L56.0919 69.2182C56.0825 69.2162 56.0738 69.2121 56.0666 69.2063C56.0593 69.2004 56.0538 69.193 56.0504 69.1847C56.0471 69.1762 56.0461 69.1671 56.0475 69.1583C56.0489 69.1494 56.0527 69.141 56.0585 69.1338L57.2935 67.5764C57.3001 67.5682 57.3091 67.5619 57.3195 67.5582C57.3298 67.5546 57.3411 67.5537 57.3519 67.5558L59.4331 68.0123C59.513 68.031 59.5973 68.0267 59.6745 67.9998C59.7266 67.9811 59.7719 67.9492 59.8054 67.9078C59.8099 67.902 59.8157 67.8972 59.8223 67.8935C59.8288 67.8898 59.8361 67.8874 59.8437 67.8864C59.8513 67.8853 59.8591 67.8856 59.8666 67.8874C59.874 67.8891 59.881 67.8922 59.8872 67.8964C59.8995 67.9049 59.9077 67.9176 59.91 67.9317C59.9123 67.9458 59.9085 67.9601 59.8995 67.9717L58.664 69.5291C58.6174 69.5866 58.5545 69.6311 58.4822 69.6574C58.425 69.6781 58.3642 69.6887 58.3028 69.6888ZM56.2047 69.1316L58.1999 69.5691C58.2799 69.5879 58.3641 69.5835 58.4413 69.5567C58.4934 69.538 58.5388 69.5061 58.5722 69.4646L59.6371 68.1222C59.5614 68.1357 59.4835 68.134 59.4085 68.1173L57.363 67.6684L56.2047 69.1316Z" fill="#111111"/>
<path d="M46.923 61.1132L45.6875 62.6706C46.0003 62.2803 46.4258 61.98 46.9148 61.8041C47.2958 61.6669 47.7001 61.5936 48.1088 61.5875C49.816 61.5529 51.5769 62.6229 52.263 64.1137C52.7627 65.1967 52.6248 66.2468 52.0292 66.9946L53.2647 65.4366C53.858 64.6888 53.9959 63.6383 53.4985 62.5558C52.8118 61.065 51.0515 59.9955 49.3443 60.0301C48.9356 60.0358 48.5312 60.1091 48.1503 60.2467C47.6613 60.4226 47.2358 60.7229 46.923 61.1132Z" fill="#D2B9EE"/>
<path d="M52.03 67.0483C52.0175 67.0482 52.0055 67.0444 51.9955 67.0375C51.9893 67.0332 51.9841 67.0279 51.9801 67.0218C51.9762 67.0157 51.9735 67.009 51.9724 67.0019C51.9713 66.9949 51.9716 66.9877 51.9735 66.9808C51.9753 66.9739 51.9787 66.9674 51.9832 66.9617C52.5969 66.1867 52.6781 65.1568 52.2071 64.1355C51.5367 62.6799 49.8565 61.6445 48.1891 61.6445H48.1078C47.7066 61.6488 47.3093 61.7194 46.9349 61.853C46.4554 62.0261 46.0382 62.3207 45.7309 62.7032C45.7218 62.7148 45.708 62.7226 45.6927 62.7248C45.6773 62.727 45.6616 62.7235 45.6491 62.7151C45.6365 62.7066 45.6281 62.6938 45.6257 62.6796C45.6233 62.6654 45.6271 62.6509 45.6362 62.6393L46.8717 61.0818C47.192 60.683 47.6271 60.3757 48.1271 60.1954C48.5146 60.0556 48.9258 59.9812 49.3416 59.9755C51.0803 59.9387 52.8517 61.0163 53.5495 62.5342C54.0381 63.5923 53.951 64.6618 53.3117 65.4687L52.0762 67.0261C52.0708 67.0329 52.0639 67.0384 52.0559 67.0422C52.0479 67.0461 52.039 67.0482 52.03 67.0483ZM48.1902 61.5324C49.9026 61.5324 51.6273 62.5981 52.3152 64.0916C52.6793 64.8801 52.7243 65.675 52.4584 66.3627L53.2181 65.4043C53.8324 64.6293 53.9148 63.5988 53.4426 62.577C52.7617 61.0976 51.0388 60.0497 49.3439 60.086C48.942 60.0913 48.5444 60.1632 48.1698 60.2983C47.6908 60.4715 47.2741 60.7659 46.967 61.1479L46.2014 62.114C46.4129 61.966 46.6451 61.8453 46.8916 61.755C47.2789 61.6155 47.69 61.5411 48.1055 61.5351L48.1902 61.5324Z" fill="#111111"/>
<path d="M54.4035 69.8998L53.168 71.4577C54.2205 71.0707 55.1355 70.419 55.8096 69.576L57.0451 68.0186C56.3711 68.8615 55.4561 69.5131 54.4035 69.8998Z" fill="#D2B9EE"/>
<path d="M53.1678 71.5126C53.157 71.5126 53.1463 71.5098 53.1371 71.5045C53.1279 71.4992 53.1204 71.4916 53.1155 71.4826C53.1107 71.4736 53.1086 71.4636 53.1096 71.4536C53.1106 71.4435 53.1146 71.434 53.1211 71.4259L54.356 69.868C54.3624 69.86 54.3711 69.8538 54.3811 69.8501C55.4222 69.4658 56.3277 68.8211 56.9965 67.9878C57.001 67.9821 57.0068 67.9773 57.0134 67.9736C57.0199 67.9699 57.0272 67.9675 57.0348 67.9664C57.0424 67.9654 57.0502 67.9657 57.0576 67.9674C57.0651 67.9692 57.0721 67.9722 57.0783 67.9765C57.0845 67.9807 57.0897 67.986 57.0937 67.9921C57.0976 67.9982 57.1003 68.005 57.1014 68.012C57.1025 68.019 57.1022 68.0262 57.1003 68.0331C57.0985 68.04 57.0951 68.0465 57.0906 68.0523L55.8557 69.6097C55.1739 70.4597 54.2506 71.1174 53.1889 71.5093C53.1821 71.5116 53.175 71.5127 53.1678 71.5126ZM54.4401 69.9449L53.3414 71.3301C54.3025 70.9397 55.1371 70.3237 55.7627 69.5431L56.3051 68.8586C55.7575 69.3198 55.1261 69.6876 54.4401 69.9449Z" fill="#111111"/>
<path d="M39.0402 60.2826C39.0517 60.2421 39.0716 60.204 39.0986 60.1705L40.3324 58.6104C40.3054 58.6437 40.2855 58.6816 40.274 58.7219L39.7293 60.7504L38.4961 62.3078L39.0402 60.2826Z" fill="#D2B9EE"/>
<path d="M38.496 62.3626C38.4873 62.3626 38.4788 62.3609 38.4709 62.3577C38.4586 62.3523 38.4488 62.3432 38.443 62.3318C38.4373 62.3205 38.436 62.3076 38.4393 62.2954L38.9834 60.2669C38.9964 60.2199 39.019 60.1756 39.05 60.1364L40.285 58.579C40.2895 58.5732 40.2952 58.5683 40.3017 58.5646C40.3083 58.5609 40.3156 58.5584 40.3232 58.5573C40.3308 58.5562 40.3386 58.5565 40.346 58.5582C40.3535 58.5598 40.3606 58.5629 40.3668 58.5671C40.373 58.5713 40.3782 58.5766 40.3822 58.5827C40.3861 58.5888 40.3888 58.5956 40.3899 58.6026C40.391 58.6097 40.3907 58.6169 40.3888 58.6238C40.3869 58.6307 40.3836 58.6372 40.3791 58.6429C40.3572 58.6709 40.3413 58.7025 40.3323 58.736L39.7876 60.764C39.7861 60.7709 39.7829 60.7774 39.7783 60.783L38.5433 62.3409C38.5378 62.3477 38.5307 62.3532 38.5225 62.357C38.5142 62.3608 38.5052 62.3627 38.496 62.3626ZM39.0968 60.2935L38.624 62.0556L39.676 60.7277L40.1628 58.9142L39.1441 60.2009C39.1218 60.2285 39.1057 60.26 39.0968 60.2935Z" fill="#111111"/>
<path d="M40.0207 61.2598L38.7852 62.8172L40.7308 63.773L41.9663 62.2155L40.0207 61.2598Z" fill="#D2B9EE"/>
<path d="M40.7308 63.8263C40.7212 63.8263 40.7118 63.824 40.7034 63.8198L38.7578 62.864C38.7503 62.8604 38.7438 62.8554 38.7387 62.8492C38.7335 62.843 38.7299 62.8359 38.728 62.8283C38.7261 62.8208 38.7261 62.8129 38.7278 62.8054C38.7295 62.7978 38.733 62.7907 38.7379 62.7844L39.9734 61.227C39.9817 61.2166 39.9938 61.2093 40.0074 61.2064C40.021 61.2036 40.0353 61.2053 40.0476 61.2113L41.9921 62.1666C41.9994 62.1702 42.0058 62.1753 42.0108 62.1815C42.0159 62.1877 42.0194 62.1948 42.0213 62.2023C42.0232 62.2099 42.0233 62.2178 42.0216 62.2255C42.0199 62.2332 42.0164 62.2404 42.0113 62.2467L40.7782 63.8025C40.7729 63.8097 40.7659 63.8156 40.7576 63.8198C40.7494 63.8239 40.7402 63.8262 40.7308 63.8263ZM38.8723 62.7974L40.7133 63.7018L41.8822 62.2326L40.0406 61.3283L38.8723 62.7974Z" fill="#111111"/>
<path d="M39.7303 60.7506L38.4954 62.3081C38.4457 62.4943 38.5679 62.7115 38.7841 62.8165L40.019 61.2575C39.8034 61.1525 39.6812 60.9326 39.7303 60.749" fill="#D2B9EE"/>
<path d="M38.7845 62.8706C38.775 62.8705 38.7656 62.8684 38.757 62.8646C38.5162 62.7477 38.3824 62.5083 38.4385 62.295C38.4407 62.2882 38.4441 62.2818 38.4484 62.276L39.6839 60.7186C39.692 60.7088 39.7035 60.7018 39.7165 60.6988C39.7295 60.6959 39.7431 60.6971 39.7552 60.7024C39.7673 60.7076 39.7771 60.7166 39.783 60.7277C39.7888 60.7388 39.7904 60.7515 39.7874 60.7635C39.7447 60.926 39.8558 61.1182 40.0469 61.2108C40.0543 61.2145 40.0609 61.2195 40.066 61.2257C40.0712 61.2319 40.0748 61.2391 40.0767 61.2467C40.0786 61.2543 40.0787 61.2622 40.077 61.2698C40.0752 61.2775 40.0717 61.2847 40.0667 61.291L38.8312 62.8484C38.8259 62.8552 38.8188 62.8608 38.8107 62.8646C38.8026 62.8685 38.7936 62.8705 38.7845 62.8706ZM38.5507 62.3291C38.5174 62.4764 38.6091 62.6464 38.7693 62.7428L39.9341 61.2753C39.8668 61.2352 39.8088 61.183 39.7634 61.122C39.7181 61.0609 39.6863 60.9921 39.6699 60.9195L38.5507 62.3291Z" fill="#111111"/>
<path d="M41.966 62.2148L40.7305 63.7723C40.7582 64.427 40.8837 65.075 41.1033 65.6979C41.3321 66.3506 41.6474 66.9745 42.0419 67.5553L43.2775 65.9979C42.8827 65.4163 42.5674 64.7914 42.3388 64.1378C42.1195 63.5158 41.994 62.8687 41.966 62.2148Z" fill="#D2B9EE"/>
<path d="M42.0395 67.6091C42.03 67.6087 42.0207 67.6063 42.0124 67.6018C42.0042 67.5974 41.9972 67.5911 41.9922 67.5836C41.5951 66.9982 41.2778 66.3694 41.0477 65.7116C40.8271 65.0848 40.7006 64.4328 40.6719 63.774C40.6714 63.7618 40.6753 63.7498 40.683 63.7399L41.9185 62.1825C41.9257 62.1734 41.9357 62.1666 41.9472 62.163C41.9587 62.1594 41.9712 62.1592 41.9828 62.1625C41.9945 62.1658 42.0047 62.1723 42.0122 62.1812C42.0196 62.1902 42.0239 62.201 42.0243 62.2123C42.0525 62.8613 42.177 63.5036 42.3943 64.1212C42.6225 64.7704 42.9366 65.391 43.3294 65.9688C43.3359 65.9778 43.3394 65.9883 43.3394 65.9992C43.3394 66.01 43.3359 66.0205 43.3294 66.0295L42.0863 67.5869C42.0809 67.5937 42.0739 67.5993 42.0657 67.6031C42.0576 67.607 42.0486 67.609 42.0395 67.6091ZM40.7871 63.7887C40.8171 64.4312 40.9414 65.067 41.1564 65.6786C41.3746 66.3023 41.6725 66.8997 42.0436 67.458L43.2043 65.9959C42.8169 65.4192 42.5068 64.801 42.2809 64.1547C42.0773 63.5759 41.9538 62.9754 41.9133 62.3677L40.7871 63.7887Z" fill="#111111"/>
<path d="M52.0011 72.3831L54.4032 72.1151C54.44 72.1115 54.4762 72.1033 54.5107 72.0907C54.572 72.0689 54.6253 72.0313 54.6644 71.9824L53.4295 73.5398C53.39 73.5886 53.3366 73.6262 53.2752 73.6481C53.2409 73.6606 53.2049 73.6688 53.1683 73.6725L50.7656 73.9433L52.0011 72.3831Z" fill="#D2B9EE"/>
<path d="M50.7653 73.9953C50.7551 73.9953 50.7452 73.9928 50.7364 73.9882C50.7275 73.9835 50.7202 73.9768 50.715 73.9687C50.7092 73.9596 50.7065 73.949 50.7071 73.9385C50.7077 73.9279 50.7117 73.9177 50.7185 73.9092L51.954 72.3517C51.9587 72.3458 51.9647 72.3409 51.9715 72.3371C51.9783 72.3334 51.9859 72.331 51.9938 72.3301L54.3958 72.0593C54.4276 72.0559 54.4588 72.0488 54.4887 72.0382C54.5398 72.0196 54.5842 71.9883 54.6173 71.9478C54.6216 71.9415 54.6273 71.9362 54.6339 71.9321C54.6405 71.9279 54.648 71.9251 54.6558 71.9238C54.6637 71.9224 54.6717 71.9226 54.6795 71.9242C54.6873 71.9259 54.6946 71.929 54.7011 71.9333C54.7075 71.9377 54.7129 71.9432 54.7169 71.9496C54.721 71.956 54.7236 71.9631 54.7245 71.9704C54.7255 71.9778 54.7248 71.9852 54.7226 71.9923C54.7203 71.9994 54.7165 72.006 54.7114 72.0117L53.4759 73.5718C53.4302 73.629 53.368 73.6731 53.2965 73.699C53.2571 73.7135 53.2158 73.723 53.1737 73.7272L50.7723 73.9947L50.7653 73.9953ZM52.0329 72.4346L50.8927 73.875L53.1609 73.6221C53.1926 73.6192 53.2237 73.612 53.2532 73.601C53.3044 73.5827 53.349 73.5513 53.3818 73.5106L54.4478 72.1671C54.435 72.1671 54.4227 72.1709 54.4098 72.172L52.0329 72.4346Z" fill="#111111"/>
<path d="M50.5279 70.3311L49.293 71.8885L50.2076 73.6435L51.4431 72.0861L50.5279 70.3311Z" fill="#D2B9EE"/>
<path d="M50.2088 73.697H50.203C50.193 73.6962 50.1833 73.6929 50.175 73.6876C50.1667 73.6823 50.1601 73.6751 50.1557 73.6667L49.2398 71.9116C49.2355 71.903 49.2337 71.8934 49.2346 71.8839C49.2355 71.8744 49.2392 71.8653 49.2451 71.8575L50.4818 70.3001C50.4878 70.2926 50.4957 70.2867 50.5049 70.283C50.5141 70.2792 50.5241 70.2777 50.5341 70.2786C50.5441 70.2794 50.5536 70.2827 50.5619 70.2879C50.5701 70.2932 50.5767 70.3004 50.5811 70.3087L51.4964 72.0638C51.5007 72.0725 51.5025 72.082 51.5016 72.0915C51.5007 72.101 51.4971 72.1102 51.4911 72.1179L50.2556 73.6759C50.2501 73.6825 50.243 73.6879 50.2349 73.6915C50.2268 73.6952 50.2179 73.6971 50.2088 73.697ZM49.3614 71.8938L50.2188 73.5384L51.376 72.0795L50.5186 70.4349L49.3614 71.8938Z" fill="#111111"/>
<path d="M51.4425 72.0879L50.207 73.6453C50.2573 73.7413 50.3377 73.8211 50.4377 73.8741C50.5377 73.9272 50.6527 73.951 50.7675 73.9426L52.003 72.3852C51.8882 72.3934 51.7734 72.3694 51.6734 72.3164C51.5735 72.2634 51.493 72.1838 51.4425 72.0879Z" fill="#D2B9EE"/>
<path d="M50.7107 73.9985C50.594 73.996 50.4803 73.9638 50.3821 73.9054C50.2839 73.8471 50.2049 73.7648 50.1537 73.6677C50.1494 73.659 50.1477 73.6494 50.1487 73.6398C50.1498 73.6303 50.1535 73.6212 50.1595 73.6135L51.395 72.0561C51.401 72.0486 51.409 72.0426 51.4183 72.0388C51.4275 72.0351 51.4376 72.0335 51.4476 72.0344C51.4576 72.0354 51.4671 72.0386 51.4753 72.0439C51.4835 72.0493 51.49 72.0564 51.4944 72.0648C51.5398 72.1503 51.6118 72.2214 51.7009 72.2689C51.7901 72.3164 51.8926 72.3383 51.9952 72.3317C52.0067 72.3302 52.0183 72.3319 52.0287 72.3365C52.0391 72.3412 52.0478 72.3485 52.0537 72.3577C52.06 72.3666 52.0633 72.3769 52.0633 72.3875C52.0633 72.3981 52.06 72.4084 52.0537 72.4173L50.8158 73.9731C50.8111 73.9791 50.8051 73.9841 50.7981 73.9878C50.7912 73.9915 50.7835 73.9939 50.7755 73.9947C50.754 73.9974 50.7323 73.9987 50.7107 73.9985ZM50.2752 73.6487C50.3217 73.7232 50.3889 73.7848 50.4698 73.8271C50.5507 73.8694 50.6423 73.8908 50.7352 73.8891L51.8865 72.4379C51.7964 72.4277 51.7097 72.4 51.6321 72.3564C51.5545 72.3128 51.4878 72.2543 51.4365 72.185L50.2752 73.6487Z" fill="#111111"/>
<path d="M46.2746 68.8389L45.0391 70.3963C46.3248 71.1901 47.7918 71.7197 49.2909 71.8892L50.5258 70.3318C49.0273 70.1623 47.5603 69.6322 46.2746 68.8389Z" fill="#D2B9EE"/>
<path d="M49.2905 71.9433H49.2829C47.806 71.7759 46.3274 71.2566 45.0065 70.4411C45 70.437 44.9943 70.4318 44.99 70.4256C44.9857 70.4195 44.9828 70.4126 44.9814 70.4054C44.98 70.3982 44.9802 70.3909 44.9819 70.3839C44.9836 70.3768 44.9868 70.3701 44.9913 70.3642L46.2269 68.8063C46.2358 68.795 46.249 68.7874 46.2638 68.785C46.2786 68.7826 46.2938 68.7855 46.3063 68.7933C47.612 69.5996 49.0737 70.1129 50.5324 70.2781C50.5425 70.2792 50.5521 70.2828 50.5603 70.2884C50.5685 70.294 50.5749 70.3016 50.579 70.3102C50.5831 70.3188 50.5846 70.3283 50.5835 70.3377C50.5824 70.3471 50.5787 70.356 50.5727 70.3637L49.3372 71.9216C49.3318 71.9283 49.3247 71.9338 49.3166 71.9376C49.3085 71.9413 49.2996 71.9433 49.2905 71.9433ZM45.1223 70.3821C46.4045 71.164 47.8346 71.6644 49.2636 71.8317L50.4196 70.374C48.993 70.1969 47.5676 69.6933 46.2882 68.9119L45.1223 70.3821Z" fill="#111111"/>
<path d="M42.1011 67.3105L40.8656 68.868C40.7487 69.0142 40.7837 69.2313 40.9497 69.3878L42.1852 67.8304C42.0192 67.6739 41.9853 67.4568 42.1011 67.3105Z" fill="#D2B9EE"/>
<path d="M40.9519 69.4413C40.9441 69.4413 40.9365 69.4399 40.9294 69.4371C40.9223 69.4343 40.9158 69.4302 40.9104 69.4251C40.7257 69.2513 40.6877 69.0005 40.8233 68.8381L42.0565 67.278C42.0656 67.2665 42.0792 67.2588 42.0944 67.2565C42.1097 67.2543 42.1252 67.2577 42.1377 67.2661C42.1439 67.2702 42.1492 67.2755 42.1532 67.2816C42.1573 67.2877 42.1599 67.2944 42.1611 67.3015C42.1623 67.3085 42.162 67.3157 42.1602 67.3226C42.1584 67.3296 42.1551 67.3361 42.1506 67.3419C42.0518 67.4664 42.0845 67.6559 42.2295 67.7919C42.2391 67.801 42.245 67.8131 42.2459 67.8259C42.2469 67.8387 42.2429 67.8514 42.2347 67.8617L40.9986 69.4191C40.9937 69.4255 40.9873 69.4307 40.9799 69.4346C40.9726 69.4384 40.9644 69.4407 40.956 69.4413H40.9519ZM41.9799 67.5568L40.9151 68.8993C40.8274 69.0076 40.8438 69.17 40.9484 69.3005L42.112 67.8336C42.0396 67.7553 41.9937 67.6591 41.9799 67.5568Z" fill="#111111"/>
<path d="M44.6066 69.7276L43.3711 71.285L45.0414 70.3953L46.2769 68.8379L44.6066 69.7276Z" fill="#D2B9EE"/>
<path d="M43.3705 71.3396C43.3598 71.3395 43.3492 71.3367 43.3401 71.3314C43.331 71.3262 43.3236 71.3187 43.3187 71.3098C43.3139 71.3009 43.3118 71.2909 43.3127 71.281C43.3136 71.271 43.3174 71.2615 43.3238 71.2535L44.5587 69.6955C44.5637 69.6897 44.5698 69.6847 44.5768 69.6809L46.2471 68.7912C46.2587 68.7851 46.2723 68.7829 46.2854 68.7849C46.2986 68.7869 46.3107 68.7931 46.3195 68.8023C46.3284 68.8116 46.3336 68.8233 46.3343 68.8357C46.3349 68.8481 46.331 68.8603 46.3231 68.8703L45.0893 70.4277C45.0843 70.4337 45.0782 70.4388 45.0712 70.4428L43.3997 71.3325C43.3907 71.337 43.3807 71.3394 43.3705 71.3396ZM44.6458 69.7692L43.5821 71.1132L45.0011 70.3551L46.0648 69.0138L44.6458 69.7692Z" fill="#111111"/>
<path d="M42.1847 67.8301L40.9492 69.3875L42.8083 71.1496L44.0432 69.5922L42.1847 67.8301Z" fill="#D2B9EE"/>
<path d="M42.8078 71.2043C42.8 71.2044 42.7922 71.203 42.785 71.2002C42.7778 71.1974 42.7712 71.1933 42.7657 71.1881L40.9072 69.426C40.8976 69.4168 40.8917 69.4047 40.8908 69.3919C40.8898 69.3792 40.8938 69.3665 40.902 69.3561L42.1375 67.7987C42.1424 67.7924 42.1488 67.7871 42.1562 67.7833C42.1635 67.7794 42.1717 67.7771 42.1801 67.7765C42.1886 67.7759 42.1972 67.7771 42.2052 67.7799C42.2131 67.7827 42.2204 67.7871 42.2263 67.7928L44.0848 69.5549C44.0945 69.564 44.1003 69.5761 44.1013 69.5889C44.1022 69.6017 44.0983 69.6144 44.0901 69.6247L42.8552 71.1821C42.8502 71.1885 42.8438 71.1937 42.8365 71.1976C42.8291 71.2014 42.8209 71.2037 42.8125 71.2043H42.8078ZM41.0253 69.3832L42.802 71.0668L43.9673 69.5971L42.1912 67.9141L41.0253 69.3832Z" fill="#111111"/>
<path d="M44.0441 69.5928L42.8086 71.1502C42.9635 71.298 43.1932 71.35 43.3685 71.2856L44.604 69.7282C44.4287 69.7926 44.1984 69.7406 44.0435 69.5928" fill="#D2B9EE"/>
<path d="M43.2102 71.3662C43.1272 71.3649 43.0453 71.3485 42.9692 71.3178C42.893 71.2872 42.8242 71.2429 42.7666 71.1875C42.7569 71.1783 42.7511 71.1663 42.7501 71.1535C42.7492 71.1407 42.7531 71.128 42.7613 71.1176L43.9968 69.5602C44.0018 69.5539 44.0083 69.5487 44.0157 69.5449C44.0231 69.5411 44.0313 69.5388 44.0398 69.5382C44.0482 69.5377 44.0567 69.5388 44.0646 69.5416C44.0726 69.5443 44.0797 69.5487 44.0857 69.5543C44.2218 69.6842 44.4258 69.7346 44.5824 69.6772C44.5942 69.6729 44.6072 69.6722 44.6195 69.6754C44.6317 69.6785 44.6425 69.6852 44.6502 69.6945C44.6578 69.7039 44.6619 69.7153 44.6619 69.727C44.6619 69.7387 44.6578 69.7501 44.6502 69.7595L43.4159 71.3169C43.4094 71.3252 43.4005 71.3316 43.3902 71.3353C43.3328 71.356 43.2717 71.3664 43.2102 71.3662ZM42.8864 71.1431C42.9458 71.1935 43.0182 71.2289 43.0966 71.2458C43.175 71.2627 43.2568 71.2605 43.3341 71.2395L44.4697 69.8083C44.3181 69.8117 44.1705 69.7635 44.0547 69.6729L42.8864 71.1431Z" fill="#111111"/>
<path d="M43.2759 65.9984C42.8811 65.4167 42.5659 64.7919 42.3373 64.1382C42.118 63.5162 41.9925 62.8691 41.9644 62.2153L40.0183 61.2579C39.8026 61.1528 39.6805 60.933 39.7295 60.7494L40.2742 58.7209C40.2878 58.6708 40.3143 58.6245 40.3513 58.586C40.3884 58.5474 40.4349 58.5177 40.487 58.4994C40.5753 58.469 40.6715 58.4643 40.7628 58.4859L42.8417 58.9434C43.5027 57.9319 44.5067 57.1294 45.7814 56.6496L45.4565 54.8284C45.44 54.7531 45.4526 54.6749 45.492 54.6073C45.5314 54.5397 45.5951 54.4871 45.6721 54.4586C45.7071 54.4463 45.7436 54.4383 45.7808 54.4348L48.1811 54.1678C48.2961 54.1591 48.4113 54.1827 48.5115 54.2355C48.6118 54.2884 48.6926 54.368 48.7433 54.464L49.6586 56.2191C51.1571 56.3886 52.6269 56.9182 53.9127 57.712L55.5824 56.8223C55.7578 56.7573 55.988 56.8093 56.1429 56.9571L58.0014 58.7193C58.1727 58.8817 58.2036 59.1064 58.0745 59.2526L56.9126 60.5523C57.3061 61.1334 57.6202 61.7575 57.8477 62.4102C58.067 63.0325 58.1926 63.6797 58.2212 64.3337L60.1662 65.2906C60.3807 65.3962 60.504 65.6155 60.4549 65.7991L59.9102 67.8276C59.8967 67.8778 59.8704 67.9242 59.8333 67.9629C59.7963 68.0015 59.7497 68.0313 59.6975 68.0496C59.6091 68.0806 59.5126 68.0857 59.421 68.0642L57.3398 67.6077C56.6561 68.6481 55.6245 69.4531 54.4019 69.9005L54.7268 71.7222C54.7438 71.7975 54.7315 71.8759 54.692 71.9435C54.6525 72.0111 54.5885 72.0636 54.5112 72.0915C54.4767 72.1041 54.4405 72.1123 54.4036 72.1159L52.0016 72.3839C51.8868 72.3921 51.7719 72.3682 51.672 72.3152C51.5721 72.2622 51.4916 72.1825 51.4411 72.0867L50.5259 70.3316C49.0274 70.1621 47.5604 69.6319 46.2747 68.8386L44.6043 69.7283C44.429 69.7928 44.1987 69.7408 44.0439 69.593L42.1854 67.8309C42.0141 67.6684 41.9831 67.4437 42.1129 67.2975L43.2759 65.9984ZM50.8421 66.5198C51.2516 66.5147 51.6569 66.4414 52.0384 66.3032C53.5579 65.7449 54.2493 64.1853 53.4966 62.5554C52.8099 61.0646 51.0495 59.9951 49.3424 60.0297C48.9336 60.0354 48.5293 60.1088 48.1484 60.2463C46.6288 60.8052 45.9363 62.3653 46.6873 63.9942C47.374 65.485 49.1349 66.555 50.8415 66.5198" fill="white"/>
<path d="M51.9455 72.4409C51.8288 72.4383 51.7151 72.4061 51.6169 72.3476C51.5186 72.2892 51.4396 72.2068 51.3885 72.1095L50.4873 70.3815C49.0321 70.2115 47.5762 69.7003 46.2723 68.9016L44.6359 69.7745L44.6283 69.7783C44.429 69.8514 44.1725 69.7907 44.0047 69.6299L42.1462 67.8684C41.9528 67.6859 41.9206 67.4314 42.0696 67.2624L43.2064 65.9931C42.8191 65.4172 42.5088 64.7999 42.2824 64.1546C42.0652 63.5376 41.9392 62.8962 41.9078 62.2479L39.9914 61.3068C39.7506 61.1898 39.6168 60.9504 39.6729 60.7376L40.2176 58.7091C40.2337 58.6508 40.2646 58.597 40.3077 58.552C40.3508 58.5069 40.4049 58.4721 40.4654 58.4503C40.5648 58.4149 40.6735 58.4086 40.7769 58.4324L42.8154 58.8813C43.4989 57.8599 44.5154 57.0664 45.7177 56.6156L45.4004 54.8367C45.3818 54.7493 45.3968 54.6586 45.4428 54.5804C45.4889 54.5022 45.5629 54.4413 45.6523 54.4084C45.6914 54.3939 45.7325 54.3844 45.7744 54.3802L48.1741 54.1127C48.3011 54.1021 48.4285 54.1275 48.5396 54.1856C48.6506 54.2436 48.74 54.3315 48.796 54.4376L49.6972 56.1672C51.1524 56.3367 52.6088 56.8479 53.9121 57.6466L55.5486 56.7737L55.5562 56.7705C55.756 56.6968 56.012 56.758 56.1803 56.9183L58.0388 58.6799C58.2323 58.8624 58.2639 59.1169 58.1148 59.2858L56.9793 60.5568C57.3664 61.1325 57.6766 61.7497 57.9033 62.3947C58.1202 63.0117 58.246 63.6531 58.2773 64.3014L60.1937 65.2425C60.4339 65.3611 60.5677 65.6005 60.5116 65.8117L59.9669 67.8402C59.9508 67.8986 59.92 67.9525 59.8769 67.9977C59.8338 68.0428 59.7797 68.0777 59.7191 68.0996C59.6196 68.1344 59.5109 68.1405 59.4076 68.1169L57.3679 67.6691C56.6856 68.6907 55.6696 69.4842 54.4673 69.9343L54.7847 71.7126C54.8033 71.8001 54.7883 71.8908 54.7423 71.9692C54.6963 72.0475 54.6222 72.1084 54.5328 72.1415C54.4934 72.1558 54.4521 72.1651 54.4101 72.1691L52.0086 72.4372C51.9877 72.4395 51.9666 72.4408 51.9455 72.4409ZM46.2764 68.7841C46.2878 68.784 46.299 68.787 46.3086 68.7927C47.6142 69.5991 49.0759 70.1124 50.5347 70.2776C50.5444 70.2787 50.5537 70.282 50.5616 70.2873C50.5696 70.2926 50.576 70.2997 50.5802 70.3079L51.4955 72.063C51.5409 72.1485 51.6128 72.2196 51.702 72.2671C51.7912 72.3146 51.8937 72.3365 51.9963 72.3299L54.3984 72.0592C54.4302 72.0557 54.4614 72.0486 54.4913 72.0381C54.556 72.015 54.6097 71.9714 54.6428 71.9151C54.676 71.8587 54.6865 71.7933 54.6725 71.7305L54.347 69.9093C54.3448 69.8972 54.3471 69.8848 54.3536 69.874C54.3601 69.8633 54.3703 69.8549 54.3826 69.8503C55.5936 69.4071 56.6153 68.6096 57.2925 67.5792C57.299 67.5694 57.3086 67.5618 57.3201 67.5574C57.3315 67.553 57.3442 67.5521 57.3562 67.5548L59.4374 68.0113C59.5174 68.0301 59.6016 68.0257 59.6788 67.9989C59.7219 67.9833 59.7604 67.9584 59.7909 67.9262C59.8215 67.8939 59.8431 67.8553 59.8541 67.8137L60.4 65.7857C60.4426 65.6232 60.331 65.4321 60.1405 65.3384L58.1949 64.3826C58.1858 64.3781 58.1782 64.3715 58.1727 64.3634C58.1673 64.3554 58.1643 64.3461 58.1639 64.3366C58.1353 63.6877 58.0106 63.0456 57.7934 62.4283C57.5665 61.7796 57.2538 61.1596 56.8624 60.5822C56.8558 60.5726 56.8526 60.5613 56.8534 60.5499C56.8541 60.5385 56.8587 60.5277 56.8665 60.5189L58.0289 59.2192C58.1394 59.0941 58.1101 58.9003 57.9594 58.7578L56.0985 56.9947C55.9635 56.8658 55.7619 56.817 55.6076 56.8712L53.939 57.7582C53.9298 57.7635 53.9192 57.7663 53.9083 57.7663C53.8975 57.7663 53.8869 57.7635 53.8776 57.7582C52.572 56.9508 51.1103 56.438 49.6516 56.2717C49.6419 56.2707 49.6327 56.2674 49.6247 56.2622C49.6167 56.257 49.6103 56.25 49.606 56.2419L48.6908 54.4885C48.6452 54.4027 48.573 54.3315 48.4835 54.284C48.3939 54.2365 48.291 54.215 48.1881 54.2221L45.789 54.4885C45.7574 54.4916 45.7263 54.4985 45.6967 54.5091C45.632 54.533 45.5786 54.5773 45.5457 54.6342C45.5128 54.691 45.5025 54.7568 45.5167 54.8199L45.8416 56.641C45.8438 56.6532 45.8414 56.6656 45.835 56.6763C45.8285 56.6871 45.8183 56.6954 45.806 56.7001C44.5658 57.1658 43.5588 57.9542 42.8931 58.9707C42.8867 58.9805 42.8771 58.9883 42.8657 58.9928C42.8542 58.9973 42.8415 58.9982 42.8294 58.9956L40.75 58.538C40.67 58.5198 40.5859 58.5241 40.5086 58.5504C40.4655 58.566 40.427 58.5909 40.3965 58.6231C40.3659 58.6554 40.3443 58.694 40.3333 58.7356L39.7886 60.7636C39.7459 60.9261 39.857 61.1183 40.0481 61.2109L41.9902 62.1667C41.9992 62.1712 42.0069 62.1778 42.0123 62.1859C42.0178 62.1939 42.0208 62.2032 42.0211 62.2127C42.0494 62.8617 42.1738 63.504 42.3911 64.1216C42.6194 64.7708 42.9335 65.3914 43.3262 65.9692C43.3327 65.9788 43.3357 65.99 43.335 66.0013C43.3343 66.0125 43.3298 66.0233 43.3221 66.0321L42.1591 67.3317C42.0486 67.4563 42.0772 67.6501 42.2286 67.7925L44.0871 69.5546C44.2221 69.6835 44.4244 69.7344 44.5804 69.6787L46.2466 68.7911C46.2552 68.7868 46.2649 68.7846 46.2747 68.7846L46.2764 68.7841ZM50.7614 66.5747C49.049 66.5747 47.3238 65.509 46.6359 64.0149C46.256 63.1913 46.2268 62.3394 46.55 61.616C46.6964 61.2931 46.9116 61.0008 47.1827 60.7568C47.4539 60.5127 47.7753 60.3218 48.1279 60.1956C48.5154 60.0558 48.9267 59.9814 49.3424 59.9757C51.0811 59.9389 52.8525 61.0165 53.5504 62.5344C53.9314 63.3586 53.9595 64.2131 53.6374 64.9344C53.491 65.2572 53.2758 65.5493 53.0046 65.7931C52.7335 66.037 52.412 66.2277 52.0595 66.3537C51.6714 66.494 51.2592 66.5685 50.8427 66.5736L50.7614 66.5747ZM49.4254 60.0829H49.3442C48.9423 60.0883 48.5446 60.1602 48.17 60.2952C47.8318 60.4161 47.5234 60.599 47.2632 60.8329C47.003 61.0669 46.7964 61.347 46.6557 61.6566C46.3436 62.3524 46.374 63.1728 46.7417 63.9716C47.4231 65.4505 49.149 66.4994 50.8409 66.4626C51.2434 66.4578 51.6417 66.3861 52.0168 66.2508C52.3547 66.13 52.6628 65.9473 52.9227 65.7135C53.1826 65.4798 53.3889 65.1999 53.5293 64.8905C53.842 64.1941 53.811 63.3743 53.4428 62.5745C52.7725 61.1216 51.0928 60.0829 49.4254 60.0829Z" fill="#111111"/>
</g>
<defs>
<linearGradient id="paint0_linear_3375_128260" x1="75.5924" y1="8.40687" x2="60.7024" y2="44.4222" gradientUnits="userSpaceOnUse">
<stop offset="0.326" stop-color="#6817C5"/>
<stop offset="0.769" stop-color="#D2B9EE"/>
<stop offset="1" stop-color="#6817C5"/>
</linearGradient>
<clipPath id="clip0_3375_128260">
<rect width="35.3581" height="32.3986" fill="white" transform="translate(74.9492 27.3994)"/>
</clipPath>
<clipPath id="clip1_3375_128260">
<rect width="80.4396" height="66.2964" fill="white" transform="translate(0.695312)"/>
</clipPath>
<clipPath id="clip2_3375_128260">
<rect width="22.0988" height="19.8889" fill="white" transform="translate(38.4258 54.1094)"/>
</clipPath>
</defs>
</svg>
