<svg width="24" height="24" viewBox="0 0 24 24" fill="none" xmlns="http://www.w3.org/2000/svg">
<path d="M12.299 3.05464C14.5786 3.42464 16.1266 5.57237 15.7566 7.85172C15.3867 10.1313 13.239 11.6793 10.9595 11.3093C8.67991 10.9394 7.13192 8.79171 7.50191 6.51221C7.87176 4.23279 10.0195 2.68465 12.299 3.05464Z" fill="#0083E3"/>
<path d="M19.2578 20.4656C19.2572 20.6615 19.1791 20.8493 19.0405 20.9879C18.9019 21.1265 18.7141 21.2046 18.5182 21.2052H4.73956C4.5437 21.2046 4.35585 21.1265 4.21729 20.9879C4.07871 20.8493 4.00057 20.6615 4 20.4656C4 18.4424 4.80384 16.502 6.23444 15.0714C7.66515 13.6406 9.6056 12.8369 11.6287 12.8369C13.6519 12.8369 15.5923 13.6406 17.023 15.0714C18.4536 16.5021 19.2575 18.4425 19.2575 20.4656H19.2578Z" fill="#0083E3"/>
</svg>
