<svg width="160" height="160" viewBox="0 0 160 160" fill="none" xmlns="http://www.w3.org/2000/svg">
<g clip-path="url(#clip0_680_596)">
<path d="M79.9202 159.84C124.059 159.84 159.84 124.059 159.84 79.9202C159.84 35.7813 124.059 0 79.9202 0C35.7813 0 0 35.7813 0 79.9202C0 124.059 35.7813 159.84 79.9202 159.84Z" fill="#6817C5"/>
<path fill-rule="evenodd" clip-rule="evenodd" d="M112.491 77.7337C112.496 77.4622 112.498 77.1904 112.498 76.9186V54.7809C112.498 54.7809 103.031 48.9738 96.8301 46.1215C90.6295 43.2693 80.9887 40.2863 79.9242 39.96V40.0183L79.8268 39.974C79.8268 39.974 68.8501 43.071 62.2483 46.1219C56.0723 48.9759 47.1562 54.8245 47.1562 54.8245V76.9625C47.1562 95.8341 59.2765 113.702 76.3677 119.339C78.6137 120.08 81.0404 120.08 83.286 119.339C100.144 113.779 112.166 96.3186 112.491 77.7337Z" fill="#FBF9FF"/>
<path fill-rule="evenodd" clip-rule="evenodd" d="M47.1577 54.7818L47.1562 54.7825V56.501C57.1803 75.3022 82.0837 100.324 99.8986 108.584C103.586 104.674 106.601 100.052 108.756 95.0135C94.6348 92.98 60.4303 70.8993 48.0463 54.2529C47.4808 54.6158 47.1577 54.8275 47.1577 54.8275V54.7818Z" fill="#D9D9D9"/>
</g>
<defs>
<clipPath id="clip0_680_596">
<rect width="160" height="160" fill="white"/>
</clipPath>
</defs>
</svg>
