<svg width="94" height="56" viewBox="0 0 94 56" fill="none" xmlns="http://www.w3.org/2000/svg">
<g clip-path="url(#clip0_6902_43526)">
<g filter="url(#filter0_d_6902_43526)">
<circle cx="27.848" cy="27.1492" r="25.0633" fill="white"/>
</g>
<path d="M43.1874 23.7314V14.1792C43.1874 14.0455 43.135 13.917 43.0414 13.8216C42.9479 13.7262 42.8207 13.6714 42.6872 13.6691C42.6872 13.6691 31.8032 11.8982 28.1732 11.8337C24.5433 11.7692 13.7529 13.5929 13.7529 13.5929C13.685 13.5913 13.6176 13.6033 13.5545 13.6283C13.4914 13.6532 13.4339 13.6905 13.3854 13.7381C13.3369 13.7856 13.2983 13.8424 13.272 13.905C13.2457 13.9677 13.2322 14.035 13.2322 14.103V23.7314C13.2322 23.7314 12.8929 31.7532 18.3334 38.0686C23.1656 43.6773 27.2021 45.0055 28.0445 45.2342C28.1515 45.2576 28.2622 45.2576 28.3692 45.2342C29.2233 45.0025 33.254 43.6656 38.0744 38.0686C43.515 31.7532 43.1874 23.7314 43.1874 23.7314ZM35.8748 36.3387C32.5959 40.1502 29.7937 41.7833 28.3663 42.4371C28.2589 42.4782 28.1402 42.4782 28.0328 42.4371C26.6171 41.7657 23.812 40.1268 20.5448 36.3241C15.7155 30.7299 15.9086 23.4001 15.9115 23.3239V15.9941C15.9139 15.9426 15.932 15.893 15.9634 15.8521C15.9948 15.8112 16.0379 15.781 16.087 15.7654C20.0243 14.768 24.0683 14.256 28.1293 14.2408H28.337C32.3823 14.2409 36.4115 14.7511 40.3296 15.7595C40.3787 15.7751 40.4219 15.8054 40.4532 15.8462C40.4846 15.8871 40.5027 15.9367 40.5051 15.9882V23.3356C40.5139 23.4001 40.704 30.7299 35.8894 36.3241L35.8748 36.3387Z" fill="#FCDA28"/>
<path d="M28.179 21.1758C27.6663 21.1741 27.1646 21.3248 26.7374 21.6089C26.3102 21.893 25.9766 22.2978 25.779 22.7719C25.5813 23.2461 25.5284 23.7684 25.6269 24.2727C25.7255 24.777 25.971 25.2407 26.3325 25.6051C26.694 25.9695 27.1552 26.2183 27.6578 26.3199C28.1603 26.4215 28.6817 26.3714 29.1558 26.1759C29.63 25.9805 30.0357 25.6485 30.3215 25.2218C30.6074 24.7952 30.7606 24.2932 30.7618 23.7793C30.7625 23.0911 30.4911 22.4307 30.007 21.9427C29.5229 21.4547 28.8655 21.1789 28.179 21.1758Z" fill="#FCDA28"/>
<path d="M37.8317 23.3868V18.1093C37.83 18.0597 37.8122 18.012 37.7811 17.9733C37.75 17.9347 37.7071 17.9073 37.6591 17.8953C34.5937 17.256 31.471 16.9337 28.34 16.9336H28.1498C25.0052 16.9493 21.8699 17.2773 18.7898 17.9129C18.7417 17.9249 18.6989 17.9523 18.6678 17.9909C18.6366 18.0296 18.6189 18.0773 18.6172 18.1269V23.4249C18.6172 23.8148 18.6172 29.966 22.5923 34.5662C24.7948 37.1521 26.7283 38.6005 28.0621 39.3921C28.1075 39.4148 28.1576 39.4267 28.2083 39.4267C28.2591 39.4267 28.3092 39.4148 28.3546 39.3921C29.6796 38.6034 31.6131 37.1551 33.8449 34.5662C37.9223 29.8429 37.8317 23.4601 37.8317 23.3868ZM31.809 32.8246C31.4902 33.1999 31.1772 33.5429 30.873 33.8625C30.8028 33.9358 30.7473 33.9124 30.7473 33.8097V31.5932C30.7473 29.9162 32.3707 29.063 32.9059 28.8284C32.9545 28.8059 32.996 28.7706 33.0259 28.7261C33.0558 28.6817 33.073 28.6298 33.0756 28.5763V26.8933C33.079 26.8721 33.0761 26.8504 33.0675 26.8307C33.0588 26.8111 33.0447 26.7944 33.0267 26.7826C33.0088 26.7708 32.9879 26.7645 32.9664 26.7644C32.945 26.7643 32.924 26.7704 32.9059 26.7819C29.865 27.9842 26.4822 27.9853 23.4406 26.7849C23.4223 26.7745 23.4016 26.7694 23.3807 26.7701C23.3597 26.7708 23.3394 26.7772 23.3218 26.7887C23.3043 26.8002 23.2903 26.8164 23.2813 26.8353C23.2723 26.8543 23.2687 26.8754 23.2709 26.8963V28.5792C23.2748 28.632 23.2929 28.6829 23.3233 28.7262C23.3536 28.7696 23.3952 28.8039 23.4435 28.8255C25.2219 29.5086 25.5846 30.6697 25.5846 31.6167V33.7922C25.5846 33.8948 25.529 33.9182 25.4588 33.8449C25.1605 33.5322 24.8524 33.1921 24.5345 32.8246C21.1883 28.9369 21.2088 23.4894 21.2088 23.4425V20.3346C21.2106 20.284 21.2295 20.2355 21.2625 20.1972C21.2954 20.1588 21.3405 20.1328 21.3901 20.1235C23.6159 19.7743 25.8648 19.595 28.1177 19.587H28.3195C30.5417 19.5873 32.7606 19.7599 34.9564 20.103C35.0063 20.1118 35.0516 20.1376 35.0847 20.1761C35.1177 20.2146 35.1365 20.2633 35.1377 20.3141V23.334C35.1377 23.4366 35.1699 28.9281 31.809 32.8246Z" fill="#FCDA28"/>
</g>
<g clip-path="url(#clip1_6902_43526)">
<g filter="url(#filter1_d_6902_43526)">
<path d="M66.116 52.9117C79.9453 52.9117 91.1562 41.6905 91.1562 27.8484C91.1562 14.0064 79.9453 2.78516 66.116 2.78516C52.2866 2.78516 41.0757 14.0064 41.0757 27.8484C41.0757 41.6905 52.2866 52.9117 66.116 52.9117Z" fill="#6817C5"/>
</g>
<g filter="url(#filter2_ii_6902_43526)">
<path d="M59.3799 25.8889C59.3799 25.5792 59.6307 25.3281 59.9401 25.3281H68.6861C71.0583 25.3281 72.9813 27.2529 72.9813 29.6273H63.1148C61.0521 29.6273 59.3799 27.9535 59.3799 25.8889Z" fill="#CCCCCC"/>
</g>
<path d="M59.0004 29.3398H72.7451C72.8743 29.3398 72.9792 29.4448 72.9792 29.5742C72.9792 33.8769 69.4943 37.3649 65.1955 37.3649H51.4509C51.3216 37.3649 51.2168 37.26 51.2168 37.1306C51.2168 32.8279 54.7017 29.3398 59.0004 29.3398Z" fill="white"/>
<path d="M67.163 18.4492H80.9076C81.0369 18.4492 81.1417 18.5541 81.1417 18.6835C81.1417 22.9862 77.6567 26.4743 73.3579 26.4743H59.6135C59.4842 26.4743 59.3794 26.3694 59.3794 26.24C59.3794 21.9372 62.8642 18.4492 67.163 18.4492Z" fill="white"/>
</g>
<defs>
<filter id="filter0_d_6902_43526" x="-0.000142097" y="-0.00267005" width="55.6961" height="55.6946" filterUnits="userSpaceOnUse" color-interpolation-filters="sRGB">
<feFlood flood-opacity="0" result="BackgroundImageFix"/>
<feColorMatrix in="SourceAlpha" type="matrix" values="0 0 0 0 0 0 0 0 0 0 0 0 0 0 0 0 0 0 127 0" result="hardAlpha"/>
<feOffset dy="0.696203"/>
<feGaussianBlur stdDeviation="1.39241"/>
<feComposite in2="hardAlpha" operator="out"/>
<feColorMatrix type="matrix" values="0 0 0 0 0 0 0 0 0 0 0 0 0 0 0 0 0 0 0.25 0"/>
<feBlend mode="normal" in2="BackgroundImageFix" result="effect1_dropShadow_6902_43526"/>
<feBlend mode="normal" in="SourceGraphic" in2="effect1_dropShadow_6902_43526" result="shape"/>
</filter>
<filter id="filter1_d_6902_43526" x="38.2909" y="0.696549" width="55.6502" height="55.6946" filterUnits="userSpaceOnUse" color-interpolation-filters="sRGB">
<feFlood flood-opacity="0" result="BackgroundImageFix"/>
<feColorMatrix in="SourceAlpha" type="matrix" values="0 0 0 0 0 0 0 0 0 0 0 0 0 0 0 0 0 0 127 0" result="hardAlpha"/>
<feOffset dy="0.696203"/>
<feGaussianBlur stdDeviation="1.39241"/>
<feComposite in2="hardAlpha" operator="out"/>
<feColorMatrix type="matrix" values="0 0 0 0 0 0 0 0 0 0 0 0 0 0 0 0 0 0 0.25 0"/>
<feBlend mode="normal" in2="BackgroundImageFix" result="effect1_dropShadow_6902_43526"/>
<feBlend mode="normal" in="SourceGraphic" in2="effect1_dropShadow_6902_43526" result="shape"/>
</filter>
<filter id="filter2_ii_6902_43526" x="59.3799" y="23.9357" width="13.6016" height="8.478" filterUnits="userSpaceOnUse" color-interpolation-filters="sRGB">
<feFlood flood-opacity="0" result="BackgroundImageFix"/>
<feBlend mode="normal" in="SourceGraphic" in2="BackgroundImageFix" result="shape"/>
<feColorMatrix in="SourceAlpha" type="matrix" values="0 0 0 0 0 0 0 0 0 0 0 0 0 0 0 0 0 0 127 0" result="hardAlpha"/>
<feOffset dy="-1.39241"/>
<feGaussianBlur stdDeviation="1.39241"/>
<feComposite in2="hardAlpha" operator="arithmetic" k2="-1" k3="1"/>
<feColorMatrix type="matrix" values="0 0 0 0 0.113725 0 0 0 0 0.0117647 0 0 0 0 0.235294 0 0 0 0.12 0"/>
<feBlend mode="normal" in2="shape" result="effect1_innerShadow_6902_43526"/>
<feColorMatrix in="SourceAlpha" type="matrix" values="0 0 0 0 0 0 0 0 0 0 0 0 0 0 0 0 0 0 127 0" result="hardAlpha"/>
<feOffset dy="2.78481"/>
<feGaussianBlur stdDeviation="1.39241"/>
<feComposite in2="hardAlpha" operator="arithmetic" k2="-1" k3="1"/>
<feColorMatrix type="matrix" values="0 0 0 0 0.113725 0 0 0 0 0.0117647 0 0 0 0 0.235294 0 0 0 0.12 0"/>
<feBlend mode="normal" in2="effect1_innerShadow_6902_43526" result="effect2_innerShadow_6902_43526"/>
</filter>
<clipPath id="clip0_6902_43526">
<rect width="56.3924" height="54.3038" fill="white"/>
</clipPath>
<clipPath id="clip1_6902_43526">
<rect width="52.9114" height="53.6076" fill="white" transform="translate(40.3799 1.39453)"/>
</clipPath>
</defs>
</svg>
