<svg width="134" height="79" viewBox="0 0 134 79" fill="none" xmlns="http://www.w3.org/2000/svg">
    <g clip-path="url(#clip0_7379_15043)">
        <g filter="url(#filter0_d_7379_15043)">
            <circle cx="40" cy="39" r="36" fill="white"/>
        </g>
        <path d="M62.0325 34.0919V20.3714C62.0325 20.1793 61.9573 19.9948 61.8229 19.8577C61.6885 19.7207 61.5058 19.642 61.3141 19.6387C61.3141 19.6387 45.6807 17.095 40.4667 17.0024C35.2528 16.9098 19.7538 19.5292 19.7538 19.5292C19.6564 19.5269 19.5596 19.5442 19.4689 19.5801C19.3783 19.6159 19.2957 19.6695 19.226 19.7378C19.1563 19.806 19.101 19.8876 19.0632 19.9776C19.0254 20.0676 19.006 20.1643 19.006 20.262V34.0919C19.006 34.0919 18.5186 45.614 26.3332 54.6852C33.2739 62.7414 39.0719 64.6491 40.2819 64.9776C40.4355 65.0113 40.5946 65.0113 40.7482 64.9776C41.975 64.6449 47.7646 62.7246 54.6885 54.6852C62.5031 45.614 62.0325 34.0919 62.0325 34.0919ZM51.529 52.2005C46.8193 57.6752 42.7943 60.0209 40.744 60.96C40.5898 61.019 40.4193 61.019 40.2651 60.96C38.2316 59.9956 34.2025 57.6415 29.5095 52.1795C22.573 44.1443 22.8503 33.616 22.8545 33.5065V22.9782C22.8579 22.9042 22.8839 22.833 22.929 22.7743C22.9741 22.7156 23.0361 22.6721 23.1066 22.6498C28.7619 21.2171 34.5706 20.4817 40.4037 20.4599H40.702C46.5125 20.46 52.2998 21.1929 57.9277 22.6413C57.9982 22.6637 58.0602 22.7071 58.1053 22.7659C58.1504 22.8246 58.1764 22.8958 58.1798 22.9698V33.5234C58.1924 33.616 58.4655 44.1443 51.55 52.1795L51.529 52.2005Z" fill="#FCDA28"/>
        <path d="M40.4753 30.4219C39.7389 30.4194 39.0183 30.6359 38.4046 31.044C37.791 31.4521 37.3119 32.0335 37.028 32.7145C36.7441 33.3956 36.6681 34.1458 36.8096 34.8702C36.9512 35.5946 37.3038 36.2606 37.8231 36.784C38.3423 37.3074 39.0048 37.6647 39.7267 37.8107C40.4485 37.9566 41.1974 37.8847 41.8784 37.6039C42.5595 37.3232 43.1422 36.8463 43.5528 36.2335C43.9634 35.6207 44.1834 34.8997 44.1851 34.1615C44.1862 33.173 43.7964 32.2244 43.101 31.5234C42.4057 30.8225 41.4615 30.4264 40.4753 30.4219Z" fill="#FCDA28"/>
        <path d="M54.3392 33.5972V26.0169C54.3368 25.9456 54.3113 25.8771 54.2666 25.8216C54.2219 25.7661 54.1604 25.7268 54.0913 25.7094C49.6884 24.7912 45.203 24.3283 40.7057 24.3281H40.4326C35.9158 24.3507 31.4123 24.8219 26.9881 25.7347C26.9191 25.752 26.8576 25.7914 26.8129 25.8469C26.7682 25.9023 26.7427 25.9709 26.7402 26.0421V33.652C26.7402 34.2121 26.7402 43.0474 32.4499 49.6549C35.6136 53.3693 38.3907 55.4497 40.3066 56.5867C40.3718 56.6194 40.4437 56.6364 40.5166 56.6364C40.5895 56.6364 40.6614 56.6194 40.7267 56.5867C42.6299 55.4539 45.407 53.3735 48.6127 49.6549C54.4695 42.8705 54.3392 33.7025 54.3392 33.5972ZM45.6885 47.1534C45.2306 47.6925 44.781 48.1852 44.3441 48.6442C44.2433 48.7495 44.1634 48.7158 44.1634 48.5684V45.3847C44.1634 42.9758 46.4952 41.7503 47.2641 41.4134C47.3338 41.3811 47.3935 41.3303 47.4364 41.2665C47.4794 41.2026 47.5041 41.1282 47.5077 41.0512V38.6339C47.5126 38.6035 47.5086 38.5722 47.4961 38.544C47.4837 38.5158 47.4633 38.4918 47.4376 38.4749C47.4118 38.458 47.3818 38.4489 47.351 38.4487C47.3202 38.4485 47.29 38.4573 47.2641 38.4739C42.8962 40.2009 38.0373 40.2024 33.6683 38.4781C33.6422 38.4633 33.6124 38.4559 33.5823 38.4569C33.5522 38.4579 33.523 38.4671 33.4978 38.4837C33.4727 38.5002 33.4525 38.5234 33.4396 38.5506C33.4267 38.5779 33.4215 38.6081 33.4247 38.6382V41.0554C33.4302 41.1314 33.4562 41.2043 33.4999 41.2666C33.5435 41.3289 33.6032 41.3782 33.6725 41.4092C36.227 42.3904 36.748 44.0581 36.748 45.4184V48.5431C36.748 48.6905 36.6681 48.7242 36.5673 48.6189C36.1388 48.1697 35.6962 47.6812 35.2397 47.1534C30.4333 41.5692 30.4627 33.7446 30.4627 33.6772V29.2132C30.4653 29.1406 30.4925 29.0709 30.5398 29.0158C30.5872 28.9607 30.6518 28.9234 30.7232 28.91C33.9201 28.4085 37.1505 28.1508 40.3864 28.1394H40.6763C43.8682 28.1399 47.0554 28.3877 50.2092 28.8805C50.2809 28.8932 50.346 28.9303 50.3935 28.9855C50.441 29.0408 50.4679 29.1108 50.4697 29.1838V33.5214C50.4697 33.6688 50.5159 41.5566 45.6885 47.1534Z" fill="#FCDA28"/>
    </g>
    <g clip-path="url(#clip1_7379_15043)">
        <g filter="url(#filter1_d_7379_15043)">
            <path d="M94.9669 76C114.831 76 130.934 59.8823 130.934 40C130.934 20.1177 114.831 4 94.9669 4C75.1029 4 59 20.1177 59 40C59 59.8823 75.1029 76 94.9669 76Z" fill="#6817C5"/>
        </g>
        <g filter="url(#filter2_ii_7379_15043)">
            <path d="M85.291 37.1844C85.291 36.7395 85.6513 36.3789 86.0957 36.3789H98.6581C102.065 36.3789 104.828 39.1436 104.828 42.554H90.6557C87.6929 42.554 85.291 40.1499 85.291 37.1844Z" fill="#CCCCCC"/>
        </g>
        <path d="M84.7465 42.1445H104.489C104.674 42.1445 104.825 42.2952 104.825 42.4811C104.825 48.6613 99.8195 53.6715 93.6449 53.6715H73.9027C73.717 53.6715 73.5664 53.5207 73.5664 53.3349C73.5664 47.1546 78.5719 42.1445 84.7465 42.1445Z" fill="white"/>
        <path d="M96.4711 26.5H116.213C116.399 26.5 116.55 26.6507 116.55 26.8366C116.55 33.0168 111.544 38.0269 105.369 38.0269H85.6273C85.4415 38.0269 85.291 37.8762 85.291 37.6903C85.291 31.5101 90.2965 26.5 96.4711 26.5Z" fill="white"/>
    </g>
    <defs>
        <filter id="filter0_d_7379_15043" x="0" y="0" width="80" height="80" filterUnits="userSpaceOnUse" color-interpolation-filters="sRGB">
            <feFlood flood-opacity="0" result="BackgroundImageFix"/>
            <feColorMatrix in="SourceAlpha" type="matrix" values="0 0 0 0 0 0 0 0 0 0 0 0 0 0 0 0 0 0 127 0" result="hardAlpha"/>
            <feOffset dy="1"/>
            <feGaussianBlur stdDeviation="2"/>
            <feComposite in2="hardAlpha" operator="out"/>
            <feColorMatrix type="matrix" values="0 0 0 0 0 0 0 0 0 0 0 0 0 0 0 0 0 0 0.25 0"/>
            <feBlend mode="normal" in2="BackgroundImageFix" result="effect1_dropShadow_7379_15043"/>
            <feBlend mode="normal" in="SourceGraphic" in2="effect1_dropShadow_7379_15043" result="shape"/>
        </filter>
        <filter id="filter1_d_7379_15043" x="55" y="1" width="79.9336" height="80" filterUnits="userSpaceOnUse" color-interpolation-filters="sRGB">
            <feFlood flood-opacity="0" result="BackgroundImageFix"/>
            <feColorMatrix in="SourceAlpha" type="matrix" values="0 0 0 0 0 0 0 0 0 0 0 0 0 0 0 0 0 0 127 0" result="hardAlpha"/>
            <feOffset dy="1"/>
            <feGaussianBlur stdDeviation="2"/>
            <feComposite in2="hardAlpha" operator="out"/>
            <feColorMatrix type="matrix" values="0 0 0 0 0 0 0 0 0 0 0 0 0 0 0 0 0 0 0.25 0"/>
            <feBlend mode="normal" in2="BackgroundImageFix" result="effect1_dropShadow_7379_15043"/>
            <feBlend mode="normal" in="SourceGraphic" in2="effect1_dropShadow_7379_15043" result="shape"/>
        </filter>
        <filter id="filter2_ii_7379_15043" x="85.291" y="34.3789" width="19.5361" height="12.1758" filterUnits="userSpaceOnUse" color-interpolation-filters="sRGB">
            <feFlood flood-opacity="0" result="BackgroundImageFix"/>
            <feBlend mode="normal" in="SourceGraphic" in2="BackgroundImageFix" result="shape"/>
            <feColorMatrix in="SourceAlpha" type="matrix" values="0 0 0 0 0 0 0 0 0 0 0 0 0 0 0 0 0 0 127 0" result="hardAlpha"/>
            <feOffset dy="-2"/>
            <feGaussianBlur stdDeviation="2"/>
            <feComposite in2="hardAlpha" operator="arithmetic" k2="-1" k3="1"/>
            <feColorMatrix type="matrix" values="0 0 0 0 0.113725 0 0 0 0 0.0117647 0 0 0 0 0.235294 0 0 0 0.12 0"/>
            <feBlend mode="normal" in2="shape" result="effect1_innerShadow_7379_15043"/>
            <feColorMatrix in="SourceAlpha" type="matrix" values="0 0 0 0 0 0 0 0 0 0 0 0 0 0 0 0 0 0 127 0" result="hardAlpha"/>
            <feOffset dy="4"/>
            <feGaussianBlur stdDeviation="2"/>
            <feComposite in2="hardAlpha" operator="arithmetic" k2="-1" k3="1"/>
            <feColorMatrix type="matrix" values="0 0 0 0 0.113725 0 0 0 0 0.0117647 0 0 0 0 0.235294 0 0 0 0.12 0"/>
            <feBlend mode="normal" in2="effect1_innerShadow_7379_15043" result="effect2_innerShadow_7379_15043"/>
        </filter>
        <clipPath id="clip0_7379_15043">
            <rect width="81" height="78" fill="white"/>
        </clipPath>
        <clipPath id="clip1_7379_15043">
            <rect width="76" height="77" fill="white" transform="translate(58 2)"/>
        </clipPath>
    </defs>
</svg>
