<svg width="67" height="104" viewBox="0 0 67 104" fill="none" xmlns="http://www.w3.org/2000/svg">
<g clip-path="url(#clip0_6_1885)">
<path fill-rule="evenodd" clip-rule="evenodd" d="M24.8683 1.82598C26.1702 0.583882 27.8583 0 29.5356 0C31.2128 0 32.9009 0.583882 34.2029 1.82598C35.505 3.06809 36.3544 4.96888 36.3544 7.30374V10.7614C37.6316 9.62675 39.235 9.05198 40.8394 9.05198C42.5167 9.05198 44.2412 9.67467 45.5432 10.9168C46.8453 12.1589 47.6947 14.0597 47.6947 16.3946V37.2958C48.975 36.1655 50.6103 35.6251 52.2162 35.6251C53.8976 35.6251 55.5772 36.2096 56.8836 37.4512C58.1898 38.6927 59.0713 40.6317 59.0713 42.9678V64.8013C59.0713 66.4019 58.9845 67.9445 58.8174 69.4287C58.2722 69.3657 57.7182 69.3333 57.157 69.3333C56.9297 69.3333 56.7038 69.3386 56.479 69.3492C56.6491 67.9008 56.7377 66.3853 56.7377 64.8013V42.9678C56.7377 41.2511 56.1775 40.1007 55.3519 39.3159C54.5264 38.5312 53.3771 38.1116 52.2162 38.1116C51.0552 38.1116 49.9059 38.5312 49.0801 39.3159C48.2547 40.1007 47.6947 41.2511 47.6947 42.9678V64.102C47.7034 64.7587 47.1443 65.3629 46.5278 65.3629C45.9112 65.3629 45.3493 64.7587 45.361 64.102V16.3946C45.361 14.6768 44.7973 13.5269 43.9753 12.7427C43.1533 11.9586 41.9943 11.5384 40.8394 11.5384C39.6846 11.5384 38.562 11.9586 37.74 12.7427C36.918 13.5269 36.3544 14.6768 36.3544 16.3946V46.9693C36.3631 47.626 35.8041 48.2301 35.1875 48.2301C34.571 48.2301 34.009 47.626 34.0206 46.9693C34.0206 42.5598 34.0205 38.1514 34.0203 33.7438C34.0202 24.93 34.0199 16.1185 34.0206 7.30374C34.0206 5.58597 33.457 4.47497 32.635 3.69078C31.813 2.90657 30.6905 2.48641 29.5356 2.48641C28.3807 2.48641 27.2216 2.90657 26.3998 3.69078C25.5776 4.47497 25.014 5.58597 25.014 7.30374V47.3578C25.0227 48.0145 24.4637 48.6186 23.8473 48.6186C23.2306 48.6186 22.6686 48.0145 22.6804 47.3578V16.4335C22.6804 14.7041 22.1208 13.571 21.2949 12.7816C20.4687 11.9921 19.3549 11.5772 18.1953 11.5772C17.0358 11.5772 15.8856 11.9921 15.0594 12.7816C14.2335 13.571 13.6739 14.7041 13.6739 16.4335V51.437C13.6826 52.0937 13.1236 52.6979 12.507 52.6979C11.8905 52.6979 11.3285 52.0937 11.3402 51.437V29.3704C11.3402 27.6525 10.7766 26.5416 9.95454 25.7573C9.1325 24.9731 7.97348 24.553 6.81867 24.553C5.66372 24.553 4.54122 24.9731 3.71918 25.7573C2.89714 26.5416 2.33368 27.6525 2.33368 29.3704V64.8013C2.33368 74.6351 5.71531 81.8314 10.7933 86.6736C15.8712 91.5159 22.7061 93.9774 29.5356 93.9774C34.2213 93.9774 38.8923 92.8188 43.003 90.5275C43.2737 91.3173 43.6022 92.078 43.9835 92.8037C39.5435 95.2489 34.5367 96.4638 29.5356 96.4638C22.1838 96.4638 14.8198 93.8386 9.26165 88.5384C3.70378 83.2383 0 75.2524 0 64.8013V29.3704C0 27.0355 0.849209 25.1347 2.1513 23.8926C3.45335 22.6504 5.14142 22.0667 6.81867 22.0667C8.43438 22.0667 10.0587 22.625 11.3402 23.7761V16.4335C11.3402 14.0881 12.1858 12.1647 13.4915 10.9168C14.7973 9.66888 16.5125 9.09085 18.1953 9.09085C19.8025 9.09085 21.4003 9.62531 22.6804 10.7614V7.30374C22.6804 4.96888 23.5663 3.06809 24.8683 1.82598Z" fill="white"/>
<mask id="mask0_6_1885" style="mask-type:luminance" maskUnits="userSpaceOnUse" x="39" y="67" width="37" height="37">
<path d="M75.2066 67.826H39.1074V104H75.2066V67.826Z" fill="white"/>
</mask>
<g mask="url(#mask0_6_1885)">
<path fill-rule="evenodd" clip-rule="evenodd" d="M57.1576 72.7246C54.0424 72.7246 51.5171 75.2551 51.5171 78.3768V82.8985H49.6369C48.8062 82.8985 48.1328 83.5733 48.1328 84.4058V96.4637C48.1328 97.2962 48.8062 97.971 49.6369 97.971H64.6783C65.509 97.971 66.1824 97.2962 66.1824 96.4637V84.4058C66.1824 83.5733 65.509 82.8985 64.6783 82.8985H62.7981V78.3768C62.7981 75.2551 60.2728 72.7246 57.1576 72.7246ZM60.5419 82.8985V78.3768C60.5419 76.5039 59.0266 74.9855 57.1576 74.9855C55.2886 74.9855 53.7733 76.5039 53.7733 78.3768V82.8985H60.5419Z" fill="white"/>
</g>
</g>
<defs>
<clipPath id="clip0_6_1885">
<rect width="66.1818" height="104" fill="white"/>
</clipPath>
</defs>
</svg>
