<svg viewBox="0 0 207.762 158.066" xmlns="http://www.w3.org/2000/svg" xmlns:xlink="http://www.w3.org/1999/xlink"><defs><linearGradient id="a" x1="50%" x2="50%" y1="100%" y2="0%"><stop offset="0%" stop-color="#808080" stop-opacity=".251"/><stop offset="54%" stop-color="#808080" stop-opacity=".122"/><stop offset="100%" stop-color="#808080" stop-opacity=".102"/></linearGradient><linearGradient id="b" x1="50%" x2="50%" y1="100%" y2="0%" xlink:href="#a"/><linearGradient id="c" x1="50%" x2="50%" y1="100%" y2="0%" xlink:href="#a"/><linearGradient id="d" x1="50%" x2="50%" y1="0%" y2="100%"><stop offset="0%" stop-color="#E0E0E0"/><stop offset="31%" stop-color="#FCCC63"/><stop offset="77%" stop-color="#F55F44"/></linearGradient><linearGradient id="e" x1="50%" x2="50%" y1="0%" y2="100%" xlink:href="#d"/><linearGradient id="f" x1="50%" x2="50%" y1="0%" y2="100%" xlink:href="#d"/><linearGradient id="g" x1="50%" x2="50%" y1="0%" y2="100%" xlink:href="#d"/><linearGradient id="h" x1="50%" x2="50%" y1="99.9%" y2="-.1%" xlink:href="#a"/><linearGradient id="i" x1="50.3%" x2="50.3%" y1="100%" y2=".2%" xlink:href="#a"/><path id="k" d="M.55 0a.55.55 0 1 0 0 1.1 .55.55 0 1 0 0-1.11Z"/><path id="j" d="M.99 0a.99.99 0 1 0 0 1.98A.99.99 0 1 0 .99 0Z"/></defs><g transform="translate(-12.602-.014)"><path opacity=".194" fill="#DCEBF3" d="M205.51 249.8v0c-1.62.15-3.24.12-4.84-.08 -17.67-2.17-41.72-1.56-61.33 11.94 -27.119 18.67-69.62 2.68-88.367-6.01l0-.001c-14.4-6.72-21.74-22.93-17.3-38.18 .06-.22.12-.44.2-.65 2.811-9.08 8.35-16.18 15.23-19.94H49.1c9.08-4.96 15.79-13.35 18.62-23.3h0c1.5-5.3 3.75-10.35 6.67-15.01 7.66-11.94 23.71-29.714 51.322-29.6v0c4.86.03 9.68.93 14.22 2.67 10.08 3.81 19.19 11.58 26.13 22.345 4.43 6.86 11.07 13.24 20.58 13.76 13.2.72 25.79 7.55 35.23 19.7 .27.34.54.7.81 1.05 16.82 22.27 5.13 59.08-17.21 61.25Z" transform="translate(-10.337-112.27)"/><path opacity=".7" fill="url(#a)" d="M2.67 0a2.67 2.67 0 1 0 0 5.35 2.67 2.67 0 1 0 0-5.36Z" transform="translate(51.171 129.987)"/><path opacity=".2" d="M2.55 0a2.55 2.55 0 1 0 0 5.11 2.55 2.55 0 1 0 0-5.12Z" transform="translate(51.291 130.106)"/><g fill="#FFF"><use xlink:href="#j" x="38.426" y="79.42"/><use xlink:href="#j" x="109.091" y="136.884"/><use xlink:href="#k" x="67.789" y="142.369"/><use xlink:href="#k" x="190.288" y="115.577"/><use xlink:href="#k" x="158.644" y="65.878"/><use xlink:href="#k" x="203.489" y="90.146"/><use xlink:href="#j" x="55.898" y="47"/><path d="M144.132 588.55h-.89v-.89h-.36v.88h-.89v.35h.88v.87h.35v-.88h.88Z" transform="translate(-114.456-473.572)"/><path d="M258.132 586.55h-.89v-.89h-.36v.88h-.89v.35h.88v.87h.35v-.88h.88Z" transform="translate(-206.324-471.96)"/><path d="M421.132 678.55h-.89v-.89h-.36v.88h-.89v.35h.88v.87h.35v-.88h.88Z" transform="translate(-337.68-546.099)"/><path d="M652.95 129.042h-.4v-.4h-.17v.4h-.4v.16h.4v.4h.16v-.4h.4Z" transform="translate(-525.431-103.655)"/><path d="M947.95 319.04h-.4v-.4h-.17v.4h-.4v.16h.4v.4h.16v-.4h.4Z" transform="translate(-763.161-256.77)"/><path d="M773.95 443.04h-.4v-.4h-.17v.4h-.4v.16h.4v.4h.16v-.4h.4Z" transform="translate(-622.94-356.697)"/><path d="M65.95 521.04h-.4v-.4h-.17v.4h-.4v.16h.4v.4h.16v-.4h.4Z" transform="translate(-52.388-419.554)"/><path d="M150.95 691.04h-.4v-.4h-.17v.4h-.4v.16h.4v.4h.16v-.4h.4Z" transform="translate(-120.886-556.551)"/><path d="M417.957 154.042h-.4v-.4h-.17v.4h-.4v.16h.4v.4h.16v-.4h.4Z" transform="translate(-336.053-123.802)"/><path d="M291.957 453.04h-.4v-.4h-.17v.4h-.4v.16h.4v.4h.16v-.4h.4Z" transform="translate(-234.514-364.756)"/><path d="M318.957 367.04h-.4v-.4h-.17v.4h-.4v.16h.4v.4h.16v-.4h.4Z" transform="translate(-256.272-295.451)"/></g><path opacity=".7" fill="url(#b)" d="M2.23 0a2.23 2.23 0 1 0 0 4.47 2.23 2.23 0 1 0 0-4.48Z" transform="translate(142.991 105.646)"/><g><path opacity=".2" d="M2.07 0a2.07 2.07 0 1 0 0 4.14 2.07 2.07 0 1 0 0-4.15Z" transform="translate(143.156 105.811)"/><path opacity=".2" d="M2.31 0a2.31 2.31 0 1 0 0 4.63 2.31 2.31 0 1 0 0-4.64Z" transform="translate(148.489 120.148)"/></g><g opacity=".7" transform="translate(73.584.014)"><path fill="url(#c)" d="M467.98 102.507v0c.01-4.87-1.16-9.67-3.4-13.98v0c-.74-1.48-1.68-2.85-2.79-4.06v0c-.59-.63-1.51-.8-2.28-.44v-.001c-.31.1-.58.28-.8.51l-.001-.001c-1.08 1.17-1.99 2.49-2.72 3.9v-.001c-2.37 4.41-3.59 9.35-3.57 14.36v3h-1.93v-34.95 0c.03-7.27-1.64-14.45-4.86-20.96v-.001c-1.04-2.21-2.38-4.25-3.98-6.09v0c-1.01-1.15-2.75-1.26-3.9-.26 -.1.07-.18.16-.26.25v-.001c-1.55 1.77-2.85 3.74-3.89 5.85l0 0c-3.39 6.66-5.13 14.04-5.09 21.51v34.6h-1.66v-3.16h0c.02-5.01-1.21-9.95-3.57-14.36l-.001 0c-.74-1.42-1.65-2.73-2.72-3.91v-.001c-.6-.64-1.55-.81-2.33-.43l.07.03 -.001 0c-.25.1-.47.26-.65.45v-.001c-1.12 1.21-2.06 2.58-2.79 4.05v0c-2.25 4.31-3.42 9.11-3.4 13.97v52.22h5.94l-.66 4.29v12.83h4.86v-12.84l-.65-4.3h5.86v-47.57h1.66v47.357h4.75l-.69 4.5v12.83h4.86v-12.84l-.69-4.506h6.4l-.69 4.506v12.83h4.86v-12.84l-.69-4.506h3.79v-47.35h1.92v47.63h1.56v-.08H459l-.65 4.28v12.83h4.86v-12.84l-.65-4.3h5.25Z" transform="translate(-411.519-42.904)"/></g><path fill="#535461" d="M417.277 562.033h-4.61l.82-5.6h2.96Z" transform="translate(-332.571-448.404)"/><g opacity=".1" transform="translate(80.693 108.694)"><path d="M415.73 561.393h3.41l-.23-1.57h-2.97Z" transform="translate(-415.73-559.83)"/></g><path fill="#535461" d="M620.635 562.033h-4.6l.82-5.6h2.96Z" transform="translate(-496.452-448.404)"/><g opacity=".1" transform="translate(120.169 108.694)"><path d="M619.08 561.393h3.42l-.23-1.57h-2.97Z" transform="translate(-619.08-559.83)"/></g><path fill="#535461" d="M494.385 562.033h-4.6l.82-5.6h2.96Z" transform="translate(-394.711-448.404)"/><g opacity=".1" transform="translate(95.661 108.694)"><path d="M492.83 561.393h3.42l-.23-1.57h-2.97Z" transform="translate(-492.83-559.83)"/></g><path fill="#535461" d="M542.68 562.033h-4.6l.82-5.6h2.96Z" transform="translate(-433.635-448.404)"/><g opacity=".1" transform="translate(105.038 108.694)"><path d="M541.13 561.393h3.42l-.24-1.57h-2.97Z" transform="translate(-541.13-559.83)"/></g><path fill="#535461" d="M0 0h32.89v1.31H-.01Z" transform="translate(84.706 61.813)"/><g fill="#E0E0E0"><path d="M628.33 251.629v-.001c-.69-.76-1.86-.82-2.62-.14 -.05.04-.09.08-.14.13v0c-1.03 1.15-1.9 2.42-2.59 3.8v0c-2.25 4.31-3.4 9.11-3.38 13.97v50.63h14.56v-50.85h-.001c.01-4.73-1.09-9.4-3.22-13.62v0c-.69-1.44-1.58-2.77-2.64-3.96Z" transform="translate(-505.643-210.603)"/><path d="M425.084 251.629v-.001c.68-.76 1.85-.82 2.61-.14 .04.04.08.08.13.13v-.001c1.02 1.15 1.88 2.42 2.58 3.8v0c2.23 4.31 3.39 9.11 3.37 13.97v50.63h-14.56v-50.85 -.001c-.02-4.73 1.08-9.4 3.21-13.62v0c.68-1.44 1.57-2.77 2.63-3.96Z" transform="translate(-344.15-210.603)"/></g><g fill="#535461"><path d="M387.25 307.33l3.45.01v4.25h-3.46Z" transform="translate(-312.086-247.655)"/><path d="M444.02 307.33l3.45.01v4.25h-3.46Z" transform="translate(-357.835-247.655)"/><path d="M587.22 307.33l3.45.01v4.25h-3.46Z" transform="translate(-473.235-247.655)"/><path d="M643.99 307.33l3.45.01v4.25h-3.46Z" transform="translate(-518.984-247.655)"/></g><g opacity=".1" transform="translate(81.485 40.349)"><path d="M457 255.093v0c-.7-1.38-1.56-2.66-2.58-3.81v0c-.56-.62-1.46-.79-2.2-.42v0c.2.1.39.24.55.41v0c1.02 1.15 1.88 2.43 2.57 3.8v0c2.24 4.31 3.39 9.11 3.37 13.97v50.63h1.64v-50.64 0c.02-4.87-1.14-9.67-3.38-13.98Z" transform="translate(-452.22-250.678)"/></g><g opacity=".1" transform="translate(113.82 40.49)"><path d="M623.636 255.814v0c.69-1.38 1.55-2.66 2.57-3.81v-.001c.17-.2.39-.35.63-.46v0c-.73-.32-1.59-.14-2.12.45l0 0c-1.03 1.15-1.89 2.42-2.58 3.8v0c-2.24 4.31-3.4 9.11-3.38 13.97v50.64h1.48v-50.64 0c-.03-4.87 1.13-9.67 3.37-13.99Z" transform="translate(-618.778-251.399)"/></g><path fill="url(#d)" d="M447.447 640.64h-.13v0c-1.24 0-2.24-1.01-2.24-2.24v-10.27h4.6v10.26 -.001c0 1.23-1.01 2.24-2.24 2.24 -.01 0-.01 0-.01 0Z" transform="translate(-364.981-514.511)"/><path fill="url(#e)" d="M524.55 640.64h-.13v0c-1.24-.01-2.24-1.01-2.24-2.24v-10.27h4.6v10.26 -.001c0 1.23-1 2.23-2.24 2.24Z" transform="translate(-427.122-514.511)"/><path fill="url(#f)" d="M572.85 640.64h-.13v0c-1.24-.01-2.24-1.01-2.24-2.24v-10.27h4.6v10.26 -.001c0 1.23-1 2.23-2.24 2.24Z" transform="translate(-466.045-514.511)"/><path fill="url(#g)" d="M650.8 640.64h-.13v0c-1.24 0-2.25-1-2.25-2.24 -.01-.01-.01-.01-.01-.01v-10.27h4.6v10.26 0c0 1.23-1.01 2.23-2.24 2.24Z" transform="translate(-528.862-514.511)"/><path fill="#EEE" d="M514.741 45.84v-.001c-.92-1.09-2.53-1.23-3.62-.32 -.12.09-.22.19-.32.31v0c-1.47 1.73-2.71 3.65-3.69 5.7v0c-3.21 6.51-4.86 13.68-4.82 20.95v81.26h20.77v-81.6 0c.03-7.06-1.54-14.04-4.59-20.4v-.001c-.97-2.14-2.24-4.14-3.76-5.93Z" transform="translate(-411.101-44.526)"/><rect width="10.841" height="4.968" rx="2.484" ry="2.484" fill="#535461" transform="translate(96.041 10.349)"/><path opacity=".1" d="M0 0h20.56v.79H-.01Z" transform="translate(91.321 30.753)"/><path fill="url(#h)" d="M743.72 343.268v0 0c-.54-.71-1.22-1.31-1.99-1.75v0 -.001c-3.19-1.84-7.27-.75-9.11 2.44 -1.84 3.18-.75 7.26 2.44 9.1 1.01.58 2.16.89 3.32.89v0c.14 0 .28-.01.42-.02v0c3.67-.24 6.46-3.4 6.23-7.07 -.09-1.31-.55-2.56-1.34-3.6Z" transform="translate(-595.998-282.817)"/><g><path opacity=".2" d="M746.17 348.734v0c-.01 3.32-2.59 6.07-5.9 6.28 -.14 0-.27.01-.4.01v0c-3.48-.01-6.3-2.83-6.3-6.31 0-3.48 2.82-6.3 6.3-6.3 1.1 0 2.18.29 3.14.84v0 0c.72.42 1.36.98 1.875 1.66v0 0c.82 1.09 1.27 2.42 1.27 3.79Z" transform="translate(-597.464-284.267)"/><path opacity=".1" d="M751.64 354.04v0c-.33.14-.65.3-.94.49v0c-.2.1-.38.26-.5.45v0c-.14.19-.14.44-.02.64v0c.18.18.44.27.7.25v0c.27.03.55 0 .81-.09v-.001c.17-.09.33-.21.47-.35l.54-.5c.19-.18.38-.41.31-.65v0c-.1-.18-.27-.3-.46-.32v0c-.47-.1-.96-.01-1.36.23" transform="translate(-610.787-293.573)"/><path opacity=".1" d="M.33 0a.33.33 0 1 0 0 .66 .33.33 0 1 0 0-.67Z" transform="translate(138.266 66.62)"/><path opacity=".1" d="M1.21 0a1.21 1.21 0 1 0 0 2.43 1.21 1.21 0 1 0 0-2.43Z" transform="translate(144.122 63.637)"/></g><g opacity=".1" transform="translate(144.132 59.009)"><path d="M778.236 348.452v0 0c-.02.91-.77 1.64-1.68 1.63 -.92-.02-1.65-.77-1.64-1.68 0-.83.62-1.52 1.43-1.63v0 -.001c.73.42 1.36.98 1.87 1.66Z" transform="translate(-774.92-346.79)"/></g><g opacity=".1" transform="translate(142.797 67.505)"><path d="M772.8 391.14v0c-1.1 1.56-2.85 2.54-4.76 2.66 0-.09-.02-.18-.02-.27v-.001c-.01-1.65 1.33-2.99 2.98-2.99 .64-.01 1.26.2 1.77.58Z" transform="translate(-768.04-390.555)"/></g><path fill="url(#i)" d="M315.28 531.71v0h-.001c-.38-.5-.85-.92-1.39-1.23v0 0c-2.22-1.31-5.08-.56-6.38 1.66 -1.31 2.21-.56 5.07 1.66 6.37 .72.42 1.54.64 2.38.63 .1 0 .19 0 .3-.01v0c2.56-.18 4.5-2.4 4.33-4.97 -.07-.9-.38-1.76-.92-2.49Z" transform="translate(-253.614-435.303)"/><g><path opacity=".2" d="M317.2 535.615v0c-.01 2.31-1.81 4.23-4.12 4.38h-.28v0c-2.44 0-4.41-1.96-4.42-4.39 -.01-2.44 1.95-4.41 4.38-4.42 .78-.01 1.55.2 2.23.59v0h-.001c.5.29.95.69 1.3 1.16v0 0c.57.76.88 1.69.88 2.65Z" transform="translate(-254.847-436.399)"/><path opacity=".1" d="M321.02 539.348h-.001c-.23.09-.45.21-.66.34v0c-.14.07-.26.18-.36.31h-.001c-.09.13-.09.31 0 .44v-.001c.13.12.31.19.49.17v0c.19.02.38 0 .56-.06v0c.12-.07.23-.15.33-.25l.37-.35c.13-.12.27-.29.21-.45v0c-.07-.13-.19-.21-.32-.22h-.001c-.33-.07-.67-.01-.95.16" transform="translate(-264.143-442.92)"/><path opacity=".1" d="M.23 0a.23.23 0 1 0 0 .46 .23.23 0 1 0 0-.47Z" transform="translate(55.069 100.719)"/><path opacity=".1" d="M.84 0a.84.84 0 1 0 0 1.69 .84.84 0 1 0 0-1.7Z" transform="translate(59.156 98.638)"/></g><g opacity=".1" transform="translate(59.14 95.403)"><path d="M339.45 535.425v0 0c-.01.64-.54 1.16-1.18 1.15 -.65-.01-1.17-.54-1.16-1.18 0-.59.44-1.08 1.01-1.15v0 0c.51.29.95.69 1.31 1.16Z" transform="translate(-337.12-534.26)"/></g><g opacity=".1" transform="translate(58.239 101.326)"><path d="M335.8 565.18v0c-.77 1.09-1.99 1.77-3.32 1.85v-.2 0c0-1.16.93-2.09 2.08-2.09 .44 0 .88.14 1.24.41Z" transform="translate(-332.48-564.77)"/></g><path fill="none" d="M837.69 539.42l4.23 2.25 -3.3 3.7" transform="translate(-675.08-434.688)"/><path fill="#FFF" d="M.35 0a.35.35 0 1 0 0 .71 .35.35 0 1 0 0-.72Z" transform="translate(185.008 82.789)"/></g></svg>
