<svg width="53" height="64" viewBox="0 0 53 64" fill="none" xmlns="http://www.w3.org/2000/svg">
<g id="Icon - Secondary">
<path id="Icon - Secondary / Security / Purple" d="M51.9004 30.2256L51.9004 30.2262C51.6469 44.7237 42.2589 58.2999 29.2041 62.6052L29.2038 62.6053C27.6095 63.1316 25.8862 63.1316 24.2915 62.6053L24.2913 62.6052C11.0552 58.24 1.58984 44.3458 1.58984 29.6263V12.4446C1.78032 12.3218 2.0264 12.164 2.31912 11.9778C3.06105 11.506 4.10168 10.8532 5.29561 10.1295C7.69252 8.67679 10.6738 6.9592 13.0928 5.84134L13.0929 5.84134C15.6786 4.64637 19.1498 3.43077 22.0007 2.50779C23.4208 2.04804 24.677 1.66405 25.578 1.39508C26.0283 1.26063 26.3896 1.15501 26.6379 1.08312C26.6485 1.08005 26.6589 1.07704 26.6691 1.07409L27.8257 1.60021V1.3614C30.4008 2.18175 36.0472 4.04952 39.9435 5.84179L40.3614 4.9333L39.9436 5.8418C42.3821 6.96342 45.4852 8.67738 47.9969 10.1229C49.2488 10.8434 50.3465 11.493 51.131 11.9624C51.4422 12.1486 51.7039 12.3063 51.9064 12.4288V29.5911C51.9064 29.8018 51.9042 30.0134 51.9004 30.2256Z" fill="white" stroke="#6817C5" stroke-width="2"/>
</g>
</svg>
