<svg width="166" height="120" viewBox="0 0 166 120" fill="none" xmlns="http://www.w3.org/2000/svg">
<g clip-path="url(#clip0_3346_91328)">
<path d="M153.199 97.9634L151.973 101.167C151.264 103.017 150.034 104.7 148.281 106.052C142.342 110.63 132.65 109.664 126.633 103.892C122.392 99.8244 121.109 94.4542 122.801 90.0353L124.028 86.832C122.335 91.2509 123.618 96.6212 127.859 100.689C133.877 106.461 143.569 107.427 149.508 102.849C151.261 101.497 152.491 99.8135 153.199 97.9634Z" fill="url(#paint0_linear_3346_91328)"/>
<path d="M139.268 109C142.693 109 145.856 107.995 148.317 106.097C150.04 104.769 151.288 103.117 152.027 101.187L153.254 97.9835C153.265 97.9536 153.25 97.9201 153.22 97.9087C153.191 97.8973 153.157 97.9122 153.145 97.9421C152.414 99.8518 151.179 101.487 149.473 102.802C143.565 107.357 133.887 106.39 127.9 100.647C125.859 98.6889 124.432 96.3478 123.775 93.8767C123.136 91.4746 123.242 89.0455 124.082 86.8521C124.094 86.8222 124.079 86.7887 124.049 86.7773C124.019 86.7659 123.985 86.7808 123.974 86.8107L122.747 90.014C121.898 92.2302 121.791 94.6839 122.436 97.1097C123.099 99.6012 124.536 101.961 126.593 103.934C129.512 106.734 133.379 108.502 137.481 108.911C138.083 108.971 138.679 109 139.268 109ZM152.576 99.4305L151.919 101.145C151.187 103.055 149.952 104.69 148.246 106.005C142.338 110.56 132.661 109.593 126.673 103.85C124.632 101.892 123.206 99.551 122.548 97.08C121.909 94.6778 122.016 92.2487 122.855 90.0553L123.515 88.3334C123.115 90.1252 123.162 92.0243 123.663 93.9064C124.325 96.3979 125.763 98.7576 127.819 100.73C130.739 103.531 134.606 105.298 138.708 105.707C142.811 106.116 146.66 105.117 149.544 102.894C150.819 101.91 151.834 100.75 152.576 99.4305Z" fill="#111111"/>
<path d="M133.97 104.527C125.914 101.46 121.462 93.5429 124.027 86.8446C126.592 80.1463 135.201 77.2028 143.257 80.2702C151.313 83.3376 155.765 91.2543 153.2 97.9526C150.635 104.651 142.026 107.594 133.97 104.527Z" fill="white"/>
<path d="M140.495 105.799C143.92 105.799 147.083 104.793 149.544 102.896C152.217 100.835 153.787 97.9008 153.963 94.6341C154.063 92.7979 153.728 90.9542 152.97 89.1545C152.185 87.2929 150.986 85.5811 149.408 84.0668C146.488 81.2666 142.622 79.4991 138.52 79.0898C134.417 78.6805 130.568 79.6796 127.683 81.9034C125.011 83.964 123.441 86.898 123.265 90.165C123.165 92.0014 123.5 93.8452 124.258 95.645C125.043 97.5067 126.241 99.2184 127.82 100.733C130.739 103.533 134.606 105.301 138.708 105.71C139.31 105.77 139.906 105.799 140.495 105.799ZM136.748 79.1225C141.216 79.1225 145.882 80.8454 149.327 84.1503C150.894 85.6537 152.084 87.3525 152.863 89.1994C153.614 90.9829 153.946 92.8093 153.847 94.6279C153.672 97.8604 152.119 100.764 149.473 102.804C143.565 107.359 133.888 106.392 127.9 100.649C126.333 99.1458 125.144 97.4472 124.365 95.6C123.613 93.8165 123.282 91.99 123.381 90.1712C123.556 86.9384 125.109 84.0347 127.754 81.995C130.263 80.0612 133.452 79.1225 136.748 79.1225Z" fill="#111111"/>
<path d="M129.543 90.0111C128.835 90.5565 129.149 91.8509 130.244 92.9014C131.339 93.9519 132.801 94.3608 133.509 93.8153C134.216 93.2699 133.902 91.9763 132.806 90.9257C131.711 89.8752 130.25 89.4656 129.543 90.0111Z" fill="#6817C5"/>
<path d="M132.701 94.1092C133.032 94.1092 133.324 94.0284 133.545 93.8578C133.787 93.671 133.925 93.393 133.943 93.0536C133.979 92.3859 133.57 91.5737 132.847 90.8807C131.734 89.8127 130.236 89.4005 129.508 89.962C129.265 90.1489 129.127 90.4273 129.109 90.7671C129.073 91.4252 129.493 92.2577 130.204 92.9399C130.98 93.6836 131.942 94.1092 132.701 94.1092ZM130.356 89.823C131.08 89.823 132.012 90.2399 132.767 90.9642C133.455 91.6241 133.861 92.4223 133.827 93.0473C133.811 93.3521 133.688 93.6006 133.474 93.7662C132.789 94.2942 131.358 93.886 130.285 92.8564C129.597 92.1969 129.191 91.3987 129.225 90.7734C129.242 90.4682 129.364 90.2193 129.579 90.0536C129.782 89.8971 130.05 89.823 130.356 89.823Z" fill="#111111"/>
<path d="M136.84 84.3861C136.132 84.9315 136.447 86.2251 137.542 87.2756C138.637 88.3261 140.098 88.7358 140.806 88.1903C141.513 87.6449 141.199 86.3513 140.103 85.3007C139.008 84.2502 137.547 83.8406 136.84 84.3861Z" fill="#6817C5"/>
<path d="M139.999 88.4877C140.329 88.4877 140.621 88.407 140.842 88.2367C141.084 88.0499 141.222 87.7718 141.24 87.4324C141.276 86.7647 140.866 85.9525 140.144 85.2596C139.031 84.1916 137.533 83.7795 136.805 84.3408C136.562 84.5277 136.425 84.8058 136.406 85.1452C136.37 85.8128 136.78 86.6251 137.502 87.318C138.278 88.062 139.24 88.4877 139.999 88.4877ZM137.653 84.2019C138.377 84.2019 139.308 84.6188 140.064 85.3431C140.752 86.003 141.158 86.8012 141.124 87.4262C141.108 87.7309 140.985 87.9795 140.771 88.1451C140.086 88.6728 138.656 88.2642 137.583 87.2345C136.895 86.5746 136.488 85.7764 136.522 85.1514C136.539 84.8467 136.661 84.5981 136.876 84.4325C137.079 84.276 137.347 84.2019 137.653 84.2019Z" fill="#111111"/>
<path d="M145.373 90.2255C145.202 90.3573 145.117 90.5663 145.166 90.7939C145.639 92.9673 144.785 95.1411 142.883 96.6079C141.069 98.0061 138.57 98.524 136.196 97.9956C135.949 97.9401 135.713 97.9921 135.55 98.1175C135.438 98.2039 135.361 98.325 135.338 98.4697C135.28 98.8254 135.573 99.1882 135.991 99.2821C138.837 99.9164 141.821 99.3063 143.969 97.6499C146.225 95.9109 147.232 93.3137 146.665 90.7023C146.586 90.3355 146.186 90.0586 145.771 90.0836C145.614 90.0932 145.478 90.1449 145.373 90.2255Z" fill="#6817C5"/>
<path d="M138.225 99.5852C140.348 99.5852 142.406 98.9282 144.005 97.695C146.279 95.9421 147.294 93.3232 146.722 90.6893C146.637 90.2964 146.21 89.9982 145.768 90.0251C145.604 90.0351 145.456 90.0883 145.338 90.1789C145.143 90.3296 145.057 90.5638 145.11 90.8055C145.578 92.9569 144.732 95.1086 142.848 96.5613C141.049 97.9484 138.567 98.4632 136.209 97.9383C135.952 97.8807 135.699 97.9289 135.515 98.071C135.386 98.1702 135.305 98.3047 135.281 98.4599C135.219 98.8436 135.532 99.2374 135.979 99.3378C136.724 99.5039 137.479 99.5852 138.225 99.5852ZM145.824 90.1392C146.193 90.1392 146.538 90.3887 146.609 90.7137C147.171 93.303 146.171 95.8785 143.934 97.6033C141.799 99.2495 138.835 99.8558 136.004 99.2247C135.616 99.1376 135.343 98.8027 135.396 98.4782C135.416 98.3525 135.481 98.2434 135.586 98.1626C135.743 98.0419 135.961 98.0013 136.184 98.0514C138.575 98.5837 141.093 98.061 142.919 96.653C144.839 95.1722 145.701 92.9771 145.223 90.7809C145.181 90.584 145.25 90.3932 145.409 90.2705C145.508 90.1941 145.635 90.1492 145.775 90.1407C145.792 90.1397 145.808 90.1392 145.824 90.1392Z" fill="#111111"/>
</g>
<path d="M139.472 38.7428C141.957 40.1474 142.999 43.7977 141.798 46.8972L121.54 99.184C120.339 102.283 117.351 103.655 114.866 102.25L47.4577 64.1409C44.9731 62.7364 43.9307 59.086 45.1315 55.9866L65.3898 3.6997C66.5906 0.600275 69.579 -0.771309 72.0635 0.633413L139.472 38.7428Z" fill="#D2B9EE"/>
<path d="M116.918 102.87C116.2 102.87 115.488 102.683 114.832 102.312L47.4233 64.2022C44.9144 62.7837 43.8575 59.0888 45.0676 55.9655L65.3261 3.67863C65.9675 2.02309 67.1551 0.780591 68.5842 0.269723C69.7557 -0.149075 71.0026 -0.0393656 72.0949 0.578274L139.503 38.6878C142.012 40.1061 143.069 43.8011 141.859 46.9245L121.601 99.2113C120.959 100.867 119.772 102.109 118.343 102.62C117.875 102.787 117.395 102.87 116.918 102.87ZM70.0085 0.15333C69.5464 0.15333 69.0819 0.233645 68.6291 0.395604C67.2365 0.893377 66.0779 2.10767 65.4505 3.72701L45.192 56.0139C44.005 59.0777 45.0354 62.6989 47.4889 64.0859L114.898 102.195C115.956 102.794 117.163 102.9 118.298 102.494C119.69 101.997 120.849 100.782 121.476 99.1631L141.734 46.8762C142.921 43.8124 141.891 40.1912 139.438 38.8042L72.029 0.694666C71.3933 0.335334 70.7037 0.153465 70.0085 0.153465V0.15333Z" fill="#0A0A0A"/>
<path d="M138.139 40.6597L71.6992 3.09835C69.8822 2.07114 67.6998 3.07537 66.8227 5.33893L47.0909 56.2669C46.2139 58.5305 46.9744 61.1964 48.7913 62.2236L115.231 99.7849C117.046 100.811 119.228 99.8089 120.105 97.5453L139.837 46.6173C140.714 44.3538 139.954 41.6861 138.139 40.6597Z" fill="white"/>
<g clip-path="url(#clip1_3346_91328)">
<path d="M101.399 32.5948L89.7447 32.7334L86.7618 39.8748C82.7062 49.5846 87.5921 57.7506 90.0224 59.8327C92.985 60.6402 101.658 59.7391 105.714 50.0293L108.697 42.8879L101.399 32.5948Z" fill="white"/>
<path d="M94.619 59.8222C95.5417 59.6309 96.51 59.334 97.4751 58.91C99.1554 58.1718 100.677 57.1247 101.996 55.7978C103.542 54.2442 104.805 52.3083 105.751 50.0437L108.734 42.9024C108.739 42.89 108.737 42.8757 108.73 42.8646L101.432 32.5715C101.425 32.5609 101.413 32.5548 101.4 32.5549L89.7452 32.6936C89.7297 32.6939 89.7158 32.7032 89.7099 32.7175L86.727 39.8589C85.7813 42.1231 85.261 44.4566 85.1808 46.7945C85.1122 48.7908 85.3621 50.7858 85.9236 52.7242C86.8942 56.0747 88.6694 58.7231 89.9983 59.8616C90.0027 59.8653 90.0078 59.8681 90.0134 59.8696C91.0959 60.1646 92.7649 60.2067 94.619 59.8222L94.619 59.8222ZM108.653 42.892L105.679 50.0134C103.477 55.2842 99.9854 57.7217 97.4436 58.8385C94.5615 60.1048 91.6519 60.2321 90.0421 59.7966C88.7229 58.6625 86.9628 56.0319 85.9985 52.7027C85.1482 49.7672 84.5969 45.1614 86.7989 39.8892L89.7719 32.7714L101.381 32.6332L108.653 42.892Z" fill="#111111"/>
<path d="M100.705 34.2546L107.113 43.292L104.494 49.5621C100.933 58.087 93.3181 58.878 90.7166 58.1693C88.5832 56.341 84.2933 49.1714 87.8541 40.6464L90.473 34.3764L100.705 34.2546Z" fill="#D2B9EE"/>
<path d="M94.754 58.1683C95.5643 58.0002 96.4148 57.7395 97.2623 57.3671C98.7382 56.7188 100.074 55.7992 101.234 54.6338C102.591 53.2693 103.7 51.5691 104.531 49.5803L107.15 43.3103C107.155 43.2979 107.153 43.2836 107.146 43.2725L100.738 34.2352C100.731 34.2247 100.719 34.2186 100.706 34.2187L90.4734 34.3405C90.4579 34.3407 90.4441 34.3501 90.4381 34.3644L87.8192 40.6344C86.9887 42.6229 86.5318 44.6722 86.4613 46.7255C86.4011 48.4786 86.6206 50.2307 87.1137 51.933C87.966 54.8755 89.5252 57.2018 90.6924 58.2021C90.6968 58.2058 90.702 58.2086 90.7076 58.2101C91.6588 58.4692 93.125 58.5062 94.7539 58.1684L94.754 58.1683ZM107.069 43.2999L104.459 49.55C101.004 57.8217 93.596 58.9099 90.7363 58.137C88.3934 56.1218 84.4346 48.9401 87.8912 40.6647L90.5003 34.4182L100.687 34.2971L107.07 43.3L107.069 43.2999Z" fill="#111111"/>
<path d="M97.4595 42.032C98.6572 42.6738 99.1504 44.3374 98.5614 45.7476C98.1252 46.7919 97.2181 47.4038 96.2907 47.3913L95.2698 49.8356C95.0334 50.4015 94.4465 50.6544 93.9656 50.3967C93.4847 50.1391 93.2852 49.4649 93.5216 48.8989L94.5425 46.4547C93.9458 45.6504 93.7885 44.4682 94.2246 43.424C94.8137 42.0138 96.2621 41.3905 97.4595 42.0321" fill="#6817C5"/>
<path d="M94.5431 50.5169C94.584 50.5084 94.6246 50.497 94.6649 50.4827C94.9447 50.3835 95.1778 50.1527 95.3043 49.8496L96.3152 47.4294C97.2781 47.4303 98.1713 46.7784 98.5959 45.7617C99.1916 44.3355 98.6894 42.6464 97.4764 41.9965C96.9356 41.7068 96.3182 41.6607 95.7377 41.8664C95.0613 42.1063 94.4963 42.6681 94.1873 43.4076C93.7627 44.4242 93.8846 45.6191 94.4967 46.4587L93.4843 48.8826C93.2396 49.4683 93.4467 50.1624 93.946 50.43C94.1316 50.5294 94.3397 50.559 94.5431 50.5169L94.5431 50.5169ZM96.2813 47.352C96.269 47.3546 96.2584 47.363 96.2534 47.3751L95.2325 49.8193C95.1143 50.1022 94.8979 50.3172 94.6387 50.4092C94.419 50.4872 94.1859 50.4701 93.9826 50.3612C93.5179 50.1122 93.3266 49.4626 93.5561 48.913L94.5771 46.4687C94.5824 46.456 94.5806 46.4414 94.5724 46.4303C93.9649 45.6116 93.842 44.4371 94.2592 43.4381C94.5597 42.7187 95.1082 42.1727 95.7639 41.9401C96.3233 41.7417 96.9187 41.7861 97.4399 42.0653C98.6183 42.6968 99.1047 44.3414 98.5241 45.7314C98.1079 46.728 97.2307 47.3637 96.2897 47.3512C96.2869 47.3512 96.284 47.3514 96.2813 47.352Z" fill="#111111"/>
</g>
<path d="M116.729 100.253C116.202 100.253 115.679 100.115 115.196 99.8427L48.757 62.2814C46.9163 61.2405 46.1401 58.5314 47.0273 56.2424L66.7592 5.31425C67.2297 4.09955 68.1014 3.18766 69.1506 2.81269C70.0113 2.50508 70.9276 2.58552 71.7309 3.03973L138.17 40.6011C140.01 41.6412 140.785 44.3507 139.898 46.641L120.166 97.569C119.696 98.7833 118.825 99.6946 117.776 100.069C117.432 100.192 117.08 100.253 116.73 100.253L116.729 100.253ZM70.1968 2.76271C69.8613 2.76271 69.5243 2.82098 69.1955 2.93857C68.1829 3.30044 67.3402 4.18401 66.8836 5.36263L47.1517 56.2907C46.2878 58.5205 47.0375 61.1557 48.8228 62.1651L115.262 99.7265C116.031 100.161 116.907 100.238 117.731 99.9437C118.743 99.5819 119.585 98.6988 120.041 97.5208L139.773 46.5928C140.637 44.362 139.889 41.7262 138.104 40.7175C136.32 39.7087 71.6649 3.15612 71.6649 3.15612C71.2029 2.89501 70.7018 2.76285 70.1968 2.76285V2.76271Z" fill="#0A0A0A"/>
<path d="M107.072 75.9027L69.1956 54.4893C68.3098 53.9885 67.2455 54.4789 66.8177 55.5834L64.7131 61.0153C64.2852 62.1198 64.6553 63.421 65.5411 63.9219L103.417 85.3352C104.303 85.8361 105.369 85.3463 105.797 84.242L107.901 78.81C108.329 77.7056 107.958 76.4035 107.072 75.9027Z" fill="#6817C5"/>
<path d="M104.148 85.5979C103.885 85.5979 103.624 85.5291 103.384 85.3932L65.5076 63.98C64.596 63.4647 64.2114 62.1237 64.6502 60.9911L66.7549 55.5593C66.9881 54.957 67.4209 54.5047 67.9422 54.3182C68.371 54.1648 68.8279 54.2049 69.228 54.4312L107.104 75.8445C108.017 76.3603 108.402 77.7014 107.963 78.8341L105.858 84.2659C105.625 84.8676 105.193 85.3197 104.671 85.5061C104.499 85.5674 104.323 85.5979 104.148 85.5979ZM68.4637 54.3603C68.3042 54.3603 68.1436 54.3881 67.9872 54.444C67.5025 54.6173 67.0989 55.0413 66.8794 55.6074L64.7748 61.0392C64.359 62.1125 64.7172 63.3794 65.5735 63.8635L103.45 85.2766C103.816 85.4836 104.234 85.5204 104.626 85.3801C105.111 85.2068 105.515 84.7829 105.734 84.2174L107.839 78.7855C108.254 77.7124 107.896 76.445 107.039 75.9605L69.1624 54.5472C68.9426 54.4229 68.7042 54.3601 68.4639 54.3601L68.4637 54.3603Z" fill="#0A0A0A"/>
<path d="M74.2812 60.4591C74.2534 60.2877 74.1615 60.1533 74.0419 60.0856C73.9596 60.0391 73.8642 60.024 73.7675 60.0502L71.888 60.5623L72.5384 58.8835C72.6438 58.6114 72.553 58.293 72.3348 58.1695C72.1179 58.047 71.8558 58.1659 71.7504 58.438L71.1001 60.1164L70.2215 58.0454C70.1768 57.9393 70.1065 57.8607 70.0243 57.8142C69.9047 57.7466 69.7601 57.7472 69.6325 57.8309C69.4179 57.9745 69.3342 58.3019 69.4455 58.5632L70.4587 60.9518L68.2914 61.5423C68.054 61.6064 67.8994 61.8938 67.9457 62.1848C67.9737 62.3574 68.0658 62.4915 68.185 62.5589C68.2674 62.6055 68.363 62.6202 68.4593 62.5937L70.3387 62.0821L69.6885 63.7605C69.583 64.0325 69.6752 64.3519 69.8921 64.4745C70.1105 64.5979 70.3711 64.4781 70.4765 64.206L71.127 62.5272L72.0056 64.5987C72.0511 64.7054 72.122 64.7847 72.2046 64.8314C72.3241 64.8989 72.4677 64.8981 72.5947 64.8132C72.8093 64.6696 72.8929 64.3422 72.783 64.0817L71.7694 61.6928L73.9373 61.1026C74.1732 61.0378 74.3277 60.7503 74.2815 60.4593L74.2812 60.4591Z" fill="white"/>
<path d="M72.3837 64.95C72.311 64.95 72.2386 64.9311 72.1717 64.8934C72.0728 64.8374 71.9941 64.7459 71.9442 64.6287L71.1297 62.7089L70.5388 64.2341C70.4762 64.3959 70.359 64.5178 70.2176 64.5683C70.098 64.6109 69.971 64.5997 69.8593 64.5365C69.6144 64.3981 69.5099 64.0409 69.6263 63.7403L70.2287 62.1853L68.4772 62.6622C68.3675 62.6922 68.2521 62.6776 68.1523 62.6211C68.0097 62.5405 67.9103 62.3868 67.88 62.1996C67.8285 61.8763 68.0055 61.5544 68.2742 61.4819L70.3675 60.9114L69.3844 58.5932C69.2613 58.3047 69.3562 57.9396 69.5957 57.7794C69.7396 57.685 69.9121 57.6778 70.0575 57.7601C70.156 57.8158 70.2342 57.9068 70.2833 58.0234L71.0975 59.9427L71.6885 58.4179C71.751 58.2564 71.8682 58.1348 72.0098 58.084C72.1297 58.0413 72.2568 58.0526 72.368 58.1152C72.6171 58.2562 72.7195 58.6059 72.601 58.9115L71.9985 60.4668L73.7502 59.9895C73.8613 59.9594 73.9737 59.974 74.0751 60.0312C74.2179 60.1119 74.3172 60.2654 74.3474 60.4521C74.3986 60.7747 74.2224 61.097 73.9548 61.1705L71.8604 61.7407L72.8441 64.0592C72.966 64.3476 72.8705 64.7122 72.6315 64.8722C72.5545 64.9238 72.4687 64.9497 72.3835 64.9497L72.3837 64.95ZM71.1271 62.4642C71.1538 62.4642 71.1781 62.4802 71.1885 62.5049L72.0672 64.5763C72.1055 64.6663 72.1644 64.7356 72.2374 64.7771C72.3396 64.8349 72.4566 64.829 72.5575 64.7614C72.746 64.6353 72.8195 64.3438 72.7214 64.1116L71.708 61.7227C71.7003 61.7049 71.7009 61.6847 71.7093 61.6673C71.7177 61.65 71.7334 61.6371 71.7518 61.6321L73.9199 61.0418C74.1237 60.9858 74.2566 60.731 74.2158 60.4736C74.1923 60.3293 74.1152 60.2074 74.0095 60.1477C73.9396 60.1081 73.8618 60.0981 73.7855 60.1187L71.9061 60.6308C71.8814 60.6374 71.8558 60.6298 71.8389 60.6111C71.8219 60.5924 71.8171 60.5657 71.8262 60.5422L72.4766 58.8634C72.57 58.6222 72.4918 58.3389 72.3022 58.2316C72.2243 58.1875 72.1387 58.18 72.0549 58.2098C71.9497 58.2475 71.8615 58.3407 71.8129 58.466L71.1626 60.1444C71.1529 60.1697 71.1287 60.1866 71.1014 60.187C71.0723 60.1859 71.0494 60.1714 71.0389 60.1462L70.1603 58.0752C70.1226 57.9861 70.0643 57.9173 69.9916 57.8761C69.8891 57.8182 69.7717 57.8235 69.6694 57.8904C69.4811 58.0164 69.4082 58.3081 69.5072 58.5405L70.5203 60.9293C70.5279 60.9471 70.5273 60.9673 70.5189 60.9846C70.5105 61.002 70.4949 61.0148 70.4764 61.0199L68.3091 61.6104C68.1042 61.6657 67.9709 61.9203 68.0117 62.1779C68.0353 62.3227 68.1124 62.4447 68.2179 62.5043C68.2878 62.544 68.3655 62.5537 68.4416 62.5329L70.321 62.0211C70.3455 62.0145 70.3714 62.0221 70.3882 62.0407C70.4052 62.0594 70.41 62.0861 70.4009 62.1097L69.7507 63.7881C69.6574 64.0293 69.7356 64.3126 69.9251 64.4197C70.0035 64.4641 70.0893 64.4717 70.1726 64.442C70.2775 64.4045 70.3655 64.311 70.4144 64.1853L71.0648 62.5065C71.0746 62.4811 71.0989 62.4643 71.126 62.4639H71.1271V62.4642Z" fill="#0A0A0A"/>
<path d="M81.879 64.756C81.8512 64.5846 81.7594 64.4503 81.6397 64.3825C81.5574 64.336 81.4621 64.321 81.3653 64.3471L79.4858 64.8592L80.1362 63.1804C80.2416 62.9083 80.1508 62.5897 79.9326 62.4664C79.7157 62.3438 79.4536 62.4628 79.3482 62.7349L78.6979 64.4132L77.8192 62.3422C77.7746 62.2363 77.7041 62.1576 77.622 62.1111C77.5025 62.0434 77.3578 62.0441 77.2301 62.1278C77.0157 62.2714 76.9319 62.5988 77.0432 62.8601L78.0564 65.2487L75.889 65.8392C75.6516 65.9032 75.4971 66.1907 75.5433 66.4817C75.5715 66.6542 75.6635 66.7884 75.7827 66.8557C75.8651 66.9024 75.9605 66.9171 76.0569 66.8905L77.9362 66.3788L77.286 68.0572C77.1806 68.3293 77.2728 68.6487 77.4897 68.7712C77.7079 68.8945 77.9686 68.7748 78.074 68.5027L78.7245 66.8239L79.603 68.8953C79.6486 69.0021 79.7194 69.0814 79.802 69.128C79.9215 69.1955 80.0653 69.1948 80.1921 69.1098C80.4067 68.9662 80.4903 68.6388 80.3805 68.3785L79.3668 65.9894L81.5348 65.3992C81.7706 65.3344 81.9252 65.0469 81.879 64.7559V64.756Z" fill="white"/>
<path d="M79.9815 69.2431C79.9088 69.2431 79.8362 69.2243 79.7693 69.1865C79.6705 69.1306 79.5918 69.0391 79.5418 68.9219L78.7275 67.0019L78.1366 68.5271C78.0739 68.689 77.9567 68.8108 77.8153 68.8613C77.6956 68.9038 77.5688 68.8928 77.4571 68.8295C77.2121 68.6912 77.1076 68.334 77.224 68.0334L77.8264 66.4785L76.0747 66.9554C75.9656 66.9854 75.85 66.9707 75.7501 66.9142C75.6075 66.8336 75.5081 66.6801 75.4776 66.4928C75.4263 66.1692 75.6032 65.8475 75.872 65.7749L77.9653 65.2046L76.9822 62.8863C76.8591 62.598 76.9538 62.2327 77.1933 62.0724C77.3373 61.9778 77.5099 61.971 77.6551 62.053C77.7537 62.1087 77.8319 62.1999 77.881 62.3164L78.6953 64.2356L79.2862 62.7107C79.3487 62.5493 79.4659 62.4277 79.6077 62.3769C79.7275 62.3343 79.8545 62.3454 79.9657 62.4082C80.2148 62.549 80.3173 62.8988 80.1988 63.2044L79.5962 64.7597L81.3479 64.2824C81.4593 64.2524 81.5716 64.2669 81.6727 64.3242C81.8157 64.4049 81.915 64.5583 81.945 64.7451C81.9962 65.0676 81.8201 65.3898 81.5526 65.4634L79.4581 66.0336L80.4418 68.3521C80.5636 68.6405 80.4682 69.0051 80.2292 69.1651C80.1523 69.2167 80.0666 69.2426 79.9812 69.2426L79.9815 69.2431ZM78.7248 66.7573C78.7516 66.7573 78.7759 66.7734 78.7863 66.7981L79.6648 68.8695C79.7031 68.9594 79.7622 69.0288 79.835 69.0701C79.9375 69.1279 80.0543 69.1223 80.1552 69.0544C80.3436 68.9283 80.4171 68.6368 80.3192 68.4045L79.3056 66.0157C79.298 65.9979 79.2985 65.9777 79.3069 65.9604C79.3153 65.943 79.331 65.9302 79.3495 65.9251L81.5177 65.3348C81.7213 65.2787 81.8542 65.0238 81.8134 64.7667C81.79 64.6223 81.7129 64.5005 81.6071 64.4407C81.5371 64.4009 81.4598 64.391 81.383 64.4116L79.5038 64.9237C79.479 64.9302 79.4534 64.9226 79.4365 64.904C79.4196 64.8853 79.4148 64.8586 79.4238 64.8351L80.0742 63.1563C80.1676 62.9152 80.0893 62.6318 79.8998 62.5246C79.8219 62.4805 79.7365 62.473 79.6525 62.5028C79.5473 62.5404 79.4591 62.6338 79.4105 62.759L78.7602 64.4374C78.7505 64.4628 78.7263 64.4796 78.699 64.48C78.6734 64.4819 78.6471 64.4644 78.6365 64.4393L77.7577 62.3682C77.7202 62.2791 77.6618 62.2102 77.5891 62.1691C77.4865 62.1109 77.3691 62.1166 77.2669 62.1834C77.0786 62.3094 77.0057 62.6013 77.1048 62.8337L78.1179 65.2225C78.1255 65.2402 78.125 65.2604 78.1165 65.2778C78.1081 65.2952 78.0925 65.308 78.0741 65.3131L75.9067 65.9036C75.7018 65.9589 75.5685 66.2135 75.6092 66.4712C75.6329 66.6158 75.71 66.738 75.8156 66.7976C75.8853 66.8374 75.9631 66.8469 76.0391 66.8262L77.9186 66.3144C77.9435 66.3077 77.969 66.3153 77.9858 66.334C78.0028 66.3527 78.0076 66.3794 77.9985 66.403L77.3483 68.0813C77.255 68.3226 77.3332 68.606 77.5227 68.713C77.6011 68.7574 77.6868 68.7653 77.7702 68.7353C77.8751 68.6979 77.9633 68.6044 78.012 68.4788L78.6624 66.8C78.6722 66.7746 78.6965 66.7577 78.7236 66.7573H78.7247H78.7248Z" fill="#0A0A0A"/>
<path d="M89.4768 69.049C89.449 68.8775 89.3571 68.7431 89.2375 68.6755C89.1552 68.629 89.0597 68.6139 88.9631 68.6401L87.0836 69.1521L87.734 67.4733C87.8394 67.2013 87.7486 66.8828 87.5303 66.7594C87.3135 66.6368 87.0514 66.7557 86.946 67.0278L86.2957 68.7062L85.417 66.6352C85.3722 66.5291 85.3019 66.4505 85.2197 66.404C85.1001 66.3364 84.9556 66.3371 84.8279 66.4207C84.6133 66.5644 84.5297 66.8918 84.641 67.153L85.654 69.5417L83.4867 70.1322C83.2494 70.1962 83.0947 70.4836 83.141 70.7747C83.169 70.9472 83.2611 71.0814 83.3803 71.1487C83.4628 71.1953 83.5583 71.21 83.6547 71.1836L85.534 70.6719L84.8838 72.3503C84.7784 72.6224 84.8706 72.9418 85.0874 73.0643C85.3058 73.1878 85.5664 73.0679 85.6718 72.7958L86.3223 71.117L87.2009 73.1886C87.2464 73.2952 87.3173 73.3746 87.3999 73.4214C87.5194 73.4888 87.663 73.488 87.79 73.4032C88.0046 73.2595 88.0883 72.9321 87.9783 72.6717L86.9647 70.2828L89.1326 69.6925C89.3684 69.6277 89.523 69.3403 89.4768 69.0492V69.049Z" fill="white"/>
<path d="M87.5792 73.5362C87.5065 73.5362 87.4339 73.5175 87.367 73.4797C87.2684 73.4238 87.1896 73.3323 87.1395 73.2149L86.3252 71.2949L85.7341 72.8202C85.6715 72.982 85.5543 73.104 85.4128 73.1545C85.2933 73.1973 85.1661 73.1858 85.0548 73.1227C84.8097 72.9842 84.7052 72.6271 84.8217 72.3266L85.4241 70.7715L83.6725 71.2484C83.5631 71.2782 83.4479 71.2638 83.3476 71.2073C83.2052 71.1266 83.1058 70.973 83.0753 70.7858C83.0239 70.4624 83.2008 70.1405 83.4695 70.0679L85.563 69.4975L84.5797 67.1793C84.4566 66.8908 84.5515 66.5257 84.791 66.3654C84.9349 66.2708 85.1074 66.2638 85.2528 66.3462C85.3513 66.4018 85.4293 66.4928 85.4786 66.6095L86.293 68.5287L86.8839 67.0038C86.9464 66.8424 87.0636 66.7208 87.2053 66.67C87.3253 66.6272 87.4522 66.6385 87.5634 66.7011C87.8125 66.8421 87.9149 67.1918 87.7963 67.4974L87.1938 69.0528L88.9456 68.5754C89.057 68.5455 89.1692 68.5598 89.2704 68.6173C89.4134 68.6981 89.5127 68.8515 89.5427 69.0382C89.5939 69.3608 89.4177 69.6829 89.1501 69.7564L87.0557 70.3267L88.0395 72.6451C88.1613 72.9335 88.0659 73.2982 87.8269 73.4581C87.75 73.5097 87.6642 73.5356 87.5789 73.5356L87.5792 73.5362ZM86.3225 71.0504C86.3492 71.0504 86.3736 71.0664 86.384 71.0912L87.2625 73.1626C87.301 73.2525 87.3599 73.322 87.4327 73.3633C87.5352 73.4209 87.6519 73.4154 87.7529 73.3476C87.9413 73.2215 88.0148 72.93 87.9169 72.6976L86.9033 70.3089C86.8957 70.2911 86.8962 70.2709 86.9046 70.2536C86.913 70.2362 86.9287 70.2234 86.9471 70.2183L89.1153 69.628C89.319 69.572 89.4519 69.3172 89.4111 69.0598C89.3877 68.9155 89.3106 68.7938 89.2048 68.7339C89.1348 68.6944 89.0575 68.6841 88.9807 68.7049L87.1014 69.217C87.0767 69.2234 87.0511 69.2159 87.0342 69.1973C87.0173 69.1786 87.0125 69.1519 87.0215 69.1284L87.6719 67.4496C87.7653 67.2085 87.6872 66.9251 87.4977 66.8178C87.4198 66.7738 87.334 66.7662 87.2503 66.796C87.1451 66.8337 87.057 66.927 87.0083 67.0522L86.3581 68.7306C86.3483 68.756 86.3241 68.7728 86.2969 68.7732C86.2656 68.7735 86.2449 68.7576 86.2343 68.7324L85.3556 66.6614C85.3179 66.5722 85.2595 66.5034 85.1869 66.4625C85.0846 66.4045 84.9671 66.4097 84.8647 66.4768C84.6765 66.6028 84.6035 66.8945 84.7025 67.1269L85.7157 69.5156C85.7233 69.5334 85.7228 69.5536 85.7144 69.571C85.706 69.5883 85.6903 69.6012 85.6719 69.6063L83.5044 70.1968C83.2995 70.2521 83.1662 70.5067 83.2071 70.7643C83.2307 70.9089 83.3078 71.031 83.4133 71.0908C83.4834 71.1303 83.5608 71.1399 83.637 71.1193L85.5165 70.6075C85.5412 70.6009 85.5668 70.6085 85.5837 70.6272C85.6006 70.6459 85.6055 70.6726 85.5964 70.6961L84.9461 72.3745C84.8527 72.6157 84.9309 72.899 85.1205 73.0062C85.1988 73.0506 85.2843 73.0582 85.3679 73.0285C85.4728 72.991 85.5608 72.8974 85.6097 72.7718L86.2602 71.093C86.27 71.0676 86.2943 71.0508 86.3215 71.0504H86.3225Z" fill="#0A0A0A"/>
<path d="M97.0704 73.3458C97.0426 73.1744 96.9508 73.04 96.8311 72.9723C96.7488 72.9258 96.6535 72.9108 96.5567 72.9369L94.6772 73.449L95.3276 71.7702C95.433 71.4981 95.3422 71.1795 95.1239 71.0562C94.9071 70.9336 94.645 71.0526 94.5396 71.3246L93.8893 73.003L93.0106 70.932C92.966 70.8261 92.8955 70.7474 92.8134 70.7009C92.6939 70.6334 92.5492 70.6339 92.4215 70.7176C92.2071 70.8612 92.1233 71.1886 92.2347 71.4499L93.2478 73.8385L91.0804 74.429C90.8431 74.493 90.6885 74.7805 90.7347 75.0715C90.7629 75.244 90.8549 75.3782 90.9742 75.4455C91.0566 75.4922 91.1521 75.5069 91.2484 75.4803L93.1278 74.9686L92.4775 76.647C92.3721 76.9191 92.4643 77.2385 92.6812 77.361C92.8994 77.4843 93.1601 77.3646 93.2656 77.0925L93.9161 75.4137L94.7946 77.4851C94.8401 77.5919 94.9109 77.6711 94.9935 77.7179C95.1129 77.7854 95.2566 77.7846 95.3835 77.6996C95.5981 77.556 95.6817 77.2286 95.5719 76.9682L94.5582 74.5792L96.7262 73.989C96.962 73.9242 97.1166 73.6367 97.0704 73.3457V73.3458Z" fill="white"/>
<path d="M95.1729 77.8331C95.1002 77.8331 95.0277 77.8142 94.9607 77.7764C94.862 77.7204 94.7834 77.6289 94.7333 77.5117L93.9189 75.5917L93.3279 77.1169C93.2652 77.2788 93.148 77.4006 93.0067 77.4512C92.8875 77.4936 92.7602 77.4826 92.6484 77.4193C92.4034 77.2809 92.2989 76.9237 92.4155 76.6232L93.0179 75.0683L91.2661 75.5451C91.1553 75.5755 91.043 75.5614 90.9414 75.504C90.7989 75.4234 90.6995 75.2699 90.6691 75.0826C90.6176 74.7592 90.7945 74.4373 91.0633 74.3647L93.1567 73.7942L92.1735 71.476C92.0505 71.1875 92.1453 70.8224 92.3846 70.6622C92.5285 70.5679 92.7009 70.5606 92.8466 70.6428C92.9451 70.6987 93.0232 70.7897 93.0724 70.9062L93.8867 72.8255L94.4777 71.3007C94.5402 71.1393 94.6574 71.0175 94.7992 70.9669C94.9188 70.9242 95.046 70.9353 95.157 70.9981C95.4063 71.1389 95.5086 71.4886 95.3901 71.7943L94.7875 73.3496L96.5393 72.8723C96.6507 72.8422 96.7627 72.8568 96.8642 72.914C97.007 72.9947 97.1063 73.1483 97.1365 73.3349C97.1877 73.6574 97.0116 73.9797 96.7439 74.0533L94.6495 74.6235L95.6333 76.942C95.755 77.2305 95.6596 77.5952 95.4205 77.755C95.3436 77.8066 95.2579 77.8325 95.1727 77.8327L95.1729 77.8331ZM93.9163 75.3471C93.943 75.3471 93.9673 75.3632 93.9777 75.3879L94.8562 77.4593C94.8946 77.5492 94.9536 77.6186 95.0265 77.66C95.1291 77.7179 95.2455 77.7121 95.3465 77.6444C95.5351 77.5182 95.6087 77.2268 95.5106 76.9944L94.497 74.6056C94.4894 74.5879 94.4899 74.5677 94.4984 74.5503C94.5068 74.5329 94.5224 74.5201 94.5409 74.515L96.709 73.9248C96.9128 73.8688 97.0456 73.6138 97.0047 73.3566C96.9814 73.2123 96.9042 73.0905 96.7985 73.0307C96.7285 72.9911 96.6513 72.9811 96.5744 73.0017L94.6952 73.5137C94.6704 73.5202 94.6448 73.5128 94.628 73.4941C94.611 73.4754 94.6062 73.4487 94.6153 73.4251L95.2657 71.7463C95.3591 71.5051 95.2809 71.2218 95.0913 71.1147C95.0132 71.0703 94.9277 71.0631 94.8442 71.0928C94.7389 71.1304 94.6507 71.2237 94.6021 71.3489L93.9518 73.0273C93.9421 73.0527 93.9179 73.0695 93.8906 73.0699C93.8627 73.0686 93.8386 73.0543 93.8281 73.0292L92.9493 70.9582C92.9116 70.8691 92.8534 70.8001 92.7807 70.7591C92.6781 70.7011 92.5607 70.7066 92.4584 70.7735C92.2702 70.8995 92.1973 71.1912 92.2963 71.4238L93.3095 73.8124C93.3171 73.8302 93.3165 73.8504 93.3081 73.8677C93.2997 73.8851 93.2841 73.8979 93.2656 73.903L91.0981 74.4935C90.8932 74.5488 90.7599 74.8034 90.8008 75.061C90.8247 75.2079 90.9 75.327 91.007 75.3874C91.077 75.4271 91.1549 75.4368 91.2307 75.416L93.1104 74.9043C93.1343 74.8977 93.1606 74.9054 93.1774 74.9239C93.1944 74.9428 93.1992 74.9694 93.1901 74.9929L92.5399 76.6713C92.4465 76.9125 92.5246 77.1958 92.7141 77.303C92.7926 77.3473 92.8782 77.3551 92.9616 77.3251C93.0665 77.2876 93.1547 77.1942 93.2035 77.0686L93.854 75.3898C93.8638 75.3644 93.8881 75.3475 93.9152 75.3471H93.9163Z" fill="#0A0A0A"/>
<path d="M104.668 77.6388C104.64 77.4674 104.548 77.3329 104.429 77.2653C104.347 77.2188 104.251 77.2037 104.155 77.2299L102.275 77.742L102.925 76.0632C103.031 75.7911 102.94 75.4727 102.722 75.3492C102.505 75.2267 102.243 75.3456 102.137 75.6177L101.487 77.2961L100.608 75.2251C100.564 75.1189 100.493 75.0404 100.411 74.9939C100.292 74.9263 100.147 74.9269 100.019 75.0106C99.8047 75.1542 99.7211 75.4816 99.8324 75.7429L100.845 78.1315L98.6781 78.722C98.4408 78.786 98.2862 79.0735 98.3324 79.3645C98.3605 79.537 98.4525 79.6712 98.5717 79.7385C98.6542 79.7852 98.7497 79.7999 98.8461 79.7734L100.725 79.2618L100.075 80.9402C99.9698 81.2122 100.062 81.5316 100.279 81.6541C100.497 81.7776 100.758 81.6577 100.863 81.3857L101.514 79.7069L102.392 81.7784C102.438 81.8852 102.509 81.9644 102.591 82.0112C102.711 82.0787 102.854 82.0779 102.981 81.993C103.196 81.8494 103.28 81.522 103.17 81.2615L102.156 78.8726L104.324 78.2824C104.56 78.2176 104.715 77.9301 104.668 77.6391L104.668 77.6388Z" fill="white"/>
<path d="M102.77 82.1261C102.698 82.1261 102.625 82.1073 102.558 82.0696C102.46 82.0137 102.381 81.9222 102.331 81.8049L101.516 79.8849L100.926 81.4101C100.863 81.572 100.746 81.6938 100.604 81.7443C100.485 81.7868 100.358 81.7756 100.246 81.7125C100.001 81.574 99.8965 81.2169 100.013 80.9164L100.615 79.3613L98.8639 79.8382C98.7543 79.8682 98.639 79.8536 98.5389 79.7971C98.3963 79.7164 98.297 79.5628 98.2667 79.3755C98.2153 79.0521 98.3922 78.7302 98.6609 78.6578L100.754 78.0873L99.7711 75.7691C99.648 75.4807 99.7428 75.1155 99.9823 74.9553C100.126 74.8607 100.299 74.8537 100.444 74.9359C100.543 74.9916 100.621 75.0827 100.67 75.1993L101.484 77.1185L102.075 75.5936C102.138 75.4322 102.255 75.3104 102.397 75.2598C102.516 75.217 102.644 75.2283 102.755 75.2911C103.004 75.4319 103.106 75.7816 102.988 76.0874L102.385 77.6427L104.137 77.1654C104.248 77.1353 104.36 77.1499 104.462 77.2071C104.605 77.2878 104.704 77.4413 104.734 77.628V77.6281C104.785 77.9507 104.609 78.2729 104.342 78.3464L102.247 78.9166L103.231 81.2351C103.353 81.5235 103.257 81.8881 103.018 82.0481C102.941 82.0997 102.856 82.1256 102.77 82.1256L102.77 82.1261ZM101.514 79.6403C101.541 79.6403 101.565 79.6564 101.575 79.6811L102.454 81.7525C102.492 81.8424 102.551 81.9119 102.624 81.9532C102.726 82.0111 102.843 82.0053 102.944 81.9376C103.133 81.8114 103.206 81.52 103.108 81.2877L102.095 78.8988C102.087 78.881 102.088 78.8609 102.096 78.8435C102.104 78.8261 102.12 78.8133 102.139 78.8082L104.306 78.218C104.51 78.162 104.643 77.9072 104.603 77.6498C104.579 77.5055 104.502 77.3836 104.396 77.3239C104.326 77.2843 104.249 77.2741 104.172 77.2949L102.293 77.8069C102.268 77.8135 102.242 77.806 102.226 77.7873C102.209 77.7686 102.204 77.7419 102.213 77.7183L102.863 76.0395C102.957 75.7983 102.878 75.5149 102.689 75.4077C102.611 75.3636 102.526 75.3561 102.442 75.3859C102.336 75.4235 102.248 75.5169 102.2 75.6421L101.549 77.3205C101.54 77.3459 101.515 77.3627 101.488 77.3631C101.464 77.3647 101.436 77.3475 101.426 77.3224L100.547 75.2514C100.509 75.1623 100.451 75.0934 100.378 75.0523C100.276 74.9944 100.159 74.9996 100.056 75.0667C99.8679 75.1927 99.7949 75.4844 99.8939 75.7168L100.907 78.1056C100.915 78.1234 100.914 78.1435 100.906 78.1609C100.897 78.1783 100.882 78.1911 100.863 78.1962L98.6958 78.7867C98.4909 78.842 98.3576 79.0966 98.3985 79.3542C98.422 79.4988 98.499 79.621 98.6045 79.6807C98.6746 79.7202 98.7523 79.73 98.8284 79.7093L100.708 79.1975C100.732 79.1909 100.758 79.1986 100.775 79.2171C100.792 79.2358 100.797 79.2626 100.788 79.2861L100.137 80.9645C100.044 81.2057 100.122 81.489 100.312 81.5961C100.39 81.6405 100.476 81.6483 100.559 81.6183C100.664 81.5808 100.752 81.4872 100.801 81.3616L101.452 79.6828C101.461 79.6574 101.486 79.6406 101.513 79.6402H101.514V79.6403Z" fill="#0A0A0A"/>
<path d="M104.305 23.4642C103.885 23.227 103.381 23.4588 103.178 23.9818C102.975 24.5049 103.151 25.123 103.57 25.3602C103.99 25.5974 104.496 25.3647 104.699 24.8416C104.902 24.3186 104.724 23.7014 104.305 23.4642Z" fill="#0A0A0A"/>
<path d="M103.916 25.5202C103.785 25.5202 103.656 25.4861 103.537 25.4187C103.09 25.1663 102.901 24.511 103.116 23.958C103.23 23.6635 103.442 23.4419 103.699 23.3503C103.912 23.274 104.139 23.294 104.337 23.4063C104.785 23.6592 104.975 24.314 104.761 24.8659C104.647 25.1606 104.434 25.3822 104.176 25.4743C104.091 25.5049 104.003 25.52 103.916 25.52V25.5202ZM103.958 23.4386C103.886 23.4386 103.814 23.451 103.744 23.4761C103.524 23.5547 103.34 23.7481 103.24 24.0064C103.049 24.4999 103.212 25.0813 103.603 25.3025C103.767 25.3952 103.955 25.4118 104.131 25.3486C104.352 25.2697 104.536 25.0762 104.636 24.8178C104.827 24.3254 104.664 23.7443 104.272 23.5227C104.173 23.4669 104.066 23.4386 103.958 23.4386H103.958Z" fill="#0A0A0A"/>
<path d="M139.47 38.7439C141.954 40.1485 142.997 43.7988 141.796 46.8983L121.537 99.1851C120.621 101.551 118.663 102.91 116.683 102.796L117.945 102.869C119.926 102.982 121.883 101.623 122.8 99.2575L143.059 46.9707C144.259 43.8713 143.217 40.2209 140.732 38.8163L73.3236 0.70695C72.7353 0.374478 72.119 0.197415 71.5047 0.16227L70.2422 0.0898438C70.8565 0.125122 71.4728 0.302047 72.061 0.634519L139.47 38.7439H139.47Z" fill="url(#paint1_linear_3346_91328)"/>
<path d="M118.184 102.943C118.103 102.943 118.023 102.94 117.942 102.936L116.68 102.863C116.643 102.861 116.615 102.83 116.617 102.793C116.619 102.756 116.648 102.729 116.687 102.73C118.711 102.845 120.591 101.445 121.476 99.1615L141.734 46.8746C142.921 43.8107 141.891 40.1896 139.437 38.8025L72.0285 0.693023C71.4623 0.372845 70.8602 0.192445 70.2388 0.156899C70.2019 0.154761 70.1739 0.123226 70.1759 0.0863445C70.1779 0.0497298 70.2058 0.0215336 70.2463 0.0235381L71.5088 0.0959647C72.1508 0.132713 72.7725 0.318858 73.3568 0.649192L140.766 38.7587C143.274 40.1772 144.331 43.872 143.121 46.9954L122.863 99.2822C121.992 101.531 120.173 102.943 118.184 102.943L118.184 102.943ZM117.738 102.79L117.95 102.802C119.981 102.918 121.854 101.517 122.739 99.2336L142.997 46.9467C144.184 43.8829 143.154 40.2618 140.7 38.8747L73.2915 0.765185C72.7251 0.445006 72.1229 0.264606 71.5016 0.229061L71.2773 0.216231C71.5563 0.306298 71.8293 0.426567 72.0944 0.5765L139.503 38.686C142.012 40.1043 143.069 43.7994 141.859 46.9227L121.6 99.2096C120.85 101.146 119.397 102.462 117.738 102.79Z" fill="#0A0A0A"/>
<path d="M115.811 102.244C118.297 103.649 118.5 105.348 116.264 106.04L78.5423 117.708C76.3063 118.4 72.4808 117.822 69.9948 116.416L2.58752 78.3075C0.101591 76.9021 -0.100993 75.2031 2.13504 74.5114L39.8566 62.843C42.0926 62.1513 45.9181 62.7295 48.4041 64.135L115.812 102.244L115.811 102.244Z" fill="#D2B9EE"/>
<path d="M76.3045 118.068C74.2167 118.068 71.7427 117.483 69.9625 116.477L2.5551 78.3681C1.1767 77.5888 0.435857 76.6802 0.522449 75.8754C0.589398 75.2533 1.15532 74.7473 2.11586 74.4501L39.8373 62.7817C42.0841 62.0867 45.9421 62.6687 48.4373 64.0794L115.845 102.188C117.223 102.967 117.964 103.876 117.877 104.681C117.81 105.303 117.244 105.809 116.284 106.106L78.5625 117.774C77.9188 117.974 77.1426 118.068 76.3045 118.068ZM42.1003 62.6206C41.2743 62.6206 40.5106 62.7133 39.8767 62.9095L2.15528 74.5778C1.249 74.8582 0.716213 75.324 0.655278 75.8897C0.574565 76.6391 1.29109 77.5 2.62085 78.2518L70.0282 116.36C72.4957 117.755 76.3061 118.332 78.5231 117.647L116.245 105.978C117.151 105.698 117.684 105.232 117.745 104.666C117.825 103.917 117.109 103.056 115.779 102.304L48.3716 64.1957C46.6095 63.1996 44.1624 62.6204 42.1002 62.6204L42.1003 62.6206Z" fill="#0A0A0A"/>
<path d="M107.162 100.656L49.5019 68.0582C48.7366 67.6255 47.5574 67.4473 46.869 67.6603L27.0674 73.7855C26.379 73.9983 26.4426 74.5216 27.2079 74.9543L84.8685 107.553C85.6338 107.985 86.8103 108.163 87.4987 107.95L107.3 101.825C107.989 101.612 107.928 101.089 107.162 100.656Z" fill="white"/>
<path d="M86.8117 108.105C86.1606 108.105 85.3901 107.924 84.836 107.61L27.1755 75.012C26.7338 74.7624 26.497 74.4659 26.5258 74.1987C26.5486 73.9879 26.7341 73.8183 27.0481 73.7211L46.8497 67.5959C47.5517 67.3785 48.7568 67.5596 49.5352 67.9996L107.196 100.598C107.636 100.847 107.873 101.143 107.844 101.41C107.821 101.621 107.635 101.791 107.321 101.888L87.5189 108.013C87.3173 108.076 87.0742 108.105 86.8117 108.105ZM47.562 67.6361C47.312 67.6361 47.0808 67.6642 46.889 67.7235L27.0874 73.8488C26.8275 73.9292 26.6752 74.0586 26.6586 74.213C26.6362 74.4216 26.8538 74.6767 27.2411 74.8957L84.9016 107.494C85.6512 107.918 86.8076 108.094 87.4792 107.886L107.281 101.761C107.541 101.68 107.694 101.55 107.711 101.396C107.733 101.187 107.516 100.933 107.13 100.714L49.4692 68.116C48.9328 67.8127 48.1884 67.6364 47.562 67.6364V67.6361Z" fill="#0A0A0A"/>
<path d="M64.6685 97.5653L44.1373 85.9581C43.2529 85.4582 41.8907 85.2522 41.0939 85.4987L29.6384 89.0421C28.8429 89.2881 28.9151 89.8932 29.7994 90.3931L50.3307 102C51.2152 102.5 52.5774 102.706 53.3727 102.46L64.8282 98.9167C65.6249 98.6703 65.5529 98.0653 64.6684 97.5652" fill="white"/>
<path d="M52.5742 102.63C51.8231 102.63 50.9339 102.42 50.2942 102.058L29.763 90.4509C29.2569 90.1648 28.9855 89.8261 29.0183 89.5216C29.0441 89.2821 29.256 89.0889 29.6152 88.9779L41.0707 85.4343C41.881 85.1836 43.2697 85.3923 44.1666 85.8993L64.698 97.5065C65.2039 97.7926 65.4753 98.1313 65.4426 98.4355C65.4168 98.6753 65.2043 98.8686 64.8444 98.9799L53.389 102.524C53.1567 102.595 52.8766 102.63 52.5741 102.63L52.5742 102.63ZM41.8916 85.4606C41.6013 85.4606 41.3328 85.4932 41.1101 85.562L29.6546 89.1056C29.3498 89.2 29.1709 89.3528 29.1511 89.536C29.1248 89.7812 29.378 90.0799 29.8287 90.3347L50.36 101.942C51.2294 102.433 52.5702 102.637 53.3496 102.396L64.805 98.8526C65.1106 98.758 65.2898 98.605 65.3095 98.4215C65.3359 98.1763 65.0827 97.8779 64.6321 97.6231L44.1007 86.0158C43.4799 85.6648 42.6177 85.4606 41.8916 85.4606Z" fill="#0A0A0A"/>
<path d="M116.262 106.04L78.5401 117.708C76.304 118.4 72.4786 117.822 69.9925 116.416L2.58529 78.3077C1.11148 77.4745 0.440254 76.538 0.603951 75.7695L0.195977 77.6847C0.0322796 78.4532 0.703504 79.3897 2.17731 80.2229L69.5847 118.331C72.0706 119.737 75.8962 120.315 78.1322 119.624L115.854 107.955C116.764 107.673 117.27 107.225 117.383 106.697L117.791 104.782C117.678 105.31 117.172 105.758 116.262 106.04L116.262 106.04Z" fill="url(#paint2_linear_3346_91328)"/>
<path d="M75.8944 119.981C73.8068 119.981 71.3329 119.397 69.5527 118.39L2.14544 80.2815C0.687933 79.4574 -0.0460993 78.5061 0.131629 77.6713L0.539202 75.7586C0.539202 75.7578 0.539602 75.7569 0.539736 75.756C0.54762 75.7197 0.584101 75.6972 0.619112 75.7045C0.655192 75.7123 0.678178 75.7477 0.670561 75.7838C0.508066 76.5462 1.23662 77.468 2.61942 78.2499L70.0268 116.358C72.4943 117.753 76.3046 118.33 78.5217 117.645L116.243 105.976C117.102 105.711 117.615 105.293 117.726 104.768C117.734 104.732 117.769 104.709 117.806 104.717C117.842 104.725 117.865 104.76 117.857 104.796L117.857 104.798L117.449 106.711C117.327 107.286 116.782 107.738 115.875 108.019L78.1531 119.688C77.5094 119.887 76.733 119.981 75.8948 119.981L75.8944 119.981ZM0.554301 76.3282L0.262186 77.6991C0.0998257 78.4616 0.828244 79.3835 2.21105 80.1652L69.6184 118.274C72.0859 119.669 75.8968 120.246 78.1133 119.56L115.835 107.892C116.693 107.626 117.206 107.208 117.318 106.684L117.611 105.31C117.348 105.644 116.899 105.913 116.282 106.104L78.5608 117.773C76.314 118.468 72.4558 117.885 69.9608 116.475L2.55341 78.3662C1.42036 77.7255 0.724412 77.0079 0.554301 76.3282Z" fill="#0A0A0A"/>
<g clip-path="url(#clip2_3346_91328)">
<path d="M24.6929 24.7136L27.4972 23.6293L28.6092 51.3279L25.805 52.4121L24.6929 24.7136Z" fill="#232323"/>
<path d="M25.8317 52.518C25.8024 52.5259 25.7708 52.5205 25.7451 52.5029C25.7162 52.4832 25.6983 52.4505 25.6967 52.4152L24.5847 24.7168C24.5829 24.6701 24.61 24.6279 24.6524 24.6115L27.4566 23.5271C27.4882 23.5148 27.5249 23.5191 27.5538 23.5388C27.5827 23.5585 27.6006 23.5912 27.6022 23.6265L28.7142 51.325C28.716 51.3716 28.6889 51.4138 28.6465 51.4303L25.8423 52.5146C25.8389 52.5159 25.8353 52.5171 25.8317 52.518ZM24.801 24.7887L25.9037 52.256L28.4978 51.253L27.3951 23.7858L24.801 24.7887Z" fill="#232323"/>
<path d="M11.6418 24.5802L14.446 23.4958L27.4981 23.6301L24.6939 24.7144L11.6418 24.5802Z" fill="#D2B9EE"/>
<path d="M24.7206 24.8202C24.7115 24.8226 24.7021 24.8238 24.6926 24.8237L11.6406 24.6894C11.5892 24.6889 11.5451 24.651 11.5354 24.5992C11.5258 24.5473 11.5535 24.4964 11.6014 24.4778L14.4056 23.3935C14.4179 23.3889 14.4308 23.3865 14.4439 23.3865L27.496 23.5208C27.5474 23.5214 27.5915 23.5593 27.6012 23.6111C27.6108 23.663 27.5831 23.7139 27.5352 23.7325L24.731 24.8169C24.7276 24.8181 24.7241 24.8193 24.7204 24.8203L24.7206 24.8202ZM12.2112 24.4767L24.6719 24.6048L26.9254 23.7335L14.4647 23.6053L12.2112 24.4767Z" fill="#232323"/>
<path d="M11.641 24.5788L24.693 24.713L25.8051 52.4115L12.753 52.2772L11.641 24.5788Z" fill="#6817C5"/>
<path d="M25.8319 52.5175C25.8228 52.5199 25.8134 52.5211 25.8039 52.521L12.7519 52.3867C12.6944 52.3861 12.6472 52.3391 12.6448 52.2804L11.5327 24.5818C11.5316 24.5521 11.5423 24.5234 11.5622 24.5023C11.5823 24.481 11.6101 24.4693 11.6389 24.4696L24.6909 24.6039C24.7484 24.6045 24.7956 24.6515 24.798 24.7103L25.91 52.4087C25.9112 52.4384 25.9005 52.4671 25.8805 52.4882C25.867 52.5024 25.8501 52.5125 25.8317 52.5174L25.8319 52.5175ZM12.8538 52.1692L25.6925 52.3012L24.5891 24.8214L11.7505 24.6893L12.8538 52.1692Z" fill="#232323"/>
<path d="M21.2274 49.9563C22.1593 49.5959 22.6014 48.4793 22.215 47.4623C21.8286 46.4452 20.7599 45.9129 19.828 46.2733C18.8961 46.6336 18.4539 47.7503 18.8403 48.7673C19.2267 49.7844 20.2955 50.3167 21.2274 49.9563Z" fill="white"/>
<path d="M21.091 50.1167C20.9359 50.1583 20.7742 50.1788 20.6087 50.1771C19.5457 50.1662 18.6438 49.2336 18.5983 48.0984C18.5756 47.5306 18.7661 47.0032 19.1346 46.6133C19.4819 46.2458 19.9495 46.0461 20.4509 46.0513C21.5139 46.0622 22.4157 46.9948 22.4613 48.13C22.484 48.698 22.2937 49.2256 21.9253 49.6152C21.6925 49.8614 21.4058 50.0322 21.0909 50.1166L21.091 50.1167ZM20.0263 46.3232C19.748 46.3977 19.4946 46.5488 19.2887 46.7666C18.9605 47.1138 18.791 47.5847 18.8114 48.0925C18.8522 49.1117 19.658 49.9488 20.6077 49.9586C21.0511 49.9631 21.4642 49.7868 21.7714 49.462C22.0993 49.115 22.2687 48.644 22.2482 48.136C22.2073 47.1169 21.4014 46.2798 20.4519 46.2699C20.3059 46.2684 20.163 46.2865 20.0263 46.3232Z" fill="#232323"/>
<path d="M41.5859 9.04866C40.9751 7.45566 40.0743 6.75882 39.2508 6.75027C39.0613 6.74822 38.8758 6.78272 38.6991 6.85117L35.8948 7.9354C36.0716 7.86706 36.2571 7.83256 36.4465 7.8345C37.2701 7.84305 38.1709 8.53989 38.7817 10.133C40.8628 15.5554 38.3954 21.7271 37.3337 24.3396L40.1379 23.2553C41.1997 20.6429 43.667 14.4711 41.5859 9.04866Z" fill="#D2B9EE"/>
<path d="M37.3643 24.4454C37.3273 24.4554 37.2871 24.444 37.2598 24.415C37.2298 24.3833 37.2211 24.3367 37.2374 24.2964C38.2035 21.9191 40.7696 15.6042 38.6847 10.1718C38.1453 8.76505 37.3304 7.95303 36.4492 7.94384C36.2743 7.94207 36.1017 7.97368 35.9358 8.03775C35.8801 8.05867 35.8191 8.03025 35.7977 7.97376C35.7761 7.91729 35.8032 7.85426 35.8581 7.83298L38.6624 6.74896C38.8522 6.67531 39.0513 6.63908 39.2525 6.64107C40.2263 6.65119 41.1139 7.51479 41.6873 9.01002C43.8042 14.5256 41.2138 20.8992 40.2387 23.2987C40.2276 23.326 40.2061 23.3473 40.1789 23.3577L37.3747 24.4421C37.3713 24.4433 37.3678 24.4445 37.3642 24.4455L37.3643 24.4454ZM36.6914 7.74574C37.5689 7.8847 38.3578 8.72432 38.8831 10.0944C40.9338 15.4378 38.5664 21.5872 37.5302 24.1472L40.059 23.1694C41.0381 20.7602 43.5618 14.4882 41.4891 9.08749C40.9497 7.68077 40.1349 6.86885 39.2535 6.85969C39.0786 6.85781 38.9058 6.88961 38.7403 6.95358L36.6915 7.74571L36.6914 7.74574Z" fill="#232323"/>
<path d="M51.5519 44.2027L54.3561 43.1185C55.9336 43.2922 57.2246 44.7153 57.2937 46.4359C57.3508 47.8556 56.5597 49.0556 55.4014 49.5035L52.5971 50.5877C53.7556 50.1398 54.5465 48.9398 54.4895 47.5201C54.4204 45.7996 53.1294 44.3765 51.5519 44.2027Z" fill="#D2B9EE"/>
<path d="M52.6236 50.6934C52.5716 50.7073 52.5162 50.6788 52.4961 50.626C52.4746 50.5695 52.5017 50.5065 52.5566 50.4852C53.7013 50.0425 54.4347 48.852 54.3813 47.5229C54.3147 45.8629 53.0933 44.4823 51.5403 44.3113C51.4912 44.3059 51.4516 44.2666 51.4446 44.2164C51.4378 44.1662 51.4654 44.1181 51.5114 44.1004L54.3157 43.0161C54.3313 43.0104 54.3479 43.0081 54.3645 43.0099C56.0232 43.1925 57.3277 44.6642 57.3987 46.433C57.4558 47.8554 56.6682 49.1304 55.4386 49.6058L52.6343 50.6901C52.6308 50.6913 52.6272 50.6925 52.6237 50.6934L52.6236 50.6934ZM51.9556 44.1632C53.422 44.517 54.529 45.8915 54.5943 47.517C54.6347 48.5251 54.2509 49.4593 53.5861 50.0871L55.3608 49.4009C56.5055 48.9583 57.2388 47.7678 57.1854 46.4387C57.1192 44.7877 55.9106 43.4129 54.3696 43.2299L51.9556 44.1632Z" fill="#232323"/>
<path d="M51.8918 37.6358L54.696 36.5516C56.3926 36.5691 57.827 38.054 57.8999 39.8701C57.9569 41.29 57.1648 42.4911 56.0057 42.9393L53.2015 44.0236C54.3605 43.5754 55.1527 42.3742 55.0957 40.9543C55.0228 39.1382 53.5884 37.6533 51.8918 37.6358Z" fill="#D2B9EE"/>
<path d="M53.228 44.1295C53.176 44.1434 53.1206 44.1149 53.1005 44.062C53.079 44.0056 53.1061 43.9425 53.161 43.9213L53.162 43.921C54.3073 43.4775 55.0408 42.2868 54.9874 40.9574C54.9171 39.203 53.5277 37.762 51.8905 37.7453C51.8392 37.7448 51.7951 37.7069 51.7854 37.655C51.7758 37.6032 51.8034 37.5523 51.8513 37.5336L54.6556 36.4493C54.6678 36.4447 54.6809 36.4423 54.694 36.4423C56.4446 36.4603 57.9297 37.9967 58.0049 39.8671C58.0621 41.2901 57.2736 42.5658 56.043 43.0417L53.2409 44.1251C53.2402 44.1253 53.2394 44.1256 53.2388 44.1259C53.2353 44.1272 53.2318 44.1283 53.2283 44.1293L53.228 44.1295ZM52.3659 37.5694C53.9021 37.8305 55.1324 39.2533 55.2005 40.9516C55.241 41.9603 54.8568 42.8948 54.1913 43.523L55.9652 42.8371C57.1112 42.394 57.8451 41.203 57.7917 39.8731C57.7216 38.1258 56.3433 36.6895 54.7147 36.6613L52.366 37.5694L52.3659 37.5694Z" fill="#232323"/>
<path d="M52.1514 31.0651L54.9556 29.9808C56.6506 29.9982 58.085 31.4847 58.158 33.301C58.215 34.7211 57.4226 35.9224 56.2639 36.3704L53.4596 37.4546C54.6183 37.0067 55.4108 35.8053 55.3537 34.3852C55.2808 32.5691 53.8463 31.0826 52.1514 31.0651Z" fill="#D2B9EE"/>
<path d="M53.4862 37.5605C53.4341 37.5744 53.3788 37.5459 53.3587 37.4931C53.3372 37.4366 53.3642 37.3736 53.4191 37.3523C54.5649 36.9092 55.2989 35.718 55.2454 34.3881C55.175 32.6329 53.7864 31.1912 52.1502 31.1744C52.0988 31.1739 52.0547 31.1359 52.045 31.0841C52.0354 31.0322 52.0631 30.9813 52.1109 30.9627L54.9152 29.8785C54.9275 29.8739 54.9404 29.8715 54.9535 29.8715C56.7032 29.8894 58.1877 31.4266 58.2629 33.298C58.32 34.721 57.5317 35.9969 56.3011 36.4727L53.4975 37.5568C53.4975 37.5568 53.4972 37.5568 53.4969 37.5569C53.4934 37.5582 53.4898 37.5594 53.4863 37.5603L53.4862 37.5605ZM52.6253 30.9985C54.1606 31.26 55.3903 32.6834 55.4586 34.3822C55.4991 35.391 55.1147 36.3257 54.4493 36.9539L56.2233 36.2679C57.3691 35.8249 58.1031 34.6337 58.0496 33.3038C57.9795 31.5556 56.6017 30.1184 54.9741 30.0903L52.6253 30.9985Z" fill="#232323"/>
<path d="M52.7551 24.4952L55.5593 23.411C57.2559 23.4284 58.6903 24.9149 58.7632 26.7295C58.8202 28.1494 58.0281 29.3505 56.869 29.7987L54.0647 30.8829C55.2239 30.4347 56.0161 29.2336 55.959 27.8137C55.8862 25.9991 54.4516 24.5127 52.7551 24.4952Z" fill="#D2B9EE"/>
<path d="M54.0952 30.9888C54.0432 31.0028 53.9878 30.9743 53.9677 30.9214C53.9462 30.865 53.9733 30.8019 54.0281 30.7806C55.1741 30.3375 55.9081 29.1465 55.8546 27.8167C55.7843 26.0624 54.395 24.6215 52.7578 24.6046C52.7064 24.6041 52.6623 24.5661 52.6526 24.5143C52.643 24.4624 52.6707 24.4115 52.7186 24.3929L55.5228 23.3087C55.5351 23.304 55.5481 23.3017 55.5612 23.3017C57.3118 23.3197 58.797 24.8561 58.8721 26.7265C58.9293 28.1494 58.1408 29.4252 56.9101 29.9009L54.1066 30.985C54.1066 30.985 54.1062 30.9851 54.1059 30.9852C54.1024 30.9865 54.0988 30.9876 54.0953 30.9886L54.0952 30.9888ZM53.233 24.4287C54.7692 24.6899 55.9996 26.1127 56.0678 27.8109C56.1082 28.8194 55.7239 29.754 55.0584 30.3823L56.8324 29.6964C57.9783 29.2534 58.7123 28.0622 58.6589 26.7325C58.5888 24.9852 57.2104 23.5489 55.5819 23.5207L53.2332 24.4288L53.233 24.4287Z" fill="#232323"/>
<path d="M37.3332 24.3379L40.1375 23.2537L55.5596 23.4123L52.7553 24.4966L37.3332 24.3379Z" fill="#D2B9EE"/>
<path d="M52.7859 24.6024C52.7769 24.6048 52.7674 24.606 52.758 24.6059L37.3359 24.4473C37.2845 24.4467 37.2404 24.4088 37.2307 24.357C37.2211 24.3051 37.2488 24.2542 37.2967 24.2356L40.1009 23.1513C40.1133 23.1467 40.1262 23.1443 40.1393 23.1444L55.5614 23.303C55.6127 23.3036 55.6568 23.3415 55.6665 23.3933C55.6761 23.4452 55.6485 23.4961 55.6006 23.5147L52.7963 24.5989C52.7929 24.6002 52.7894 24.6014 52.7858 24.6023L52.7859 24.6024ZM37.9065 24.2345L52.7372 24.387L54.9907 23.5158L40.16 23.3633L37.9065 24.2345Z" fill="#232323"/>
<path d="M36.4459 7.83403C37.2695 7.84258 38.1703 8.53941 38.7811 10.1324C40.8622 15.5548 38.3948 21.7265 37.3331 24.339L52.7552 24.4977C54.4518 24.5152 55.8862 26.0017 55.9591 27.8162C56.032 29.6323 54.7158 31.0906 53.0192 31.0731L52.1498 31.0642C53.8448 31.0816 55.2792 32.5681 55.3522 34.3843C55.4252 36.2006 54.1089 37.6587 52.4139 37.6413L51.8906 37.6359C53.5872 37.6534 55.0216 39.1382 55.0945 40.9544C55.1675 42.7706 53.8512 44.2288 52.1547 44.2113L51.55 44.2051C53.1275 44.3788 54.4185 45.8019 54.4876 47.5225C54.5606 49.3386 53.2457 50.7952 51.5493 50.7777L25.7272 50.512L24.7678 26.6169L25.6745 26.2675C26.2355 24.7193 27.3945 21.5263 28.5886 19.9125C30.6159 17.1709 34.5967 14.6053 34.4374 11.1053C34.3456 9.08799 35.3241 7.82243 36.4459 7.83403Z" fill="white"/>
<path d="M52.3451 50.7883C52.0902 50.8566 51.8242 50.8904 51.5522 50.8876L25.7301 50.622C25.6727 50.6214 25.6255 50.5744 25.6231 50.5156L24.6637 26.6206C24.6619 26.5739 24.6891 26.5316 24.7315 26.5152L25.5936 26.1831C26.1587 24.6238 27.3106 21.4615 28.5058 19.8464C29.1106 19.0285 29.8693 18.2455 30.6725 17.4165C32.5263 15.5033 34.4432 13.525 34.3332 11.1095C34.2805 9.94941 34.5828 8.9302 35.1628 8.31317C35.5291 7.92381 35.9736 7.72068 36.4479 7.72544C37.4217 7.73567 38.3093 8.59906 38.8827 10.0945C40.9565 15.498 38.5123 21.7254 37.4953 24.2322L52.7572 24.3891C54.5078 24.4072 55.993 25.9435 56.0682 27.8141C56.1057 28.7497 55.7923 29.6184 55.1859 30.2598C54.6698 30.8058 53.9921 31.126 53.2581 31.1763C54.4875 31.6676 55.4026 32.9233 55.4612 34.3821C55.4987 35.3179 55.1852 36.1867 54.5787 36.8285C54.1246 37.3088 53.5458 37.6141 52.9132 37.7149C54.1866 38.1806 55.1437 39.4601 55.2036 40.9522C55.2411 41.8878 54.9278 42.7564 54.3214 43.3979C53.8099 43.9388 53.1402 44.2584 52.4132 44.313C53.6482 44.8155 54.5383 46.0675 54.5967 47.5201C54.6342 48.4557 54.3212 49.3241 53.7153 49.9651C53.3332 50.3693 52.8624 50.6498 52.3452 50.7883L52.3451 50.7883ZM25.8319 50.4044L51.5512 50.6689C52.3172 50.6769 53.0311 50.3725 53.5611 49.8116C54.1266 49.2133 54.4187 48.4016 54.3834 47.5258C54.3169 45.8659 53.0955 44.4852 51.5424 44.3142C51.4859 44.308 51.4432 44.2574 51.4458 44.1992C51.4483 44.1411 51.4944 44.0959 51.5519 44.0963L52.1566 44.1025C52.9226 44.1104 53.6365 43.8057 54.167 43.2446C54.7332 42.6458 55.0255 41.8336 54.9903 40.9579C54.92 39.2035 53.5306 37.7626 51.8934 37.7459C51.8345 37.7452 51.7866 37.6958 51.7864 37.6355C51.7861 37.575 51.8335 37.527 51.8926 37.5272L52.4158 37.5326C53.1809 37.5405 53.8942 37.236 54.4244 36.675C54.9906 36.0761 55.2832 35.2638 55.2479 34.3879C55.1776 32.6347 53.7921 31.1943 52.1582 31.1742L52.1525 31.1742C52.0936 31.1735 52.0457 31.1241 52.0455 31.0638C52.0452 31.0034 52.0926 30.955 52.1517 30.9555L53.0211 30.9645C53.7871 30.9723 54.501 30.6676 55.0315 30.1065C55.5976 29.5078 55.89 28.6956 55.8548 27.8199C55.7844 26.0655 54.3952 24.6246 52.7579 24.6077L37.3358 24.4491C37.3001 24.4486 37.2667 24.4301 37.2468 24.3994C37.2269 24.3687 37.2231 24.3302 37.2368 24.2966C38.2028 21.9193 40.7691 15.6047 38.6841 10.172C38.1446 8.76528 37.3298 7.95337 36.4485 7.94407C36.0331 7.93964 35.6422 8.12033 35.3172 8.46601C34.777 9.04061 34.4959 10.0015 34.546 11.1025C34.6603 13.6132 32.7104 15.6256 30.8246 17.5718C30.0264 18.3955 29.2725 19.1737 28.6762 19.9802C27.4879 21.5861 26.3321 24.7752 25.7768 26.3077C25.7662 26.3368 25.7438 26.3598 25.7155 26.3707L24.8797 26.6927L25.8317 50.4045L25.8319 50.4044Z" fill="#232323"/>
</g>
<defs>
<linearGradient id="paint0_linear_3346_91328" x1="149.087" y1="106.812" x2="122.649" y2="90.4289" gradientUnits="userSpaceOnUse">
<stop stop-color="#6817C5"/>
<stop offset="0.7642" stop-color="#D2B9EE"/>
<stop offset="1" stop-color="#6817C5"/>
</linearGradient>
<linearGradient id="paint1_linear_3346_91328" x1="106.975" y1="20.9895" x2="102.743" y2="94.1824" gradientUnits="userSpaceOnUse">
<stop stop-color="#DCB0FF"/>
<stop offset="0.265" stop-color="#9F65D9"/>
<stop offset="0.447" stop-color="#7C36C1"/>
<stop offset="0.526" stop-color="#5C2C9A"/>
<stop offset="0.642" stop-color="#442067"/>
<stop offset="0.752" stop-color="#2C163E"/>
<stop offset="0.851" stop-color="#190F21"/>
<stop offset="0.937" stop-color="#0E0B10"/>
<stop offset="1" stop-color="#0A0A0A"/>
</linearGradient>
<linearGradient id="paint2_linear_3346_91328" x1="0.17179" y1="97.8427" x2="117.791" y2="97.8427" gradientUnits="userSpaceOnUse">
<stop stop-color="#D3B0FF"/>
<stop offset="0.035" stop-color="#DAA6FA"/>
<stop offset="0.354" stop-color="#9A55D1"/>
<stop offset="0.5" stop-color="#8436C1"/>
<stop offset="0.618" stop-color="#632A8F"/>
<stop offset="0.801" stop-color="#321847"/>
<stop offset="0.933" stop-color="#150E1B"/>
<stop offset="1" stop-color="#0A0A0A"/>
</linearGradient>
<clipPath id="clip0_3346_91328">
<rect width="32" height="30" fill="white" transform="matrix(-1 0 0 1 154 79)"/>
</clipPath>
<clipPath id="clip1_3346_91328">
<rect width="26.0985" height="28.1167" fill="white" transform="matrix(-0.979165 0.203067 0.20544 0.97867 107.555 29)"/>
</clipPath>
<clipPath id="clip2_3346_91328">
<rect width="51.3568" height="46.0894" fill="white" transform="translate(3 16.293) rotate(-15)"/>
</clipPath>
</defs>
</svg>
