<svg width="120" height="110" viewBox="0 0 120 110" fill="none" xmlns="http://www.w3.org/2000/svg">
<g clip-path="url(#clip0_1035_42486)">
<path d="M101.998 65.4785L103.795 66.9763L97.674 66.3709L95.877 64.873L101.998 65.4785Z" fill="#6817C5"/>
<path d="M103.795 67.0536H103.788L97.667 66.4482C97.6514 66.4466 97.6366 66.4403 97.6246 66.4301L95.8267 64.9362C95.8101 64.9269 95.7974 64.9118 95.7911 64.8938C95.7847 64.8758 95.7852 64.8561 95.7923 64.8384C95.7994 64.8206 95.8127 64.8061 95.8298 64.7975C95.8468 64.7889 95.8664 64.7868 95.8849 64.7916L102.009 65.3993C102.024 65.4002 102.039 65.4063 102.051 65.4166L103.848 66.9105C103.861 66.9212 103.871 66.9357 103.875 66.952C103.879 66.9682 103.877 66.9854 103.871 67.0009C103.866 67.0167 103.855 67.0302 103.842 67.0397C103.828 67.0492 103.812 67.054 103.795 67.0536ZM97.7063 66.2933L103.548 66.8712L101.966 65.5534L96.1239 64.9748L97.7063 66.2933Z" fill="#111111"/>
<path d="M109.974 62.2093C109.385 61.7187 108.572 61.3947 107.571 61.2957C104.976 61.0386 102.844 62.5639 102.068 65.1798L101.995 65.4785L103.792 66.9763L103.866 66.6776C104.638 64.0617 106.77 62.5364 109.368 62.7927C110.369 62.8918 111.183 63.2165 111.771 63.7063L109.974 62.2093Z" fill="#6817C5"/>
<path d="M103.795 67.0546C103.777 67.0547 103.759 67.0483 103.745 67.0365L101.948 65.5427C101.936 65.5333 101.928 65.5209 101.923 65.507C101.919 65.4932 101.918 65.4783 101.922 65.464L101.994 65.1653C102.78 62.5101 104.969 60.9627 107.575 61.2214C108.561 61.3189 109.406 61.6413 110.021 62.1531L111.818 63.647C111.827 63.6533 111.834 63.6614 111.84 63.6707C111.845 63.68 111.849 63.6903 111.85 63.701C111.852 63.7117 111.851 63.7226 111.848 63.733C111.845 63.7433 111.839 63.7529 111.832 63.7612C111.826 63.7695 111.817 63.7763 111.807 63.7811C111.798 63.7859 111.787 63.7887 111.776 63.7893C111.766 63.7899 111.755 63.7882 111.745 63.7844C111.735 63.7806 111.725 63.7748 111.718 63.7673C111.128 63.2759 110.311 62.9661 109.359 62.8718C108.107 62.7475 106.938 63.0424 105.979 63.7225C105.02 64.4026 104.318 65.4302 103.943 66.7L103.872 66.9941C103.869 67.0072 103.863 67.0192 103.853 67.0292C103.844 67.0391 103.833 67.0465 103.82 67.0507C103.812 67.0532 103.803 67.0545 103.795 67.0546ZM102.087 65.4491L103.749 66.8368L103.792 66.6607C104.578 64.0055 106.767 62.459 109.373 62.7169C109.904 62.7644 110.424 62.8938 110.915 63.1006L109.924 62.2687C109.333 61.7773 108.517 61.4675 107.565 61.3732C106.313 61.2497 105.144 61.5438 104.185 62.2239C103.226 62.904 102.521 63.9324 102.146 65.2014L102.087 65.4491Z" fill="#111111"/>
<path d="M105.667 79.4835L107.464 80.9813L101.468 80.3877L99.6709 78.8906L105.667 79.4835Z" fill="#6817C5"/>
<path d="M107.464 81.0587H107.456L101.458 80.4651C101.442 80.4636 101.427 80.4573 101.415 80.447L99.6203 78.9492C99.6075 78.9384 99.5985 78.9238 99.5945 78.9076C99.5906 78.8913 99.5919 78.8742 99.5983 78.8587C99.6047 78.8435 99.6158 78.8307 99.6299 78.822C99.644 78.8134 99.6605 78.8095 99.6769 78.8108L105.672 79.4036C105.688 79.4051 105.703 79.4114 105.715 79.4217L107.511 80.9195C107.524 80.9298 107.533 80.9438 107.537 80.9594C107.541 80.975 107.541 80.9916 107.535 81.0068C107.53 81.022 107.52 81.0352 107.506 81.0445C107.493 81.0538 107.477 81.0587 107.461 81.0587H107.464ZM101.5 80.311L107.217 80.8763L105.634 79.5577L99.9175 78.9924L101.5 80.311Z" fill="#111111"/>
<path d="M109.375 55.5922C115.833 56.2315 119.174 60.4552 117.83 65.9771C116.958 69.564 114.7 71.9101 111.033 73.5802C107.582 75.1236 106.461 76.2149 105.902 78.5084L105.667 79.4802L99.6708 78.8874L99.8838 77.8652C100.521 74.0126 102.289 71.9817 105.876 70.3534C109.236 68.8005 110.396 67.7399 110.937 65.5171C111.478 63.2944 110.145 61.5489 107.571 61.2941C104.976 61.037 102.844 62.5624 102.068 65.1782L101.995 65.477L95.877 64.87L95.9493 64.5713C97.5097 58.6319 102.441 54.909 109.375 55.5922Z" fill="white"/>
<path d="M105.667 79.561H105.659L99.663 78.9674C99.652 78.9664 99.6414 78.9631 99.6317 78.9576C99.6221 78.9522 99.6138 78.9448 99.6072 78.936C99.6007 78.927 99.5961 78.9168 99.5938 78.906C99.5915 78.8951 99.5915 78.8839 99.5938 78.8731L99.8069 77.8509C100.428 74.0966 102.12 71.9737 105.844 70.284C109.211 68.7225 110.336 67.6524 110.861 65.4989C111.107 64.4838 110.964 63.5608 110.446 62.8303C109.87 62.0166 108.848 61.4992 107.564 61.3718C106.311 61.2484 105.142 61.5425 104.183 62.2226C103.224 62.9027 102.521 63.9311 102.146 65.2001L102.074 65.4989C102.07 65.5173 102.059 65.5335 102.043 65.5445C102.028 65.5555 102.009 65.5605 101.99 65.5586L95.8692 64.9485C95.858 64.9475 95.8471 64.9441 95.8374 64.9385C95.8276 64.933 95.8191 64.9254 95.8126 64.9163C95.8061 64.907 95.8017 64.8965 95.7996 64.8853C95.7976 64.8742 95.798 64.8628 95.8008 64.8518L95.877 64.5554C97.5114 58.3165 102.687 54.8538 109.383 55.5135C112.726 55.8437 115.382 57.1764 116.863 59.2647C118.169 61.1069 118.53 63.4318 117.907 65.995C117.059 69.4781 114.886 71.9108 111.067 73.6508C107.672 75.169 106.531 76.2627 105.98 78.5255L105.744 79.4974C105.741 79.5154 105.731 79.5316 105.717 79.5433C105.703 79.5549 105.685 79.5612 105.667 79.561ZM99.7652 78.8196L105.606 79.3975L105.826 78.4925C106.391 76.1707 107.552 75.0535 111.001 73.5108C114.775 71.7929 116.918 69.3932 117.754 65.9628C118.366 63.4468 118.014 61.1666 116.732 59.3583C115.281 57.3077 112.665 55.9994 109.367 55.6707C102.755 55.0189 97.6427 58.4368 96.0256 64.5923L95.9745 64.8023L101.937 65.392L101.994 65.1561C102.78 62.5009 104.969 60.9536 107.575 61.2122C108.904 61.3435 109.968 61.8853 110.571 62.7368C111.117 63.505 111.268 64.472 111.01 65.5327C110.472 67.7436 109.328 68.8405 105.906 70.4224C102.245 72.0908 100.573 74.1799 99.9649 77.8785L99.7652 78.8196Z" fill="#111111"/>
<path d="M117.28 59.3962L115.483 57.9023C117.744 59.7894 118.642 62.649 117.83 65.9842C116.958 69.5711 114.7 71.9173 111.033 73.5873C107.582 75.1307 106.46 76.2221 105.902 78.5156L105.667 79.4874L107.464 80.9813L107.699 80.0094C108.258 77.7152 109.379 76.6246 112.83 75.0812C116.496 73.4104 118.754 71.065 119.627 67.4781C120.439 64.1421 119.539 61.2801 117.28 59.3962Z" fill="#D2B9EE"/>
<path d="M107.464 81.0594C107.445 81.0594 107.427 81.053 107.413 81.0413L105.616 79.5435C105.605 79.5341 105.596 79.5219 105.592 79.508C105.587 79.4941 105.586 79.4791 105.589 79.4648L105.825 78.4938C106.391 76.172 107.551 75.0547 111 73.5121C114.774 71.7941 116.918 69.3945 117.753 65.9641C118.545 62.7105 117.72 59.8682 115.432 57.9616C115.424 57.955 115.417 57.9469 115.412 57.9377C115.408 57.9286 115.405 57.9186 115.404 57.9083C115.403 57.898 115.404 57.8876 115.407 57.8777C115.41 57.8678 115.415 57.8587 115.422 57.8507C115.428 57.8427 115.436 57.8362 115.445 57.8313C115.455 57.8265 115.465 57.8235 115.475 57.8226C115.485 57.8216 115.496 57.8227 115.505 57.8258C115.515 57.8289 115.524 57.8339 115.532 57.8405L117.33 59.3352C119.667 61.2827 120.511 64.1808 119.704 67.4957C118.857 70.9796 116.682 73.4122 112.865 75.1522C109.471 76.6705 108.329 77.7642 107.779 80.027L107.543 80.998C107.54 81.0111 107.533 81.0232 107.524 81.0331C107.515 81.043 107.504 81.0504 107.491 81.0546C107.482 81.0577 107.473 81.0593 107.464 81.0594ZM105.755 79.4538L107.417 80.8392L107.624 79.9908C108.188 77.669 109.349 76.551 112.798 75.0091C116.572 73.2904 118.716 70.8915 119.551 67.4611C120.343 64.2076 119.518 61.3653 117.23 59.4586L116.631 58.9593C118.114 60.8251 118.567 63.2711 117.903 65.9987C117.056 69.4818 114.882 71.9144 111.064 73.6544C107.669 75.1727 106.528 76.2663 105.977 78.5292L105.755 79.4538Z" fill="#111111"/>
<path d="M104.576 84.4639L103.033 90.8098L97.0381 90.2169L98.582 83.8711L104.576 84.4639Z" fill="white"/>
<path d="M103.031 90.8885H103.023L97.0286 90.2957C97.0085 90.2929 96.9902 90.2825 96.9775 90.2666C96.971 90.2575 96.9665 90.2471 96.9644 90.2361C96.9622 90.2251 96.9624 90.2138 96.965 90.2029L98.5089 83.8562C98.5135 83.838 98.5246 83.8219 98.54 83.8111C98.5555 83.8003 98.5743 83.7954 98.593 83.7973L104.587 84.3901C104.598 84.3911 104.609 84.3945 104.619 84.4001C104.629 84.4056 104.637 84.4132 104.644 84.4223C104.65 84.4315 104.655 84.4421 104.657 84.4532C104.659 84.4643 104.659 84.4758 104.656 84.4868L103.109 90.8287C103.105 90.8462 103.095 90.8616 103.081 90.8725C103.066 90.8834 103.049 90.889 103.031 90.8885ZM97.1348 90.1478L102.971 90.725L104.477 84.534L98.641 83.9561L97.1348 90.1478Z" fill="#111111"/>
<path d="M104.576 84.4648L106.374 85.9627L104.83 92.3085L103.033 90.8107L104.576 84.4648Z" fill="#D2B9EE"/>
<path d="M104.83 92.3894C104.812 92.3894 104.794 92.383 104.78 92.3713L102.983 90.8703C102.971 90.861 102.963 90.8487 102.958 90.8349C102.953 90.821 102.953 90.806 102.956 90.7917L104.5 84.4482C104.503 84.4351 104.509 84.4231 104.518 84.4132C104.528 84.4032 104.539 84.3958 104.552 84.3916C104.565 84.3867 104.579 84.3855 104.593 84.388C104.607 84.3905 104.62 84.3966 104.63 84.4058L106.428 85.9036C106.439 85.913 106.448 85.9253 106.452 85.9392C106.457 85.9531 106.458 85.968 106.454 85.9822L104.906 92.3265C104.903 92.3394 104.897 92.3513 104.888 92.3611C104.878 92.3709 104.867 92.3782 104.854 92.3823C104.847 92.3859 104.838 92.3883 104.83 92.3894ZM103.12 90.7815L104.784 92.1669L106.286 85.9909L104.623 84.6055L103.12 90.7815Z" fill="#111111"/>
<path d="M103.033 90.8096L104.83 92.3074L98.836 91.7146L97.0381 90.2168L103.033 90.8096Z" fill="#6817C5"/>
<path d="M104.83 92.3892H104.822L98.8281 91.7955C98.8125 91.7941 98.7978 91.7881 98.7856 91.7783L96.9878 90.2773C96.975 90.2665 96.9659 90.252 96.9619 90.2357C96.958 90.2194 96.9593 90.2023 96.9658 90.1869C96.9722 90.1716 96.9832 90.1588 96.9973 90.1502C97.0114 90.1416 97.0279 90.1376 97.0444 90.1389L103.039 90.7317C103.054 90.7334 103.069 90.7397 103.081 90.7498L104.879 92.2437C104.891 92.254 104.9 92.268 104.905 92.2836C104.909 92.2992 104.908 92.3158 104.903 92.331C104.897 92.3462 104.887 92.3594 104.874 92.3687C104.861 92.3779 104.845 92.3829 104.829 92.3829L104.83 92.3892ZM98.8642 91.6383L104.58 92.2044L103.001 90.8859L97.2857 90.3205L98.8642 91.6383Z" fill="#111111"/>
</g>
<g clip-path="url(#clip1_1035_42486)">
<path d="M11.6891 71.3274C11.6712 71.2293 11.6732 71.1287 11.6948 71.0314C11.7165 70.9342 11.7574 70.8422 11.8152 70.761L14.3065 67.377C14.2486 67.4584 14.2077 67.5505 14.186 67.648C14.1644 67.7455 14.1625 67.8463 14.1804 67.9445L14.8356 71.9043L12.3455 75.2907L11.6891 71.3274Z" fill="#D2B9EE"/>
<path d="M12.3456 75.4086C12.3173 75.409 12.2899 75.3992 12.2683 75.381C12.2466 75.3629 12.2322 75.3376 12.2277 75.3097L11.5737 71.3499C11.5531 71.2363 11.5554 71.1198 11.5805 71.0072C11.6056 70.8946 11.653 70.7881 11.7198 70.694L14.2111 67.3076C14.2203 67.2952 14.2318 67.2846 14.2451 67.2766C14.2584 67.2687 14.2731 67.2634 14.2884 67.2611C14.3038 67.2588 14.3194 67.2595 14.3344 67.2633C14.3495 67.267 14.3636 67.2737 14.3761 67.2829C14.3885 67.2921 14.3991 67.3036 14.4071 67.3169C14.4151 67.3302 14.4203 67.3449 14.4226 67.3602C14.4249 67.3755 14.4242 67.3911 14.4205 67.4061C14.4167 67.4212 14.41 67.4353 14.4008 67.4477C14.3526 67.5165 14.3186 67.5943 14.3008 67.6763C14.283 67.7584 14.2817 67.8432 14.2971 67.9258L14.9523 71.8856C14.9548 71.901 14.9542 71.9167 14.9506 71.9319C14.9469 71.9471 14.9403 71.9614 14.9311 71.9739L12.4398 75.3603C12.429 75.3752 12.4148 75.3873 12.3984 75.3957C12.3821 75.404 12.364 75.4085 12.3456 75.4086ZM11.8058 71.3122L12.4163 74.9965L14.7119 71.875L14.0649 67.9635C14.0614 67.9472 14.0591 67.9306 14.0579 67.914L11.9107 70.8341C11.8621 70.9027 11.8277 70.9804 11.8097 71.0625C11.7917 71.1447 11.7904 71.2296 11.8058 71.3122Z" fill="#111111"/>
<path d="M38.1397 95.7324L42.3362 96.725C42.5209 96.7717 42.7154 96.7606 42.8936 96.6932C43.0187 96.646 43.1278 96.5644 43.2083 96.4577L40.7182 99.8441C40.6374 99.951 40.5278 100.033 40.4023 100.08C40.2241 100.147 40.0298 100.158 39.8449 100.113L35.6484 99.1165L38.1397 95.7324Z" fill="#D2B9EE"/>
<path d="M40.0793 100.258C39.9917 100.257 39.9043 100.247 39.8189 100.227L35.6212 99.2344C35.6023 99.23 35.5848 99.2211 35.5702 99.2084C35.5556 99.1956 35.5444 99.1795 35.5376 99.1614C35.5309 99.143 35.5289 99.1233 35.5318 99.104C35.5347 99.0846 35.5423 99.0663 35.5541 99.0507L38.0441 95.6643C38.0575 95.6465 38.0757 95.6328 38.0966 95.6249C38.1174 95.6169 38.1401 95.6151 38.162 95.6196L42.3585 96.6122C42.5197 96.6529 42.6895 96.6435 42.8452 96.5851C42.9502 96.5444 43.0417 96.475 43.1092 96.3849C43.1184 96.3725 43.1299 96.3619 43.1432 96.3539C43.1565 96.346 43.1712 96.3407 43.1865 96.3384C43.2018 96.3361 43.2175 96.3368 43.2325 96.3406C43.2475 96.3443 43.2617 96.351 43.2741 96.3602C43.299 96.3787 43.3155 96.4063 43.3202 96.4369C43.3248 96.4676 43.3171 96.4988 43.2989 96.5239L40.8076 99.9103C40.7137 100.035 40.5868 100.132 40.4411 100.189C40.3258 100.234 40.2031 100.257 40.0793 100.258ZM35.8487 99.046L39.8719 99.9974C40.0331 100.038 40.203 100.029 40.3586 99.9703C40.4637 99.9296 40.5551 99.8603 40.6226 99.7701L42.7698 96.8512C42.6172 96.8805 42.4601 96.8769 42.309 96.8406L38.1844 95.8645L35.8487 99.046Z" fill="#111111"/>
<path d="M17.1299 81.6126L14.6387 84.999C15.2694 84.1505 16.1273 83.4974 17.1134 83.115C17.8817 82.8167 18.6969 82.6572 19.521 82.644C22.9633 82.5687 26.514 84.8954 27.8975 88.1369C28.9051 90.4919 28.627 92.775 27.4261 94.4011L29.9174 91.0135C31.1135 89.3874 31.3917 87.1031 30.3888 84.7494C29.0041 81.5078 25.4546 79.1823 22.0123 79.2576C21.1881 79.27 20.3727 79.4295 19.6047 79.7286C18.6186 80.111 17.7607 80.7641 17.1299 81.6126Z" fill="#D2B9EE"/>
<path d="M27.4321 94.5176C27.407 94.5174 27.3826 94.5091 27.3625 94.4941C27.3501 94.4849 27.3395 94.4733 27.3315 94.4601C27.3236 94.4468 27.3183 94.4321 27.316 94.4168C27.3137 94.4015 27.3144 94.3859 27.3181 94.3708C27.3219 94.3558 27.3286 94.3417 27.3378 94.3292C28.5752 92.6443 28.739 90.4047 27.7891 88.184C26.4375 85.019 23.0494 82.7677 19.6872 82.7677H19.5234C18.7143 82.7769 17.9134 82.9305 17.1583 83.221C16.1915 83.5975 15.3503 84.2381 14.7306 85.0696C14.7122 85.0949 14.6845 85.1119 14.6535 85.1167C14.6226 85.1216 14.591 85.114 14.5657 85.0955C14.5403 85.0771 14.5234 85.0494 14.5185 85.0185C14.5137 84.9876 14.5213 84.956 14.5397 84.9307L17.031 81.5443C17.6768 80.677 18.5541 80.0089 19.5623 79.6168C20.3436 79.3129 21.1729 79.151 22.0112 79.1387C25.5171 79.0586 29.089 81.4018 30.4961 84.7023C31.4813 87.003 31.3057 89.3285 30.0164 91.083L27.5252 94.4694C27.5144 94.484 27.5004 94.496 27.4843 94.5044C27.4681 94.5128 27.4503 94.5173 27.4321 94.5176ZM19.6896 82.5239C23.1425 82.5239 26.6201 84.8412 28.0072 88.0887C28.7413 89.8031 28.8321 91.5316 28.2959 93.027L29.8279 90.9428C31.0664 89.2579 31.2326 87.0172 30.2804 84.7953C28.9075 81.5784 25.4334 79.3 22.0159 79.3789C21.2055 79.3905 20.4037 79.5469 19.6483 79.8405C18.6826 80.2171 17.8423 80.8572 17.2231 81.6879L15.6793 83.7885C16.1059 83.4668 16.574 83.2042 17.0711 83.0079C17.8521 82.7047 18.6809 82.5428 19.5187 82.5298L19.6896 82.5239Z" fill="#111111"/>
<path d="M32.2154 100.717L29.7241 104.105C31.8465 103.264 33.6914 101.846 35.0508 100.013L37.542 96.627C36.1828 98.4599 34.3378 99.8767 32.2154 100.717Z" fill="#D2B9EE"/>
<path d="M29.7243 104.224C29.7024 104.224 29.681 104.218 29.6623 104.206C29.6437 104.195 29.6287 104.178 29.6189 104.159C29.6091 104.139 29.605 104.117 29.6069 104.095C29.6089 104.074 29.6169 104.053 29.63 104.035L32.1201 100.648C32.1331 100.63 32.1506 100.617 32.1708 100.609C34.2701 99.7732 36.0958 98.3713 37.4444 96.5596C37.4536 96.5471 37.4651 96.5366 37.4784 96.5286C37.4917 96.5206 37.5064 96.5153 37.5217 96.513C37.5371 96.5107 37.5527 96.5115 37.5677 96.5152C37.5828 96.519 37.5969 96.5256 37.6094 96.5348C37.6218 96.544 37.6324 96.5556 37.6404 96.5689C37.6484 96.5821 37.6537 96.5968 37.656 96.6121C37.6583 96.6275 37.6575 96.6431 37.6538 96.6581C37.65 96.6731 37.6433 96.6873 37.6341 96.6997L35.144 100.086C33.7694 101.934 31.9077 103.364 29.7667 104.217C29.7531 104.222 29.7387 104.224 29.7243 104.224ZM32.2898 100.815L30.0743 103.827C32.0123 102.978 33.6951 101.639 34.9567 99.9413L36.0503 98.4529C34.9461 99.4558 33.6729 100.255 32.2898 100.815Z" fill="#111111"/>
<path d="M1.23728 79.8059C1.26047 79.7179 1.30049 79.6351 1.35513 79.5622L3.84286 76.1699C3.78835 76.2425 3.74834 76.3248 3.72501 76.4125L2.62669 80.8233L0.140137 84.2097L1.23728 79.8059Z" fill="#D2B9EE"/>
<path d="M0.140415 84.3283C0.122972 84.3283 0.105717 84.3247 0.0897413 84.3177C0.0650745 84.306 0.0452429 84.2861 0.0336358 84.2614C0.0220286 84.2367 0.0193665 84.2088 0.0261045 84.1823L1.12325 79.7715C1.14942 79.6692 1.19503 79.5729 1.25759 79.4878L3.74768 76.1014C3.75679 76.0888 3.76829 76.0782 3.78152 76.0701C3.79475 76.062 3.80946 76.0566 3.82479 76.0542C3.84012 76.0518 3.85577 76.0524 3.87085 76.0561C3.88593 76.0597 3.90014 76.0663 3.91266 76.0755C3.92513 76.0846 3.93567 76.0962 3.94366 76.1095C3.95166 76.1227 3.95696 76.1374 3.95926 76.1527C3.96156 76.1681 3.96081 76.1837 3.95706 76.1987C3.95331 76.2137 3.94664 76.2279 3.93741 76.2403C3.89334 76.3012 3.86134 76.3699 3.84313 76.4428L2.74481 80.8524C2.74172 80.8674 2.73528 80.8815 2.72596 80.8937L0.23587 84.2812C0.224774 84.296 0.210352 84.308 0.193769 84.3162C0.177186 84.3244 0.158909 84.3285 0.140415 84.3283ZM1.35187 79.8292L0.398498 83.6607L2.51972 80.7736L3.50138 76.8302L1.44733 79.6279C1.40229 79.6879 1.36982 79.7564 1.35187 79.8292Z" fill="#111111"/>
<path d="M3.21368 81.9297L0.722412 85.3161L4.6455 87.3943L7.13677 84.0079L3.21368 81.9297Z" fill="#D2B9EE"/>
<path d="M4.64542 87.5121C4.62608 87.512 4.60705 87.5071 4.59003 87.4979L0.66694 85.4197C0.651914 85.4118 0.638766 85.4008 0.628393 85.3874C0.61802 85.374 0.610668 85.3585 0.606839 85.342C0.603171 85.3256 0.603061 85.3086 0.606517 85.2921C0.609972 85.2757 0.616913 85.2602 0.626872 85.2466L3.11814 81.8602C3.13488 81.8376 3.15919 81.8217 3.18664 81.8155C3.21409 81.8092 3.24289 81.813 3.2678 81.8261L7.18853 83.9031C7.20334 83.9111 7.21626 83.9222 7.22642 83.9356C7.23659 83.949 7.24376 83.9644 7.24746 83.9808C7.2513 83.9974 7.2515 84.0146 7.24804 84.0313C7.24458 84.048 7.23755 84.0637 7.22742 84.0774L4.74087 87.4603C4.73029 87.4759 4.71609 87.4888 4.69948 87.4978C4.68286 87.5068 4.66432 87.5117 4.64542 87.5121ZM0.897918 85.2749L4.61006 87.2413L6.96698 84.0468L3.25366 82.0804L0.897918 85.2749Z" fill="#111111"/>
<path d="M2.63047 80.8238L0.140383 84.2102C0.0402137 84.6153 0.286512 85.0875 0.722542 85.3159L3.21263 81.926C2.77777 81.6975 2.53148 81.2195 2.63047 80.8203" fill="#D2B9EE"/>
<path d="M0.722302 85.4327C0.703116 85.4324 0.684215 85.428 0.666914 85.4197C0.181389 85.1654 -0.0884785 84.6449 0.0246536 84.181C0.0291556 84.1663 0.0359141 84.1524 0.0446874 84.1398L2.53595 80.7534C2.55228 80.732 2.57545 80.7168 2.60161 80.7104C2.62776 80.704 2.65533 80.7067 2.67972 80.7182C2.7041 80.7296 2.72384 80.749 2.73563 80.7732C2.74743 80.7974 2.75057 80.8249 2.74454 80.8511C2.65851 81.2044 2.88242 81.6224 3.26777 81.8237C3.28283 81.8316 3.296 81.8427 3.30638 81.8561C3.31677 81.8696 3.32411 81.8851 3.32792 81.9017C3.33173 81.9182 3.3319 81.9354 3.32844 81.952C3.32497 81.9687 3.31795 81.9843 3.30784 81.998L0.816578 85.3844C0.805725 85.3992 0.791546 85.4113 0.775175 85.4197C0.758804 85.4281 0.740697 85.4325 0.722302 85.4327ZM0.250918 84.2552C0.183746 84.5755 0.368764 84.9452 0.691662 85.1548L3.04033 81.9639C2.90467 81.8766 2.78772 81.7633 2.69627 81.6305C2.60483 81.4977 2.54072 81.348 2.50767 81.1903L0.250918 84.2552Z" fill="#111111"/>
<path d="M7.13677 84.0078L4.64551 87.3942C4.70152 88.8179 4.95454 90.227 5.39737 91.5813C5.85866 93.0006 6.49439 94.3572 7.28997 95.62L9.78123 92.2336C8.98521 90.9689 8.34948 89.6103 7.88863 88.189C7.44634 86.8366 7.19332 85.4295 7.13677 84.0078Z" fill="#D2B9EE"/>
<path d="M7.28993 95.7367C7.2707 95.736 7.25196 95.7306 7.23532 95.7209C7.21868 95.7113 7.20465 95.6977 7.19447 95.6814C6.39379 94.4084 5.75411 93.0411 5.29008 91.6109C4.84516 90.248 4.59018 88.8303 4.53233 87.3979C4.53121 87.3714 4.5391 87.3452 4.55472 87.3237L7.04599 83.9373C7.06037 83.9175 7.08059 83.9026 7.10383 83.8948C7.12706 83.887 7.15216 83.8866 7.17562 83.8937C7.19912 83.9008 7.21982 83.9151 7.23482 83.9345C7.24982 83.9539 7.25837 83.9776 7.25929 84.0021C7.31618 85.4132 7.56719 86.8099 8.00525 88.1527C8.46554 89.5644 9.09887 90.9138 9.89079 92.1702C9.90396 92.1896 9.911 92.2126 9.911 92.2361C9.911 92.2596 9.90396 92.2826 9.89079 92.3021L7.3842 95.6885C7.37335 95.7033 7.35917 95.7154 7.3428 95.7238C7.32643 95.7322 7.30832 95.7366 7.28993 95.7367ZM4.76449 87.4297C4.82516 88.8269 5.07572 90.2093 5.50928 91.5391C5.9493 92.8953 6.54985 94.1942 7.29818 95.4082L9.6386 92.2291C8.85735 90.9752 8.23208 89.6308 7.77663 88.2257C7.36617 86.9669 7.1171 85.6613 7.03538 84.34L4.76449 87.4297Z" fill="#111111"/>
<path d="M27.3755 106.117L32.219 105.535C32.2933 105.527 32.3663 105.509 32.4358 105.482C32.5595 105.434 32.667 105.352 32.7458 105.246L30.2557 108.632C30.1762 108.739 30.0683 108.82 29.9446 108.868C29.8754 108.895 29.8028 108.913 29.7289 108.921L24.8843 109.51L27.3755 106.117Z" fill="#D2B9EE"/>
<path d="M24.8843 109.621C24.8638 109.621 24.8437 109.616 24.826 109.606C24.8082 109.596 24.7934 109.581 24.7829 109.564C24.7713 109.544 24.7658 109.521 24.767 109.498C24.7683 109.475 24.7763 109.453 24.79 109.434L27.2813 106.048C27.2907 106.035 27.3027 106.024 27.3165 106.016C27.3303 106.008 27.3456 106.003 27.3614 106.001L32.2049 105.412C32.269 105.404 32.3319 105.389 32.3923 105.366C32.4951 105.326 32.5848 105.258 32.6515 105.169C32.6602 105.156 32.6716 105.144 32.6849 105.135C32.6983 105.126 32.7133 105.12 32.7292 105.117C32.745 105.114 32.7612 105.115 32.7769 105.118C32.7926 105.122 32.8074 105.129 32.8204 105.138C32.8334 105.148 32.8443 105.16 32.8524 105.173C32.8605 105.187 32.8657 105.203 32.8677 105.219C32.8696 105.235 32.8683 105.251 32.8638 105.266C32.8592 105.282 32.8516 105.296 32.8413 105.308L30.35 108.701C30.2578 108.825 30.1324 108.921 29.9882 108.977C29.9088 109.009 29.8256 109.029 29.7407 109.039L24.8984 109.62L24.8843 109.621ZM27.4404 106.228L25.1412 109.36L29.7148 108.81C29.7787 108.804 29.8414 108.788 29.901 108.764C30.0042 108.724 30.094 108.656 30.1603 108.568L32.3098 105.646C32.2838 105.646 32.2591 105.655 32.2332 105.657L27.4404 106.228Z" fill="#111111"/>
<path d="M24.4 101.654L21.9099 105.041L23.7542 108.857L26.2455 105.47L24.4 101.654Z" fill="#D2B9EE"/>
<path d="M23.7554 108.975H23.7437C23.7234 108.973 23.704 108.966 23.6872 108.954C23.6705 108.943 23.6571 108.927 23.6482 108.909L21.8016 105.092C21.7928 105.074 21.7891 105.053 21.791 105.032C21.7929 105.011 21.8002 104.992 21.8122 104.975L24.3058 101.588C24.3179 101.572 24.3339 101.559 24.3524 101.551C24.3709 101.543 24.3911 101.54 24.4112 101.542C24.4314 101.543 24.4507 101.55 24.4673 101.562C24.4839 101.573 24.4973 101.589 24.5061 101.607L26.3516 105.423C26.3604 105.442 26.364 105.463 26.3622 105.484C26.3603 105.504 26.353 105.524 26.341 105.541L23.8497 108.929C23.8386 108.943 23.8243 108.955 23.808 108.963C23.7916 108.971 23.7736 108.975 23.7554 108.975ZM22.0467 105.054L23.7755 108.63L26.1088 105.457L24.38 101.881L22.0467 105.054Z" fill="#111111"/>
<path d="M26.2454 105.475L23.7542 108.861C23.8556 109.07 24.0177 109.243 24.2193 109.359C24.421 109.474 24.6527 109.526 24.8843 109.507L27.3756 106.121C27.144 106.139 26.9125 106.087 26.711 105.972C26.5094 105.856 26.3472 105.683 26.2454 105.475Z" fill="#D2B9EE"/>
<path d="M24.7713 109.629C24.5361 109.623 24.307 109.553 24.1089 109.426C23.9108 109.299 23.7515 109.12 23.6483 108.909C23.6397 108.89 23.6362 108.869 23.6383 108.849C23.6404 108.828 23.6479 108.808 23.6601 108.791L26.1513 105.405C26.1634 105.389 26.1796 105.376 26.1981 105.368C26.2167 105.359 26.2371 105.356 26.2574 105.358C26.2774 105.36 26.2966 105.367 26.3131 105.379C26.3296 105.39 26.3429 105.406 26.3517 105.424C26.4433 105.61 26.5883 105.764 26.7682 105.868C26.948 105.971 27.1546 106.019 27.3616 106.004C27.3846 106.001 27.4081 106.005 27.4291 106.015C27.45 106.025 27.4676 106.041 27.4794 106.061C27.4921 106.08 27.4989 106.103 27.4989 106.126C27.4989 106.149 27.4921 106.171 27.4794 106.19L24.9835 109.573C24.9739 109.586 24.9617 109.597 24.9477 109.605C24.9337 109.613 24.9182 109.619 24.9021 109.62C24.8588 109.626 24.8151 109.629 24.7713 109.629ZM23.8934 108.868C23.9871 109.03 24.1226 109.164 24.2857 109.256C24.4488 109.348 24.6336 109.394 24.8208 109.391L27.1424 106.235C26.9607 106.213 26.7858 106.153 26.6294 106.058C26.4729 105.963 26.3385 105.836 26.235 105.685L23.8934 108.868Z" fill="#111111"/>
<path d="M15.8279 98.4102L13.3367 101.797C15.9293 103.523 18.8872 104.674 21.91 105.043L24.4 101.656C21.3785 101.288 18.4205 100.135 15.8279 98.4102Z" fill="#D2B9EE"/>
<path d="M21.9099 105.16H21.8946C18.9166 104.796 15.9351 103.667 13.2718 101.894C13.2585 101.885 13.2472 101.873 13.2385 101.86C13.2298 101.847 13.2239 101.832 13.2211 101.816C13.2183 101.801 13.2186 101.785 13.2221 101.769C13.2255 101.754 13.232 101.739 13.2412 101.727L15.7324 98.339C15.7504 98.3146 15.7771 98.2981 15.8069 98.2928C15.8368 98.2875 15.8675 98.294 15.8927 98.3108C18.5254 100.064 21.4727 101.18 24.4141 101.539C24.4345 101.542 24.4539 101.55 24.4704 101.562C24.4869 101.574 24.4999 101.59 24.5081 101.609C24.5163 101.628 24.5194 101.649 24.5172 101.669C24.515 101.689 24.5075 101.709 24.4955 101.725L22.0042 105.113C21.9932 105.128 21.979 105.139 21.9626 105.148C21.9463 105.156 21.9282 105.16 21.9099 105.16ZM13.5051 101.765C16.0907 103.466 18.9744 104.554 21.8557 104.918L24.1867 101.748C21.3101 101.363 18.4358 100.268 15.8562 98.5686L13.5051 101.765Z" fill="#111111"/>
<path d="M7.41247 95.0879L4.92121 98.4743C4.68551 98.7922 4.75622 99.2644 5.09091 99.6047L7.58217 96.2183C7.24749 95.878 7.17914 95.4058 7.41247 95.0879Z" fill="#D2B9EE"/>
<path d="M5.09079 99.7208C5.0752 99.7207 5.05977 99.7176 5.04541 99.7115C5.03105 99.7055 5.01803 99.6966 5.00712 99.6855C4.63473 99.3075 4.55813 98.7623 4.83153 98.4091L7.31808 95.0168C7.33646 94.9918 7.36398 94.975 7.39465 94.9702C7.42532 94.9653 7.45667 94.9728 7.48189 94.9909C7.49445 95 7.50509 95.0115 7.51319 95.0247C7.5213 95.0379 7.52671 95.0526 7.52912 95.068C7.53153 95.0833 7.53089 95.0989 7.52723 95.114C7.52357 95.129 7.51697 95.1432 7.50781 95.1558C7.30865 95.4266 7.37464 95.8387 7.6669 96.1342C7.68638 96.1542 7.69814 96.1804 7.70008 96.2082C7.70203 96.2361 7.69403 96.2637 7.67751 96.2861L5.18507 99.6725C5.17507 99.6863 5.16221 99.6978 5.14735 99.7061C5.1325 99.7144 5.11602 99.7195 5.09904 99.7208H5.09079ZM7.1637 95.6232L5.01655 98.5422C4.83978 98.7777 4.87278 99.1309 5.08372 99.4147L7.43003 96.2249C7.28411 96.0548 7.19149 95.8455 7.1637 95.6232Z" fill="#111111"/>
<path d="M12.46 100.343L9.96875 103.729L13.3368 101.795L15.8281 98.4082L12.46 100.343Z" fill="#D2B9EE"/>
<path d="M9.96854 103.847C9.94685 103.847 9.92563 103.841 9.90721 103.83C9.88879 103.818 9.87388 103.802 9.86414 103.783C9.85439 103.763 9.85018 103.742 9.85196 103.72C9.85375 103.698 9.86147 103.678 9.87426 103.66L12.3643 100.273C12.3745 100.26 12.3869 100.249 12.4009 100.241L15.7689 98.3063C15.7924 98.293 15.8196 98.2882 15.8462 98.2926C15.8728 98.297 15.897 98.3104 15.9149 98.3305C15.9329 98.3506 15.9433 98.3762 15.9446 98.4031C15.9459 98.4299 15.938 98.4564 15.9221 98.4782L13.4344 101.865C13.4243 101.878 13.4119 101.889 13.3979 101.898L10.0275 103.832C10.0093 103.842 9.98912 103.847 9.96854 103.847ZM12.5399 100.433L10.3951 103.355L13.2564 101.707L15.4012 98.7902L12.5399 100.433Z" fill="#111111"/>
<path d="M7.58208 96.2168L5.09082 99.6032L8.8395 103.435L11.3296 100.048L7.58208 96.2168Z" fill="#D2B9EE"/>
<path d="M8.83847 103.553C8.82268 103.553 8.80704 103.55 8.79246 103.544C8.77788 103.538 8.76468 103.529 8.75362 103.518L5.00612 99.6865C4.98664 99.6665 4.97488 99.6403 4.97294 99.6125C4.971 99.5847 4.979 99.5571 4.99552 99.5346L7.48678 96.1482C7.49678 96.1344 7.50964 96.123 7.52449 96.1146C7.53935 96.1063 7.55583 96.1013 7.57281 96.0999C7.58997 96.0987 7.60719 96.1012 7.62328 96.1073C7.63936 96.1134 7.65391 96.1229 7.66591 96.1352L11.4134 99.9667C11.4329 99.9867 11.4446 100.013 11.4466 100.041C11.4485 100.069 11.4405 100.096 11.424 100.119L8.93393 103.505C8.92393 103.519 8.91107 103.53 8.89622 103.539C8.88136 103.547 8.86488 103.552 8.8479 103.553H8.83847ZM5.24417 99.5935L8.82669 103.254L11.1765 100.059L7.5952 96.399L5.24417 99.5935Z" fill="#111111"/>
<path d="M11.3296 100.049L8.83838 103.435C9.15067 103.757 9.61381 103.87 9.96734 103.73L12.4586 100.343C12.1051 100.483 11.6408 100.37 11.3285 100.049" fill="#D2B9EE"/>
<path d="M9.64911 103.907C9.48176 103.904 9.31661 103.868 9.16312 103.801C9.00962 103.735 8.87082 103.639 8.75466 103.518C8.73518 103.498 8.72342 103.472 8.72148 103.444C8.71954 103.416 8.72753 103.389 8.74405 103.366L11.2353 99.9798C11.2454 99.966 11.2584 99.9546 11.2733 99.9464C11.2883 99.9381 11.3048 99.9332 11.3219 99.9319C11.3389 99.9307 11.356 99.9332 11.372 99.9392C11.388 99.9453 11.4025 99.9547 11.4144 99.9669C11.689 100.249 12.1003 100.359 12.4161 100.234C12.4399 100.225 12.4661 100.223 12.4908 100.23C12.5155 100.237 12.5372 100.252 12.5528 100.272C12.5681 100.292 12.5764 100.317 12.5764 100.342C12.5764 100.368 12.5681 100.393 12.5528 100.413L10.0639 103.8C10.0508 103.817 10.0328 103.831 10.0121 103.84C9.89635 103.884 9.77323 103.907 9.64911 103.907ZM8.99624 103.422C9.11591 103.531 9.26189 103.608 9.42004 103.645C9.57819 103.682 9.74315 103.677 9.89894 103.631L12.1887 100.519C11.8831 100.527 11.5855 100.422 11.352 100.225L8.99624 103.422Z" fill="#111111"/>
<path d="M9.78106 92.2339C8.98504 90.9692 8.3493 89.6106 7.88845 88.1893C7.44616 86.8368 7.19315 85.4298 7.1366 84.0081L3.21233 81.9263C2.77748 81.6979 2.53118 81.2198 2.63017 80.8207L3.72849 76.4099C3.75591 76.301 3.80922 76.2004 3.8839 76.1165C3.95859 76.0327 4.05243 75.9681 4.15745 75.9283C4.33556 75.8622 4.52959 75.8519 4.71369 75.8988L8.90547 76.8938C10.2383 74.6943 12.2629 72.9493 14.8331 71.906L14.1779 67.9462C14.1447 67.7825 14.1701 67.6124 14.2495 67.4654C14.329 67.3184 14.4575 67.204 14.6127 67.142C14.6833 67.1154 14.7569 67.098 14.8319 67.0902L19.6719 66.5097C19.9037 66.4908 20.1359 66.5421 20.3382 66.657C20.5404 66.7719 20.7033 66.945 20.8055 67.1538L22.651 70.97C25.6726 71.3385 28.6364 72.4901 31.229 74.2162L34.5959 72.2817C34.9494 72.1404 35.4137 72.2534 35.726 72.5748L39.4735 76.4063C39.8188 76.7596 39.8813 77.2482 39.6208 77.5661L37.2781 80.3921C38.0715 81.6555 38.7048 83.0126 39.1636 84.432C39.6057 85.7849 39.8591 87.1923 39.9166 88.6143L43.8385 90.6949C44.271 90.9245 44.5197 91.4014 44.4207 91.8006L43.3224 96.2114C43.2952 96.3205 43.242 96.4214 43.1673 96.5055C43.0926 96.5895 42.9986 96.6543 42.8934 96.6941C42.7152 96.7615 42.5207 96.7726 42.336 96.7259L38.1395 95.7333C36.7609 97.9954 34.6808 99.7459 32.2154 100.719L32.8706 104.68C32.9049 104.843 32.8801 105.014 32.8005 105.161C32.7208 105.308 32.5916 105.422 32.4358 105.483C32.3662 105.51 32.2933 105.528 32.2189 105.536L27.3755 106.119C27.1439 106.136 26.9124 106.084 26.7109 105.969C26.5093 105.854 26.3472 105.681 26.2453 105.472L24.3998 101.656C21.3783 101.287 18.4203 100.135 15.8277 98.4097L12.4597 100.344C12.1062 100.484 11.6418 100.371 11.3296 100.05L7.58206 96.2184C7.23677 95.8652 7.17431 95.3765 7.43593 95.0586L9.78106 92.2339ZM25.0374 93.3678C25.8633 93.3567 26.6804 93.1972 27.4497 92.8968C30.5137 91.6828 31.9078 88.2917 30.39 84.7475C29.0053 81.506 25.4557 79.1805 22.0135 79.2558C21.1893 79.2682 20.3739 79.4277 19.6059 79.7268C16.5419 80.9419 15.1454 84.3342 16.6597 87.8761C18.0444 91.1176 21.5951 93.4443 25.0362 93.3678" fill="white"/>
<path d="M27.2626 106.242C27.0272 106.237 26.798 106.167 26.5999 106.04C26.4018 105.912 26.2426 105.733 26.1395 105.522L24.3223 101.765C21.388 101.395 18.4524 100.283 15.8233 98.5465L12.5236 100.445L12.5083 100.453C12.1064 100.612 11.5891 100.48 11.2509 100.13L7.50335 96.2999C7.11328 95.9031 7.04846 95.3497 7.34897 94.9823L9.64107 92.2224C8.86016 90.9702 8.23452 89.6279 7.77793 88.2248C7.34009 86.8833 7.08599 85.4886 7.02254 84.079L3.15837 82.0325C2.67284 81.7782 2.40298 81.2578 2.51611 80.795L3.61443 76.3842C3.64704 76.2575 3.70936 76.1404 3.79625 76.0425C3.88313 75.9446 3.99209 75.8688 4.1141 75.8214C4.31454 75.7444 4.53381 75.7308 4.74222 75.7825L8.85269 76.7586C10.2309 74.5377 12.2805 72.8124 14.7049 71.8321L14.065 67.9641C14.0276 67.7741 14.0579 67.5769 14.1507 67.4068C14.2434 67.2367 14.3928 67.1044 14.5729 67.0327C14.6518 67.0012 14.7347 66.9806 14.8192 66.9715L19.658 66.3898C19.914 66.3669 20.171 66.4221 20.3949 66.5483C20.6188 66.6744 20.799 66.8656 20.9119 67.0963L22.729 70.8572C25.6634 71.2257 28.6001 72.3372 31.2281 74.074L34.5278 72.1759L34.5431 72.1689C34.9461 72.0087 35.4623 72.1418 35.8017 72.4903L39.5492 76.3206C39.9393 76.7174 40.0029 77.2708 39.7024 77.6382L37.4127 80.4017C38.1932 81.6536 38.8189 82.9955 39.2758 84.3981C39.7132 85.7397 39.9669 87.1343 40.03 88.5439L43.8942 90.5904C44.3785 90.8482 44.6484 91.3687 44.5353 91.8279L43.4369 96.2387C43.4045 96.3656 43.3423 96.483 43.2554 96.5811C43.1685 96.6792 43.0594 96.7551 42.9373 96.8027C42.7365 96.8785 42.5175 96.8916 42.3092 96.8404L38.1963 95.8666C36.8206 98.0881 34.7718 99.8134 32.3476 100.792L32.9875 104.659C33.025 104.849 32.9947 105.046 32.902 105.217C32.8092 105.387 32.6598 105.519 32.4796 105.591C32.4002 105.622 32.317 105.643 32.2321 105.651L27.3899 106.234C27.3476 106.239 27.3051 106.242 27.2626 106.242ZM15.8315 98.291C15.8545 98.2909 15.877 98.2974 15.8963 98.3099C18.529 100.063 21.4763 101.179 24.4178 101.538C24.4374 101.541 24.4561 101.548 24.4722 101.56C24.4882 101.571 24.5011 101.587 24.5097 101.604L26.3552 105.421C26.4468 105.607 26.5918 105.761 26.7717 105.864C26.9515 105.968 27.1581 106.015 27.3651 106.001L32.2086 105.412C32.2727 105.405 32.3356 105.389 32.396 105.366C32.5263 105.316 32.6346 105.222 32.7015 105.099C32.7684 104.977 32.7896 104.834 32.7613 104.698L32.1049 100.738C32.1005 100.711 32.1052 100.684 32.1183 100.661C32.1314 100.638 32.152 100.62 32.1768 100.609C34.6186 99.6457 36.6788 97.9117 38.0443 95.6712C38.0573 95.6499 38.0768 95.6333 38.0999 95.6237C38.123 95.6142 38.1485 95.6123 38.1728 95.6182L42.3693 96.6108C42.5305 96.6515 42.7003 96.6421 42.856 96.5837C42.943 96.55 43.0206 96.4957 43.0821 96.4256C43.1437 96.3555 43.1874 96.2716 43.2095 96.181L44.3102 91.7714C44.3962 91.4181 44.1711 91.0025 43.7869 90.7988L39.8638 88.7206C39.8455 88.7108 39.8301 88.6965 39.8192 88.6789C39.8082 88.6613 39.8021 88.6412 39.8014 88.6205C39.7436 87.2097 39.4922 85.8135 39.0542 84.4711C38.5968 83.0607 37.9662 81.7125 37.177 80.4571C37.1637 80.4362 37.1573 80.4116 37.1588 80.3869C37.1602 80.3621 37.1695 80.3385 37.1852 80.3193L39.5292 77.4934C39.7519 77.2214 39.693 76.7999 39.3889 76.4902L35.6367 72.6563C35.3645 72.3761 34.9579 72.2701 34.6468 72.3879L31.2823 74.3166C31.2637 74.328 31.2423 74.3341 31.2204 74.3341C31.1986 74.3341 31.1772 74.328 31.1586 74.3166C28.5259 72.561 25.5786 71.4459 22.6371 71.0844C22.6176 71.0821 22.599 71.075 22.5829 71.0637C22.5669 71.0524 22.5539 71.0372 22.5452 71.0197L20.6997 67.207C20.6079 67.0204 20.4623 66.8656 20.2817 66.7624C20.1011 66.6591 19.8938 66.6122 19.6863 66.6277L14.8487 67.207C14.7849 67.2137 14.7223 67.2287 14.6625 67.2518C14.5322 67.3039 14.4244 67.4002 14.358 67.5237C14.2916 67.6473 14.2709 67.7903 14.2995 67.9276L14.9547 71.8874C14.9591 71.9138 14.9544 71.9409 14.9413 71.9642C14.9283 71.9875 14.9076 72.0057 14.8829 72.0158C12.3822 73.0284 10.3517 74.7428 9.00942 76.9529C8.99656 76.9744 8.97717 76.9913 8.95407 77.001C8.93097 77.0108 8.90536 77.0129 8.88097 77.0071L4.68801 76.0121C4.52669 75.9726 4.35724 75.982 4.20131 76.0392C4.11429 76.0729 4.03671 76.1272 3.97516 76.1973C3.91361 76.2674 3.8699 76.3513 3.84777 76.4419L2.74944 80.8515C2.66342 81.2048 2.88732 81.6228 3.27268 81.8241L7.1887 83.9023C7.207 83.9121 7.22241 83.9264 7.23338 83.944C7.24434 83.9616 7.25048 83.9817 7.25116 84.0024C7.30805 85.4136 7.55906 86.8102 7.99712 88.153C8.45742 89.5648 9.09074 90.9142 9.88266 92.1705C9.8957 92.1913 9.90191 92.2157 9.90043 92.2402C9.89895 92.2646 9.88985 92.2881 9.87441 92.3071L7.52928 95.1331C7.30655 95.4039 7.36429 95.8254 7.66951 96.1351L11.417 99.9666C11.6892 100.247 12.097 100.357 12.4116 100.236L15.7714 98.3063C15.7888 98.297 15.8082 98.2921 15.828 98.2922L15.8315 98.291ZM24.875 93.487C21.4221 93.487 17.9433 91.1697 16.5563 87.9211C15.7903 86.1301 15.7314 84.278 16.383 82.7049C16.6783 82.0027 17.1122 81.3673 17.6589 80.8366C18.2057 80.3059 18.8539 79.8909 19.5649 79.6164C20.3461 79.3125 21.1755 79.1506 22.0137 79.1383C25.5196 79.0582 29.0915 81.4014 30.4986 84.7019C31.267 86.494 31.3236 88.352 30.6742 89.9204C30.379 90.6222 29.945 91.2573 29.3982 91.7876C28.8515 92.3179 28.2033 92.7325 27.4924 93.0065C26.7098 93.3116 25.8787 93.4735 25.0388 93.4846L24.875 93.487ZM22.1811 79.3714H22.0173C21.2069 79.3831 20.4051 79.5394 19.6497 79.833C18.9677 80.096 18.3458 80.4936 17.8212 81.0022C17.2965 81.5109 16.88 82.12 16.5963 82.7932C15.967 84.3062 16.0283 86.0901 16.7696 87.8269C18.1437 91.0425 21.6237 93.3233 25.0353 93.2432C25.8469 93.2328 26.6499 93.0768 27.4064 92.7828C28.0877 92.5201 28.709 92.1227 29.233 91.6145C29.757 91.1063 30.1731 90.4977 30.4562 89.825C31.0867 88.3108 31.0242 86.5281 30.2818 84.789C28.9301 81.6298 25.5432 79.3714 22.1811 79.3714Z" fill="#111111"/>
</g>
<g clip-path="url(#clip2_1035_42486)">
<path d="M80.5435 21.5495L83.4339 25.5509C86.8048 30.2177 88.4649 36.1555 87.6947 42.5223C85.9849 56.656 72.9437 67.551 58.5662 66.857C50.6625 66.4756 44.0007 62.6724 39.8872 56.9775L36.9968 52.9761C41.1105 58.6711 47.7723 62.4743 55.6759 62.8557C70.0535 63.5497 83.0948 52.6546 84.8044 38.521C85.5746 32.1541 83.9146 26.2164 80.5435 21.5495Z" fill="url(#paint0_linear_1035_42486)"/>
<path d="M79.9117 58.6109C74.41 64.1127 66.6896 67.4226 58.5581 67.0301C50.9044 66.6607 44.0481 63.0336 39.7469 57.079L36.8567 53.0775C36.8008 53 36.8183 52.8914 36.8956 52.8359C36.9731 52.7799 37.0813 52.7973 37.1373 52.8748C41.3763 58.7436 48.1364 62.3185 55.6842 62.683C69.9502 63.3714 82.9366 52.5232 84.6326 38.5002C85.3669 32.4296 83.8666 26.4481 80.4075 21.6564L80.4033 21.6508C80.3474 21.5733 80.3638 21.4653 80.4422 21.4091C80.5197 21.3532 80.6279 21.3706 80.6839 21.4481L83.5741 25.4496C87.0872 30.3131 88.6115 36.3837 87.8666 42.5433C87.1161 48.7484 84.1824 54.3402 79.9117 58.6109ZM39.4915 56.1341L40.0275 56.8763C44.2666 62.745 51.0268 66.3199 58.5745 66.6843C72.8402 67.3729 85.8269 56.5246 87.5229 42.5017C88.2576 36.4289 86.7554 30.4451 83.2935 25.6523L82.7474 24.8964C84.7674 29.0439 85.5538 33.766 84.9763 38.5417C83.2584 52.7407 70.1109 63.7257 55.6674 63.0288C49.428 62.7275 43.7187 60.2617 39.4915 56.1341Z" fill="#111111"/>
<path d="M61.8679 11.6693C76.2455 12.3633 86.5147 24.3835 84.8047 38.5194C83.095 52.653 70.0537 63.5481 55.6761 62.8541C41.2963 62.16 31.0271 50.1398 32.7367 36.0062C34.4467 21.8703 47.488 10.9752 61.8679 11.6693Z" fill="#E1D1F3"/>
<path d="M77.0213 54.6093C71.5195 60.111 63.799 63.4211 55.6677 63.0286C48.61 62.6881 42.318 59.6508 37.9504 54.4773C33.6511 49.3842 31.7383 42.8175 32.5646 35.9869C34.2825 21.7866 47.4314 10.8008 61.8759 11.4979C68.9322 11.8384 75.2231 14.8751 79.5901 20.0483C83.89 25.1419 85.8027 31.7096 84.9764 38.5416C84.2258 44.7469 81.2918 50.3387 77.0213 54.6093ZM40.765 20.1603C36.5467 24.3787 33.6498 29.8998 32.9085 36.0284C32.0938 42.7626 33.9783 49.2352 38.215 54.2539C42.5197 59.3534 48.7237 62.3469 55.6842 62.6828C69.9503 63.3713 82.9366 52.5231 84.6327 38.5C85.4475 31.7645 83.5627 25.2908 79.3257 20.2716C75.0214 15.1728 68.8184 12.1796 61.8594 11.8437C53.8271 11.456 46.1991 14.7262 40.765 20.1603Z" fill="#111111"/>
<path d="M51.4816 24.101C49.7687 24.0183 48.1262 26.0369 47.815 28.6096C47.5038 31.1823 48.6418 33.3351 50.3546 33.4178C52.0675 33.5006 53.7077 31.4818 54.0189 28.9091C54.3299 26.3363 53.1943 24.1836 51.4816 24.101Z" fill="#111111"/>
<path d="M52.5208 32.6218C51.8802 33.2624 51.12 33.6282 50.3462 33.5909C49.6855 33.5589 49.0835 33.2423 48.605 32.6754C47.8074 31.7305 47.4477 30.2029 47.6429 28.5888C47.9644 25.9319 49.6901 23.841 51.4898 23.9281C52.1498 23.9601 52.7513 24.2761 53.2293 24.8423C54.0265 25.7869 54.3859 27.3149 54.1906 28.93C54.0075 30.4434 53.3689 31.7735 52.5208 32.6218ZM49.552 25.1366C48.7613 25.9273 48.161 27.1901 47.9868 28.6306C47.8028 30.1509 48.1328 31.5795 48.8695 32.4523C49.2845 32.9436 49.8009 33.2179 50.3627 33.245C51.984 33.3231 53.5468 31.3687 53.8467 28.8885C54.0308 27.3671 53.701 25.9381 52.9647 25.0658C52.5503 24.5751 52.0346 24.3012 51.4732 24.2741C50.7929 24.2411 50.1228 24.5658 49.552 25.1366Z" fill="#111111"/>
<path d="M69.1422 24.9524C67.4294 24.8696 65.7891 26.8884 65.4779 29.4611C65.1668 32.0337 66.3024 34.1864 68.0151 34.269C69.728 34.3518 71.3682 32.333 71.6794 29.7604C71.9906 27.1877 70.855 25.0351 69.1422 24.9524Z" fill="#111111"/>
<path d="M70.1815 33.4727C69.5409 34.1133 68.7808 34.4792 68.0069 34.4418C67.3469 34.4098 66.7454 34.0938 66.2674 33.5276C65.4702 32.583 65.1108 31.055 65.3062 29.4399C65.6274 26.7832 67.3522 24.6921 69.1506 24.7792C69.8106 24.8111 70.4121 25.1272 70.8901 25.6934C71.6873 26.6379 72.0467 28.1659 71.8513 29.7811C71.6682 31.2944 71.0297 32.6245 70.1815 33.4727ZM67.2152 25.9867C66.4247 26.7772 65.8243 28.0403 65.65 29.4816C65.4659 31.003 65.7957 32.4321 66.532 33.3043C66.9464 33.7951 67.4621 34.0689 68.0235 34.0961C69.6446 34.1742 71.2073 32.2204 71.5075 29.7396C71.6916 28.2182 71.3618 26.7891 70.6255 25.9169C70.2111 25.4261 69.6954 25.1523 69.134 25.1251C68.4547 25.0922 67.7854 25.4165 67.2152 25.9867Z" fill="#111111"/>
<path d="M58.4287 41.396C52.8322 41.1283 47.5724 43.4967 44.289 47.363C43.8122 47.9245 43.8679 48.7265 44.4109 49.1525C44.6166 49.3153 44.8636 49.4008 45.117 49.413C45.5297 49.433 45.9592 49.259 46.2547 48.9111C48.9307 45.7525 53.3488 43.7154 58.1201 43.948C58.1227 43.9481 58.1252 43.9483 58.1278 43.9484C62.7046 44.1693 66.4572 46.4224 68.4183 49.5905C68.6329 49.9366 69.0012 50.1316 69.3962 50.1507C69.6672 50.1637 69.9507 50.0941 70.2053 49.9333C70.8289 49.5384 71.0424 48.7446 70.6808 48.1587C68.2813 44.2908 63.8029 41.6579 58.4287 41.396Z" fill="#111111"/>
<path d="M70.5741 49.8591C70.4921 49.9412 70.3998 50.0156 70.2976 50.0801C70.0201 50.2553 69.7053 50.3396 69.3874 50.3241C68.9237 50.3018 68.5063 50.0619 68.2708 49.6824C66.245 46.4095 62.45 44.331 58.1192 44.1219C53.6263 43.903 49.1348 45.7803 46.3866 49.0238C46.0682 49.3997 45.5898 49.61 45.1084 49.5865C44.8094 49.5722 44.531 49.4694 44.3033 49.2889C44.0152 49.0631 43.8358 48.7353 43.7984 48.3664C43.7587 47.9731 43.8894 47.5667 44.157 47.2516C47.5855 43.2132 52.9245 40.96 58.4369 41.2237C63.696 41.4797 68.3279 44.0384 70.8277 48.0681C71.1782 48.6361 71.0555 49.3778 70.5741 49.8591ZM46.8389 48.0221C49.6811 45.1798 53.9086 43.5701 58.1282 43.7758C62.5806 43.9905 66.4795 46.1305 68.5652 49.5001C68.7432 49.7868 69.049 49.9611 69.4042 49.9783C69.651 49.9903 69.8959 49.9243 70.1126 49.7874C70.655 49.444 70.8442 48.7542 70.5332 48.2501C68.0937 44.3176 63.5654 41.8201 58.4201 41.5693C53.0144 41.3109 47.7803 43.5184 44.4207 47.4756C44.2106 47.7229 44.1121 48.0268 44.1427 48.3314C44.1705 48.6057 44.3035 48.849 44.5174 49.0168C44.6887 49.1523 44.8986 49.2296 45.1248 49.2406C45.4995 49.2588 45.8724 49.094 46.1223 48.7996C46.3498 48.5314 46.5892 48.2718 46.8389 48.0221Z" fill="#111111"/>
</g>
<defs>
<linearGradient id="paint0_linear_1035_42486" x1="44.0492" y1="63.8578" x2="89.2642" y2="34.4933" gradientUnits="userSpaceOnUse">
<stop offset="0.3248" stop-color="#6817C5"/>
<stop offset="0.7055" stop-color="#C5B9E0"/>
<stop offset="0.9383" stop-color="#6817C5"/>
</linearGradient>
<clipPath id="clip0_1035_42486">
<rect width="24.2017" height="36.9508" fill="white" transform="translate(95.7983 55.4355)"/>
</clipPath>
<clipPath id="clip1_1035_42486">
<rect width="44.5599" height="43.2461" fill="white" transform="translate(0 66.3828)"/>
</clipPath>
<clipPath id="clip2_1035_42486">
<rect width="54.7419" height="55.26" fill="white" transform="translate(21.3245 39.0801) rotate(-45)"/>
</clipPath>
</defs>
</svg>
