<svg width="24" height="24" viewBox="0 0 24 24" fill="none" xmlns="http://www.w3.org/2000/svg">
<path d="M18.4417 10.3959C18.3061 10.3959 18.1706 10.3959 18.0351 10.4186C18.0576 10.2598 18.0803 10.0785 18.0803 9.91978C18.0803 7.9246 16.4761 6.31497 14.488 6.31497C13.8102 6.31497 13.2002 6.49637 12.6581 6.83639C11.7544 5.72542 10.3762 5 8.8398 5C6.12868 5 3.93712 7.19918 3.93712 9.91982C3.93712 10.1238 3.95966 10.3278 3.98235 10.532C2.26533 10.9854 1 12.5498 1 14.409C1 16.6308 2.78477 18.422 4.999 18.422H18.4644C20.6785 18.422 22.4634 16.631 22.4634 14.409C22.4631 12.1872 20.6558 10.396 18.4415 10.396L18.4417 10.3959ZM9.2689 13.9101C9.0656 13.9101 8.90738 13.7741 8.8396 13.5927C8.74929 13.298 8.70406 13.0033 8.70406 12.6859C8.70406 11.0762 10.0145 9.71596 11.6185 9.67057H11.6862V9.05839C11.6862 8.96777 11.7315 8.87699 11.8218 8.8316C11.867 8.80899 11.9121 8.80899 11.9573 8.80899C12.0025 8.80899 12.0476 8.83161 12.0928 8.85438L13.7195 9.89737C13.7873 9.94276 13.8325 10.0334 13.8325 10.1242C13.8325 10.2148 13.7873 10.3056 13.7195 10.3509L12.0928 11.3939C12.0025 11.4393 11.9121 11.4619 11.8218 11.3939C11.7315 11.3485 11.6862 11.2579 11.6862 11.1671V10.555H11.6185C10.4888 10.6004 9.6077 11.5298 9.6077 12.6634C9.6077 12.8674 9.63024 13.0942 9.69801 13.2982C9.74324 13.4116 9.72054 13.525 9.67547 13.6382C9.63024 13.7516 9.51724 13.8196 9.4044 13.865C9.35933 13.9102 9.3141 13.9102 9.26887 13.9102L9.2689 13.9101ZM11.7767 15.7011H11.709V16.3133C11.709 16.404 11.6637 16.4947 11.5734 16.5401C11.4831 16.5855 11.3701 16.5855 11.3024 16.5401L9.67566 15.4971C9.6079 15.4517 9.56267 15.3611 9.56267 15.2703C9.56267 15.1797 9.6079 15.0889 9.67566 15.0436L11.3024 14.0006C11.3476 13.978 11.3927 13.9552 11.4379 13.9552C11.4831 13.9552 11.5282 13.9552 11.5734 13.9778C11.6637 14.0232 11.709 14.1138 11.709 14.2046V14.794H11.7767C12.9064 14.7486 13.81 13.8192 13.81 12.6856C13.81 12.4816 13.7875 12.2548 13.7197 12.0508C13.6745 11.9374 13.6972 11.824 13.7422 11.7108C13.7875 11.5974 13.9005 11.5294 14.0133 11.484C14.1263 11.4386 14.2393 11.4614 14.3521 11.5066C14.4651 11.552 14.5329 11.6654 14.5781 11.7786C14.6684 12.0734 14.7137 12.368 14.7137 12.6854C14.7138 14.3181 13.4034 15.6559 11.7767 15.7011L11.7767 15.7011Z" fill="#0083E3"/>
</svg>
