<svg width="1391" height="160" viewBox="0 0 1391 160" fill="none" xmlns="http://www.w3.org/2000/svg">
<rect x="1076" y="14" width="313" height="132" rx="66" fill="white" stroke="#6817C5" stroke-width="4"/>
<path d="M1161.94 107.161C1171.16 107.161 1178.97 101.329 1178.97 92.1885C1178.97 84.86 1174.16 80.2896 1169.43 79.1075C1173.53 77.2951 1177.63 72.8035 1177.63 66.5782C1177.63 57.8313 1170.69 52 1161 52H1132V107.161H1161.94ZM1137.75 57.2797H1159.82C1167.3 57.2797 1171.79 60.9833 1171.79 66.5782C1171.79 73.1187 1167.3 76.5859 1159.82 76.5859H1137.75V57.2797ZM1137.75 81.8656H1160.37C1168.17 81.8656 1173.13 85.5692 1173.13 91.8733C1173.13 97.7834 1168.17 101.881 1160.37 101.881H1137.75V81.8656ZM1201.7 107.949C1210.21 107.949 1216.12 104.481 1218.41 100.778C1218.41 101.96 1218.57 105.191 1218.96 107.161H1223.92C1223.61 104.403 1223.37 100.857 1223.37 98.4926V81.9444C1223.37 73.1187 1217.07 66.9722 1205.25 66.9722C1195.48 66.9722 1188.54 72.0155 1187.75 78.7923H1193.27C1193.98 74.3007 1198.55 71.4638 1204.62 71.4638H1205.88C1213.44 71.4638 1218.01 75.0887 1218.01 81.7868V83.3628L1201.47 84.3084C1193.19 84.86 1186.65 88.1697 1186.65 96.2074C1186.65 102.984 1191.77 107.949 1201.7 107.949ZM1202.25 103.457C1195 103.457 1192.09 100.384 1192.09 95.8922C1192.09 91.6369 1195.16 89.0365 1203.99 88.4849L1218.01 87.7757V91.2429C1218.01 99.0442 1210.21 103.457 1203.36 103.457H1202.25ZM1249.9 107.949C1260.85 107.949 1267.32 103.772 1267.32 96.6802C1267.32 90.0609 1262.43 86.7512 1254.63 85.254L1248.48 84.072C1240.84 82.5748 1239.03 81.314 1239.03 77.7679C1239.03 74.4583 1242.65 71.4638 1249.35 71.4638H1250.45C1258.1 71.4638 1262.12 75.0887 1262.59 79.5803H1268.1C1267.47 71.9367 1261.8 66.9722 1249.98 66.9722C1241 66.9722 1233.59 70.597 1233.59 78.3983C1233.59 84.86 1238.4 87.618 1246.12 89.1153L1252.66 90.3761C1259.28 91.6369 1261.88 93.3705 1261.88 97.0742C1261.88 101.172 1257.47 103.457 1250.45 103.457H1249.35C1243.05 103.457 1237.69 100.935 1237.21 95.3405H1231.7C1232.17 103.063 1238.47 107.949 1249.9 107.949ZM1282.97 60.6681V53.97H1276.82V60.6681H1282.97ZM1282.66 107.161V67.7602H1277.3V107.161H1282.66ZM1313.17 107.949C1323.49 107.949 1330.9 102.275 1332 94.5525H1326.48C1325.3 99.5958 1320.34 103.457 1313.72 103.457H1312.61C1302.45 103.457 1297.49 95.8922 1297.49 87.4604C1297.49 79.0287 1302.45 71.4638 1312.61 71.4638H1313.72C1320.34 71.4638 1325.38 74.6947 1326.48 80.3684H1332C1330.9 72.0943 1323.49 66.9722 1313.17 66.9722C1300.16 66.9722 1292.05 75.9555 1292.05 87.4604C1292.05 99.517 1299.53 107.949 1313.17 107.949Z" fill="#6817C5"/>
<g clip-path="url(#clip0_918_2500)">
<path d="M79.9202 159.84C124.059 159.84 159.84 124.059 159.84 79.9202C159.84 35.7813 124.059 0 79.9202 0C35.7813 0 0 35.7813 0 79.9202C0 124.059 35.7813 159.84 79.9202 159.84Z" fill="#6817C5"/>
<path fill-rule="evenodd" clip-rule="evenodd" d="M112.491 77.7337C112.496 77.4622 112.498 77.1904 112.498 76.9186V54.7809C112.498 54.7809 103.031 48.9738 96.8301 46.1215C90.6295 43.2693 80.9887 40.2863 79.9242 39.96V40.0183L79.8268 39.974C79.8268 39.974 68.8501 43.071 62.2483 46.1219C56.0723 48.9759 47.1562 54.8245 47.1562 54.8245V76.9625C47.1562 95.8341 59.2765 113.702 76.3677 119.339C78.6137 120.08 81.0404 120.08 83.286 119.339C100.144 113.779 112.166 96.3186 112.491 77.7337Z" fill="#FBF9FF"/>
<path fill-rule="evenodd" clip-rule="evenodd" d="M47.1577 54.7818L47.1562 54.7825V56.501C57.1803 75.3022 82.0837 100.324 99.8986 108.584C103.586 104.674 106.601 100.052 108.756 95.0135C94.6348 92.98 60.4303 70.8993 48.0463 54.2529C47.4808 54.6158 47.1577 54.8275 47.1577 54.8275V54.7818Z" fill="#D9D9D9"/>
</g>
<path d="M573.426 125C596.551 125 609.051 115.5 609.051 100.25C609.051 86.5 599.676 78.875 580.926 75.875L566.926 73.625C553.551 71.5 547.426 67.5 547.426 59.25C547.426 50.375 556.176 43.375 571.801 43.375H573.801C589.176 43.375 599.176 50 600.801 61.875H610.801C609.051 45.25 595.551 35 572.801 35C548.676 35 538.176 47.125 538.176 59.5C538.176 73.875 546.301 80 564.551 83L578.176 85.25C593.676 87.75 599.801 92.625 599.801 100.625C599.801 110 592.426 116.625 574.301 116.625H572.301C554.926 116.625 543.801 109.75 543.301 96.25H533.301C533.676 115.375 548.801 125 573.426 125ZM684.767 90.125C684.767 72.125 672.767 60 654.517 60C637.517 60 621.767 70.875 621.767 92C621.767 113.875 636.267 125 655.017 125C670.267 125 681.642 117.5 684.017 105.875H675.267C672.892 113 664.767 117.875 655.767 117.875H654.017C642.517 117.875 631.017 110.125 630.267 93.5H684.767V90.125ZM630.642 86.375C632.517 74.875 640.642 67.125 653.642 67.125H655.392C665.892 67.125 675.142 73.75 675.642 86.375H630.642ZM728.936 125C745.311 125 757.061 116 758.811 103.75H750.061C748.186 111.75 740.311 117.875 729.811 117.875H728.061C711.936 117.875 704.061 105.875 704.061 92.5C704.061 79.125 711.936 67.125 728.061 67.125H729.811C740.311 67.125 748.311 72.25 750.061 81.25H758.811C757.061 68.125 745.311 60 728.936 60C708.311 60 695.436 74.25 695.436 92.5C695.436 111.625 707.311 125 728.936 125ZM797.608 125C810.983 125 819.358 119 823.608 112V123.75H832.108V61.25H823.608V93.375C823.608 108.75 812.608 117.875 800.483 117.875H798.733C786.358 117.875 781.233 110.625 781.233 97.375V61.25H772.733V100.125C772.733 115.125 781.483 125 797.608 125ZM859.805 123.75V91.125C859.805 77.625 867.305 69.875 881.055 69.875H889.93V61.25H880.805C869.305 61.25 862.68 65.25 859.18 73.25V61.25H851.305V123.75H859.805ZM909.929 50V39.375H900.179V50H909.929ZM909.429 123.75V61.25H900.929V123.75H909.429ZM966.676 123.75V116.625H953.327C947.202 116.625 944.952 114.375 944.952 107.875V68.375H965.702V61.25H944.952V41H936.452V61.25H919.702V68.375H936.452V109.625C936.452 118.375 940.952 123.75 949.327 123.75H966.676ZM1007.3 111.75L981.05 61.25H971.3L1002.67 121L997.55 131.375C995.3 136 993.675 137.25 988.8 137.25H973.925V144.375H991.425C997.675 144.375 1001.17 142.875 1004.17 136.875L1041.8 61.25H1032.3L1007.3 111.75Z" fill="black"/>
<path fill-rule="evenodd" clip-rule="evenodd" d="M214.073 117.737L214.067 117.733C206.186 112.363 202.203 104.361 202.033 94.0328L202 92H223.337L223.431 93.9018C223.64 98.1551 225.43 101.222 228.847 103.34C232.423 105.557 237.374 106.76 243.873 106.76H245.793C252.515 106.76 256.915 105.832 259.377 104.301C261.938 102.709 262.873 100.993 262.873 99.16C262.873 97.1496 262.04 95.5381 260.126 94.1985L260.113 94.1893L260.1 94.1799C258.177 92.7875 254.649 91.5641 249.198 90.6951L249.187 90.6933L236.104 88.5328C226.36 86.9087 218.907 84.1474 214.027 80.0519L214.021 80.0462L214.014 80.0405C209.054 75.8018 206.713 69.6137 206.713 61.84C206.713 57.1112 208.078 52.6909 210.764 48.6188C213.506 44.4612 217.728 41.2054 223.257 38.774C228.88 36.2207 235.945 35 244.353 35C256.291 35 265.958 37.5321 273.135 42.8265C280.334 48.0573 284.373 55.3071 285.224 64.4139L285.429 66.6H264.084L263.851 64.8668C263.371 61.305 261.636 58.6266 258.536 56.6981C255.356 54.7189 251.001 53.64 245.313 53.64H243.393C237.71 53.64 233.633 54.504 230.945 56.0165C228.272 57.567 227.393 59.1712 227.393 60.76C227.393 63.1608 228.224 64.6837 229.742 65.6959C231.555 66.9042 234.585 67.9641 239.045 68.7477L252.474 70.9059C262.504 72.5368 270.283 75.5922 275.559 80.2625C280.894 84.9854 283.553 91.1434 283.553 98.56C283.553 107.185 280.096 113.979 273.202 118.691L273.197 118.694C266.486 123.254 256.983 125.4 244.953 125.4C232.161 125.4 221.803 122.918 214.079 117.741L214.073 117.737Z" fill="black"/>
<path fill-rule="evenodd" clip-rule="evenodd" d="M295.671 109.839L295.661 109.822C292.475 104.743 290.915 98.8441 290.915 92.2C290.915 85.5568 292.475 79.6912 295.669 74.6844L295.674 74.677C298.922 69.6342 303.368 65.7529 308.963 63.0404C314.561 60.3262 320.989 59 328.195 59C335.402 59 341.83 60.3262 347.428 63.0404C353.02 65.7519 357.43 69.6335 360.599 74.6805C363.874 79.6863 365.475 85.5537 365.475 92.2C365.475 98.8523 363.871 104.757 360.6 109.838C357.427 114.81 353.017 118.65 347.428 121.359C341.83 124.074 335.402 125.4 328.195 125.4C320.989 125.4 314.561 124.074 308.963 121.359C303.377 118.651 298.932 114.816 295.682 109.856L295.671 109.839ZM337.45 77.8828L337.42 77.8659C335.035 76.5332 332.259 75.84 329.035 75.84H327.355C324.133 75.84 321.307 76.5329 318.829 77.8777L318.82 77.8827L318.811 77.8876C316.427 79.1497 314.536 80.9648 313.119 83.374C311.735 85.7264 310.995 88.6394 310.995 92.2C310.995 95.6652 311.729 98.5883 313.126 101.037C314.541 103.44 316.433 105.296 318.821 106.637C321.298 107.905 324.129 108.56 327.355 108.56H329.035C332.272 108.56 335.06 107.901 337.45 106.637C339.926 105.291 341.853 103.432 343.265 101.037C344.661 98.5881 345.395 95.665 345.395 92.2C345.395 88.6394 344.655 85.7264 343.271 83.374C341.863 80.9795 339.943 79.165 337.481 77.8986L337.45 77.8828Z" fill="black"/>
<path fill-rule="evenodd" clip-rule="evenodd" d="M374.592 124.2V36.2H394.551V124.2H374.592Z" fill="black"/>
<path fill-rule="evenodd" clip-rule="evenodd" d="M406.438 62.2H426.398V124.2H406.438V62.2Z" fill="black"/>
<path fill-rule="evenodd" clip-rule="evenodd" d="M451.247 121.457L451.235 121.45C446.186 118.798 442.158 114.98 439.173 110.033L439.169 110.027L439.165 110.02C436.151 104.94 434.685 98.9736 434.685 92.2C434.685 85.058 436.138 78.9525 439.176 74.0008C442.167 69.048 446.207 65.3014 451.277 62.808C456.369 60.2632 461.916 59 467.885 59C473.75 59 478.748 59.9054 482.78 61.8318C484.918 62.8331 486.813 63.975 488.445 65.2668V36.2H508.405V124.2H488.445V119.443C486.652 120.835 484.563 122.007 482.201 122.971L482.185 122.978L482.168 122.985C477.98 124.608 473.289 125.4 468.125 125.4C461.992 125.4 456.354 124.095 451.247 121.457ZM486.206 101.258L486.21 101.251C487.669 98.819 488.445 95.8305 488.445 92.2C488.445 88.4786 487.665 85.5046 486.224 83.171L486.212 83.1526L486.201 83.134C484.798 80.7488 482.892 78.9843 480.451 77.799L480.42 77.7838L480.389 77.7676C477.997 76.5009 475.206 75.84 471.965 75.84H470.285C465.62 75.84 461.943 77.2801 459.082 80.0716L459.073 80.0804L459.064 80.0891C456.293 82.725 454.765 86.651 454.765 92.2C454.765 97.7399 456.288 101.718 459.073 104.439C461.93 107.153 465.611 108.56 470.285 108.56H471.965C475.219 108.56 478.021 107.934 480.421 106.736C482.878 105.47 484.795 103.657 486.201 101.266L486.206 101.258Z" fill="black"/>
<path fill-rule="evenodd" clip-rule="evenodd" d="M416.07 55.9766C409.36 55.9766 404.73 51.3472 404.73 45.6366C404.73 39.9259 409.36 35.2966 416.07 35.2966H416.55C423.261 35.2966 427.89 39.9259 427.89 45.6366C427.89 51.3472 423.261 55.9766 416.55 55.9766H416.07Z" fill="black"/>
<defs>
<clipPath id="clip0_918_2500">
<rect width="160" height="160" fill="white"/>
</clipPath>
</defs>
</svg>
