<svg viewBox="0 0 244.46 113.98" xmlns="http://www.w3.org/2000/svg"><g fill="#FFF"><path d="M102.41 40.58V8h-.001c0-.95-.77-1.73-1.71-1.74 0 0-37.21-6.04-49.62-6.26 -12.41-.22-49.3 6-49.3 6v0C.8 5.97.01 6.73-.01 7.69c-.01.01-.01.02-.01.04v32.84s-1.16 27.36 17.44 48.9c16.52 19.13 30.32 23.66 33.2 24.44v0c.36.07.74.07 1.11 0 2.92-.79 16.7-5.35 33.18-24.44 18.6-21.54 17.48-48.9 17.48-48.9Zm-25 43c-11.21 13-20.79 18.57-25.67 20.8v0c-.37.13-.78.13-1.14 0 -4.84-2.29-14.43-7.88-25.6-20.85C8.49 64.45 9.15 39.45 9.16 39.19v-25 0c.01-.37.25-.68.6-.78l0-.001c13.46-3.41 27.28-5.15 41.17-5.2h.71l0 0c13.82 0 27.6 1.74 41 5.18l-.001-.001c.34.1.58.41.6.78v25.06c.03.22.68 25.22-15.78 44.3Z"/><path d="M51.1 31.87v0c-4.9-.02-8.88 3.93-8.89 8.82 -.02 4.89 3.93 8.87 8.82 8.88 4.89.01 8.87-3.94 8.88-8.83 0-.01 0-.01 0-.01l-.001-.001c0-4.89-3.95-8.86-8.83-8.88Z"/><path d="M84.1 39.41v-18 0c-.02-.35-.26-.65-.59-.73v-.001c-10.48-2.19-21.16-3.28-31.86-3.28H51h-.001c-10.76.05-21.47 1.17-32 3.34v0c-.34.08-.58.38-.59.73v18.07c0 1.33 0 22.31 13.59 38 7.53 8.82 14.14 13.76 18.7 16.46h-.001c.31.15.68.15 1 0 4.53-2.69 11.14-7.63 18.77-16.46 13.94-16.11 13.63-37.88 13.63-38.13ZM63.51 71.6c-1.09 1.28-2.16 2.45-3.2 3.54 -.24.25-.43.17-.43-.18V67.4c0-5.72 5.55-8.63 7.38-9.43v0c.33-.16.56-.49.58-.86v-5.74h0c.03-.21-.11-.41-.32-.44 -.1-.02-.19 0-.27.05l-.001 0c-10.4 4.1-21.97 4.1-32.36.01v0c-.19-.11-.43-.05-.54.14 -.04.07-.06.15-.05.23v5.74 0c.02.36.25.69.59.84 6.08 2.33 7.32 6.29 7.32 9.52v7.42c0 .35-.19.43-.43.18q-1.53-1.6-3.16-3.48c-11.44-13.26-11.37-31.84-11.37-32v-10.6 0c.01-.36.27-.66.62-.72h0c7.6-1.2 15.29-1.81 23-1.83h.69v-.001c7.59 0 15.18.58 22.69 1.76v0c.35.06.61.36.62.72v10.3c-.001.35.11 19.08-11.38 32.37Z"/><path d="M121 30.15v-.001c0 .39-.08.78-.24 1.15v0c-.16.34-.38.66-.65.93v0c-.29.27-.63.48-1 .62l0-.001c-.38.15-.78.22-1.18.23v-.001c-.82.01-1.61-.3-2.18-.87v0c-.58-.54-.9-1.28-.88-2.06l-.001-.001c-.01-.4.06-.79.23-1.15v-.001c.14-.36.36-.68.65-.93v0c.29-.27.63-.49 1-.63v0c.38-.18.79-.26 1.21-.25h-.001c.4 0 .8.07 1.18.23v0c.72.29 1.29.86 1.6 1.58v0c.16.36.25.75.26 1.15Zm-5.74 18.65V35.32h5.33V48.8Z"/><path d="M135 30.53V48.8h-5.6V30.53h-6.5v-4.75h18.57v4.75Z"/><path d="M153.79 48.8V40v0c0-.44-.03-.87-.09-1.3v0c-.06-.39-.19-.76-.38-1.09v0c-.18-.31-.43-.56-.73-.74v0c-.36-.21-.77-.3-1.17-.28v0c-.84-.05-1.65.33-2.15 1v-.001c-.52.71-.78 1.58-.74 2.46v8.75h-5.34v-24.58h5.34v10.44h.06v0c.43-.72 1.03-1.32 1.76-1.74v0c.86-.54 1.87-.8 2.89-.77v0c.96-.03 1.91.17 2.78.59v0c.71.35 1.33.87 1.82 1.51v0c.47.63.81 1.36 1 2.13v-.001c.2.78.31 1.59.31 2.41v10Z"/><path d="M179.26 40.9v.65 0c.01.2.01.41 0 .62h-11.78v0c.04.43.18.86.41 1.24v0c.22.38.52.72.88 1v0c.37.26.78.46 1.23.59v0c.44.15.91.22 1.38.23v0c.74.02 1.48-.15 2.15-.48v0c.56-.3 1.04-.71 1.43-1.21l3.71 2.34v0c-.76 1.1-1.8 1.97-3 2.55l0-.001c-1.37.62-2.85.92-4.34.89h0c-1.18 0-2.34-.19-3.45-.56l-.001-.001c-1.07-.36-2.04-.93-2.88-1.66v-.001c-.84-.75-1.49-1.67-1.92-2.69v0c-.49-1.16-.73-2.4-.7-3.64v0c-.02-1.24.21-2.46.68-3.59v0c.42-1.03 1.05-1.96 1.85-2.73v0c.79-.76 1.74-1.35 2.77-1.74l-.001 0c1.1-.42 2.27-.63 3.45-.62v0c1.12-.02 2.23.19 3.28.6v-.001c.98.38 1.86.97 2.59 1.74h-.001c.73.79 1.3 1.73 1.67 2.76v-.001c.41 1.19.61 2.44.59 3.71Zm-4.91-2v0c.01-.81-.28-1.58-.8-2.18v0c-.63-.65-1.5-.98-2.39-.91v0c-.49-.01-.98.08-1.43.25l-.001 0c-.42.14-.81.37-1.14.66v-.001c-.33.27-.59.61-.78 1h-.001c-.2.36-.31.76-.33 1.18Z"/><path d="M203.25 48.8V40h-.001c0-.45-.03-.89-.09-1.32v0c-.06-.39-.18-.75-.36-1.09v0c-.18-.3-.42-.55-.7-.73v-.001c-.35-.2-.75-.3-1.15-.28h0c-.42-.02-.83.09-1.19.3l-.001 0c-.34.19-.64.45-.85.78v0c-.24.34-.4.72-.5 1.12v-.001c-.11.43-.17.87-.16 1.32v8.7h-5.34v-9.23 0c.04-.78-.15-1.55-.55-2.21v0c-.41-.56-1.08-.87-1.76-.82v0c-.8-.05-1.56.33-2 1v-.001c-.49.73-.73 1.59-.7 2.47v8.79h-5.37v-16.19h5.17v2.24h.07 -.001c.2-.36.45-.7.73-1v-.001c.31-.35.69-.63 1.1-.85l0-.001c.43-.26.89-.47 1.38-.6v-.001c.54-.16 1.1-.24 1.67-.23l0-.001c1.04-.04 2.08.21 3 .72v-.001c.81.48 1.47 1.19 1.9 2.05v0c.52-.83 1.23-1.51 2.08-2v0c.94-.53 2.01-.79 3.09-.75h0c.96-.04 1.91.17 2.78.61v0c.71.37 1.33.9 1.81 1.56v0c.45.64.79 1.37 1 2.14v-.001c.19.76.3 1.54.31 2.33v10Z"/><path d="M228.68 40.9v.65 -.001c.01.2.01.41 0 .62h-11.77 0c.04.43.18.86.41 1.24v0c.22.38.52.72.88 1v-.001c.36.28.76.49 1.2.64h0c.44.15.91.22 1.38.23v0c.74.02 1.48-.15 2.15-.48v0c.55-.3 1.04-.71 1.43-1.21l3.71 2.34v0c-.76 1.09-1.8 1.97-3 2.55v0c-1.37.61-2.85.92-4.34.89h0c-1.18 0-2.34-.19-3.45-.56v0c-1.05-.37-2.02-.93-2.85-1.66v0c-.83-.75-1.48-1.67-1.91-2.69v-.001c-.49-1.16-.73-2.4-.7-3.64v0c-.03-1.24.21-2.46.68-3.59l0 0c.42-1.03 1.05-1.96 1.85-2.73v0c.79-.76 1.73-1.36 2.77-1.74h0c1.09-.42 2.26-.63 3.44-.62v0c1.12-.02 2.24.19 3.29.6v0c.97.38 1.85.97 2.57 1.74h-.001c.73.79 1.3 1.73 1.67 2.76v0c.4 1.17.6 2.41.59 3.66Zm-4.91-2h-.001c.01-.8-.27-1.58-.79-2.18v-.001c-.63-.65-1.5-.98-2.39-.91v0c-.49-.01-.98.08-1.43.25v0c-.42.14-.81.37-1.14.66v-.001c-.33.27-.59.61-.78 1v-.001c-.2.36-.31.76-.33 1.18Z"/><path d="M241.53 37.39v0c-.46-.42-.98-.75-1.53-1v0c-.58-.28-1.21-.43-1.85-.42h0c-.48-.01-.95.09-1.38.29v0c-.41.15-.67.56-.64 1v0c-.03.45.26.86.7 1v-.001c.73.27 1.49.49 2.26.65l0 0c.62.13 1.24.32 1.84.56v0c.6.22 1.16.54 1.67.94l-.001-.001c.49.38.9.87 1.21 1.43v-.001c.31.61.46 1.3.45 2v-.001c.02.89-.19 1.79-.62 2.58v-.001c-.41.67-.97 1.25-1.64 1.67v0c-.68.44-1.44.75-2.22.94v-.001c-.82.19-1.65.29-2.48.29l-.001-.001c-1.32-.01-2.63-.22-3.88-.63v-.001c-1.19-.38-2.28-1.02-3.17-1.87l3-3.15v0c.49.54 1.08.99 1.75 1.33v-.001c.68.34 1.44.51 2.21.52v0c.44-.01.88-.12 1.28-.31v0c.41-.2.67-.63.64-1.09l-.001-.001c0-.51-.32-.95-.79-1.11v0c-.79-.33-1.6-.58-2.43-.75h0c-.58-.14-1.15-.31-1.7-.52v0c-.55-.21-1.06-.5-1.51-.87v0c-.46-.39-.83-.85-1.09-1.37v0c-.3-.61-.44-1.28-.42-1.95v0c-.03-.88.18-1.74.62-2.49v0c.39-.67.94-1.24 1.59-1.67l-.001 0c.65-.46 1.38-.8 2.16-1v0c.76-.21 1.56-.31 2.36-.31l-.001-.001c1.2-.01 2.41.19 3.56.57h0c1.11.33 2.13.91 3 1.7Z"/><path d="M127.65 64.92h0c-.5-.63-1.14-1.13-1.87-1.45v-.001c-.7-.35-1.46-.53-2.23-.54v-.001c-.38-.01-.76.03-1.12.1l-.001 0c-.36.06-.7.19-1 .37v0c-.3.18-.56.43-.76.72v0c-.22.33-.33.72-.31 1.12v0c-.02.35.06.69.25 1h-.001c.17.27.42.51.71.68h-.001c.35.2.73.39 1.12.54 .44.16.92.33 1.47.5 .78.26 1.59.55 2.44.86v0c.82.3 1.59.72 2.3 1.25v0c.68.52 1.26 1.18 1.7 1.93v0c.47.88.71 1.87.68 2.88v0c.03 1.18-.22 2.36-.73 3.43v0c-.48.93-1.17 1.75-2 2.39v0c-.85.63-1.81 1.11-2.83 1.4v0c-1.07.3-2.18.45-3.28.45v-.001c-1.64 0-3.26-.29-4.78-.86v0c-1.46-.52-2.77-1.36-3.84-2.46l3.64-3.7h-.001c.61.72 1.37 1.31 2.23 1.74h-.001c.84.44 1.79.68 2.75.7h0c.4-.01.8-.05 1.2-.13h0c.35-.09.69-.23 1-.43v0c.29-.2.53-.47.69-.78v0c.18-.37.27-.77.26-1.17v0c.01-.4-.1-.78-.32-1.1v0c-.26-.34-.57-.62-.93-.83h0c-.47-.29-.97-.52-1.49-.68 -.6-.21-1.28-.43-2-.67h-.001c-.74-.25-1.46-.53-2.16-.85h0c-.69-.32-1.33-.74-1.88-1.25v-.001c-.57-.53-1.02-1.16-1.34-1.85v0c-.36-.84-.53-1.75-.5-2.65v0c-.04-1.15.23-2.29.78-3.29v0c.48-.89 1.17-1.66 2-2.24v0c.86-.6 1.83-1.04 2.86-1.29h-.001c1.05-.27 2.13-.41 3.22-.4v0c1.36 0 2.71.24 4 .71v-.001c1.31.45 2.52 1.17 3.56 2.12Z"/><path d="M150.48 74.05v.65 0c.01.2.01.41 0 .62H138.7v0c.04.43.18.86.41 1.24v0c.22.38.52.72.88 1v0c.36.27.76.48 1.2.63v0c.44.15.91.22 1.38.23v0c.74.02 1.48-.14 2.15-.47v-.001c.56-.3 1.05-.72 1.43-1.22l3.71 2.27v0c-.76 1.1-1.79 1.98-3 2.55v0c-1.37.62-2.85.93-4.34.9v0c-1.18 0-2.35-.19-3.45-.57v0c-1.05-.36-2.02-.93-2.84-1.66v0c-.83-.75-1.49-1.66-1.92-2.68v0c-.49-1.16-.73-2.4-.7-3.65v0c-.02-1.24.21-2.46.68-3.59v0c.85-2.07 2.52-3.69 4.62-4.47v0c1.1-.42 2.27-.63 3.45-.62v0c1.12-.02 2.23.19 3.28.6v0c.97.38 1.85.97 2.57 1.74v0c.74.79 1.3 1.74 1.67 2.77h-.001c.42 1.19.62 2.46.6 3.73Zm-4.91-2v0c.01-.81-.27-1.58-.8-2.18v0c-.63-.65-1.5-.98-2.39-.91v0c-.49-.01-.98.07-1.43.24l-.001 0c-.42.15-.81.37-1.14.67v0c-.33.27-.6.61-.78 1h-.001c-.19.35-.3.73-.33 1.13Z"/><path d="M165 71v-.001c-.33-.44-.76-.78-1.24-1v-.001c-.5-.23-1.05-.35-1.59-.35v0c-.53-.01-1.06.1-1.53.34v0c-.45.22-.85.53-1.17.91v0c-.33.39-.59.83-.76 1.32v-.001c-.2.5-.29 1.04-.28 1.59v0c-.01.54.08 1.07.26 1.59v-.001c.16.48.42.93.76 1.32v0c.33.37.74.68 1.21.89l-.001-.001c.49.22 1.03.33 1.58.33v0c.55-.01 1.09-.11 1.61-.31v0c.49-.19.93-.5 1.28-.89l3 3.61v-.001c-.75.69-1.64 1.21-2.6 1.52v0c-1.09.37-2.23.56-3.38.56v0c-1.23 0-2.44-.2-3.59-.59v0c-1.07-.37-2.06-.95-2.89-1.71v0c-.83-.76-1.49-1.69-1.93-2.71v0c-.94-2.31-.94-4.89 0-7.19v0c.44-1.03 1.1-1.96 1.93-2.71v0c.83-.77 1.82-1.36 2.89-1.73v0c1.13-.41 2.34-.61 3.55-.6h0c.58 0 1.16.05 1.74.16v0c.56.1 1.11.25 1.66.44v0c.5.17.99.41 1.46.69v0c.42.24.81.54 1.16.89Z"/><path d="M180.82 82v-2.29h-.07v0c-.21.36-.47.7-.76 1v0c-.33.33-.71.62-1.11.85v0c-.45.24-.92.44-1.4.58h-.001c-.53.15-1.07.23-1.61.23v0c-.95.03-1.89-.17-2.74-.58v0c-.72-.37-1.35-.89-1.83-1.52v0c-.48-.63-.82-1.35-1-2.11v0c-.21-.79-.32-1.61-.31-2.42v-10h5.36v8.78l0 0c0 .43.03.86.1 1.3v0c.05.38.18.76.37 1.11v0c.17.31.43.57.74.76v0c.36.2.78.3 1.2.28v0c.83.05 1.63-.33 2.13-1l0 0c.49-.72.75-1.57.73-2.44v-8.77h5.38V82Z"/><path d="M200.62 70.15v0c-.23-.07-.47-.11-.7-.13h-.67v0c-.63-.02-1.25.11-1.8.39v-.001c-.46.22-.86.54-1.17.94v0c-.29.35-.5.76-.63 1.2v0c-.13.36-.2.74-.2 1.13v8.32h-5.33v-16.22h5.14v2.34h.06v0c.4-.81 1.01-1.5 1.76-2v0c.77-.53 1.69-.8 2.63-.78q.33 0 .63 0v0c.17.01.34.04.51.1Z"/><path d="M218.41 69.73v6.2 0c-.05.6.1 1.21.44 1.72l-.001-.001c.4.42.98.63 1.57.57h0c.27-.01.55-.03.83-.07v0c.25-.02.5-.07.75-.15l.06 3.9v0c-.46.15-.93.26-1.4.34v0c-.56.09-1.13.14-1.69.15v0c-.93.02-1.86-.12-2.73-.41v-.001c-.69-.24-1.3-.64-1.77-1.17h-.001c-.48-.53-.82-1.16-1-1.83v0c-.21-.77-.31-1.57-.29-2.36v-6.89h-2.58v-4h2.57v-4.23h5.24v4.26h3.8v4Z"/><path d="M233.85 84.4l-.001-.001c-.3.78-.66 1.53-1.08 2.26h0c-.39.63-.88 1.2-1.44 1.69v0c-.6.47-1.28.83-2 1.05v0c-.86.25-1.76.37-2.65.36h0c-.52 0-1.03-.04-1.54-.1v0c-.47-.05-.93-.14-1.38-.26l.58-4.48v0c.28.08.56.15.86.21h0c.28.04.57.07.87.08h0c.64.05 1.28-.15 1.78-.57v0c.42-.47.74-1.02.95-1.61l.52-1.33 -6.72-15.94h5.92l3.61 10.41h.1l3.22-10.41h5.66Z"/><path d="M208.78 63.5v0c0 .39-.08.78-.24 1.15v-.001c-.16.34-.38.66-.65.93v-.001c-.29.27-.63.48-1 .62v0c-.38.15-.78.22-1.18.23h-.001c-.82.01-1.61-.3-2.18-.87v0c-.58-.54-.9-1.28-.88-2.06v0c-.01-.39.07-.77.23-1.12v0c.14-.36.36-.68.65-.93v0c.29-.27.63-.49 1-.63h0c.38-.18.79-.26 1.21-.25l-.001-.001c.4 0 .8.07 1.18.23v0c.37.13.71.34 1 .62v0c.27.26.49.58.65.93v0c.15.36.22.75.21 1.15Zm-5.72 18.66V68.67h5.33v13.49Z"/></g></svg>
