<svg width="95" height="44" viewBox="0 0 95 44" fill="none" xmlns="http://www.w3.org/2000/svg">
<g clip-path="url(#clip0_88_986)">
<path d="M39.4981 15.6651V3.08814C39.4982 2.91199 39.429 2.74287 39.3057 2.61723C39.1823 2.49159 39.0146 2.41948 38.8386 2.41645C38.8386 2.41645 24.4871 0.0848088 19.7007 -0.000118417C14.9143 -0.0850456 0.686171 2.31608 0.686171 2.31608C0.596751 2.31402 0.507822 2.32987 0.424611 2.36271C0.341401 2.39554 0.265587 2.44469 0.201626 2.50727C0.137666 2.56985 0.0868487 2.64459 0.0521621 2.72711C0.0174756 2.80963 -0.000380659 2.89825 -0.000357022 2.98777V15.6651C-0.000357022 15.6651 -0.447757 26.2269 6.72607 34.5421C13.0977 41.9269 18.4202 43.6756 19.531 43.9767C19.672 44.0076 19.818 44.0076 19.9591 43.9767C21.0853 43.6718 26.4001 41.9114 32.7563 34.5421C39.9301 26.2269 39.4981 15.6651 39.4981 15.6651ZM29.8559 32.2645C25.5323 37.2829 21.8374 39.4331 19.9552 40.294C19.8136 40.348 19.6571 40.348 19.5155 40.294C17.6488 39.41 13.95 37.252 9.64189 32.2452C3.27415 24.8797 3.5287 15.2289 3.53256 15.1285V5.47768C3.53572 5.40983 3.5596 5.34457 3.60099 5.29073C3.64237 5.23689 3.69926 5.19704 3.76397 5.17658C8.95562 3.86336 14.288 3.18925 19.6428 3.16921H19.9167C25.2507 3.1693 30.5635 3.84112 35.7299 5.16886C35.7947 5.18932 35.8515 5.22917 35.8929 5.28301C35.9343 5.33685 35.9582 5.40211 35.9613 5.46996V15.1439C35.9729 15.2289 36.2236 24.8797 29.8752 32.2452L29.8559 32.2645Z" fill="#0083E3"/>
<path d="M19.7086 12.3029C19.0325 12.3006 18.371 12.499 17.8077 12.8731C17.2444 13.2472 16.8046 13.7801 16.544 14.4044C16.2833 15.0287 16.2136 15.7164 16.3435 16.3804C16.4734 17.0444 16.7972 17.655 17.2739 18.1347C17.7505 18.6145 18.3587 18.9421 19.0213 19.0758C19.684 19.2096 20.3715 19.1437 20.9967 18.8863C21.6219 18.629 22.1568 18.1918 22.5337 17.6301C22.9107 17.0684 23.1127 16.4075 23.1142 15.7308C23.1152 14.8247 22.7574 13.9551 22.119 13.3126C21.4807 12.67 20.6139 12.307 19.7086 12.3029Z" fill="#0083E3"/>
<path d="M32.4365 15.2136V8.26503C32.4343 8.1997 32.4109 8.13688 32.3699 8.08604C32.3288 8.0352 32.2723 7.99911 32.209 7.98323C28.167 7.1415 24.0494 6.71722 19.9209 6.71704H19.6702C15.5237 6.73774 11.3895 7.16963 7.32814 8.00639C7.26479 8.02227 7.20833 8.05836 7.16728 8.1092C7.12622 8.16004 7.10281 8.22287 7.10059 8.28819V15.2638C7.10059 15.7772 7.10059 23.8762 12.3421 29.933C15.2464 33.3379 17.7958 35.2449 19.5545 36.2871C19.6144 36.317 19.6804 36.3326 19.7474 36.3326C19.8143 36.3326 19.8803 36.317 19.9402 36.2871C21.6874 35.2487 24.2368 33.3417 27.1796 29.933C32.5561 23.7141 32.4365 15.3101 32.4365 15.2136ZM24.4952 27.64C24.0748 28.1341 23.6621 28.5858 23.261 29.0066C23.1684 29.1031 23.0951 29.0722 23.0951 28.9371V26.0187C23.0951 23.8106 25.2357 22.6872 25.9415 22.3784C26.0056 22.3488 26.0603 22.3022 26.0998 22.2437C26.1392 22.1852 26.1618 22.1169 26.1652 22.0464V19.8306C26.1697 19.8026 26.166 19.774 26.1545 19.7481C26.1431 19.7223 26.1245 19.7003 26.1008 19.6848C26.0772 19.6693 26.0496 19.6609 26.0213 19.6608C25.993 19.6606 25.9653 19.6686 25.9415 19.6839C21.9318 21.2669 17.4713 21.2683 13.4606 19.6877C13.4366 19.6741 13.4092 19.6674 13.3816 19.6683C13.354 19.6692 13.3272 19.6777 13.3041 19.6928C13.281 19.708 13.2625 19.7292 13.2506 19.7542C13.2388 19.7792 13.234 19.8069 13.2369 19.8344V22.0503C13.242 22.1198 13.2659 22.1867 13.3059 22.2438C13.346 22.3009 13.4008 22.3461 13.4645 22.3745C15.8095 23.274 16.2877 24.8027 16.2877 26.0496V28.9139C16.2877 29.049 16.2144 29.0799 16.1219 28.9834C15.7285 28.5716 15.3222 28.1238 14.9031 27.64C10.4908 22.5212 10.5178 15.3487 10.5178 15.287V11.195C10.5202 11.1284 10.5451 11.0646 10.5886 11.014C10.6321 10.9635 10.6914 10.9293 10.7569 10.9171C13.6918 10.4573 16.6572 10.2212 19.6278 10.2106H19.8939C22.8241 10.2111 25.75 10.4382 28.6452 10.8901C28.711 10.9016 28.7708 10.9356 28.8144 10.9863C28.858 11.037 28.8827 11.1012 28.8843 11.168V15.1441C28.8843 15.2792 28.9268 22.5096 24.4952 27.64Z" fill="#0083E3"/>
<path d="M51.2967 33.2914C51.3113 33.7462 51.2119 34.1975 51.0075 34.6039C50.8245 34.9497 50.5597 35.2453 50.2361 35.4648C49.892 35.689 49.5106 35.8498 49.1099 35.9396C48.6736 36.0409 48.2271 36.0914 47.7793 36.0902H46.7147V39.4409H44.5703V30.5622H47.8294C48.287 30.5606 48.7435 30.6085 49.1909 30.705C49.5849 30.7891 49.9593 30.9476 50.2939 31.1721C50.6073 31.3861 50.862 31.6755 51.0345 32.0137C51.2229 32.4124 51.3129 32.8506 51.2967 33.2914ZM49.1523 33.2914C49.1595 33.1116 49.1154 32.9335 49.025 32.778C48.9441 32.6448 48.828 32.5366 48.6895 32.4653C48.5382 32.3854 48.3734 32.3344 48.2035 32.3148C48.0196 32.2881 47.834 32.2752 47.6481 32.2762H46.707V34.3723H47.6095C47.8023 34.3736 47.9947 34.3568 48.1842 34.3221C48.359 34.292 48.5274 34.2319 48.6818 34.1446C48.8243 34.0674 48.9431 33.9525 49.025 33.8126C49.1061 33.6555 49.1434 33.4795 49.133 33.303L49.1523 33.2914Z" fill="#0083E3"/>
<path d="M55.9677 34.8858C55.8796 34.8602 55.7892 34.8434 55.6977 34.8357H55.4432C55.2017 34.8278 54.9619 34.8795 54.7451 34.9862C54.5708 35.074 54.417 35.1976 54.2938 35.3491C54.1831 35.4859 54.1005 35.6434 54.0508 35.8123C54.0043 35.9533 53.9783 36.1002 53.9737 36.2485V39.4526H51.918V33.1989H53.9004V34.1022H53.9236C54.0794 33.7905 54.3133 33.5245 54.6024 33.3301C54.9009 33.1261 55.2553 33.0196 55.6167 33.0252C55.6989 33.0193 55.7814 33.0193 55.8636 33.0252C55.9288 33.0306 55.9934 33.0422 56.0564 33.0599L55.9677 34.8858Z" fill="#0083E3"/>
<path d="M63.2797 36.2871C63.2862 36.7648 63.1915 37.2384 63.002 37.6769C62.8294 38.0779 62.5729 38.4372 62.2499 38.7307C61.9268 39.0209 61.5528 39.2486 61.1469 39.4024C60.2822 39.7165 59.3348 39.7165 58.4702 39.4024C58.0633 39.2505 57.689 39.0225 57.3671 38.7307C57.0477 38.4349 56.7929 38.0761 56.6189 37.6769C56.4325 37.2376 56.3392 36.7644 56.345 36.2871C56.3388 35.8124 56.4321 35.3416 56.6189 34.9051C56.7926 34.5091 57.0475 34.154 57.3671 33.8629C57.687 33.5702 58.062 33.3445 58.4702 33.1989C59.3375 32.9003 60.2796 32.9003 61.1469 33.1989C61.5533 33.3428 61.9279 33.5644 62.2499 33.8513C62.5727 34.1405 62.8292 34.496 63.002 34.8936C63.1935 35.3327 63.2882 35.808 63.2797 36.2871ZM61.2973 36.2871C61.2985 36.0859 61.2646 35.886 61.197 35.6965C61.1348 35.5105 61.0365 35.3387 60.9077 35.1908C60.7797 35.0406 60.6222 34.9183 60.4449 34.8318C60.1574 34.6878 59.8298 34.6449 59.5149 34.71C59.2 34.7751 58.9162 34.9445 58.7093 35.1908C58.5842 35.3393 58.4898 35.5112 58.4316 35.6965C58.3083 36.0806 58.3083 36.4937 58.4316 36.8778C58.4927 37.0673 58.5881 37.244 58.7132 37.3989C58.8392 37.5597 58.9983 37.6914 59.1798 37.7849C59.3803 37.8761 59.598 37.9233 59.8182 37.9233C60.0384 37.9233 60.256 37.8761 60.4565 37.7849C60.638 37.6914 60.7971 37.5597 60.9232 37.3989C61.0482 37.244 61.1436 37.0673 61.2047 36.8778C61.266 36.6869 61.2973 36.4876 61.2973 36.2871Z" fill="#0083E3"/>
<path d="M46.6682 6.64371C46.6696 6.79788 46.6381 6.95056 46.5757 7.09151C46.5165 7.228 46.4303 7.35106 46.3222 7.45324C46.2141 7.55542 46.0865 7.63461 45.947 7.686C45.7303 7.77318 45.4932 7.7966 45.2636 7.75352C45.034 7.71043 44.8215 7.60264 44.6511 7.4428C44.5418 7.34077 44.4551 7.21693 44.3967 7.07929C44.3382 6.94165 44.3093 6.79326 44.3117 6.64371C44.3102 6.49492 44.3404 6.34752 44.4004 6.21135C44.4567 6.07587 44.5423 5.95458 44.6511 5.8562C44.7642 5.75191 44.8947 5.66829 45.0368 5.60914C45.3322 5.48836 45.6631 5.48836 45.9586 5.60914C46.0981 5.66054 46.2257 5.73972 46.3338 5.8419C46.4418 5.94408 46.5281 6.06714 46.5872 6.20363C46.6447 6.34303 46.6723 6.49296 46.6682 6.64371ZM44.4621 13.8471V8.64336H46.5178V13.8471H44.4621Z" fill="white"/>
<path d="M52.0682 6.79037V13.847H49.9083V6.79037H47.4014V4.96057H54.5636V6.79037H52.0682Z" fill="white"/>
<path d="M59.3149 13.8471V10.4577C59.3154 10.2898 59.3038 10.1221 59.2802 9.95587C59.2584 9.80758 59.2087 9.66478 59.1336 9.5351C59.0646 9.41714 58.968 9.31777 58.852 9.24557C58.7138 9.17056 58.5579 9.13453 58.4008 9.14134C58.2416 9.13333 58.0829 9.1643 57.9384 9.23157C57.7939 9.29884 57.668 9.40037 57.5716 9.52738C57.3739 9.80206 57.2735 10.1349 57.2861 10.4732V13.8509H55.2266V4.3584H57.2861V8.38472H57.3093C57.4768 8.11025 57.7101 7.88201 57.9881 7.72074C58.3242 7.51877 58.7109 7.41699 59.1027 7.42736C59.4732 7.41624 59.8409 7.49435 60.175 7.65512C60.4505 7.793 60.6907 7.99244 60.8769 8.23803C61.0584 8.48394 61.1895 8.7634 61.2626 9.06028C61.3421 9.36266 61.3823 9.67407 61.3822 9.98675V13.8471H59.3149Z" fill="white"/>
<path d="M69.139 10.809V11.0599C69.1431 11.1396 69.1431 11.2195 69.139 11.2992H64.5956C64.6117 11.4675 64.6658 11.6298 64.7537 11.7741C64.841 11.9234 64.9563 12.0544 65.0931 12.1601C65.2343 12.2649 65.3903 12.3482 65.556 12.4072C65.7276 12.4641 65.9074 12.4928 66.0882 12.4921C66.3755 12.5022 66.6606 12.4398 66.9174 12.3107C67.1349 12.198 67.3235 12.0368 67.469 11.8397L68.8999 12.743C68.6092 13.1698 68.2097 13.511 67.7428 13.7313C67.2175 13.9696 66.6455 14.087 66.0689 14.0748C65.6161 14.0775 65.1662 14.0031 64.7383 13.8548C64.3306 13.7088 63.9566 13.4816 63.6391 13.1869C63.3183 12.9016 63.0653 12.5481 62.8986 12.1524C62.7112 11.7081 62.6193 11.2294 62.6286 10.7472C62.6228 10.2711 62.7119 9.79866 62.8908 9.3575C63.0553 8.96168 63.298 8.60321 63.6044 8.30363C63.9137 8.01269 64.2766 7.78458 64.6727 7.63194C65.0978 7.47138 65.549 7.39152 66.0034 7.39646C66.436 7.39169 66.8655 7.47033 67.2684 7.62808C67.6468 7.77552 67.9879 8.0049 68.2674 8.29977C68.551 8.6083 68.77 8.97058 68.9115 9.36522C69.0744 9.82861 69.1515 10.3179 69.139 10.809ZM67.2453 10.0369C67.251 9.72769 67.1409 9.42752 66.9367 9.19537C66.8184 9.07245 66.6745 8.97722 66.5151 8.91649C66.3557 8.85576 66.1849 8.83103 66.0149 8.84408C65.827 8.84184 65.6403 8.87321 65.4634 8.93673C65.3027 8.99634 65.1539 9.0839 65.0237 9.19537C64.898 9.302 64.7956 9.43341 64.7229 9.5814C64.6491 9.72404 64.6057 9.88048 64.5956 10.0408L67.2453 10.0369Z" fill="white"/>
<path d="M78.3919 13.847V10.4229C78.3924 10.2524 78.3808 10.0821 78.3572 9.9133C78.3356 9.76606 78.2886 9.62368 78.2183 9.49253C78.1539 9.37699 78.061 9.27995 77.9483 9.21072C77.8141 9.13246 77.66 9.09491 77.5048 9.10263C77.3446 9.09887 77.1863 9.13749 77.0458 9.21458C76.9166 9.29072 76.8049 9.39333 76.718 9.51569C76.6293 9.64899 76.564 9.79654 76.5251 9.95191C76.4831 10.1171 76.4623 10.2871 76.4634 10.4576V13.8354H74.4039V10.2839C74.4203 9.98343 74.3464 9.68493 74.1917 9.4269C74.1143 9.32149 74.0114 9.23749 73.8927 9.1828C73.7739 9.1281 73.6433 9.1045 73.5129 9.11421C73.3619 9.10568 73.2112 9.13682 73.0759 9.20453C72.9406 9.27225 72.8253 9.37419 72.7415 9.50025C72.5538 9.78187 72.4594 10.1154 72.4715 10.4537V13.8431H70.4004V7.59711H72.3944V8.46182H72.4214C72.5007 8.3231 72.5951 8.19363 72.703 8.07579C72.8219 7.94531 72.9597 7.8334 73.1118 7.7438C73.2783 7.64363 73.4573 7.56576 73.644 7.51218C73.8534 7.45193 74.0703 7.42203 74.2881 7.42339C74.6919 7.4092 75.0919 7.50529 75.4452 7.70133C75.7587 7.88262 76.0132 8.15073 76.178 8.4734C76.3815 8.15685 76.6562 7.89242 76.9803 7.70133C77.3443 7.49931 77.756 7.39929 78.172 7.41181C78.5431 7.39924 78.9114 7.47882 79.2443 7.64343C79.5205 7.78721 79.7595 7.99339 79.9424 8.24564C80.1192 8.49715 80.2498 8.7782 80.328 9.07561C80.4046 9.36807 80.4448 9.66888 80.4476 9.97121V13.8315L78.3919 13.847Z" fill="white"/>
<path d="M88.1997 10.809V11.0599C88.2037 11.1396 88.2037 11.2195 88.1997 11.2992H83.6601C83.6762 11.4674 83.7303 11.6298 83.8182 11.774C83.9055 11.9233 84.0208 12.0544 84.1576 12.1601C84.2983 12.2657 84.4544 12.349 84.6205 12.4071C84.792 12.4644 84.9718 12.4931 85.1527 12.4921C85.44 12.5022 85.7251 12.4398 85.9819 12.3106C86.1986 12.1968 86.3871 12.0359 86.5335 11.8397L87.9644 12.743C87.6727 13.1689 87.2735 13.5099 86.8073 13.7312C86.2818 13.9687 85.7099 14.0861 85.1334 14.0748C84.6806 14.0777 84.2306 14.0033 83.8028 13.8548C83.3979 13.7155 83.0244 13.4977 82.7036 13.2139C82.3852 12.9273 82.1337 12.5741 81.9669 12.1794C81.7796 11.7351 81.6876 11.2564 81.6969 10.7742C81.6893 10.298 81.7785 9.82515 81.9592 9.38449C82.1237 8.98867 82.3664 8.6302 82.6727 8.33062C82.9815 8.0389 83.3445 7.81068 83.7411 7.65893C84.1649 7.49876 84.6148 7.4189 85.0679 7.42345C85.5018 7.41838 85.9326 7.49702 86.3368 7.65507C86.7124 7.80351 87.0508 8.03283 87.328 8.32676C87.6116 8.63529 87.8307 8.99757 87.9721 9.39221C88.13 9.84754 88.207 10.327 88.1997 10.809ZM86.3059 10.0369C86.313 9.72811 86.2043 9.42787 86.0012 9.19534C85.8829 9.07242 85.739 8.97719 85.5796 8.91646C85.4202 8.85573 85.2494 8.831 85.0794 8.84405C84.8915 8.84181 84.7048 8.87318 84.5279 8.9367C84.3673 8.99631 84.2184 9.08387 84.0882 9.19534C83.9625 9.30197 83.8601 9.43338 83.7874 9.58137C83.7117 9.72325 83.6682 9.88011 83.6601 10.0407L86.3059 10.0369Z" fill="white"/>
<path d="M93.1553 9.44238C92.9811 9.28211 92.7817 9.15169 92.5652 9.05635C92.3436 8.94574 92.0992 8.88888 91.8516 8.89035C91.6678 8.88841 91.4858 8.92799 91.3194 9.00616C91.242 9.03823 91.1762 9.09309 91.1307 9.16347C91.0852 9.23385 91.0622 9.31641 91.0647 9.40019C91.0673 9.48397 91.0952 9.565 91.1448 9.63253C91.1944 9.70005 91.2634 9.75087 91.3425 9.77823C91.6267 9.88274 91.918 9.9666 92.2142 10.0291C92.456 10.0808 92.6933 10.1518 92.9239 10.2415C93.1546 10.3314 93.3714 10.4536 93.568 10.6043C93.7595 10.7561 93.9183 10.9452 94.0346 11.1602C94.1553 11.3993 94.2149 11.6645 94.2082 11.9323C94.2178 12.2575 94.1425 12.5795 93.9896 12.8666C93.8367 13.1537 93.6116 13.3958 93.3365 13.5691C93.0763 13.7475 92.7863 13.8782 92.4803 13.9551C92.1668 14.0286 91.8458 14.0662 91.5238 14.0671C91.0152 14.067 90.5098 13.9849 90.0273 13.8239C89.5706 13.6786 89.1526 13.4318 88.8047 13.102L89.9618 11.8821C90.1559 12.0792 90.3847 12.2389 90.6367 12.3531C90.9008 12.487 91.193 12.5558 91.4891 12.5538C91.6607 12.5532 91.8299 12.5122 91.9828 12.4341C92.0615 12.3981 92.1273 12.3389 92.1715 12.2644C92.2156 12.1899 92.2359 12.1036 92.2296 12.0172C92.2299 11.9229 92.2007 11.8309 92.146 11.754C92.0914 11.6772 92.014 11.6194 91.9249 11.5887C91.6221 11.4636 91.3083 11.3667 90.9877 11.2992C90.7646 11.2483 90.5454 11.1812 90.332 11.0985C90.1212 11.0168 89.9246 10.9021 89.7496 10.7588C89.5761 10.6134 89.4332 10.4349 89.3292 10.2337C89.2155 9.99954 89.1599 9.7413 89.1672 9.48098C89.1571 9.14466 89.2399 8.81207 89.4064 8.51976C89.5608 8.26118 89.7701 8.03977 90.0196 7.87123C90.2742 7.69761 90.5557 7.56719 90.8527 7.48519C91.1502 7.40924 91.4559 7.37034 91.7629 7.36938C92.2291 7.36954 92.6923 7.44247 93.136 7.58556C93.5662 7.71607 93.9616 7.94167 94.2931 8.24568L93.1553 9.44238Z" fill="white"/>
<path d="M49.2334 20.0737C49.0407 19.8335 48.7934 19.6429 48.5122 19.5178C48.2444 19.3856 47.9506 19.3144 47.6521 19.3094C47.5072 19.309 47.3626 19.3219 47.2201 19.348C47.084 19.3722 46.9534 19.4205 46.8344 19.4908C46.718 19.5615 46.6181 19.6563 46.5413 19.7688C46.4563 19.8964 46.4144 20.0479 46.4217 20.2011C46.4139 20.3366 46.4476 20.4713 46.5181 20.5871C46.5884 20.6953 46.682 20.7863 46.792 20.8535C46.9295 20.9345 47.0741 21.003 47.224 21.0581C47.3937 21.1237 47.5788 21.1855 47.7909 21.255C48.0918 21.3554 48.4042 21.4673 48.732 21.587C49.0496 21.7037 49.3485 21.8663 49.6191 22.0695C49.889 22.2723 50.1159 22.5269 50.2863 22.8184C50.4713 23.1576 50.5618 23.5402 50.5486 23.9263C50.5613 24.3838 50.4648 24.8378 50.267 25.2504C50.0849 25.6137 49.8208 25.9295 49.4957 26.173C49.1695 26.4211 48.7991 26.6045 48.4042 26.7135C47.9931 26.8326 47.5671 26.8924 47.1391 26.8911C46.5097 26.8916 45.8853 26.7792 45.2955 26.5591C44.7368 26.358 44.2305 26.0334 43.8145 25.6094L45.2184 24.1773C45.4537 24.4602 45.747 24.6893 46.0785 24.8489C46.4053 25.0226 46.769 25.1153 47.1391 25.1192C47.2948 25.1201 47.4501 25.1032 47.6019 25.069C47.7396 25.04 47.8705 24.9849 47.9876 24.9069C48.1003 24.8306 48.1918 24.727 48.2537 24.6057C48.3246 24.4661 48.3591 24.3107 48.354 24.1541C48.3594 24.0018 48.3161 23.8517 48.2306 23.7256C48.1324 23.597 48.0107 23.4883 47.8719 23.4052C47.6894 23.2992 47.4969 23.2112 47.2972 23.1427L46.5259 22.884C46.242 22.7924 45.9638 22.6842 45.6928 22.5598C45.4276 22.4373 45.1831 22.2745 44.9677 22.0772C44.7491 21.875 44.5733 21.6308 44.4508 21.3592C44.3142 21.0359 44.2485 20.6871 44.258 20.3362C44.2453 19.895 44.349 19.4583 44.5588 19.07C44.7471 18.7269 45.0109 18.4312 45.3302 18.2053C45.6645 17.9735 46.0384 17.8047 46.4333 17.7073C46.839 17.6029 47.2563 17.5497 47.6752 17.5491C48.2016 17.5521 48.7235 17.6461 49.218 17.827C49.726 18.0027 50.1932 18.2798 50.591 18.6415L49.2334 20.0737Z" fill="white"/>
<path d="M58.0385 23.5943V23.8452C58.0445 23.9249 58.0445 24.0049 58.0385 24.0846H53.4951C53.5113 24.254 53.5653 24.4176 53.6532 24.5633C53.7433 24.705 53.8583 24.8293 53.9926 24.93C54.132 25.0377 54.2885 25.1212 54.4555 25.1771C54.6269 25.2353 54.8067 25.2653 54.9877 25.2658C55.2753 25.2753 55.5607 25.2115 55.817 25.0806C56.0344 24.9679 56.223 24.8067 56.3685 24.6096L57.7994 25.5168C57.5073 25.9414 57.1081 26.2811 56.6423 26.5012C56.1175 26.7408 55.5452 26.8582 54.9684 26.8447C54.5157 26.8471 54.0658 26.7727 53.6378 26.6247C53.2339 26.4876 52.8615 26.271 52.5424 25.9877C52.2216 25.7009 51.9687 25.3462 51.8019 24.9493C51.6143 24.5051 51.5223 24.0263 51.5319 23.5441C51.5258 23.0693 51.615 22.598 51.7942 22.1583C51.9581 21.7612 52.2023 21.4024 52.5116 21.1044C52.8179 20.8114 53.1799 20.583 53.5761 20.4327C54.0004 20.2691 54.452 20.1878 54.9067 20.1934C55.3394 20.1886 55.7689 20.2673 56.1718 20.425C56.5474 20.5734 56.8858 20.8028 57.163 21.0967C57.4478 21.4044 57.6669 21.7669 57.8071 22.1621C57.97 22.6216 58.0484 23.1069 58.0385 23.5943ZM56.1448 22.8223C56.1501 22.5131 56.0401 22.2131 55.8362 21.9807C55.7179 21.8578 55.574 21.7626 55.4146 21.7018C55.2553 21.6411 55.0845 21.6164 54.9144 21.6294C54.7262 21.6265 54.539 21.6592 54.3629 21.7259C54.2022 21.7836 54.0532 21.8699 53.9232 21.9807C53.7984 22.0882 53.6962 22.2194 53.6224 22.3667C53.5486 22.5094 53.5052 22.6658 53.4951 22.8261L56.1448 22.8223Z" fill="white"/>
<path d="M63.6385 22.4131C63.5109 22.255 63.3467 22.1305 63.1602 22.0502C62.9684 21.9595 62.7591 21.9121 62.547 21.9112C62.3429 21.9099 62.1412 21.9548 61.9568 22.0425C61.7849 22.1306 61.6317 22.2512 61.5056 22.3976C61.3776 22.5467 61.2783 22.7182 61.2125 22.9033C61.1389 23.1008 61.1023 23.3102 61.1045 23.521C61.1039 23.7297 61.1378 23.9371 61.2048 24.1348C61.2683 24.3221 61.3679 24.4952 61.4979 24.6443C61.6283 24.7897 61.7871 24.9066 61.9646 24.9879C62.1556 25.0756 62.3638 25.1191 62.574 25.1153C62.7864 25.1129 62.9968 25.0724 63.1949 24.9956C63.386 24.9231 63.5557 24.8036 63.6886 24.6482L64.8457 26.0418C64.5583 26.3093 64.2161 26.5108 63.8429 26.6324C63.4233 26.7759 62.9826 26.8477 62.5392 26.8447C62.0615 26.8568 61.5853 26.7863 61.1315 26.6363C60.7189 26.4945 60.3396 26.2699 60.0168 25.9761C59.6996 25.6823 59.4462 25.3262 59.2724 24.93C59.0862 24.4894 58.9942 24.0147 59.0025 23.5364C58.9942 23.0619 59.0862 22.5909 59.2724 22.1544C59.4461 21.7571 59.6995 21.3997 60.0168 21.1044C60.3413 20.8121 60.7201 20.5866 61.1315 20.4404C61.571 20.2843 62.0343 20.2059 62.5007 20.2088C62.7258 20.208 62.9505 20.2286 63.1718 20.2706C63.3889 20.3121 63.6028 20.3689 63.812 20.4404C64.0089 20.5067 64.1977 20.5948 64.3751 20.7029C64.5379 20.8 64.6882 20.9167 64.8225 21.0504L63.6385 22.4131Z" fill="white"/>
<path d="M69.7405 26.6363V25.7793H69.7135C69.5493 26.0867 69.2985 26.3391 68.9923 26.5051C68.8217 26.6017 68.6405 26.6782 68.4523 26.7328C68.2507 26.7923 68.0415 26.8222 67.8314 26.8216C67.4658 26.8327 67.1031 26.7545 66.7746 26.5938C66.4986 26.455 66.2574 26.2558 66.0688 26.0109C65.8881 25.7673 65.7571 25.4906 65.6831 25.1964C65.6025 24.8903 65.5623 24.5749 65.5635 24.2584V20.398H67.6308V23.7874C67.6315 23.9554 67.6444 24.1231 67.6694 24.2892C67.6923 24.4379 67.7405 24.5816 67.8121 24.7139C67.8785 24.837 67.9772 24.9398 68.0975 25.0111C68.2391 25.0884 68.3991 25.1258 68.5603 25.1192C68.7187 25.1294 68.877 25.0993 69.0206 25.0319C69.1643 24.9644 69.2885 24.8616 69.3818 24.7332C69.5729 24.4584 69.6715 24.1298 69.6634 23.7951V20.3942H71.7384V26.6363H69.7405Z" fill="white"/>
<path d="M77.3769 22.0888C77.2888 22.0631 77.1983 22.0463 77.1069 22.0386H76.8485C76.6087 22.0319 76.3708 22.0821 76.1543 22.1853C75.9779 22.28 75.8239 22.4117 75.703 22.5714C75.5923 22.7082 75.5097 22.8657 75.46 23.0346C75.4117 23.1751 75.3857 23.3223 75.3829 23.4708V26.6363H73.3271V20.4018H75.3096V21.3052H75.3327C75.4886 20.9935 75.7225 20.7275 76.0116 20.5331C76.3098 20.3284 76.6643 20.2218 77.0259 20.2281C77.1068 20.2221 77.188 20.2221 77.2689 20.2281C77.3354 20.2332 77.4013 20.2449 77.4656 20.2629L77.3769 22.0888Z" fill="white"/>
<path d="M84.2388 21.9267V24.3201C84.2207 24.5529 84.2804 24.7851 84.4085 24.9802C84.4857 25.0611 84.5805 25.1231 84.6855 25.1612C84.7906 25.1994 84.903 25.2127 85.014 25.2002C85.1211 25.1998 85.2281 25.1921 85.3342 25.1771C85.4339 25.1615 85.5311 25.133 85.6234 25.0922L85.6466 26.5977C85.4711 26.6591 85.2903 26.7044 85.1066 26.7328C84.8911 26.768 84.6731 26.7861 84.4548 26.7868C84.0975 26.7968 83.7412 26.7445 83.4019 26.6324C83.1396 26.5405 82.9048 26.3838 82.7192 26.1769C82.5375 25.9761 82.4054 25.7355 82.3335 25.4743C82.2546 25.1759 82.2169 24.8681 82.2216 24.5594V21.9267H81.2266V20.3826H82.2178V18.7496H84.2388V20.3941H85.7044V21.9383L84.2388 21.9267Z" fill="white"/>
<path d="M90.1935 27.586C90.0818 27.889 89.9424 28.181 89.777 28.4584C89.6289 28.7049 89.4413 28.9253 89.2216 29.1108C88.9951 29.2986 88.7326 29.4379 88.4502 29.52C88.1187 29.619 87.7739 29.6659 87.4281 29.6589C87.2295 29.6573 87.0312 29.6444 86.8341 29.6203C86.6546 29.5994 86.4767 29.5659 86.3019 29.52L86.5256 27.7867C86.6336 27.8232 86.7446 27.8503 86.8573 27.8678C86.9679 27.8887 87.0803 27.899 87.1928 27.8986C87.3159 27.9097 87.4398 27.8962 87.5577 27.8591C87.6755 27.822 87.7848 27.762 87.8794 27.6825C88.0424 27.5024 88.1671 27.2909 88.2458 27.0609L88.4463 26.5437L85.8545 20.3942H88.1378L89.5301 24.4089H89.5687L90.8106 20.3942H92.9936L90.1935 27.586Z" fill="white"/>
<path d="M80.5246 19.5218C80.5256 19.6746 80.4941 19.826 80.4321 19.9657C80.3726 20.1005 80.2874 20.2225 80.1814 20.3247C79.9554 20.5355 79.6572 20.6516 79.3483 20.649C79.1931 20.6529 79.0386 20.6256 78.8942 20.5686C78.7497 20.5115 78.6182 20.426 78.5075 20.317C78.3985 20.2155 78.312 20.0924 78.2536 19.9554C78.1951 19.8184 78.166 19.6707 78.1681 19.5218C78.1703 19.3769 78.2014 19.234 78.2597 19.1014C78.318 18.9688 78.4023 18.8492 78.5075 18.7497C78.6216 18.6467 78.7519 18.5632 78.8932 18.5026C79.0406 18.4397 79.1996 18.4082 79.3599 18.41C79.5158 18.4103 79.6703 18.4405 79.815 18.4988C79.9581 18.5523 80.0891 18.6336 80.2007 18.7381C80.3067 18.8389 80.3919 18.9596 80.4514 19.0933C80.5042 19.2297 80.5291 19.3755 80.5246 19.5218ZM78.3185 26.7213V21.5175H80.3742V26.7213H78.3185Z" fill="white"/>
</g>
<defs>
<clipPath id="clip0_88_986">
<rect width="94.2857" height="44" fill="white"/>
</clipPath>
</defs>
</svg>
