<svg viewBox="0 0 244.46 113.98" xmlns="http://www.w3.org/2000/svg"><g fill="#0083E3"><path d="M102.41 40.58V8h-.001c0-.95-.77-1.73-1.71-1.74 0 0-37.21-6.04-49.62-6.26 -12.41-.22-49.3 6-49.3 6v0C.8 5.97.01 6.73-.01 7.69c-.01.01-.01.02-.01.04v32.84s-1.16 27.36 17.44 48.9c16.52 19.13 30.32 23.66 33.2 24.44v0c.36.07.74.07 1.11 0 2.92-.79 16.7-5.35 33.18-24.44 18.6-21.54 17.48-48.9 17.48-48.9Zm-25 43c-11.21 13-20.79 18.57-25.67 20.8v0c-.37.13-.78.13-1.14 0 -4.84-2.29-14.43-7.88-25.6-20.85C8.49 64.45 9.15 39.45 9.16 39.19v-25 0c.01-.37.25-.68.6-.78l0-.001c13.46-3.41 27.28-5.15 41.17-5.2h.71l0 0c13.82 0 27.6 1.74 41 5.18l-.001-.001c.34.1.58.41.6.78v25.06c.03.22.68 25.22-15.78 44.3Z"/><path d="M51.1 31.87v0c-4.9-.02-8.88 3.93-8.89 8.82 -.02 4.89 3.93 8.87 8.82 8.88 4.89.01 8.87-3.94 8.88-8.83 0-.01 0-.01 0-.01l-.001-.001c0-4.89-3.95-8.86-8.83-8.88Z"/><path d="M84.1 39.41v-18 0c-.02-.35-.26-.65-.59-.73v-.001c-10.48-2.19-21.16-3.28-31.86-3.28H51h-.001c-10.76.05-21.47 1.17-32 3.34v0c-.34.08-.58.38-.59.73v18.07c0 1.33 0 22.31 13.59 38 7.53 8.82 14.14 13.76 18.7 16.46h-.001c.31.15.68.15 1 0 4.53-2.69 11.14-7.63 18.77-16.46 13.94-16.11 13.63-37.88 13.63-38.13ZM63.51 71.6c-1.09 1.28-2.16 2.45-3.2 3.54 -.24.25-.43.17-.43-.18V67.4c0-5.72 5.55-8.63 7.38-9.43v0c.33-.16.56-.49.58-.86v-5.74h0c.03-.21-.11-.41-.32-.44 -.1-.02-.19 0-.27.05l-.001 0c-10.4 4.1-21.97 4.1-32.36.01v0c-.19-.11-.43-.05-.54.14 -.04.07-.06.15-.05.23v5.74 0c.02.36.25.69.59.84 6.08 2.33 7.32 6.29 7.32 9.52v7.42c0 .35-.19.43-.43.18q-1.53-1.6-3.16-3.48c-11.44-13.26-11.37-31.84-11.37-32v-10.6 0c.01-.36.27-.66.62-.72h0c7.6-1.2 15.29-1.81 23-1.83h.69v-.001c7.59 0 15.18.58 22.69 1.76v0c.35.06.61.36.62.72v10.3c-.001.35.11 19.08-11.38 32.37Z"/><path d="M133 86.24v0c.03 1.17-.23 2.34-.75 3.4v0c-.48.89-1.17 1.66-2 2.23v0c-.9.58-1.89.99-2.92 1.23v0c-1.14.26-2.29.39-3.45.39h-2.76v8.68h-5.56v-23h8.45v0c1.18-.01 2.37.11 3.53.37v-.001c1.02.21 1.99.62 2.86 1.21l0-.001c.81.55 1.47 1.3 1.92 2.18v0c.48 1.03.72 2.16.68 3.31Zm-5.56 0h0c.01-.47-.1-.93-.33-1.33v0c-.21-.35-.52-.63-.87-.81v0c-.4-.21-.82-.34-1.26-.39v0c-.48-.07-.96-.11-1.44-.1h-2.44v5.43h2.34v0c.49 0 .99-.05 1.49-.13v0c.45-.08.88-.24 1.29-.46v0c.36-.2.67-.5.89-.86v0c.21-.41.3-.87.28-1.32Z"/><path d="M145.11 90.37v0c-.23-.07-.47-.12-.7-.13h-.66l0-.001c-.63-.03-1.25.11-1.81.39v0c-.46.22-.86.54-1.17.94v-.001c-.29.35-.51.76-.63 1.2v0c-.13.36-.19.74-.2 1.13v8.3h-5.33v-16.2h5.14v2.34h.06v0c.4-.81 1.01-1.5 1.76-2v0c.77-.53 1.69-.81 2.63-.79v0c.21-.02.42-.02.64 0v0c.16.01.33.04.5.09Z"/><path d="M164.07 94v0c.01 1.23-.23 2.46-.72 3.6v0c-.45 1.03-1.12 1.96-1.95 2.73v-.001c-.84.75-1.81 1.34-2.86 1.74h-.001c-2.25.81-4.7.81-6.94-.001v-.001c-1.06-.4-2.03-.99-2.86-1.74v0c-.83-.77-1.49-1.7-1.94-2.73v0c-.49-1.14-.73-2.37-.71-3.6v0c-.02-1.23.22-2.45.71-3.58v0c.45-1.03 1.11-1.95 1.94-2.7v0c.82-.76 1.8-1.35 2.86-1.72v0c2.24-.78 4.69-.78 6.94-.001v0c1.05.37 2.02.94 2.86 1.69h0c.83.74 1.5 1.67 1.95 2.7v0c.49 1.13.74 2.36.72 3.61Zm-5.14 0v0c0-.53-.09-1.04-.26-1.53v0c-.17-.49-.42-.93-.75-1.31v0c-.34-.39-.75-.71-1.2-.93v0c-1.54-.77-3.4-.39-4.5.93h-.001c-.33.38-.57.82-.72 1.31v0c-.32.99-.32 2.06 0 3.06v0c.15.49.4.94.73 1.35v0c.32.41.73.75 1.21 1v0c1.05.47 2.25.47 3.31 0v0c.47-.25.88-.59 1.21-1v0c.32-.41.57-.86.73-1.35v0c.15-.5.23-1.02.24-1.53Z"/></g><g fill="#002338"><path d="M121 17.21v0c0 .39-.08.79-.24 1.16v0c-.32.71-.9 1.27-1.63 1.54l-.001 0c-1.15.46-2.46.21-3.36-.63v-.001c-.58-.54-.9-1.29-.88-2.07v0c-.01-.39.07-.77.23-1.12v-.001c.14-.36.36-.67.65-.92v-.001c.29-.28.63-.49 1-.64v0c.76-.32 1.62-.32 2.39 0v0c.73.26 1.31.82 1.63 1.54v0c.14.36.22.74.21 1.14Zm-5.72 18.66V22.39h5.33v13.48Z"/><path d="M135 17.59v18.28h-5.6V17.59h-6.5v-4.74h18.57v4.74Z"/><path d="M153.79 35.87v-8.78 0c0-.44-.03-.87-.09-1.3v0c-.06-.39-.19-.76-.38-1.09v0c-.18-.31-.43-.57-.73-.75v0c-.36-.2-.77-.29-1.17-.27v-.001c-.84-.05-1.65.33-2.15 1v-.001c-.52.71-.78 1.57-.74 2.45v8.75h-5.34V11.28h5.34v10.43h.06v0c.43-.72 1.03-1.31 1.76-1.72v0c.87-.53 1.87-.79 2.89-.76v0c.96-.03 1.91.17 2.78.59v0c.71.35 1.33.87 1.82 1.51v0c.47.63.81 1.36 1 2.13v-.001c.2.78.31 1.58.31 2.4v10Z"/><path d="M179.26 28v.65 -.001c.01.2.01.41 0 .62h-11.78v-.001c.04.43.18.85.41 1.23v-.001c.22.38.52.72.88 1v-.001c.36.27.77.48 1.2.64l-.001-.001c.44.14.91.22 1.38.22v0c.74.02 1.48-.14 2.15-.47v0c.56-.3 1.05-.71 1.43-1.22l3.71 2.34v0c-.76 1.1-1.79 1.98-3 2.56v-.001c-1.37.61-2.85.92-4.34.89h-.001c-1.18 0-2.35-.19-3.45-.57v-.001c-1.06-.38-2.03-.97-2.85-1.73l0 0c-.84-.74-1.49-1.66-1.92-2.68v0c-.49-1.16-.73-2.4-.7-3.64l-.001-.001c-.02-1.24.21-2.46.68-3.6l0 0c.42-1.03 1.05-1.96 1.85-2.73l0 0c.8-.76 1.74-1.35 2.77-1.74v0c1.1-.42 2.27-.63 3.45-.61v0c1.12-.02 2.23.19 3.28.6v0c.98.38 1.86.97 2.59 1.74l-.001-.001c.73.79 1.3 1.73 1.67 2.76v0c.42 1.2.62 2.46.59 3.74Zm-4.91-2v0c.01-.81-.28-1.58-.8-2.18v0c-.63-.65-1.5-.98-2.39-.91v0c-.49-.01-.98.07-1.43.24l0-.001c-.42.15-.81.38-1.14.67v-.001c-.33.27-.6.61-.78 1v0c-.2.36-.31.77-.33 1.19Z"/><path d="M203.25 35.87V27h-.001c0-.45-.03-.89-.09-1.32v0c-.06-.39-.18-.76-.36-1.09v0c-.17-.3-.41-.56-.7-.73v0c-.35-.21-.75-.31-1.15-.28v0c-.42-.01-.83.09-1.19.29v0c-.34.19-.63.46-.85.78v0c-.24.34-.4.72-.5 1.13h0c-.11.42-.17.86-.16 1.31v8.75h-5.34v-9.2 0c.04-.78-.15-1.56-.55-2.22v0c-.41-.56-1.08-.87-1.76-.81v0c-.8-.05-1.56.33-2 1V24.6c-.49.72-.74 1.59-.7 2.47v8.78h-5.37V19.67h5.17v2.24h.07v0c.2-.36.45-.7.73-1v-.001c.3-.34.66-.63 1.06-.86l-.001 0c.43-.26.89-.47 1.38-.6l-.001 0c.54-.16 1.1-.24 1.67-.23h0c1.04-.04 2.08.21 3 .72v0c.81.46 1.47 1.16 1.9 2l-.001-.001c.52-.83 1.23-1.51 2.08-2l0-.001c.94-.53 2.01-.79 3.09-.75v0c.96-.04 1.91.17 2.78.6v0c.71.37 1.33.9 1.81 1.56v0c.45.65.79 1.37 1 2.15V23.5c.19.75.3 1.53.31 2.32v10Z"/><path d="M228.68 28v.65 0c.01.2.01.41 0 .62h-11.77l0-.001c.04.43.18.85.41 1.23v-.001c.22.38.52.72.88 1v0c.36.27.76.48 1.2.64v0c.44.14.91.22 1.38.22v0c.74.02 1.48-.14 2.15-.47v0c.56-.3 1.05-.72 1.43-1.22l3.71 2.34v0c-.76 1.1-1.8 1.98-3 2.56h-.001c-1.37.61-2.85.91-4.34.89v0c-1.18 0-2.35-.19-3.45-.57l-.001-.001c-1.05-.37-2.02-.93-2.85-1.66l0-.001c-.83-.75-1.48-1.66-1.91-2.68v0c-.49-1.16-.73-2.4-.7-3.64v0c-.02-1.24.21-2.46.68-3.6l0 0c.42-1.03 1.05-1.96 1.85-2.73v0c.8-.76 1.74-1.35 2.77-1.74v0c1.09-.42 2.26-.63 3.44-.61v0c1.12-.02 2.24.19 3.29.6v0c.97.38 1.85.97 2.57 1.74l-.001-.001c.73.79 1.3 1.73 1.67 2.76v0c.4 1.17.6 2.42.59 3.67Zm-4.91-2v-.001c.01-.8-.27-1.58-.79-2.18v-.001c-.63-.65-1.5-.98-2.39-.91v0c-.49-.01-.98.07-1.43.24v0c-.42.15-.81.38-1.14.67l-.001-.001c-.33.27-.6.61-.78 1v0c-.2.36-.31.77-.33 1.19Z"/><path d="M241.53 24.46l-.001-.001c-.46-.42-.97-.76-1.53-1v-.001c-.58-.29-1.21-.44-1.85-.43h0c-.48-.01-.95.09-1.38.3v-.001c-.55.22-.81.85-.58 1.39 .11.28.34.5.63.6v0c.73.27 1.49.48 2.26.65v0c.62.13 1.24.31 1.84.55l-.001-.001c.59.23 1.16.54 1.67.94v0c.49.39.9.88 1.21 1.44v0c.31.61.46 1.3.45 2v0c.05 1.71-.81 3.32-2.26 4.24v-.001c-.68.46-1.43.8-2.22 1v0c-.82.19-1.65.28-2.48.29h0c-1.32-.01-2.63-.22-3.88-.63v-.001c-1.19-.38-2.27-1.02-3.17-1.87l3-3.16v-.001c.5.51 1.09.92 1.75 1.22v0c.68.34 1.44.52 2.21.52v0c.44-.01.88-.11 1.28-.31v-.001c.41-.2.67-.63.64-1.08v0c0-.51-.32-.95-.79-1.11v0c-.79-.33-1.6-.58-2.43-.75h0c-.58-.14-1.15-.31-1.7-.52l-.001-.001c-.55-.22-1.06-.51-1.51-.88v-.001c-.45-.38-.83-.84-1.09-1.36v0c-.3-.61-.44-1.28-.42-1.95v0c-.03-.88.18-1.74.62-2.49v0c.4-.67.94-1.25 1.59-1.68v0c.66-.45 1.38-.79 2.16-1v0c.77-.2 1.56-.3 2.36-.3h0c1.2 0 2.4.18 3.56.56v-.001c1.11.33 2.14.92 3 1.71Z"/><path d="M127.65 52v0c-.5-.63-1.15-1.12-1.87-1.44v0c-.7-.35-1.46-.53-2.23-.54v0c-.38-.01-.76.03-1.12.1v0c-.36.06-.7.18-1 .37v-.001c-.31.18-.57.42-.76.72h0c-.23.33-.33.72-.31 1.12v0c-.03.35.06.69.25 1h-.001c.18.28.42.51.71.69v0c.35.2.73.38 1.12.53 .44.17.92.33 1.47.51 .78.26 1.59.55 2.44.86v0c.82.3 1.59.72 2.3 1.25v0c.69.52 1.28 1.18 1.73 1.94v0c.47.87.71 1.86.68 2.87v0c.03 1.18-.22 2.36-.73 3.43v0c-.48.94-1.16 1.75-2 2.39v0c-.85.64-1.81 1.11-2.83 1.4v0c-1.07.3-2.18.46-3.28.46v-.001c-1.64 0-3.26-.29-4.78-.86v0c-1.45-.53-2.77-1.37-3.84-2.46l3.64-3.71v0c.61.73 1.37 1.32 2.23 1.74v0c.84.44 1.79.68 2.75.7v0c.4 0 .8-.05 1.2-.13l-.001-.001c.35-.08.69-.22 1-.42v0c.29-.2.52-.47.69-.78v0c.18-.37.27-.77.26-1.17v0c.01-.4-.1-.79-.32-1.11v0c-.26-.34-.58-.62-.93-.83v0c-.48-.28-.98-.51-1.49-.68l-2-.67v0c-.74-.24-1.46-.52-2.16-.84l-.001-.001c-.69-.32-1.33-.74-1.88-1.25v0c-.57-.53-1.03-1.16-1.34-1.86v0c-.36-.84-.53-1.75-.5-2.65v0c-.04-1.15.23-2.28.78-3.28v-.001c.48-.89 1.17-1.66 2-2.24v-.001c.86-.61 1.83-1.04 2.86-1.29v0c1.05-.28 2.13-.41 3.22-.41h-.001c1.36 0 2.71.25 4 .72v0c1.31.45 2.52 1.17 3.56 2.11Z"/><path d="M150.48 61.12v.65 0c.01.2.01.41 0 .62H138.7v0c.04.43.18.86.41 1.24v0c.23.36.53.68.88.95v0c.36.27.76.49 1.2.64v0c.44.15.91.22 1.38.23v0c.74.02 1.48-.15 2.15-.48v0c.56-.3 1.05-.71 1.43-1.22l3.71 2.35v0c-.76 1.1-1.8 1.97-3 2.55v0c-1.37.62-2.85.92-4.34.89v0c-1.18 0-2.35-.19-3.45-.57v0c-1.05-.36-2.02-.92-2.84-1.65v-.001c-.84-.75-1.49-1.67-1.92-2.69v0c-.49-1.16-.73-2.4-.7-3.64v0c-.02-1.24.21-2.46.68-3.59v0c.42-1.03 1.05-1.96 1.86-2.73v0c.79-.76 1.73-1.36 2.76-1.74v0c1.1-.43 2.27-.64 3.45-.62v0c1.12-.02 2.23.19 3.28.6v0c.97.38 1.85.97 2.57 1.74v0c.73.79 1.3 1.73 1.67 2.76v0c.42 1.19.62 2.44.6 3.71Zm-4.91-2v0c.01-.81-.28-1.58-.8-2.18v0c-.63-.65-1.5-.98-2.39-.91v0c-.49-.01-.98.07-1.43.25v0c-.42.14-.81.37-1.14.66v-.001c-.33.27-.59.61-.78 1l-.001-.001c-.2.36-.31.77-.33 1.19Z"/><path d="M165 58.06v0c-.34-.41-.76-.74-1.24-.94v0c-.5-.24-1.05-.36-1.59-.36v0c-.53-.01-1.06.11-1.53.34v0c-.45.22-.85.54-1.17.92v0c-.34.38-.59.83-.76 1.31l-.001-.001c-.2.51-.29 1.05-.28 1.6v0c-.01.54.08 1.07.26 1.59v0c.16.48.42.93.76 1.32l-.001 0c.33.37.74.67 1.21.89v0c.49.22 1.03.33 1.58.33v0c.55-.01 1.09-.12 1.61-.31v0c.49-.19.93-.5 1.28-.9l3 3.61v0c-.75.69-1.64 1.21-2.6 1.53v0c-1.09.37-2.24.55-3.38.55v0c-1.24.03-2.48-.16-3.65-.54v-.001c-1.07-.37-2.06-.95-2.89-1.71v0c-.83-.77-1.48-1.69-1.93-2.71v-.001c-.49-1.15-.73-2.38-.7-3.61l0-.001c-.03-1.23.21-2.45.7-3.58v0c.45-1.03 1.1-1.96 1.93-2.72v-.001c.84-.76 1.82-1.35 2.89-1.72v-.001c1.13-.41 2.34-.61 3.55-.6h0c.58-.01 1.16.05 1.74.16v0c.56.1 1.11.25 1.66.44v-.001c.51.17 1 .39 1.46.68v0c.42.25.81.55 1.16.9Z"/><path d="M180.82 69v-2.22h-.07 0c-.43.79-1.08 1.44-1.87 1.88v0c-.45.25-.92.44-1.4.59v-.001c-.53.15-1.07.23-1.61.23v0c-.95.02-1.89-.18-2.74-.59v0c-.72-.36-1.35-.88-1.83-1.51v0c-.47-.64-.81-1.35-1-2.11v0c-.21-.8-.32-1.61-.31-2.43v-10h5.36v8.78 0c0 .43.03.86.1 1.3v0c.05.38.18.75.37 1.1v0c.17.31.42.58.74.77v-.001c.36.2.78.29 1.2.28v0c.83.05 1.63-.33 2.13-1v0c.49-.72.75-1.57.73-2.43v-8.81H186v16.17Z"/><path d="M200.62 57.22h0c-.23-.07-.47-.12-.7-.13h-.67v0c-.63-.02-1.24.11-1.8.38v-.001c-.46.24-.86.58-1.17 1v0c-.29.35-.51.76-.63 1.2v0c-.13.36-.2.74-.2 1.13v8.2h-5.33V52.84h5.14v2.34h.06v0c.4-.81 1.01-1.5 1.76-2v0c.77-.54 1.69-.81 2.63-.79v0c.2-.02.42-.02.63 0v0c.17.01.34.04.51.09Z"/><path d="M218.41 56.8V63v0c-.05.6.1 1.2.44 1.71v0c.4.42.98.63 1.57.57h-.001c.27-.01.55-.03.83-.06l0-.001c.25-.05.51-.12.75-.22l.06 3.9h-.001c-.46.15-.93.27-1.4.35v0c-.56.09-1.13.13-1.69.14v0c-.93.02-1.86-.11-2.73-.4h0c-.68-.24-1.29-.65-1.77-1.18v0c-.48-.53-.82-1.15-1-1.82h-.001c-.21-.78-.31-1.58-.29-2.37v-6.82h-2.58v-4h2.57v-4.23h5.24v4.26h3.8v4Z"/><path d="M233.85 71.46h-.001c-.29.78-.66 1.54-1.08 2.26v0c-.39.63-.88 1.2-1.44 1.69v0c-.59.48-1.27.84-2 1.06v-.001c-.86.25-1.76.37-2.65.36v0c-.52-.01-1.03-.04-1.54-.1l0 0c-.47-.06-.93-.15-1.38-.26l.58-4.49v0c.28.09.56.16.86.21l-.001-.001c.28.05.57.08.87.08h-.001c.64.05 1.28-.15 1.78-.56v0c.42-.47.74-1.02.95-1.61l.52-1.34 -6.72-15.93h5.92l3.61 10.4h.1l3.22-10.4h5.66Z"/><path d="M208.78 50.57v-.001c0 .39-.08.78-.24 1.15v-.001c-.16.34-.38.66-.65.93l0-.001c-.59.54-1.36.84-2.16.84v0c-.82.02-1.6-.29-2.18-.86v-.001c-.58-.54-.9-1.28-.88-2.06v0c.01-.76.32-1.48.88-2v-.001c.29-.27.63-.49 1-.64v0c.38-.17.79-.25 1.21-.24l0-.001c.4 0 .8.07 1.18.23v0c.37.13.71.34 1 .62v0c.27.26.49.57.65.92v-.001c.13.35.2.73.19 1.11Zm-5.72 18.65V55.74h5.33v13.48Z"/></g></svg>
