<svg xmlns="http://www.w3.org/2000/svg" width="547" height="305.817" viewBox="0 0 547 305.817"><defs><style>.a{fill:#0061a8;}.b{fill:#e1f2fc;}.b,.f,.g{stroke:#0083e3;}.c{fill:#0083e3;}.d{fill:#fff;}.e,.f,.g{fill:none;}.f,.g{stroke-linecap:round;}.f{stroke-width:2px;}.g{stroke-width:3px;}</style></defs><g transform="translate(-152 -220.183)"><ellipse class="a" cx="273.5" cy="56.5" rx="273.5" ry="56.5" transform="translate(152 413)"/><g transform="translate(226.992 220.683)"><g transform="translate(0 0)"><path class="b" d="M356.159,304.5A11.65,11.65,0,0,0,344.5,316.14V524.175a7.765,7.765,0,0,0,7.773,7.759h322.6a7.765,7.765,0,0,0,7.772-7.759V316.14a11.649,11.649,0,0,0-11.659-11.64Z" transform="translate(-307.906 -304.5)"/><path class="c" d="M371,529.473H687.369V334H371Z" transform="translate(-322.132 -320.336)"/><path class="d" d="M373,529.62H687.517V336H373Z" transform="translate(-323.205 -321.409)"/><path class="e" d="M281.281,803.654c-5.169,0-11.636-3.094-14.4-4.414-.394-.19-.672-.324-.88-.417V793H676.863v5.823c-.208.1-.486.227-.88.417-2.742,1.32-9.162,4.415-14.29,4.415H281.281Z" transform="translate(-265.768 -566.724)"/><path class="b" d="M677.753,792.5H265.5v7.008c.477-.009,9.273,5.035,16,5.035H661.861c6.684,0,15.415-5.049,15.874-5.049.014,0,.019-.042.019-.042Z" transform="translate(-265.5 -566.456)"/><path class="c" d="M266.633,805l-.463.926h410.4l.463-.926Z" transform="translate(-265.86 -573.166)"/><path class="c" d="M696.416,796.632h-46.9A4.548,4.548,0,0,1,645,792.047V792h56.048v.047a4.549,4.549,0,0,1-4.516,4.586" transform="translate(-469.214 -566.188)"/><path class="c" d="M705.412,319.951a1.621,1.621,0,1,1-1.621-1.621,1.623,1.623,0,0,1,1.621,1.621" transform="translate(-499.902 -311.924)"/><circle class="c" cx="4.725" cy="4.725" r="4.725" transform="translate(162.607 100.885)"/><circle class="c" cx="4.725" cy="4.725" r="4.725" transform="translate(234.106 99.885)"/><path class="c" d="M21.4,10.325,58.811,9.113c2.11,0,3.82-2.04,3.82-4.557S60.92,0,58.811,0L-9.755,8.147l10,.966Z" transform="matrix(-0.998, 0.07, -0.07, -0.998, 262.782, 83.763)"/><path class="c" d="M21.952-.07l15.42-5.575c2.357,0,33.408,8.876,33.408,10.98a4.059,4.059,0,0,1-4.268,3.81L38.491,1.465C35.036-.316-3.517,9.848-2.523,9.848S21.952-.07,21.952-.07Z" transform="translate(109.095 70.919) rotate(8)"/><line class="f" x2="50" transform="translate(127.508 100.817)"/><line class="f" x2="50" transform="translate(199.508 100.817)"/><line class="g" x2="32" transform="translate(199.508 150.817)"/></g></g></g></svg>