<svg width="452" height="400" viewBox="0 0 452 400" fill="none" xmlns="http://www.w3.org/2000/svg">
<g clip-path="url(#clip0_9838_113355)">
<g clip-path="url(#clip1_9838_113355)">
<path d="M66.7707 264.961L30.9612 182.259L10.3204 184.849L46.1299 267.552C90.5023 370.03 178.396 386.967 219.639 381.791L240.279 379.201C199.037 384.377 111.143 367.44 66.7707 264.961Z" fill="url(#paint0_linear_9838_113355)"/>
<path d="M176.478 380.106C163.761 377.607 149.2 373.15 133.855 365.449C116.056 356.517 99.8985 344.482 85.8325 329.677C69.622 312.616 56.1243 291.774 45.7145 267.734L9.90457 185.031C9.87649 184.966 9.86386 184.896 9.86768 184.826C9.8715 184.755 9.89167 184.687 9.92658 184.625C9.96149 184.564 10.0102 184.512 10.0688 184.472C10.1274 184.433 10.1943 184.408 10.2643 184.4L30.9055 181.809C31.1055 181.786 31.2976 181.894 31.3776 182.079L67.1871 264.782C86.7332 309.923 116.245 342.648 154.903 362.047C195.45 382.395 230.46 379.977 240.224 378.752C240.341 378.741 240.457 378.776 240.549 378.85C240.64 378.924 240.7 379.031 240.714 379.148C240.729 379.264 240.698 379.382 240.627 379.477C240.557 379.571 240.452 379.634 240.336 379.653L240.296 379.657L219.695 382.243C213.565 383.012 197.553 384.248 176.478 380.106ZM10.9772 185.226L46.5463 267.372C66.092 312.513 95.6038 345.239 134.262 364.637C174.808 384.986 209.819 382.567 219.582 381.342L226.756 380.442C210.577 380.48 183.985 377.656 154.496 362.859C136.697 353.927 120.54 341.891 106.473 327.086C90.2629 310.025 76.7652 289.184 66.3554 265.143L30.6808 182.753L10.9772 185.226Z" fill="#111111"/>
<path d="M30.9599 182.26L10.3192 184.85L93.6832 64.276L114.324 61.6857L30.9599 182.26Z" fill="#E1D1F3"/>
<path d="M10.2316 185.294C10.1577 185.279 10.0886 185.247 10.0305 185.199C9.97244 185.151 9.92721 185.089 9.8989 185.019C9.87059 184.949 9.8601 184.874 9.86838 184.799C9.87665 184.724 9.90344 184.652 9.9463 184.59L93.3105 64.0151C93.384 63.9088 93.4993 63.8394 93.6272 63.8229L114.268 61.233C114.355 61.2221 114.443 61.2366 114.522 61.2746C114.6 61.3127 114.667 61.3727 114.712 61.4476C114.805 61.6009 114.799 61.794 114.697 61.9415L31.333 182.517C31.2595 182.623 31.1442 182.692 31.0163 182.709L10.375 185.299C10.3259 185.305 10.2777 185.303 10.2315 185.294L10.2316 185.294ZM93.9406 64.6987L11.2685 184.272L30.7029 181.833L113.375 62.2603L93.9406 64.6987Z" fill="#111111"/>
<path d="M114.325 61.6859L249.999 61.9207L285.808 144.623C334.497 257.07 278.875 352.62 250.907 377.122C216.547 386.864 115.459 377.409 66.7703 264.963L30.9607 182.26L114.325 61.6859Z" fill="white"/>
<path d="M197.416 377.55C185.962 375.296 174.775 371.854 164.034 367.279C144.364 358.892 126.498 346.894 110.933 331.618C92.7081 313.733 77.7091 291.367 66.3541 265.142L30.5446 182.439C30.514 182.368 30.502 182.29 30.5095 182.214C30.517 182.137 30.5438 182.063 30.5875 181.999L113.952 61.4251C113.994 61.3645 114.05 61.3149 114.115 61.2808C114.18 61.2467 114.253 61.229 114.326 61.2294L250 61.4641C250.181 61.4659 250.344 61.5718 250.415 61.7372L286.224 144.44C297.578 170.662 303.99 197.739 305.282 224.92C306.385 248.129 303.781 271.361 297.541 293.971C286.757 333.053 266.498 364.064 251.205 377.462C251.155 377.506 251.095 377.538 251.03 377.557C238.476 381.116 219.056 381.803 197.417 377.551L197.416 377.55ZM31.4768 182.309L67.1859 264.78C93.6157 325.82 134.634 353.756 164.389 366.443C198.128 380.83 232.015 381.967 250.685 376.711C265.867 363.366 285.951 332.563 296.667 293.729C306.115 259.489 311.829 205.857 285.392 144.801L249.701 62.3713L114.562 62.1375L31.4768 182.309Z" fill="#111111"/>
<path d="M122.659 80.9301L49.4631 186.794L80.9037 259.406C123.651 358.132 212.405 366.431 242.576 357.88C267.128 336.366 315.965 252.474 273.217 153.749L241.777 81.1364L122.659 80.9301Z" fill="#E1D1F3"/>
<path d="M195.597 358.308C185.537 356.328 175.711 353.305 166.278 349.287C149.002 341.921 133.31 331.383 119.639 317.967C103.632 302.259 90.4598 282.615 80.4872 259.584L49.0471 186.972C49.0165 186.901 49.0044 186.824 49.0119 186.747C49.0194 186.67 49.0463 186.596 49.09 186.533L122.287 80.6694C122.329 80.609 122.385 80.5596 122.45 80.5256C122.515 80.4916 122.587 80.4739 122.661 80.4742L241.779 80.6806C241.867 80.6806 241.954 80.7065 242.027 80.755C242.101 80.8035 242.159 80.8726 242.194 80.9536L273.634 153.566C283.605 176.594 289.236 200.374 290.37 224.245C291.339 244.627 289.051 265.03 283.572 284.887C274.102 319.209 256.308 346.449 242.876 358.22C242.825 358.264 242.765 358.297 242.701 358.315C231.669 361.441 214.609 362.045 195.598 358.308L195.597 358.308ZM49.9798 186.842L81.3195 259.223C122.798 355.016 209.188 366.796 242.355 357.469C269.318 333.754 314.298 249.762 272.801 153.927L241.479 81.5876L122.896 81.3826L49.9792 186.843L49.9798 186.842Z" fill="#111111"/>
<path d="M161.646 170.968C147.804 178.573 142.316 197.979 149.388 214.311C154.624 226.404 165.276 233.413 176.069 233.159L188.325 261.466C191.163 268.02 198.032 270.891 203.59 267.838C209.148 264.784 211.368 256.919 208.53 250.365L196.274 222.059C203.096 212.635 204.747 198.867 199.51 186.774C192.439 170.442 175.485 163.365 161.646 170.968" fill="#6817C5"/>
<path d="M196.871 269.318C196.393 269.224 195.919 269.096 195.448 268.935C192.176 267.814 189.428 265.158 187.909 261.647L175.773 233.619C164.565 233.743 154.07 226.267 148.972 214.493C141.82 197.977 147.408 178.273 161.428 170.571C167.677 167.138 174.857 166.529 181.645 168.853C189.554 171.563 196.217 178.029 199.926 186.594C205.023 198.367 203.787 212.278 196.791 222.115L208.945 250.185C211.883 256.968 209.578 265.066 203.807 268.237C201.695 269.406 199.237 269.789 196.871 269.317L196.871 269.318ZM176.155 232.715C176.3 232.743 176.424 232.841 176.484 232.98L188.74 261.286C190.159 264.562 192.71 267.037 195.741 268.076C198.311 268.957 201.022 268.732 203.372 267.441C208.742 264.49 210.87 256.912 208.113 250.547L195.857 222.241C195.826 222.169 195.814 222.089 195.822 222.011C195.831 221.933 195.86 221.858 195.906 221.794C202.852 212.201 204.102 198.526 199.094 186.956C195.486 178.625 189.019 172.341 181.351 169.713C174.81 167.472 167.886 168.058 161.863 171.367C148.243 178.85 142.833 198.035 149.803 214.132C154.8 225.673 165.107 232.963 176.057 232.707C176.09 232.706 176.123 232.709 176.155 232.715Z" fill="#111111"/>
</g>
<g clip-path="url(#clip2_9838_113355)">
<path d="M426.101 272.3C425.871 274.713 424.816 276.754 423.241 278.206L415.193 285.625C416.768 284.173 417.823 282.132 418.053 279.718C418.293 277.194 417.588 274.693 416.225 272.599C414.557 270.037 411.905 268.083 408.797 267.44C407.583 267.189 406.399 267.158 405.282 267.319C403.426 267.587 401.756 268.387 400.447 269.593L408.495 262.175C409.804 260.968 411.474 260.168 413.33 259.9C414.447 259.739 415.631 259.771 416.845 260.022C419.953 260.664 422.605 262.618 424.273 265.181C425.636 267.274 426.341 269.775 426.101 272.3Z" fill="#6817C5"/>
<path d="M409.373 260.941C408.959 261.215 408.568 261.521 408.203 261.857L400.155 269.276C400.074 269.353 400.027 269.46 400.024 269.573C400.02 269.685 400.061 269.795 400.138 269.878C400.214 269.961 400.32 270.011 400.432 270.017C400.544 270.023 400.654 269.985 400.738 269.911L400.74 269.909C402.002 268.746 403.595 267.997 405.345 267.745C406.44 267.587 407.573 267.626 408.711 267.862C411.589 268.457 414.196 270.269 415.865 272.833C417.221 274.917 417.846 277.347 417.624 279.675C417.411 281.914 416.469 283.861 414.901 285.306C414.82 285.384 414.773 285.491 414.77 285.603C414.766 285.716 414.807 285.826 414.884 285.909C414.96 285.992 415.066 286.042 415.178 286.048C415.29 286.054 415.4 286.016 415.484 285.941L423.532 278.523C425.233 276.955 426.297 274.76 426.528 272.342C426.769 269.821 426.095 267.194 424.632 264.946C422.838 262.19 420.031 260.241 416.93 259.6C415.693 259.344 414.461 259.302 413.266 259.474C411.851 259.679 410.527 260.18 409.373 260.941ZM403.608 267.265L408.786 262.492C410.05 261.328 411.642 260.579 413.393 260.327C414.488 260.169 415.621 260.208 416.759 260.444C419.637 261.039 422.244 262.851 423.913 265.415C425.269 267.499 425.894 269.929 425.672 272.257C425.459 274.496 424.517 276.443 422.949 277.888L417.757 282.674C418.142 281.746 418.386 280.763 418.48 279.76C418.72 277.239 418.047 274.612 416.584 272.365C414.79 269.608 411.983 267.659 408.882 267.018C407.644 266.762 406.412 266.72 405.218 266.892C404.672 266.971 404.133 267.096 403.608 267.265Z" fill="#111111"/>
<path d="M367.27 235.209L359.222 242.628C356.147 245.462 353.59 248.881 351.703 252.773L359.751 245.355C361.637 241.463 364.195 238.044 367.27 235.209Z" fill="#6817C5"/>
<path d="M367.033 234.851C367.013 234.863 366.995 234.878 366.978 234.893L358.93 242.312C355.771 245.224 353.208 248.681 351.316 252.586C351.272 252.676 351.261 252.778 351.285 252.876C351.309 252.973 351.366 253.059 351.447 253.12C351.527 253.18 351.626 253.21 351.726 253.205C351.826 253.2 351.92 253.16 351.994 253.093L360.042 245.674C360.082 245.638 360.114 245.594 360.137 245.546C361.982 241.739 364.48 238.369 367.561 235.529C367.641 235.456 367.691 235.355 367.699 235.247C367.708 235.139 367.676 235.032 367.61 234.946C367.543 234.86 367.446 234.803 367.339 234.785C367.232 234.767 367.123 234.791 367.033 234.851ZM353.266 250.747C354.944 247.846 357.05 245.216 359.514 242.947L361.958 240.694C360.999 242.095 360.144 243.566 359.4 245.094L353.266 250.747Z" fill="#111111"/>
<path d="M351.045 270.004L342.997 277.423L349.233 278.712L357.281 271.293L351.045 270.004Z" fill="white"/>
<path d="M350.809 269.645C350.789 269.658 350.771 269.672 350.755 269.688L342.707 277.106C342.649 277.16 342.607 277.229 342.585 277.305C342.563 277.381 342.563 277.462 342.585 277.538C342.606 277.614 342.648 277.684 342.706 277.738C342.764 277.792 342.836 277.829 342.913 277.845L349.149 279.135C349.216 279.149 349.285 279.147 349.35 279.129C349.416 279.111 349.476 279.077 349.526 279.031L357.574 271.612C357.632 271.559 357.674 271.49 357.695 271.414C357.717 271.338 357.717 271.257 357.696 271.181C357.674 271.104 357.632 271.035 357.574 270.981C357.516 270.927 357.445 270.89 357.367 270.874L351.132 269.584C351.076 269.572 351.019 269.572 350.964 269.582C350.908 269.593 350.856 269.614 350.809 269.645ZM343.907 277.172L351.176 270.471L356.372 271.546L349.103 278.247L343.907 277.172Z" fill="#111111"/>
<path d="M344.955 263.732L336.908 271.15L342.997 277.425L351.045 270.006L344.955 263.732Z" fill="#6817C5"/>
<path d="M344.718 263.369C344.699 263.382 344.681 263.396 344.664 263.412L336.616 270.83C336.574 270.869 336.54 270.916 336.516 270.968C336.492 271.021 336.479 271.077 336.478 271.135C336.476 271.192 336.486 271.25 336.507 271.303C336.528 271.357 336.56 271.406 336.6 271.447L342.69 277.722C342.768 277.802 342.874 277.849 342.986 277.852C343.098 277.856 343.207 277.815 343.289 277.74L351.337 270.321C351.379 270.283 351.413 270.236 351.437 270.183C351.46 270.131 351.473 270.075 351.475 270.017C351.477 269.96 351.466 269.902 351.445 269.849C351.424 269.795 351.393 269.746 351.353 269.705L345.263 263.43C345.193 263.358 345.1 263.313 345.001 263.302C344.902 263.291 344.802 263.314 344.718 263.369ZM337.524 271.166L344.94 264.33L350.429 269.986L343.013 276.822L337.524 271.166Z" fill="#111111"/>
<path d="M415.86 304.191C410.83 308.828 404.416 311.902 397.287 312.931C393.005 313.549 388.465 313.429 383.813 312.467C371.875 309.997 361.686 302.491 355.277 292.645C352.494 288.369 350.423 283.651 349.233 278.713L357.28 271.294C358.471 276.232 360.542 280.95 363.325 285.227C369.734 295.072 379.923 302.579 391.861 305.048C396.513 306.011 401.052 306.13 405.335 305.512C412.464 304.483 418.878 301.409 423.908 296.773L415.86 304.191Z" fill="white"/>
<path d="M357.044 270.935C357.024 270.947 357.006 270.962 356.99 270.977L348.942 278.396C348.885 278.447 348.844 278.513 348.822 278.587C348.8 278.66 348.798 278.738 348.816 278.813C350.008 283.757 352.061 288.49 354.919 292.88C361.635 303.198 372.136 310.491 383.728 312.889C388.329 313.84 392.912 313.998 397.351 313.357C404.489 312.327 410.991 309.267 416.153 304.508L424.201 297.09C424.282 297.012 424.329 296.906 424.333 296.793C424.336 296.68 424.295 296.571 424.219 296.487C424.142 296.404 424.037 296.354 423.924 296.348C423.812 296.342 423.702 296.381 423.618 296.455C418.583 301.096 412.239 304.081 405.272 305.086C400.932 305.713 396.449 305.558 391.947 304.627C380.578 302.275 370.277 295.119 363.686 284.993C360.883 280.686 358.868 276.044 357.699 271.195C357.683 271.128 357.651 271.065 357.605 271.013C357.56 270.96 357.503 270.92 357.438 270.894C357.374 270.869 357.305 270.859 357.236 270.866C357.167 270.873 357.101 270.897 357.044 270.935ZM349.711 278.859L357.041 272.103C358.254 276.791 360.246 281.282 362.967 285.462C369.683 295.78 380.183 303.073 391.776 305.47C396.377 306.422 400.96 306.579 405.399 305.939C409.913 305.287 414.174 303.823 418.002 301.632L415.57 303.874C410.535 308.514 404.191 311.499 397.224 312.505C392.884 313.131 388.401 312.977 383.898 312.045C372.529 309.694 362.229 302.537 355.637 292.412C352.882 288.178 350.889 283.619 349.711 278.859Z" fill="#111111"/>
<path d="M339.507 267.617L331.459 275.035L336.908 271.147L344.956 263.729L339.507 267.617Z" fill="#6817C5"/>
<path d="M344.718 263.37L344.705 263.379L339.256 267.267C339.242 267.278 339.228 267.289 339.215 267.301L331.167 274.719C331 274.873 330.982 275.13 331.125 275.307C331.269 275.484 331.524 275.522 331.709 275.388L337.158 271.5C337.172 271.489 337.186 271.478 337.199 271.466L345.247 264.048C345.326 263.974 345.375 263.874 345.383 263.766C345.392 263.659 345.36 263.551 345.293 263.466C345.226 263.381 345.13 263.323 345.024 263.306C344.917 263.288 344.808 263.311 344.718 263.37Z" fill="#111111"/>
<path d="M324.007 264.413L315.959 271.832L331.46 275.038L339.508 267.619L324.007 264.413Z" fill="white"/>
<path d="M323.768 264.051C323.749 264.063 323.731 264.078 323.714 264.093L315.666 271.512C315.608 271.565 315.566 271.634 315.544 271.71C315.523 271.786 315.523 271.867 315.544 271.943C315.566 272.02 315.608 272.089 315.665 272.143C315.723 272.197 315.795 272.234 315.873 272.251L331.374 275.457C331.441 275.471 331.51 275.468 331.575 275.45C331.641 275.432 331.701 275.399 331.751 275.352L339.799 267.934C339.857 267.881 339.899 267.812 339.921 267.736C339.942 267.66 339.942 267.579 339.921 267.502C339.899 267.426 339.857 267.357 339.8 267.303C339.742 267.249 339.67 267.211 339.592 267.195L324.091 263.989C323.979 263.966 323.863 263.988 323.768 264.051ZM316.866 271.578L324.135 264.877L338.598 267.868L331.328 274.569L316.866 271.578Z" fill="#111111"/>
<path d="M314.289 256.862L306.241 264.28L315.958 271.832L324.006 264.413L314.289 256.862Z" fill="#6817C5"/>
<path d="M314.051 256.5C314.032 256.513 314.014 256.527 313.997 256.543L305.949 263.961C305.903 264.003 305.867 264.055 305.844 264.113C305.82 264.171 305.809 264.233 305.812 264.296C305.815 264.358 305.831 264.419 305.86 264.475C305.889 264.531 305.929 264.58 305.978 264.618L315.695 272.169C315.776 272.232 315.875 272.264 315.977 272.26C316.078 272.256 316.175 272.216 316.249 272.147L324.297 264.729C324.343 264.686 324.379 264.634 324.403 264.577C324.426 264.519 324.437 264.457 324.434 264.394C324.432 264.332 324.415 264.27 324.387 264.215C324.358 264.159 324.317 264.11 324.268 264.072L314.551 256.521C314.404 256.406 314.202 256.401 314.051 256.5ZM306.906 264.252L314.314 257.423L323.34 264.438L315.933 271.267L306.906 264.252Z" fill="#111111"/>
<path d="M304.595 260.397L296.547 267.815L306.241 264.279L314.289 256.86L304.595 260.397Z" fill="#6817C5"/>
<path d="M304.357 260.038C304.338 260.051 304.32 260.065 304.303 260.081L296.255 267.499C296.182 267.567 296.135 267.657 296.121 267.756C296.108 267.854 296.129 267.955 296.181 268.04C296.232 268.125 296.312 268.19 296.406 268.223C296.5 268.256 296.602 268.255 296.695 268.221L306.389 264.685C306.442 264.666 306.491 264.636 306.532 264.598L314.58 257.179C314.653 257.112 314.7 257.021 314.714 256.923C314.727 256.824 314.707 256.724 314.655 256.639C314.603 256.554 314.523 256.489 314.429 256.456C314.335 256.423 314.233 256.423 314.14 256.457L304.446 259.994C304.415 260.005 304.385 260.02 304.357 260.038ZM298.423 266.674L304.824 260.774L312.412 258.006L306.012 263.905L298.423 266.674Z" fill="#111111"/>
<path d="M282.712 249.792L274.664 257.211L280.908 264.581L288.956 257.162L282.712 249.792Z" fill="#6817C5"/>
<path d="M282.474 249.434C282.454 249.446 282.436 249.46 282.419 249.476L274.372 256.894C274.29 256.97 274.241 257.073 274.234 257.184C274.228 257.295 274.264 257.405 274.336 257.49L280.581 264.86C280.619 264.904 280.665 264.94 280.717 264.966C280.768 264.992 280.825 265.008 280.883 265.011C280.94 265.015 280.998 265.007 281.053 264.988C281.107 264.968 281.157 264.938 281.2 264.899L289.248 257.481C289.329 257.406 289.378 257.302 289.385 257.191C289.392 257.08 289.355 256.971 289.283 256.886L283.038 249.516C282.97 249.435 282.875 249.383 282.771 249.367C282.667 249.352 282.561 249.376 282.474 249.434ZM275.258 257.25L282.674 250.414L288.361 257.125L280.945 263.961L275.258 257.25Z" fill="#111111"/>
<path d="M288.956 257.162L280.907 264.58L296.546 267.815L304.594 260.397L288.956 257.162Z" fill="white"/>
<path d="M288.719 256.803C288.7 256.816 288.682 256.83 288.665 256.846L280.617 264.264C280.559 264.318 280.517 264.387 280.495 264.463C280.474 264.539 280.474 264.62 280.495 264.696C280.516 264.772 280.558 264.842 280.616 264.896C280.674 264.95 280.746 264.987 280.824 265.003L296.462 268.238C296.529 268.252 296.598 268.25 296.664 268.232C296.729 268.214 296.79 268.18 296.839 268.134L304.887 260.715C304.945 260.662 304.987 260.593 305.009 260.517C305.031 260.441 305.031 260.36 305.009 260.284C304.988 260.207 304.946 260.138 304.888 260.084C304.83 260.03 304.758 259.993 304.681 259.976L289.042 256.742C288.93 256.719 288.814 256.741 288.719 256.803ZM281.817 264.331L289.087 257.63L303.687 260.65L296.417 267.351L281.817 264.331Z" fill="#111111"/>
<path d="M275.586 254.399L267.538 261.817L274.665 257.213L282.713 249.794L275.586 254.399Z" fill="#6817C5"/>
<path d="M275.348 254.038C275.329 254.05 275.31 254.064 275.294 254.08L267.246 261.498C267.165 261.571 267.115 261.671 267.106 261.779C267.096 261.887 267.128 261.995 267.195 262.081C267.261 262.168 267.358 262.225 267.465 262.243C267.572 262.261 267.681 262.238 267.771 262.178L274.898 257.574C274.918 257.561 274.938 257.546 274.956 257.529L283.004 250.111C283.084 250.038 283.134 249.938 283.144 249.83C283.153 249.722 283.122 249.614 283.055 249.528C282.988 249.442 282.892 249.384 282.785 249.366C282.678 249.348 282.568 249.371 282.478 249.431L275.351 254.035L275.348 254.038ZM271.525 258.726L275.85 254.74L278.725 252.882L274.4 256.869L271.525 258.726Z" fill="#111111"/>
<path d="M268.708 252.976L260.66 260.395L267.536 261.817L275.584 254.398L268.708 252.976Z" fill="white"/>
<path d="M268.471 252.614C268.452 252.627 268.434 252.641 268.417 252.657L260.369 260.075C260.311 260.129 260.269 260.197 260.248 260.273C260.226 260.35 260.226 260.43 260.247 260.507C260.269 260.583 260.311 260.652 260.369 260.706C260.427 260.761 260.498 260.798 260.576 260.814L267.452 262.236C267.519 262.25 267.588 262.248 267.653 262.23C267.719 262.212 267.779 262.178 267.829 262.132L275.877 254.714C275.935 254.66 275.977 254.591 275.999 254.515C276.02 254.439 276.02 254.358 275.999 254.282C275.978 254.206 275.936 254.137 275.878 254.082C275.82 254.028 275.748 253.991 275.671 253.975L268.794 252.552C268.683 252.529 268.566 252.552 268.471 252.614ZM261.57 260.141L268.839 253.44L274.676 254.648L267.407 261.349L261.57 260.141Z" fill="#111111"/>
<path d="M245.638 244.054L260.652 260.39L268.7 252.972L253.685 236.635L245.638 244.054Z" fill="white"/>
<path d="M253.455 236.276C253.436 236.289 253.418 236.303 253.401 236.319L245.353 243.737C245.311 243.775 245.278 243.821 245.254 243.873C245.23 243.924 245.217 243.979 245.215 244.036C245.213 244.092 245.221 244.149 245.241 244.202C245.261 244.255 245.291 244.304 245.329 244.345L260.345 260.682C260.423 260.766 260.53 260.817 260.644 260.821C260.758 260.826 260.869 260.786 260.952 260.709L269 253.29C269.042 253.252 269.075 253.206 269.099 253.155C269.123 253.104 269.136 253.048 269.138 252.992C269.141 252.935 269.132 252.879 269.112 252.826C269.092 252.773 269.062 252.724 269.024 252.682L254.008 236.345C253.939 236.27 253.845 236.222 253.744 236.209C253.643 236.196 253.54 236.22 253.455 236.276ZM246.252 244.081L253.669 237.245L268.102 252.946L260.685 259.783L246.252 244.081Z" fill="#111111"/>
<path d="M265.185 225.794L257.137 233.212L245.645 244.055L253.692 236.636L265.185 225.794Z" fill="white"/>
<path d="M264.947 225.436C264.928 225.449 264.91 225.463 264.893 225.479L256.845 232.897L245.349 243.744C245.265 243.822 245.216 243.929 245.213 244.044C245.209 244.158 245.25 244.269 245.328 244.353C245.406 244.436 245.514 244.486 245.628 244.49C245.742 244.495 245.852 244.453 245.936 244.376L253.984 236.957L265.48 226.111C265.558 226.037 265.607 225.937 265.614 225.829C265.622 225.721 265.59 225.614 265.522 225.529C265.455 225.444 265.359 225.388 265.252 225.37C265.146 225.353 265.037 225.377 264.947 225.436Z" fill="#111111"/>
<path d="M434.884 274.117C432.827 295.686 413.571 309.541 391.861 305.05C374.737 301.509 361.212 287.602 357.28 271.297L351.045 270.007L344.955 263.732L339.506 267.62L324.005 264.413L314.288 256.862L304.595 260.399L288.956 257.164L282.711 249.794L275.584 254.398L268.708 252.976L253.692 236.639L265.184 225.796L359.751 245.356C366.577 231.272 382.182 223.394 399.309 226.937C421.019 231.428 436.941 252.549 434.884 274.117ZM416.845 260.023C411.187 258.852 406.176 262.455 405.641 268.069C405.104 273.693 409.248 279.189 414.906 280.359C420.553 281.528 425.564 277.924 426.1 272.301C426.636 266.687 422.492 261.191 416.845 260.023Z" fill="#E1D1F3"/>
<path d="M264.948 225.437C264.927 225.45 264.908 225.466 264.89 225.483L253.397 236.326C253.315 236.403 253.267 236.51 253.263 236.623C253.26 236.737 253.3 236.847 253.377 236.931L268.393 253.268C268.455 253.334 268.535 253.38 268.623 253.398L275.5 254.82C275.61 254.843 275.725 254.822 275.819 254.761L282.63 250.361L288.63 257.442C288.692 257.516 288.777 257.567 288.872 257.586L304.511 260.821C304.589 260.837 304.67 260.831 304.745 260.804L314.215 257.349L323.744 264.754C323.796 264.795 323.857 264.823 323.921 264.836L339.422 268.042C339.48 268.054 339.54 268.054 339.598 268.042C339.655 268.03 339.71 268.006 339.758 267.972L344.907 264.297L350.739 270.307C350.799 270.369 350.877 270.411 350.961 270.429L356.929 271.663C361.088 288.447 375.059 302.014 391.777 305.472C402.566 307.704 413.068 305.564 421.347 299.45C429.362 293.53 434.322 284.548 435.313 274.16C437.386 252.414 421.274 231.042 399.395 226.516C382.664 223.056 366.682 230.425 359.512 244.868L265.27 225.375C265.158 225.352 265.042 225.374 264.948 225.437ZM254.296 236.662L265.318 226.263L359.666 245.778C359.759 245.797 359.856 245.785 359.942 245.743C360.027 245.701 360.096 245.632 360.138 245.546C362.834 239.984 366.865 235.478 371.752 232.252C379.412 227.195 389.178 225.281 399.225 227.359C420.685 231.798 436.49 252.754 434.457 274.074C433.49 284.216 428.652 292.982 420.834 298.756C412.751 304.724 402.494 306.81 391.947 304.628C375.462 301.219 361.699 287.783 357.699 271.197C357.68 271.117 357.638 271.044 357.579 270.987C357.521 270.93 357.447 270.891 357.366 270.874L351.26 269.611L345.263 263.432C345.192 263.358 345.096 263.312 344.994 263.303C344.891 263.293 344.789 263.321 344.706 263.38L339.409 267.16L324.189 264.013L314.552 256.523C314.494 256.478 314.426 256.448 314.354 256.437C314.283 256.426 314.209 256.433 314.141 256.458L304.561 259.952L289.187 256.773L283.039 249.516C282.972 249.436 282.877 249.384 282.774 249.368C282.671 249.353 282.566 249.375 282.478 249.432L275.498 253.941L268.93 252.582L254.296 236.662ZM409.381 260.938C409.242 261.029 409.107 261.124 408.973 261.223C406.815 262.817 405.48 265.233 405.214 268.025C404.659 273.848 408.969 279.57 414.821 280.78C417.717 281.379 420.538 280.805 422.765 279.159C424.925 277.564 426.262 275.143 426.529 272.343C427.084 266.526 422.779 260.81 416.931 259.601C414.203 259.037 411.542 259.511 409.381 260.938ZM421.883 278.724C419.916 280.022 417.487 280.454 414.992 279.937C409.558 278.813 405.555 273.508 406.069 268.111C406.312 265.564 407.525 263.364 409.485 261.917C411.515 260.416 414.1 259.893 416.761 260.444C422.189 261.566 426.188 266.866 425.674 272.257C425.43 274.811 424.215 277.016 422.253 278.465C422.132 278.555 422.009 278.641 421.883 278.724Z" fill="#111111"/>
</g>
<g clip-path="url(#clip3_9838_113355)">
<path d="M235.869 14.1034C235.818 13.8237 235.823 13.5368 235.885 13.2593C235.947 12.9819 236.063 12.7196 236.228 12.488L243.334 2.83594C243.169 3.06818 243.052 3.33103 242.99 3.60902C242.929 3.88701 242.923 4.17454 242.974 4.45469L244.843 15.749L237.741 25.4077L235.869 14.1034Z" fill="#D2B9EE"/>
<path d="M237.741 25.7423C237.661 25.7433 237.582 25.7154 237.521 25.6636C237.459 25.6118 237.418 25.5396 237.405 25.4602L235.54 14.1659C235.481 13.8421 235.488 13.5098 235.559 13.1886C235.631 12.8673 235.766 12.5636 235.956 12.2952L243.062 2.6365C243.088 2.60096 243.121 2.57093 243.159 2.54815C243.197 2.52537 243.239 2.51027 243.283 2.50372C243.326 2.49716 243.371 2.49929 243.414 2.50997C243.457 2.52066 243.497 2.53968 243.533 2.56597C243.568 2.59218 243.598 2.62515 243.621 2.66298C243.644 2.70081 243.659 2.74276 243.665 2.78643C243.672 2.8301 243.67 2.87464 243.659 2.91749C243.648 2.96034 243.629 3.00066 243.603 3.03615C243.466 3.2324 243.369 3.45406 243.318 3.68816C243.267 3.92227 243.264 4.16414 243.307 4.39966L245.176 15.6939C245.183 15.7378 245.182 15.7827 245.171 15.8259C245.161 15.8692 245.142 15.9099 245.116 15.9458L238.01 25.6046C237.979 25.6469 237.939 25.6814 237.892 25.7053C237.845 25.7292 237.794 25.7419 237.741 25.7423ZM236.202 14.0584L237.943 24.5668L244.49 15.6637L242.645 4.50712C242.635 4.46064 242.628 4.41351 242.625 4.36607L236.501 12.6949C236.362 12.8906 236.264 13.1121 236.213 13.3463C236.161 13.5805 236.158 13.8227 236.202 14.0584Z" fill="#111111"/>
<path d="M311.313 83.7109L323.282 86.5421C323.809 86.6751 324.364 86.6434 324.872 86.4514C325.228 86.3168 325.54 86.0839 325.769 85.7797L318.667 95.4385C318.437 95.7431 318.124 95.9761 317.766 96.1101C317.258 96.3012 316.704 96.334 316.176 96.2042L304.207 93.363L311.313 83.7109Z" fill="#D2B9EE"/>
<path d="M316.845 96.6183C316.595 96.6171 316.346 96.5878 316.102 96.531L304.13 93.6999C304.076 93.6874 304.026 93.6619 303.984 93.6256C303.943 93.5893 303.911 93.5433 303.891 93.4916C303.872 93.4393 303.867 93.383 303.875 93.3279C303.883 93.2727 303.905 93.2205 303.938 93.176L311.04 83.5172C311.079 83.4663 311.131 83.4273 311.19 83.4047C311.25 83.3821 311.314 83.3769 311.377 83.3896L323.346 86.2207C323.806 86.337 324.29 86.31 324.734 86.1435C325.034 86.0274 325.295 85.8296 325.487 85.5725C325.513 85.537 325.546 85.507 325.584 85.4842C325.622 85.4614 325.664 85.4463 325.708 85.4398C325.751 85.4332 325.796 85.4353 325.839 85.446C325.882 85.4567 325.922 85.4757 325.958 85.502C326.028 85.5549 326.076 85.6336 326.089 85.7209C326.102 85.8083 326.08 85.8974 326.028 85.9688L318.923 95.6276C318.655 95.9845 318.293 96.2601 317.877 96.4235C317.548 96.5515 317.198 96.6176 316.845 96.6183ZM304.779 93.1625L316.254 95.8761C316.714 95.9924 317.198 95.9654 317.642 95.7989C317.941 95.6828 318.202 95.485 318.395 95.2279L324.519 86.9025C324.084 86.9861 323.636 86.9758 323.205 86.8723L311.44 84.0881L304.779 93.1625Z" fill="#111111"/>
<path d="M251.389 43.4367L244.283 53.0955C246.082 50.6754 248.529 48.8127 251.342 47.722C253.533 46.8711 255.858 46.4162 258.209 46.3787C268.027 46.1637 278.154 52.7999 282.1 62.0456C284.974 68.7624 284.181 75.2743 280.756 79.9123L287.861 70.2502C291.273 65.6122 292.066 59.0969 289.206 52.3835C285.256 43.1378 275.132 36.505 265.314 36.7199C262.964 36.7551 260.638 37.2101 258.447 38.0633C255.635 39.1539 253.188 41.0167 251.389 43.4367Z" fill="#D2B9EE"/>
<path d="M280.772 80.2447C280.7 80.244 280.631 80.2205 280.574 80.1775C280.538 80.1513 280.508 80.1184 280.485 80.0805C280.462 80.0427 280.447 80.0007 280.441 79.9571C280.434 79.9134 280.436 79.8689 280.447 79.826C280.458 79.7832 280.477 79.7428 280.503 79.7074C284.032 74.9015 284.499 68.5138 281.79 62.1799C277.935 53.1525 268.271 46.7313 258.682 46.7313L258.215 46.7313C255.907 46.7577 253.622 47.1956 251.469 48.0242C248.711 49.098 246.312 50.9252 244.545 53.2969C244.492 53.3691 244.413 53.4174 244.325 53.4312C244.236 53.4451 244.146 53.4234 244.074 53.3708C244.002 53.3183 243.953 53.2392 243.94 53.151C243.926 53.0628 243.948 52.9728 244 52.9006L251.106 43.2419C252.948 40.7681 255.45 38.8628 258.326 37.7442C260.554 36.8776 262.919 36.4158 265.31 36.3807C275.31 36.1523 285.498 42.8355 289.511 52.2491C292.321 58.8114 291.82 65.4442 288.143 70.4483L281.037 80.107C281.007 80.1489 280.967 80.1831 280.921 80.207C280.875 80.2309 280.824 80.2438 280.772 80.2447ZM258.689 46.0361C268.537 46.0361 278.456 52.6454 282.412 61.9079C284.506 66.7977 284.765 71.7278 283.236 75.993L287.605 70.0486C291.138 65.2427 291.612 58.8517 288.896 52.5144C284.98 43.3393 275.071 36.8408 265.324 37.0658C263.012 37.0989 260.725 37.5448 258.571 38.3823C255.817 39.4564 253.42 41.2822 251.654 43.6516L247.25 49.643C248.467 48.7254 249.802 47.9765 251.22 47.4164C253.448 46.5517 255.812 46.09 258.201 46.0529L258.689 46.0361Z" fill="#111111"/>
<path d="M294.414 97.9288L287.309 107.591C293.362 105.191 298.624 101.149 302.501 95.9205L309.607 86.2617C305.73 91.4897 300.468 95.5308 294.414 97.9288Z" fill="#D2B9EE"/>
<path d="M287.309 107.93C287.246 107.93 287.185 107.913 287.132 107.88C287.079 107.847 287.036 107.8 287.008 107.744C286.98 107.688 286.968 107.626 286.974 107.564C286.98 107.502 287.002 107.442 287.04 107.393L294.142 97.7304C294.179 97.6809 294.229 97.6426 294.287 97.6196C300.274 95.236 305.482 91.2376 309.328 86.0701C309.354 86.0346 309.387 86.0045 309.425 85.9817C309.463 85.959 309.505 85.9439 309.549 85.9373C309.592 85.9308 309.637 85.9329 309.68 85.9436C309.723 85.9542 309.763 85.9733 309.799 85.9996C309.834 86.0258 309.864 86.0587 309.887 86.0966C309.91 86.1344 309.925 86.1764 309.932 86.22C309.938 86.2637 309.936 86.3082 309.925 86.3511C309.915 86.3939 309.896 86.4343 309.869 86.4697L302.767 96.1285C298.846 101.4 293.536 105.479 287.43 107.91C287.391 107.924 287.35 107.931 287.309 107.93ZM294.626 98.2073L288.307 106.798C293.835 104.377 298.634 100.557 302.233 95.7154L305.352 91.4704C302.202 94.3307 298.571 96.6115 294.626 98.2073Z" fill="#111111"/>
<path d="M206.059 38.2848C206.125 38.0336 206.239 37.7975 206.395 37.5896L213.491 27.9141C213.335 28.121 213.221 28.3559 213.155 28.6059L210.022 41.1864L202.93 50.8452L206.059 38.2848Z" fill="#D2B9EE"/>
<path d="M202.93 51.1858C202.88 51.1859 202.831 51.1756 202.786 51.1556C202.715 51.1222 202.659 51.0654 202.626 50.995C202.593 50.9246 202.585 50.8448 202.604 50.7694L205.733 38.1888C205.808 37.897 205.938 37.6222 206.117 37.3795L213.219 27.7207C213.245 27.6849 213.278 27.6546 213.315 27.6315C213.353 27.6084 213.395 27.593 213.439 27.5861C213.483 27.5792 213.527 27.5811 213.57 27.5915C213.613 27.6019 213.654 27.6207 213.689 27.6468C213.725 27.673 213.755 27.706 213.778 27.7438C213.801 27.7817 213.816 27.8236 213.822 27.8673C213.829 27.911 213.827 27.9555 213.816 27.9983C213.805 28.0412 213.786 28.0815 213.76 28.117C213.634 28.2906 213.543 28.4867 213.491 28.6946L210.358 41.2718C210.35 41.3146 210.331 41.3548 210.305 41.3894L203.202 51.0515C203.171 51.0937 203.13 51.1278 203.082 51.1511C203.035 51.1745 202.983 51.1864 202.93 51.1858ZM206.386 38.3534L203.666 49.2816L209.716 41.0468L212.516 29.7996L206.658 37.7791C206.529 37.9503 206.437 38.1456 206.386 38.3534Z" fill="#111111"/>
<path d="M211.695 44.3438L204.59 54.0025L215.779 59.9301L222.885 50.2713L211.695 44.3438Z" fill="#D2B9EE"/>
<path d="M215.779 60.2642C215.724 60.264 215.67 60.2501 215.621 60.2239L204.431 54.2964C204.389 54.2739 204.351 54.2425 204.322 54.2042C204.292 54.166 204.271 54.1218 204.26 54.0747C204.25 54.0279 204.249 53.9794 204.259 53.9325C204.269 53.8856 204.289 53.8413 204.317 53.8027L211.423 44.1439C211.471 44.0794 211.54 44.0341 211.618 44.0162C211.696 43.9984 211.779 44.0091 211.85 44.0465L223.032 49.9707C223.075 49.9935 223.112 50.0251 223.141 50.0634C223.17 50.1016 223.19 50.1456 223.201 50.1924C223.211 50.2397 223.212 50.2888 223.202 50.3363C223.192 50.3839 223.172 50.4287 223.143 50.4678L216.051 60.1165C216.021 60.1611 215.981 60.1978 215.933 60.2236C215.886 60.2493 215.833 60.2632 215.779 60.2642ZM205.09 53.8833L215.678 59.4918L222.401 50.3805L211.809 44.7719L205.09 53.8833Z" fill="#111111"/>
<path d="M210.031 41.1898L202.929 50.8485C202.643 52.0038 203.345 53.3505 204.589 54.002L211.691 44.3332C210.451 43.6817 209.749 42.3182 210.031 41.1797" fill="#D2B9EE"/>
<path d="M204.59 54.334C204.536 54.3333 204.482 54.3207 204.432 54.2971C203.047 53.5717 202.278 52.0873 202.6 50.7641C202.613 50.7222 202.633 50.6825 202.658 50.6465L209.763 40.9878C209.81 40.9267 209.876 40.8834 209.95 40.8651C210.025 40.8469 210.104 40.8547 210.173 40.8872C210.243 40.9198 210.299 40.9752 210.333 41.0442C210.366 41.1133 210.375 41.1917 210.358 41.2665C210.113 42.274 210.751 43.4663 211.851 44.0405C211.893 44.063 211.931 44.0945 211.961 44.1329C211.99 44.1713 212.011 44.2156 212.022 44.2628C212.033 44.31 212.033 44.359 212.024 44.4065C212.014 44.4539 211.994 44.4986 211.965 44.5376L204.859 54.1963C204.828 54.2387 204.788 54.2732 204.741 54.2971C204.694 54.321 204.643 54.3336 204.59 54.334ZM203.246 50.9756C203.054 51.8891 203.582 52.9437 204.503 53.5414L211.202 44.4402C210.815 44.1913 210.481 43.8681 210.22 43.4893C209.96 43.1106 209.777 42.6837 209.683 42.2337L203.246 50.9756Z" fill="#111111"/>
<path d="M222.885 50.2695L215.779 59.9283C215.939 63.9889 216.661 68.0079 217.924 71.8707C219.239 75.9188 221.053 79.7881 223.322 83.3901L230.427 73.7313C228.157 70.1241 226.344 66.249 225.029 62.1952C223.768 58.3377 223.046 54.3245 222.885 50.2695Z" fill="#D2B9EE"/>
<path d="M223.323 83.7229C223.268 83.7208 223.214 83.7053 223.167 83.6778C223.119 83.6503 223.079 83.6116 223.05 83.5651C220.767 79.9342 218.942 76.0345 217.619 71.9551C216.35 68.0677 215.622 64.0243 215.457 59.9387C215.454 59.863 215.477 59.7885 215.521 59.7272L222.627 50.0684C222.668 50.0119 222.726 49.9695 222.792 49.9472C222.858 49.9249 222.93 49.9239 222.997 49.9442C223.064 49.9644 223.123 50.0051 223.165 50.0605C223.208 50.1158 223.233 50.1832 223.235 50.2531C223.397 54.2781 224.113 58.2616 225.363 62.0915C226.676 66.1181 228.482 69.9669 230.741 73.5503C230.778 73.6059 230.798 73.6714 230.798 73.7384C230.798 73.8054 230.778 73.8709 230.741 73.9265L223.591 83.5852C223.561 83.6276 223.52 83.6621 223.473 83.686C223.427 83.7099 223.375 83.7225 223.323 83.7229ZM216.119 60.0294C216.293 64.0145 217.007 67.9576 218.244 71.7502C219.499 75.6186 221.212 79.3234 223.346 82.7859L230.022 73.7183C227.793 70.1419 226.01 66.3075 224.711 62.2997C223.54 58.7096 222.83 54.9857 222.597 51.217L216.119 60.0294Z" fill="#111111"/>
<path d="M280.611 113.333L294.426 111.67C294.638 111.648 294.846 111.597 295.045 111.519C295.397 111.384 295.704 111.151 295.929 110.848L288.826 120.506C288.599 120.809 288.292 121.042 287.939 121.178C287.742 121.256 287.535 121.306 287.324 121.329L273.506 123.008L280.611 113.333Z" fill="#D2B9EE"/>
<path d="M273.505 123.325C273.447 123.325 273.389 123.31 273.339 123.281C273.288 123.252 273.246 123.211 273.216 123.161C273.183 123.104 273.167 123.039 273.17 122.973C273.174 122.907 273.197 122.844 273.236 122.791L280.342 113.133C280.369 113.096 280.403 113.065 280.442 113.042C280.481 113.019 280.525 113.004 280.57 112.998L294.385 111.319C294.568 111.298 294.747 111.254 294.919 111.188C295.213 111.073 295.469 110.879 295.659 110.627C295.683 110.589 295.716 110.555 295.754 110.53C295.792 110.504 295.835 110.487 295.88 110.478C295.925 110.47 295.972 110.471 296.016 110.481C296.061 110.491 296.103 110.511 296.14 110.538C296.177 110.565 296.208 110.599 296.232 110.639C296.255 110.678 296.27 110.722 296.275 110.768C296.281 110.813 296.277 110.859 296.264 110.903C296.251 110.947 296.229 110.988 296.2 111.024L289.094 120.699C288.831 121.054 288.474 121.327 288.062 121.488C287.836 121.578 287.599 121.637 287.356 121.663L273.545 123.322L273.505 123.325ZM280.795 113.646L274.238 122.58L287.283 121.011C287.465 120.993 287.644 120.949 287.814 120.88C288.108 120.767 288.364 120.572 288.553 120.32L294.684 111.987C294.61 111.987 294.539 112.011 294.465 112.018L280.795 113.646Z" fill="#111111"/>
<path d="M272.124 100.602L265.021 110.26L270.282 121.145L277.387 111.486L272.124 100.602Z" fill="#D2B9EE"/>
<path d="M270.284 121.479L270.25 121.479C270.193 121.474 270.137 121.454 270.09 121.421C270.042 121.388 270.003 121.344 269.978 121.291L264.711 110.407C264.686 110.353 264.676 110.294 264.681 110.235C264.686 110.176 264.707 110.119 264.741 110.071L271.854 100.412C271.888 100.366 271.934 100.33 271.987 100.306C272.039 100.283 272.097 100.273 272.155 100.279C272.212 100.284 272.267 100.304 272.314 100.337C272.362 100.37 272.4 100.414 272.425 100.466L277.689 111.351C277.714 111.404 277.724 111.464 277.719 111.523C277.714 111.581 277.693 111.638 277.659 111.686L270.553 121.348C270.521 121.39 270.481 121.423 270.434 121.445C270.387 121.468 270.336 121.48 270.284 121.479ZM265.41 110.296L270.341 120.495L276.996 111.448L272.066 101.248L265.41 110.296Z" fill="#111111"/>
<path d="M277.387 111.5L270.281 121.159C270.571 121.754 271.033 122.249 271.608 122.578C272.183 122.907 272.844 123.055 273.505 123.003L280.61 113.344C279.95 113.395 279.29 113.246 278.715 112.917C278.14 112.589 277.677 112.095 277.387 111.5Z" fill="#D2B9EE"/>
<path d="M273.183 123.347C272.512 123.331 271.858 123.131 271.293 122.769C270.728 122.407 270.274 121.897 269.979 121.295C269.955 121.241 269.945 121.181 269.951 121.122C269.957 121.063 269.978 121.007 270.013 120.959L277.119 111.3C277.153 111.253 277.199 111.217 277.252 111.193C277.305 111.169 277.363 111.16 277.421 111.166C277.478 111.171 277.533 111.192 277.58 111.225C277.627 111.258 277.665 111.302 277.69 111.354C277.951 111.884 278.365 112.325 278.878 112.62C279.391 112.915 279.98 113.05 280.571 113.009C280.636 113 280.703 113.01 280.763 113.039C280.823 113.068 280.873 113.114 280.907 113.171C280.943 113.225 280.962 113.29 280.962 113.355C280.962 113.421 280.943 113.485 280.907 113.54L273.788 123.189C273.76 123.226 273.726 123.257 273.686 123.28C273.646 123.303 273.602 123.318 273.556 123.323C273.432 123.34 273.307 123.348 273.183 123.347ZM270.679 121.177C270.946 121.639 271.332 122.021 271.797 122.283C272.263 122.546 272.79 122.679 273.324 122.668L279.945 113.668C279.427 113.605 278.928 113.433 278.482 113.162C278.036 112.892 277.652 112.529 277.357 112.099L270.679 121.177Z" fill="#111111"/>
<path d="M247.674 91.3477L240.568 101.006C247.963 105.93 256.4 109.214 265.021 110.266L272.124 100.607C263.505 99.5556 255.069 96.2677 247.674 91.3477Z" fill="#D2B9EE"/>
<path d="M265.022 110.6L264.978 110.6C256.485 109.562 247.981 106.341 240.384 101.284C240.346 101.258 240.314 101.226 240.289 101.188C240.264 101.15 240.248 101.107 240.24 101.062C240.232 101.018 240.233 100.973 240.242 100.929C240.252 100.885 240.271 100.843 240.297 100.807L247.403 91.1447C247.454 91.0751 247.53 91.0279 247.615 91.0129C247.7 90.9979 247.788 91.0163 247.86 91.0641C255.369 96.0648 263.775 99.2485 272.165 100.273C272.223 100.28 272.278 100.302 272.325 100.337C272.372 100.372 272.409 100.418 272.433 100.472C272.456 100.525 272.465 100.584 272.459 100.642C272.452 100.701 272.431 100.756 272.397 100.803L265.291 110.466C265.26 110.507 265.219 110.541 265.172 110.564C265.126 110.588 265.074 110.6 265.022 110.6ZM241.05 100.918C248.424 105.767 256.649 108.87 264.867 109.908L271.516 100.867C263.311 99.7691 255.113 96.6458 247.755 91.7996L241.05 100.918Z" fill="#111111"/>
<path d="M223.671 81.875L216.565 91.5338C215.893 92.4405 216.094 93.7872 217.049 94.7578L224.155 85.0991C223.2 84.1285 223.005 82.7818 223.671 81.875Z" fill="#D2B9EE"/>
<path d="M217.05 95.089C217.005 95.0889 216.961 95.0799 216.92 95.0626C216.879 95.0453 216.842 95.02 216.811 94.9883C215.749 93.9102 215.53 92.3553 216.31 91.3478L223.402 81.6722C223.455 81.6009 223.533 81.5531 223.621 81.5393C223.708 81.5255 223.798 81.5467 223.87 81.5984C223.905 81.6243 223.936 81.6571 223.959 81.6948C223.982 81.7325 223.997 81.7744 224.004 81.8181C224.011 81.8618 224.009 81.9064 223.999 81.9494C223.989 81.9924 223.97 82.0328 223.944 82.0685C223.376 82.841 223.564 84.0164 224.397 84.8594C224.453 84.9163 224.486 84.9911 224.492 85.0704C224.498 85.1498 224.475 85.2285 224.428 85.2926L217.319 94.9514C217.29 94.9907 217.253 95.0233 217.211 95.0471C217.169 95.0709 217.122 95.0852 217.073 95.089L217.05 95.089ZM222.962 83.4018L216.838 91.7273C216.334 92.399 216.428 93.4065 217.03 94.2159L223.722 85.118C223.306 84.6327 223.041 84.0359 222.962 83.4018Z" fill="#111111"/>
<path d="M238.069 96.8616L230.963 106.52L240.569 101.003L247.675 91.3438L238.069 96.8616Z" fill="#D2B9EE"/>
<path d="M230.963 106.856C230.901 106.855 230.84 106.838 230.788 106.805C230.735 106.773 230.693 106.726 230.665 106.671C230.637 106.616 230.625 106.554 230.63 106.492C230.635 106.431 230.657 106.372 230.694 106.322L237.796 96.6599C237.825 96.6236 237.86 96.5928 237.9 96.5692L247.506 91.0513C247.573 91.0135 247.651 90.9998 247.727 91.0123C247.803 91.0249 247.872 91.063 247.923 91.1203C247.974 91.1776 248.004 91.2507 248.008 91.3274C248.011 91.404 247.989 91.4797 247.943 91.5416L240.848 101.2C240.819 101.238 240.784 101.27 240.744 101.294L231.131 106.812C231.079 106.84 231.021 106.855 230.963 106.856ZM238.297 97.1166L232.179 105.452L240.34 100.75L246.458 92.4316L238.297 97.1166Z" fill="#111111"/>
<path d="M224.154 85.0938L217.049 94.7525L227.741 105.681L234.843 96.022L224.154 85.0938Z" fill="#D2B9EE"/>
<path d="M227.739 106.017C227.694 106.018 227.649 106.009 227.608 105.992C227.566 105.974 227.529 105.949 227.497 105.917L216.808 94.9884C216.753 94.9314 216.719 94.8567 216.714 94.7773C216.708 94.698 216.731 94.6193 216.778 94.5552L223.884 84.8964C223.912 84.8571 223.949 84.8244 223.991 84.8007C224.034 84.7769 224.081 84.7626 224.129 84.7587C224.178 84.7551 224.227 84.7623 224.273 84.7797C224.319 84.7971 224.36 84.8243 224.395 84.8595L235.083 95.7877C235.139 95.8446 235.172 95.9194 235.178 95.9988C235.183 96.0781 235.161 96.1568 235.114 96.2209L228.011 105.88C227.983 105.919 227.946 105.952 227.904 105.975C227.861 105.999 227.814 106.013 227.766 106.017L227.739 106.017ZM217.487 94.7231L227.705 105.164L234.408 96.0496L224.193 85.6117L217.487 94.7231Z" fill="#111111"/>
<path d="M234.844 96.0234L227.738 105.682C228.629 106.599 229.95 106.921 230.958 106.522L238.064 96.863C237.056 97.2627 235.731 96.9403 234.841 96.0234" fill="#D2B9EE"/>
<path d="M230.051 107.025C229.574 107.017 229.103 106.915 228.665 106.725C228.227 106.535 227.831 106.26 227.5 105.917C227.444 105.86 227.411 105.785 227.405 105.706C227.4 105.626 227.422 105.548 227.47 105.484L234.575 95.8249C234.604 95.7856 234.641 95.7531 234.684 95.7295C234.726 95.7059 234.773 95.6919 234.822 95.6884C234.871 95.6849 234.919 95.6919 234.965 95.7091C235.011 95.7263 235.052 95.7532 235.086 95.7879C235.869 96.594 237.042 96.9063 237.943 96.5503C238.011 96.5235 238.086 96.5195 238.156 96.5389C238.226 96.5583 238.288 96.6 238.333 96.6578C238.377 96.7159 238.4 96.7866 238.4 96.8593C238.4 96.9319 238.377 97.0026 238.333 97.0608L231.234 106.72C231.197 106.771 231.145 106.81 231.086 106.834C230.756 106.962 230.405 107.027 230.051 107.025ZM228.189 105.641C228.53 105.954 228.946 106.174 229.398 106.278C229.849 106.383 230.319 106.37 230.763 106.239L237.294 97.363C236.423 97.3843 235.574 97.0856 234.908 96.5234L228.189 105.641Z" fill="#111111"/>
<path d="M230.427 73.7334C228.156 70.1262 226.343 66.2512 225.029 62.1973C223.767 58.3399 223.045 54.3267 222.884 50.2717L211.691 44.334C210.451 43.6825 209.749 42.319 210.031 41.1805L213.164 28.5999C213.242 28.2895 213.394 28.0025 213.607 27.7633C213.82 27.5242 214.087 27.34 214.387 27.2263C214.895 27.0379 215.448 27.0086 215.973 27.1424L227.929 29.9802C231.731 23.7068 237.505 18.7296 244.836 15.7541L242.967 4.45977C242.873 3.99285 242.945 3.50754 243.172 3.08839C243.398 2.66925 243.765 2.34282 244.208 2.16599C244.409 2.09004 244.619 2.04037 244.833 2.01822L258.637 0.362527C259.299 0.308518 259.961 0.454913 260.538 0.782614C261.115 1.11032 261.579 1.60411 261.871 2.19957L267.135 13.0841C275.753 14.1353 284.206 17.4198 291.601 22.3432L301.204 16.8254C302.212 16.4224 303.537 16.7448 304.427 17.6616L315.116 28.5899C316.101 29.5974 316.279 30.9911 315.536 31.8979L308.854 39.958C311.117 43.5617 312.924 47.4322 314.232 51.4807C315.493 55.3396 316.216 59.3537 316.38 63.4097L327.566 69.344C328.8 69.9989 329.509 71.3591 329.226 72.4976L326.094 85.0781C326.016 85.3893 325.865 85.6771 325.652 85.9169C325.438 86.1567 325.17 86.3414 324.87 86.4551C324.362 86.6471 323.807 86.6787 323.28 86.5457L311.311 83.7146C307.379 90.1665 301.446 95.1593 294.414 97.9341L296.283 109.232C296.381 109.698 296.31 110.185 296.083 110.604C295.856 111.023 295.487 111.349 295.043 111.522C294.844 111.6 294.636 111.651 294.424 111.673L280.61 113.336C279.949 113.387 279.289 113.238 278.714 112.909C278.139 112.58 277.677 112.087 277.386 111.492L272.123 100.607C263.505 99.5562 255.068 96.2683 247.673 91.3482L238.067 96.8661C237.058 97.2657 235.734 96.9433 234.843 96.0265L224.155 85.0983C223.17 84.0907 222.992 82.697 223.738 81.7902L230.427 73.7334ZM273.941 76.9676C276.297 76.9359 278.627 76.4809 280.822 75.6242C289.561 72.1617 293.537 62.4895 289.208 52.3808C285.258 43.1351 275.134 36.5022 265.316 36.7172C262.965 36.7524 260.64 37.2073 258.449 38.0605C249.71 41.5264 245.727 51.202 250.046 61.304C253.996 70.5497 264.123 77.1859 273.938 76.9676" fill="white"/>
<path d="M280.288 113.687C279.617 113.671 278.963 113.47 278.398 113.108C277.833 112.745 277.379 112.235 277.085 111.631L271.902 100.915C263.533 99.8602 255.16 96.6899 247.661 91.7362L238.249 97.15L238.206 97.1735C237.06 97.6269 235.584 97.2507 234.619 96.2533L223.931 85.3284C222.818 84.1966 222.633 82.6182 223.49 81.5704L230.028 73.6983C227.801 70.1269 226.016 66.2983 224.714 62.2965C223.465 58.47 222.74 54.4923 222.559 50.4716L211.538 44.6347C210.153 43.9093 209.383 42.4249 209.706 41.105L212.839 28.5245C212.932 28.1631 213.109 27.829 213.357 27.5499C213.605 27.2707 213.916 27.0545 214.264 26.9192C214.835 26.6996 215.461 26.661 216.055 26.8083L227.779 29.5924C231.71 23.2579 237.556 18.3368 244.471 15.5409L242.646 4.50857C242.539 3.96645 242.626 3.40414 242.89 2.91899C243.155 2.43385 243.581 2.05642 244.095 1.85207C244.32 1.76213 244.556 1.70338 244.797 1.67744L258.598 0.0183895C259.328 -0.0470922 260.061 0.110503 260.7 0.47032C261.339 0.830137 261.853 1.37522 262.175 2.03343L267.358 12.7602C275.727 13.8113 284.103 16.9817 291.599 21.9353L301.01 16.5216L301.054 16.5014C302.203 16.0447 303.676 16.4242 304.644 17.4182L315.332 28.3431C316.445 29.4749 316.626 31.0533 315.769 32.1012L309.238 39.9833C311.465 43.554 313.249 47.3814 314.552 51.3817C315.8 55.2084 316.524 59.1861 316.704 63.2066L327.725 69.0435C329.107 69.779 329.876 71.2634 329.554 72.5732L326.421 85.1538C326.328 85.5158 326.151 85.8505 325.903 86.1303C325.655 86.4101 325.344 86.6268 324.996 86.7624C324.423 86.9785 323.799 87.016 323.204 86.8699L311.474 84.0925C307.55 90.4287 301.706 95.3497 294.792 98.1407L296.617 109.17C296.724 109.712 296.638 110.275 296.373 110.761C296.108 111.246 295.682 111.625 295.168 111.83C294.942 111.918 294.704 111.976 294.462 112.001L280.651 113.663C280.531 113.678 280.41 113.686 280.288 113.687ZM247.684 91.0075C247.75 91.007 247.814 91.0257 247.869 91.0612C255.378 96.0618 263.785 99.2456 272.174 100.27C272.23 100.277 272.284 100.298 272.329 100.33C272.375 100.363 272.412 100.407 272.436 100.458L277.7 111.343C277.962 111.873 278.375 112.314 278.888 112.609C279.401 112.903 279.99 113.039 280.581 112.998L294.395 111.319C294.578 111.298 294.758 111.254 294.93 111.188C295.301 111.045 295.61 110.775 295.801 110.425C295.992 110.076 296.052 109.67 295.972 109.281L294.099 97.9862C294.087 97.911 294.1 97.8338 294.138 97.7673C294.175 97.7007 294.234 97.6489 294.304 97.6201C301.269 94.8712 307.145 89.9256 311.04 83.535C311.077 83.4743 311.133 83.4269 311.199 83.3998C311.264 83.3726 311.337 83.367 311.406 83.3839L323.376 86.215C323.835 86.3313 324.32 86.3043 324.764 86.1378C325.012 86.0416 325.233 85.8869 325.409 85.6869C325.584 85.487 325.709 85.2476 325.772 84.9892L328.912 72.412C329.157 71.4045 328.515 70.219 327.419 69.638L316.23 63.7104C316.178 63.6827 316.134 63.6417 316.102 63.5916C316.071 63.5414 316.054 63.484 316.052 63.4249C315.887 59.4011 315.17 55.4189 313.921 51.5899C312.616 47.5674 310.817 43.7218 308.566 40.1412C308.528 40.0815 308.51 40.0114 308.514 39.9409C308.518 39.8703 308.545 39.8029 308.59 39.7482L315.275 31.6881C315.91 30.9123 315.742 29.71 314.875 28.8267L304.173 17.8918C303.397 17.0925 302.237 16.7902 301.35 17.1261L291.753 22.6271C291.7 22.6598 291.639 22.6771 291.577 22.6771C291.515 22.6771 291.453 22.6598 291.4 22.6271C283.891 17.6198 275.485 14.4393 267.095 13.4083C267.04 13.4018 266.987 13.3815 266.941 13.3492C266.895 13.317 266.858 13.2738 266.833 13.2236L261.57 2.34912C261.308 1.81701 260.892 1.37534 260.377 1.08089C259.862 0.786444 259.271 0.652675 258.679 0.696786L244.881 2.34912C244.699 2.36815 244.521 2.41106 244.35 2.47674C243.978 2.62536 243.671 2.9 243.482 3.25249C243.292 3.60498 243.233 4.01282 243.315 4.40446L245.184 15.6987C245.196 15.774 245.183 15.8512 245.145 15.9177C245.108 15.9842 245.049 16.0361 244.979 16.0648C237.846 18.953 232.055 23.8429 228.226 30.1466C228.19 30.2079 228.134 30.256 228.068 30.2838C228.002 30.3115 227.929 30.3176 227.86 30.3011L215.901 27.4632C215.441 27.3505 214.957 27.3774 214.512 27.5405C214.264 27.6367 214.043 27.7913 213.867 27.9913C213.692 28.1913 213.567 28.4306 213.504 28.689L210.371 41.2662C210.126 42.2738 210.765 43.466 211.864 44.0403L223.033 49.9678C223.085 49.9956 223.129 50.0366 223.161 50.0867C223.192 50.1368 223.209 50.1943 223.211 50.2533C223.374 54.2783 224.09 58.2618 225.339 62.0917C226.652 66.1182 228.458 69.9671 230.717 73.5505C230.754 73.6098 230.772 73.6792 230.768 73.7491C230.763 73.8189 230.737 73.8857 230.693 73.9401L224.005 82.0002C223.369 82.7727 223.534 83.975 224.405 84.8582L235.093 95.7865C235.87 96.5858 237.033 96.9015 237.93 96.5555L247.513 91.0511C247.562 91.0244 247.618 91.0105 247.674 91.0108L247.684 91.0075ZM273.478 77.3052C263.63 77.3052 253.708 70.6959 249.752 61.4301C247.567 56.3219 247.399 51.0392 249.257 46.5523C250.099 44.5497 251.337 42.7373 252.897 41.2237C254.456 39.7101 256.305 38.5263 258.333 37.7433C260.561 36.8767 262.926 36.4149 265.317 36.3798C275.317 36.1514 285.505 42.8346 289.518 52.2482C291.71 57.3597 291.871 62.6592 290.019 67.1326C289.177 69.1344 287.939 70.9458 286.38 72.4583C284.82 73.9708 282.971 75.1533 280.944 75.935C278.712 76.805 276.341 77.2669 273.946 77.2985L273.478 77.3052ZM265.795 37.0447L265.327 37.0447C263.016 37.0779 260.729 37.5237 258.575 38.3612C256.63 39.1112 254.856 40.2454 253.359 41.6961C251.863 43.1468 250.675 44.8842 249.866 46.8042C248.071 51.1198 248.246 56.2077 250.36 61.1614C254.279 70.3332 264.205 76.8384 273.935 76.61C276.25 76.5802 278.541 76.1355 280.698 75.2969C282.642 74.5475 284.414 73.4142 285.908 71.9646C287.403 70.515 288.59 68.7791 289.397 66.8606C291.195 62.5417 291.017 57.4571 288.9 52.4967C285.044 43.4861 275.384 37.0447 265.795 37.0447Z" fill="#111111"/>
</g>
</g>
<defs>
<linearGradient id="paint0_linear_9838_113355" x1="108.123" y1="180.901" x2="146.728" y2="406.77" gradientUnits="userSpaceOnUse">
<stop offset="0.576" stop-color="#6817C5"/>
<stop offset="1" stop-color="#111111"/>
</linearGradient>
<clipPath id="clip0_9838_113355">
<rect width="452" height="400" fill="white"/>
</clipPath>
<clipPath id="clip1_9838_113355">
<rect width="303.957" height="326.845" fill="white" transform="translate(42.1367 20.6055) rotate(11.1186)"/>
</clipPath>
<clipPath id="clip2_9838_113355">
<rect width="151.444" height="149.733" fill="white" transform="matrix(0.834583 -0.550882 -0.550882 -0.834583 325.068 365.16)"/>
</clipPath>
<clipPath id="clip3_9838_113355">
<rect width="127.094" height="123.347" fill="white" transform="translate(202.529)"/>
</clipPath>
</defs>
</svg>
