<svg xmlns="http://www.w3.org/2000/svg" width="200px" viewBox="0 0 102.43 113.98"><defs><style>.cls-1{fill:#0083e3;}</style></defs><g id="Layer_2" data-name="Layer 2"><g id="Layer_1-2" data-name="Layer 1"><path class="cls-1" d="M102.41,40.58V8a1.74,1.74,0,0,0-1.71-1.74S63.49.22,51.08,0,1.78,6,1.78,6A1.74,1.74,0,0,0,0,7.74V40.58s-1.16,27.36,17.44,48.9c16.52,19.13,30.32,23.66,33.2,24.44a2.6,2.6,0,0,0,1.11,0c2.92-.79,16.7-5.35,33.18-24.44C103.53,67.94,102.41,40.58,102.41,40.58Zm-25,43c-11.21,13-20.79,18.57-25.67,20.8a1.6,1.6,0,0,1-1.14,0C45.76,102.09,36.17,96.5,25,83.53,8.49,64.45,9.15,39.45,9.16,39.19v-25a.86.86,0,0,1,.6-.78A170.63,170.63,0,0,1,50.93,8.21h.71a164.87,164.87,0,0,1,41,5.18.86.86,0,0,1,.6.78V39.23C93.27,39.45,93.92,64.45,77.46,83.53Z"/><path class="cls-1" d="M51.1,31.87a8.86,8.86,0,1,0,8.83,8.88A8.87,8.87,0,0,0,51.1,31.87Z"/><path class="cls-1" d="M84.1,39.41v-18a.78.78,0,0,0-.59-.73,156.44,156.44,0,0,0-31.86-3.28H51a162.74,162.74,0,0,0-32,3.34.78.78,0,0,0-.59.73V39.54c0,1.33,0,22.31,13.59,38C39.53,86.36,46.14,91.3,50.7,94a1.12,1.12,0,0,0,1,0c4.53-2.69,11.14-7.63,18.77-16.46C84.41,61.43,84.1,39.66,84.1,39.41ZM63.51,71.6c-1.09,1.28-2.16,2.45-3.2,3.54-.24.25-.43.17-.43-.18V67.4c0-5.72,5.55-8.63,7.38-9.43a1,1,0,0,0,.58-.86V51.37a.38.38,0,0,0-.58-.38A44.13,44.13,0,0,1,34.9,51a.39.39,0,0,0-.58.38v5.74a1,1,0,0,0,.59.84c6.08,2.33,7.32,6.29,7.32,9.52V74.9c0,.35-.19.43-.43.18q-1.53-1.6-3.16-3.48c-11.44-13.26-11.37-31.84-11.37-32V29a.76.76,0,0,1,.62-.72,152.22,152.22,0,0,1,23-1.83h.69a147.44,147.44,0,0,1,22.69,1.76.75.75,0,0,1,.62.72v10.3C74.89,39.58,75,58.31,63.51,71.6Z"/></g></g></svg>
