<svg viewBox="0 0 570.16 390.92" xmlns="http://www.w3.org/2000/svg"><path fill="#DCEBF3" d="M228.16 71.16c-69.77 31.91-136-40.64-181.26.92 -63.42 58.29 56.15 157.6-11.65 217.8 -73.67 65.41-26.7 132.69 92.89 84.9 30.11-12 164.72-90.63 205.62-64.73 17.79 11.27 119 63.24 171.27 15.17 73.8-67.83 71-191-6.23-275s-109.8-52.61-270.64 20.94Z"/><g fill="#FFF"><path d="M183.66 115.46h209v130h-209Z"/><path d="M64.66 161.46h62v100h-62Z"/><path d="M53.66 261.46h85v13h-85Z"/></g><g fill="#0083E3"><path d="M393.63 258.09H181.4h-.001c-3.51 0-6.35-2.84-6.35-6.34V114.89v-.001c.01-4.93 4-8.91 8.92-8.9 0 0 .01 0 .02 0h207.07v0c4.91 0 8.89 3.98 8.91 8.9v136.85 0c-.01 3.5-2.85 6.34-6.35 6.34ZM184 108.47v0c-3.55-.01-6.43 2.87-6.44 6.42v136.86 -.001c0 2.13 1.74 3.87 3.88 3.87h212.19v0c2.13-.01 3.86-1.74 3.87-3.87V114.88h-.001c-.01-3.55-2.89-6.43-6.43-6.42Z"/><path d="M393.12 245.45H183.73V115.59h209.39ZM186.21 243h204.44V118.07H186.21Z"/></g><path fill="none" d="M162.42 263.1c-3.4 0-7.66-2-9.48-2.9l-.58-.28v-3.83h270.3v3.83l-.58.28c-1.8.87-6 2.9-9.4 2.9Z"/><path fill="#017DE7" d="M413 265.93H162.74c-3.76 0-8.25-2.14-10.17-3.05l-.56-.26h-1v-7.11h273.65v6l-.17 1.05h-.83l-.53.25c-1.92.96-6.39 3.12-10.13 3.12Zm-259.52-5.37l.18.09c1.77.83 5.91 2.8 9.11 2.8H413c3.2 0 7.32-2 9.08-2.83l.14-.07V258H153.45Zm270 2v0Z"/><g fill="#0083E3"><path d="M301.68 260.49h-30.85v0c-1.66 0-3-1.35-3-3v0h36.87v0 0c0 1.65-1.35 3-3 3"/><path d="M287 112.05v0c-.01 1.18-.96 2.13-2.15 2.13 -1.19-.01-2.14-.96-2.14-2.15s.95-2.14 2.14-2.14c0 0 0 0 0 0h-.001c1.17 0 2.13.96 2.13 2.14"/><path d="M274.77 221.35v0c-2.96-.05-5.88-.69-8.58-1.9 -9.39-4-16.95-13.38-16.95-18.45 0-8.83 16.17-15.74 36.8-15.74 20.63 0 36.8 6.91 36.8 15.74v0c.12.97-.19 1.94-.85 2.67 -.85.67-2 .39-3.66 0 -4.73-1.14-14.59-3.51-31.77 12.87v0c-3.15 3.09-7.38 4.82-11.79 4.81ZM286 186.74c-19.14 0-35.31 6.53-35.31 14.26 0 4.6 7.4 13.39 16 17.09 5 2.16 12.37 3.45 18.75-2.63 17.77-16.94 28.16-14.44 33.15-13.24 1 .25 2.11.5 2.39.28 .08-.06.29-.35.29-1.5 .09-7.73-16.08-14.26-35.27-14.26Z"/><path d="M249.99 200.25h72.11v1.49h-72.11Z"/><path d="M258.93 190.77h1.49v23.95h-1.49Z"/><path d="M272.1 186.89h1.49v33.63h-1.49Z"/><path d="M285.29 186h1.49v29.99h-1.49Z"/><path d="M298.49 186.89h1.49v19.04h-1.49Z"/><path d="M311.68 190.77h1.49v11.33h-1.49Z"/><path d="M272 148.32c-3.41-.53-6.86-.95-10.24-1.63h0c-1.49-.25-2.92-.74-4.24-1.45v0c-1.21-.76-2.36-1.6-3.45-2.5v0c-2.41-1.9-5.22-3.2-8.21-3.8v0c-3.09-.53-6.22-.75-9.35-.68 -2.66 0-2.66 4.11 0 4.13l0 0c2.87-.1 5.76.1 8.6.6v0c2.75.66 5.32 1.96 7.49 3.8v-.001c2.38 1.95 5.21 3.3 8.24 3.92 3.33.65 6.71 1.07 10.06 1.59v0c1.09.26 2.2-.37 2.54-1.44v0c.29-1.1-.35-2.23-1.44-2.54Z"/><path d="M322.9 137v0c-6.26-.68-12.56.57-18.08 3.58 -5.23 2.71-10.41 6.54-16.58 6.31 -2.66-.1-2.65 4 0 4.13 6.41.23 11.93-3.22 17.35-6.17v0c2.55-1.47 5.29-2.59 8.15-3.31v0c3-.68 6.1-.82 9.16-.41h-.001c1.13-.01 2.05-.93 2.06-2.06v0c-.03-1.13-.94-2.04-2.06-2.07Z"/><path d="M256.06 153.63c-4.78 0-4.79 7.43 0 7.43s4.78-7.43 0-7.43Z"/><path d="M299 153.63c-4.78 0-4.79 7.43 0 7.43s4.77-7.43 0-7.43Z"/></g><path fill="#FFF" d="M126.66 168.46h301v22h-301Z"/><g fill="#0083E3"><path d="M127.8 261.75h-63V161.46h63Zm-62-1h61v-98.29h-61Z"/><path d="M139.3 275.75h-87v-15h87Zm-86-1h85v-13h-85Z"/><path d="M427.66 169.25v0 -.5H126.8v22h300.86v-.5 0Zm-224.29.5h21.78l14.19 20h-21.78Zm-9.88 20h-18.33l-14.2-20h18.34Zm55.73-20h19.48l14.19 20h-19.48Zm43.55 0h21.78l14.19 20H307Zm45.85 0h19.48l14.19 20h-19.48Zm43.55 0H404l14.19 20h-21.83Zm-254.22 0h9l14.19 20H128Z"/><path d="M113.42 104.75H95.3v21l4.55 2.87 -11 5.43v0c-.38-.08-.76-.12-1.14-.12v-.001c-3.04-.13-5.6 2.24-5.72 5.27 -.11 2.54 1.55 4.82 4 5.51l6.61 10.74h-2.89v0c-1.69 0-3.06 1.37-3.06 3.06v2.94h20v-2.94 0c-.01-1.69-1.38-3.06-3.06-3.06h-2.89l-8.88-12.46v0c.86-1 1.33-2.27 1.33-3.58v0c-.01-.41-.05-.81-.13-1.2l12.63-5.89 17.25 10.84 20.64-4v-14.58l8.89-.59Zm-12 51.71h2.18v0c1.13 0 2.06.92 2.06 2.06v1.94h-18v-1.94 0c0-1.14.92-2.06 2.06-2.06h11.7Zm-1.94-1h-5.65L87.36 145h.3v0c1.25 0 2.47-.43 3.45-1.21ZM87.66 144v0c-.34 0-.68-.04-1-.11l-.22-.07 -.001-.001c-2.36-.7-3.71-3.17-3.02-5.53 .69-2.36 3.16-3.71 5.52-3.02 2.35.69 3.7 3.16 3.01 5.52 -.57 1.91-2.33 3.21-4.33 3.19Zm5.13-6.47h0c-.57-1.47-1.73-2.62-3.2-3.17L100.4 129l4.29 2.71ZM122.16 125v16.6l-20.7-13.08 -.13-.08 -5-3.17v-19.15L128.8 125Zm20.39 13.47l-18.64 3.95v-5.92l14.75-2.1v-8.8l3.89-.31Zm-12.27-14l-32.6-18.7h15.5l35.47 17.5Z"/><path d="M139.75 266.25h289.32v0c4.97 0 9 4.02 9 9v0 0H139.75v0 -9 0Z"/><path d="M438.66 275.75h-299.5v-10h288.3c6.18 0 11.2 4.26 11.2 9.5Zm-298.32-1h297.13c-.31-4.45-4.68-8-10-8H140.34Z"/><path d="M562.27 275.35l7.88-.1h-7.87v0c-.01.03-.02.06-.01.1Z"/><path d="M561.6 275.85l.08-.57 .59.07 -.59-.09v-.47h.56 7.87v1l-7.88.1Z"/><path d="M558.77 275.25h-30.11c10.37.16 20.11.2 30.12.13h0c0-.05-.01-.09-.01-.13Z"/><path d="M549.37 275.91c-6.81 0-13.66-.05-20.72-.16v-1h30.65l.17 1.09h-.69Z"/><path d="M45.7 275.25v0Z"/><path d="M46.2 275.76l-4.54-.01 0-1 4.43 0 .11.51 0 .5Z"/><path d="M48.77 275.25v0c158.35.2 315.6.2 474.07 0Z"/><path d="M282.14 275.91c-77.41 0-154.84-.05-233.37-.15h-.7l.2-1h474.57v1c-80.97.1-160.84.15-240.7.15Z"/></g><path fill="none" d="M512.66 275.46l5 0"/><g fill="#0083E3"><path d="M115.66 202.5v-15.21 0c-.01-.14-.09-.25-.21-.29v0c-2.83-.86-5.75-1.37-8.7-1.51v0c-.12-.01-.22.08-.22.19 -.01 0-.01 0-.01.01v2.69 0c0 .1-.09.19-.19.19 -.02 0-.03-.01-.04-.01 -1.51-.24-3.18-.43-5-.57v-.001c-.13-.02-.22-.11-.22-.23v-2.62 0c0-.13-.1-.23-.22-.24h0c-1.5-.19-3-.3-4.5-.31l-.001 0c-1.42.02-2.83.14-4.23.35v0c-.13.02-.22.12-.22.25v2.58 -.001c0 .12-.1.22-.22.24 -1.79.13-3.45.33-5 .56v0c-.1.02-.2-.04-.22-.14 -.01-.02-.01-.03-.01-.05v-2.71 0c0-.12-.1-.22-.21-.22 -.01-.01-.01 0-.02 0v0c-2.94.14-5.84.65-8.65 1.51v0c-.13.04-.21.15-.21.29v15.21s-.43 10.22 6.52 18.27c6.15 7.12 11.29 8.83 12.39 9.12v0c.14.03.28.03.43 0 1.09-.29 6.24-2 12.39-9.12 6.95-8.05 6.53-18.27 6.53-18.27Zm-9.33 16c-4.18 4.85-7.76 6.94-9.59 7.77v0c-.14.06-.29.06-.42-.001 -1.83-.83-5.41-2.92-9.59-7.77 -6.16-7.12-5.92-16.47-5.91-16.56v-9.34 0c0-.14.09-.26.23-.29v0c5.02-1.27 10.18-1.93 15.37-1.95h.27v0c5.16.01 10.31.67 15.31 1.98v0c.13.03.22.15.23.29v9.37c.01.07.26 9.42-5.9 16.54Z"/><path d="M96.49 199.24v0c-1.83-.01-3.32 1.47-3.32 3.3 -.01 1.82 1.47 3.31 3.3 3.31 1.82 0 3.31-1.48 3.31-3.3v0c0-1.83-1.48-3.32-3.3-3.32 -.01-.01-.01-.01-.01-.01Z"/><path d="M108.82 202.06v-6.73 -.001c-.01-.14-.1-.25-.22-.28v-.001c-3.92-.81-7.91-1.22-11.9-1.22h-.25v0c-4.04.01-8.06.43-12 1.25v-.001c-.13.02-.22.13-.22.27v6.76c0 .49 0 8.33 5.08 14.19H89.3c1.98 2.41 4.34 4.49 7 6.15h0c.12.06.26.06.39 0h0c2.64-1.67 5.01-3.74 7-6.15 5.23-6.01 5.12-14.15 5.12-14.24Zm-7.7 12c-.41.47-.8.91-1.19 1.32 -.09.09-.16.06-.16-.07v-2.82c0-2.14 2.07-3.23 2.75-3.53v0c.12-.06.21-.19.22-.32v-2.14 0c0-.09-.05-.16-.14-.17 -.04-.01-.07 0-.09.01h-.001c-3.89 1.52-8.21 1.52-12.09 0v0c-.07-.04-.16-.02-.2.04 -.02.02-.03.05-.02.09v2.14 0c0 .13.09.26.22.32 2.27.86 2.73 2.35 2.73 3.55v2.78c0 .13-.07.16-.16.06 -.38-.4-.77-.83-1.18-1.29 -4.27-5-4.25-11.9-4.24-12v-4 0c0-.14.1-.25.23-.27v-.001c2.84-.45 5.71-.67 8.59-.68h.26v-.001c2.83-.01 5.66.22 8.47.66h-.001c.13.02.22.13.23.27v3.97c.01.12.05 7.12-4.25 12.09Z"/><path d="M489.37 267.65l-8.52-47.71h-4.12v-1.8l-.001 0c3.26-1.89 4.38-6.06 2.5-9.32 -1.89-3.27-6.06-4.39-9.32-2.51 -3.27 1.88-4.39 6.05-2.51 9.31 .59 1.04 1.46 1.9 2.5 2.5v1.8h-4.13l-8.51 47.71h-3.55v6.81h39.19v-6.81Zm-21.16-55.37v0c0-2.83 2.28-5.11 5.11-5.11 2.82 0 5.11 2.28 5.11 5.11 0 2.82-2.29 5.11-5.11 5.11v0c-2.83 0-5.11-2.29-5.11-5.11Zm11.21 9.37l2 11.25 -15.14-6.06 .93-5.19Zm-15 17l19.54 8.14 1.17 6.57 -22-8.7Zm-3.42 18l26.57 10.34 .11.6H459Zm30.25 16.05h-35.82v-3.41h35.78Z"/><path d="M539.37 267.65l-8.52-47.71h-4.12v-1.8 0c3.26-1.89 4.38-6.06 2.5-9.32 -1.89-3.27-6.06-4.39-9.32-2.51 -3.27 1.88-4.39 6.05-2.51 9.31 .59 1.04 1.46 1.9 2.5 2.5v1.8h-4.13l-8.51 47.71h-3.55v6.81h39.19v-6.81Zm-21.16-55.37v0c0-2.83 2.28-5.11 5.11-5.11 2.82 0 5.11 2.28 5.11 5.11 0 2.82-2.29 5.11-5.11 5.11v0c-2.83 0-5.11-2.29-5.11-5.11Zm11.21 9.37l2 11.25 -15.14-6.06 .93-5.19Zm-15 17l19.54 8.14 1.17 6.57 -22-8.7Zm-3.42 18l26.57 10.34 .11.6H509Zm30.25 16.05h-35.82v-3.41h35.78Z"/></g></svg>
