<svg width="967" height="160" viewBox="0 0 967 160" fill="none" xmlns="http://www.w3.org/2000/svg">
<circle cx="80" cy="80" r="80" fill="#6817C5"/>
<path d="M79.4069 32.3594C79.7736 32.1471 80.2253 32.1471 80.5919 32.3594L121.007 55.7651C121.374 55.9774 121.599 56.3698 121.599 56.7945V103.606C121.599 104.031 121.374 104.423 121.007 104.635L80.5919 128.041C80.2253 128.253 79.7736 128.253 79.4069 128.041L38.9919 104.635C38.6253 104.423 38.3994 104.031 38.3994 103.606V56.7945C38.3994 56.3698 38.6253 55.9774 38.9919 55.7651L79.4069 32.3594Z" fill="white"/>
<path fill-rule="evenodd" clip-rule="evenodd" d="M80 32.2C80.2045 32.2 80.4089 32.2531 80.5921 32.3592L121.007 55.7649C121.374 55.9772 121.6 56.3696 121.6 56.7943V103.606C121.6 104.03 121.374 104.423 121.007 104.635L80.5921 128.041C80.4089 128.147 80.2045 128.2 80 128.2V32.2Z" fill="#D9D9D9"/>
<g clip-path="url(#clip0_689_2843)">
<mask id="mask0_689_2843" style="mask-type:alpha" maskUnits="userSpaceOnUse" x="56" y="56" width="48" height="49">
<path d="M80 104.2C93.2548 104.2 104 93.4548 104 80.2C104 66.9451 93.2548 56.2 80 56.2C66.7452 56.2 56 66.9451 56 80.2C56 93.4548 66.7452 104.2 80 104.2Z" fill="white"/>
</mask>
<g mask="url(#mask0_689_2843)">
<path fill-rule="evenodd" clip-rule="evenodd" d="M108.055 97.91C117.806 97.91 125.711 90.0053 125.711 80.2547C125.711 70.504 117.806 62.5995 108.055 62.5995C98.305 62.5995 90.4004 70.504 90.4004 80.2547C90.4004 90.0053 98.305 97.91 108.055 97.91ZM108.055 90.1857C113.54 90.1857 117.987 85.7394 117.987 80.2547C117.987 74.7699 113.54 70.3236 108.055 70.3236C102.571 70.3236 98.1246 74.7699 98.1246 80.2547C98.1246 85.7394 102.571 90.1857 108.055 90.1857Z" fill="#6817C5"/>
<path fill-rule="evenodd" clip-rule="evenodd" d="M94.0556 73.9098C103.806 73.9098 111.711 66.0053 111.711 56.2547C111.711 46.504 103.806 38.5995 94.0556 38.5995C84.3049 38.5995 76.4004 46.504 76.4004 56.2547C76.4004 66.0053 84.3049 73.9098 94.0556 73.9098ZM94.0556 66.1857C99.5401 66.1857 103.987 61.7394 103.987 56.2547C103.987 50.7699 99.5401 46.3236 94.0556 46.3236C88.5708 46.3236 84.1245 50.7699 84.1245 56.2547C84.1245 61.7394 88.5708 66.1857 94.0556 66.1857Z" fill="#6817C5"/>
<path fill-rule="evenodd" clip-rule="evenodd" d="M66.2069 73.8552C75.9576 73.8552 83.8621 65.9506 83.8621 56.2C83.8621 46.4493 75.9576 38.5448 66.2069 38.5448C56.4562 38.5448 48.5518 46.4493 48.5518 56.2C48.5518 65.9506 56.4562 73.8552 66.2069 73.8552ZM66.2069 66.131C71.6917 66.131 76.138 61.6847 76.138 56.2C76.138 50.7152 71.6917 46.2689 66.2069 46.2689C60.7222 46.2689 56.2759 50.7152 56.2759 56.2C56.2759 61.6847 60.7222 66.131 66.2069 66.131Z" fill="#6817C5"/>
<path fill-rule="evenodd" clip-rule="evenodd" d="M52.455 97.91C62.2057 97.91 70.1102 90.0053 70.1102 80.2546C70.1102 70.504 62.2057 62.5995 52.455 62.5995C42.7043 62.5995 34.7998 70.504 34.7998 80.2546C34.7998 90.0053 42.7043 97.91 52.455 97.91ZM52.4549 90.1857C57.9397 90.1857 62.386 85.7394 62.386 80.2547C62.386 74.7699 57.9397 70.3236 52.4549 70.3236C46.9702 70.3236 42.5239 74.7699 42.5239 80.2547C42.5239 85.7394 46.9702 90.1857 52.4549 90.1857Z" fill="#6817C5"/>
<path fill-rule="evenodd" clip-rule="evenodd" d="M66.2069 121.855C75.9576 121.855 83.8621 113.951 83.8621 104.2C83.8621 94.4493 75.9576 86.5448 66.2069 86.5448C56.4562 86.5448 48.5518 94.4493 48.5518 104.2C48.5518 113.951 56.4562 121.855 66.2069 121.855ZM66.2069 114.131C71.6917 114.131 76.138 109.685 76.138 104.2C76.138 98.7152 71.6917 94.2689 66.2069 94.2689C60.7222 94.2689 56.2759 98.7152 56.2759 104.2C56.2759 109.685 60.7222 114.131 66.2069 114.131Z" fill="#6817C5"/>
<path fill-rule="evenodd" clip-rule="evenodd" d="M93.7938 121.855C103.544 121.855 111.449 113.951 111.449 104.2C111.449 94.4493 103.544 86.5448 93.7938 86.5448C84.0432 86.5448 76.1387 94.4493 76.1387 104.2C76.1387 113.951 84.0432 121.855 93.7938 121.855ZM93.7938 114.131C99.2784 114.131 103.725 109.685 103.725 104.2C103.725 98.7152 99.2784 94.2689 93.7938 94.2689C88.3091 94.2689 83.8628 98.7152 83.8628 104.2C83.8628 109.685 88.3091 114.131 93.7938 114.131Z" fill="#6817C5"/>
</g>
<circle cx="80" cy="80.2" r="4" fill="#6817C5"/>
</g>
<rect x="65.1406" y="84.5801" width="7.7302" height="37.2122" transform="rotate(60.9936 65.1406 84.5801)" fill="#6817C5"/>
<g clip-path="url(#clip1_689_2843)">
<path d="M579.375 124.75C602.5 124.75 617.625 113.125 620.125 96.625H610.125C607.25 109.75 595.125 116.375 580.375 116.375H578.375C555.75 116.375 542.5 100.25 542.5 79.75C542.5 59.25 555.75 43.125 578.375 43.125H580.375C595.125 43.125 607.375 50.125 610.125 62.875H620.125C617.875 47.75 603.625 34.75 579.375 34.75C551.125 34.75 533.25 54.125 533.25 79.75C533.25 105.875 550.5 124.75 579.375 124.75ZM693.833 89.875C693.833 71.875 681.833 59.75 663.583 59.75C646.583 59.75 630.833 70.625 630.833 91.75C630.833 113.625 645.333 124.75 664.083 124.75C679.333 124.75 690.708 117.25 693.083 105.625H684.333C681.958 112.75 673.833 117.625 664.833 117.625H663.083C651.583 117.625 640.083 109.875 639.333 93.25H693.833V89.875ZM639.708 86.125C641.583 74.625 649.708 66.875 662.708 66.875H664.458C674.958 66.875 684.208 73.5 684.708 86.125H639.708ZM717.377 123.5V92C717.377 76.875 728.752 66.875 740.877 66.875H742.627C755.252 66.875 760.877 75.625 760.877 88.5V123.5H769.377V85.5C769.377 70.625 759.752 59.75 743.127 59.75C730.252 59.75 721.252 65.875 717.377 72.5V61H708.877V123.5H717.377ZM824.5 123.5V116.375H811.324C805.199 116.375 802.949 114.125 802.949 107.625V68.125H823.699V61H802.949V40.75H794.449V61H777.699V68.125H794.449V109.375C794.449 118.125 798.949 123.5 807.324 123.5H824.5ZM845.922 123.5V90.875C845.922 77.375 853.422 69.625 867.172 69.625H876.047V61H866.922C855.422 61 848.797 65 845.297 73V61H837.422V123.5H845.922ZM904.953 124.75C918.453 124.75 927.828 119.25 931.453 113.375C931.453 115.25 931.703 120.375 932.328 123.5H940.203C939.703 119.125 939.328 113.5 939.328 109.75V83.5C939.328 69.5 929.328 59.75 910.578 59.75C895.078 59.75 884.078 67.75 882.828 78.5H891.578C892.703 71.375 899.953 66.875 909.578 66.875H911.578C923.578 66.875 930.828 72.625 930.828 83.25V85.75L904.578 87.25C891.453 88.125 881.078 93.375 881.078 106.125C881.078 116.875 889.203 124.75 904.953 124.75ZM905.828 117.625C894.328 117.625 889.703 112.75 889.703 105.625C889.703 98.875 894.578 94.75 908.578 93.875L930.828 92.75V98.25C930.828 110.625 918.453 117.625 907.578 117.625H905.828ZM966.41 123.5V36H957.91V123.5H966.41Z" fill="black"/>
</g>
<path fill-rule="evenodd" clip-rule="evenodd" d="M214.073 117.237L214.067 117.233C206.186 111.863 202.203 103.861 202.033 93.5328L202 91.5H223.337L223.431 93.4018C223.64 97.6551 225.43 100.722 228.847 102.84C232.423 105.057 237.374 106.26 243.873 106.26H245.793C252.515 106.26 256.915 105.332 259.377 103.801C261.938 102.209 262.873 100.493 262.873 98.66C262.873 96.6496 262.04 95.0381 260.126 93.6985L260.113 93.6893L260.1 93.6799C258.177 92.2875 254.649 91.0641 249.198 90.1951L249.187 90.1933L236.104 88.0328C226.36 86.4087 218.907 83.6474 214.027 79.5519L214.021 79.5462L214.014 79.5405C209.054 75.3018 206.713 69.1137 206.713 61.34C206.713 56.6112 208.078 52.1909 210.764 48.1188C213.506 43.9612 217.728 40.7054 223.257 38.274C228.88 35.7207 235.945 34.5 244.353 34.5C256.291 34.5 265.958 37.0321 273.135 42.3265C280.334 47.5573 284.373 54.8071 285.224 63.9139L285.429 66.1H264.084L263.851 64.3668C263.371 60.805 261.636 58.1266 258.536 56.1981C255.356 54.2189 251.001 53.14 245.313 53.14H243.393C237.71 53.14 233.633 54.004 230.945 55.5165C228.272 57.067 227.393 58.6712 227.393 60.26C227.393 62.6608 228.224 64.1837 229.742 65.1959C231.555 66.4042 234.585 67.4641 239.045 68.2477L252.474 70.4059C262.504 72.0368 270.283 75.0922 275.559 79.7625C280.894 84.4854 283.553 90.6434 283.553 98.06C283.553 106.685 280.096 113.479 273.202 118.191L273.197 118.194C266.486 122.754 256.983 124.9 244.953 124.9C232.161 124.9 221.803 122.418 214.079 117.241L214.073 117.237Z" fill="black"/>
<path fill-rule="evenodd" clip-rule="evenodd" d="M295.671 109.339L295.661 109.322C292.475 104.243 290.915 98.3441 290.915 91.7C290.915 85.0568 292.475 79.1912 295.669 74.1844L295.674 74.177C298.922 69.1342 303.368 65.2529 308.963 62.5404C314.561 59.8262 320.989 58.5 328.195 58.5C335.402 58.5 341.83 59.8262 347.428 62.5404C353.02 65.2519 357.43 69.1335 360.599 74.1805C363.874 79.1863 365.475 85.0537 365.475 91.7C365.475 98.3523 363.871 104.257 360.6 109.338C357.427 114.31 353.017 118.15 347.428 120.859C341.83 123.574 335.402 124.9 328.195 124.9C320.989 124.9 314.561 123.574 308.963 120.859C303.377 118.151 298.932 114.316 295.682 109.356L295.671 109.339ZM337.45 77.3828L337.42 77.3659C335.035 76.0332 332.259 75.34 329.035 75.34H327.355C324.133 75.34 321.307 76.0329 318.829 77.3777L318.82 77.3827L318.811 77.3876C316.427 78.6497 314.536 80.4648 313.119 82.874C311.735 85.2264 310.995 88.1394 310.995 91.7C310.995 95.1652 311.729 98.0883 313.126 100.537C314.541 102.94 316.433 104.796 318.821 106.137C321.298 107.405 324.129 108.06 327.355 108.06H329.035C332.272 108.06 335.06 107.401 337.45 106.137C339.926 104.791 341.853 102.932 343.265 100.537C344.661 98.0881 345.395 95.165 345.395 91.7C345.395 88.1394 344.655 85.2264 343.271 82.874C341.863 80.4795 339.943 78.665 337.481 77.3986L337.45 77.3828Z" fill="black"/>
<path fill-rule="evenodd" clip-rule="evenodd" d="M374.592 123.7V35.7H394.551V123.7H374.592Z" fill="black"/>
<path fill-rule="evenodd" clip-rule="evenodd" d="M406.438 61.7H426.398V123.7H406.438V61.7Z" fill="black"/>
<path fill-rule="evenodd" clip-rule="evenodd" d="M451.247 120.957L451.235 120.95C446.186 118.298 442.158 114.48 439.173 109.533L439.169 109.527L439.165 109.52C436.151 104.44 434.685 98.4736 434.685 91.7C434.685 84.558 436.138 78.4525 439.176 73.5008C442.167 68.548 446.207 64.8014 451.277 62.308C456.369 59.7632 461.916 58.5 467.885 58.5C473.75 58.5 478.748 59.4054 482.78 61.3318C484.918 62.3331 486.813 63.475 488.445 64.7668V35.7H508.405V123.7H488.445V118.943C486.652 120.335 484.563 121.507 482.201 122.471L482.185 122.478L482.168 122.485C477.98 124.108 473.289 124.9 468.125 124.9C461.992 124.9 456.354 123.595 451.247 120.957ZM486.206 100.758L486.21 100.751C487.669 98.319 488.445 95.3305 488.445 91.7C488.445 87.9786 487.665 85.0046 486.224 82.671L486.212 82.6526L486.201 82.634C484.798 80.2488 482.892 78.4843 480.451 77.299L480.42 77.2838L480.389 77.2676C477.997 76.0009 475.206 75.34 471.965 75.34H470.285C465.62 75.34 461.943 76.7801 459.082 79.5716L459.073 79.5804L459.064 79.5891C456.293 82.225 454.765 86.151 454.765 91.7C454.765 97.2399 456.288 101.218 459.073 103.939C461.93 106.653 465.611 108.06 470.285 108.06H471.965C475.219 108.06 478.021 107.434 480.421 106.236C482.878 104.97 484.795 103.157 486.201 100.766L486.206 100.758Z" fill="black"/>
<path fill-rule="evenodd" clip-rule="evenodd" d="M416.07 55.4766C409.36 55.4766 404.73 50.8472 404.73 45.1366C404.73 39.4259 409.36 34.7966 416.07 34.7966H416.55C423.261 34.7966 427.89 39.4259 427.89 45.1366C427.89 50.8472 423.261 55.4766 416.55 55.4766H416.07Z" fill="black"/>
<defs>
<clipPath id="clip0_689_2843">
<rect width="48" height="48" fill="white" transform="translate(56 56.2)"/>
</clipPath>
<clipPath id="clip1_689_2843">
<rect width="434" height="91" fill="white" transform="translate(533 34.5)"/>
</clipPath>
</defs>
</svg>
