<?xml version="1.0" encoding="utf-8"?>
<!-- Generator: Adobe Illustrator 15.0.2, SVG Export Plug-In . SVG Version: 6.00 Build 0)  -->
<!DOCTYPE svg PUBLIC "-//W3C//DTD SVG 1.1//EN" "http://www.w3.org/Graphics/SVG/1.1/DTD/svg11.dtd">
<svg version="1.1" id="Layer_1" xmlns="http://www.w3.org/2000/svg" xmlns:xlink="http://www.w3.org/1999/xlink" x="0px"
     y="0px"
     width="282.653px" height="102.378px" viewBox="0 0 282.653 102.378" enable-background="new 0 0 282.653 102.378"
     xml:space="preserve">
<g>
	<g>
		<path fill="#0084CB" d="M159.311,68.345c0,4.953-1.641,8.755-4.92,11.403c-3.281,2.648-7.847,3.974-13.697,3.974
			c-2.819,0-5.276-0.2-7.373-0.593c-2.093-0.397-4.051-1.053-5.87-1.979v-9.803c4.138,2.373,8.341,3.559,12.611,3.559
			c2.106,0,3.833-0.429,5.177-1.285c1.343-0.855,2.015-2.021,2.015-3.498c0-1.133-0.488-2.146-1.462-3.044
			c-0.975-0.894-2.701-2.027-5.179-3.399c-3.186-1.79-5.415-3.576-6.678-5.355c-1.266-1.777-1.897-3.88-1.897-6.305
			c0-4.481,1.457-7.952,4.367-10.416c2.911-2.461,7.07-3.694,12.47-3.694c5.299,0,10.079,1.251,14.35,3.755l-3.914,8.498
			c-3.69-2.213-7.088-3.32-10.198-3.32c-1.502,0-2.714,0.336-3.636,1.008c-0.924,0.672-1.383,1.575-1.383,2.708
			c0,1.026,0.42,1.929,1.265,2.707c0.843,0.777,2.425,1.758,4.742,2.943c3.241,1.661,5.587,3.466,7.036,5.415
			C158.585,63.575,159.311,65.813,159.311,68.345z"/>
        <path fill="#0084CB" d="M165.971,38.74h11.661l2.212,20.475c0.371,3.215,0.554,7.074,0.554,11.58h0.237
			c0.529-1.345,1.108-2.919,1.739-4.722c0.635-1.807,1.488-3.83,2.569-6.068l10.277-21.265h12.925l-26.877,50.515
			c-4.663,8.748-11.027,13.123-19.093,13.123c-2.371,0-4.307-0.253-5.81-0.752V92.14c1.791,0.342,3.321,0.512,4.585,0.512
			c2.213,0,4.155-0.631,5.829-1.896c1.675-1.264,3.223-3.227,4.646-5.889l1.027-1.938L165.971,38.74z"/>
        <path fill="#0084CB" d="M238.525,82.929h-11.896l5.414-25.81c0.421-1.791,0.632-3.36,0.632-4.703c0-3.242-1.423-4.863-4.268-4.863
			c-2.425,0-4.625,1.502-6.601,4.506c-1.978,3.005-3.533,7.193-4.664,12.569l-3.876,18.3h-11.896l9.367-44.189h9.091L219,46.922
			h0.236c3.849-6.009,8.523-9.013,14.032-9.013c3.636,0,6.449,1.101,8.438,3.301c1.99,2.201,2.984,5.341,2.984,9.425
			c0,1.927-0.304,4.298-0.91,7.116L238.525,82.929z"/>
        <path fill="#0084CB" d="M262.73,83.722c-5.295,0-9.362-1.42-12.193-4.251c-2.832-2.833-4.248-6.831-4.248-11.997
			c0-5.584,0.982-10.663,2.942-15.236c1.964-4.572,4.726-8.104,8.282-10.593c3.559-2.49,7.614-3.736,12.174-3.736
			c4.797,0,9.116,0.95,12.966,2.846l-3.638,9.051c-1.423-0.604-2.82-1.131-4.189-1.58c-1.369-0.447-2.925-0.672-4.665-0.672
			c-2.238,0-4.261,0.844-6.066,2.531c-1.805,1.686-3.216,3.999-4.229,6.936c-1.014,2.938-1.521,6.093-1.521,9.466
			c0,2.531,0.599,4.436,1.799,5.711c1.199,1.279,2.865,1.919,5,1.919c2,0,3.86-0.311,5.573-0.931
			c1.715-0.617,3.479-1.389,5.295-2.312v9.725C272.007,82.679,267.579,83.722,262.73,83.722z"/>
	</g>
    <g>
		<path fill="#8CC63F" d="M140.895,31.638h-3.789l2.984-14.076h3.79L140.895,31.638z M140.694,14.264
			c0-0.729,0.199-1.281,0.597-1.656c0.398-0.373,0.963-0.559,1.695-0.559c0.611,0,1.077,0.129,1.397,0.39
			c0.318,0.259,0.477,0.633,0.477,1.12c0,0.673-0.185,1.215-0.554,1.63c-0.37,0.416-0.939,0.623-1.712,0.623
			C141.328,15.812,140.694,15.296,140.694,14.264z"/>
        <path fill="#8CC63F" d="M150.766,28.831c0.546,0,1.225-0.146,2.039-0.442v2.833c-0.933,0.444-2.048,0.667-3.349,0.667
			c-1.259,0-2.185-0.264-2.776-0.792c-0.591-0.53-0.888-1.348-0.888-2.457c0-0.419,0.051-0.89,0.15-1.41l1.449-6.787h-1.914
			l0.365-1.85l2.468-1.057l1.662-2.973h2.442l-0.617,2.997h3.563l-0.63,2.882h-3.551l-1.449,6.787
			c-0.049,0.251-0.075,0.474-0.075,0.667C149.656,28.519,150.026,28.831,150.766,28.831z"/>
        <path fill="#8CC63F" d="M166.108,31.638h-3.791l1.726-8.222c0.134-0.569,0.202-1.07,0.202-1.497c0-1.034-0.453-1.549-1.359-1.549
			c-0.773,0-1.475,0.479-2.103,1.436c-0.63,0.956-1.125,2.291-1.486,4.003l-1.233,5.829h-3.79l4.154-19.589h3.789
			c-0.327,1.519-0.577,2.686-0.754,3.499c-0.177,0.815-0.537,2.111-1.084,3.892h0.102c0.521-0.647,1.1-1.165,1.736-1.555
			c0.639-0.392,1.378-0.586,2.217-0.586c1.158,0,2.054,0.35,2.688,1.05c0.634,0.704,0.95,1.704,0.95,3.003
			c0,0.612-0.097,1.37-0.289,2.267L166.108,31.638z"/>
        <path fill="#8CC63F" d="M174.874,31.89c-1.763,0-3.131-0.474-4.104-1.421c-0.975-0.95-1.46-2.289-1.46-4.018
			c0-1.737,0.346-3.321,1.038-4.752c0.693-1.432,1.63-2.521,2.812-3.273c1.185-0.751,2.523-1.127,4.017-1.127
			c1.486,0,2.645,0.341,3.475,1.026c0.833,0.684,1.248,1.623,1.248,2.815c0,1.568-0.701,2.779-2.103,3.63
			c-1.402,0.854-3.404,1.279-6.005,1.279h-0.643l-0.026,0.264v0.252c0,0.766,0.217,1.366,0.649,1.807
			c0.432,0.442,1.051,0.66,1.855,0.66c0.731,0,1.394-0.08,1.989-0.238c0.598-0.16,1.318-0.44,2.166-0.842v2.856
			C178.341,31.528,176.703,31.89,174.874,31.89z M176.938,20.03c-0.737,0-1.436,0.336-2.09,1.007
			c-0.655,0.671-1.083,1.49-1.284,2.456h0.566c1.302,0,2.313-0.205,3.039-0.611c0.727-0.407,1.09-0.959,1.09-1.656
			C178.26,20.429,177.819,20.03,176.938,20.03z"/>
        <path fill="#8CC63F" d="M191.116,17.298c1.837,0,2.938,0.958,3.298,2.87h0.076c0.571-0.922,1.243-1.632,2.021-2.127
			c0.775-0.496,1.605-0.743,2.486-0.743c1.142,0,2.012,0.357,2.613,1.071c0.598,0.713,0.9,1.708,0.9,2.982
			c0,0.639-0.097,1.395-0.29,2.267l-1.675,8.02h-3.79l1.737-8.222c0.135-0.569,0.202-1.07,0.202-1.497
			c0-1.034-0.411-1.549-1.234-1.549c-0.772,0-1.472,0.47-2.095,1.41c-0.627,0.941-1.124,2.274-1.494,4.004l-1.207,5.854h-3.791
			l1.726-8.222c0.135-0.569,0.201-1.07,0.201-1.497c0-1.034-0.41-1.549-1.233-1.549c-0.771,0-1.473,0.479-2.103,1.436
			c-0.629,0.956-1.126,2.291-1.485,4.003l-1.233,5.829h-3.79l2.984-14.076h2.896l-0.265,2.606h0.075
			C187.872,18.256,189.361,17.298,191.116,17.298z"/>
        <path fill="#8CC63F" d="M208.584,31.89c-1.764,0-3.131-0.474-4.104-1.421c-0.975-0.95-1.461-2.289-1.461-4.018
			c0-1.737,0.346-3.321,1.039-4.752c0.691-1.432,1.629-2.521,2.814-3.273c1.182-0.751,2.521-1.127,4.015-1.127
			c1.486,0,2.645,0.341,3.475,1.026c0.831,0.684,1.247,1.623,1.247,2.815c0,1.568-0.7,2.779-2.104,3.63
			c-1.401,0.854-3.402,1.279-6.005,1.279h-0.642l-0.025,0.264v0.252c0,0.766,0.216,1.366,0.648,1.807
			c0.432,0.442,1.052,0.66,1.856,0.66c0.731,0,1.395-0.08,1.99-0.238c0.597-0.16,1.316-0.44,2.164-0.842v2.856
			C212.05,31.528,210.412,31.89,208.584,31.89z M210.648,20.03c-0.738,0-1.436,0.336-2.092,1.007
			c-0.653,0.671-1.081,1.49-1.283,2.456h0.566c1.301,0,2.316-0.205,3.042-0.611c0.725-0.407,1.088-0.959,1.088-1.656
			C211.97,20.429,211.529,20.03,210.648,20.03z"/>
        <path fill="#8CC63F" d="M225.398,26.993c0,1.577-0.523,2.787-1.568,3.631c-1.044,0.845-2.498,1.265-4.362,1.265
			c-0.897,0-1.681-0.063-2.348-0.189c-0.667-0.125-1.29-0.335-1.87-0.63v-3.12c1.318,0.755,2.657,1.132,4.018,1.132
			c0.671,0,1.221-0.136,1.647-0.409c0.429-0.273,0.644-0.645,0.644-1.115c0-0.361-0.156-0.684-0.467-0.97
			c-0.31-0.285-0.86-0.646-1.648-1.081c-1.016-0.571-1.725-1.141-2.129-1.706c-0.402-0.567-0.604-1.237-0.604-2.009
			c0-1.427,0.466-2.533,1.393-3.318c0.928-0.784,2.252-1.176,3.972-1.176c1.688,0,3.211,0.399,4.571,1.197l-1.247,2.706
			c-1.176-0.706-2.259-1.058-3.248-1.058c-0.479,0-0.865,0.107-1.159,0.322c-0.294,0.215-0.44,0.501-0.44,0.862
			c0,0.327,0.135,0.616,0.403,0.862c0.269,0.248,0.772,0.561,1.511,0.938c1.032,0.528,1.779,1.104,2.24,1.726
			C225.167,25.473,225.398,26.187,225.398,26.993z"/>
	</g>
</g>
    <path fill="#8CC63F" d="M115.257,20.541L97.52,24.091C89.779,9.219,74.633,0,57.876,0c-2.739,0-5.503,0.256-8.214,0.759
	c-2.579,0.479-5.146,1.196-7.63,2.128C21.849,10.474,9.955,31.32,13.66,52.533L0,69.843l18.391-3.68
	c7.827,14.521,22.855,23.523,39.338,23.523l0,0c2.739,0,5.503-0.255,8.215-0.76c2.58-0.479,5.147-1.195,7.631-2.127
	c20.081-7.549,31.989-28.306,28.404-49.433L115.257,20.541z M4.73,66.942L14.99,53.94l0.721-0.912l-0.207-1.109
	c-3.381-20.175,8.059-40.042,27.202-47.237c2.373-0.892,4.831-1.578,7.306-2.038c2.597-0.482,5.243-0.727,7.866-0.727
	c16.15,0,31.213,9.381,38.374,23.898l0.217,0.44l14.058-2.813L99.938,36.859l0.127,0.688c3.505,20.264-7.919,40.223-27.167,47.458
	c-2.379,0.895-4.837,1.58-7.307,2.038c-2.596,0.482-5.241,0.728-7.863,0.728c-15.864,0-30.347-8.732-37.776-22.744l-0.248-0.567
	l-0.258-0.463L4.73,66.942z"/>
    <path fill="#0084CB" d="M57.859,78.396c-11.458,0-21.991-5.525-28.174-14.781l-0.107-0.215l-0.58-1.648l25.604-5.125
	c-6.569-3.504-21.57-11.568-22.904-12.852c-2.959-2.846-3.445-4.716-3.959-6.696l-0.036-0.138c-0.476-1.827,0.097-5.077,0.831-7.324
	c1.826-5.278,5.44-11.891,17.326-16.359c3.824-1.438,7.816-2.167,11.866-2.167c11.407,0,22.302,5.963,28.434,15.562l0.077,0.147
	l0.699,1.679l-26.482,5.301c5.007,2.769,16.539,9.151,18.273,10.173c4.735,2.793,7.432,5.83,8.242,9.282
	c0.91,3.874,0.118,6.825-0.673,8.963c-0.871,2.643-7.35,11.087-16.718,14.252C65.761,77.741,61.817,78.396,57.859,78.396z
	 M31.701,63.164c5.876,8.352,15.598,13.315,26.158,13.315c3.75,0,7.486-0.62,11.107-1.844c8.823-2.98,14.823-10.946,15.522-13.069
	c0.709-1.918,1.409-4.516,0.616-7.892c-0.675-2.876-3.148-5.592-7.35-8.07C75.6,44.334,57.422,34.294,57.239,34.193l-2.291-1.265
	l29.203-5.845c-5.848-8.701-15.905-14.076-26.424-14.076c-3.818,0-7.584,0.688-11.192,2.044
	C35.46,19.214,32.139,25.059,30.35,30.228c-0.75,2.3-1.101,5.044-0.792,6.23l0.036,0.139c0.482,1.858,0.863,3.325,3.433,5.796
	c1.06,1.01,15.8,9,24.842,13.8l2.372,1.259L31.701,63.164z"/>
</svg>
